<svg width="1229" height="341" viewBox="0 0 1229 341" fill="none" xmlns="http://www.w3.org/2000/svg">
<path d="M107.642 0.854994H0.0168115V30.58H36.5068V138H70.9468V30.58H107.642V0.854994ZM211.223 138.205V78.755C211.223 51.9 199.538 33.86 175.963 33.86C166.943 33.86 160.793 36.525 156.488 39.6C151.158 43.7 149.313 49.03 148.288 53.13L147.263 57.845H146.853L147.468 55.795C148.083 52.105 148.493 48.21 148.493 44.52V1.05999H117.128V138.205H148.493V85.93C148.493 70.965 153.413 61.945 164.278 61.945C175.553 61.945 179.653 70.76 179.653 86.545C179.653 89.825 179.653 138.205 179.653 138.205H211.223ZM274.166 61.945C282.776 61.945 288.721 67.685 290.976 76.295H257.151C259.406 67.685 265.351 61.945 274.166 61.945ZM323.776 97.82C324.186 94.54 324.596 91.26 324.596 87.57C324.596 54.155 303.071 33.86 274.166 33.86C245.056 33.86 223.736 54.155 223.736 87.57C223.736 121.19 245.056 141.28 274.166 141.28C296.101 141.28 313.731 129.595 320.906 109.3L288.926 103.56C286.056 109.505 280.931 113.195 274.166 113.195C265.146 113.195 258.996 107.045 256.946 97.82H323.776ZM48.1918 211.815H64.5918V183.935H45.1168C45.1168 183.935 44.7068 178.605 44.7068 177.375C44.7068 175.12 46.3468 173.275 48.3968 173.275H56.8018V147.855H31.7918C22.3618 147.855 16.2118 154.415 16.2118 164.05C16.2118 169.79 17.6468 174.505 19.2868 177.99C20.1068 179.835 21.3368 181.27 22.9768 182.5C24.4118 183.73 26.2568 184.55 27.8968 185.165V185.37C26.8718 185.165 25.4368 184.96 24.4118 184.55C21.7468 184.14 19.0818 183.935 16.2118 183.935H2.88681V211.815H16.6218V285H48.1918V211.815ZM75.058 183.935V243.385C75.058 270.24 86.538 288.075 110.113 288.075C130.408 288.075 135.738 276.39 137.583 269.625L138.813 264.295H139.223L138.608 266.345C137.993 270.035 137.583 273.725 137.583 277.62V285H169.153V183.935H137.583V236.005C137.583 251.175 132.663 260.195 121.798 260.195C110.523 260.195 106.423 251.38 106.423 235.595C106.423 232.315 106.423 183.935 106.423 183.935H75.058ZM281.091 225.755C281.091 198.9 268.996 180.86 245.831 180.86C233.121 180.86 226.151 185.575 222.256 190.7C220.001 193.775 218.771 197.26 218.156 200.13L217.131 204.845H216.721L217.336 202.795C217.951 199.105 218.361 195.21 218.361 191.52V183.935H186.996V285.205H218.361V232.93C218.361 217.965 223.281 208.945 234.146 208.945C245.011 208.945 249.521 217.76 249.521 233.545C249.521 236.825 249.521 285.205 249.521 285.205H281.091V225.755ZM325.379 234.57C325.379 218.58 332.759 208.74 344.444 208.74C355.924 208.74 362.894 218.58 362.894 234.57C362.894 250.355 355.924 260.195 344.444 260.195C332.759 260.195 325.379 250.355 325.379 234.57ZM364.739 147.855V192.135C364.739 196.03 365.149 199.72 365.969 203.41L366.379 205.46H365.969L364.739 200.13C363.099 193.16 358.179 180.86 337.064 180.86C309.799 180.86 294.014 204.025 294.014 234.57C294.014 264.91 309.799 288.075 337.064 288.075C358.179 288.075 363.099 275.775 364.739 268.805L365.969 263.475H366.379L365.969 265.525C365.149 269.215 364.739 273.11 364.739 276.8V285H396.309V147.855H364.739ZM469.363 245.845C469.363 253.635 462.598 261.425 451.733 261.425C445.583 261.425 442.303 258.555 441.893 254.66C441.688 250.355 444.558 246.87 451.118 245.64C456.243 244.82 461.573 243.59 464.238 242.77C468.338 241.95 469.568 240.925 469.568 240.925L469.363 245.845ZM507.493 259.785H502.778C501.753 259.785 500.728 258.76 500.728 257.735V222.68C501.138 196.645 486.583 180.86 458.498 180.86C444.148 180.86 432.463 184.96 424.468 192.545C415.858 200.54 413.193 210.79 414.423 220.63L445.378 217.145C444.968 214.685 445.378 211.815 447.018 209.765C449.068 207.305 453.168 205.665 457.883 205.87C465.058 205.87 469.158 209.56 469.158 214.07C469.158 216.735 467.723 218.17 465.673 219.195C463.418 220.22 456.038 221.45 448.453 223.295C441.688 224.935 432.463 227.19 427.338 229.855C414.833 235.8 410.118 245.845 410.323 258.555C410.323 274.75 423.648 288.28 444.558 288.28C459.113 288.075 467.928 281.72 472.438 273.52C473.668 271.265 474.898 267.165 475.718 263.885C475.923 262.45 476.128 260.81 476.128 260.81L476.538 261.015L476.333 262.45C475.923 264.295 475.718 266.14 475.513 267.985C475.513 269.42 475.308 271.88 475.308 273.93C475.308 280.285 479.613 285 487.198 285.205H507.493V259.785ZM607.222 195.005C601.482 185.37 593.487 180.86 581.802 180.86C569.297 180.86 561.917 185.37 557.407 190.495C554.537 193.775 552.897 197.26 552.282 200.13L551.257 204.845H550.847L551.462 202.795C552.077 199.105 552.487 195.21 552.487 191.52V183.935H521.122V285.205H552.487V232.93C552.487 217.965 556.997 208.945 567.452 208.945C577.292 208.945 582.007 216.53 582.007 232.93C582.007 236.21 582.007 285.205 582.007 285.205H613.577V232.93C613.577 217.965 618.087 208.945 628.542 208.945C638.382 208.945 643.097 216.94 643.097 232.725C643.097 236.005 643.097 285.205 643.097 285.205H674.667V222.475C674.667 195.415 661.137 180.86 638.997 180.86C625.672 180.86 617.882 186.6 613.577 191.725C610.912 195.005 609.682 198.285 609.067 200.745C609.067 200.95 608.247 204.845 608.247 204.845H607.837L608.247 203C609.067 199.515 608.452 197.055 607.222 195.005ZM735.616 208.945C744.226 208.945 750.171 214.685 752.426 223.295H718.601C720.856 214.685 726.801 208.945 735.616 208.945ZM785.226 244.82C785.636 241.54 786.046 238.26 786.046 234.57C786.046 201.155 764.521 180.86 735.616 180.86C706.506 180.86 685.186 201.155 685.186 234.57C685.186 268.19 706.506 288.28 735.616 288.28C757.551 288.28 775.181 276.595 782.356 256.3L750.376 250.56C747.506 256.505 742.381 260.195 735.616 260.195C726.596 260.195 720.446 254.045 718.396 244.82H785.226ZM893.689 225.755C893.689 198.9 881.594 180.86 858.429 180.86C845.719 180.86 838.749 185.575 834.854 190.7C832.599 193.775 831.369 197.26 830.754 200.13L829.729 204.845H829.319L829.934 202.795C830.549 199.105 830.959 195.21 830.959 191.52V183.935H799.594V285.205H830.959V232.93C830.959 217.965 835.879 208.945 846.744 208.945C857.609 208.945 862.119 217.76 862.119 233.545C862.119 236.825 862.119 285.205 862.119 285.205H893.689V225.755ZM947.927 257.12C946.697 257.12 945.672 256.095 945.672 254.865V209.355H961.457V183.935H945.672V147.855H917.997C917.997 147.855 917.997 171.02 917.997 174.095C917.997 180.245 913.077 185.165 906.927 185.165H899.752V209.355H914.102C914.102 215.71 914.102 267.78 914.102 268.395C914.102 277.62 921.482 285 930.912 285H967.197V257.12H947.927ZM1035.52 245.845C1035.52 253.635 1028.75 261.425 1017.89 261.425C1011.74 261.425 1008.46 258.555 1008.05 254.66C1007.84 250.355 1010.71 246.87 1017.27 245.64C1022.4 244.82 1027.73 243.59 1030.39 242.77C1034.49 241.95 1035.72 240.925 1035.72 240.925L1035.52 245.845ZM1073.65 259.785H1068.93C1067.91 259.785 1066.88 258.76 1066.88 257.735V222.68C1067.29 196.645 1052.74 180.86 1024.65 180.86C1010.3 180.86 998.615 184.96 990.62 192.545C982.01 200.54 979.345 210.79 980.575 220.63L1011.53 217.145C1011.12 214.685 1011.53 211.815 1013.17 209.765C1015.22 207.305 1019.32 205.665 1024.04 205.87C1031.21 205.87 1035.31 209.56 1035.31 214.07C1035.31 216.735 1033.88 218.17 1031.83 219.195C1029.57 220.22 1022.19 221.45 1014.61 223.295C1007.84 224.935 998.615 227.19 993.49 229.855C980.985 235.8 976.27 245.845 976.475 258.555C976.475 274.75 989.8 288.28 1010.71 288.28C1025.27 288.075 1034.08 281.72 1038.59 273.52C1039.82 271.265 1041.05 267.165 1041.87 263.885C1042.08 262.45 1042.28 260.81 1042.28 260.81L1042.69 261.015L1042.49 262.45C1042.08 264.295 1041.87 266.14 1041.67 267.985C1041.67 269.42 1041.46 271.88 1041.46 273.93C1041.46 280.285 1045.77 285 1053.35 285.205H1073.65V259.785ZM1086.86 268.395C1086.86 277.62 1094.24 285.205 1103.47 285.205H1132.58V257.12H1120.69C1119.25 257.12 1118.23 256.095 1118.23 254.865V148.06H1086.86C1086.86 148.06 1086.86 267.575 1086.86 268.395ZM1228.98 256.71C1228.98 234.365 1209.92 228.42 1194.13 224.115C1186.14 221.86 1174.86 220.22 1174.86 213.455C1174.86 209.15 1177.94 206.075 1185.52 206.075C1193.31 206.075 1196.59 209.56 1196.59 214.275L1225.5 214.48C1225.5 193.775 1210.53 180.86 1184.09 180.86C1156.21 180.86 1143.29 194.595 1143.29 209.765C1143.29 231.905 1160.51 238.26 1176.3 242.565C1187.57 245.64 1197.21 248.1 1197.21 254.455C1197.21 259.99 1192.29 262.655 1185.32 262.655C1175.68 262.655 1172.4 256.095 1172.4 251.38H1141.04C1141.04 272.495 1156.21 288.075 1186.75 288.075C1214.63 288.075 1228.98 274.955 1228.98 256.71Z" fill="#FFF6E9"/>
<line x1="1.60681" y1="326" x2="1228.83" y2="326" stroke="#C096D6" stroke-width="30"/>
</svg>
