<svg width="1061" height="320" viewBox="0 0 1061 320" fill="none" xmlns="http://www.w3.org/2000/svg">
<line x1="58.0002" y1="177.5" x2="517" y2="177.5" stroke="#8CD87C" stroke-width="17"/>
<line x1="0.000244141" y1="311.5" x2="158" y2="311.5" stroke="#8CD87C" stroke-width="17"/>
<path d="M17.7902 127.715H12.7952C12.4352 127.715 12.1202 127.85 11.8952 128.12L11.4452 128.525L11.4002 128.48L11.8502 128.03C12.0752 127.805 12.2102 127.445 12.2102 127.13V104.81C12.2102 104.45 12.0752 104.135 11.8502 103.865L11.4002 103.46L11.4452 103.37L11.8952 103.82C12.1202 104.045 12.4352 104.18 12.7952 104.18H17.7902C24.2702 104.18 29.0852 108.365 29.0852 115.97C29.0852 123.53 24.2702 127.715 17.7902 127.715ZM18.5102 100.895H8.52024V131.045H18.5102C26.6552 131.045 32.8202 125.555 32.8202 115.97C32.8202 106.385 26.6552 100.895 18.5102 100.895ZM39.8842 131.045V120.11C39.8842 116.375 41.6392 111.47 43.4392 111.47C44.6542 111.47 45.0142 113.09 45.0142 114.35V116.825H48.4792V113.63C48.4792 110.3 47.3992 108.14 44.7892 108.14C43.4392 108.14 42.3142 109.13 41.5042 110.3C40.6942 111.425 40.2442 112.73 40.1092 113.495C40.0642 113.63 39.8842 114.71 39.8392 114.845L39.7042 115.7H39.6592L39.7492 115.115C39.8392 114.395 39.8842 113.72 39.8842 113V108.815H36.4642V131.045H39.8842ZM65.5293 121.865C65.5293 125.6 63.0993 128.66 58.6443 128.66C56.1243 128.66 54.5043 127.265 54.2793 125.33C54.0543 123.305 55.2243 121.325 58.1043 120.785C59.6793 120.515 62.3793 119.975 63.4143 119.75C65.1243 119.435 65.5293 118.895 65.5293 118.895V121.865ZM70.7943 128.12H69.2193C69.0843 128.12 68.9943 128.03 68.9943 127.895V116.555C69.0393 111.29 66.0693 108.14 60.3993 108.14C57.4293 108.14 54.9093 109.13 53.3343 110.93C51.8493 112.595 51.3993 114.71 51.8493 116.78L55.2243 116.285C54.9993 115.205 55.0443 113.855 55.8993 112.775C56.6193 111.92 57.9693 111.02 60.3543 111.02C63.6393 111.02 65.3943 112.82 65.3943 115.025C65.3943 115.925 64.9893 116.51 64.2243 116.825C63.5493 117.095 62.3343 117.275 60.7593 117.59C59.5443 117.86 57.4293 118.31 55.9893 118.715C51.8943 119.84 50.7243 122.585 50.8143 125.42C50.8593 128.66 53.4243 131.72 58.0593 131.72C61.0743 131.72 63.3243 130.55 64.7643 128.795C65.4393 127.94 65.8893 126.815 66.1143 125.69C66.1593 125.6 66.2943 124.925 66.2943 124.925H66.3393L66.2943 125.24C66.1593 125.915 66.1143 126.59 66.0693 127.265C66.0693 127.535 66.0693 128.57 66.0693 129.38C66.0693 130.325 66.7443 131.045 67.7793 131.045H70.7943V128.12ZM83.7532 128.57C79.2982 128.57 76.7332 124.88 76.7332 119.93C76.7332 114.98 79.2982 111.29 83.7532 111.29C88.1632 111.29 90.4582 114.98 90.4582 119.93C90.4582 124.88 88.2082 128.57 83.7532 128.57ZM94.0582 127.67V108.815H90.5932V112.325C90.5932 113 90.6832 113.675 90.8632 114.35L91.0432 114.89L90.9982 114.935L90.4582 113.27C89.8732 111.38 88.2082 108.14 83.1232 108.14C77.2282 108.14 73.3132 113.09 73.3132 119.93C73.3132 126.77 77.1832 131.72 83.1232 131.72C88.2082 131.72 89.9182 128.48 90.5032 126.545L90.9982 124.925L91.0432 124.97L90.8632 125.555C90.7282 126.05 90.6382 126.59 90.6382 127.13C90.6382 127.265 90.5932 128.48 90.5932 128.615C90.5932 130.685 91.7182 131.99 91.7182 133.52C91.7182 135.68 89.9632 136.085 87.9832 136.04H76.9132V138.965H89.1982C93.3832 138.965 95.2732 137.345 95.2732 134.06C95.2732 131.315 94.0582 130.685 94.0582 127.67ZM107.835 128.57C103.38 128.57 100.815 124.88 100.815 119.93C100.815 114.98 103.38 111.29 107.835 111.29C112.245 111.29 114.54 114.98 114.54 119.93C114.54 124.88 112.29 128.57 107.835 128.57ZM118.14 127.67V108.815H114.675V112.325C114.675 113 114.765 113.675 114.945 114.35L115.125 114.89L115.08 114.935L114.54 113.27C113.955 111.38 112.29 108.14 107.205 108.14C101.31 108.14 97.3952 113.09 97.3952 119.93C97.3952 126.77 101.265 131.72 107.205 131.72C112.29 131.72 114 128.48 114.585 126.545L115.08 124.925L115.125 124.97L114.945 125.555C114.81 126.05 114.72 126.59 114.72 127.13C114.72 127.265 114.675 128.48 114.675 128.615C114.675 130.685 115.8 131.99 115.8 133.52C115.8 135.68 114.045 136.085 112.065 136.04H100.995V138.965H113.28C117.465 138.965 119.355 137.345 119.355 134.06C119.355 131.315 118.14 130.685 118.14 127.67ZM122.861 131.045H126.326C126.326 125.375 126.326 108.905 126.326 108.815H122.861V131.045ZM124.571 105.665C125.651 105.665 126.506 104.81 126.506 103.775C126.506 102.695 125.651 101.84 124.571 101.84C123.536 101.84 122.681 102.695 122.681 103.775C122.681 104.81 123.536 105.665 124.571 105.665ZM149.937 118.355C149.937 111.785 146.787 108.14 141.567 108.14C138.552 108.14 136.572 109.49 135.447 110.885C134.907 111.56 134.592 112.37 134.367 113.09L134.007 114.26L133.917 114.215L134.097 113.63C134.277 113 134.367 112.325 134.367 111.65V108.815H130.947V131.045H134.367V118.58C134.367 114.215 136.797 111.29 140.532 111.29C144.447 111.29 146.517 114.08 146.517 119.03C146.517 121.91 146.517 131.045 146.517 131.045H149.937V118.355ZM163.294 128.57C158.839 128.57 156.274 124.88 156.274 119.93C156.274 114.98 158.839 111.29 163.294 111.29C167.704 111.29 169.999 114.98 169.999 119.93C169.999 124.88 167.749 128.57 163.294 128.57ZM173.599 127.67V108.815H170.134V112.325C170.134 113 170.224 113.675 170.404 114.35L170.584 114.89L170.539 114.935L169.999 113.27C169.414 111.38 167.749 108.14 162.664 108.14C156.769 108.14 152.854 113.09 152.854 119.93C152.854 126.77 156.724 131.72 162.664 131.72C167.749 131.72 169.459 128.48 170.044 126.545L170.539 124.925L170.584 124.97L170.404 125.555C170.269 126.05 170.179 126.59 170.179 127.13C170.179 127.265 170.134 128.48 170.134 128.615C170.134 130.685 171.259 131.99 171.259 133.52C171.259 135.68 169.504 136.085 167.524 136.04H156.454V138.965H168.739C172.924 138.965 174.814 137.345 174.814 134.06C174.814 131.315 173.599 130.685 173.599 127.67ZM207.359 125.24C207.359 120.56 203.039 119.255 199.439 118.355C197.504 117.86 193.859 117.05 193.859 114.305C193.859 112.64 195.209 111.02 198.539 111.02C202.229 111.02 203.354 113.045 203.354 115.295H206.549C206.549 111.65 204.479 108.14 198.449 108.14C192.734 108.14 190.394 110.93 190.394 113.99C190.394 117.995 193.454 119.615 197.684 120.65C201.869 121.64 203.894 122.855 203.894 125.06C203.894 127.49 201.779 128.795 198.854 128.795C193.994 128.795 193.319 125.33 193.319 123.935H189.899C189.899 127.67 192.284 131.675 198.989 131.675C204.839 131.675 207.359 128.75 207.359 125.24ZM220.643 111.29C224.648 111.29 227.033 114.305 227.438 118.4H213.803C214.208 114.305 216.638 111.29 220.643 111.29ZM230.993 120.965C231.038 120.65 231.083 120.29 231.083 119.93C231.083 113.045 226.853 108.14 220.643 108.14C214.433 108.14 210.203 113.045 210.203 119.93C210.203 126.815 214.433 131.72 220.643 131.72C225.638 131.72 229.283 128.525 230.588 123.755L227.078 123.125C226.313 126.32 224.063 128.57 220.643 128.57C216.458 128.57 214.028 125.285 213.803 120.965H230.993ZM248.605 121.865C248.605 125.6 246.175 128.66 241.72 128.66C239.2 128.66 237.58 127.265 237.355 125.33C237.13 123.305 238.3 121.325 241.18 120.785C242.755 120.515 245.455 119.975 246.49 119.75C248.2 119.435 248.605 118.895 248.605 118.895V121.865ZM253.87 128.12H252.295C252.16 128.12 252.07 128.03 252.07 127.895V116.555C252.115 111.29 249.145 108.14 243.475 108.14C240.505 108.14 237.985 109.13 236.41 110.93C234.925 112.595 234.475 114.71 234.925 116.78L238.3 116.285C238.075 115.205 238.12 113.855 238.975 112.775C239.695 111.92 241.045 111.02 243.43 111.02C246.715 111.02 248.47 112.82 248.47 115.025C248.47 115.925 248.065 116.51 247.3 116.825C246.625 117.095 245.41 117.275 243.835 117.59C242.62 117.86 240.505 118.31 239.065 118.715C234.97 119.84 233.8 122.585 233.89 125.42C233.935 128.66 236.5 131.72 241.135 131.72C244.15 131.72 246.4 130.55 247.84 128.795C248.515 127.94 248.965 126.815 249.19 125.69C249.235 125.6 249.37 124.925 249.37 124.925H249.415L249.37 125.24C249.235 125.915 249.19 126.59 249.145 127.265C249.145 127.535 249.145 128.57 249.145 129.38C249.145 130.325 249.82 131.045 250.855 131.045H253.87V128.12ZM260.709 131.045V120.11C260.709 116.375 262.464 111.47 264.264 111.47C265.479 111.47 265.839 113.09 265.839 114.35V116.825H269.304V113.63C269.304 110.3 268.224 108.14 265.614 108.14C264.264 108.14 263.139 109.13 262.329 110.3C261.519 111.425 261.069 112.73 260.934 113.495C260.889 113.63 260.709 114.71 260.664 114.845L260.529 115.7H260.484L260.574 115.115C260.664 114.395 260.709 113.72 260.709 113V108.815H257.289V131.045H260.709ZM288.829 122.135C288.154 125.96 285.769 128.57 282.034 128.57C277.579 128.57 275.014 124.88 275.014 119.93C275.014 114.98 277.579 111.29 282.034 111.29C285.769 111.29 288.154 113.9 288.829 117.725L292.249 117.365C291.349 111.785 287.434 108.14 282.034 108.14C275.824 108.14 271.594 113.045 271.594 119.93C271.594 126.815 275.824 131.72 282.034 131.72C287.434 131.72 291.349 128.075 292.249 122.54L288.829 122.135ZM314.819 131.045V118.355C314.819 111.785 311.894 108.14 306.449 108.14C303.974 108.14 302.174 109.13 301.004 110.255C300.059 111.11 299.519 112.19 299.204 113.18L298.889 114.26L298.799 114.215L298.979 113.63C299.159 113 299.249 112.325 299.249 111.65V100.94H295.829V131.045H299.249V118.58C299.249 114.215 301.679 111.29 305.414 111.29C309.599 111.29 311.399 114.08 311.399 119.03C311.399 121.91 311.399 131.045 311.399 131.045H314.819ZM328.704 111.29C332.709 111.29 335.094 114.305 335.499 118.4H321.864C322.269 114.305 324.699 111.29 328.704 111.29ZM339.054 120.965C339.099 120.65 339.144 120.29 339.144 119.93C339.144 113.045 334.914 108.14 328.704 108.14C322.494 108.14 318.264 113.045 318.264 119.93C318.264 126.815 322.494 131.72 328.704 131.72C333.699 131.72 337.344 128.525 338.649 123.755L335.139 123.125C334.374 126.32 332.124 128.57 328.704 128.57C324.519 128.57 322.089 125.285 321.864 120.965H339.054ZM359.322 125.24C359.322 120.56 355.002 119.255 351.402 118.355C349.467 117.86 345.822 117.05 345.822 114.305C345.822 112.64 347.172 111.02 350.502 111.02C354.192 111.02 355.317 113.045 355.317 115.295H358.512C358.512 111.65 356.442 108.14 350.412 108.14C344.697 108.14 342.357 110.93 342.357 113.99C342.357 117.995 345.417 119.615 349.647 120.65C353.832 121.64 355.857 122.855 355.857 125.06C355.857 127.49 353.742 128.795 350.817 128.795C345.957 128.795 345.282 125.33 345.282 123.935H341.862C341.862 127.67 344.247 131.675 350.952 131.675C356.802 131.675 359.322 128.75 359.322 125.24ZM366.711 128.975C366.441 128.03 365.496 127.4 364.506 127.625C363.696 127.76 363.066 128.48 363.021 129.29C363.021 129.605 363.066 129.92 363.201 130.19C363.336 130.37 363.246 130.595 363.156 130.73L361.491 132.485L363.156 134.06L366.306 130.685C366.756 130.235 366.846 129.605 366.711 128.975ZM382.446 131.045H385.911C385.911 125.375 385.911 108.905 385.911 108.815H382.446V131.045ZM384.156 105.665C385.236 105.665 386.091 104.81 386.091 103.775C386.091 102.695 385.236 101.84 384.156 101.84C383.121 101.84 382.266 102.695 382.266 103.775C382.266 104.81 383.121 105.665 384.156 105.665ZM393.952 131.045V120.11C393.952 116.375 395.707 111.47 397.507 111.47C398.722 111.47 399.082 113.09 399.082 114.35V116.825H402.547V113.63C402.547 110.3 401.467 108.14 398.857 108.14C397.507 108.14 396.382 109.13 395.572 110.3C394.762 111.425 394.312 112.73 394.177 113.495C394.132 113.63 393.952 114.71 393.907 114.845L393.772 115.7H393.727L393.817 115.115C393.907 114.395 393.952 113.72 393.952 113V108.815H390.532V131.045H393.952ZM408.278 131.045V120.11C408.278 116.375 410.033 111.47 411.833 111.47C413.048 111.47 413.408 113.09 413.408 114.35V116.825H416.873V113.63C416.873 110.3 415.793 108.14 413.183 108.14C411.833 108.14 410.708 109.13 409.898 110.3C409.088 111.425 408.638 112.73 408.503 113.495C408.458 113.63 408.278 114.71 408.233 114.845L408.098 115.7H408.053L408.143 115.115C408.233 114.395 408.278 113.72 408.278 113V108.815H404.858V131.045H408.278ZM429.603 111.29C433.608 111.29 435.993 114.305 436.398 118.4H422.763C423.168 114.305 425.598 111.29 429.603 111.29ZM439.953 120.965C439.998 120.65 440.043 120.29 440.043 119.93C440.043 113.045 435.813 108.14 429.603 108.14C423.393 108.14 419.163 113.045 419.163 119.93C419.163 126.815 423.393 131.72 429.603 131.72C434.598 131.72 438.243 128.525 439.548 123.755L436.038 123.125C435.273 126.32 433.023 128.57 429.603 128.57C425.418 128.57 422.988 125.285 422.763 120.965H439.953ZM443.66 128.93C443.66 130.1 444.605 131.045 445.775 131.045H451.4V127.895H447.35C447.215 127.895 447.08 127.805 447.08 127.625V100.94H443.66C443.615 101.075 443.615 128.21 443.66 128.93ZM462.825 111.29C466.83 111.29 469.215 114.305 469.62 118.4H455.985C456.39 114.305 458.82 111.29 462.825 111.29ZM473.175 120.965C473.22 120.65 473.265 120.29 473.265 119.93C473.265 113.045 469.035 108.14 462.825 108.14C456.615 108.14 452.385 113.045 452.385 119.93C452.385 126.815 456.615 131.72 462.825 131.72C467.82 131.72 471.465 128.525 472.77 123.755L469.26 123.125C468.495 126.32 466.245 128.57 462.825 128.57C458.64 128.57 456.21 125.285 455.985 120.965H473.175ZM490.905 108.815L484.425 127.22C484.29 127.625 484.2 128.12 484.2 128.57V129.38H484.11V128.57C484.11 128.12 484.065 127.67 483.93 127.22L477.45 108.815H473.895L481.68 131.045H486.675L494.46 108.815H490.905ZM510.036 121.865C510.036 125.6 507.606 128.66 503.151 128.66C500.631 128.66 499.011 127.265 498.786 125.33C498.561 123.305 499.731 121.325 502.611 120.785C504.186 120.515 506.886 119.975 507.921 119.75C509.631 119.435 510.036 118.895 510.036 118.895V121.865ZM515.301 128.12H513.726C513.591 128.12 513.501 128.03 513.501 127.895V116.555C513.546 111.29 510.576 108.14 504.906 108.14C501.936 108.14 499.416 109.13 497.841 110.93C496.356 112.595 495.906 114.71 496.356 116.78L499.731 116.285C499.506 115.205 499.551 113.855 500.406 112.775C501.126 111.92 502.476 111.02 504.861 111.02C508.146 111.02 509.901 112.82 509.901 115.025C509.901 115.925 509.496 116.51 508.731 116.825C508.056 117.095 506.841 117.275 505.266 117.59C504.051 117.86 501.936 118.31 500.496 118.715C496.401 119.84 495.231 122.585 495.321 125.42C495.366 128.66 497.931 131.72 502.566 131.72C505.581 131.72 507.831 130.55 509.271 128.795C509.946 127.94 510.396 126.815 510.621 125.69C510.666 125.6 510.801 124.925 510.801 124.925H510.846L510.801 125.24C510.666 125.915 510.621 126.59 510.576 127.265C510.576 127.535 510.576 128.57 510.576 129.38C510.576 130.325 511.251 131.045 512.286 131.045H515.301V128.12ZM537.71 118.355C537.71 111.785 534.56 108.14 529.34 108.14C526.325 108.14 524.345 109.49 523.22 110.885C522.68 111.56 522.365 112.37 522.14 113.09L521.78 114.26L521.69 114.215L521.87 113.63C522.05 113 522.14 112.325 522.14 111.65V108.815H518.72V131.045H522.14V118.58C522.14 114.215 524.57 111.29 528.305 111.29C532.22 111.29 534.29 114.08 534.29 119.03C534.29 121.91 534.29 131.045 534.29 131.045H537.71V118.355ZM546.4 127.895C546.265 127.895 546.175 127.76 546.175 127.625V111.695H550.09V108.77H546.175V100.895H543.025C543.025 100.94 543.025 104.765 543.025 107.465C543.025 108.275 542.395 108.905 541.585 108.905H539.29V111.695H542.71C542.71 117.23 542.71 128.435 542.71 128.885C542.71 130.055 543.655 131 544.825 131H551.08V127.895H546.4ZM583.404 112.505C582.189 109.22 579.669 108.14 576.879 108.14C573.954 108.14 572.244 109.49 571.209 110.885C570.624 111.605 570.264 112.415 570.039 113.18L569.724 114.26L569.634 114.215L569.814 113.63C569.994 113 570.084 112.325 570.084 111.65V108.815H566.664V131.045H570.084V118.58C570.084 114.215 572.154 111.29 575.619 111.29C578.589 111.29 580.839 113 580.839 118.58C580.839 121.415 580.839 131.045 580.839 131.045H584.304V118.58C584.304 114.215 586.329 111.29 589.839 111.29C592.809 111.29 595.059 113.36 595.059 118.355C595.059 121.19 595.059 131.045 595.059 131.045H598.524V117.41C598.524 110.885 595.014 108.14 590.739 108.14C587.094 108.14 585.204 110.39 584.394 111.83C583.989 112.55 583.719 113.27 583.629 113.72C583.584 113.81 583.494 114.26 583.494 114.26L583.449 114.215L583.494 113.9C583.629 113.36 583.584 112.91 583.404 112.505ZM611.888 111.29C615.893 111.29 618.278 114.305 618.683 118.4H605.048C605.453 114.305 607.883 111.29 611.888 111.29ZM622.238 120.965C622.283 120.65 622.328 120.29 622.328 119.93C622.328 113.045 618.098 108.14 611.888 108.14C605.678 108.14 601.448 113.045 601.448 119.93C601.448 126.815 605.678 131.72 611.888 131.72C616.883 131.72 620.528 128.525 621.833 123.755L618.323 123.125C617.558 126.32 615.308 128.57 611.888 128.57C607.703 128.57 605.273 125.285 605.048 120.965H622.238ZM630.38 127.895C630.245 127.895 630.155 127.76 630.155 127.625V111.695H634.07V108.77H630.155V100.895H627.005C627.005 100.94 627.005 104.765 627.005 107.465C627.005 108.275 626.375 108.905 625.565 108.905H623.27V111.695H626.69C626.69 117.23 626.69 128.435 626.69 128.885C626.69 130.055 627.635 131 628.805 131H635.06V127.895H630.38ZM641.1 131.045V120.11C641.1 116.375 642.855 111.47 644.655 111.47C645.87 111.47 646.23 113.09 646.23 114.35V116.825H649.695V113.63C649.695 110.3 648.615 108.14 646.005 108.14C644.655 108.14 643.53 109.13 642.72 110.3C641.91 111.425 641.46 112.73 641.325 113.495C641.28 113.63 641.1 114.71 641.055 114.845L640.92 115.7H640.875L640.965 115.115C641.055 114.395 641.1 113.72 641.1 113V108.815H637.68V131.045H641.1ZM652.006 131.045H655.471C655.471 125.375 655.471 108.905 655.471 108.815H652.006V131.045ZM653.716 105.665C654.796 105.665 655.651 104.81 655.651 103.775C655.651 102.695 654.796 101.84 653.716 101.84C652.681 101.84 651.826 102.695 651.826 103.775C651.826 104.81 652.681 105.665 653.716 105.665ZM675.944 122.135C675.269 125.96 672.884 128.57 669.149 128.57C664.694 128.57 662.129 124.88 662.129 119.93C662.129 114.98 664.694 111.29 669.149 111.29C672.884 111.29 675.269 113.9 675.944 117.725L679.364 117.365C678.464 111.785 674.549 108.14 669.149 108.14C662.939 108.14 658.709 113.045 658.709 119.93C658.709 126.815 662.939 131.72 669.149 131.72C674.549 131.72 678.464 128.075 679.364 122.54L675.944 122.135ZM699.459 125.24C699.459 120.56 695.139 119.255 691.539 118.355C689.604 117.86 685.959 117.05 685.959 114.305C685.959 112.64 687.309 111.02 690.639 111.02C694.329 111.02 695.454 113.045 695.454 115.295H698.649C698.649 111.65 696.579 108.14 690.549 108.14C684.834 108.14 682.494 110.93 682.494 113.99C682.494 117.995 685.554 119.615 689.784 120.65C693.969 121.64 695.994 122.855 695.994 125.06C695.994 127.49 693.879 128.795 690.954 128.795C686.094 128.795 685.419 125.33 685.419 123.935H681.999C681.999 127.67 684.384 131.675 691.089 131.675C696.939 131.675 699.459 128.75 699.459 125.24ZM706.847 128.975C706.577 128.03 705.632 127.4 704.642 127.625C703.832 127.76 703.202 128.48 703.157 129.29C703.157 129.605 703.202 129.92 703.337 130.19C703.472 130.37 703.382 130.595 703.292 130.73L701.627 132.485L703.292 134.06L706.442 130.685C706.892 130.235 706.982 129.605 706.847 128.975ZM732.122 128.57C727.667 128.57 725.102 124.88 725.102 119.93C725.102 114.98 727.667 111.29 732.122 111.29C736.532 111.29 738.827 114.98 738.827 119.93C738.827 124.88 736.577 128.57 732.122 128.57ZM742.427 127.67V108.815H738.962V112.325C738.962 113 739.052 113.675 739.232 114.35L739.412 114.89L739.367 114.935L738.827 113.27C738.242 111.38 736.577 108.14 731.492 108.14C725.597 108.14 721.682 113.09 721.682 119.93C721.682 126.77 725.552 131.72 731.492 131.72C736.577 131.72 738.287 128.48 738.872 126.545L739.367 124.925L739.412 124.97L739.232 125.555C739.097 126.05 739.007 126.59 739.007 127.13C739.007 127.265 738.962 128.48 738.962 128.615C738.962 130.685 740.087 131.99 740.087 133.52C740.087 135.68 738.332 136.085 736.352 136.04H725.282V138.965H737.567C741.752 138.965 743.642 137.345 743.642 134.06C743.642 131.315 742.427 130.685 742.427 127.67ZM766.138 131.045V118.355C766.138 111.785 763.213 108.14 757.768 108.14C755.293 108.14 753.493 109.13 752.323 110.255C751.378 111.11 750.838 112.19 750.523 113.18L750.208 114.26L750.118 114.215L750.298 113.63C750.478 113 750.568 112.325 750.568 111.65V100.94H747.148V131.045H750.568V118.58C750.568 114.215 752.998 111.29 756.733 111.29C760.918 111.29 762.718 114.08 762.718 119.03C762.718 121.91 762.718 131.045 762.718 131.045H766.138ZM773.003 119.93C773.003 114.98 775.568 111.29 780.023 111.29C784.433 111.29 786.998 114.98 786.998 119.93C786.998 124.88 784.433 128.57 780.023 128.57C775.568 128.57 773.003 124.88 773.003 119.93ZM790.463 119.93C790.463 113.045 786.233 108.14 780.023 108.14C773.813 108.14 769.583 113.045 769.583 119.93C769.583 126.815 773.813 131.72 780.023 131.72C786.233 131.72 790.463 126.815 790.463 119.93ZM810.728 125.24C810.728 120.56 806.408 119.255 802.808 118.355C800.873 117.86 797.228 117.05 797.228 114.305C797.228 112.64 798.578 111.02 801.908 111.02C805.598 111.02 806.723 113.045 806.723 115.295H809.918C809.918 111.65 807.848 108.14 801.818 108.14C796.103 108.14 793.763 110.93 793.763 113.99C793.763 117.995 796.823 119.615 801.053 120.65C805.238 121.64 807.263 122.855 807.263 125.06C807.263 127.49 805.148 128.795 802.223 128.795C797.363 128.795 796.688 125.33 796.688 123.935H793.268C793.268 127.67 795.653 131.675 802.358 131.675C808.208 131.675 810.728 128.75 810.728 125.24ZM819.872 127.895C819.737 127.895 819.647 127.76 819.647 127.625V111.695H823.562V108.77H819.647V100.895H816.497C816.497 100.94 816.497 104.765 816.497 107.465C816.497 108.275 815.867 108.905 815.057 108.905H812.762V111.695H816.182C816.182 117.23 816.182 128.435 816.182 128.885C816.182 130.055 817.127 131 818.297 131H824.552V127.895H819.872ZM856.471 122.135C855.796 125.96 853.411 128.57 849.676 128.57C845.221 128.57 842.656 124.88 842.656 119.93C842.656 114.98 845.221 111.29 849.676 111.29C853.411 111.29 855.796 113.9 856.471 117.725L859.891 117.365C858.991 111.785 855.076 108.14 849.676 108.14C843.466 108.14 839.236 113.045 839.236 119.93C839.236 126.815 843.466 131.72 849.676 131.72C855.076 131.72 858.991 128.075 859.891 122.54L856.471 122.135ZM877.331 121.865C877.331 125.6 874.901 128.66 870.446 128.66C867.926 128.66 866.306 127.265 866.081 125.33C865.856 123.305 867.026 121.325 869.906 120.785C871.481 120.515 874.181 119.975 875.216 119.75C876.926 119.435 877.331 118.895 877.331 118.895V121.865ZM882.596 128.12H881.021C880.886 128.12 880.796 128.03 880.796 127.895V116.555C880.841 111.29 877.871 108.14 872.201 108.14C869.231 108.14 866.711 109.13 865.136 110.93C863.651 112.595 863.201 114.71 863.651 116.78L867.026 116.285C866.801 115.205 866.846 113.855 867.701 112.775C868.421 111.92 869.771 111.02 872.156 111.02C875.441 111.02 877.196 112.82 877.196 115.025C877.196 115.925 876.791 116.51 876.026 116.825C875.351 117.095 874.136 117.275 872.561 117.59C871.346 117.86 869.231 118.31 867.791 118.715C863.696 119.84 862.526 122.585 862.616 125.42C862.661 128.66 865.226 131.72 869.861 131.72C872.876 131.72 875.126 130.55 876.566 128.795C877.241 127.94 877.691 126.815 877.916 125.69C877.961 125.6 878.096 124.925 878.096 124.925H878.141L878.096 125.24C877.961 125.915 877.916 126.59 877.871 127.265C877.871 127.535 877.871 128.57 877.871 129.38C877.871 130.325 878.546 131.045 879.581 131.045H882.596V128.12ZM905.005 118.355C905.005 111.785 901.855 108.14 896.635 108.14C893.62 108.14 891.64 109.49 890.515 110.885C889.975 111.56 889.66 112.37 889.435 113.09L889.075 114.26L888.985 114.215L889.165 113.63C889.345 113 889.435 112.325 889.435 111.65V108.815H886.015V131.045H889.435V118.58C889.435 114.215 891.865 111.29 895.6 111.29C899.515 111.29 901.585 114.08 901.585 119.03C901.585 121.91 901.585 131.045 901.585 131.045H905.005V118.355ZM911.826 119.93C911.826 114.935 914.391 111.245 918.846 111.245C923.256 111.245 925.551 114.935 925.551 119.93C925.551 124.88 923.301 128.57 918.846 128.57C914.391 128.57 911.826 124.88 911.826 119.93ZM925.686 100.895V112.325C925.686 113 925.776 113.675 925.956 114.305L926.136 114.89H926.091L925.551 113.27C924.966 111.335 923.301 108.14 918.216 108.14C912.321 108.14 908.406 113.045 908.406 119.93C908.406 126.77 912.276 131.675 918.216 131.675C923.301 131.675 925.011 128.435 925.596 126.5L926.091 124.925H926.136L925.956 125.51C925.776 126.14 925.686 126.815 925.686 127.49V131.045H929.151V100.895H925.686ZM933.784 131.045H937.249C937.249 125.375 937.249 108.905 937.249 108.815H933.784V131.045ZM935.494 105.665C936.574 105.665 937.429 104.81 937.429 103.775C937.429 102.695 936.574 101.84 935.494 101.84C934.459 101.84 933.604 102.695 933.604 103.775C933.604 104.81 934.459 105.665 935.494 105.665ZM944.389 119.93C944.389 114.935 946.954 111.245 951.409 111.245C955.819 111.245 958.114 114.935 958.114 119.93C958.114 124.88 955.864 128.57 951.409 128.57C946.954 128.57 944.389 124.88 944.389 119.93ZM958.249 100.895V112.325C958.249 113 958.339 113.675 958.519 114.305L958.699 114.89H958.654L958.114 113.27C957.529 111.335 955.864 108.14 950.779 108.14C944.884 108.14 940.969 113.045 940.969 119.93C940.969 126.77 944.839 131.675 950.779 131.675C955.864 131.675 957.574 128.435 958.159 126.5L958.654 124.925H958.699L958.519 125.51C958.339 126.14 958.249 126.815 958.249 127.49V131.045H961.714V100.895H958.249ZM980.207 121.865C980.207 125.6 977.777 128.66 973.322 128.66C970.802 128.66 969.182 127.265 968.957 125.33C968.732 123.305 969.902 121.325 972.782 120.785C974.357 120.515 977.057 119.975 978.092 119.75C979.802 119.435 980.207 118.895 980.207 118.895V121.865ZM985.472 128.12H983.897C983.762 128.12 983.672 128.03 983.672 127.895V116.555C983.717 111.29 980.747 108.14 975.077 108.14C972.107 108.14 969.587 109.13 968.012 110.93C966.527 112.595 966.077 114.71 966.527 116.78L969.902 116.285C969.677 115.205 969.722 113.855 970.577 112.775C971.297 111.92 972.647 111.02 975.032 111.02C978.317 111.02 980.072 112.82 980.072 115.025C980.072 115.925 979.667 116.51 978.902 116.825C978.227 117.095 977.012 117.275 975.437 117.59C974.222 117.86 972.107 118.31 970.667 118.715C966.572 119.84 965.402 122.585 965.492 125.42C965.537 128.66 968.102 131.72 972.737 131.72C975.752 131.72 978.002 130.55 979.442 128.795C980.117 127.94 980.567 126.815 980.792 125.69C980.837 125.6 980.972 124.925 980.972 124.925H981.017L980.972 125.24C980.837 125.915 980.792 126.59 980.747 127.265C980.747 127.535 980.747 128.57 980.747 129.38C980.747 130.325 981.422 131.045 982.457 131.045H985.472V128.12ZM993.324 127.895C993.189 127.895 993.099 127.76 993.099 127.625V111.695H997.014V108.77H993.099V100.895H989.949C989.949 100.94 989.949 104.765 989.949 107.465C989.949 108.275 989.319 108.905 988.509 108.905H986.214V111.695H989.634C989.634 117.23 989.634 128.435 989.634 128.885C989.634 130.055 990.579 131 991.749 131H998.004V127.895H993.324ZM1009.59 111.29C1013.6 111.29 1015.98 114.305 1016.39 118.4H1002.75C1003.16 114.305 1005.59 111.29 1009.59 111.29ZM1019.94 120.965C1019.99 120.65 1020.03 120.29 1020.03 119.93C1020.03 113.045 1015.8 108.14 1009.59 108.14C1003.38 108.14 999.153 113.045 999.153 119.93C999.153 126.815 1003.38 131.72 1009.59 131.72C1014.59 131.72 1018.23 128.525 1019.54 123.755L1016.03 123.125C1015.26 126.32 1013.01 128.57 1009.59 128.57C1005.41 128.57 1002.98 125.285 1002.75 120.965H1019.94ZM1040.21 125.24C1040.21 120.56 1035.89 119.255 1032.29 118.355C1030.36 117.86 1026.71 117.05 1026.71 114.305C1026.71 112.64 1028.06 111.02 1031.39 111.02C1035.08 111.02 1036.21 113.045 1036.21 115.295H1039.4C1039.4 111.65 1037.33 108.14 1031.3 108.14C1025.59 108.14 1023.25 110.93 1023.25 113.99C1023.25 117.995 1026.31 119.615 1030.54 120.65C1034.72 121.64 1036.75 122.855 1036.75 125.06C1036.75 127.49 1034.63 128.795 1031.71 128.795C1026.85 128.795 1026.17 125.33 1026.17 123.935H1022.75C1022.75 127.67 1025.14 131.675 1031.84 131.675C1037.69 131.675 1040.21 128.75 1040.21 125.24ZM1055.07 127.445C1053.99 127.445 1053.13 128.3 1053.13 129.38C1053.13 130.415 1053.99 131.315 1055.07 131.315C1056.1 131.315 1057 130.415 1057 129.38C1057 128.3 1056.1 127.445 1055.07 127.445ZM1049.67 127.445C1048.59 127.445 1047.73 128.3 1047.73 129.38C1047.73 130.415 1048.59 131.315 1049.67 131.315C1050.75 131.315 1051.6 130.415 1051.6 129.38C1051.6 128.3 1050.75 127.445 1049.67 127.445ZM1044.27 127.445C1043.23 127.445 1042.38 128.3 1042.38 129.38C1042.38 130.415 1043.23 131.315 1044.27 131.315C1045.35 131.315 1046.2 130.415 1046.2 129.38C1046.2 128.3 1045.35 127.445 1044.27 127.445ZM12.2102 176.045V145.895H8.52024V176.045H12.2102ZM22.4843 172.895C22.3493 172.895 22.2593 172.76 22.2593 172.625V156.695H26.1743V153.77H22.2593V145.895H19.1093C19.1093 145.94 19.1093 149.765 19.1093 152.465C19.1093 153.275 18.4793 153.905 17.6693 153.905H15.3743V156.695H18.7943C18.7943 162.23 18.7943 173.435 18.7943 173.885C18.7943 175.055 19.7393 176 20.9093 176H27.1643V172.895H22.4843ZM31.664 145.22C30.854 145.4 30.224 146.075 30.179 146.93C30.179 147.2 30.224 147.515 30.359 147.785C30.494 148.01 30.404 148.19 30.314 148.325L28.649 150.08L30.314 151.7L33.464 148.325C33.914 147.83 34.004 147.2 33.869 146.615C33.599 145.625 32.654 145.04 31.664 145.22ZM49.7712 170.24C49.7712 165.56 45.4512 164.255 41.8512 163.355C39.9162 162.86 36.2712 162.05 36.2712 159.305C36.2712 157.64 37.6212 156.02 40.9512 156.02C44.6412 156.02 45.7662 158.045 45.7662 160.295H48.9612C48.9612 156.65 46.8912 153.14 40.8612 153.14C35.1462 153.14 32.8062 155.93 32.8062 158.99C32.8062 162.995 35.8662 164.615 40.0962 165.65C44.2812 166.64 46.3062 167.855 46.3062 170.06C46.3062 172.49 44.1912 173.795 41.2662 173.795C36.4062 173.795 35.7312 170.33 35.7312 168.935H32.3112C32.3112 172.67 34.6962 176.675 41.4012 176.675C47.2512 176.675 49.7712 173.75 49.7712 170.24ZM75.5794 156.29C79.5844 156.29 81.9694 159.305 82.3744 163.4H68.7394C69.1444 159.305 71.5744 156.29 75.5794 156.29ZM85.9294 165.965C85.9744 165.65 86.0194 165.29 86.0194 164.93C86.0194 158.045 81.7894 153.14 75.5794 153.14C69.3694 153.14 65.1394 158.045 65.1394 164.93C65.1394 171.815 69.3694 176.72 75.5794 176.72C80.5744 176.72 84.2194 173.525 85.5244 168.755L82.0144 168.125C81.2494 171.32 78.9994 173.57 75.5794 173.57C71.3944 173.57 68.9644 170.285 68.7394 165.965H85.9294ZM103.659 153.815L97.1794 172.22C97.0444 172.625 96.9544 173.12 96.9544 173.57V174.38H96.8644V173.57C96.8644 173.12 96.8194 172.67 96.6844 172.22L90.2044 153.815H86.6494L94.4344 176.045H99.4294L107.214 153.815H103.659ZM117.899 156.29C121.904 156.29 124.289 159.305 124.694 163.4H111.059C111.464 159.305 113.894 156.29 117.899 156.29ZM128.249 165.965C128.294 165.65 128.339 165.29 128.339 164.93C128.339 158.045 124.109 153.14 117.899 153.14C111.689 153.14 107.459 158.045 107.459 164.93C107.459 171.815 111.689 176.72 117.899 176.72C122.894 176.72 126.539 173.525 127.844 168.755L124.334 168.125C123.569 171.32 121.319 173.57 117.899 173.57C113.714 173.57 111.284 170.285 111.059 165.965H128.249ZM135.421 176.045V165.11C135.421 161.375 137.176 156.47 138.976 156.47C140.191 156.47 140.551 158.09 140.551 159.35V161.825H144.016V158.63C144.016 155.3 142.936 153.14 140.326 153.14C138.976 153.14 137.851 154.13 137.041 155.3C136.231 156.425 135.781 157.73 135.646 158.495C135.601 158.63 135.421 159.71 135.376 159.845L135.241 160.7H135.196L135.286 160.115C135.376 159.395 135.421 158.72 135.421 158V153.815H132.001V176.045H135.421ZM162.506 153.77L155.981 169.925C155.846 170.33 155.756 170.735 155.756 171.14V171.905H155.666V171.14C155.666 170.735 155.576 170.33 155.441 169.925L148.916 153.77H145.226L153.326 173.66C153.686 174.515 153.686 175.415 153.326 176.27L150.221 183.92H153.911L166.196 153.77H162.506ZM174.271 172.895C174.136 172.895 174.046 172.76 174.046 172.625V156.695H177.961V153.77H174.046V145.895H170.896C170.896 145.94 170.896 149.765 170.896 152.465C170.896 153.275 170.266 153.905 169.456 153.905H167.161V156.695H170.581C170.581 162.23 170.581 173.435 170.581 173.885C170.581 175.055 171.526 176 172.696 176H178.951V172.895H174.271ZM199.99 176.045V163.355C199.99 156.785 197.065 153.14 191.62 153.14C189.145 153.14 187.345 154.13 186.175 155.255C185.23 156.11 184.69 157.19 184.375 158.18L184.06 159.26L183.97 159.215L184.15 158.63C184.33 158 184.42 157.325 184.42 156.65V145.94H181V176.045H184.42V163.58C184.42 159.215 186.85 156.29 190.585 156.29C194.77 156.29 196.57 159.08 196.57 164.03C196.57 166.91 196.57 176.045 196.57 176.045H199.99ZM204.335 176.045H207.8C207.8 170.375 207.8 153.905 207.8 153.815H204.335V176.045ZM206.045 150.665C207.125 150.665 207.98 149.81 207.98 148.775C207.98 147.695 207.125 146.84 206.045 146.84C205.01 146.84 204.155 147.695 204.155 148.775C204.155 149.81 205.01 150.665 206.045 150.665ZM231.411 163.355C231.411 156.785 228.261 153.14 223.041 153.14C220.026 153.14 218.046 154.49 216.921 155.885C216.381 156.56 216.066 157.37 215.841 158.09L215.481 159.26L215.391 159.215L215.571 158.63C215.751 158 215.841 157.325 215.841 156.65V153.815H212.421V176.045H215.841V163.58C215.841 159.215 218.271 156.29 222.006 156.29C225.921 156.29 227.991 159.08 227.991 164.03C227.991 166.91 227.991 176.045 227.991 176.045H231.411V163.355ZM244.769 173.57C240.314 173.57 237.749 169.88 237.749 164.93C237.749 159.98 240.314 156.29 244.769 156.29C249.179 156.29 251.474 159.98 251.474 164.93C251.474 169.88 249.224 173.57 244.769 173.57ZM255.074 172.67V153.815H251.609V157.325C251.609 158 251.699 158.675 251.879 159.35L252.059 159.89L252.014 159.935L251.474 158.27C250.889 156.38 249.224 153.14 244.139 153.14C238.244 153.14 234.329 158.09 234.329 164.93C234.329 171.77 238.199 176.72 244.139 176.72C249.224 176.72 250.934 173.48 251.519 171.545L252.014 169.925L252.059 169.97L251.879 170.555C251.744 171.05 251.654 171.59 251.654 172.13C251.654 172.265 251.609 173.48 251.609 173.615C251.609 175.685 252.734 176.99 252.734 178.52C252.734 180.68 250.979 181.085 248.999 181.04H237.929V183.965H250.214C254.399 183.965 256.289 182.345 256.289 179.06C256.289 176.315 255.074 175.685 255.074 172.67ZM287.619 153.77L281.094 169.925C280.959 170.33 280.869 170.735 280.869 171.14V171.905H280.779V171.14C280.779 170.735 280.689 170.33 280.554 169.925L274.029 153.77H270.339L278.439 173.66C278.799 174.515 278.799 175.415 278.439 176.27L275.334 183.92H279.024L291.309 153.77H287.619ZM294.219 164.93C294.219 159.98 296.784 156.29 301.239 156.29C305.649 156.29 308.214 159.98 308.214 164.93C308.214 169.88 305.649 173.57 301.239 173.57C296.784 173.57 294.219 169.88 294.219 164.93ZM311.679 164.93C311.679 158.045 307.449 153.14 301.239 153.14C295.029 153.14 290.799 158.045 290.799 164.93C290.799 171.815 295.029 176.72 301.239 176.72C307.449 176.72 311.679 171.815 311.679 164.93ZM315.114 153.815V166.505C315.114 173.075 317.994 176.675 323.484 176.675C327.804 176.675 329.784 174.02 330.504 172.265L331.044 170.6L331.089 170.645L330.954 171.185C330.774 171.86 330.684 172.49 330.684 173.165V176H334.104V153.815H330.684V166.28C330.684 170.645 328.209 173.57 324.519 173.57C320.334 173.57 318.534 170.78 318.534 165.83C318.534 162.95 318.534 153.815 318.534 153.815H315.114ZM367.759 170.24C367.759 165.56 363.439 164.255 359.839 163.355C357.904 162.86 354.259 162.05 354.259 159.305C354.259 157.64 355.609 156.02 358.939 156.02C362.629 156.02 363.754 158.045 363.754 160.295H366.949C366.949 156.65 364.879 153.14 358.849 153.14C353.134 153.14 350.794 155.93 350.794 158.99C350.794 162.995 353.854 164.615 358.084 165.65C362.269 166.64 364.294 167.855 364.294 170.06C364.294 172.49 362.179 173.795 359.254 173.795C354.394 173.795 353.719 170.33 353.719 168.935H350.299C350.299 172.67 352.684 176.675 359.389 176.675C365.239 176.675 367.759 173.75 367.759 170.24ZM390.493 176.045V163.355C390.493 156.785 387.568 153.14 382.123 153.14C379.648 153.14 377.848 154.13 376.678 155.255C375.733 156.11 375.193 157.19 374.878 158.18L374.563 159.26L374.473 159.215L374.653 158.63C374.833 158 374.923 157.325 374.923 156.65V145.94H371.503V176.045H374.923V163.58C374.923 159.215 377.353 156.29 381.088 156.29C385.273 156.29 387.073 159.08 387.073 164.03C387.073 166.91 387.073 176.045 387.073 176.045H390.493ZM397.358 164.93C397.358 159.98 399.923 156.29 404.378 156.29C408.788 156.29 411.353 159.98 411.353 164.93C411.353 169.88 408.788 173.57 404.378 173.57C399.923 173.57 397.358 169.88 397.358 164.93ZM414.818 164.93C414.818 158.045 410.588 153.14 404.378 153.14C398.168 153.14 393.938 158.045 393.938 164.93C393.938 171.815 398.168 176.72 404.378 176.72C410.588 176.72 414.818 171.815 414.818 164.93ZM418.254 153.815V166.505C418.254 173.075 421.134 176.675 426.624 176.675C430.944 176.675 432.924 174.02 433.644 172.265L434.184 170.6L434.229 170.645L434.094 171.185C433.914 171.86 433.824 172.49 433.824 173.165V176H437.244V153.815H433.824V166.28C433.824 170.645 431.349 173.57 427.659 173.57C423.474 173.57 421.674 170.78 421.674 165.83C421.674 162.95 421.674 153.815 421.674 153.815H418.254ZM441.815 173.93C441.815 175.1 442.76 176.045 443.93 176.045H449.555V172.895H445.505C445.37 172.895 445.235 172.805 445.235 172.625V145.94H441.815C441.77 146.075 441.77 173.21 441.815 173.93ZM453.96 164.93C453.96 159.935 456.525 156.245 460.98 156.245C465.39 156.245 467.685 159.935 467.685 164.93C467.685 169.88 465.435 173.57 460.98 173.57C456.525 173.57 453.96 169.88 453.96 164.93ZM467.82 145.895V157.325C467.82 158 467.91 158.675 468.09 159.305L468.27 159.89H468.225L467.685 158.27C467.1 156.335 465.435 153.14 460.35 153.14C454.455 153.14 450.54 158.045 450.54 164.93C450.54 171.77 454.41 176.675 460.35 176.675C465.435 176.675 467.145 173.435 467.73 171.5L468.225 169.925H468.27L468.09 170.51C467.91 171.14 467.82 171.815 467.82 172.49V176.045H471.285V145.895H467.82ZM494.907 163.355C494.907 156.785 491.757 153.14 486.537 153.14C483.522 153.14 481.542 154.49 480.417 155.885C479.877 156.56 479.562 157.37 479.337 158.09L478.977 159.26L478.887 159.215L479.067 158.63C479.247 158 479.337 157.325 479.337 156.65V153.815H475.917V176.045H479.337V163.58C479.337 159.215 481.767 156.29 485.502 156.29C489.417 156.29 491.487 159.08 491.487 164.03C491.487 166.91 491.487 176.045 491.487 176.045H494.907V163.355ZM499.55 145.22C498.74 145.4 498.11 146.075 498.065 146.93C498.065 147.2 498.11 147.515 498.245 147.785C498.38 148.01 498.29 148.19 498.2 148.325L496.535 150.08L498.2 151.7L501.35 148.325C501.8 147.83 501.89 147.2 501.755 146.615C501.485 145.625 500.54 145.04 499.55 145.22ZM509.486 172.895C509.351 172.895 509.261 172.76 509.261 172.625V156.695H513.176V153.77H509.261V145.895H506.111C506.111 145.94 506.111 149.765 506.111 152.465C506.111 153.275 505.481 153.905 504.671 153.905H502.376V156.695H505.796C505.796 162.23 505.796 173.435 505.796 173.885C505.796 175.055 506.741 176 507.911 176H514.166V172.895H509.486ZM548.74 176.045V163.355C548.74 156.785 545.815 153.14 540.37 153.14C537.895 153.14 536.095 154.13 534.925 155.255C533.98 156.11 533.44 157.19 533.125 158.18L532.81 159.26L532.72 159.215L532.9 158.63C533.08 158 533.17 157.325 533.17 156.65V145.94H529.75V176.045H533.17V163.58C533.17 159.215 535.6 156.29 539.335 156.29C543.52 156.29 545.32 159.08 545.32 164.03C545.32 166.91 545.32 176.045 545.32 176.045H548.74ZM566.945 166.865C566.945 170.6 564.515 173.66 560.06 173.66C557.54 173.66 555.92 172.265 555.695 170.33C555.47 168.305 556.64 166.325 559.52 165.785C561.095 165.515 563.795 164.975 564.83 164.75C566.54 164.435 566.945 163.895 566.945 163.895V166.865ZM572.21 173.12H570.635C570.5 173.12 570.41 173.03 570.41 172.895V161.555C570.455 156.29 567.485 153.14 561.815 153.14C558.845 153.14 556.325 154.13 554.75 155.93C553.265 157.595 552.815 159.71 553.265 161.78L556.64 161.285C556.415 160.205 556.46 158.855 557.315 157.775C558.035 156.92 559.385 156.02 561.77 156.02C565.055 156.02 566.81 157.82 566.81 160.025C566.81 160.925 566.405 161.51 565.64 161.825C564.965 162.095 563.75 162.275 562.175 162.59C560.96 162.86 558.845 163.31 557.405 163.715C553.31 164.84 552.14 167.585 552.23 170.42C552.275 173.66 554.84 176.72 559.475 176.72C562.49 176.72 564.74 175.55 566.18 173.795C566.855 172.94 567.305 171.815 567.53 170.69C567.575 170.6 567.71 169.925 567.71 169.925H567.755L567.71 170.24C567.575 170.915 567.53 171.59 567.485 172.265C567.485 172.535 567.485 173.57 567.485 174.38C567.485 175.325 568.16 176.045 569.195 176.045H572.21V173.12ZM589.738 153.815L583.258 172.22C583.123 172.625 583.033 173.12 583.033 173.57V174.38H582.943V173.57C582.943 173.12 582.898 172.67 582.763 172.22L576.283 153.815H572.728L580.513 176.045H585.508L593.293 153.815H589.738ZM603.978 156.29C607.983 156.29 610.368 159.305 610.773 163.4H597.138C597.543 159.305 599.973 156.29 603.978 156.29ZM614.328 165.965C614.373 165.65 614.418 165.29 614.418 164.93C614.418 158.045 610.188 153.14 603.978 153.14C597.768 153.14 593.538 158.045 593.538 164.93C593.538 171.815 597.768 176.72 603.978 176.72C608.973 176.72 612.618 173.525 613.923 168.755L610.413 168.125C609.648 171.32 607.398 173.57 603.978 173.57C599.793 173.57 597.363 170.285 597.138 165.965H614.328ZM636.005 172.895C635.87 172.895 635.78 172.76 635.78 172.625V156.695H639.695V153.77H635.78V145.895H632.63C632.63 145.94 632.63 149.765 632.63 152.465C632.63 153.275 632 153.905 631.19 153.905H628.895V156.695H632.315C632.315 162.23 632.315 173.435 632.315 173.885C632.315 175.055 633.26 176 634.43 176H640.685V172.895H636.005ZM645.254 164.93C645.254 159.98 647.819 156.29 652.274 156.29C656.684 156.29 659.249 159.98 659.249 164.93C659.249 169.88 656.684 173.57 652.274 173.57C647.819 173.57 645.254 169.88 645.254 164.93ZM662.714 164.93C662.714 158.045 658.484 153.14 652.274 153.14C646.064 153.14 641.834 158.045 641.834 164.93C641.834 171.815 646.064 176.72 652.274 176.72C658.484 176.72 662.714 171.815 662.714 164.93ZM688.529 156.29C692.534 156.29 694.919 159.305 695.324 163.4H681.689C682.094 159.305 684.524 156.29 688.529 156.29ZM698.879 165.965C698.924 165.65 698.969 165.29 698.969 164.93C698.969 158.045 694.739 153.14 688.529 153.14C682.319 153.14 678.089 158.045 678.089 164.93C678.089 171.815 682.319 176.72 688.529 176.72C693.524 176.72 697.169 173.525 698.474 168.755L694.964 168.125C694.199 171.32 691.949 173.57 688.529 173.57C684.344 173.57 681.914 170.285 681.689 165.965H698.879ZM719.984 153.815H716.069L710.129 162.275C709.949 162.545 709.904 162.815 709.904 163.13V163.805H709.814V163.13C709.814 162.815 709.724 162.545 709.589 162.275L703.604 153.815H699.734L706.349 163.625C706.799 164.435 706.799 165.38 706.349 166.19L699.734 176.045H703.604L709.589 167.585C709.724 167.27 709.814 167 709.814 166.685V165.965H709.904V166.685C709.904 167 709.949 167.27 710.129 167.585L716.069 176.045H719.984L713.324 166.19C712.874 165.38 712.874 164.435 713.324 163.625L719.984 153.815ZM739.687 164.93C739.687 169.88 737.167 173.57 732.712 173.57C728.302 173.57 726.007 169.88 726.007 164.93C726.007 159.98 728.257 156.29 732.712 156.29C737.122 156.29 739.687 159.98 739.687 164.93ZM725.827 172.535C725.827 171.86 725.737 171.185 725.557 170.555L725.377 169.97L725.467 169.925L725.962 171.59C726.547 173.48 728.257 176.72 733.342 176.72C739.237 176.72 743.152 171.815 743.152 164.93C743.152 158.09 739.237 153.14 733.342 153.14C728.257 153.14 726.547 156.38 725.962 158.36L725.467 159.935L725.377 159.89L725.557 159.35C725.737 158.675 725.827 158 725.827 157.325V153.815H722.407V183.965H725.827V172.535ZM756.424 156.29C760.429 156.29 762.814 159.305 763.219 163.4H749.584C749.989 159.305 752.419 156.29 756.424 156.29ZM766.774 165.965C766.819 165.65 766.864 165.29 766.864 164.93C766.864 158.045 762.634 153.14 756.424 153.14C750.214 153.14 745.984 158.045 745.984 164.93C745.984 171.815 750.214 176.72 756.424 176.72C761.419 176.72 765.064 173.525 766.369 168.755L762.859 168.125C762.094 171.32 759.844 173.57 756.424 173.57C752.239 173.57 749.809 170.285 749.584 165.965H766.774ZM786.862 167.135C786.187 170.96 783.802 173.57 780.067 173.57C775.612 173.57 773.047 169.88 773.047 164.93C773.047 159.98 775.612 156.29 780.067 156.29C783.802 156.29 786.187 158.9 786.862 162.725L790.282 162.365C789.382 156.785 785.467 153.14 780.067 153.14C773.857 153.14 769.627 158.045 769.627 164.93C769.627 171.815 773.857 176.72 780.067 176.72C785.467 176.72 789.382 173.075 790.282 167.54L786.862 167.135ZM799.262 172.895C799.127 172.895 799.037 172.76 799.037 172.625V156.695H802.952V153.77H799.037V145.895H795.887C795.887 145.94 795.887 149.765 795.887 152.465C795.887 153.275 795.257 153.905 794.447 153.905H792.152V156.695H795.572C795.572 162.23 795.572 173.435 795.572 173.885C795.572 175.055 796.517 176 797.687 176H803.942V172.895H799.262ZM846.661 153.815L841.441 169.52C841.261 170.015 841.171 170.51 841.171 171.05V171.815H841.081V171.05C841.081 170.51 841.036 170.015 840.856 169.52L835.636 153.815H832.216L826.996 169.52C826.861 170.015 826.771 170.51 826.771 171.05V171.815H826.681V171.05C826.681 170.51 826.591 170.015 826.456 169.52L821.236 153.815H817.681L824.836 176.045H828.256L833.656 160.025C833.791 159.53 833.881 158.99 833.881 158.45V157.82H833.971V158.45C833.971 158.99 834.061 159.53 834.241 160.025L839.596 176.045H843.016L850.216 153.815H846.661ZM870.991 176.045V163.355C870.991 156.785 868.066 153.14 862.621 153.14C860.146 153.14 858.346 154.13 857.176 155.255C856.231 156.11 855.691 157.19 855.376 158.18L855.061 159.26L854.971 159.215L855.151 158.63C855.331 158 855.421 157.325 855.421 156.65V145.94H852.001V176.045H855.421V163.58C855.421 159.215 857.851 156.29 861.586 156.29C865.771 156.29 867.571 159.08 867.571 164.03C867.571 166.91 867.571 176.045 867.571 176.045H870.991ZM884.876 156.29C888.881 156.29 891.266 159.305 891.671 163.4H878.036C878.441 159.305 880.871 156.29 884.876 156.29ZM895.226 165.965C895.271 165.65 895.316 165.29 895.316 164.93C895.316 158.045 891.086 153.14 884.876 153.14C878.666 153.14 874.436 158.045 874.436 164.93C874.436 171.815 878.666 176.72 884.876 176.72C889.871 176.72 893.516 173.525 894.821 168.755L891.311 168.125C890.546 171.32 888.296 173.57 884.876 173.57C880.691 173.57 878.261 170.285 878.036 165.965H895.226ZM917.969 163.355C917.969 156.785 914.819 153.14 909.599 153.14C906.584 153.14 904.604 154.49 903.479 155.885C902.939 156.56 902.624 157.37 902.399 158.09L902.039 159.26L901.949 159.215L902.129 158.63C902.309 158 902.399 157.325 902.399 156.65V153.815H898.979V176.045H902.399V163.58C902.399 159.215 904.829 156.29 908.564 156.29C912.479 156.29 914.549 159.08 914.549 164.03C914.549 166.91 914.549 176.045 914.549 176.045H917.969V163.355ZM940.194 172.895C940.059 172.895 939.969 172.76 939.969 172.625V156.695H943.884V153.77H939.969V145.895H936.819C936.819 145.94 936.819 149.765 936.819 152.465C936.819 153.275 936.189 153.905 935.379 153.905H933.084V156.695H936.504C936.504 162.23 936.504 173.435 936.504 173.885C936.504 175.055 937.449 176 938.619 176H944.874V172.895H940.194ZM947.619 153.815V166.505C947.619 173.075 950.499 176.675 955.989 176.675C960.309 176.675 962.289 174.02 963.009 172.265L963.549 170.6L963.594 170.645L963.459 171.185C963.279 171.86 963.189 172.49 963.189 173.165V176H966.609V153.815H963.189V166.28C963.189 170.645 960.714 173.57 957.024 173.57C952.839 173.57 951.039 170.78 951.039 165.83C951.039 162.95 951.039 153.815 951.039 153.815H947.619ZM974.645 176.045V165.11C974.645 161.375 976.4 156.47 978.2 156.47C979.415 156.47 979.775 158.09 979.775 159.35V161.825H983.24V158.63C983.24 155.3 982.16 153.14 979.55 153.14C978.2 153.14 977.075 154.13 976.265 155.3C975.455 156.425 975.005 157.73 974.87 158.495C974.825 158.63 974.645 159.71 974.6 159.845L974.465 160.7H974.42L974.51 160.115C974.6 159.395 974.645 158.72 974.645 158V153.815H971.225V176.045H974.645ZM1004.54 163.355C1004.54 156.785 1001.39 153.14 996.171 153.14C993.156 153.14 991.176 154.49 990.051 155.885C989.511 156.56 989.196 157.37 988.971 158.09L988.611 159.26L988.521 159.215L988.701 158.63C988.881 158 988.971 157.325 988.971 156.65V153.815H985.551V176.045H988.971V163.58C988.971 159.215 991.401 156.29 995.136 156.29C999.051 156.29 1001.12 159.08 1001.12 164.03C1001.12 166.91 1001.12 176.045 1001.12 176.045H1004.54V163.355ZM1008.84 176.045H1012.31C1012.31 170.375 1012.31 153.905 1012.31 153.815H1008.84V176.045ZM1010.55 150.665C1011.63 150.665 1012.49 149.81 1012.49 148.775C1012.49 147.695 1011.63 146.84 1010.55 146.84C1009.52 146.84 1008.66 147.695 1008.66 148.775C1008.66 149.81 1009.52 150.665 1010.55 150.665ZM1035.92 163.355C1035.92 156.785 1032.77 153.14 1027.55 153.14C1024.53 153.14 1022.55 154.49 1021.43 155.885C1020.89 156.56 1020.57 157.37 1020.35 158.09L1019.99 159.26L1019.9 159.215L1020.08 158.63C1020.26 158 1020.35 157.325 1020.35 156.65V153.815H1016.93V176.045H1020.35V163.58C1020.35 159.215 1022.78 156.29 1026.51 156.29C1030.43 156.29 1032.5 159.08 1032.5 164.03C1032.5 166.91 1032.5 176.045 1032.5 176.045H1035.92V163.355ZM1049.28 173.57C1044.82 173.57 1042.26 169.88 1042.26 164.93C1042.26 159.98 1044.82 156.29 1049.28 156.29C1053.69 156.29 1055.98 159.98 1055.98 164.93C1055.98 169.88 1053.73 173.57 1049.28 173.57ZM1059.58 172.67V153.815H1056.12V157.325C1056.12 158 1056.21 158.675 1056.39 159.35L1056.57 159.89L1056.52 159.935L1055.98 158.27C1055.4 156.38 1053.73 153.14 1048.65 153.14C1042.75 153.14 1038.84 158.09 1038.84 164.93C1038.84 171.77 1042.71 176.72 1048.65 176.72C1053.73 176.72 1055.44 173.48 1056.03 171.545L1056.52 169.925L1056.57 169.97L1056.39 170.555C1056.25 171.05 1056.16 171.59 1056.16 172.13C1056.16 172.265 1056.12 173.48 1056.12 173.615C1056.12 175.685 1057.24 176.99 1057.24 178.52C1057.24 180.68 1055.49 181.085 1053.51 181.04H1042.44V183.965H1054.72C1058.91 183.965 1060.8 182.345 1060.8 179.06C1060.8 176.315 1059.58 175.685 1059.58 172.67ZM13.6952 217.895C13.5602 217.895 13.4702 217.76 13.4702 217.625V201.695H17.3852V198.77H13.4702V190.895H10.3202C10.3202 190.94 10.3202 194.765 10.3202 197.465C10.3202 198.275 9.69024 198.905 8.88024 198.905H6.58524V201.695H10.0052C10.0052 207.23 10.0052 218.435 10.0052 218.885C10.0052 220.055 10.9502 221 12.1202 221H18.3752V217.895H13.6952ZM22.9442 209.93C22.9442 204.98 25.5092 201.29 29.9642 201.29C34.3742 201.29 36.9392 204.98 36.9392 209.93C36.9392 214.88 34.3742 218.57 29.9642 218.57C25.5092 218.57 22.9442 214.88 22.9442 209.93ZM40.4042 209.93C40.4042 203.045 36.1742 198.14 29.9642 198.14C23.7542 198.14 19.5242 203.045 19.5242 209.93C19.5242 216.815 23.7542 221.72 29.9642 221.72C36.1742 221.72 40.4042 216.815 40.4042 209.93ZM70.539 211.865C70.539 215.6 68.109 218.66 63.654 218.66C61.134 218.66 59.514 217.265 59.289 215.33C59.064 213.305 60.234 211.325 63.114 210.785C64.689 210.515 67.389 209.975 68.424 209.75C70.134 209.435 70.539 208.895 70.539 208.895V211.865ZM75.804 218.12H74.229C74.094 218.12 74.004 218.03 74.004 217.895V206.555C74.049 201.29 71.079 198.14 65.409 198.14C62.439 198.14 59.919 199.13 58.344 200.93C56.859 202.595 56.409 204.71 56.859 206.78L60.234 206.285C60.009 205.205 60.054 203.855 60.909 202.775C61.629 201.92 62.979 201.02 65.364 201.02C68.649 201.02 70.404 202.82 70.404 205.025C70.404 205.925 69.999 206.51 69.234 206.825C68.559 207.095 67.344 207.275 65.769 207.59C64.554 207.86 62.439 208.31 60.999 208.715C56.904 209.84 55.734 212.585 55.824 215.42C55.869 218.66 58.434 221.72 63.069 221.72C66.084 221.72 68.334 220.55 69.774 218.795C70.449 217.94 70.899 216.815 71.124 215.69C71.169 215.6 71.304 214.925 71.304 214.925H71.349L71.304 215.24C71.169 215.915 71.124 216.59 71.079 217.265C71.079 217.535 71.079 218.57 71.079 219.38C71.079 220.325 71.754 221.045 72.789 221.045H75.804V218.12ZM95.1674 221.045V210.11C95.1674 206.375 96.9224 201.47 98.7224 201.47C99.9374 201.47 100.297 203.09 100.297 204.35V206.825H103.762V203.63C103.762 200.3 102.682 198.14 100.072 198.14C98.7224 198.14 97.5974 199.13 96.7874 200.3C95.9774 201.425 95.5274 202.73 95.3924 203.495C95.3474 203.63 95.1674 204.71 95.1224 204.845L94.9874 205.7H94.9424L95.0324 205.115C95.1224 204.395 95.1674 203.72 95.1674 203V198.815H91.7474V221.045H95.1674ZM116.492 201.29C120.497 201.29 122.882 204.305 123.287 208.4H109.652C110.057 204.305 112.487 201.29 116.492 201.29ZM126.842 210.965C126.887 210.65 126.932 210.29 126.932 209.93C126.932 203.045 122.702 198.14 116.492 198.14C110.282 198.14 106.052 203.045 106.052 209.93C106.052 216.815 110.282 221.72 116.492 221.72C121.487 221.72 125.132 218.525 126.437 213.755L122.927 213.125C122.162 216.32 119.912 218.57 116.492 218.57C112.307 218.57 109.877 215.285 109.652 210.965H126.842ZM146.93 212.135C146.255 215.96 143.87 218.57 140.135 218.57C135.68 218.57 133.115 214.88 133.115 209.93C133.115 204.98 135.68 201.29 140.135 201.29C143.87 201.29 146.255 203.9 146.93 207.725L150.35 207.365C149.45 201.785 145.535 198.14 140.135 198.14C133.925 198.14 129.695 203.045 129.695 209.93C129.695 216.815 133.925 221.72 140.135 221.72C145.535 221.72 149.45 218.075 150.35 212.54L146.93 212.135ZM157.35 221.045V210.11C157.35 206.375 159.105 201.47 160.905 201.47C162.12 201.47 162.48 203.09 162.48 204.35V206.825H165.945V203.63C165.945 200.3 164.865 198.14 162.255 198.14C160.905 198.14 159.78 199.13 158.97 200.3C158.16 201.425 157.71 202.73 157.575 203.495C157.53 203.63 157.35 204.71 157.305 204.845L157.17 205.7H157.125L157.215 205.115C157.305 204.395 157.35 203.72 157.35 203V198.815H153.93V221.045H157.35ZM168.82 198.815V211.505C168.82 218.075 171.7 221.675 177.19 221.675C181.51 221.675 183.49 219.02 184.21 217.265L184.75 215.6L184.795 215.645L184.66 216.185C184.48 216.86 184.39 217.49 184.39 218.165V221H187.81V198.815H184.39V211.28C184.39 215.645 181.915 218.57 178.225 218.57C174.04 218.57 172.24 215.78 172.24 210.83C172.24 207.95 172.24 198.815 172.24 198.815H168.82ZM192.426 221.045H195.891C195.891 215.375 195.891 198.905 195.891 198.815H192.426V221.045ZM194.136 195.665C195.216 195.665 196.071 194.81 196.071 193.775C196.071 192.695 195.216 191.84 194.136 191.84C193.101 191.84 192.246 192.695 192.246 193.775C192.246 194.81 193.101 195.665 194.136 195.665ZM205.912 217.895C205.777 217.895 205.687 217.76 205.687 217.625V201.695H209.602V198.77H205.687V190.895H202.537C202.537 190.94 202.537 194.765 202.537 197.465C202.537 198.275 201.907 198.905 201.097 198.905H198.802V201.695H202.222C202.222 207.23 202.222 218.435 202.222 218.885C202.222 220.055 203.167 221 204.337 221H210.592V217.895H205.912ZM222.181 201.29C226.186 201.29 228.571 204.305 228.976 208.4H215.341C215.746 204.305 218.176 201.29 222.181 201.29ZM232.531 210.965C232.576 210.65 232.621 210.29 232.621 209.93C232.621 203.045 228.391 198.14 222.181 198.14C215.971 198.14 211.741 203.045 211.741 209.93C211.741 216.815 215.971 221.72 222.181 221.72C227.176 221.72 230.821 218.525 232.126 213.755L228.616 213.125C227.851 216.32 225.601 218.57 222.181 218.57C217.996 218.57 215.566 215.285 215.341 210.965H232.531ZM239.704 221.045V210.11C239.704 206.375 241.459 201.47 243.259 201.47C244.474 201.47 244.834 203.09 244.834 204.35V206.825H248.299V203.63C248.299 200.3 247.219 198.14 244.609 198.14C243.259 198.14 242.134 199.13 241.324 200.3C240.514 201.425 240.064 202.73 239.929 203.495C239.884 203.63 239.704 204.71 239.659 204.845L239.524 205.7H239.479L239.569 205.115C239.659 204.395 239.704 203.72 239.704 203V198.815H236.284V221.045H239.704ZM269.413 217.895C269.278 217.895 269.188 217.76 269.188 217.625V201.695H273.103V198.77H269.188V190.895H266.038C266.038 190.94 266.038 194.765 266.038 197.465C266.038 198.275 265.408 198.905 264.598 198.905H262.303V201.695H265.723C265.723 207.23 265.723 218.435 265.723 218.885C265.723 220.055 266.668 221 267.838 221H274.093V217.895H269.413ZM278.662 209.93C278.662 204.98 281.227 201.29 285.682 201.29C290.092 201.29 292.657 204.98 292.657 209.93C292.657 214.88 290.092 218.57 285.682 218.57C281.227 218.57 278.662 214.88 278.662 209.93ZM296.122 209.93C296.122 203.045 291.892 198.14 285.682 198.14C279.472 198.14 275.242 203.045 275.242 209.93C275.242 216.815 279.472 221.72 285.682 221.72C291.892 221.72 296.122 216.815 296.122 209.93ZM331.387 221.045V208.355C331.387 201.785 328.462 198.14 323.017 198.14C320.542 198.14 318.742 199.13 317.572 200.255C316.627 201.11 316.087 202.19 315.772 203.18L315.457 204.26L315.367 204.215L315.547 203.63C315.727 203 315.817 202.325 315.817 201.65V190.94H312.397V221.045H315.817V208.58C315.817 204.215 318.247 201.29 321.982 201.29C326.167 201.29 327.967 204.08 327.967 209.03C327.967 211.91 327.967 221.045 327.967 221.045H331.387ZM345.272 201.29C349.277 201.29 351.662 204.305 352.067 208.4H338.432C338.837 204.305 341.267 201.29 345.272 201.29ZM355.622 210.965C355.667 210.65 355.712 210.29 355.712 209.93C355.712 203.045 351.482 198.14 345.272 198.14C339.062 198.14 334.832 203.045 334.832 209.93C334.832 216.815 339.062 221.72 345.272 221.72C350.267 221.72 353.912 218.525 355.217 213.755L351.707 213.125C350.942 216.32 348.692 218.57 345.272 218.57C341.087 218.57 338.657 215.285 338.432 210.965H355.622ZM359.329 218.93C359.329 220.1 360.274 221.045 361.444 221.045H367.069V217.895H363.019C362.884 217.895 362.749 217.805 362.749 217.625V190.94H359.329C359.284 191.075 359.284 218.21 359.329 218.93ZM387.245 209.93C387.245 214.88 384.725 218.57 380.27 218.57C375.86 218.57 373.565 214.88 373.565 209.93C373.565 204.98 375.815 201.29 380.27 201.29C384.68 201.29 387.245 204.98 387.245 209.93ZM373.385 217.535C373.385 216.86 373.295 216.185 373.115 215.555L372.935 214.97L373.025 214.925L373.52 216.59C374.105 218.48 375.815 221.72 380.9 221.72C386.795 221.72 390.71 216.815 390.71 209.93C390.71 203.09 386.795 198.14 380.9 198.14C375.815 198.14 374.105 201.38 373.52 203.36L373.025 204.935L372.935 204.89L373.115 204.35C373.295 203.675 373.385 203 373.385 202.325V198.815H369.965V228.965H373.385V217.535ZM421.907 195.665C422.987 195.665 423.842 194.81 423.842 193.73C423.842 192.695 422.987 191.795 421.907 191.795C420.872 191.795 420.017 192.695 420.017 193.73C420.017 194.81 420.872 195.665 421.907 195.665ZM412.187 198.815C412.187 198.815 411.872 196.655 411.872 195.62C411.872 194.54 412.502 193.82 413.357 193.82H415.247V190.895H412.097C409.757 190.895 408.677 192.56 408.677 194.405C408.677 195.755 408.947 197.195 409.217 197.96C409.307 198.32 409.577 198.635 409.892 198.77C410.027 198.905 410.432 199.085 410.567 199.13V199.175C410.477 199.175 410.207 199.085 410.117 199.04C409.532 198.905 408.902 198.815 408.317 198.815H405.122V201.695H408.992V221H412.457V201.695H420.197V221.045H423.662C423.662 215.33 423.662 198.905 423.662 198.815H412.187ZM428.236 218.93C428.236 220.1 429.181 221.045 430.351 221.045H435.976V217.895H431.926C431.791 217.895 431.656 217.805 431.656 217.625V190.94H428.236C428.191 191.075 428.191 218.21 428.236 218.93ZM438.826 218.93C438.826 220.1 439.771 221.045 440.941 221.045H446.566V217.895H442.516C442.381 217.895 442.246 217.805 442.246 217.625V190.94H438.826C438.781 191.075 438.781 218.21 438.826 218.93ZM477.287 198.77L470.762 214.925C470.627 215.33 470.537 215.735 470.537 216.14V216.905H470.447V216.14C470.447 215.735 470.357 215.33 470.222 214.925L463.697 198.77H460.007L468.107 218.66C468.467 219.515 468.467 220.415 468.107 221.27L465.002 228.92H468.692L480.977 198.77H477.287ZM483.887 209.93C483.887 204.98 486.452 201.29 490.907 201.29C495.317 201.29 497.882 204.98 497.882 209.93C497.882 214.88 495.317 218.57 490.907 218.57C486.452 218.57 483.887 214.88 483.887 209.93ZM501.347 209.93C501.347 203.045 497.117 198.14 490.907 198.14C484.697 198.14 480.467 203.045 480.467 209.93C480.467 216.815 484.697 221.72 490.907 221.72C497.117 221.72 501.347 216.815 501.347 209.93ZM504.782 198.815V211.505C504.782 218.075 507.662 221.675 513.152 221.675C517.472 221.675 519.452 219.02 520.172 217.265L520.712 215.6L520.757 215.645L520.622 216.185C520.442 216.86 520.352 217.49 520.352 218.165V221H523.772V198.815H520.352V211.28C520.352 215.645 517.877 218.57 514.187 218.57C510.002 218.57 508.202 215.78 508.202 210.83C508.202 207.95 508.202 198.815 508.202 198.815H504.782ZM531.808 221.045V210.11C531.808 206.375 533.563 201.47 535.363 201.47C536.578 201.47 536.938 203.09 536.938 204.35V206.825H540.403V203.63C540.403 200.3 539.323 198.14 536.713 198.14C535.363 198.14 534.238 199.13 533.428 200.3C532.618 201.425 532.168 202.73 532.033 203.495C531.988 203.63 531.808 204.71 531.763 204.845L531.628 205.7H531.583L531.673 205.115C531.763 204.395 531.808 203.72 531.808 203V198.815H528.388V221.045H531.808ZM559.538 221.045V210.11C559.538 206.375 561.293 201.47 563.093 201.47C564.308 201.47 564.668 203.09 564.668 204.35V206.825H568.133V203.63C568.133 200.3 567.053 198.14 564.443 198.14C563.093 198.14 561.968 199.13 561.158 200.3C560.348 201.425 559.898 202.73 559.763 203.495C559.718 203.63 559.538 204.71 559.493 204.845L559.358 205.7H559.313L559.403 205.115C559.493 204.395 559.538 203.72 559.538 203V198.815H556.118V221.045H559.538ZM573.843 209.93C573.843 204.98 576.408 201.29 580.863 201.29C585.273 201.29 587.838 204.98 587.838 209.93C587.838 214.88 585.273 218.57 580.863 218.57C576.408 218.57 573.843 214.88 573.843 209.93ZM591.303 209.93C591.303 203.045 587.073 198.14 580.863 198.14C574.653 198.14 570.423 203.045 570.423 209.93C570.423 216.815 574.653 221.72 580.863 221.72C587.073 221.72 591.303 216.815 591.303 209.93ZM595.008 218.93C595.008 220.1 595.953 221.045 597.123 221.045H602.748V217.895H598.698C598.563 217.895 598.428 217.805 598.428 217.625V190.94H595.008C594.963 191.075 594.963 218.21 595.008 218.93ZM614.173 201.29C618.178 201.29 620.563 204.305 620.968 208.4H607.333C607.738 204.305 610.168 201.29 614.173 201.29ZM624.523 210.965C624.568 210.65 624.613 210.29 624.613 209.93C624.613 203.045 620.383 198.14 614.173 198.14C607.963 198.14 603.733 203.045 603.733 209.93C603.733 216.815 607.963 221.72 614.173 221.72C619.168 221.72 622.813 218.525 624.118 213.755L620.608 213.125C619.843 216.32 617.593 218.57 614.173 218.57C609.988 218.57 607.558 215.285 607.333 210.965H624.523ZM644.791 215.24C644.791 210.56 640.471 209.255 636.871 208.355C634.936 207.86 631.291 207.05 631.291 204.305C631.291 202.64 632.641 201.02 635.971 201.02C639.661 201.02 640.786 203.045 640.786 205.295H643.981C643.981 201.65 641.911 198.14 635.881 198.14C630.166 198.14 627.826 200.93 627.826 203.99C627.826 207.995 630.886 209.615 635.116 210.65C639.301 211.64 641.326 212.855 641.326 215.06C641.326 217.49 639.211 218.795 636.286 218.795C631.426 218.795 630.751 215.33 630.751 213.935H627.331C627.331 217.67 629.716 221.675 636.421 221.675C642.271 221.675 644.791 218.75 644.791 215.24ZM648.85 221.315C649.93 221.315 650.785 220.415 650.785 219.38C650.785 218.3 649.93 217.445 648.85 217.445C647.815 217.445 646.96 218.3 646.96 219.38C646.96 220.415 647.815 221.315 648.85 221.315ZM30.3002 302.99C30.3002 297.455 25.5752 295.43 19.5452 293.855C14.1902 292.505 11.7152 291.155 11.7152 288.095C11.7152 285.44 13.8752 283.415 18.5102 283.415C23.1452 283.415 25.4852 285.935 25.4852 289.805H29.1752C29.1752 284.72 26.3402 280.22 18.5102 280.22C11.1302 280.22 8.02524 283.775 8.02524 288.05C8.02524 292.82 11.2202 295.25 17.8802 296.87C23.9102 298.355 26.5652 299.615 26.5652 303.215C26.5652 306.32 23.8652 308.525 19.1852 308.525C13.7852 308.525 10.9952 305.51 10.9952 301.415H7.30524C7.30524 306.995 10.9052 311.675 19.2752 311.675C27.2402 311.675 30.3002 307.445 30.3002 302.99ZM36.5233 299.93C36.5233 294.98 39.0883 291.29 43.5433 291.29C47.9533 291.29 50.5183 294.98 50.5183 299.93C50.5183 304.88 47.9533 308.57 43.5433 308.57C39.0883 308.57 36.5233 304.88 36.5233 299.93ZM53.9833 299.93C53.9833 293.045 49.7533 288.14 43.5433 288.14C37.3333 288.14 33.1033 293.045 33.1033 299.93C33.1033 306.815 37.3333 311.72 43.5433 311.72C49.7533 311.72 53.9833 306.815 53.9833 299.93ZM72.7781 299.93C72.7781 294.935 75.3431 291.245 79.7981 291.245C84.2081 291.245 86.5031 294.935 86.5031 299.93C86.5031 304.88 84.2531 308.57 79.7981 308.57C75.3431 308.57 72.7781 304.88 72.7781 299.93ZM86.6381 280.895V292.325C86.6381 293 86.7281 293.675 86.9081 294.305L87.0881 294.89H87.0431L86.5031 293.27C85.9181 291.335 84.2531 288.14 79.1681 288.14C73.2731 288.14 69.3581 293.045 69.3581 299.93C69.3581 306.77 73.2281 311.675 79.1681 311.675C84.2531 311.675 85.9631 308.435 86.5481 306.5L87.0431 304.925H87.0881L86.9081 305.51C86.7281 306.14 86.6381 306.815 86.6381 307.49V311.045H90.1031V280.895H86.6381ZM97.2557 299.93C97.2557 294.98 99.8207 291.29 104.276 291.29C108.686 291.29 111.251 294.98 111.251 299.93C111.251 304.88 108.686 308.57 104.276 308.57C99.8207 308.57 97.2557 304.88 97.2557 299.93ZM114.716 299.93C114.716 293.045 110.486 288.14 104.276 288.14C98.0657 288.14 93.8357 293.045 93.8357 299.93C93.8357 306.815 98.0657 311.72 104.276 311.72C110.486 311.72 114.716 306.815 114.716 299.93ZM137.017 298.355C137.017 291.785 133.867 288.14 128.647 288.14C125.632 288.14 123.652 289.49 122.527 290.885C121.987 291.56 121.672 292.37 121.447 293.09L121.087 294.26L120.997 294.215L121.177 293.63C121.357 293 121.447 292.325 121.447 291.65V288.815H118.027V311.045H121.447V298.58C121.447 294.215 123.877 291.29 127.612 291.29C131.527 291.29 133.597 294.08 133.597 299.03C133.597 301.91 133.597 311.045 133.597 311.045H137.017V298.355ZM141.659 280.22C140.849 280.4 140.219 281.075 140.174 281.93C140.174 282.2 140.219 282.515 140.354 282.785C140.489 283.01 140.399 283.19 140.309 283.325L138.644 285.08L140.309 286.7L143.459 283.325C143.909 282.83 143.999 282.2 143.864 281.615C143.594 280.625 142.649 280.04 141.659 280.22ZM151.596 307.895C151.461 307.895 151.371 307.76 151.371 307.625V291.695H155.286V288.77H151.371V280.895H148.221C148.221 280.94 148.221 284.765 148.221 287.465C148.221 288.275 147.591 288.905 146.781 288.905H144.486V291.695H147.906C147.906 297.23 147.906 308.435 147.906 308.885C147.906 310.055 148.851 311 150.021 311H156.276V307.895H151.596ZM159.606 311.315C160.686 311.315 161.541 310.415 161.541 309.38C161.541 308.3 160.686 307.445 159.606 307.445C158.571 307.445 157.716 308.3 157.716 309.38C157.716 310.415 158.571 311.315 159.606 311.315Z" fill="#FFF6E9"/>
<path d="M29.3002 50.78C25.8336 50.78 22.6052 50.1517 19.6152 48.895C16.6686 47.6383 14.0902 45.8833 11.8802 43.63C9.67024 41.3767 7.93691 38.7333 6.68024 35.7C5.46691 32.6667 4.86024 29.3517 4.86024 25.755C4.86024 22.1583 5.46691 18.8433 6.68024 15.81C7.89358 12.7333 9.60524 10.09 11.8152 7.88C14.0252 5.62666 16.6036 3.89333 19.5502 2.68C22.5402 1.42333 25.7902 0.794998 29.3002 0.794998C32.8102 0.794998 35.9519 1.38 38.7252 2.55C41.5419 3.72 43.9252 5.28 45.8752 7.23C47.8252 9.18 49.2119 11.3467 50.0352 13.73L41.1302 18.02C40.3069 15.68 38.8552 13.7517 36.7752 12.235C34.7386 10.675 32.2469 9.895 29.3002 9.895C26.4402 9.895 23.9269 10.5667 21.7602 11.91C19.5936 13.2533 17.9036 15.1167 16.6902 17.5C15.5202 19.84 14.9352 22.5917 14.9352 25.755C14.9352 28.9183 15.5202 31.6917 16.6902 34.075C17.9036 36.4583 19.5936 38.3217 21.7602 39.665C23.9269 41.0083 26.4402 41.68 29.3002 41.68C32.2469 41.68 34.7386 40.9217 36.7752 39.405C38.8552 37.845 40.3069 35.895 41.1302 33.555L50.0352 37.845C49.2119 40.2283 47.8252 42.395 45.8752 44.345C43.9252 46.295 41.5419 47.855 38.7252 49.025C35.9519 50.195 32.8102 50.78 29.3002 50.78ZM55.7852 50V0.794998H65.5352V50H55.7852ZM72.67 50V14.51H82.42V50H72.67ZM72.67 11.325V1.575H82.42V11.325H72.67ZM106.65 50.78C102.88 50.78 99.6081 49.9567 96.8347 48.31C94.0614 46.62 91.9164 44.3667 90.3997 41.55C88.8831 38.7333 88.1247 35.6133 88.1247 32.19C88.1247 28.6367 88.9047 25.4733 90.4647 22.7C92.0681 19.9267 94.2131 17.7383 96.8997 16.135C99.5864 14.5317 102.62 13.73 106 13.73C108.816 13.73 111.308 14.185 113.475 15.095C115.641 15.9617 117.461 17.1967 118.935 18.8C120.451 20.4033 121.6 22.2667 122.38 24.39C123.16 26.47 123.55 28.745 123.55 31.215C123.55 31.9083 123.506 32.6017 123.42 33.295C123.376 33.945 123.268 34.5083 123.095 34.985H96.5097V27.835H117.57L112.955 31.215C113.388 29.3517 113.366 27.705 112.89 26.275C112.413 24.8017 111.568 23.6533 110.355 22.83C109.185 21.9633 107.733 21.53 106 21.53C104.31 21.53 102.858 21.9417 101.645 22.765C100.431 23.5883 99.5214 24.8017 98.9147 26.405C98.3081 28.0083 98.0697 29.9583 98.1997 32.255C98.0264 34.2483 98.2647 36.0033 98.9147 37.52C99.5647 39.0367 100.561 40.2283 101.905 41.095C103.248 41.9183 104.873 42.33 106.78 42.33C108.513 42.33 109.986 41.9833 111.2 41.29C112.456 40.5967 113.431 39.6433 114.125 38.43L121.925 42.135C121.231 43.8683 120.126 45.385 118.61 46.685C117.136 47.985 115.381 49.0033 113.345 49.74C111.308 50.4333 109.076 50.78 106.65 50.78ZM129.291 50V14.51H138.391V21.53L137.871 19.97C138.694 17.8467 140.016 16.2867 141.836 15.29C143.699 14.25 145.866 13.73 148.336 13.73C151.023 13.73 153.363 14.2933 155.356 15.42C157.393 16.5467 158.974 18.1283 160.101 20.165C161.228 22.1583 161.791 24.4983 161.791 27.185V50H152.041V29.265C152.041 27.8783 151.759 26.6867 151.196 25.69C150.676 24.6933 149.918 23.9133 148.921 23.35C147.968 22.7867 146.841 22.505 145.541 22.505C144.284 22.505 143.158 22.7867 142.161 23.35C141.164 23.9133 140.384 24.6933 139.821 25.69C139.301 26.6867 139.041 27.8783 139.041 29.265V50H129.291ZM185.297 50.39C181.007 50.39 177.671 49.2417 175.287 46.945C172.947 44.605 171.777 41.355 171.777 37.195V22.96H165.797V14.51H166.122C167.942 14.51 169.329 14.055 170.282 13.145C171.279 12.235 171.777 10.87 171.777 9.05V6.45H181.527V14.51H189.847V22.96H181.527V36.545C181.527 37.7583 181.744 38.7767 182.177 39.6C182.611 40.38 183.282 40.965 184.192 41.355C185.102 41.745 186.229 41.94 187.572 41.94C187.876 41.94 188.222 41.9183 188.612 41.875C189.002 41.8317 189.414 41.7883 189.847 41.745V50C189.197 50.0867 188.461 50.1733 187.637 50.26C186.814 50.3467 186.034 50.39 185.297 50.39ZM209.471 50.78C205.571 50.78 202.169 49.87 199.266 48.05C196.406 46.1867 194.456 43.695 193.416 40.575L200.566 37.195C201.476 39.1017 202.711 40.5967 204.271 41.68C205.831 42.7633 207.564 43.305 209.471 43.305C210.857 43.305 211.919 43.0233 212.656 42.46C213.392 41.8967 213.761 41.1167 213.761 40.12C213.761 39.6 213.631 39.1667 213.371 38.82C213.111 38.43 212.721 38.0833 212.201 37.78C211.681 37.4767 211.031 37.2167 210.251 37L204.206 35.31C201.302 34.4867 199.071 33.165 197.511 31.345C195.951 29.4817 195.171 27.2933 195.171 24.78C195.171 22.57 195.734 20.6417 196.861 18.995C197.987 17.3483 199.569 16.07 201.606 15.16C203.642 14.2067 205.982 13.73 208.626 13.73C212.092 13.73 215.126 14.5533 217.726 16.2C220.369 17.8033 222.232 20.0783 223.316 23.025L216.101 26.405C215.581 24.9317 214.627 23.7617 213.241 22.895C211.897 21.985 210.359 21.53 208.626 21.53C207.369 21.53 206.372 21.79 205.636 22.31C204.942 22.83 204.596 23.545 204.596 24.455C204.596 24.9317 204.726 25.365 204.986 25.755C205.246 26.145 205.657 26.4917 206.221 26.795C206.827 27.0983 207.564 27.38 208.431 27.64L214.086 29.33C217.032 30.1967 219.286 31.5183 220.846 33.295C222.406 35.0283 223.186 37.1733 223.186 39.73C223.186 41.94 222.601 43.8683 221.431 45.515C220.304 47.1617 218.722 48.4617 216.686 49.415C214.649 50.325 212.244 50.78 209.471 50.78Z" fill="#C096D6"/>
</svg>
