<svg width="849" height="467" viewBox="0 0 849 467" fill="none" xmlns="http://www.w3.org/2000/svg">
<line x1="238.833" y1="309.327" x2="848.398" y2="309.327" stroke="#C096D6" stroke-width="30"/>
<path d="M152.564 0.854994L132.064 75.065C131.039 78.96 130.424 83.265 130.424 87.365V92.9H130.014V87.57C130.014 83.265 129.399 79.165 128.169 75.065L106.849 0.854994H82.2493L60.9293 75.065C59.6993 79.165 59.0843 83.265 59.0843 87.57V92.9H58.6743V87.365C58.6743 83.265 58.0593 78.96 57.0344 75.065L36.5343 0.854994H0.659346L39.8143 138H76.3043L92.7043 79.37C93.7293 74.86 94.3444 71.58 94.3444 66.865V59.69H94.7543V66.865C94.7543 71.58 95.3694 74.86 96.3944 79.37L112.794 138H149.284L188.644 0.854994H152.564ZM285.742 138.205V78.755C285.742 51.9 274.057 33.86 250.482 33.86C241.462 33.86 235.312 36.525 231.007 39.6C225.677 43.7 223.832 49.03 222.807 53.13L221.782 57.845H221.372L221.987 55.795C222.602 52.105 223.012 48.21 223.012 44.52V1.05999H191.647V138.205H223.012V85.93C223.012 70.965 227.932 61.945 238.797 61.945C250.072 61.945 254.172 70.76 254.172 86.545C254.172 89.825 254.172 138.205 254.172 138.205H285.742ZM357.5 98.845C357.5 106.635 350.735 114.425 339.87 114.425C333.72 114.425 330.44 111.555 330.03 107.66C329.825 103.355 332.695 99.87 339.255 98.64C344.38 97.82 349.71 96.59 352.375 95.77C356.475 94.95 357.705 93.925 357.705 93.925L357.5 98.845ZM395.63 112.785H390.915C389.89 112.785 388.865 111.76 388.865 110.735V75.68C389.275 49.645 374.72 33.86 346.635 33.86C332.285 33.86 320.6 37.96 312.605 45.545C303.995 53.54 301.33 63.79 302.56 73.63L333.515 70.145C333.105 67.685 333.515 64.815 335.155 62.765C337.205 60.305 341.305 58.665 346.02 58.87C353.195 58.87 357.295 62.56 357.295 67.07C357.295 69.735 355.86 71.17 353.81 72.195C351.555 73.22 344.175 74.45 336.59 76.295C329.825 77.935 320.6 80.19 315.475 82.855C302.97 88.8 298.255 98.845 298.46 111.555C298.46 127.75 311.785 141.28 332.695 141.28C347.25 141.075 356.065 134.72 360.575 126.52C361.805 124.265 363.035 120.165 363.855 116.885C364.06 115.45 364.265 113.81 364.265 113.81L364.675 114.015L364.47 115.45C364.06 117.295 363.855 119.14 363.65 120.985C363.65 122.42 363.445 124.88 363.445 126.93C363.445 133.285 367.75 138 375.335 138.205H395.63V112.785ZM447.085 110.12C445.855 110.12 444.83 109.095 444.83 107.865V62.355H460.615V36.935H444.83V0.854994H417.155C417.155 0.854994 417.155 24.02 417.155 27.095C417.155 33.245 412.235 38.165 406.085 38.165H398.91V62.355H413.26C413.26 68.71 413.26 120.78 413.26 121.395C413.26 130.62 420.64 138 430.07 138H466.355V110.12H447.085ZM563.849 87.57C563.849 71.785 571.229 61.945 582.914 61.945C594.394 61.945 601.774 71.785 601.774 87.57C601.774 103.355 594.394 113.195 582.914 113.195C571.229 113.195 563.849 103.355 563.849 87.57ZM633.344 87.57C633.344 54.155 611.819 33.86 582.914 33.86C553.804 33.86 532.484 54.155 532.484 87.57C532.484 121.19 553.804 141.28 582.914 141.28C611.819 141.28 633.344 121.19 633.344 87.57ZM645.862 36.935V96.385C645.862 123.24 657.342 141.075 680.917 141.075C701.212 141.075 706.542 129.39 708.387 122.625L709.617 117.295H710.027L709.412 119.345C708.797 123.035 708.387 126.725 708.387 130.62V138H739.957V36.935H708.387V89.005C708.387 104.175 703.467 113.195 692.602 113.195C681.327 113.195 677.227 104.38 677.227 88.595C677.227 85.315 677.227 36.935 677.227 36.935H645.862ZM789.165 93.925C789.165 76.91 792.65 63.995 798.8 63.995C803.31 63.995 803.925 70.145 803.925 75.065V85.93L835.495 85.725V62.15C835.495 47.39 830.165 33.86 813.56 33.86C808.025 33.86 802.49 36.115 798.8 39.6C794.085 44.11 791.83 49.645 790.6 53.335C790.19 54.975 789.575 57.845 789.37 59.69L788.55 64.815H788.14L788.55 62.15C788.96 59.075 789.165 55.795 789.165 52.72V36.935H757.8V138.205H789.165V93.925ZM309.679 239.49C308.449 252.61 301.479 260.195 291.229 260.195C279.544 260.195 272.164 250.355 272.164 234.57C272.164 218.785 279.544 208.945 291.229 208.945C301.479 208.945 308.449 216.735 309.679 229.65L341.044 226.78C338.174 197.875 317.879 180.86 291.229 180.86C262.119 180.86 240.799 201.155 240.799 234.57C240.799 268.19 262.119 288.28 291.229 288.28C317.879 288.28 338.174 271.47 341.044 242.565L309.679 239.49ZM354.196 268.395C354.196 277.62 361.576 285.205 370.801 285.205H399.911V257.12H388.021C386.586 257.12 385.561 256.095 385.561 254.865V148.06H354.196C354.196 148.06 354.196 267.575 354.196 268.395ZM412.058 285.205H443.628C443.628 278.645 443.628 184.14 443.628 183.935H412.058V285.205ZM427.843 177.17C437.068 177.17 444.448 169.585 444.448 160.565C444.448 151.34 437.068 143.96 427.843 143.96C418.823 143.96 411.443 151.34 411.443 160.565C411.443 169.585 418.823 177.17 427.843 177.17ZM505.638 208.945C514.248 208.945 520.193 214.685 522.448 223.295H488.623C490.878 214.685 496.823 208.945 505.638 208.945ZM555.248 244.82C555.658 241.54 556.068 238.26 556.068 234.57C556.068 201.155 534.543 180.86 505.638 180.86C476.528 180.86 455.208 201.155 455.208 234.57C455.208 268.19 476.528 288.28 505.638 288.28C527.573 288.28 545.203 276.595 552.378 256.3L520.398 250.56C517.528 256.505 512.403 260.195 505.638 260.195C496.618 260.195 490.468 254.045 488.418 244.82H555.248ZM663.711 225.755C663.711 198.9 651.616 180.86 628.451 180.86C615.741 180.86 608.771 185.575 604.876 190.7C602.621 193.775 601.391 197.26 600.776 200.13L599.751 204.845H599.341L599.956 202.795C600.571 199.105 600.981 195.21 600.981 191.52V183.935H569.616V285.205H600.981V232.93C600.981 217.965 605.901 208.945 616.766 208.945C627.631 208.945 632.141 217.76 632.141 233.545C632.141 236.825 632.141 285.205 632.141 285.205H663.711V225.755ZM717.95 257.12C716.72 257.12 715.695 256.095 715.695 254.865V209.355H731.48V183.935H715.695V147.855H688.02C688.02 147.855 688.02 171.02 688.02 174.095C688.02 180.245 683.1 185.165 676.95 185.165H669.775V209.355H684.125C684.125 215.71 684.125 267.78 684.125 268.395C684.125 277.62 691.505 285 700.935 285H737.22V257.12H717.95ZM834.442 256.71C834.442 234.365 815.377 228.42 799.592 224.115C791.597 221.86 780.322 220.22 780.322 213.455C780.322 209.15 783.397 206.075 790.982 206.075C798.772 206.075 802.052 209.56 802.052 214.275L830.957 214.48C830.957 193.775 815.992 180.86 789.547 180.86C761.667 180.86 748.752 194.595 748.752 209.765C748.752 231.905 765.972 238.26 781.757 242.565C793.032 245.64 802.667 248.1 802.667 254.455C802.667 259.99 797.747 262.655 790.777 262.655C781.142 262.655 777.862 256.095 777.862 251.38H746.497C746.497 272.495 761.667 288.075 792.212 288.075C820.092 288.075 834.442 274.955 834.442 256.71ZM630.043 402.71C630.043 380.365 610.978 374.42 595.193 370.115C587.198 367.86 575.923 366.22 575.923 359.455C575.923 355.15 578.998 352.075 586.583 352.075C594.373 352.075 597.653 355.56 597.653 360.275L626.558 360.48C626.558 339.775 611.593 326.86 585.148 326.86C557.268 326.86 544.353 340.595 544.353 355.765C544.353 377.905 561.573 384.26 577.358 388.565C588.633 391.64 598.268 394.1 598.268 400.455C598.268 405.99 593.348 408.655 586.378 408.655C576.743 408.655 573.463 402.095 573.463 397.38H542.098C542.098 418.495 557.268 434.075 587.813 434.075C615.693 434.075 630.043 420.955 630.043 402.71ZM699.033 391.845C699.033 399.635 692.268 407.425 681.403 407.425C675.253 407.425 671.973 404.555 671.563 400.66C671.358 396.355 674.228 392.87 680.788 391.64C685.913 390.82 691.243 389.59 693.908 388.77C698.008 387.95 699.238 386.925 699.238 386.925L699.033 391.845ZM737.163 405.785H732.448C731.423 405.785 730.398 404.76 730.398 403.735V368.68C730.808 342.645 716.253 326.86 688.168 326.86C673.818 326.86 662.133 330.96 654.138 338.545C645.528 346.54 642.863 356.79 644.093 366.63L675.048 363.145C674.638 360.685 675.048 357.815 676.688 355.765C678.738 353.305 682.838 351.665 687.553 351.87C694.728 351.87 698.828 355.56 698.828 360.07C698.828 362.735 697.393 364.17 695.343 365.195C693.088 366.22 685.708 367.45 678.123 369.295C671.358 370.935 662.133 373.19 657.008 375.855C644.503 381.8 639.788 391.845 639.993 404.555C639.993 420.75 653.318 434.28 674.228 434.28C688.783 434.075 697.598 427.72 702.108 419.52C703.338 417.265 704.568 413.165 705.388 409.885C705.593 408.45 705.798 406.81 705.798 406.81L706.208 407.015L706.003 408.45C705.593 410.295 705.388 412.14 705.183 413.985C705.183 415.42 704.978 417.88 704.978 419.93C704.978 426.285 709.283 431 716.868 431.205H737.163V405.785ZM804.972 329.935L786.727 378.315C785.702 380.98 785.292 383.645 785.292 386.515V390.615H784.882V386.515C784.882 383.645 784.267 380.98 783.242 378.315L765.202 329.935H731.377L764.792 414.19C766.842 419.93 766.842 426.08 764.792 431.615L750.647 466.875H784.472L838.797 329.935H804.972Z" fill="#303030"/>
</svg>
