<svg width="476" height="299" viewBox="0 0 476 299" fill="none" xmlns="http://www.w3.org/2000/svg">
<rect x="0.870483" width="474.259" height="299" rx="10" fill="#8CD87C"/>
<path d="M61.8216 56.8296C61.8216 52.8936 58.4616 51.4536 54.1736 50.3336C50.3656 49.3736 48.6056 48.4136 48.6056 46.2376C48.6056 44.3496 50.1416 42.9096 53.4376 42.9096C56.7336 42.9096 58.3976 44.7016 58.3976 47.4536H61.0216C61.0216 43.8376 59.0056 40.6376 53.4376 40.6376C48.1896 40.6376 45.9816 43.1656 45.9816 46.2056C45.9816 49.5976 48.2536 51.3256 52.9896 52.4776C57.2776 53.5336 59.1656 54.4296 59.1656 56.9896C59.1656 59.1976 57.2456 60.7656 53.9176 60.7656C50.0776 60.7656 48.0936 58.6216 48.0936 55.7096H45.4696C45.4696 59.6776 48.0296 63.0056 53.9816 63.0056C59.6456 63.0056 61.8216 59.9976 61.8216 56.8296ZM68.2949 60.3176C68.1989 60.3176 68.1349 60.2216 68.1349 60.1256V48.7976H70.9189V46.7176H68.1349V41.1176H65.8949C65.8949 41.1496 65.8949 43.8696 65.8949 45.7896C65.8949 46.3656 65.4469 46.8136 64.8709 46.8136H63.2389V48.7976H65.6709C65.6709 52.7336 65.6709 60.7016 65.6709 61.0216C65.6709 61.8536 66.3429 62.5256 67.1749 62.5256H71.6229V60.3176H68.2949ZM79.8639 48.5096C82.7119 48.5096 84.4079 50.6536 84.6959 53.5656H74.9999C75.2879 50.6536 77.0159 48.5096 79.8639 48.5096ZM87.2239 55.3896C87.2559 55.1656 87.2879 54.9096 87.2879 54.6536C87.2879 49.7576 84.2799 46.2696 79.8639 46.2696C75.4479 46.2696 72.4399 49.7576 72.4399 54.6536C72.4399 59.5496 75.4479 63.0376 79.8639 63.0376C83.4159 63.0376 86.0079 60.7656 86.9359 57.3736L84.4399 56.9256C83.8959 59.1976 82.2959 60.7976 79.8639 60.7976C76.8879 60.7976 75.1599 58.4616 74.9999 55.3896H87.2239ZM102.18 54.6536C102.18 58.1736 100.388 60.7976 97.2204 60.7976C94.0844 60.7976 92.4524 58.1736 92.4524 54.6536C92.4524 51.1336 94.0524 48.5096 97.2204 48.5096C100.356 48.5096 102.18 51.1336 102.18 54.6536ZM92.3244 60.0616C92.3244 59.5816 92.2604 59.1016 92.1324 58.6536L92.0044 58.2376L92.0684 58.2056L92.4204 59.3896C92.8364 60.7336 94.0524 63.0376 97.6684 63.0376C101.86 63.0376 104.644 59.5496 104.644 54.6536C104.644 49.7896 101.86 46.2696 97.6684 46.2696C94.0524 46.2696 92.8364 48.5736 92.4204 49.9816L92.0684 51.1016L92.0044 51.0696L92.1324 50.6856C92.2604 50.2056 92.3244 49.7256 92.3244 49.2456V46.7496H89.8924V68.1896H92.3244V60.0616ZM119.757 41.1176V41.6296C119.757 42.7816 119.309 43.8696 118.477 44.6696L114.669 48.5096L116.365 50.2056L119.245 47.3256C119.533 47.0056 119.757 46.6216 119.853 46.2056L119.917 45.8856H119.981L119.885 46.2696C119.789 46.6856 119.757 47.1336 119.757 47.5496V62.5256H122.381V41.1176H119.757ZM125.804 62.7496C126.572 62.7496 127.18 62.1096 127.18 61.3736C127.18 60.6056 126.572 59.9976 125.804 59.9976C125.068 59.9976 124.46 60.6056 124.46 61.3736C124.46 62.1096 125.068 62.7496 125.804 62.7496ZM65.6216 83.7656H44.6216V89.5656H51.7416V110.526H58.4616V89.5656H65.6216V83.7656ZM85.8326 110.566V98.9656C85.8326 93.7256 83.5526 90.2056 78.9526 90.2056C77.1926 90.2056 75.9926 90.7256 75.1526 91.3256C74.1126 92.1256 73.7526 93.1656 73.5526 93.9656L73.3526 94.8856H73.2726L73.3926 94.4856C73.5126 93.7656 73.5926 93.0056 73.5926 92.2856V83.8056H67.4726V110.566H73.5926V100.366C73.5926 97.4456 74.5526 95.6856 76.6726 95.6856C78.8726 95.6856 79.6726 97.4056 79.6726 100.486C79.6726 101.126 79.6726 110.566 79.6726 110.566H85.8326ZM98.1141 95.6856C99.7941 95.6856 100.954 96.8056 101.394 98.4856H94.7941C95.2341 96.8056 96.3941 95.6856 98.1141 95.6856ZM107.794 102.686C107.874 102.046 107.954 101.406 107.954 100.686C107.954 94.1656 103.754 90.2056 98.1141 90.2056C92.4341 90.2056 88.2741 94.1656 88.2741 100.686C88.2741 107.246 92.4341 111.166 98.1141 111.166C102.394 111.166 105.834 108.886 107.234 104.926L100.994 103.806C100.434 104.966 99.4341 105.686 98.1141 105.686C96.3541 105.686 95.1541 104.486 94.7541 102.686H107.794ZM128.21 100.686C128.21 97.5656 129.57 95.6456 131.85 95.6456C134.09 95.6456 135.53 97.5656 135.53 100.686C135.53 103.766 134.09 105.686 131.85 105.686C129.57 105.686 128.21 103.766 128.21 100.686ZM127.85 107.366C128.17 108.726 129.13 111.126 133.25 111.126C138.57 111.126 141.69 106.606 141.69 100.686C141.69 94.7256 138.57 90.2056 133.25 90.2056C129.13 90.2056 128.17 92.6056 127.85 93.9656L127.61 95.0056H127.53L127.65 94.6056C127.77 93.8856 127.85 93.1656 127.85 92.4056V83.7656H121.73V110.526H127.85V108.926C127.85 108.206 127.77 107.446 127.65 106.726L127.53 106.326H127.61L127.85 107.366ZM150.585 101.926C150.585 98.6056 151.265 96.0856 152.465 96.0856C153.345 96.0856 153.465 97.2856 153.465 98.2456V100.366L159.625 100.326V95.7256C159.625 92.8456 158.585 90.2056 155.345 90.2056C154.265 90.2056 153.185 90.6456 152.465 91.3256C151.545 92.2056 151.105 93.2856 150.865 94.0056C150.785 94.3256 150.665 94.8856 150.625 95.2456L150.465 96.2456H150.385L150.465 95.7256C150.545 95.1256 150.585 94.4856 150.585 93.8856V90.8056H144.465V110.566H150.585V101.926ZM161.3 110.566H167.46C167.46 109.286 167.46 90.8456 167.46 90.8056H161.3V110.566ZM164.38 89.4856C166.18 89.4856 167.62 88.0056 167.62 86.2456C167.62 84.4456 166.18 83.0056 164.38 83.0056C162.62 83.0056 161.18 84.4456 161.18 86.2456C161.18 88.0056 162.62 89.4856 164.38 89.4856ZM179.559 95.6856C181.239 95.6856 182.399 96.8056 182.839 98.4856H176.239C176.679 96.8056 177.839 95.6856 179.559 95.6856ZM189.239 102.686C189.319 102.046 189.399 101.406 189.399 100.686C189.399 94.1656 185.199 90.2056 179.559 90.2056C173.879 90.2056 169.719 94.1656 169.719 100.686C169.719 107.246 173.879 111.166 179.559 111.166C183.839 111.166 187.279 108.886 188.679 104.926L182.439 103.806C181.879 104.966 180.879 105.686 179.559 105.686C177.799 105.686 176.599 104.486 176.199 102.686H189.239ZM199.803 96.2456H203.003V90.8056H199.203C199.203 90.8056 199.123 89.7656 199.123 89.5256C199.123 89.0856 199.443 88.7256 199.843 88.7256H201.483V83.7656H196.603C194.763 83.7656 193.563 85.0456 193.563 86.9256C193.563 88.0456 193.843 88.9656 194.163 89.6456C194.323 90.0056 194.563 90.2856 194.883 90.5256C195.163 90.7656 195.523 90.9256 195.843 91.0456V91.0856C195.643 91.0456 195.363 91.0056 195.163 90.9256C194.643 90.8456 194.123 90.8056 193.563 90.8056H190.963V96.2456H193.643V110.526H199.803V96.2456Z" fill="#FFF6E9"/>
<path d="M98.2376 163.061L94.7816 174.941C94.6616 175.301 94.6136 175.661 94.6136 175.997V176.381H94.5896V176.021C94.5896 175.661 94.5176 175.301 94.4216 174.965L90.8456 163.061H89.1656L85.5896 174.965C85.4696 175.301 85.4216 175.661 85.4216 176.021V176.381H85.3736V175.997C85.3736 175.661 85.3256 175.301 85.2296 174.941L81.7496 163.061H79.7096L84.4136 179.141H86.3336L89.8376 167.453C89.9336 167.093 89.9816 166.757 89.9816 166.397V165.941H90.0296V166.397C90.0296 166.757 90.0776 167.093 90.1736 167.453L93.6776 179.141H95.5976L100.302 163.061H98.2376ZM105.213 168.605C107.349 168.605 108.621 170.213 108.837 172.397H101.565C101.781 170.213 103.077 168.605 105.213 168.605ZM110.733 173.765C110.757 173.597 110.781 173.405 110.781 173.213C110.781 169.541 108.525 166.925 105.213 166.925C101.901 166.925 99.645 169.541 99.645 173.213C99.645 176.885 101.901 179.501 105.213 179.501C107.877 179.501 109.821 177.797 110.517 175.253L108.645 174.917C108.237 176.621 107.037 177.821 105.213 177.821C102.981 177.821 101.685 176.069 101.565 173.765H110.733ZM112.776 162.701C112.344 162.797 112.008 163.157 111.984 163.613C111.984 163.757 112.008 163.925 112.08 164.069C112.152 164.189 112.104 164.285 112.056 164.357L111.168 165.293L112.056 166.157L113.736 164.357C113.976 164.093 114.024 163.757 113.952 163.445C113.808 162.917 113.304 162.605 112.776 162.701ZM115.64 178.013C115.64 178.637 116.144 179.141 116.768 179.141H119.768V177.461H117.608C117.536 177.461 117.464 177.413 117.464 177.317V163.085H115.64C115.616 163.157 115.616 177.629 115.64 178.013ZM121.289 178.013C121.289 178.637 121.793 179.141 122.417 179.141H125.417V177.461H123.257C123.185 177.461 123.113 177.413 123.113 177.317V163.085H121.289C121.265 163.157 121.265 177.629 121.289 178.013ZM148.113 167.285L145.329 175.661C145.233 175.925 145.185 176.189 145.185 176.477V176.885H145.137V176.477C145.137 176.189 145.113 175.925 145.017 175.661L142.233 167.285H140.409L137.625 175.661C137.553 175.925 137.505 176.189 137.505 176.477V176.885H137.457V176.477C137.457 176.189 137.409 175.925 137.337 175.661L134.553 167.285H132.657L136.473 179.141H138.297L141.177 170.597C141.249 170.333 141.297 170.045 141.297 169.757V169.421H141.345V169.757C141.345 170.045 141.393 170.333 141.489 170.597L144.345 179.141H146.169L150.009 167.285H148.113ZM152 173.213C152 170.573 153.368 168.605 155.744 168.605C158.096 168.605 159.464 170.573 159.464 173.213C159.464 175.853 158.096 177.821 155.744 177.821C153.368 177.821 152 175.853 152 173.213ZM161.312 173.213C161.312 169.541 159.056 166.925 155.744 166.925C152.432 166.925 150.176 169.541 150.176 173.213C150.176 176.885 152.432 179.501 155.744 179.501C159.056 179.501 161.312 176.885 161.312 173.213ZM164.902 179.141V173.309C164.902 171.317 165.838 168.701 166.798 168.701C167.446 168.701 167.638 169.565 167.638 170.237V171.557H169.486V169.853C169.486 168.077 168.91 166.925 167.518 166.925C166.798 166.925 166.198 167.453 165.766 168.077C165.334 168.677 165.094 169.373 165.022 169.781C164.998 169.853 164.902 170.429 164.878 170.501L164.806 170.957H164.782L164.83 170.645C164.878 170.261 164.902 169.901 164.902 169.517V167.285H163.078V179.141H164.902ZM178.148 171.173L180.668 167.285H178.46C178.46 167.285 173.54 174.917 173.396 175.133C173.204 175.445 173.084 175.805 173.084 176.189L173.06 176.549H173.012V163.085H171.188V179.141H172.988L176.492 173.717L179.396 179.141H181.436L178.076 172.733C177.812 172.229 177.836 171.629 178.148 171.173ZM192.489 177.461C192.417 177.461 192.369 177.389 192.369 177.317V168.821H194.457V167.261H192.369V163.061H190.689C190.689 163.085 190.689 165.125 190.689 166.565C190.689 166.997 190.353 167.333 189.921 167.333H188.697V168.821H190.521C190.521 171.773 190.521 177.749 190.521 177.989C190.521 178.613 191.025 179.117 191.649 179.117H194.985V177.461H192.489ZM197.422 173.213C197.422 170.573 198.79 168.605 201.166 168.605C203.518 168.605 204.886 170.573 204.886 173.213C204.886 175.853 203.518 177.821 201.166 177.821C198.79 177.821 197.422 175.853 197.422 173.213ZM206.734 173.213C206.734 169.541 204.478 166.925 201.166 166.925C197.854 166.925 195.598 169.541 195.598 173.213C195.598 176.885 197.854 179.501 201.166 179.501C204.478 179.501 206.734 176.885 206.734 173.213ZM213.822 177.821C211.446 177.821 210.078 175.853 210.078 173.213C210.078 170.573 211.446 168.605 213.822 168.605C216.174 168.605 217.398 170.573 217.398 173.213C217.398 175.853 216.198 177.821 213.822 177.821ZM219.318 177.341V167.285H217.47V169.157C217.47 169.517 217.518 169.877 217.614 170.237L217.71 170.525L217.686 170.549L217.398 169.661C217.086 168.653 216.198 166.925 213.486 166.925C210.342 166.925 208.254 169.565 208.254 173.213C208.254 176.861 210.318 179.501 213.486 179.501C216.198 179.501 217.11 177.773 217.422 176.741L217.686 175.877L217.71 175.901L217.614 176.213C217.542 176.477 217.494 176.765 217.494 177.053C217.494 177.125 217.47 177.773 217.47 177.845C217.47 178.949 218.07 179.645 218.07 180.461C218.07 181.613 217.134 181.829 216.078 181.805H210.174V183.365H216.726C218.958 183.365 219.966 182.501 219.966 180.749C219.966 179.285 219.318 178.949 219.318 177.341ZM226.666 168.605C228.802 168.605 230.074 170.213 230.29 172.397H223.018C223.234 170.213 224.53 168.605 226.666 168.605ZM232.186 173.765C232.21 173.597 232.234 173.405 232.234 173.213C232.234 169.541 229.978 166.925 226.666 166.925C223.354 166.925 221.098 169.541 221.098 173.213C221.098 176.885 223.354 179.501 226.666 179.501C229.33 179.501 231.274 177.797 231.97 175.253L230.098 174.917C229.69 176.621 228.49 177.821 226.666 177.821C224.434 177.821 223.138 176.069 223.018 173.765H232.186ZM236.528 177.461C236.456 177.461 236.408 177.389 236.408 177.317V168.821H238.496V167.261H236.408V163.061H234.728C234.728 163.085 234.728 165.125 234.728 166.565C234.728 166.997 234.392 167.333 233.96 167.333H232.736V168.821H234.56C234.56 171.773 234.56 177.749 234.56 177.989C234.56 178.613 235.064 179.117 235.688 179.117H239.024V177.461H236.528ZM250.245 179.141V172.373C250.245 168.869 248.685 166.925 245.781 166.925C244.461 166.925 243.501 167.453 242.877 168.053C242.373 168.509 242.085 169.085 241.917 169.613L241.749 170.189L241.701 170.165L241.797 169.853C241.893 169.517 241.941 169.157 241.941 168.797V163.085H240.117V179.141H241.941V172.493C241.941 170.165 243.237 168.605 245.229 168.605C247.461 168.605 248.421 170.093 248.421 172.733C248.421 174.269 248.421 179.141 248.421 179.141H250.245ZM257.651 168.605C259.787 168.605 261.059 170.213 261.275 172.397H254.003C254.219 170.213 255.515 168.605 257.651 168.605ZM263.171 173.765C263.195 173.597 263.219 173.405 263.219 173.213C263.219 169.541 260.963 166.925 257.651 166.925C254.339 166.925 252.083 169.541 252.083 173.213C252.083 176.885 254.339 179.501 257.651 179.501C260.315 179.501 262.259 177.797 262.955 175.253L261.083 174.917C260.675 176.621 259.475 177.821 257.651 177.821C255.419 177.821 254.123 176.069 254.003 173.765H263.171ZM266.996 179.141V173.309C266.996 171.317 267.932 168.701 268.892 168.701C269.54 168.701 269.732 169.565 269.732 170.237V171.557H271.58V169.853C271.58 168.077 271.004 166.925 269.612 166.925C268.892 166.925 268.292 167.453 267.86 168.077C267.428 168.677 267.188 169.373 267.116 169.781C267.092 169.853 266.996 170.429 266.972 170.501L266.9 170.957H266.876L266.924 170.645C266.972 170.261 266.996 169.901 266.996 169.517V167.285H265.172V179.141H266.996ZM282.841 177.461C282.769 177.461 282.721 177.389 282.721 177.317V168.821H284.809V167.261H282.721V163.061H281.041C281.041 163.085 281.041 165.125 281.041 166.565C281.041 166.997 280.705 167.333 280.273 167.333H279.049V168.821H280.873C280.873 171.773 280.873 177.749 280.873 177.989C280.873 178.613 281.377 179.117 282.001 179.117H285.337V177.461H282.841ZM287.774 173.213C287.774 170.573 289.142 168.605 291.518 168.605C293.87 168.605 295.238 170.573 295.238 173.213C295.238 175.853 293.87 177.821 291.518 177.821C289.142 177.821 287.774 175.853 287.774 173.213ZM297.086 173.213C297.086 169.541 294.83 166.925 291.518 166.925C288.206 166.925 285.95 169.541 285.95 173.213C285.95 176.885 288.206 179.501 291.518 179.501C294.83 179.501 297.086 176.885 297.086 173.213ZM314.694 169.253C314.046 167.501 312.702 166.925 311.214 166.925C309.654 166.925 308.742 167.645 308.19 168.389C307.878 168.773 307.686 169.205 307.566 169.613L307.398 170.189L307.35 170.165L307.446 169.853C307.542 169.517 307.59 169.157 307.59 168.797V167.285H305.766V179.141H307.59V172.493C307.59 170.165 308.694 168.605 310.542 168.605C312.126 168.605 313.326 169.517 313.326 172.493C313.326 174.005 313.326 179.141 313.326 179.141H315.174V172.493C315.174 170.165 316.254 168.605 318.126 168.605C319.71 168.605 320.91 169.709 320.91 172.373C320.91 173.885 320.91 179.141 320.91 179.141H322.758V171.869C322.758 168.389 320.886 166.925 318.606 166.925C316.662 166.925 315.654 168.125 315.222 168.893C315.006 169.277 314.862 169.661 314.814 169.901C314.79 169.949 314.742 170.189 314.742 170.189L314.718 170.165L314.742 169.997C314.814 169.709 314.79 169.469 314.694 169.253ZM332.447 174.245C332.447 176.237 331.151 177.869 328.775 177.869C327.431 177.869 326.567 177.125 326.447 176.093C326.327 175.013 326.951 173.957 328.487 173.669C329.327 173.525 330.767 173.237 331.319 173.117C332.231 172.949 332.447 172.661 332.447 172.661V174.245ZM335.255 177.581H334.415C334.343 177.581 334.295 177.533 334.295 177.461V171.413C334.319 168.605 332.735 166.925 329.711 166.925C328.127 166.925 326.783 167.453 325.943 168.413C325.151 169.301 324.911 170.429 325.151 171.533L326.951 171.269C326.831 170.693 326.855 169.973 327.311 169.397C327.695 168.941 328.415 168.461 329.687 168.461C331.439 168.461 332.375 169.421 332.375 170.597C332.375 171.077 332.159 171.389 331.751 171.557C331.391 171.701 330.743 171.797 329.903 171.965C329.255 172.109 328.127 172.349 327.359 172.565C325.175 173.165 324.551 174.629 324.599 176.141C324.623 177.869 325.991 179.501 328.463 179.501C330.071 179.501 331.271 178.877 332.039 177.941C332.399 177.485 332.639 176.885 332.759 176.285C332.783 176.237 332.855 175.877 332.855 175.877H332.879L332.855 176.045C332.783 176.405 332.759 176.765 332.735 177.125C332.735 177.269 332.735 177.821 332.735 178.253C332.735 178.757 333.095 179.141 333.647 179.141H335.255V177.581ZM344.038 171.173L346.558 167.285H344.35C344.35 167.285 339.43 174.917 339.286 175.133C339.094 175.445 338.974 175.805 338.974 176.189L338.95 176.549H338.902V163.085H337.078V179.141H338.878L342.382 173.717L345.286 179.141H347.326L343.966 172.733C343.702 172.229 343.726 171.629 344.038 171.173ZM352.736 168.605C354.872 168.605 356.144 170.213 356.36 172.397H349.088C349.304 170.213 350.6 168.605 352.736 168.605ZM358.256 173.765C358.28 173.597 358.304 173.405 358.304 173.213C358.304 169.541 356.048 166.925 352.736 166.925C349.424 166.925 347.168 169.541 347.168 173.213C347.168 176.885 349.424 179.501 352.736 179.501C355.4 179.501 357.344 177.797 358.04 175.253L356.168 174.917C355.76 176.621 354.56 177.821 352.736 177.821C350.504 177.821 349.208 176.069 349.088 173.765H358.256ZM89.5736 200.045C89.5736 197.549 87.2696 196.853 85.3496 196.373C84.3176 196.109 82.3736 195.677 82.3736 194.213C82.3736 193.325 83.0936 192.461 84.8696 192.461C86.8376 192.461 87.4376 193.541 87.4376 194.741H89.1416C89.1416 192.797 88.0376 190.925 84.8216 190.925C81.7736 190.925 80.5256 192.413 80.5256 194.045C80.5256 196.181 82.1576 197.045 84.4136 197.597C86.6456 198.125 87.7256 198.773 87.7256 199.949C87.7256 201.245 86.5976 201.941 85.0376 201.941C82.4456 201.941 82.0856 200.093 82.0856 199.349H80.2616C80.2616 201.341 81.5336 203.477 85.1096 203.477C88.2296 203.477 89.5736 201.917 89.5736 200.045ZM91.4023 191.285V198.053C91.4023 201.557 92.9383 203.477 95.8663 203.477C98.1703 203.477 99.2263 202.061 99.6103 201.125L99.8983 200.237L99.9223 200.261L99.8503 200.549C99.7543 200.909 99.7063 201.245 99.7063 201.605V203.117H101.53V191.285H99.7063V197.933C99.7063 200.261 98.3863 201.821 96.4183 201.821C94.1863 201.821 93.2263 200.333 93.2263 197.693C93.2263 196.157 93.2263 191.285 93.2263 191.285H91.4023ZM105.816 203.141V197.309C105.816 195.317 106.752 192.701 107.712 192.701C108.36 192.701 108.552 193.565 108.552 194.237V195.557H110.4V193.853C110.4 192.077 109.824 190.925 108.432 190.925C107.712 190.925 107.112 191.453 106.68 192.077C106.248 192.677 106.008 193.373 105.936 193.781C105.912 193.853 105.816 194.429 105.792 194.501L105.72 194.957H105.696L105.744 194.645C105.792 194.261 105.816 193.901 105.816 193.517V191.285H103.992V203.141H105.816ZM117.19 192.605C119.326 192.605 120.598 194.213 120.814 196.397H113.542C113.758 194.213 115.054 192.605 117.19 192.605ZM122.71 197.765C122.734 197.597 122.758 197.405 122.758 197.213C122.758 193.541 120.502 190.925 117.19 190.925C113.878 190.925 111.622 193.541 111.622 197.213C111.622 200.885 113.878 203.501 117.19 203.501C119.854 203.501 121.798 201.797 122.494 199.253L120.622 198.917C120.214 200.621 119.014 201.821 117.19 201.821C114.958 201.821 113.662 200.069 113.542 197.765H122.71ZM145.863 191.285L143.079 199.661C142.983 199.925 142.935 200.189 142.935 200.477V200.885H142.887V200.477C142.887 200.189 142.863 199.925 142.767 199.661L139.983 191.285H138.159L135.375 199.661C135.303 199.925 135.255 200.189 135.255 200.477V200.885H135.207V200.477C135.207 200.189 135.159 199.925 135.087 199.661L132.303 191.285H130.407L134.223 203.141H136.047L138.927 194.597C138.999 194.333 139.047 194.045 139.047 193.757V193.421H139.095V193.757C139.095 194.045 139.143 194.333 139.239 194.597L142.095 203.141H143.919L147.759 191.285H145.863ZM153.494 192.605C155.63 192.605 156.902 194.213 157.118 196.397H149.846C150.062 194.213 151.358 192.605 153.494 192.605ZM159.014 197.765C159.038 197.597 159.062 197.405 159.062 197.213C159.062 193.541 156.806 190.925 153.494 190.925C150.182 190.925 147.926 193.541 147.926 197.213C147.926 200.885 150.182 203.501 153.494 203.501C156.158 203.501 158.102 201.797 158.798 199.253L156.926 198.917C156.518 200.621 155.318 201.821 153.494 201.821C151.262 201.821 149.966 200.069 149.846 197.765H159.014ZM167.527 191.285V198.053C167.527 201.557 169.063 203.477 171.991 203.477C174.295 203.477 175.351 202.061 175.735 201.125L176.023 200.237L176.047 200.261L175.975 200.549C175.879 200.909 175.831 201.245 175.831 201.605V203.117H177.655V191.285H175.831V197.933C175.831 200.261 174.511 201.821 172.543 201.821C170.311 201.821 169.351 200.333 169.351 197.693C169.351 196.157 169.351 191.285 169.351 191.285H167.527ZM190.245 196.373C190.245 192.869 188.565 190.925 185.781 190.925C184.173 190.925 183.117 191.645 182.517 192.389C182.229 192.749 182.061 193.181 181.941 193.565L181.749 194.189L181.701 194.165L181.797 193.853C181.893 193.517 181.941 193.157 181.941 192.797V191.285H180.117V203.141H181.941V196.493C181.941 194.165 183.237 192.605 185.229 192.605C187.317 192.605 188.421 194.093 188.421 196.733C188.421 198.269 188.421 203.141 188.421 203.141H190.245V196.373ZM193.883 197.213C193.883 194.549 195.251 192.581 197.627 192.581C199.979 192.581 201.203 194.549 201.203 197.213C201.203 199.853 200.003 201.821 197.627 201.821C195.251 201.821 193.883 199.853 193.883 197.213ZM201.275 187.061V193.157C201.275 193.517 201.323 193.877 201.419 194.213L201.515 194.525H201.491L201.203 193.661C200.891 192.629 200.003 190.925 197.291 190.925C194.147 190.925 192.059 193.541 192.059 197.213C192.059 200.861 194.123 203.477 197.291 203.477C200.003 203.477 200.915 201.749 201.227 200.717L201.491 199.877H201.515L201.419 200.189C201.323 200.525 201.275 200.885 201.275 201.245V203.141H203.123V187.061H201.275ZM210.682 192.605C212.818 192.605 214.09 194.213 214.306 196.397H207.034C207.25 194.213 208.546 192.605 210.682 192.605ZM216.202 197.765C216.226 197.597 216.25 197.405 216.25 197.213C216.25 193.541 213.994 190.925 210.682 190.925C207.37 190.925 205.114 193.541 205.114 197.213C205.114 200.885 207.37 203.501 210.682 203.501C213.346 203.501 215.29 201.797 215.986 199.253L214.114 198.917C213.706 200.621 212.506 201.821 210.682 201.821C208.45 201.821 207.154 200.069 207.034 197.765H216.202ZM220.027 203.141V197.309C220.027 195.317 220.963 192.701 221.923 192.701C222.571 192.701 222.763 193.565 222.763 194.237V195.557H224.611V193.853C224.611 192.077 224.035 190.925 222.643 190.925C221.923 190.925 221.323 191.453 220.891 192.077C220.459 192.677 220.219 193.373 220.147 193.781C220.123 193.853 220.027 194.429 220.003 194.501L219.931 194.957H219.907L219.955 194.645C220.003 194.261 220.027 193.901 220.027 193.517V191.285H218.203V203.141H220.027ZM235.121 200.045C235.121 197.549 232.817 196.853 230.897 196.373C229.865 196.109 227.921 195.677 227.921 194.213C227.921 193.325 228.641 192.461 230.417 192.461C232.385 192.461 232.985 193.541 232.985 194.741H234.689C234.689 192.797 233.585 190.925 230.369 190.925C227.321 190.925 226.073 192.413 226.073 194.045C226.073 196.181 227.705 197.045 229.961 197.597C232.193 198.125 233.273 198.773 233.273 199.949C233.273 201.245 232.145 201.941 230.585 201.941C227.993 201.941 227.633 200.093 227.633 199.349H225.809C225.809 201.341 227.081 203.477 230.657 203.477C233.777 203.477 235.121 201.917 235.121 200.045ZM239.997 201.461C239.925 201.461 239.877 201.389 239.877 201.317V192.821H241.965V191.261H239.877V187.061H238.197C238.197 187.085 238.197 189.125 238.197 190.565C238.197 190.997 237.861 191.333 237.429 191.333H236.205V192.821H238.029C238.029 195.773 238.029 201.749 238.029 201.989C238.029 202.613 238.533 203.117 239.157 203.117H242.493V201.461H239.997ZM251.517 198.245C251.517 200.237 250.221 201.869 247.845 201.869C246.501 201.869 245.637 201.125 245.517 200.093C245.397 199.013 246.021 197.957 247.557 197.669C248.397 197.525 249.837 197.237 250.389 197.117C251.301 196.949 251.517 196.661 251.517 196.661V198.245ZM254.325 201.581H253.485C253.413 201.581 253.365 201.533 253.365 201.461V195.413C253.389 192.605 251.805 190.925 248.781 190.925C247.197 190.925 245.853 191.453 245.013 192.413C244.221 193.301 243.981 194.429 244.221 195.533L246.021 195.269C245.901 194.693 245.925 193.973 246.381 193.397C246.765 192.941 247.485 192.461 248.757 192.461C250.509 192.461 251.445 193.421 251.445 194.597C251.445 195.077 251.229 195.389 250.821 195.557C250.461 195.701 249.813 195.797 248.973 195.965C248.325 196.109 247.197 196.349 246.429 196.565C244.245 197.165 243.621 198.629 243.669 200.141C243.693 201.869 245.061 203.501 247.533 203.501C249.141 203.501 250.341 202.877 251.109 201.941C251.469 201.485 251.709 200.885 251.829 200.285C251.853 200.237 251.925 199.877 251.925 199.877H251.949L251.925 200.045C251.853 200.405 251.829 200.765 251.805 201.125C251.805 201.269 251.805 201.821 251.805 202.253C251.805 202.757 252.165 203.141 252.717 203.141H254.325V201.581ZM266.276 196.373C266.276 192.869 264.596 190.925 261.812 190.925C260.204 190.925 259.148 191.645 258.548 192.389C258.26 192.749 258.092 193.181 257.972 193.565L257.78 194.189L257.732 194.165L257.828 193.853C257.924 193.517 257.972 193.157 257.972 192.797V191.285H256.148V203.141H257.972V196.493C257.972 194.165 259.268 192.605 261.26 192.605C263.348 192.605 264.452 194.093 264.452 196.733C264.452 198.269 264.452 203.141 264.452 203.141H266.276V196.373ZM269.914 197.213C269.914 194.549 271.282 192.581 273.658 192.581C276.01 192.581 277.234 194.549 277.234 197.213C277.234 199.853 276.034 201.821 273.658 201.821C271.282 201.821 269.914 199.853 269.914 197.213ZM277.306 187.061V193.157C277.306 193.517 277.354 193.877 277.45 194.213L277.546 194.525H277.522L277.234 193.661C276.922 192.629 276.034 190.925 273.322 190.925C270.178 190.925 268.09 193.541 268.09 197.213C268.09 200.861 270.154 203.477 273.322 203.477C276.034 203.477 276.946 201.749 277.258 200.717L277.522 199.877H277.546L277.45 200.189C277.354 200.525 277.306 200.885 277.306 201.245V203.141H279.154V187.061H277.306ZM293.393 192.605C295.529 192.605 296.801 194.213 297.017 196.397H289.745C289.961 194.213 291.257 192.605 293.393 192.605ZM298.913 197.765C298.937 197.597 298.961 197.405 298.961 197.213C298.961 193.541 296.705 190.925 293.393 190.925C290.081 190.925 287.825 193.541 287.825 197.213C287.825 200.885 290.081 203.501 293.393 203.501C296.057 203.501 298.001 201.797 298.697 199.253L296.825 198.917C296.417 200.621 295.217 201.821 293.393 201.821C291.161 201.821 289.865 200.069 289.745 197.765H298.913ZM310.169 191.285H308.081L304.913 195.797C304.817 195.941 304.793 196.085 304.793 196.253V196.613H304.745V196.253C304.745 196.085 304.697 195.941 304.625 195.797L301.433 191.285H299.369L302.897 196.517C303.137 196.949 303.137 197.453 302.897 197.885L299.369 203.141H301.433L304.625 198.629C304.697 198.461 304.745 198.317 304.745 198.149V197.765H304.793V198.149C304.793 198.317 304.817 198.461 304.913 198.629L308.081 203.141H310.169L306.617 197.885C306.377 197.453 306.377 196.949 306.617 196.517L310.169 191.285ZM318.923 198.245C318.923 200.237 317.627 201.869 315.251 201.869C313.907 201.869 313.043 201.125 312.923 200.093C312.803 199.013 313.427 197.957 314.963 197.669C315.803 197.525 317.243 197.237 317.795 197.117C318.707 196.949 318.923 196.661 318.923 196.661V198.245ZM321.731 201.581H320.891C320.819 201.581 320.771 201.533 320.771 201.461V195.413C320.795 192.605 319.211 190.925 316.187 190.925C314.603 190.925 313.259 191.453 312.419 192.413C311.627 193.301 311.387 194.429 311.627 195.533L313.427 195.269C313.307 194.693 313.331 193.973 313.787 193.397C314.171 192.941 314.891 192.461 316.163 192.461C317.915 192.461 318.851 193.421 318.851 194.597C318.851 195.077 318.635 195.389 318.227 195.557C317.867 195.701 317.219 195.797 316.379 195.965C315.731 196.109 314.603 196.349 313.835 196.565C311.651 197.165 311.027 198.629 311.075 200.141C311.099 201.869 312.467 203.501 314.939 203.501C316.547 203.501 317.747 202.877 318.515 201.941C318.875 201.485 319.115 200.885 319.235 200.285C319.259 200.237 319.331 199.877 319.331 199.877H319.355L319.331 200.045C319.259 200.405 319.235 200.765 319.211 201.125C319.211 201.269 319.211 201.821 319.211 202.253C319.211 202.757 319.571 203.141 320.123 203.141H321.731V201.581ZM332.267 198.389C331.907 200.429 330.635 201.821 328.643 201.821C326.267 201.821 324.899 199.853 324.899 197.213C324.899 194.573 326.267 192.605 328.643 192.605C330.635 192.605 331.907 193.997 332.267 196.037L334.091 195.845C333.611 192.869 331.523 190.925 328.643 190.925C325.331 190.925 323.075 193.541 323.075 197.213C323.075 200.885 325.331 203.501 328.643 203.501C331.523 203.501 333.611 201.557 334.091 198.605L332.267 198.389ZM338.88 201.461C338.808 201.461 338.76 201.389 338.76 201.317V192.821H340.848V191.261H338.76V187.061H337.08C337.08 187.085 337.08 189.125 337.08 190.565C337.08 190.997 336.744 191.333 336.312 191.333H335.088V192.821H336.912C336.912 195.773 336.912 201.749 336.912 201.989C336.912 202.613 337.416 203.117 338.04 203.117H341.376V201.461H338.88ZM342.984 202.013C342.984 202.637 343.488 203.141 344.112 203.141H347.112V201.461H344.952C344.88 201.461 344.808 201.413 344.808 201.317V187.085H342.984C342.96 187.157 342.96 201.629 342.984 202.013ZM355.902 191.261L352.422 199.877C352.35 200.093 352.302 200.309 352.302 200.525V200.933H352.254V200.525C352.254 200.309 352.206 200.093 352.134 199.877L348.654 191.261H346.686L351.006 201.869C351.198 202.325 351.198 202.805 351.006 203.261L349.35 207.341H351.318L357.87 191.261H355.902ZM95.2376 215.285L92.4536 223.661C92.3576 223.925 92.3096 224.189 92.3096 224.477V224.885H92.2616V224.477C92.2616 224.189 92.2376 223.925 92.1416 223.661L89.3576 215.285H87.5336L84.7496 223.661C84.6776 223.925 84.6296 224.189 84.6296 224.477V224.885H84.5816V224.477C84.5816 224.189 84.5336 223.925 84.4616 223.661L81.6776 215.285H79.7816L83.5976 227.141H85.4216L88.3016 218.597C88.3736 218.333 88.4216 218.045 88.4216 217.757V217.421H88.4696V217.757C88.4696 218.045 88.5176 218.333 88.6136 218.597L91.4696 227.141H93.2936L97.1336 215.285H95.2376ZM108.214 227.141V220.373C108.214 216.869 106.654 214.925 103.75 214.925C102.43 214.925 101.47 215.453 100.846 216.053C100.342 216.509 100.054 217.085 99.8859 217.613L99.7179 218.189L99.6699 218.165L99.7659 217.853C99.8619 217.517 99.9099 217.157 99.9099 216.797V211.085H98.0859V227.141H99.9099V220.493C99.9099 218.165 101.206 216.605 103.198 216.605C105.43 216.605 106.39 218.093 106.39 220.733C106.39 222.269 106.39 227.141 106.39 227.141H108.214ZM117.923 222.245C117.923 224.237 116.627 225.869 114.251 225.869C112.907 225.869 112.043 225.125 111.923 224.093C111.803 223.013 112.427 221.957 113.963 221.669C114.803 221.525 116.243 221.237 116.795 221.117C117.707 220.949 117.923 220.661 117.923 220.661V222.245ZM120.731 225.581H119.891C119.819 225.581 119.771 225.533 119.771 225.461V219.413C119.795 216.605 118.211 214.925 115.187 214.925C113.603 214.925 112.259 215.453 111.419 216.413C110.627 217.301 110.387 218.429 110.627 219.533L112.427 219.269C112.307 218.693 112.331 217.973 112.787 217.397C113.171 216.941 113.891 216.461 115.163 216.461C116.915 216.461 117.851 217.421 117.851 218.597C117.851 219.077 117.635 219.389 117.227 219.557C116.867 219.701 116.219 219.797 115.379 219.965C114.731 220.109 113.603 220.349 112.835 220.565C110.651 221.165 110.027 222.629 110.075 224.141C110.099 225.869 111.467 227.501 113.939 227.501C115.547 227.501 116.747 226.877 117.515 225.941C117.875 225.485 118.115 224.885 118.235 224.285C118.259 224.237 118.331 223.877 118.331 223.877H118.355L118.331 224.045C118.259 224.405 118.235 224.765 118.211 225.125C118.211 225.269 118.211 225.821 118.211 226.253C118.211 226.757 118.571 227.141 119.123 227.141H120.731V225.581ZM124.919 225.461C124.847 225.461 124.799 225.389 124.799 225.317V216.821H126.887V215.261H124.799V211.061H123.119C123.119 211.085 123.119 213.125 123.119 214.565C123.119 214.997 122.783 215.333 122.351 215.333H121.127V216.821H122.951C122.951 219.773 122.951 225.749 122.951 225.989C122.951 226.613 123.455 227.117 124.079 227.117H127.415V225.461H124.919ZM143.887 215.261L140.407 223.877C140.335 224.093 140.287 224.309 140.287 224.525V224.933H140.239V224.525C140.239 224.309 140.191 224.093 140.119 223.877L136.639 215.261H134.671L138.991 225.869C139.183 226.325 139.183 226.805 138.991 227.261L137.335 231.341H139.303L145.855 215.261H143.887ZM147.407 221.213C147.407 218.573 148.775 216.605 151.151 216.605C153.503 216.605 154.871 218.573 154.871 221.213C154.871 223.853 153.503 225.821 151.151 225.821C148.775 225.821 147.407 223.853 147.407 221.213ZM156.719 221.213C156.719 217.541 154.463 214.925 151.151 214.925C147.839 214.925 145.583 217.541 145.583 221.213C145.583 224.885 147.839 227.501 151.151 227.501C154.463 227.501 156.719 224.885 156.719 221.213ZM158.551 215.285V222.053C158.551 225.557 160.087 227.477 163.015 227.477C165.319 227.477 166.375 226.061 166.759 225.125L167.047 224.237L167.071 224.261L166.999 224.549C166.903 224.909 166.855 225.245 166.855 225.605V227.117H168.679V215.285H166.855V221.933C166.855 224.261 165.535 225.821 163.567 225.821C161.335 225.821 160.375 224.333 160.375 221.693C160.375 220.157 160.375 215.285 160.375 215.285H158.551ZM171.909 210.701C171.477 210.797 171.141 211.157 171.117 211.613C171.117 211.757 171.141 211.925 171.213 212.069C171.285 212.189 171.237 212.285 171.189 212.357L170.301 213.293L171.189 214.157L172.869 212.357C173.109 212.093 173.157 211.757 173.085 211.445C172.941 210.917 172.437 210.605 171.909 210.701ZM175.66 227.141V221.309C175.66 219.317 176.596 216.701 177.556 216.701C178.204 216.701 178.396 217.565 178.396 218.237V219.557H180.244V217.853C180.244 216.077 179.668 214.925 178.276 214.925C177.556 214.925 176.956 215.453 176.524 216.077C176.092 216.677 175.852 217.373 175.78 217.781C175.756 217.853 175.66 218.429 175.636 218.501L175.564 218.957H175.54L175.588 218.645C175.636 218.261 175.66 217.901 175.66 217.517V215.285H173.836V227.141H175.66ZM187.033 216.605C189.169 216.605 190.441 218.213 190.657 220.397H183.385C183.601 218.213 184.897 216.605 187.033 216.605ZM192.553 221.765C192.577 221.597 192.601 221.405 192.601 221.213C192.601 217.541 190.345 214.925 187.033 214.925C183.721 214.925 181.465 217.541 181.465 221.213C181.465 224.885 183.721 227.501 187.033 227.501C189.697 227.501 191.641 225.797 192.337 223.253L190.465 222.917C190.057 224.621 188.857 225.821 187.033 225.821C184.801 225.821 183.505 224.069 183.385 221.765H192.553ZM201.21 226.013C201.21 226.637 201.714 227.141 202.338 227.141H205.338V225.461H203.178C203.106 225.461 203.034 225.413 203.034 225.317V211.085H201.21C201.186 211.157 201.186 225.629 201.21 226.013ZM207.688 221.213C207.688 218.573 209.056 216.605 211.432 216.605C213.784 216.605 215.152 218.573 215.152 221.213C215.152 223.853 213.784 225.821 211.432 225.821C209.056 225.821 207.688 223.853 207.688 221.213ZM217 221.213C217 217.541 214.744 214.925 211.432 214.925C208.12 214.925 205.864 217.541 205.864 221.213C205.864 224.885 208.12 227.501 211.432 227.501C214.744 227.501 217 224.885 217 221.213ZM220.344 221.213C220.344 218.573 221.712 216.605 224.088 216.605C226.44 216.605 227.808 218.573 227.808 221.213C227.808 223.853 226.44 225.821 224.088 225.821C221.712 225.821 220.344 223.853 220.344 221.213ZM229.656 221.213C229.656 217.541 227.4 214.925 224.088 214.925C220.776 214.925 218.52 217.541 218.52 221.213C218.52 224.885 220.776 227.501 224.088 227.501C227.4 227.501 229.656 224.885 229.656 221.213ZM238.616 219.173L241.136 215.285H238.928C238.928 215.285 234.008 222.917 233.864 223.133C233.672 223.445 233.552 223.805 233.552 224.189L233.528 224.549H233.48V211.085H231.656V227.141H233.456L236.96 221.717L239.864 227.141H241.904L238.544 220.733C238.28 220.229 238.304 219.629 238.616 219.173ZM243.398 227.141H245.246C245.246 224.117 245.246 215.333 245.246 215.285H243.398V227.141ZM244.31 213.605C244.886 213.605 245.342 213.149 245.342 212.597C245.342 212.021 244.886 211.565 244.31 211.565C243.758 211.565 243.302 212.021 243.302 212.597C243.302 213.149 243.758 213.605 244.31 213.605ZM257.839 220.373C257.839 216.869 256.159 214.925 253.375 214.925C251.767 214.925 250.711 215.645 250.111 216.389C249.823 216.749 249.655 217.181 249.535 217.565L249.343 218.189L249.295 218.165L249.391 217.853C249.487 217.517 249.535 217.157 249.535 216.797V215.285H247.711V227.141H249.535V220.493C249.535 218.165 250.831 216.605 252.823 216.605C254.911 216.605 256.015 218.093 256.015 220.733C256.015 222.269 256.015 227.141 256.015 227.141H257.839V220.373ZM264.963 225.821C262.587 225.821 261.219 223.853 261.219 221.213C261.219 218.573 262.587 216.605 264.963 216.605C267.315 216.605 268.539 218.573 268.539 221.213C268.539 223.853 267.339 225.821 264.963 225.821ZM270.459 225.341V215.285H268.611V217.157C268.611 217.517 268.659 217.877 268.755 218.237L268.851 218.525L268.827 218.549L268.539 217.661C268.227 216.653 267.339 214.925 264.627 214.925C261.483 214.925 259.395 217.565 259.395 221.213C259.395 224.861 261.459 227.501 264.627 227.501C267.339 227.501 268.251 225.773 268.563 224.741L268.827 223.877L268.851 223.901L268.755 224.213C268.683 224.477 268.635 224.765 268.635 225.053C268.635 225.125 268.611 225.773 268.611 225.845C268.611 226.949 269.211 227.645 269.211 228.461C269.211 229.613 268.275 229.829 267.219 229.805H261.315V231.365H267.867C270.099 231.365 271.107 230.501 271.107 228.749C271.107 227.285 270.459 226.949 270.459 225.341ZM282.608 216.941H284.984V215.261H282.464C282.464 215.261 282.296 214.133 282.296 213.581C282.296 213.005 282.632 212.621 283.088 212.621H284.096V211.061H282.416C281.144 211.061 280.592 211.949 280.592 212.933C280.592 213.653 280.736 214.421 280.88 214.829C280.928 215.021 281.072 215.165 281.24 215.261C281.312 215.309 281.528 215.429 281.6 215.429V215.477C281.552 215.477 281.408 215.429 281.36 215.405C281.048 215.333 280.712 215.261 280.4 215.261H278.696V216.941H280.76V227.117H282.608V216.941ZM287.516 221.213C287.516 218.573 288.884 216.605 291.26 216.605C293.612 216.605 294.98 218.573 294.98 221.213C294.98 223.853 293.612 225.821 291.26 225.821C288.884 225.821 287.516 223.853 287.516 221.213ZM296.828 221.213C296.828 217.541 294.572 214.925 291.26 214.925C287.948 214.925 285.692 217.541 285.692 221.213C285.692 224.885 287.948 227.501 291.26 227.501C294.572 227.501 296.828 224.885 296.828 221.213ZM300.418 227.141V221.309C300.418 219.317 301.354 216.701 302.314 216.701C302.962 216.701 303.154 217.565 303.154 218.237V219.557H305.002V217.853C305.002 216.077 304.426 214.925 303.034 214.925C302.314 214.925 301.714 215.453 301.282 216.077C300.85 216.677 300.61 217.373 300.538 217.781C300.514 217.853 300.418 218.429 300.394 218.501L300.322 218.957H300.298L300.346 218.645C300.394 218.261 300.418 217.901 300.418 217.517V215.285H298.594V227.141H300.418ZM304.902 227.285C305.478 227.285 305.934 226.805 305.934 226.253C305.934 225.677 305.478 225.221 304.902 225.221C304.35 225.221 303.894 225.677 303.894 226.253C303.894 226.805 304.35 227.285 304.902 227.285Z" fill="#303030"/>
<path fill-rule="evenodd" clip-rule="evenodd" d="M421.168 86.27C422.73 84.7404 425.263 84.7404 426.825 86.27L435.621 94.8825C436.371 95.617 436.792 96.6133 436.792 97.652C436.792 98.6908 436.371 99.687 435.621 100.422L420.961 114.776C420.349 115.375 419.555 115.764 418.698 115.884L408.436 117.319C407.19 117.493 405.932 117.083 405.042 116.211C404.152 115.34 403.733 114.108 403.911 112.888L405.377 102.84C405.499 102.001 405.896 101.223 406.508 100.624L421.168 86.27ZM423.996 94.5784L413.108 105.24L412.585 108.826L416.247 108.314L427.135 97.652L423.996 94.5784Z" fill="#FFF6E9"/>
<path fill-rule="evenodd" clip-rule="evenodd" d="M427.032 80.5284C430.213 77.4134 435.371 77.4134 438.553 80.5284L441.485 83.3993C444.666 86.5143 444.666 91.5649 441.485 94.68C441.485 94.68 441.485 94.6799 441.485 94.68L435.621 100.422C434.871 101.156 433.853 101.569 432.792 101.569C431.732 101.569 430.714 101.156 429.964 100.422L421.168 91.8094C419.606 90.2799 419.606 87.8 421.168 86.2704L427.032 80.5284ZM432.689 86.0675C432.689 86.0675 432.689 86.0674 432.689 86.0675L429.653 89.0398L432.792 92.1134L435.828 89.1411C435.885 89.0851 435.885 88.9943 435.828 88.9383L432.896 86.0675C432.839 86.0115 432.746 86.0116 432.689 86.0675Z" fill="#FFF6E9"/>
<path fill-rule="evenodd" clip-rule="evenodd" d="M403.87 58.6087H383.87V50.7754H403.87V58.6087Z" fill="#303030"/>
<path fill-rule="evenodd" clip-rule="evenodd" d="M411.87 78.1922H383.87V70.3589H411.87V78.1922Z" fill="#303030"/>
<path fill-rule="evenodd" clip-rule="evenodd" d="M395.87 97.7755H383.87V89.9421H395.87V97.7755Z" fill="#303030"/>
<path fill-rule="evenodd" clip-rule="evenodd" d="M383.87 39.0255C379.452 39.0255 375.87 42.5326 375.87 46.8588V101.692C375.87 106.018 379.452 109.525 383.87 109.525H395.87V117.359H383.87C375.034 117.359 367.87 110.345 367.87 101.692V46.8588C367.87 38.2063 375.034 31.1921 383.87 31.1921H411.87C412.931 31.1921 413.949 31.6048 414.699 32.3393L438.699 55.8393C439.449 56.5738 439.87 57.57 439.87 58.6088V70.3588H431.87V60.2311L410.214 39.0255H383.87Z" fill="#303030"/>
<path fill-rule="evenodd" clip-rule="evenodd" d="M410.34 31.4904C411.834 30.8842 413.555 31.2193 414.699 32.3394L438.699 55.8394C439.843 56.9596 440.185 58.6442 439.566 60.1078C438.947 61.5713 437.488 62.5256 435.87 62.5256H423.87C415.034 62.5256 407.87 55.5114 407.87 46.8589V35.1089C407.87 33.5248 408.845 32.0966 410.34 31.4904ZM415.87 44.5646V46.8589C415.87 51.1851 419.452 54.6923 423.87 54.6923H426.214L415.87 44.5646Z" fill="#303030"/>
</svg>
