<svg width="475" height="300" viewBox="0 0 475 300" fill="none" xmlns="http://www.w3.org/2000/svg">
<rect y="0.462646" width="474.259" height="299" rx="10" fill="#C096D6"/>
<path d="M60.9511 56.2923C60.9511 52.3563 57.5911 50.9163 53.3031 49.7963C49.4951 48.8363 47.7351 47.8763 47.7351 45.7003C47.7351 43.8123 49.2711 42.3723 52.5671 42.3723C55.8631 42.3723 57.5271 44.1643 57.5271 46.9163H60.1511C60.1511 43.3003 58.1351 40.1003 52.5671 40.1003C47.3191 40.1003 45.1111 42.6283 45.1111 45.6683C45.1111 49.0603 47.3831 50.7883 52.1191 51.9403C56.4071 52.9963 58.2951 53.8923 58.2951 56.4523C58.2951 58.6603 56.3751 60.2283 53.0471 60.2283C49.2071 60.2283 47.2231 58.0843 47.2231 55.1723H44.5991C44.5991 59.1403 47.1591 62.4683 53.1111 62.4683C58.7751 62.4683 60.9511 59.4603 60.9511 56.2923ZM67.4244 59.7803C67.3284 59.7803 67.2644 59.6843 67.2644 59.5883V48.2603H70.0484V46.1803H67.2644V40.5803H65.0244C65.0244 40.6123 65.0244 43.3323 65.0244 45.2523C65.0244 45.8283 64.5764 46.2763 64.0004 46.2763H62.3684V48.2603H64.8004C64.8004 52.1963 64.8004 60.1643 64.8004 60.4843C64.8004 61.3163 65.4724 61.9883 66.3044 61.9883H70.7524V59.7803H67.4244ZM78.9934 47.9723C81.8414 47.9723 83.5374 50.1163 83.8254 53.0283H74.1294C74.4174 50.1163 76.1454 47.9723 78.9934 47.9723ZM86.3534 54.8523C86.3854 54.6283 86.4174 54.3723 86.4174 54.1163C86.4174 49.2203 83.4094 45.7323 78.9934 45.7323C74.5774 45.7323 71.5694 49.2203 71.5694 54.1163C71.5694 59.0123 74.5774 62.5003 78.9934 62.5003C82.5454 62.5003 85.1374 60.2283 86.0654 56.8363L83.5694 56.3883C83.0254 58.6603 81.4254 60.2603 78.9934 60.2603C76.0174 60.2603 74.2894 57.9243 74.1294 54.8523H86.3534ZM101.31 54.1163C101.31 57.6363 99.5179 60.2603 96.3499 60.2603C93.2139 60.2603 91.5819 57.6363 91.5819 54.1163C91.5819 50.5963 93.1819 47.9723 96.3499 47.9723C99.4859 47.9723 101.31 50.5963 101.31 54.1163ZM91.4539 59.5243C91.4539 59.0443 91.3899 58.5643 91.2619 58.1163L91.1339 57.7003L91.1979 57.6683L91.5499 58.8523C91.9659 60.1963 93.1819 62.5003 96.7979 62.5003C100.99 62.5003 103.774 59.0123 103.774 54.1163C103.774 49.2523 100.99 45.7323 96.7979 45.7323C93.1819 45.7323 91.9659 48.0363 91.5499 49.4443L91.1979 50.5643L91.1339 50.5323L91.2619 50.1483C91.3899 49.6683 91.4539 49.1883 91.4539 48.7083V46.2123H89.0219V67.6523H91.4539V59.5243ZM130.47 59.6523H117.734C117.734 59.6523 117.734 59.2363 117.734 58.9483C117.766 57.4443 118.438 56.1003 120.486 55.0123C121.318 54.5963 124.262 53.0923 125.222 52.6123C127.878 51.2683 130.246 49.8283 130.246 46.2123C130.246 43.0763 127.814 40.1003 123.014 40.1003C117.478 40.1003 115.174 43.3003 115.238 46.5323C115.27 48.1643 115.91 49.2523 116.198 49.8603L118.374 48.6763C118.118 48.1003 117.894 47.4283 117.862 46.6603C117.798 44.3883 119.462 42.3403 122.982 42.3403C125.734 42.3403 127.622 44.0043 127.622 46.3083C127.622 48.4843 126.054 49.5403 123.878 50.6923C123.174 51.0763 119.91 52.7083 118.854 53.2523C116.07 54.6923 114.758 56.8043 114.758 59.5243V61.9883H130.47V59.6523ZM133.496 62.2123C134.264 62.2123 134.872 61.5723 134.872 60.8363C134.872 60.0683 134.264 59.4603 133.496 59.4603C132.76 59.4603 132.152 60.0683 132.152 60.8363C132.152 61.5723 132.76 62.2123 133.496 62.2123ZM64.7511 80.2283H43.7511V86.0283H50.8711V106.988H57.5911V86.0283H64.7511V80.2283ZM84.9621 107.028V95.4283C84.9621 90.1883 82.6821 86.6683 78.0821 86.6683C76.3221 86.6683 75.1221 87.1883 74.2821 87.7883C73.2421 88.5883 72.8821 89.6283 72.6821 90.4283L72.4821 91.3483H72.4021L72.5221 90.9483C72.6421 90.2283 72.7221 89.4683 72.7221 88.7483V80.2683H66.6021V107.028H72.7221V96.8283C72.7221 93.9083 73.6821 92.1483 75.8021 92.1483C78.0021 92.1483 78.8021 93.8683 78.8021 96.9483C78.8021 97.5883 78.8021 107.028 78.8021 107.028H84.9621ZM97.2436 92.1483C98.9236 92.1483 100.084 93.2683 100.524 94.9483H93.9236C94.3636 93.2683 95.5236 92.1483 97.2436 92.1483ZM106.924 99.1483C107.004 98.5083 107.084 97.8683 107.084 97.1483C107.084 90.6283 102.884 86.6683 97.2436 86.6683C91.5636 86.6683 87.4036 90.6283 87.4036 97.1483C87.4036 103.708 91.5636 107.628 97.2436 107.628C101.524 107.628 104.964 105.348 106.364 101.388L100.124 100.268C99.5636 101.428 98.5636 102.148 97.2436 102.148C95.4836 102.148 94.2836 100.948 93.8836 99.1483H106.924ZM137.26 101.468C137.26 97.1083 133.54 95.9483 130.46 95.1083C128.9 94.6683 126.7 94.3483 126.7 93.0283C126.7 92.1883 127.3 91.5883 128.78 91.5883C130.3 91.5883 130.94 92.2683 130.94 93.1883L136.58 93.2283C136.58 89.1883 133.66 86.6683 128.5 86.6683C123.06 86.6683 120.54 89.3483 120.54 92.3083C120.54 96.6283 123.9 97.8683 126.98 98.7083C129.18 99.3083 131.06 99.7883 131.06 101.028C131.06 102.108 130.1 102.628 128.74 102.628C126.86 102.628 126.22 101.348 126.22 100.428H120.1C120.1 104.548 123.06 107.588 129.02 107.588C134.46 107.588 137.26 105.028 137.26 101.468ZM149.001 92.1483C150.681 92.1483 151.841 93.2683 152.281 94.9483H145.681C146.121 93.2683 147.281 92.1483 149.001 92.1483ZM158.681 99.1483C158.761 98.5083 158.841 97.8683 158.841 97.1483C158.841 90.6283 154.641 86.6683 149.001 86.6683C143.321 86.6683 139.161 90.6283 139.161 97.1483C139.161 103.708 143.321 107.628 149.001 107.628C153.281 107.628 156.721 105.348 158.121 101.388L151.881 100.268C151.321 101.428 150.321 102.148 149.001 102.148C147.241 102.148 146.041 100.948 145.641 99.1483H158.681ZM172.245 99.3483C172.245 100.868 170.925 102.388 168.805 102.388C167.605 102.388 166.965 101.828 166.885 101.068C166.845 100.228 167.405 99.5483 168.685 99.3083C169.685 99.1483 170.725 98.9083 171.245 98.7483C172.045 98.5883 172.285 98.3883 172.285 98.3883L172.245 99.3483ZM179.685 102.068H178.765C178.565 102.068 178.365 101.868 178.365 101.668V94.8283C178.445 89.7483 175.605 86.6683 170.125 86.6683C167.325 86.6683 165.045 87.4683 163.485 88.9483C161.805 90.5083 161.285 92.5083 161.525 94.4283L167.565 93.7483C167.485 93.2683 167.565 92.7083 167.885 92.3083C168.285 91.8283 169.085 91.5083 170.005 91.5483C171.405 91.5483 172.205 92.2683 172.205 93.1483C172.205 93.6683 171.925 93.9483 171.525 94.1483C171.085 94.3483 169.645 94.5883 168.165 94.9483C166.845 95.2683 165.045 95.7083 164.045 96.2283C161.605 97.3883 160.685 99.3483 160.725 101.828C160.725 104.988 163.325 107.628 167.405 107.628C170.245 107.588 171.965 106.348 172.845 104.748C173.085 104.308 173.325 103.508 173.485 102.868C173.525 102.588 173.565 102.268 173.565 102.268L173.645 102.308L173.605 102.588C173.525 102.948 173.485 103.308 173.445 103.668C173.445 103.948 173.405 104.428 173.405 104.828C173.405 106.068 174.245 106.988 175.725 107.028H179.685V102.068ZM188.464 98.3883C188.464 95.0683 189.144 92.5483 190.344 92.5483C191.224 92.5483 191.344 93.7483 191.344 94.7083V96.8283L197.504 96.7883V92.1883C197.504 89.3083 196.464 86.6683 193.224 86.6683C192.144 86.6683 191.064 87.1083 190.344 87.7883C189.424 88.6683 188.984 89.7483 188.744 90.4683C188.664 90.7883 188.544 91.3483 188.504 91.7083L188.344 92.7083H188.264L188.344 92.1883C188.424 91.5883 188.464 90.9483 188.464 90.3483V87.2683H182.344V107.028H188.464V98.3883ZM212.641 98.1083C212.401 100.668 211.041 102.148 209.041 102.148C206.761 102.148 205.321 100.228 205.321 97.1483C205.321 94.0683 206.761 92.1483 209.041 92.1483C211.041 92.1483 212.401 93.6683 212.641 96.1883L218.761 95.6283C218.201 89.9883 214.241 86.6683 209.041 86.6683C203.361 86.6683 199.201 90.6283 199.201 97.1483C199.201 103.708 203.361 107.628 209.041 107.628C214.241 107.628 218.201 104.348 218.761 98.7083L212.641 98.1083ZM239.767 107.028V95.4283C239.767 90.1883 237.487 86.6683 232.887 86.6683C231.127 86.6683 229.927 87.1883 229.087 87.7883C228.047 88.5883 227.687 89.6283 227.487 90.4283L227.287 91.3483H227.207L227.327 90.9483C227.447 90.2283 227.527 89.4683 227.527 88.7483V80.2683H221.407V107.028H227.527V96.8283C227.527 93.9083 228.487 92.1483 230.607 92.1483C232.807 92.1483 233.607 93.8683 233.607 96.9483C233.607 97.5883 233.607 107.028 233.607 107.028H239.767Z" fill="#FFF6E9"/>
<path d="M97.3671 163.523L93.9111 175.403C93.7911 175.763 93.7431 176.123 93.7431 176.459V176.843H93.7191V176.483C93.7191 176.123 93.6471 175.763 93.5511 175.427L89.9751 163.523H88.2951L84.7191 175.427C84.5991 175.763 84.5511 176.123 84.5511 176.483V176.843H84.5031V176.459C84.5031 176.123 84.4551 175.763 84.3591 175.403L80.8791 163.523H78.8391L83.5431 179.603H85.4631L88.9671 167.915C89.0631 167.555 89.1111 167.219 89.1111 166.859V166.403H89.1591V166.859C89.1591 167.219 89.2071 167.555 89.3031 167.915L92.8071 179.603H94.7271L99.4311 163.523H97.3671ZM104.343 169.067C106.479 169.067 107.751 170.675 107.967 172.859H100.695C100.911 170.675 102.207 169.067 104.343 169.067ZM109.863 174.227C109.887 174.059 109.911 173.867 109.911 173.675C109.911 170.003 107.655 167.387 104.343 167.387C101.031 167.387 98.7745 170.003 98.7745 173.675C98.7745 177.347 101.031 179.963 104.343 179.963C107.007 179.963 108.951 178.259 109.647 175.715L107.775 175.379C107.367 177.083 106.167 178.283 104.343 178.283C102.111 178.283 100.815 176.531 100.695 174.227H109.863ZM111.905 163.163C111.473 163.259 111.137 163.619 111.113 164.075C111.113 164.219 111.137 164.387 111.209 164.531C111.281 164.651 111.233 164.747 111.185 164.819L110.297 165.755L111.185 166.619L112.865 164.819C113.105 164.555 113.153 164.219 113.081 163.907C112.937 163.379 112.433 163.067 111.905 163.163ZM114.77 178.475C114.77 179.099 115.274 179.603 115.898 179.603H118.898V177.923H116.738C116.666 177.923 116.594 177.875 116.594 177.779V163.547H114.77C114.746 163.619 114.746 178.091 114.77 178.475ZM120.418 178.475C120.418 179.099 120.922 179.603 121.546 179.603H124.546V177.923H122.386C122.314 177.923 122.242 177.875 122.242 177.779V163.547H120.418C120.394 163.619 120.394 178.091 120.418 178.475ZM134.114 173.675C134.114 171.011 135.482 169.043 137.858 169.043C140.21 169.043 141.434 171.011 141.434 173.675C141.434 176.315 140.234 178.283 137.858 178.283C135.482 178.283 134.114 176.315 134.114 173.675ZM141.506 163.523V169.619C141.506 169.979 141.554 170.339 141.65 170.675L141.746 170.987H141.722L141.434 170.123C141.122 169.091 140.234 167.387 137.522 167.387C134.378 167.387 132.29 170.003 132.29 173.675C132.29 177.323 134.354 179.939 137.522 179.939C140.234 179.939 141.146 178.211 141.458 177.179L141.722 176.339H141.746L141.65 176.651C141.554 176.987 141.506 177.347 141.506 177.707V179.603H143.354V163.523H141.506ZM147.649 179.603V173.771C147.649 171.779 148.585 169.163 149.545 169.163C150.193 169.163 150.385 170.027 150.385 170.699V172.019H152.233V170.315C152.233 168.539 151.657 167.387 150.265 167.387C149.545 167.387 148.945 167.915 148.513 168.539C148.081 169.139 147.841 169.835 147.769 170.243C147.745 170.315 147.649 170.891 147.625 170.963L147.553 171.419H147.529L147.577 171.107C147.625 170.723 147.649 170.363 147.649 169.979V167.747H145.825V179.603H147.649ZM161.326 174.707C161.326 176.699 160.03 178.331 157.654 178.331C156.31 178.331 155.446 177.587 155.326 176.555C155.206 175.475 155.83 174.419 157.366 174.131C158.206 173.987 159.646 173.699 160.198 173.579C161.11 173.411 161.326 173.123 161.326 173.123V174.707ZM164.134 178.043H163.294C163.222 178.043 163.174 177.995 163.174 177.923V171.875C163.198 169.067 161.614 167.387 158.59 167.387C157.006 167.387 155.662 167.915 154.822 168.875C154.03 169.763 153.79 170.891 154.03 171.995L155.83 171.731C155.71 171.155 155.734 170.435 156.19 169.859C156.574 169.403 157.294 168.923 158.566 168.923C160.318 168.923 161.254 169.883 161.254 171.059C161.254 171.539 161.038 171.851 160.63 172.019C160.27 172.163 159.622 172.259 158.782 172.427C158.134 172.571 157.006 172.811 156.238 173.027C154.054 173.627 153.43 175.091 153.478 176.603C153.502 178.331 154.87 179.963 157.342 179.963C158.95 179.963 160.15 179.339 160.918 178.403C161.278 177.947 161.518 177.347 161.638 176.747C161.662 176.699 161.734 176.339 161.734 176.339H161.758L161.734 176.507C161.662 176.867 161.638 177.227 161.614 177.587C161.614 177.731 161.614 178.283 161.614 178.715C161.614 179.219 161.974 179.603 162.526 179.603H164.134V178.043ZM179.891 167.747L177.107 176.123C177.011 176.387 176.963 176.651 176.963 176.939V177.347H176.915V176.939C176.915 176.651 176.891 176.387 176.795 176.123L174.011 167.747H172.187L169.403 176.123C169.331 176.387 169.283 176.651 169.283 176.939V177.347H169.235V176.939C169.235 176.651 169.187 176.387 169.115 176.123L166.331 167.747H164.435L168.251 179.603H170.075L172.955 171.059C173.027 170.795 173.075 170.507 173.075 170.219V169.883H173.123V170.219C173.123 170.507 173.171 170.795 173.267 171.059L176.123 179.603H177.947L181.787 167.747H179.891ZM191.302 173.675C191.302 171.035 192.67 169.067 195.046 169.067C197.398 169.067 198.766 171.035 198.766 173.675C198.766 176.315 197.398 178.283 195.046 178.283C192.67 178.283 191.302 176.315 191.302 173.675ZM200.614 173.675C200.614 170.003 198.358 167.387 195.046 167.387C191.734 167.387 189.478 170.003 189.478 173.675C189.478 177.347 191.734 179.963 195.046 179.963C198.358 179.963 200.614 177.347 200.614 173.675ZM212.508 172.835C212.508 169.331 210.828 167.387 208.044 167.387C206.436 167.387 205.38 168.107 204.78 168.851C204.492 169.211 204.324 169.643 204.204 170.027L204.012 170.651L203.964 170.627L204.06 170.315C204.156 169.979 204.204 169.619 204.204 169.259V167.747H202.38V179.603H204.204V172.955C204.204 170.627 205.5 169.067 207.492 169.067C209.58 169.067 210.684 170.555 210.684 173.195C210.684 174.731 210.684 179.603 210.684 179.603H212.508V172.835ZM222.825 173.675C222.825 171.035 224.193 169.067 226.569 169.067C228.921 169.067 230.289 171.035 230.289 173.675C230.289 176.315 228.921 178.283 226.569 178.283C224.193 178.283 222.825 176.315 222.825 173.675ZM232.137 173.675C232.137 170.003 229.881 167.387 226.569 167.387C223.257 167.387 221.001 170.003 221.001 173.675C221.001 177.347 223.257 179.963 226.569 179.963C229.881 179.963 232.137 177.347 232.137 173.675ZM233.969 167.747V174.515C233.969 178.019 235.505 179.939 238.433 179.939C240.737 179.939 241.793 178.523 242.177 177.587L242.465 176.699L242.489 176.723L242.417 177.011C242.321 177.371 242.273 177.707 242.273 178.067V179.579H244.097V167.747H242.273V174.395C242.273 176.723 240.953 178.283 238.985 178.283C236.753 178.283 235.793 176.795 235.793 174.155C235.793 172.619 235.793 167.747 235.793 167.747H233.969ZM248.383 179.603V173.771C248.383 171.779 249.319 169.163 250.279 169.163C250.927 169.163 251.119 170.027 251.119 170.699V172.019H252.967V170.315C252.967 168.539 252.391 167.387 250.999 167.387C250.279 167.387 249.679 167.915 249.247 168.539C248.815 169.139 248.575 169.835 248.503 170.243C248.479 170.315 248.383 170.891 248.359 170.963L248.287 171.419H248.263L248.311 171.107C248.359 170.723 248.383 170.363 248.383 169.979V167.747H246.559V179.603H248.383ZM266.436 169.067C268.572 169.067 269.844 170.675 270.06 172.859H262.788C263.004 170.675 264.3 169.067 266.436 169.067ZM271.956 174.227C271.98 174.059 272.004 173.867 272.004 173.675C272.004 170.003 269.748 167.387 266.436 167.387C263.124 167.387 260.868 170.003 260.868 173.675C260.868 177.347 263.124 179.963 266.436 179.963C269.1 179.963 271.044 178.259 271.74 175.715L269.868 175.379C269.46 177.083 268.26 178.283 266.436 178.283C264.204 178.283 262.908 176.531 262.788 174.227H271.956ZM283.212 167.747H281.124L277.956 172.259C277.86 172.403 277.836 172.547 277.836 172.715V173.075H277.788V172.715C277.788 172.547 277.74 172.403 277.668 172.259L274.476 167.747H272.412L275.94 172.979C276.18 173.411 276.18 173.915 275.94 174.347L272.412 179.603H274.476L277.668 175.091C277.74 174.923 277.788 174.779 277.788 174.611V174.227H277.836V174.611C277.836 174.779 277.86 174.923 277.956 175.091L281.124 179.603H283.212L279.66 174.347C279.42 173.915 279.42 173.411 279.66 172.979L283.212 167.747ZM287.361 177.923C287.289 177.923 287.241 177.851 287.241 177.779V169.283H289.329V167.723H287.241V163.523H285.561C285.561 163.547 285.561 165.587 285.561 167.027C285.561 167.459 285.225 167.795 284.793 167.795H283.569V169.283H285.393C285.393 172.235 285.393 178.211 285.393 178.451C285.393 179.075 285.897 179.579 286.521 179.579H289.857V177.923H287.361ZM296.038 169.067C298.174 169.067 299.446 170.675 299.662 172.859H292.39C292.606 170.675 293.902 169.067 296.038 169.067ZM301.558 174.227C301.582 174.059 301.606 173.867 301.606 173.675C301.606 170.003 299.35 167.387 296.038 167.387C292.726 167.387 290.47 170.003 290.47 173.675C290.47 177.347 292.726 179.963 296.038 179.963C298.702 179.963 300.646 178.259 301.342 175.715L299.47 175.379C299.062 177.083 297.862 178.283 296.038 178.283C293.806 178.283 292.51 176.531 292.39 174.227H301.558ZM313.687 172.835C313.687 169.331 312.007 167.387 309.223 167.387C307.615 167.387 306.559 168.107 305.959 168.851C305.671 169.211 305.503 169.643 305.383 170.027L305.191 170.651L305.143 170.627L305.239 170.315C305.335 169.979 305.383 169.619 305.383 169.259V167.747H303.559V179.603H305.383V172.955C305.383 170.627 306.679 169.067 308.671 169.067C310.759 169.067 311.863 170.555 311.863 173.195C311.863 174.731 311.863 179.603 311.863 179.603H313.687V172.835ZM324.789 176.507C324.789 174.011 322.485 173.315 320.565 172.835C319.533 172.571 317.589 172.139 317.589 170.675C317.589 169.787 318.309 168.923 320.085 168.923C322.053 168.923 322.653 170.003 322.653 171.203H324.357C324.357 169.259 323.253 167.387 320.037 167.387C316.989 167.387 315.741 168.875 315.741 170.507C315.741 172.643 317.373 173.507 319.629 174.059C321.861 174.587 322.941 175.235 322.941 176.411C322.941 177.707 321.813 178.403 320.253 178.403C317.661 178.403 317.301 176.555 317.301 175.811H315.477C315.477 177.803 316.749 179.939 320.325 179.939C323.445 179.939 324.789 178.379 324.789 176.507ZM326.786 179.603H328.634C328.634 176.579 328.634 167.795 328.634 167.747H326.786V179.603ZM327.698 166.067C328.274 166.067 328.73 165.611 328.73 165.059C328.73 164.483 328.274 164.027 327.698 164.027C327.146 164.027 326.69 164.483 326.69 165.059C326.69 165.611 327.146 166.067 327.698 166.067ZM339.162 167.747L335.706 177.563C335.634 177.779 335.586 178.043 335.586 178.283V178.715H335.538V178.283C335.538 178.043 335.514 177.803 335.442 177.563L331.986 167.747H330.09L334.242 179.603H336.906L341.058 167.747H339.162ZM346.757 169.067C348.893 169.067 350.165 170.675 350.381 172.859H343.109C343.325 170.675 344.621 169.067 346.757 169.067ZM352.277 174.227C352.301 174.059 352.325 173.867 352.325 173.675C352.325 170.003 350.069 167.387 346.757 167.387C343.445 167.387 341.189 170.003 341.189 173.675C341.189 177.347 343.445 179.963 346.757 179.963C349.421 179.963 351.365 178.259 352.061 175.715L350.189 175.379C349.781 177.083 348.581 178.283 346.757 178.283C344.525 178.283 343.229 176.531 343.109 174.227H352.277ZM81.2391 197.675C81.2391 195.011 82.6071 193.043 84.9831 193.043C87.3351 193.043 88.5591 195.011 88.5591 197.675C88.5591 200.315 87.3591 202.283 84.9831 202.283C82.6071 202.283 81.2391 200.315 81.2391 197.675ZM88.6311 187.523V193.619C88.6311 193.979 88.6791 194.339 88.7751 194.675L88.8711 194.987H88.8471L88.5591 194.123C88.2471 193.091 87.3591 191.387 84.6471 191.387C81.5031 191.387 79.4151 194.003 79.4151 197.675C79.4151 201.323 81.4791 203.939 84.6471 203.939C87.3591 203.939 88.2711 202.211 88.5831 201.179L88.8471 200.339H88.8711L88.7751 200.651C88.6791 200.987 88.6311 201.347 88.6311 201.707V203.603H90.4791V187.523H88.6311ZM100.342 198.707C100.342 200.699 99.0458 202.331 96.6698 202.331C95.3258 202.331 94.4618 201.587 94.3418 200.555C94.2218 199.475 94.8458 198.419 96.3818 198.131C97.2218 197.987 98.6618 197.699 99.2138 197.579C100.126 197.411 100.342 197.123 100.342 197.123V198.707ZM103.15 202.043H102.31C102.238 202.043 102.19 201.995 102.19 201.923V195.875C102.214 193.067 100.63 191.387 97.6058 191.387C96.0218 191.387 94.6778 191.915 93.8378 192.875C93.0458 193.763 92.8058 194.891 93.0458 195.995L94.8458 195.731C94.7258 195.155 94.7498 194.435 95.2058 193.859C95.5898 193.403 96.3098 192.923 97.5818 192.923C99.3338 192.923 100.27 193.883 100.27 195.059C100.27 195.539 100.054 195.851 99.6458 196.019C99.2858 196.163 98.6378 196.259 97.7978 196.427C97.1498 196.571 96.0218 196.811 95.2538 197.027C93.0698 197.627 92.4458 199.091 92.4938 200.603C92.5178 202.331 93.8858 203.963 96.3578 203.963C97.9658 203.963 99.1658 203.339 99.9338 202.403C100.294 201.947 100.534 201.347 100.654 200.747C100.678 200.699 100.75 200.339 100.75 200.339H100.774L100.75 200.507C100.678 200.867 100.654 201.227 100.63 201.587C100.63 201.731 100.63 202.283 100.63 202.715C100.63 203.219 100.99 203.603 101.542 203.603H103.15V202.043ZM107.338 201.923C107.266 201.923 107.218 201.851 107.218 201.779V193.283H109.306V191.723H107.218V187.523H105.538C105.538 187.547 105.538 189.587 105.538 191.027C105.538 191.459 105.202 191.795 104.77 191.795H103.546V193.283H105.37C105.37 196.235 105.37 202.211 105.37 202.451C105.37 203.075 105.874 203.579 106.498 203.579H109.834V201.923H107.338ZM118.857 198.707C118.857 200.699 117.561 202.331 115.185 202.331C113.841 202.331 112.977 201.587 112.857 200.555C112.737 199.475 113.361 198.419 114.897 198.131C115.737 197.987 117.177 197.699 117.729 197.579C118.641 197.411 118.857 197.123 118.857 197.123V198.707ZM121.665 202.043H120.825C120.753 202.043 120.705 201.995 120.705 201.923V195.875C120.729 193.067 119.145 191.387 116.121 191.387C114.537 191.387 113.193 191.915 112.353 192.875C111.561 193.763 111.321 194.891 111.561 195.995L113.361 195.731C113.241 195.155 113.265 194.435 113.721 193.859C114.105 193.403 114.825 192.923 116.097 192.923C117.849 192.923 118.785 193.883 118.785 195.059C118.785 195.539 118.569 195.851 118.161 196.019C117.801 196.163 117.153 196.259 116.313 196.427C115.665 196.571 114.537 196.811 113.769 197.027C111.585 197.627 110.961 199.091 111.009 200.603C111.033 202.331 112.401 203.963 114.873 203.963C116.481 203.963 117.681 203.339 118.449 202.403C118.809 201.947 119.049 201.347 119.169 200.747C119.193 200.699 119.265 200.339 119.265 200.339H119.289L119.265 200.507C119.193 200.867 119.169 201.227 119.145 201.587C119.145 201.731 119.145 202.283 119.145 202.715C119.145 203.219 119.505 203.603 120.057 203.603H121.665V202.043ZM125.409 197.675C125.409 195.011 126.633 193.043 128.985 193.043C131.361 193.043 132.705 195.011 132.705 197.675C132.705 200.315 131.337 202.283 128.985 202.283C126.609 202.283 125.409 200.315 125.409 197.675ZM125.385 201.179C125.697 202.211 126.609 203.939 129.321 203.939C132.465 203.939 134.553 201.323 134.553 197.675C134.553 194.003 132.465 191.387 129.321 191.387C126.609 191.387 125.697 193.091 125.385 194.123L125.121 194.987H125.073L125.169 194.675C125.265 194.339 125.313 193.979 125.313 193.619V187.523H123.489V203.603H125.313V201.707C125.313 201.347 125.265 200.987 125.169 200.651L125.073 200.339H125.121L125.385 201.179ZM143.936 198.707C143.936 200.699 142.64 202.331 140.264 202.331C138.92 202.331 138.056 201.587 137.936 200.555C137.816 199.475 138.44 198.419 139.976 198.131C140.816 197.987 142.256 197.699 142.808 197.579C143.72 197.411 143.936 197.123 143.936 197.123V198.707ZM146.744 202.043H145.904C145.832 202.043 145.784 201.995 145.784 201.923V195.875C145.808 193.067 144.224 191.387 141.2 191.387C139.616 191.387 138.272 191.915 137.432 192.875C136.64 193.763 136.4 194.891 136.64 195.995L138.44 195.731C138.32 195.155 138.344 194.435 138.8 193.859C139.184 193.403 139.904 192.923 141.176 192.923C142.928 192.923 143.864 193.883 143.864 195.059C143.864 195.539 143.648 195.851 143.24 196.019C142.88 196.163 142.232 196.259 141.392 196.427C140.744 196.571 139.616 196.811 138.848 197.027C136.664 197.627 136.04 199.091 136.088 200.603C136.112 202.331 137.48 203.963 139.952 203.963C141.56 203.963 142.76 203.339 143.528 202.403C143.888 201.947 144.128 201.347 144.248 200.747C144.272 200.699 144.344 200.339 144.344 200.339H144.368L144.344 200.507C144.272 200.867 144.248 201.227 144.224 201.587C144.224 201.731 144.224 202.283 144.224 202.715C144.224 203.219 144.584 203.603 145.136 203.603H146.744V202.043ZM157.375 200.507C157.375 198.011 155.071 197.315 153.151 196.835C152.119 196.571 150.175 196.139 150.175 194.675C150.175 193.787 150.895 192.923 152.671 192.923C154.639 192.923 155.239 194.003 155.239 195.203H156.943C156.943 193.259 155.839 191.387 152.623 191.387C149.575 191.387 148.327 192.875 148.327 194.507C148.327 196.643 149.959 197.507 152.215 198.059C154.447 198.587 155.527 199.235 155.527 200.411C155.527 201.707 154.399 202.403 152.839 202.403C150.247 202.403 149.887 200.555 149.887 199.811H148.063C148.063 201.803 149.335 203.939 152.911 203.939C156.031 203.939 157.375 202.379 157.375 200.507ZM164.46 193.067C166.596 193.067 167.868 194.675 168.084 196.859H160.812C161.028 194.675 162.324 193.067 164.46 193.067ZM169.98 198.227C170.004 198.059 170.028 197.867 170.028 197.675C170.028 194.003 167.772 191.387 164.46 191.387C161.148 191.387 158.892 194.003 158.892 197.675C158.892 201.347 161.148 203.963 164.46 203.963C167.124 203.963 169.068 202.259 169.764 199.715L167.892 199.379C167.484 201.083 166.284 202.283 164.46 202.283C162.228 202.283 160.932 200.531 160.812 198.227H169.98ZM181.541 201.923C181.469 201.923 181.421 201.851 181.421 201.779V193.283H183.509V191.723H181.421V187.523H179.741C179.741 187.547 179.741 189.587 179.741 191.027C179.741 191.459 179.405 191.795 178.973 191.795H177.749V193.283H179.573C179.573 196.235 179.573 202.211 179.573 202.451C179.573 203.075 180.077 203.579 180.701 203.579H184.037V201.923H181.541ZM186.474 197.675C186.474 195.035 187.842 193.067 190.218 193.067C192.57 193.067 193.938 195.035 193.938 197.675C193.938 200.315 192.57 202.283 190.218 202.283C187.842 202.283 186.474 200.315 186.474 197.675ZM195.786 197.675C195.786 194.003 193.53 191.387 190.218 191.387C186.906 191.387 184.65 194.003 184.65 197.675C184.65 201.347 186.906 203.963 190.218 203.963C193.53 203.963 195.786 201.347 195.786 197.675ZM204.465 203.603H206.313C206.313 200.579 206.313 191.795 206.313 191.747H204.465V203.603ZM205.377 190.067C205.953 190.067 206.409 189.611 206.409 189.059C206.409 188.483 205.953 188.027 205.377 188.027C204.825 188.027 204.369 188.483 204.369 189.059C204.369 189.611 204.825 190.067 205.377 190.067ZM210.122 197.675C210.122 195.011 211.49 193.043 213.866 193.043C216.218 193.043 217.442 195.011 217.442 197.675C217.442 200.315 216.242 202.283 213.866 202.283C211.49 202.283 210.122 200.315 210.122 197.675ZM217.514 187.523V193.619C217.514 193.979 217.562 194.339 217.658 194.675L217.754 194.987H217.73L217.442 194.123C217.13 193.091 216.242 191.387 213.53 191.387C210.386 191.387 208.298 194.003 208.298 197.675C208.298 201.323 210.362 203.939 213.53 203.939C216.242 203.939 217.154 202.211 217.466 201.179L217.73 200.339H217.754L217.658 200.651C217.562 200.987 217.514 201.347 217.514 201.707V203.603H219.362V187.523H217.514ZM226.921 193.067C229.057 193.067 230.329 194.675 230.545 196.859H223.273C223.489 194.675 224.785 193.067 226.921 193.067ZM232.441 198.227C232.465 198.059 232.489 197.867 232.489 197.675C232.489 194.003 230.233 191.387 226.921 191.387C223.609 191.387 221.353 194.003 221.353 197.675C221.353 201.347 223.609 203.963 226.921 203.963C229.585 203.963 231.529 202.259 232.225 199.715L230.353 199.379C229.945 201.083 228.745 202.283 226.921 202.283C224.689 202.283 223.393 200.531 223.273 198.227H232.441ZM244.57 196.835C244.57 193.331 242.89 191.387 240.106 191.387C238.498 191.387 237.442 192.107 236.842 192.851C236.554 193.211 236.386 193.643 236.266 194.027L236.074 194.651L236.026 194.627L236.122 194.315C236.218 193.979 236.266 193.619 236.266 193.259V191.747H234.442V203.603H236.266V196.955C236.266 194.627 237.562 193.067 239.554 193.067C241.642 193.067 242.746 194.555 242.746 197.195C242.746 198.731 242.746 203.603 242.746 203.603H244.57V196.835ZM249.205 201.923C249.133 201.923 249.085 201.851 249.085 201.779V193.283H251.173V191.723H249.085V187.523H247.405C247.405 187.547 247.405 189.587 247.405 191.027C247.405 191.459 247.069 191.795 246.637 191.795H245.413V193.283H247.237C247.237 196.235 247.237 202.211 247.237 202.451C247.237 203.075 247.741 203.579 248.365 203.579H251.701V201.923H249.205ZM253.333 203.603H255.181C255.181 200.579 255.181 191.795 255.181 191.747H253.333V203.603ZM254.245 190.067C254.821 190.067 255.277 189.611 255.277 189.059C255.277 188.483 254.821 188.027 254.245 188.027C253.693 188.027 253.237 188.483 253.237 189.059C253.237 189.611 253.693 190.067 254.245 190.067ZM260.597 193.403H262.973V191.723H260.453C260.453 191.723 260.285 190.595 260.285 190.043C260.285 189.467 260.621 189.083 261.077 189.083H262.085V187.523H260.405C259.133 187.523 258.581 188.411 258.581 189.395C258.581 190.115 258.725 190.883 258.869 191.291C258.917 191.483 259.061 191.627 259.229 191.723C259.301 191.771 259.517 191.891 259.589 191.891V191.939C259.541 191.939 259.397 191.891 259.349 191.867C259.037 191.795 258.701 191.723 258.389 191.723H256.685V193.403H258.749V203.579H260.597V193.403ZM272.579 191.723L269.099 200.339C269.027 200.555 268.979 200.771 268.979 200.987V201.395H268.931V200.987C268.931 200.771 268.883 200.555 268.811 200.339L265.331 191.723H263.363L267.683 202.331C267.875 202.787 267.875 203.267 267.683 203.723L266.027 207.803H267.995L274.547 191.723H272.579ZM290.045 198.707C290.045 200.699 288.749 202.331 286.373 202.331C285.029 202.331 284.165 201.587 284.045 200.555C283.925 199.475 284.549 198.419 286.085 198.131C286.925 197.987 288.365 197.699 288.917 197.579C289.829 197.411 290.045 197.123 290.045 197.123V198.707ZM292.853 202.043H292.013C291.941 202.043 291.893 201.995 291.893 201.923V195.875C291.917 193.067 290.333 191.387 287.309 191.387C285.725 191.387 284.381 191.915 283.541 192.875C282.749 193.763 282.509 194.891 282.749 195.995L284.549 195.731C284.429 195.155 284.453 194.435 284.909 193.859C285.293 193.403 286.013 192.923 287.285 192.923C289.037 192.923 289.973 193.883 289.973 195.059C289.973 195.539 289.757 195.851 289.349 196.019C288.989 196.163 288.341 196.259 287.501 196.427C286.853 196.571 285.725 196.811 284.957 197.027C282.773 197.627 282.149 199.091 282.197 200.603C282.221 202.331 283.589 203.963 286.061 203.963C287.669 203.963 288.869 203.339 289.637 202.403C289.997 201.947 290.237 201.347 290.357 200.747C290.381 200.699 290.453 200.339 290.453 200.339H290.477L290.453 200.507C290.381 200.867 290.357 201.227 290.333 201.587C290.333 201.731 290.333 202.283 290.333 202.715C290.333 203.219 290.693 203.603 291.245 203.603H292.853V202.043ZM309.324 190.067C309.9 190.067 310.356 189.611 310.356 189.035C310.356 188.483 309.9 188.003 309.324 188.003C308.772 188.003 308.316 188.483 308.316 189.035C308.316 189.611 308.772 190.067 309.324 190.067ZM304.14 191.747C304.14 191.747 303.972 190.595 303.972 190.043C303.972 189.467 304.308 189.083 304.764 189.083H305.772V187.523H304.092C302.844 187.523 302.268 188.411 302.268 189.395C302.268 190.115 302.412 190.883 302.556 191.291C302.604 191.483 302.748 191.651 302.916 191.723C302.988 191.795 303.204 191.891 303.276 191.915V191.939C303.228 191.939 303.084 191.891 303.036 191.867C302.724 191.795 302.388 191.747 302.076 191.747H300.372V193.283H302.436V203.579H304.284V193.283H308.412V203.603H310.26C310.26 200.555 310.26 191.795 310.26 191.747H304.14ZM314.547 203.603V197.771C314.547 195.779 315.483 193.163 316.443 193.163C317.091 193.163 317.283 194.027 317.283 194.699V196.019H319.131V194.315C319.131 192.539 318.555 191.387 317.163 191.387C316.443 191.387 315.843 191.915 315.411 192.539C314.979 193.139 314.739 193.835 314.667 194.243C314.643 194.315 314.547 194.891 314.523 194.963L314.451 195.419H314.427L314.475 195.107C314.523 194.723 314.547 194.363 314.547 193.979V191.747H312.723V203.603H314.547ZM329.641 200.507C329.641 198.011 327.337 197.315 325.417 196.835C324.385 196.571 322.441 196.139 322.441 194.675C322.441 193.787 323.161 192.923 324.937 192.923C326.905 192.923 327.505 194.003 327.505 195.203H329.209C329.209 193.259 328.105 191.387 324.889 191.387C321.841 191.387 320.593 192.875 320.593 194.507C320.593 196.643 322.225 197.507 324.481 198.059C326.713 198.587 327.793 199.235 327.793 200.411C327.793 201.707 326.665 202.403 325.105 202.403C322.513 202.403 322.153 200.555 322.153 199.811H320.329C320.329 201.803 321.601 203.939 325.177 203.939C328.297 203.939 329.641 202.379 329.641 200.507ZM334.517 201.923C334.445 201.923 334.397 201.851 334.397 201.779V193.283H336.485V191.723H334.397V187.523H332.717C332.717 187.547 332.717 189.587 332.717 191.027C332.717 191.459 332.381 191.795 331.949 191.795H330.725V193.283H332.549C332.549 196.235 332.549 202.211 332.549 202.451C332.549 203.075 333.053 203.579 333.677 203.579H337.013V201.923H334.517ZM354.133 200.507C354.133 198.011 351.829 197.315 349.909 196.835C348.877 196.571 346.933 196.139 346.933 194.675C346.933 193.787 347.653 192.923 349.429 192.923C351.397 192.923 351.997 194.003 351.997 195.203H353.701C353.701 193.259 352.597 191.387 349.381 191.387C346.333 191.387 345.085 192.875 345.085 194.507C345.085 196.643 346.717 197.507 348.973 198.059C351.205 198.587 352.285 199.235 352.285 200.411C352.285 201.707 351.157 202.403 349.597 202.403C347.005 202.403 346.645 200.555 346.645 199.811H344.821C344.821 201.803 346.093 203.939 349.669 203.939C352.789 203.939 354.133 202.379 354.133 200.507ZM361.218 193.067C363.354 193.067 364.626 194.675 364.842 196.859H357.57C357.786 194.675 359.082 193.067 361.218 193.067ZM366.738 198.227C366.762 198.059 366.786 197.867 366.786 197.675C366.786 194.003 364.53 191.387 361.218 191.387C357.906 191.387 355.65 194.003 355.65 197.675C355.65 201.347 357.906 203.963 361.218 203.963C363.882 203.963 365.826 202.259 366.522 199.715L364.65 199.379C364.242 201.083 363.042 202.283 361.218 202.283C358.986 202.283 357.69 200.531 357.57 198.227H366.738ZM371.08 201.923C371.008 201.923 370.96 201.851 370.96 201.779V193.283H373.048V191.723H370.96V187.523H369.28C369.28 187.547 369.28 189.587 369.28 191.027C369.28 191.459 368.944 191.795 368.512 191.795H367.288V193.283H369.112C369.112 196.235 369.112 202.211 369.112 202.451C369.112 203.075 369.616 203.579 370.24 203.579H373.576V201.923H371.08ZM81.2391 221.675C81.2391 219.035 82.6071 217.067 84.9831 217.067C87.3351 217.067 88.7031 219.035 88.7031 221.675C88.7031 224.315 87.3351 226.283 84.9831 226.283C82.6071 226.283 81.2391 224.315 81.2391 221.675ZM90.5511 221.675C90.5511 218.003 88.2951 215.387 84.9831 215.387C81.6711 215.387 79.4151 218.003 79.4151 221.675C79.4151 225.347 81.6711 227.963 84.9831 227.963C88.2951 227.963 90.5511 225.347 90.5511 221.675ZM95.5034 217.403H97.8794V215.723H95.3594C95.3594 215.723 95.1914 214.595 95.1914 214.043C95.1914 213.467 95.5274 213.083 95.9834 213.083H96.9914V211.523H95.3114C94.0394 211.523 93.4874 212.411 93.4874 213.395C93.4874 214.115 93.6314 214.883 93.7754 215.291C93.8234 215.483 93.9674 215.627 94.1354 215.723C94.2074 215.771 94.4234 215.891 94.4954 215.891V215.939C94.4474 215.939 94.3034 215.891 94.2554 215.867C93.9434 215.795 93.6074 215.723 93.2954 215.723H91.5914V217.403H93.6554V227.579H95.5034V217.403ZM114.717 222.851C114.357 224.891 113.085 226.283 111.093 226.283C108.717 226.283 107.349 224.315 107.349 221.675C107.349 219.035 108.717 217.067 111.093 217.067C113.085 217.067 114.357 218.459 114.717 220.499L116.541 220.307C116.061 217.331 113.973 215.387 111.093 215.387C107.781 215.387 105.525 218.003 105.525 221.675C105.525 225.347 107.781 227.963 111.093 227.963C113.973 227.963 116.061 226.019 116.541 223.067L114.717 222.851ZM119.794 221.675C119.794 219.035 121.162 217.067 123.538 217.067C125.89 217.067 127.258 219.035 127.258 221.675C127.258 224.315 125.89 226.283 123.538 226.283C121.162 226.283 119.794 224.315 119.794 221.675ZM129.106 221.675C129.106 218.003 126.85 215.387 123.538 215.387C120.226 215.387 117.97 218.003 117.97 221.675C117.97 225.347 120.226 227.963 123.538 227.963C126.85 227.963 129.106 225.347 129.106 221.675ZM139.8 217.715C139.152 215.963 137.808 215.387 136.32 215.387C134.76 215.387 133.848 216.107 133.296 216.851C132.984 217.235 132.792 217.667 132.672 218.075L132.504 218.651L132.456 218.627L132.552 218.315C132.648 217.979 132.696 217.619 132.696 217.259V215.747H130.872V227.603H132.696V220.955C132.696 218.627 133.8 217.067 135.648 217.067C137.232 217.067 138.432 217.979 138.432 220.955C138.432 222.467 138.432 227.603 138.432 227.603H140.28V220.955C140.28 218.627 141.36 217.067 143.232 217.067C144.816 217.067 146.016 218.171 146.016 220.835C146.016 222.347 146.016 227.603 146.016 227.603H147.864V220.331C147.864 216.851 145.992 215.387 143.712 215.387C141.768 215.387 140.76 216.587 140.328 217.355C140.112 217.739 139.968 218.123 139.92 218.363C139.896 218.411 139.848 218.651 139.848 218.651L139.824 218.627L139.848 218.459C139.92 218.171 139.896 217.931 139.8 217.715ZM159.377 221.675C159.377 224.315 158.033 226.283 155.657 226.283C153.305 226.283 152.081 224.315 152.081 221.675C152.081 219.035 153.281 217.067 155.657 217.067C158.009 217.067 159.377 219.035 159.377 221.675ZM151.985 225.731C151.985 225.371 151.937 225.011 151.841 224.675L151.745 224.363L151.793 224.339L152.057 225.227C152.369 226.235 153.281 227.963 155.993 227.963C159.137 227.963 161.225 225.347 161.225 221.675C161.225 218.027 159.137 215.387 155.993 215.387C153.281 215.387 152.369 217.115 152.057 218.171L151.793 219.011L151.745 218.987L151.841 218.699C151.937 218.339 151.985 217.979 151.985 217.619V215.747H150.161V231.827H151.985V225.731ZM170.068 222.707C170.068 224.699 168.772 226.331 166.396 226.331C165.052 226.331 164.188 225.587 164.068 224.555C163.948 223.475 164.572 222.419 166.108 222.131C166.948 221.987 168.388 221.699 168.94 221.579C169.852 221.411 170.068 221.123 170.068 221.123V222.707ZM172.876 226.043H172.036C171.964 226.043 171.916 225.995 171.916 225.923V219.875C171.94 217.067 170.356 215.387 167.332 215.387C165.748 215.387 164.404 215.915 163.564 216.875C162.772 217.763 162.532 218.891 162.772 219.995L164.572 219.731C164.452 219.155 164.476 218.435 164.932 217.859C165.316 217.403 166.036 216.923 167.308 216.923C169.06 216.923 169.996 217.883 169.996 219.059C169.996 219.539 169.78 219.851 169.372 220.019C169.012 220.163 168.364 220.259 167.524 220.427C166.876 220.571 165.748 220.811 164.98 221.027C162.796 221.627 162.172 223.091 162.22 224.603C162.244 226.331 163.612 227.963 166.084 227.963C167.692 227.963 168.892 227.339 169.66 226.403C170.02 225.947 170.26 225.347 170.38 224.747C170.404 224.699 170.476 224.339 170.476 224.339H170.5L170.476 224.507C170.404 224.867 170.38 225.227 170.356 225.587C170.356 225.731 170.356 226.283 170.356 226.715C170.356 227.219 170.716 227.603 171.268 227.603H172.876V226.043ZM177.064 225.923C176.992 225.923 176.944 225.851 176.944 225.779V217.283H179.032V215.723H176.944V211.523H175.264C175.264 211.547 175.264 213.587 175.264 215.027C175.264 215.459 174.928 215.795 174.496 215.795H173.272V217.283H175.096C175.096 220.235 175.096 226.211 175.096 226.451C175.096 227.075 175.6 227.579 176.224 227.579H179.56V225.923H177.064ZM181.192 227.603H183.04C183.04 224.579 183.04 215.795 183.04 215.747H181.192V227.603ZM182.104 214.067C182.68 214.067 183.136 213.611 183.136 213.059C183.136 212.483 182.68 212.027 182.104 212.027C181.552 212.027 181.096 212.483 181.096 213.059C181.096 213.611 181.552 214.067 182.104 214.067ZM187.425 221.675C187.425 219.011 188.649 217.043 191.001 217.043C193.377 217.043 194.721 219.011 194.721 221.675C194.721 224.315 193.353 226.283 191.001 226.283C188.625 226.283 187.425 224.315 187.425 221.675ZM187.401 225.179C187.713 226.211 188.625 227.939 191.337 227.939C194.481 227.939 196.569 225.323 196.569 221.675C196.569 218.003 194.481 215.387 191.337 215.387C188.625 215.387 187.713 217.091 187.401 218.123L187.137 218.987H187.089L187.185 218.675C187.281 218.339 187.329 217.979 187.329 217.619V211.523H185.505V227.603H187.329V225.707C187.329 225.347 187.281 224.987 187.185 224.651L187.089 224.339H187.137L187.401 225.179ZM198.535 226.475C198.535 227.099 199.039 227.603 199.663 227.603H202.663V225.923H200.503C200.431 225.923 200.359 225.875 200.359 225.779V211.547H198.535C198.511 211.619 198.511 226.091 198.535 226.475ZM208.757 217.067C210.893 217.067 212.165 218.675 212.381 220.859H205.109C205.325 218.675 206.621 217.067 208.757 217.067ZM214.277 222.227C214.301 222.059 214.325 221.867 214.325 221.675C214.325 218.003 212.069 215.387 208.757 215.387C205.445 215.387 203.189 218.003 203.189 221.675C203.189 225.347 205.445 227.963 208.757 227.963C211.421 227.963 213.365 226.259 214.061 223.715L212.189 223.379C211.781 225.083 210.581 226.283 208.757 226.283C206.525 226.283 205.229 224.531 205.109 222.227H214.277ZM231.67 222.851C231.31 224.891 230.038 226.283 228.046 226.283C225.67 226.283 224.302 224.315 224.302 221.675C224.302 219.035 225.67 217.067 228.046 217.067C230.038 217.067 231.31 218.459 231.67 220.499L233.494 220.307C233.014 217.331 230.926 215.387 228.046 215.387C224.734 215.387 222.478 218.003 222.478 221.675C222.478 225.347 224.734 227.963 228.046 227.963C230.926 227.963 233.014 226.019 233.494 223.067L231.67 222.851ZM242.795 222.707C242.795 224.699 241.499 226.331 239.123 226.331C237.779 226.331 236.915 225.587 236.795 224.555C236.675 223.475 237.299 222.419 238.835 222.131C239.675 221.987 241.115 221.699 241.667 221.579C242.579 221.411 242.795 221.123 242.795 221.123V222.707ZM245.603 226.043H244.763C244.691 226.043 244.643 225.995 244.643 225.923V219.875C244.667 217.067 243.083 215.387 240.059 215.387C238.475 215.387 237.131 215.915 236.291 216.875C235.499 217.763 235.259 218.891 235.499 219.995L237.299 219.731C237.179 219.155 237.203 218.435 237.659 217.859C238.043 217.403 238.763 216.923 240.035 216.923C241.787 216.923 242.723 217.883 242.723 219.059C242.723 219.539 242.507 219.851 242.099 220.019C241.739 220.163 241.091 220.259 240.251 220.427C239.603 220.571 238.475 220.811 237.707 221.027C235.523 221.627 234.899 223.091 234.947 224.603C234.971 226.331 236.339 227.963 238.811 227.963C240.419 227.963 241.619 227.339 242.387 226.403C242.747 225.947 242.987 225.347 243.107 224.747C243.131 224.699 243.203 224.339 243.203 224.339H243.227L243.203 224.507C243.131 224.867 243.107 225.227 243.083 225.587C243.083 225.731 243.083 226.283 243.083 226.715C243.083 227.219 243.443 227.603 243.995 227.603H245.603V226.043ZM257.554 220.835C257.554 217.331 255.874 215.387 253.09 215.387C251.482 215.387 250.426 216.107 249.826 216.851C249.538 217.211 249.37 217.643 249.25 218.027L249.058 218.651L249.01 218.627L249.106 218.315C249.202 217.979 249.25 217.619 249.25 217.259V215.747H247.426V227.603H249.25V220.955C249.25 218.627 250.546 217.067 252.538 217.067C254.626 217.067 255.73 218.555 255.73 221.195C255.73 222.731 255.73 227.603 255.73 227.603H257.554V220.835ZM261.192 221.675C261.192 219.011 262.56 217.043 264.936 217.043C267.288 217.043 268.512 219.011 268.512 221.675C268.512 224.315 267.312 226.283 264.936 226.283C262.56 226.283 261.192 224.315 261.192 221.675ZM268.584 211.523V217.619C268.584 217.979 268.632 218.339 268.728 218.675L268.824 218.987H268.8L268.512 218.123C268.2 217.091 267.312 215.387 264.6 215.387C261.456 215.387 259.368 218.003 259.368 221.675C259.368 225.323 261.432 227.939 264.6 227.939C267.312 227.939 268.224 226.211 268.536 225.179L268.8 224.339H268.824L268.728 224.651C268.632 224.987 268.584 225.347 268.584 225.707V227.603H270.432V211.523H268.584ZM272.903 227.603H274.751C274.751 224.579 274.751 215.795 274.751 215.747H272.903V227.603ZM273.815 214.067C274.391 214.067 274.847 213.611 274.847 213.059C274.847 212.483 274.391 212.027 273.815 212.027C273.263 212.027 272.807 212.483 272.807 213.059C272.807 213.611 273.263 214.067 273.815 214.067ZM278.559 221.675C278.559 219.011 279.927 217.043 282.303 217.043C284.655 217.043 285.879 219.011 285.879 221.675C285.879 224.315 284.679 226.283 282.303 226.283C279.927 226.283 278.559 224.315 278.559 221.675ZM285.951 211.523V217.619C285.951 217.979 285.999 218.339 286.095 218.675L286.191 218.987H286.167L285.879 218.123C285.567 217.091 284.679 215.387 281.967 215.387C278.823 215.387 276.735 218.003 276.735 221.675C276.735 225.323 278.799 227.939 281.967 227.939C284.679 227.939 285.591 226.211 285.903 225.179L286.167 224.339H286.191L286.095 224.651C285.999 224.987 285.951 225.347 285.951 225.707V227.603H287.799V211.523H285.951ZM297.662 222.707C297.662 224.699 296.366 226.331 293.99 226.331C292.646 226.331 291.782 225.587 291.662 224.555C291.542 223.475 292.166 222.419 293.702 222.131C294.542 221.987 295.982 221.699 296.534 221.579C297.446 221.411 297.662 221.123 297.662 221.123V222.707ZM300.47 226.043H299.63C299.558 226.043 299.51 225.995 299.51 225.923V219.875C299.534 217.067 297.95 215.387 294.926 215.387C293.342 215.387 291.998 215.915 291.158 216.875C290.366 217.763 290.126 218.891 290.366 219.995L292.166 219.731C292.046 219.155 292.07 218.435 292.526 217.859C292.91 217.403 293.63 216.923 294.902 216.923C296.654 216.923 297.59 217.883 297.59 219.059C297.59 219.539 297.374 219.851 296.966 220.019C296.606 220.163 295.958 220.259 295.118 220.427C294.47 220.571 293.342 220.811 292.574 221.027C290.39 221.627 289.766 223.091 289.814 224.603C289.838 226.331 291.206 227.963 293.678 227.963C295.286 227.963 296.486 227.339 297.254 226.403C297.614 225.947 297.854 225.347 297.974 224.747C297.998 224.699 298.07 224.339 298.07 224.339H298.094L298.07 224.507C297.998 224.867 297.974 225.227 297.95 225.587C297.95 225.731 297.95 226.283 297.95 226.715C297.95 227.219 298.31 227.603 298.862 227.603H300.47V226.043ZM304.658 225.923C304.586 225.923 304.538 225.851 304.538 225.779V217.283H306.626V215.723H304.538V211.523H302.858C302.858 211.547 302.858 213.587 302.858 215.027C302.858 215.459 302.522 215.795 302.09 215.795H300.866V217.283H302.69C302.69 220.235 302.69 226.211 302.69 226.451C302.69 227.075 303.194 227.579 303.818 227.579H307.154V225.923H304.658ZM313.335 217.067C315.471 217.067 316.743 218.675 316.959 220.859H309.687C309.903 218.675 311.199 217.067 313.335 217.067ZM318.855 222.227C318.879 222.059 318.903 221.867 318.903 221.675C318.903 218.003 316.647 215.387 313.335 215.387C310.023 215.387 307.767 218.003 307.767 221.675C307.767 225.347 310.023 227.963 313.335 227.963C315.999 227.963 317.943 226.259 318.639 223.715L316.767 223.379C316.359 225.083 315.159 226.283 313.335 226.283C311.103 226.283 309.807 224.531 309.687 222.227H318.855ZM329.664 224.507C329.664 222.011 327.36 221.315 325.44 220.835C324.408 220.571 322.464 220.139 322.464 218.675C322.464 217.787 323.184 216.923 324.96 216.923C326.928 216.923 327.528 218.003 327.528 219.203H329.232C329.232 217.259 328.128 215.387 324.912 215.387C321.864 215.387 320.616 216.875 320.616 218.507C320.616 220.643 322.248 221.507 324.504 222.059C326.736 222.587 327.816 223.235 327.816 224.411C327.816 225.707 326.688 226.403 325.128 226.403C322.536 226.403 322.176 224.555 322.176 223.811H320.352C320.352 225.803 321.624 227.939 325.2 227.939C328.32 227.939 329.664 226.379 329.664 224.507ZM331.829 227.747C332.405 227.747 332.861 227.267 332.861 226.715C332.861 226.139 332.405 225.683 331.829 225.683C331.277 225.683 330.821 226.139 330.821 226.715C330.821 227.267 331.277 227.747 331.829 227.747Z" fill="#303030"/>
<path fill-rule="evenodd" clip-rule="evenodd" d="M419.828 79.6189L443.828 102.639L438.172 108.065L414.172 85.0449L419.828 79.6189Z" fill="#FFF6E9"/>
<path fill-rule="evenodd" clip-rule="evenodd" d="M397 40.1278C383.745 40.1278 373 50.4344 373 63.1482C373 75.862 383.745 86.1686 397 86.1686C410.255 86.1686 421 75.862 421 63.1482C421 50.4344 410.255 40.1278 397 40.1278ZM365 63.1482C365 46.1965 379.327 32.4543 397 32.4543C414.673 32.4543 429 46.1965 429 63.1482C429 80.1 414.673 93.8421 397 93.8421C379.327 93.8421 365 80.1 365 63.1482Z" fill="#303030"/>
<path fill-rule="evenodd" clip-rule="evenodd" d="M411 63.1482C411 55.7318 404.732 49.7196 397 49.7196V42.0461C409.15 42.0461 419 51.4938 419 63.1482H411Z" fill="#FFF6E9"/>
</svg>
