<svg width="475" height="300" viewBox="0 0 475 300" fill="none" xmlns="http://www.w3.org/2000/svg">
<rect x="0.116333" y="0.144531" width="474.259" height="299" rx="10" fill="#C096D6"/>
<path d="M61.0675 55.9742C61.0675 52.0382 57.7075 50.5982 53.4195 49.4782C49.6115 48.5182 47.8515 47.5582 47.8515 45.3822C47.8515 43.4942 49.3875 42.0542 52.6835 42.0542C55.9795 42.0542 57.6435 43.8462 57.6435 46.5982H60.2675C60.2675 42.9822 58.2515 39.7822 52.6835 39.7822C47.4355 39.7822 45.2275 42.3102 45.2275 45.3502C45.2275 48.7422 47.4995 50.4702 52.2355 51.6222C56.5235 52.6782 58.4115 53.5742 58.4115 56.1342C58.4115 58.3422 56.4915 59.9102 53.1635 59.9102C49.3235 59.9102 47.3395 57.7662 47.3395 54.8542H44.7155C44.7155 58.8222 47.2755 62.1502 53.2275 62.1502C58.8915 62.1502 61.0675 59.1422 61.0675 55.9742ZM67.5407 59.4622C67.4447 59.4622 67.3807 59.3662 67.3807 59.2702V47.9422H70.1647V45.8622H67.3807V40.2622H65.1407C65.1407 40.2942 65.1407 43.0142 65.1407 44.9342C65.1407 45.5102 64.6927 45.9582 64.1167 45.9582H62.4847V47.9422H64.9167C64.9167 51.8782 64.9167 59.8462 64.9167 60.1662C64.9167 60.9982 65.5887 61.6702 66.4207 61.6702H70.8687V59.4622H67.5407ZM79.1097 47.6542C81.9577 47.6542 83.6537 49.7982 83.9417 52.7102H74.2457C74.5337 49.7982 76.2617 47.6542 79.1097 47.6542ZM86.4697 54.5342C86.5017 54.3102 86.5337 54.0542 86.5337 53.7982C86.5337 48.9022 83.5257 45.4142 79.1097 45.4142C74.6937 45.4142 71.6857 48.9022 71.6857 53.7982C71.6857 58.6942 74.6937 62.1822 79.1097 62.1822C82.6617 62.1822 85.2537 59.9102 86.1817 56.5182L83.6857 56.0702C83.1417 58.3422 81.5417 59.9422 79.1097 59.9422C76.1337 59.9422 74.4057 57.6062 74.2457 54.5342H86.4697ZM101.426 53.7982C101.426 57.3182 99.6342 59.9422 96.4662 59.9422C93.3302 59.9422 91.6982 57.3182 91.6982 53.7982C91.6982 50.2782 93.2982 47.6542 96.4662 47.6542C99.6022 47.6542 101.426 50.2782 101.426 53.7982ZM91.5702 59.2062C91.5702 58.7262 91.5062 58.2462 91.3782 57.7982L91.2502 57.3822L91.3142 57.3502L91.6662 58.5342C92.0822 59.8782 93.2982 62.1822 96.9142 62.1822C101.106 62.1822 103.89 58.6942 103.89 53.7982C103.89 48.9342 101.106 45.4142 96.9142 45.4142C93.2982 45.4142 92.0822 47.7182 91.6662 49.1262L91.3142 50.2462L91.2502 50.2142L91.3782 49.8302C91.5062 49.3502 91.5702 48.8702 91.5702 48.3902V45.8942H89.1382V67.3342H91.5702V59.2062ZM115.387 42.5982H127.099L124.443 46.6302C123.931 47.3022 123.323 47.5582 122.555 47.5582H119.035V49.6702H122.843C125.307 49.6702 128.091 51.3342 128.091 54.6942C128.091 57.9902 125.659 59.7502 122.779 59.7502C119.963 59.7502 117.307 58.0222 117.307 54.6622H114.683C114.683 59.5582 118.395 62.1502 122.747 62.1502C126.939 62.1502 130.715 59.7182 130.715 54.8222C130.715 51.9422 129.179 50.1502 127.291 48.9662C126.843 48.7102 126.331 48.4542 125.723 48.3582L125.531 48.3262V48.2622C126.107 48.2942 126.459 47.9742 126.715 47.6542L130.171 42.5022V40.2622H115.387V42.5982ZM133.737 61.8942C134.505 61.8942 135.113 61.2542 135.113 60.5182C135.113 59.7502 134.505 59.1422 133.737 59.1422C133.001 59.1422 132.393 59.7502 132.393 60.5182C132.393 61.2542 133.001 61.8942 133.737 61.8942ZM64.8675 82.9102H43.8675V88.7102H50.9875V109.67H57.7075V88.7102H64.8675V82.9102ZM85.0784 109.71V98.1102C85.0784 92.8702 82.7984 89.3502 78.1984 89.3502C76.4384 89.3502 75.2384 89.8702 74.3984 90.4702C73.3584 91.2702 72.9984 92.3102 72.7984 93.1102L72.5984 94.0302H72.5184L72.6384 93.6302C72.7584 92.9102 72.8384 92.1502 72.8384 91.4302V82.9502H66.7184V109.71H72.8384V99.5102C72.8384 96.5902 73.7984 94.8302 75.9184 94.8302C78.1184 94.8302 78.9184 96.5502 78.9184 99.6302C78.9184 100.27 78.9184 109.71 78.9184 109.71H85.0784ZM97.36 94.8302C99.04 94.8302 100.2 95.9502 100.64 97.6302H94.04C94.48 95.9502 95.64 94.8302 97.36 94.8302ZM107.04 101.83C107.12 101.19 107.2 100.55 107.2 99.8302C107.2 93.3102 103 89.3502 97.36 89.3502C91.68 89.3502 87.52 93.3102 87.52 99.8302C87.52 106.39 91.68 110.31 97.36 110.31C101.64 110.31 105.08 108.03 106.48 104.07L100.24 102.95C99.68 104.11 98.68 104.83 97.36 104.83C95.6 104.83 94.4 103.63 94 101.83H107.04ZM137.376 104.15C137.376 99.7902 133.656 98.6302 130.576 97.7902C129.016 97.3502 126.816 97.0302 126.816 95.7102C126.816 94.8702 127.416 94.2702 128.896 94.2702C130.416 94.2702 131.056 94.9502 131.056 95.8702L136.696 95.9102C136.696 91.8702 133.776 89.3502 128.616 89.3502C123.176 89.3502 120.656 92.0302 120.656 94.9902C120.656 99.3102 124.016 100.55 127.096 101.39C129.296 101.99 131.176 102.47 131.176 103.71C131.176 104.79 130.216 105.31 128.856 105.31C126.976 105.31 126.336 104.03 126.336 103.11H120.216C120.216 107.23 123.176 110.27 129.136 110.27C134.576 110.27 137.376 107.71 137.376 104.15ZM152.718 100.79C152.478 103.35 151.118 104.83 149.118 104.83C146.838 104.83 145.398 102.91 145.398 99.8302C145.398 96.7502 146.838 94.8302 149.118 94.8302C151.118 94.8302 152.478 96.3502 152.718 98.8702L158.838 98.3102C158.278 92.6702 154.318 89.3502 149.118 89.3502C143.438 89.3502 139.278 93.3102 139.278 99.8302C139.278 106.39 143.438 110.31 149.118 110.31C154.318 110.31 158.278 107.03 158.838 101.39L152.718 100.79ZM161.444 109.71H167.604C167.604 108.43 167.604 89.9902 167.604 89.9502H161.444V109.71ZM164.524 88.6302C166.324 88.6302 167.764 87.1502 167.764 85.3902C167.764 83.5902 166.324 82.1502 164.524 82.1502C162.764 82.1502 161.324 83.5902 161.324 85.3902C161.324 87.1502 162.764 88.6302 164.524 88.6302ZM179.704 94.8302C181.384 94.8302 182.544 95.9502 182.984 97.6302H176.384C176.824 95.9502 177.984 94.8302 179.704 94.8302ZM189.384 101.83C189.464 101.19 189.544 100.55 189.544 99.8302C189.544 93.3102 185.344 89.3502 179.704 89.3502C174.024 89.3502 169.864 93.3102 169.864 99.8302C169.864 106.39 174.024 110.31 179.704 110.31C183.984 110.31 187.424 108.03 188.824 104.07L182.584 102.95C182.024 104.11 181.024 104.83 179.704 104.83C177.944 104.83 176.744 103.63 176.344 101.83H189.384ZM210.547 98.1102C210.547 92.8702 208.187 89.3502 203.667 89.3502C201.187 89.3502 199.827 90.2702 199.067 91.2702C198.627 91.8702 198.387 92.5502 198.267 93.1102L198.067 94.0302H197.987L198.107 93.6302C198.227 92.9102 198.307 92.1502 198.307 91.4302V89.9502H192.187V109.71H198.307V99.5102C198.307 96.5902 199.267 94.8302 201.387 94.8302C203.507 94.8302 204.387 96.5502 204.387 99.6302C204.387 100.27 204.387 109.71 204.387 109.71H210.547V98.1102ZM225.999 100.79C225.759 103.35 224.399 104.83 222.399 104.83C220.119 104.83 218.679 102.91 218.679 99.8302C218.679 96.7502 220.119 94.8302 222.399 94.8302C224.399 94.8302 225.759 96.3502 225.999 98.8702L232.119 98.3102C231.559 92.6702 227.599 89.3502 222.399 89.3502C216.719 89.3502 212.559 93.3102 212.559 99.8302C212.559 106.39 216.719 110.31 222.399 110.31C227.599 110.31 231.559 107.03 232.119 101.39L225.999 100.79ZM243.805 94.8302C245.485 94.8302 246.645 95.9502 247.085 97.6302H240.485C240.925 95.9502 242.085 94.8302 243.805 94.8302ZM253.485 101.83C253.565 101.19 253.645 100.55 253.645 99.8302C253.645 93.3102 249.445 89.3502 243.805 89.3502C238.125 89.3502 233.965 93.3102 233.965 99.8302C233.965 106.39 238.125 110.31 243.805 110.31C248.085 110.31 251.525 108.03 252.925 104.07L246.685 102.95C246.125 104.11 245.125 104.83 243.805 104.83C242.045 104.83 240.845 103.63 240.445 101.83H253.485Z" fill="#FFF6E9"/>
<path d="M97.4835 163.205L94.0275 175.085C93.9075 175.445 93.8595 175.805 93.8595 176.141V176.525H93.8355V176.165C93.8355 175.805 93.7635 175.445 93.6675 175.109L90.0915 163.205H88.4115L84.8355 175.109C84.7155 175.445 84.6675 175.805 84.6675 176.165V176.525H84.6195V176.141C84.6195 175.805 84.5715 175.445 84.4755 175.085L80.9955 163.205H78.9555L83.6595 179.285H85.5795L89.0835 167.597C89.1795 167.237 89.2275 166.901 89.2275 166.541V166.085H89.2755V166.541C89.2755 166.901 89.3235 167.237 89.4195 167.597L92.9235 179.285H94.8435L99.5475 163.205H97.4835ZM104.459 168.749C106.595 168.749 107.867 170.357 108.083 172.541H100.811C101.027 170.357 102.323 168.749 104.459 168.749ZM109.979 173.909C110.003 173.741 110.027 173.549 110.027 173.357C110.027 169.685 107.771 167.069 104.459 167.069C101.147 167.069 98.8909 169.685 98.8909 173.357C98.8909 177.029 101.147 179.645 104.459 179.645C107.123 179.645 109.067 177.941 109.763 175.397L107.891 175.061C107.483 176.765 106.283 177.965 104.459 177.965C102.227 177.965 100.931 176.213 100.811 173.909H109.979ZM112.022 162.845C111.59 162.941 111.254 163.301 111.23 163.757C111.23 163.901 111.254 164.069 111.326 164.213C111.398 164.333 111.35 164.429 111.302 164.501L110.414 165.437L111.302 166.301L112.982 164.501C113.222 164.237 113.27 163.901 113.198 163.589C113.054 163.061 112.55 162.749 112.022 162.845ZM114.886 178.157C114.886 178.781 115.39 179.285 116.014 179.285H119.014V177.605H116.854C116.782 177.605 116.71 177.557 116.71 177.461V163.229H114.886C114.862 163.301 114.862 177.773 114.886 178.157ZM120.534 178.157C120.534 178.781 121.038 179.285 121.662 179.285H124.662V177.605H122.502C122.43 177.605 122.358 177.557 122.358 177.461V163.229H120.534C120.51 163.301 120.51 177.773 120.534 178.157ZM134.806 173.357C134.806 170.693 136.03 168.725 138.382 168.725C140.758 168.725 142.102 170.693 142.102 173.357C142.102 175.997 140.734 177.965 138.382 177.965C136.006 177.965 134.806 175.997 134.806 173.357ZM134.782 176.861C135.094 177.893 136.006 179.621 138.718 179.621C141.862 179.621 143.95 177.005 143.95 173.357C143.95 169.685 141.862 167.069 138.718 167.069C136.006 167.069 135.094 168.773 134.782 169.805L134.518 170.669H134.47L134.566 170.357C134.662 170.021 134.71 169.661 134.71 169.301V163.205H132.886V179.285H134.71V177.389C134.71 177.029 134.662 176.669 134.566 176.333L134.47 176.021H134.518L134.782 176.861ZM151.029 168.749C153.165 168.749 154.437 170.357 154.653 172.541H147.381C147.597 170.357 148.893 168.749 151.029 168.749ZM156.549 173.909C156.573 173.741 156.597 173.549 156.597 173.357C156.597 169.685 154.341 167.069 151.029 167.069C147.717 167.069 145.461 169.685 145.461 173.357C145.461 177.029 147.717 179.645 151.029 179.645C153.693 179.645 155.637 177.941 156.333 175.397L154.461 175.061C154.053 176.765 152.853 177.965 151.029 177.965C148.797 177.965 147.501 176.213 147.381 173.909H156.549ZM163.639 177.965C161.263 177.965 159.895 175.997 159.895 173.357C159.895 170.717 161.263 168.749 163.639 168.749C165.991 168.749 167.215 170.717 167.215 173.357C167.215 175.997 166.015 177.965 163.639 177.965ZM169.135 177.485V167.429H167.287V169.301C167.287 169.661 167.335 170.021 167.431 170.381L167.527 170.669L167.503 170.693L167.215 169.805C166.903 168.797 166.015 167.069 163.303 167.069C160.159 167.069 158.071 169.709 158.071 173.357C158.071 177.005 160.135 179.645 163.303 179.645C166.015 179.645 166.927 177.917 167.239 176.885L167.503 176.021L167.527 176.045L167.431 176.357C167.359 176.621 167.311 176.909 167.311 177.197C167.311 177.269 167.287 177.917 167.287 177.989C167.287 179.093 167.887 179.789 167.887 180.605C167.887 181.757 166.951 181.973 165.895 181.949H159.991V183.509H166.543C168.775 183.509 169.783 182.645 169.783 180.893C169.783 179.429 169.135 179.093 169.135 177.485ZM171.652 179.285H173.5C173.5 176.261 173.5 167.477 173.5 167.429H171.652V179.285ZM172.564 165.749C173.14 165.749 173.596 165.293 173.596 164.741C173.596 164.165 173.14 163.709 172.564 163.709C172.012 163.709 171.556 164.165 171.556 164.741C171.556 165.293 172.012 165.749 172.564 165.749ZM186.093 172.517C186.093 169.013 184.413 167.069 181.629 167.069C180.021 167.069 178.965 167.789 178.365 168.533C178.077 168.893 177.909 169.325 177.789 169.709L177.597 170.333L177.549 170.309L177.645 169.997C177.741 169.661 177.789 169.301 177.789 168.941V167.429H175.965V179.285H177.789V172.637C177.789 170.309 179.085 168.749 181.077 168.749C183.165 168.749 184.269 170.237 184.269 172.877C184.269 174.413 184.269 179.285 184.269 179.285H186.093V172.517ZM196.41 173.357C196.41 170.717 197.778 168.749 200.154 168.749C202.506 168.749 203.874 170.717 203.874 173.357C203.874 175.997 202.506 177.965 200.154 177.965C197.778 177.965 196.41 175.997 196.41 173.357ZM205.722 173.357C205.722 169.685 203.466 167.069 200.154 167.069C196.842 167.069 194.586 169.685 194.586 173.357C194.586 177.029 196.842 179.645 200.154 179.645C203.466 179.645 205.722 177.029 205.722 173.357ZM207.554 167.429V174.197C207.554 177.701 209.09 179.621 212.018 179.621C214.322 179.621 215.378 178.205 215.762 177.269L216.05 176.381L216.074 176.405L216.002 176.693C215.906 177.053 215.858 177.389 215.858 177.749V179.261H217.682V167.429H215.858V174.077C215.858 176.405 214.538 177.965 212.57 177.965C210.338 177.965 209.378 176.477 209.378 173.837C209.378 172.301 209.378 167.429 209.378 167.429H207.554ZM221.968 179.285V173.453C221.968 171.461 222.904 168.845 223.864 168.845C224.512 168.845 224.704 169.709 224.704 170.381V171.701H226.552V169.997C226.552 168.221 225.976 167.069 224.584 167.069C223.864 167.069 223.264 167.597 222.832 168.221C222.4 168.821 222.16 169.517 222.088 169.925C222.064 169.997 221.968 170.573 221.944 170.645L221.872 171.101H221.848L221.896 170.789C221.944 170.405 221.968 170.045 221.968 169.661V167.429H220.144V179.285H221.968ZM234.765 167.429V174.197C234.765 177.701 236.301 179.621 239.229 179.621C241.533 179.621 242.589 178.205 242.973 177.269L243.261 176.381L243.285 176.405L243.213 176.693C243.117 177.053 243.069 177.389 243.069 177.749V179.261H244.893V167.429H243.069V174.077C243.069 176.405 241.749 177.965 239.781 177.965C237.549 177.965 236.589 176.477 236.589 173.837C236.589 172.301 236.589 167.429 236.589 167.429H234.765ZM257.483 172.517C257.483 169.013 255.803 167.069 253.019 167.069C251.411 167.069 250.355 167.789 249.755 168.533C249.467 168.893 249.299 169.325 249.179 169.709L248.987 170.333L248.939 170.309L249.035 169.997C249.131 169.661 249.179 169.301 249.179 168.941V167.429H247.355V179.285H249.179V172.637C249.179 170.309 250.475 168.749 252.467 168.749C254.555 168.749 255.659 170.237 255.659 172.877C255.659 174.413 255.659 179.285 255.659 179.285H257.483V172.517ZM261.601 179.285V173.453C261.601 171.461 262.537 168.845 263.497 168.845C264.145 168.845 264.337 169.709 264.337 170.381V171.701H266.185V169.997C266.185 168.221 265.609 167.069 264.217 167.069C263.497 167.069 262.897 167.597 262.465 168.221C262.033 168.821 261.793 169.517 261.721 169.925C261.697 169.997 261.601 170.573 261.577 170.645L261.505 171.101H261.481L261.529 170.789C261.577 170.405 261.601 170.045 261.601 169.661V167.429H259.777V179.285H261.601ZM267.418 179.285H269.266C269.266 176.261 269.266 167.477 269.266 167.429H267.418V179.285ZM268.33 165.749C268.906 165.749 269.362 165.293 269.362 164.741C269.362 164.165 268.906 163.709 268.33 163.709C267.778 163.709 267.322 164.165 267.322 164.741C267.322 165.293 267.778 165.749 268.33 165.749ZM279.794 167.429L276.338 177.245C276.266 177.461 276.218 177.725 276.218 177.965V178.397H276.17V177.965C276.17 177.725 276.146 177.485 276.074 177.245L272.618 167.429H270.722L274.874 179.285H277.538L281.69 167.429H279.794ZM289.997 174.389C289.997 176.381 288.701 178.013 286.325 178.013C284.981 178.013 284.117 177.269 283.997 176.237C283.877 175.157 284.501 174.101 286.037 173.813C286.877 173.669 288.317 173.381 288.869 173.261C289.781 173.093 289.997 172.805 289.997 172.805V174.389ZM292.805 177.725H291.965C291.893 177.725 291.845 177.677 291.845 177.605V171.557C291.869 168.749 290.285 167.069 287.261 167.069C285.677 167.069 284.333 167.597 283.493 168.557C282.701 169.445 282.461 170.573 282.701 171.677L284.501 171.413C284.381 170.837 284.405 170.117 284.861 169.541C285.245 169.085 285.965 168.605 287.237 168.605C288.989 168.605 289.925 169.565 289.925 170.741C289.925 171.221 289.709 171.533 289.301 171.701C288.941 171.845 288.293 171.941 287.453 172.109C286.805 172.253 285.677 172.493 284.909 172.709C282.725 173.309 282.101 174.773 282.149 176.285C282.173 178.013 283.541 179.645 286.013 179.645C287.621 179.645 288.821 179.021 289.589 178.085C289.949 177.629 290.189 177.029 290.309 176.429C290.333 176.381 290.405 176.021 290.405 176.021H290.429L290.405 176.189C290.333 176.549 290.309 176.909 290.285 177.269C290.285 177.413 290.285 177.965 290.285 178.397C290.285 178.901 290.645 179.285 291.197 179.285H292.805V177.725ZM294.605 178.157C294.605 178.781 295.109 179.285 295.733 179.285H298.733V177.605H296.573C296.501 177.605 296.429 177.557 296.429 177.461V163.229H294.605C294.581 163.301 294.581 177.773 294.605 178.157ZM300.253 178.157C300.253 178.781 300.757 179.285 301.381 179.285H304.381V177.605H302.221C302.149 177.605 302.077 177.557 302.077 177.461V163.229H300.253C300.229 163.301 300.229 177.773 300.253 178.157ZM310.474 168.749C312.61 168.749 313.882 170.357 314.098 172.541H306.826C307.042 170.357 308.338 168.749 310.474 168.749ZM315.994 173.909C316.018 173.741 316.042 173.549 316.042 173.357C316.042 169.685 313.786 167.069 310.474 167.069C307.162 167.069 304.906 169.685 304.906 173.357C304.906 177.029 307.162 179.645 310.474 179.645C313.138 179.645 315.082 177.941 315.778 175.397L313.906 175.061C313.498 176.765 312.298 177.965 310.474 177.965C308.242 177.965 306.946 176.213 306.826 173.909H315.994ZM319.34 173.357C319.34 170.693 320.708 168.725 323.084 168.725C325.436 168.725 326.66 170.693 326.66 173.357C326.66 175.997 325.46 177.965 323.084 177.965C320.708 177.965 319.34 175.997 319.34 173.357ZM326.732 163.205V169.301C326.732 169.661 326.78 170.021 326.876 170.357L326.972 170.669H326.948L326.66 169.805C326.348 168.773 325.46 167.069 322.748 167.069C319.604 167.069 317.516 169.685 317.516 173.357C317.516 177.005 319.58 179.621 322.748 179.621C325.46 179.621 326.372 177.893 326.684 176.861L326.948 176.021H326.972L326.876 176.333C326.78 176.669 326.732 177.029 326.732 177.389V179.285H328.58V163.205H326.732ZM332.526 178.181C332.382 177.677 331.878 177.341 331.35 177.461C330.918 177.533 330.582 177.917 330.558 178.349C330.558 178.517 330.582 178.685 330.654 178.829C330.726 178.925 330.678 179.045 330.63 179.117L329.742 180.053L330.63 180.893L332.31 179.093C332.55 178.853 332.598 178.517 332.526 178.181ZM81.3555 197.357C81.3555 194.693 82.7235 192.725 85.0995 192.725C87.4515 192.725 88.6755 194.693 88.6755 197.357C88.6755 199.997 87.4755 201.965 85.0995 201.965C82.7235 201.965 81.3555 199.997 81.3555 197.357ZM88.7475 187.205V193.301C88.7475 193.661 88.7955 194.021 88.8915 194.357L88.9875 194.669H88.9635L88.6755 193.805C88.3635 192.773 87.4755 191.069 84.7635 191.069C81.6195 191.069 79.5315 193.685 79.5315 197.357C79.5315 201.005 81.5955 203.621 84.7635 203.621C87.4755 203.621 88.3875 201.893 88.6995 200.861L88.9635 200.021H88.9875L88.8915 200.333C88.7955 200.669 88.7475 201.029 88.7475 201.389V203.285H90.5955V187.205H88.7475ZM100.458 198.389C100.458 200.381 99.1622 202.013 96.7862 202.013C95.4422 202.013 94.5782 201.269 94.4582 200.237C94.3382 199.157 94.9622 198.101 96.4982 197.813C97.3382 197.669 98.7782 197.381 99.3302 197.261C100.242 197.093 100.458 196.805 100.458 196.805V198.389ZM103.266 201.725H102.426C102.354 201.725 102.306 201.677 102.306 201.605V195.557C102.33 192.749 100.746 191.069 97.7222 191.069C96.1382 191.069 94.7942 191.597 93.9542 192.557C93.1622 193.445 92.9222 194.573 93.1622 195.677L94.9622 195.413C94.8422 194.837 94.8662 194.117 95.3222 193.541C95.7062 193.085 96.4262 192.605 97.6982 192.605C99.4502 192.605 100.386 193.565 100.386 194.741C100.386 195.221 100.17 195.533 99.7622 195.701C99.4022 195.845 98.7542 195.941 97.9142 196.109C97.2662 196.253 96.1382 196.493 95.3702 196.709C93.1862 197.309 92.5622 198.773 92.6102 200.285C92.6342 202.013 94.0022 203.645 96.4742 203.645C98.0822 203.645 99.2822 203.021 100.05 202.085C100.41 201.629 100.65 201.029 100.77 200.429C100.794 200.381 100.866 200.021 100.866 200.021H100.89L100.866 200.189C100.794 200.549 100.77 200.909 100.746 201.269C100.746 201.413 100.746 201.965 100.746 202.397C100.746 202.901 101.106 203.285 101.658 203.285H103.266V201.725ZM107.454 201.605C107.382 201.605 107.334 201.533 107.334 201.461V192.965H109.422V191.405H107.334V187.205H105.654C105.654 187.229 105.654 189.269 105.654 190.709C105.654 191.141 105.318 191.477 104.886 191.477H103.662V192.965H105.486C105.486 195.917 105.486 201.893 105.486 202.133C105.486 202.757 105.99 203.261 106.614 203.261H109.95V201.605H107.454ZM118.974 198.389C118.974 200.381 117.678 202.013 115.302 202.013C113.958 202.013 113.094 201.269 112.974 200.237C112.854 199.157 113.478 198.101 115.014 197.813C115.854 197.669 117.294 197.381 117.846 197.261C118.758 197.093 118.974 196.805 118.974 196.805V198.389ZM121.782 201.725H120.942C120.87 201.725 120.822 201.677 120.822 201.605V195.557C120.846 192.749 119.262 191.069 116.238 191.069C114.654 191.069 113.31 191.597 112.47 192.557C111.678 193.445 111.438 194.573 111.678 195.677L113.478 195.413C113.358 194.837 113.382 194.117 113.838 193.541C114.222 193.085 114.942 192.605 116.214 192.605C117.966 192.605 118.902 193.565 118.902 194.741C118.902 195.221 118.686 195.533 118.278 195.701C117.918 195.845 117.27 195.941 116.43 196.109C115.782 196.253 114.654 196.493 113.886 196.709C111.702 197.309 111.078 198.773 111.126 200.285C111.15 202.013 112.518 203.645 114.99 203.645C116.598 203.645 117.798 203.021 118.566 202.085C118.926 201.629 119.166 201.029 119.286 200.429C119.31 200.381 119.382 200.021 119.382 200.021H119.406L119.382 200.189C119.31 200.549 119.286 200.909 119.262 201.269C119.262 201.413 119.262 201.965 119.262 202.397C119.262 202.901 119.622 203.285 120.174 203.285H121.782V201.725ZM122.861 197.021H131.021V195.269H122.861V197.021ZM132.816 202.157C132.816 202.781 133.32 203.285 133.944 203.285H136.944V201.605H134.784C134.712 201.605 134.64 201.557 134.64 201.461V187.229H132.816C132.792 187.301 132.792 201.773 132.816 202.157ZM143.037 192.749C145.173 192.749 146.445 194.357 146.661 196.541H139.389C139.605 194.357 140.901 192.749 143.037 192.749ZM148.557 197.909C148.581 197.741 148.605 197.549 148.605 197.357C148.605 193.685 146.349 191.069 143.037 191.069C139.725 191.069 137.469 193.685 137.469 197.357C137.469 201.029 139.725 203.645 143.037 203.645C145.701 203.645 147.645 201.941 148.341 199.397L146.469 199.061C146.061 200.765 144.861 201.965 143.037 201.965C140.805 201.965 139.509 200.213 139.389 197.909H148.557ZM151.902 197.357C151.902 194.693 153.27 192.725 155.646 192.725C157.998 192.725 159.222 194.693 159.222 197.357C159.222 199.997 158.022 201.965 155.646 201.965C153.27 201.965 151.902 199.997 151.902 197.357ZM159.294 187.205V193.301C159.294 193.661 159.342 194.021 159.438 194.357L159.534 194.669H159.51L159.222 193.805C158.91 192.773 158.022 191.069 155.31 191.069C152.166 191.069 150.078 193.685 150.078 197.357C150.078 201.005 152.142 203.621 155.31 203.621C158.022 203.621 158.934 201.893 159.246 200.861L159.51 200.021H159.534L159.438 200.333C159.342 200.669 159.294 201.029 159.294 201.389V203.285H161.142V187.205H159.294ZM178.357 191.429L174.901 201.245C174.829 201.461 174.781 201.725 174.781 201.965V202.397H174.733V201.965C174.733 201.725 174.709 201.485 174.637 201.245L171.181 191.429H169.285L173.437 203.285H176.101L180.253 191.429H178.357ZM185.951 192.749C188.087 192.749 189.359 194.357 189.575 196.541H182.303C182.519 194.357 183.815 192.749 185.951 192.749ZM191.471 197.909C191.495 197.741 191.519 197.549 191.519 197.357C191.519 193.685 189.263 191.069 185.951 191.069C182.639 191.069 180.383 193.685 180.383 197.357C180.383 201.029 182.639 203.645 185.951 203.645C188.615 203.645 190.559 201.941 191.255 199.397L189.383 199.061C188.975 200.765 187.775 201.965 185.951 201.965C183.719 201.965 182.423 200.213 182.303 197.909H191.471ZM202.328 201.629C202.256 201.629 202.208 201.557 202.208 201.485V192.989H204.296V191.453H202.208V187.229H200.528C200.528 187.253 200.528 189.245 200.528 190.661C200.528 191.093 200.192 191.453 199.76 191.453H196.232V187.229H194.552C194.552 187.253 194.552 189.293 194.552 190.733C194.552 191.165 194.216 191.501 193.784 191.501H192.56V192.989H194.384C194.384 195.941 194.384 201.917 194.384 202.157C194.384 202.781 194.888 203.285 195.512 203.285H198.488V201.629H196.352C196.28 201.629 196.232 201.557 196.232 201.485V192.989H200.36C200.36 195.941 200.36 201.917 200.36 202.157C200.36 202.781 200.864 203.285 201.488 203.285H204.824V201.629H202.328ZM206.48 203.285H208.328C208.328 200.261 208.328 191.477 208.328 191.429H206.48V203.285ZM207.392 189.749C207.968 189.749 208.424 189.293 208.424 188.741C208.424 188.165 207.968 187.709 207.392 187.709C206.84 187.709 206.384 188.165 206.384 188.741C206.384 189.293 206.84 189.749 207.392 189.749ZM220.921 196.517C220.921 193.013 219.241 191.069 216.457 191.069C214.849 191.069 213.793 191.789 213.193 192.533C212.905 192.893 212.737 193.325 212.617 193.709L212.425 194.333L212.377 194.309L212.473 193.997C212.569 193.661 212.617 193.301 212.617 192.941V191.429H210.793V203.285H212.617V196.637C212.617 194.309 213.913 192.749 215.905 192.749C217.993 192.749 219.097 194.237 219.097 196.877C219.097 198.413 219.097 203.285 219.097 203.285H220.921V196.517ZM228.045 201.965C225.669 201.965 224.301 199.997 224.301 197.357C224.301 194.717 225.669 192.749 228.045 192.749C230.397 192.749 231.621 194.717 231.621 197.357C231.621 199.997 230.421 201.965 228.045 201.965ZM233.541 201.485V191.429H231.693V193.301C231.693 193.661 231.741 194.021 231.837 194.381L231.933 194.669L231.909 194.693L231.621 193.805C231.309 192.797 230.421 191.069 227.709 191.069C224.565 191.069 222.477 193.709 222.477 197.357C222.477 201.005 224.541 203.645 227.709 203.645C230.421 203.645 231.333 201.917 231.645 200.885L231.909 200.021L231.933 200.045L231.837 200.357C231.765 200.621 231.717 200.909 231.717 201.197C231.717 201.269 231.693 201.917 231.693 201.989C231.693 203.093 232.293 203.789 232.293 204.605C232.293 205.757 231.357 205.973 230.301 205.949H224.397V207.509H230.949C233.181 207.509 234.189 206.645 234.189 204.893C234.189 203.429 233.541 203.093 233.541 201.485ZM251.954 197.357C251.954 199.997 250.61 201.965 248.234 201.965C245.882 201.965 244.658 199.997 244.658 197.357C244.658 194.717 245.858 192.749 248.234 192.749C250.586 192.749 251.954 194.717 251.954 197.357ZM244.562 201.413C244.562 201.053 244.514 200.693 244.418 200.357L244.322 200.045L244.37 200.021L244.634 200.909C244.946 201.917 245.858 203.645 248.57 203.645C251.714 203.645 253.802 201.029 253.802 197.357C253.802 193.709 251.714 191.069 248.57 191.069C245.858 191.069 244.946 192.797 244.634 193.853L244.37 194.693L244.322 194.669L244.418 194.381C244.514 194.021 244.562 193.661 244.562 193.301V191.429H242.738V207.509H244.562V201.413ZM257.382 203.285V197.453C257.382 195.461 258.318 192.845 259.278 192.845C259.926 192.845 260.118 193.709 260.118 194.381V195.701H261.966V193.997C261.966 192.221 261.39 191.069 259.998 191.069C259.278 191.069 258.678 191.597 258.246 192.221C257.814 192.821 257.574 193.517 257.502 193.925C257.478 193.997 257.382 194.573 257.358 194.645L257.286 195.101H257.262L257.31 194.789C257.358 194.405 257.382 194.045 257.382 193.661V191.429H255.558V203.285H257.382ZM265.012 197.357C265.012 194.717 266.38 192.749 268.756 192.749C271.108 192.749 272.476 194.717 272.476 197.357C272.476 199.997 271.108 201.965 268.756 201.965C266.38 201.965 265.012 199.997 265.012 197.357ZM274.324 197.357C274.324 193.685 272.068 191.069 268.756 191.069C265.444 191.069 263.188 193.685 263.188 197.357C263.188 201.029 265.444 203.645 268.756 203.645C272.068 203.645 274.324 201.029 274.324 197.357ZM285.036 198.533C284.676 200.573 283.404 201.965 281.412 201.965C279.036 201.965 277.668 199.997 277.668 197.357C277.668 194.717 279.036 192.749 281.412 192.749C283.404 192.749 284.676 194.141 285.036 196.181L286.86 195.989C286.38 193.013 284.292 191.069 281.412 191.069C278.1 191.069 275.844 193.685 275.844 197.357C275.844 201.029 278.1 203.645 281.412 203.645C284.292 203.645 286.38 201.701 286.86 198.749L285.036 198.533ZM293.857 192.749C295.993 192.749 297.265 194.357 297.481 196.541H290.209C290.425 194.357 291.721 192.749 293.857 192.749ZM299.377 197.909C299.401 197.741 299.425 197.549 299.425 197.357C299.425 193.685 297.169 191.069 293.857 191.069C290.545 191.069 288.289 193.685 288.289 197.357C288.289 201.029 290.545 203.645 293.857 203.645C296.521 203.645 298.465 201.941 299.161 199.397L297.289 199.061C296.881 200.765 295.681 201.965 293.857 201.965C291.625 201.965 290.329 200.213 290.209 197.909H299.377ZM310.187 200.189C310.187 197.693 307.883 196.997 305.963 196.517C304.931 196.253 302.987 195.821 302.987 194.357C302.987 193.469 303.707 192.605 305.483 192.605C307.451 192.605 308.051 193.685 308.051 194.885H309.755C309.755 192.941 308.651 191.069 305.435 191.069C302.387 191.069 301.139 192.557 301.139 194.189C301.139 196.325 302.771 197.189 305.027 197.741C307.259 198.269 308.339 198.917 308.339 200.093C308.339 201.389 307.211 202.085 305.651 202.085C303.059 202.085 302.699 200.237 302.699 199.493H300.875C300.875 201.485 302.147 203.621 305.723 203.621C308.843 203.621 310.187 202.061 310.187 200.189ZM320.991 200.189C320.991 197.693 318.687 196.997 316.767 196.517C315.735 196.253 313.791 195.821 313.791 194.357C313.791 193.469 314.511 192.605 316.287 192.605C318.255 192.605 318.855 193.685 318.855 194.885H320.559C320.559 192.941 319.455 191.069 316.239 191.069C313.191 191.069 311.943 192.557 311.943 194.189C311.943 196.325 313.575 197.189 315.831 197.741C318.063 198.269 319.143 198.917 319.143 200.093C319.143 201.389 318.015 202.085 316.455 202.085C313.863 202.085 313.503 200.237 313.503 199.493H311.679C311.679 201.485 312.951 203.621 316.527 203.621C319.647 203.621 320.991 202.061 320.991 200.189ZM332.548 201.605C332.476 201.605 332.428 201.533 332.428 201.461V192.965H334.516V191.405H332.428V187.205H330.748C330.748 187.229 330.748 189.269 330.748 190.709C330.748 191.141 330.412 191.477 329.98 191.477H328.756V192.965H330.58C330.58 195.917 330.58 201.893 330.58 202.133C330.58 202.757 331.084 203.261 331.708 203.261H335.044V201.605H332.548ZM337.48 197.357C337.48 194.717 338.848 192.749 341.224 192.749C343.576 192.749 344.944 194.717 344.944 197.357C344.944 199.997 343.576 201.965 341.224 201.965C338.848 201.965 337.48 199.997 337.48 197.357ZM346.792 197.357C346.792 193.685 344.536 191.069 341.224 191.069C337.912 191.069 335.656 193.685 335.656 197.357C335.656 201.029 337.912 203.645 341.224 203.645C344.536 203.645 346.792 201.029 346.792 197.357ZM81.3555 221.357C81.3555 218.693 82.7235 216.725 85.0995 216.725C87.4515 216.725 88.6755 218.693 88.6755 221.357C88.6755 223.997 87.4755 225.965 85.0995 225.965C82.7235 225.965 81.3555 223.997 81.3555 221.357ZM88.7475 211.205V217.301C88.7475 217.661 88.7955 218.021 88.8915 218.357L88.9875 218.669H88.9635L88.6755 217.805C88.3635 216.773 87.4755 215.069 84.7635 215.069C81.6195 215.069 79.5315 217.685 79.5315 221.357C79.5315 225.005 81.5955 227.621 84.7635 227.621C87.4755 227.621 88.3875 225.893 88.6995 224.861L88.9635 224.021H88.9875L88.8915 224.333C88.7955 224.669 88.7475 225.029 88.7475 225.389V227.285H90.5955V211.205H88.7475ZM98.1542 216.749C100.29 216.749 101.562 218.357 101.778 220.541H94.5062C94.7222 218.357 96.0182 216.749 98.1542 216.749ZM103.674 221.909C103.698 221.741 103.722 221.549 103.722 221.357C103.722 217.685 101.466 215.069 98.1542 215.069C94.8422 215.069 92.5862 217.685 92.5862 221.357C92.5862 225.029 94.8422 227.645 98.1542 227.645C100.818 227.645 102.762 225.941 103.458 223.397L101.586 223.061C101.178 224.765 99.9782 225.965 98.1542 225.965C95.9222 225.965 94.6262 224.213 94.5062 221.909H103.674ZM108.016 225.605C107.944 225.605 107.896 225.533 107.896 225.461V216.965H109.984V215.405H107.896V211.205H106.216C106.216 211.229 106.216 213.269 106.216 214.709C106.216 215.141 105.88 215.477 105.448 215.477H104.224V216.965H106.048C106.048 219.917 106.048 225.893 106.048 226.133C106.048 226.757 106.552 227.261 107.176 227.261H110.512V225.605H108.016ZM116.693 216.749C118.829 216.749 120.101 218.357 120.317 220.541H113.045C113.261 218.357 114.557 216.749 116.693 216.749ZM122.213 221.909C122.237 221.741 122.261 221.549 122.261 221.357C122.261 217.685 120.005 215.069 116.693 215.069C113.381 215.069 111.125 217.685 111.125 221.357C111.125 225.029 113.381 227.645 116.693 227.645C119.357 227.645 121.301 225.941 121.997 223.397L120.125 223.061C119.717 224.765 118.517 225.965 116.693 225.965C114.461 225.965 113.165 224.213 113.045 221.909H122.213ZM126.039 227.285V221.453C126.039 219.461 126.975 216.845 127.935 216.845C128.583 216.845 128.775 217.709 128.775 218.381V219.701H130.623V217.997C130.623 216.221 130.047 215.069 128.655 215.069C127.935 215.069 127.335 215.597 126.903 216.221C126.471 216.821 126.231 217.517 126.159 217.925C126.135 217.997 126.039 218.573 126.015 218.645L125.943 219.101H125.919L125.967 218.789C126.015 218.405 126.039 218.045 126.039 217.661V215.429H124.215V227.285H126.039ZM140.783 217.397C140.135 215.645 138.791 215.069 137.303 215.069C135.743 215.069 134.831 215.789 134.279 216.533C133.967 216.917 133.775 217.349 133.655 217.757L133.487 218.333L133.439 218.309L133.535 217.997C133.631 217.661 133.679 217.301 133.679 216.941V215.429H131.855V227.285H133.679V220.637C133.679 218.309 134.783 216.749 136.631 216.749C138.215 216.749 139.415 217.661 139.415 220.637C139.415 222.149 139.415 227.285 139.415 227.285H141.263V220.637C141.263 218.309 142.343 216.749 144.215 216.749C145.799 216.749 146.999 217.853 146.999 220.517C146.999 222.029 146.999 227.285 146.999 227.285H148.847V220.013C148.847 216.533 146.975 215.069 144.695 215.069C142.751 215.069 141.743 216.269 141.311 217.037C141.095 217.421 140.951 217.805 140.903 218.045C140.879 218.093 140.831 218.333 140.831 218.333L140.807 218.309L140.831 218.141C140.903 217.853 140.879 217.613 140.783 217.397ZM151.144 227.285H152.992C152.992 224.261 152.992 215.477 152.992 215.429H151.144V227.285ZM152.056 213.749C152.632 213.749 153.088 213.293 153.088 212.741C153.088 212.165 152.632 211.709 152.056 211.709C151.504 211.709 151.048 212.165 151.048 212.741C151.048 213.293 151.504 213.749 152.056 213.749ZM165.585 220.517C165.585 217.013 163.905 215.069 161.121 215.069C159.513 215.069 158.457 215.789 157.857 216.533C157.569 216.893 157.401 217.325 157.281 217.709L157.089 218.333L157.041 218.309L157.137 217.997C157.233 217.661 157.281 217.301 157.281 216.941V215.429H155.457V227.285H157.281V220.637C157.281 218.309 158.577 216.749 160.569 216.749C162.657 216.749 163.761 218.237 163.761 220.877C163.761 222.413 163.761 227.285 163.761 227.285H165.585V220.517ZM172.709 216.749C174.845 216.749 176.117 218.357 176.333 220.541H169.061C169.277 218.357 170.573 216.749 172.709 216.749ZM178.229 221.909C178.253 221.741 178.277 221.549 178.277 221.357C178.277 217.685 176.021 215.069 172.709 215.069C169.397 215.069 167.141 217.685 167.141 221.357C167.141 225.029 169.397 227.645 172.709 227.645C175.373 227.645 177.317 225.941 178.013 223.397L176.141 223.061C175.733 224.765 174.533 225.965 172.709 225.965C170.477 225.965 169.181 224.213 169.061 221.909H178.229ZM189.79 225.605C189.718 225.605 189.67 225.533 189.67 225.461V216.965H191.758V215.405H189.67V211.205H187.99C187.99 211.229 187.99 213.269 187.99 214.709C187.99 215.141 187.654 215.477 187.222 215.477H185.998V216.965H187.822C187.822 219.917 187.822 225.893 187.822 226.133C187.822 226.757 188.326 227.261 188.95 227.261H192.286V225.605H189.79ZM203.507 227.285V220.517C203.507 217.013 201.947 215.069 199.043 215.069C197.723 215.069 196.763 215.597 196.139 216.197C195.635 216.653 195.347 217.229 195.179 217.757L195.011 218.333L194.963 218.309L195.059 217.997C195.155 217.661 195.203 217.301 195.203 216.941V211.229H193.379V227.285H195.203V220.637C195.203 218.309 196.499 216.749 198.491 216.749C200.723 216.749 201.683 218.237 201.683 220.877C201.683 222.413 201.683 227.285 201.683 227.285H203.507ZM210.912 216.749C213.048 216.749 214.32 218.357 214.536 220.541H207.264C207.48 218.357 208.776 216.749 210.912 216.749ZM216.432 221.909C216.456 221.741 216.48 221.549 216.48 221.357C216.48 217.685 214.224 215.069 210.912 215.069C207.6 215.069 205.344 217.685 205.344 221.357C205.344 225.029 207.6 227.645 210.912 227.645C213.576 227.645 215.52 225.941 216.216 223.397L214.344 223.061C213.936 224.765 212.736 225.965 210.912 225.965C208.68 225.965 207.384 224.213 207.264 221.909H216.432ZM233.081 213.749C233.657 213.749 234.113 213.293 234.113 212.717C234.113 212.165 233.657 211.685 233.081 211.685C232.529 211.685 232.073 212.165 232.073 212.717C232.073 213.293 232.529 213.749 233.081 213.749ZM227.897 215.429C227.897 215.429 227.729 214.277 227.729 213.725C227.729 213.149 228.065 212.765 228.521 212.765H229.529V211.205H227.849C226.601 211.205 226.025 212.093 226.025 213.077C226.025 213.797 226.169 214.565 226.313 214.973C226.361 215.165 226.505 215.333 226.673 215.405C226.745 215.477 226.961 215.573 227.033 215.597V215.621C226.985 215.621 226.841 215.573 226.793 215.549C226.481 215.477 226.145 215.429 225.833 215.429H224.129V216.965H226.193V227.261H228.041V216.965H232.169V227.285H234.017C234.017 224.237 234.017 215.477 234.017 215.429H227.897ZM246.608 220.517C246.608 217.013 244.928 215.069 242.144 215.069C240.536 215.069 239.48 215.789 238.88 216.533C238.592 216.893 238.424 217.325 238.304 217.709L238.112 218.333L238.064 218.309L238.16 217.997C238.256 217.661 238.304 217.301 238.304 216.941V215.429H236.48V227.285H238.304V220.637C238.304 218.309 239.6 216.749 241.592 216.749C243.68 216.749 244.784 218.237 244.784 220.877C244.784 222.413 244.784 227.285 244.784 227.285H246.608V220.517ZM256.294 222.389C256.294 224.381 254.998 226.013 252.622 226.013C251.278 226.013 250.414 225.269 250.294 224.237C250.174 223.157 250.798 222.101 252.334 221.813C253.174 221.669 254.614 221.381 255.166 221.261C256.078 221.093 256.294 220.805 256.294 220.805V222.389ZM259.102 225.725H258.262C258.19 225.725 258.142 225.677 258.142 225.605V219.557C258.166 216.749 256.582 215.069 253.558 215.069C251.974 215.069 250.63 215.597 249.79 216.557C248.998 217.445 248.758 218.573 248.998 219.677L250.798 219.413C250.678 218.837 250.702 218.117 251.158 217.541C251.542 217.085 252.262 216.605 253.534 216.605C255.286 216.605 256.222 217.565 256.222 218.741C256.222 219.221 256.006 219.533 255.598 219.701C255.238 219.845 254.59 219.941 253.75 220.109C253.102 220.253 251.974 220.493 251.206 220.709C249.022 221.309 248.398 222.773 248.446 224.285C248.47 226.013 249.838 227.645 252.31 227.645C253.918 227.645 255.118 227.021 255.886 226.085C256.246 225.629 256.486 225.029 256.606 224.429C256.63 224.381 256.702 224.021 256.702 224.021H256.726L256.702 224.189C256.63 224.549 256.606 224.909 256.582 225.269C256.582 225.413 256.582 225.965 256.582 226.397C256.582 226.901 256.942 227.285 257.494 227.285H259.102V225.725ZM260.902 226.157C260.902 226.781 261.406 227.285 262.03 227.285H265.03V225.605H262.87C262.798 225.605 262.726 225.557 262.726 225.461V211.229H260.902C260.878 211.301 260.878 225.773 260.902 226.157ZM282.062 224.189C282.062 221.693 279.758 220.997 277.838 220.517C276.806 220.253 274.862 219.821 274.862 218.357C274.862 217.469 275.582 216.605 277.358 216.605C279.326 216.605 279.926 217.685 279.926 218.885H281.63C281.63 216.941 280.526 215.069 277.31 215.069C274.262 215.069 273.014 216.557 273.014 218.189C273.014 220.325 274.646 221.189 276.902 221.741C279.134 222.269 280.214 222.917 280.214 224.093C280.214 225.389 279.086 226.085 277.526 226.085C274.934 226.085 274.574 224.237 274.574 223.493H272.75C272.75 225.485 274.022 227.621 277.598 227.621C280.718 227.621 282.062 226.061 282.062 224.189ZM294.186 227.285V220.517C294.186 217.013 292.626 215.069 289.722 215.069C288.402 215.069 287.442 215.597 286.818 216.197C286.314 216.653 286.026 217.229 285.858 217.757L285.69 218.333L285.642 218.309L285.738 217.997C285.834 217.661 285.882 217.301 285.882 216.941V211.229H284.058V227.285H285.882V220.637C285.882 218.309 287.178 216.749 289.17 216.749C291.402 216.749 292.362 218.237 292.362 220.877C292.362 222.413 292.362 227.285 292.362 227.285H294.186ZM297.848 221.357C297.848 218.717 299.216 216.749 301.592 216.749C303.944 216.749 305.312 218.717 305.312 221.357C305.312 223.997 303.944 225.965 301.592 225.965C299.216 225.965 297.848 223.997 297.848 221.357ZM307.16 221.357C307.16 217.685 304.904 215.069 301.592 215.069C298.28 215.069 296.024 217.685 296.024 221.357C296.024 225.029 298.28 227.645 301.592 227.645C304.904 227.645 307.16 225.029 307.16 221.357ZM310.75 227.285V221.453C310.75 219.461 311.686 216.845 312.646 216.845C313.294 216.845 313.486 217.709 313.486 218.381V219.701H315.334V217.997C315.334 216.221 314.758 215.069 313.366 215.069C312.646 215.069 312.046 215.597 311.614 216.221C311.182 216.821 310.942 217.517 310.87 217.925C310.846 217.997 310.75 218.573 310.726 218.645L310.654 219.101H310.63L310.678 218.789C310.726 218.405 310.75 218.045 310.75 217.661V215.429H308.926V227.285H310.75ZM319.915 225.605C319.843 225.605 319.795 225.533 319.795 225.461V216.965H321.883V215.405H319.795V211.205H318.115C318.115 211.229 318.115 213.269 318.115 214.709C318.115 215.141 317.779 215.477 317.347 215.477H316.123V216.965H317.947C317.947 219.917 317.947 225.893 317.947 226.133C317.947 226.757 318.451 227.261 319.075 227.261H322.411V225.605H319.915ZM324.019 226.157C324.019 226.781 324.523 227.285 325.147 227.285H328.147V225.605H325.987C325.915 225.605 325.843 225.557 325.843 225.461V211.229H324.019C323.995 211.301 323.995 225.773 324.019 226.157ZM329.691 227.285H331.539C331.539 224.261 331.539 215.477 331.539 215.429H329.691V227.285ZM330.603 213.749C331.179 213.749 331.635 213.293 331.635 212.741C331.635 212.165 331.179 211.709 330.603 211.709C330.051 211.709 329.595 212.165 329.595 212.741C329.595 213.293 330.051 213.749 330.603 213.749ZM342.812 224.189C342.812 221.693 340.508 220.997 338.588 220.517C337.556 220.253 335.612 219.821 335.612 218.357C335.612 217.469 336.332 216.605 338.108 216.605C340.076 216.605 340.676 217.685 340.676 218.885H342.38C342.38 216.941 341.276 215.069 338.06 215.069C335.012 215.069 333.764 216.557 333.764 218.189C333.764 220.325 335.396 221.189 337.652 221.741C339.884 222.269 340.964 222.917 340.964 224.093C340.964 225.389 339.836 226.085 338.276 226.085C335.684 226.085 335.324 224.237 335.324 223.493H333.5C333.5 225.485 334.772 227.621 338.348 227.621C341.468 227.621 342.812 226.061 342.812 224.189ZM347.688 225.605C347.616 225.605 347.568 225.533 347.568 225.461V216.965H349.656V215.405H347.568V211.205H345.888C345.888 211.229 345.888 213.269 345.888 214.709C345.888 215.141 345.552 215.477 345.12 215.477H343.896V216.965H345.72C345.72 219.917 345.72 225.893 345.72 226.133C345.72 226.757 346.224 227.261 346.848 227.261H350.184V225.605H347.688ZM351.961 227.429C352.537 227.429 352.993 226.949 352.993 226.397C352.993 225.821 352.537 225.365 351.961 225.365C351.409 225.365 350.953 225.821 350.953 226.397C350.953 226.949 351.409 227.429 351.961 227.429Z" fill="#303030"/>
<path fill-rule="evenodd" clip-rule="evenodd" d="M369.117 106.463V30.4626H361.117V110.463C361.117 112.672 362.907 114.463 365.117 114.463H445.117V106.463H369.117Z" fill="#303030"/>
<path fill-rule="evenodd" clip-rule="evenodd" d="M436.613 60.4054L426.613 78.4054L419.62 74.5203L429.62 56.5203L436.613 60.4054Z" fill="#303030"/>
<path fill-rule="evenodd" clip-rule="evenodd" d="M437.117 46.4626C434.907 46.4626 433.117 48.2535 433.117 50.4626C433.117 52.6718 434.907 54.4626 437.117 54.4626C439.326 54.4626 441.117 52.6718 441.117 50.4626C441.117 48.2535 439.326 46.4626 437.117 46.4626ZM425.117 50.4626C425.117 43.8352 430.489 38.4626 437.117 38.4626C443.744 38.4626 449.117 43.8352 449.117 50.4626C449.117 57.0901 443.744 62.4626 437.117 62.4626C430.489 62.4626 425.117 57.0901 425.117 50.4626Z" fill="#FFF6E9"/>
<path fill-rule="evenodd" clip-rule="evenodd" d="M384.694 80.2513L368.694 112.251L361.539 108.674L377.539 76.6736L384.694 80.2513Z" fill="#303030"/>
<path fill-rule="evenodd" clip-rule="evenodd" d="M406.996 85.855L390.996 75.855L395.236 69.071L411.236 79.071L406.996 85.855Z" fill="#303030"/>
<path fill-rule="evenodd" clip-rule="evenodd" d="M417.117 78.4626C414.907 78.4626 413.117 80.2535 413.117 82.4626C413.117 84.6718 414.907 86.4626 417.117 86.4626C419.326 86.4626 421.117 84.6718 421.117 82.4626C421.117 80.2535 419.326 78.4626 417.117 78.4626ZM405.117 82.4626C405.117 75.8352 410.489 70.4626 417.117 70.4626C423.744 70.4626 429.117 75.8352 429.117 82.4626C429.117 89.0901 423.744 94.4626 417.117 94.4626C410.489 94.4626 405.117 89.0901 405.117 82.4626Z" fill="#FFF6E9"/>
<path fill-rule="evenodd" clip-rule="evenodd" d="M385.117 66.4626C382.907 66.4626 381.117 68.2535 381.117 70.4626C381.117 72.6718 382.907 74.4626 385.117 74.4626C387.326 74.4626 389.117 72.6718 389.117 70.4626C389.117 68.2535 387.326 66.4626 385.117 66.4626ZM373.117 70.4626C373.117 63.8352 378.489 58.4626 385.117 58.4626C391.744 58.4626 397.117 63.8352 397.117 70.4626C397.117 77.0901 391.744 82.4626 385.117 82.4626C378.489 82.4626 373.117 77.0901 373.117 70.4626Z" fill="#FFF6E9"/>
</svg>
