<svg width="475" height="300" viewBox="0 0 475 300" fill="none" xmlns="http://www.w3.org/2000/svg">
<rect x="0.000244141" y="0.553711" width="474.259" height="299" rx="10" fill="#C096D6"/>
<path d="M60.9514 56.3833C60.9514 52.4473 57.5914 51.0073 53.3034 49.8873C49.4954 48.9273 47.7354 47.9673 47.7354 45.7913C47.7354 43.9033 49.2714 42.4633 52.5674 42.4633C55.8634 42.4633 57.5274 44.2553 57.5274 47.0073H60.1514C60.1514 43.3913 58.1354 40.1913 52.5674 40.1913C47.3194 40.1913 45.1114 42.7193 45.1114 45.7593C45.1114 49.1513 47.3834 50.8793 52.1194 52.0313C56.4074 53.0873 58.2954 53.9833 58.2954 56.5433C58.2954 58.7513 56.3754 60.3193 53.0474 60.3193C49.2074 60.3193 47.2234 58.1753 47.2234 55.2633H44.5994C44.5994 59.2313 47.1594 62.5593 53.1114 62.5593C58.7754 62.5593 60.9514 59.5513 60.9514 56.3833ZM67.4246 59.8713C67.3286 59.8713 67.2646 59.7753 67.2646 59.6793V48.3513H70.0486V46.2713H67.2646V40.6713H65.0246C65.0246 40.7033 65.0246 43.4233 65.0246 45.3433C65.0246 45.9193 64.5766 46.3673 64.0006 46.3673H62.3686V48.3513H64.8006C64.8006 52.2873 64.8006 60.2553 64.8006 60.5753C64.8006 61.4073 65.4726 62.0793 66.3046 62.0793H70.7526V59.8713H67.4246ZM78.9936 48.0633C81.8416 48.0633 83.5376 50.2073 83.8256 53.1193H74.1296C74.4176 50.2073 76.1456 48.0633 78.9936 48.0633ZM86.3536 54.9433C86.3856 54.7193 86.4176 54.4633 86.4176 54.2073C86.4176 49.3113 83.4096 45.8233 78.9936 45.8233C74.5776 45.8233 71.5696 49.3113 71.5696 54.2073C71.5696 59.1033 74.5776 62.5913 78.9936 62.5913C82.5456 62.5913 85.1376 60.3193 86.0656 56.9273L83.5696 56.4793C83.0256 58.7513 81.4256 60.3513 78.9936 60.3513C76.0176 60.3513 74.2896 58.0153 74.1296 54.9433H86.3536ZM101.31 54.2073C101.31 57.7273 99.5181 60.3513 96.3501 60.3513C93.2141 60.3513 91.5821 57.7273 91.5821 54.2073C91.5821 50.6873 93.1821 48.0633 96.3501 48.0633C99.4861 48.0633 101.31 50.6873 101.31 54.2073ZM91.4541 59.6153C91.4541 59.1353 91.3901 58.6553 91.2621 58.2073L91.1341 57.7913L91.1981 57.7593L91.5501 58.9433C91.9661 60.2873 93.1821 62.5913 96.7981 62.5913C100.99 62.5913 103.774 59.1033 103.774 54.2073C103.774 49.3433 100.99 45.8233 96.7981 45.8233C93.1821 45.8233 91.9661 48.1273 91.5501 49.5353L91.1981 50.6553L91.1341 50.6233L91.2621 50.2393C91.3901 49.7593 91.4541 49.2793 91.4541 48.7993V46.3033H89.0221V67.7433H91.4541V59.6153ZM125.063 44.7993C124.967 45.2473 124.903 45.6953 124.903 46.1113V54.9753C124.903 55.4873 124.487 55.8713 124.007 55.8713H117.287L124.423 45.9193C124.647 45.5673 124.903 45.1513 124.999 44.7353C125.031 44.7033 125.063 44.5113 125.063 44.4793L125.127 44.5113L125.063 44.7993ZM127.527 40.6713H124.103C124.103 41.5673 123.847 42.4633 123.335 43.2313L114.279 56.4153V58.2393H124.903V62.0793H127.527V59.1353C127.527 58.6233 127.943 58.2393 128.455 58.2393H130.663V55.8713H127.527V40.6713ZM133.527 62.3033C134.295 62.3033 134.903 61.6633 134.903 60.9273C134.903 60.1593 134.295 59.5513 133.527 59.5513C132.791 59.5513 132.183 60.1593 132.183 60.9273C132.183 61.6633 132.791 62.3033 133.527 62.3033ZM64.7514 83.3193H43.7514V89.1193H50.8714V110.079H57.5914V89.1193H64.7514V83.3193ZM84.9623 110.119V98.5193C84.9623 93.2793 82.6823 89.7593 78.0823 89.7593C76.3223 89.7593 75.1223 90.2793 74.2823 90.8793C73.2423 91.6793 72.8823 92.7193 72.6823 93.5193L72.4823 94.4393H72.4023L72.5223 94.0393C72.6423 93.3193 72.7223 92.5593 72.7223 91.8393V83.3593H66.6023V110.119H72.7223V99.9193C72.7223 96.9993 73.6823 95.2393 75.8023 95.2393C78.0023 95.2393 78.8023 96.9593 78.8023 100.039C78.8023 100.679 78.8023 110.119 78.8023 110.119H84.9623ZM97.2439 95.2393C98.9239 95.2393 100.084 96.3593 100.524 98.0393H93.9239C94.3639 96.3593 95.5239 95.2393 97.2439 95.2393ZM106.924 102.239C107.004 101.599 107.084 100.959 107.084 100.239C107.084 93.7193 102.884 89.7593 97.2439 89.7593C91.5639 89.7593 87.4039 93.7193 87.4039 100.239C87.4039 106.799 91.5639 110.719 97.2439 110.719C101.524 110.719 104.964 108.439 106.364 104.479L100.124 103.359C99.5639 104.519 98.5639 105.239 97.2439 105.239C95.4839 105.239 94.2839 104.039 93.8839 102.239H106.924ZM120.82 110.119H126.98C126.98 108.839 126.98 90.3993 126.98 90.3593H120.82V110.119ZM123.9 89.0393C125.7 89.0393 127.14 87.5593 127.14 85.7993C127.14 83.9993 125.7 82.5593 123.9 82.5593C122.14 82.5593 120.7 83.9993 120.7 85.7993C120.7 87.5593 122.14 89.0393 123.9 89.0393ZM148.83 98.5193C148.83 93.2793 146.47 89.7593 141.95 89.7593C139.47 89.7593 138.11 90.6793 137.35 91.6793C136.91 92.2793 136.67 92.9593 136.55 93.5193L136.35 94.4393H136.27L136.39 94.0393C136.51 93.3193 136.59 92.5593 136.59 91.8393V90.3593H130.47V110.119H136.59V99.9193C136.59 96.9993 137.55 95.2393 139.67 95.2393C141.79 95.2393 142.67 96.9593 142.67 100.039C142.67 100.679 142.67 110.119 142.67 110.119H148.83V98.5193ZM159.413 104.639C159.173 104.639 158.973 104.439 158.973 104.199V95.3193H162.053V90.3593H158.973V83.3193H153.573C153.573 83.3193 153.573 87.8393 153.573 88.4393C153.573 89.6393 152.613 90.5993 151.413 90.5993H150.013V95.3193H152.813C152.813 96.5593 152.813 106.719 152.813 106.839C152.813 108.639 154.253 110.079 156.093 110.079H163.173V104.639H159.413ZM173.885 95.2393C175.565 95.2393 176.725 96.3593 177.165 98.0393H170.565C171.005 96.3593 172.165 95.2393 173.885 95.2393ZM183.565 102.239C183.645 101.599 183.725 100.959 183.725 100.239C183.725 93.7193 179.525 89.7593 173.885 89.7593C168.205 89.7593 164.045 93.7193 164.045 100.239C164.045 106.799 168.205 110.719 173.885 110.719C178.165 110.719 181.605 108.439 183.005 104.479L176.765 103.359C176.205 104.519 175.205 105.239 173.885 105.239C172.125 105.239 170.925 104.039 170.525 102.239H183.565ZM192.488 101.479C192.488 98.1593 193.168 95.6393 194.368 95.6393C195.248 95.6393 195.368 96.8393 195.368 97.7993V99.9193L201.528 99.8793V95.2793C201.528 92.3993 200.488 89.7593 197.248 89.7593C196.168 89.7593 195.088 90.1993 194.368 90.8793C193.448 91.7593 193.008 92.8393 192.768 93.5593C192.688 93.8793 192.568 94.4393 192.528 94.7993L192.368 95.7993H192.288L192.368 95.2793C192.448 94.6793 192.488 94.0393 192.488 93.4393V90.3593H186.368V110.119H192.488V101.479ZM216.344 90.3593L212.864 104.199C212.744 104.759 212.664 105.279 212.664 105.839V106.759H212.584V105.839C212.584 105.319 212.544 104.759 212.384 104.199L208.904 90.3593H202.624L207.584 110.079H217.664L222.664 90.3593H216.344ZM224.687 110.119H230.847C230.847 108.839 230.847 90.3993 230.847 90.3593H224.687V110.119ZM227.767 89.0393C229.567 89.0393 231.007 87.5593 231.007 85.7993C231.007 83.9993 229.567 82.5593 227.767 82.5593C226.007 82.5593 224.567 83.9993 224.567 85.7993C224.567 87.5593 226.007 89.0393 227.767 89.0393ZM242.947 95.2393C244.627 95.2393 245.787 96.3593 246.227 98.0393H239.627C240.067 96.3593 241.227 95.2393 242.947 95.2393ZM252.627 102.239C252.707 101.599 252.787 100.959 252.787 100.239C252.787 93.7193 248.587 89.7593 242.947 89.7593C237.267 89.7593 233.107 93.7193 233.107 100.239C233.107 106.799 237.267 110.719 242.947 110.719C247.227 110.719 250.667 108.439 252.067 104.479L245.827 103.359C245.267 104.519 244.267 105.239 242.947 105.239C241.187 105.239 239.987 104.039 239.587 102.239H252.627ZM277.255 90.3593L274.535 100.239C274.335 100.879 274.255 101.559 274.255 102.239V102.999H274.135V102.239C274.135 101.559 274.055 100.879 273.855 100.239L270.855 90.3593H265.655L262.615 100.239C262.455 100.879 262.335 101.559 262.335 102.239V102.999H262.255V102.239C262.255 101.559 262.175 100.879 261.975 100.239L259.255 90.3593H252.935L258.735 110.119H265.415L267.895 102.199C268.095 101.519 268.215 100.799 268.215 100.079V99.3993H268.295V100.079C268.295 100.799 268.415 101.519 268.615 102.199L271.095 110.119H277.735L283.575 90.3593H277.255ZM300.776 104.559C300.776 100.199 297.056 99.0393 293.976 98.1993C292.416 97.7593 290.216 97.4393 290.216 96.1193C290.216 95.2793 290.816 94.6793 292.296 94.6793C293.816 94.6793 294.456 95.3593 294.456 96.2793L300.096 96.3193C300.096 92.2793 297.176 89.7593 292.016 89.7593C286.576 89.7593 284.056 92.4393 284.056 95.3993C284.056 99.7193 287.416 100.959 290.496 101.799C292.696 102.399 294.576 102.879 294.576 104.119C294.576 105.199 293.616 105.719 292.256 105.719C290.376 105.719 289.736 104.439 289.736 103.519H283.616C283.616 107.639 286.576 110.679 292.536 110.679C297.976 110.679 300.776 108.119 300.776 104.559Z" fill="#FFF6E9"/>
<path d="M97.3674 163.614L93.9114 175.494C93.7914 175.854 93.7434 176.214 93.7434 176.55V176.934H93.7194V176.574C93.7194 176.214 93.6474 175.854 93.5514 175.518L89.9754 163.614H88.2954L84.7194 175.518C84.5994 175.854 84.5514 176.214 84.5514 176.574V176.934H84.5034V176.55C84.5034 176.214 84.4554 175.854 84.3594 175.494L80.8794 163.614H78.8394L83.5434 179.694H85.4634L88.9674 168.006C89.0634 167.646 89.1114 167.31 89.1114 166.95V166.494H89.1594V166.95C89.1594 167.31 89.2074 167.646 89.3034 168.006L92.8074 179.694H94.7274L99.4314 163.614H97.3674ZM104.343 169.158C106.479 169.158 107.751 170.766 107.967 172.95H100.695C100.911 170.766 102.207 169.158 104.343 169.158ZM109.863 174.318C109.887 174.15 109.911 173.958 109.911 173.766C109.911 170.094 107.655 167.478 104.343 167.478C101.031 167.478 98.7748 170.094 98.7748 173.766C98.7748 177.438 101.031 180.054 104.343 180.054C107.007 180.054 108.951 178.35 109.647 175.806L107.775 175.47C107.367 177.174 106.167 178.374 104.343 178.374C102.111 178.374 100.815 176.622 100.695 174.318H109.863ZM111.906 163.254C111.474 163.35 111.138 163.71 111.114 164.166C111.114 164.31 111.138 164.478 111.21 164.622C111.282 164.742 111.234 164.838 111.186 164.91L110.298 165.846L111.186 166.71L112.866 164.91C113.106 164.646 113.154 164.31 113.082 163.998C112.938 163.47 112.434 163.158 111.906 163.254ZM114.77 178.566C114.77 179.19 115.274 179.694 115.898 179.694H118.898V178.014H116.738C116.666 178.014 116.594 177.966 116.594 177.87V163.638H114.77C114.746 163.71 114.746 178.182 114.77 178.566ZM120.418 178.566C120.418 179.19 120.922 179.694 121.546 179.694H124.546V178.014H122.386C122.314 178.014 122.242 177.966 122.242 177.87V163.638H120.418C120.394 163.71 120.394 178.182 120.418 178.566ZM137.858 178.374C135.482 178.374 134.114 176.406 134.114 173.766C134.114 171.126 135.482 169.158 137.858 169.158C140.21 169.158 141.434 171.126 141.434 173.766C141.434 176.406 140.234 178.374 137.858 178.374ZM143.354 177.894V167.838H141.506V169.71C141.506 170.07 141.554 170.43 141.65 170.79L141.746 171.078L141.722 171.102L141.434 170.214C141.122 169.206 140.234 167.478 137.522 167.478C134.378 167.478 132.29 170.118 132.29 173.766C132.29 177.414 134.354 180.054 137.522 180.054C140.234 180.054 141.146 178.326 141.458 177.294L141.722 176.43L141.746 176.454L141.65 176.766C141.578 177.03 141.53 177.318 141.53 177.606C141.53 177.678 141.506 178.326 141.506 178.398C141.506 179.502 142.106 180.198 142.106 181.014C142.106 182.166 141.17 182.382 140.114 182.358H134.21V183.918H140.762C142.994 183.918 144.002 183.054 144.002 181.302C144.002 179.838 143.354 179.502 143.354 177.894ZM145.704 167.838V174.606C145.704 178.11 147.24 180.03 150.168 180.03C152.472 180.03 153.528 178.614 153.912 177.678L154.2 176.79L154.224 176.814L154.152 177.102C154.056 177.462 154.008 177.798 154.008 178.158V179.67H155.832V167.838H154.008V174.486C154.008 176.814 152.688 178.374 150.72 178.374C148.488 178.374 147.528 176.886 147.528 174.246C147.528 172.71 147.528 167.838 147.528 167.838H145.704ZM158.294 179.694H160.142C160.142 176.67 160.142 167.886 160.142 167.838H158.294V179.694ZM159.206 166.158C159.782 166.158 160.238 165.702 160.238 165.15C160.238 164.574 159.782 164.118 159.206 164.118C158.654 164.118 158.198 164.574 158.198 165.15C158.198 165.702 158.654 166.158 159.206 166.158ZM163.95 173.766C163.95 171.102 165.318 169.134 167.694 169.134C170.046 169.134 171.27 171.102 171.27 173.766C171.27 176.406 170.07 178.374 167.694 178.374C165.318 178.374 163.95 176.406 163.95 173.766ZM171.342 163.614V169.71C171.342 170.07 171.39 170.43 171.486 170.766L171.582 171.078H171.558L171.27 170.214C170.958 169.182 170.07 167.478 167.358 167.478C164.214 167.478 162.126 170.094 162.126 173.766C162.126 177.414 164.19 180.03 167.358 180.03C170.07 180.03 170.982 178.302 171.294 177.27L171.558 176.43H171.582L171.486 176.742C171.39 177.078 171.342 177.438 171.342 177.798V179.694H173.19V163.614H171.342ZM180.749 169.158C182.885 169.158 184.157 170.766 184.373 172.95H177.101C177.317 170.766 178.613 169.158 180.749 169.158ZM186.269 174.318C186.293 174.15 186.317 173.958 186.317 173.766C186.317 170.094 184.061 167.478 180.749 167.478C177.437 167.478 175.181 170.094 175.181 173.766C175.181 177.438 177.437 180.054 180.749 180.054C183.413 180.054 185.357 178.35 186.053 175.806L184.181 175.47C183.773 177.174 182.573 178.374 180.749 178.374C178.517 178.374 177.221 176.622 177.101 174.318H186.269ZM202.342 174.798C202.342 176.79 201.046 178.422 198.67 178.422C197.326 178.422 196.462 177.678 196.342 176.646C196.222 175.566 196.846 174.51 198.382 174.222C199.222 174.078 200.662 173.79 201.214 173.67C202.126 173.502 202.342 173.214 202.342 173.214V174.798ZM205.15 178.134H204.31C204.238 178.134 204.19 178.086 204.19 178.014V171.966C204.214 169.158 202.63 167.478 199.606 167.478C198.022 167.478 196.678 168.006 195.838 168.966C195.046 169.854 194.806 170.982 195.046 172.086L196.846 171.822C196.726 171.246 196.75 170.526 197.206 169.95C197.59 169.494 198.31 169.014 199.582 169.014C201.334 169.014 202.27 169.974 202.27 171.15C202.27 171.63 202.054 171.942 201.646 172.11C201.286 172.254 200.638 172.35 199.798 172.518C199.15 172.662 198.022 172.902 197.254 173.118C195.07 173.718 194.446 175.182 194.494 176.694C194.518 178.422 195.886 180.054 198.358 180.054C199.966 180.054 201.166 179.43 201.934 178.494C202.294 178.038 202.534 177.438 202.654 176.838C202.678 176.79 202.75 176.43 202.75 176.43H202.774L202.75 176.598C202.678 176.958 202.654 177.318 202.63 177.678C202.63 177.822 202.63 178.374 202.63 178.806C202.63 179.31 202.99 179.694 203.542 179.694H205.15V178.134ZM216.19 173.766C216.19 176.406 214.846 178.374 212.47 178.374C210.118 178.374 208.894 176.406 208.894 173.766C208.894 171.126 210.094 169.158 212.47 169.158C214.822 169.158 216.19 171.126 216.19 173.766ZM208.798 177.822C208.798 177.462 208.75 177.102 208.654 176.766L208.558 176.454L208.606 176.43L208.87 177.318C209.182 178.326 210.094 180.054 212.806 180.054C215.95 180.054 218.038 177.438 218.038 173.766C218.038 170.118 215.95 167.478 212.806 167.478C210.094 167.478 209.182 169.206 208.87 170.262L208.606 171.102L208.558 171.078L208.654 170.79C208.75 170.43 208.798 170.07 208.798 169.71V167.838H206.974V183.918H208.798V177.822ZM229.01 173.766C229.01 176.406 227.666 178.374 225.29 178.374C222.938 178.374 221.714 176.406 221.714 173.766C221.714 171.126 222.914 169.158 225.29 169.158C227.642 169.158 229.01 171.126 229.01 173.766ZM221.618 177.822C221.618 177.462 221.57 177.102 221.474 176.766L221.378 176.454L221.426 176.43L221.69 177.318C222.002 178.326 222.914 180.054 225.626 180.054C228.77 180.054 230.858 177.438 230.858 173.766C230.858 170.118 228.77 167.478 225.626 167.478C222.914 167.478 222.002 169.206 221.69 170.262L221.426 171.102L221.378 171.078L221.474 170.79C221.57 170.43 221.618 170.07 221.618 169.71V167.838H219.794V183.918H221.618V177.822ZM232.825 178.566C232.825 179.19 233.329 179.694 233.953 179.694H236.953V178.014H234.793C234.721 178.014 234.649 177.966 234.649 177.87V163.638H232.825C232.801 163.71 232.801 178.182 232.825 178.566ZM238.497 179.694H240.345C240.345 176.67 240.345 167.886 240.345 167.838H238.497V179.694ZM239.409 166.158C239.985 166.158 240.441 165.702 240.441 165.15C240.441 164.574 239.985 164.118 239.409 164.118C238.857 164.118 238.401 164.574 238.401 165.15C238.401 165.702 238.857 166.158 239.409 166.158ZM251.264 174.942C250.904 176.982 249.632 178.374 247.64 178.374C245.264 178.374 243.896 176.406 243.896 173.766C243.896 171.126 245.264 169.158 247.64 169.158C249.632 169.158 250.904 170.55 251.264 172.59L253.088 172.398C252.608 169.422 250.52 167.478 247.64 167.478C244.328 167.478 242.072 170.094 242.072 173.766C242.072 177.438 244.328 180.054 247.64 180.054C250.52 180.054 252.608 178.11 253.088 175.158L251.264 174.942ZM262.389 174.798C262.389 176.79 261.093 178.422 258.717 178.422C257.373 178.422 256.509 177.678 256.389 176.646C256.269 175.566 256.893 174.51 258.429 174.222C259.269 174.078 260.709 173.79 261.261 173.67C262.173 173.502 262.389 173.214 262.389 173.214V174.798ZM265.197 178.134H264.357C264.285 178.134 264.237 178.086 264.237 178.014V171.966C264.261 169.158 262.677 167.478 259.653 167.478C258.069 167.478 256.725 168.006 255.885 168.966C255.093 169.854 254.853 170.982 255.093 172.086L256.893 171.822C256.773 171.246 256.797 170.526 257.253 169.95C257.637 169.494 258.357 169.014 259.629 169.014C261.381 169.014 262.317 169.974 262.317 171.15C262.317 171.63 262.101 171.942 261.693 172.11C261.333 172.254 260.685 172.35 259.845 172.518C259.197 172.662 258.069 172.902 257.301 173.118C255.117 173.718 254.493 175.182 254.541 176.694C254.565 178.422 255.933 180.054 258.405 180.054C260.013 180.054 261.213 179.43 261.981 178.494C262.341 178.038 262.581 177.438 262.701 176.838C262.725 176.79 262.797 176.43 262.797 176.43H262.821L262.797 176.598C262.725 176.958 262.701 177.318 262.677 177.678C262.677 177.822 262.677 178.374 262.677 178.806C262.677 179.31 263.037 179.694 263.589 179.694H265.197V178.134ZM277.148 172.926C277.148 169.422 275.468 167.478 272.684 167.478C271.076 167.478 270.02 168.198 269.42 168.942C269.132 169.302 268.964 169.734 268.844 170.118L268.652 170.742L268.604 170.718L268.7 170.406C268.796 170.07 268.844 169.71 268.844 169.35V167.838H267.02V179.694H268.844V173.046C268.844 170.718 270.14 169.158 272.132 169.158C274.22 169.158 275.324 170.646 275.324 173.286C275.324 174.822 275.324 179.694 275.324 179.694H277.148V172.926ZM281.783 178.014C281.711 178.014 281.663 177.942 281.663 177.87V169.374H283.751V167.814H281.663V163.614H279.983C279.983 163.638 279.983 165.678 279.983 167.118C279.983 167.55 279.647 167.886 279.215 167.886H277.991V169.374H279.815C279.815 172.326 279.815 178.302 279.815 178.542C279.815 179.166 280.319 179.67 280.943 179.67H284.279V178.014H281.783ZM294.719 176.598C294.719 174.102 292.415 173.406 290.495 172.926C289.463 172.662 287.519 172.23 287.519 170.766C287.519 169.878 288.239 169.014 290.015 169.014C291.983 169.014 292.583 170.094 292.583 171.294H294.287C294.287 169.35 293.183 167.478 289.967 167.478C286.919 167.478 285.671 168.966 285.671 170.598C285.671 172.734 287.303 173.598 289.559 174.15C291.791 174.678 292.871 175.326 292.871 176.502C292.871 177.798 291.743 178.494 290.183 178.494C287.591 178.494 287.231 176.646 287.231 175.902H285.407C285.407 177.894 286.679 180.03 290.255 180.03C293.375 180.03 294.719 178.47 294.719 176.598ZM304.739 173.766C304.739 171.102 306.107 169.134 308.483 169.134C310.835 169.134 312.059 171.102 312.059 173.766C312.059 176.406 310.859 178.374 308.483 178.374C306.107 178.374 304.739 176.406 304.739 173.766ZM312.131 163.614V169.71C312.131 170.07 312.179 170.43 312.275 170.766L312.371 171.078H312.347L312.059 170.214C311.747 169.182 310.859 167.478 308.147 167.478C305.003 167.478 302.915 170.094 302.915 173.766C302.915 177.414 304.979 180.03 308.147 180.03C310.859 180.03 311.771 178.302 312.083 177.27L312.347 176.43H312.371L312.275 176.742C312.179 177.078 312.131 177.438 312.131 177.798V179.694H313.979V163.614H312.131ZM316.282 167.838V174.606C316.282 178.11 317.818 180.03 320.746 180.03C323.05 180.03 324.106 178.614 324.49 177.678L324.778 176.79L324.802 176.814L324.73 177.102C324.634 177.462 324.586 177.798 324.586 178.158V179.67H326.41V167.838H324.586V174.486C324.586 176.814 323.266 178.374 321.298 178.374C319.066 178.374 318.106 176.886 318.106 174.246C318.106 172.71 318.106 167.838 318.106 167.838H316.282ZM330.696 179.694V173.862C330.696 171.87 331.632 169.254 332.592 169.254C333.24 169.254 333.432 170.118 333.432 170.79V172.11H335.28V170.406C335.28 168.63 334.704 167.478 333.312 167.478C332.592 167.478 331.992 168.006 331.56 168.63C331.128 169.23 330.888 169.926 330.816 170.334C330.792 170.406 330.696 170.982 330.672 171.054L330.6 171.51H330.576L330.624 171.198C330.672 170.814 330.696 170.454 330.696 170.07V167.838H328.872V179.694H330.696ZM336.513 179.694H338.361C338.361 176.67 338.361 167.886 338.361 167.838H336.513V179.694ZM337.425 166.158C338.001 166.158 338.457 165.702 338.457 165.15C338.457 164.574 338.001 164.118 337.425 164.118C336.873 164.118 336.417 164.574 336.417 165.15C336.417 165.702 336.873 166.158 337.425 166.158ZM350.953 172.926C350.953 169.422 349.273 167.478 346.489 167.478C344.881 167.478 343.825 168.198 343.225 168.942C342.937 169.302 342.769 169.734 342.649 170.118L342.457 170.742L342.409 170.718L342.505 170.406C342.601 170.07 342.649 169.71 342.649 169.35V167.838H340.825V179.694H342.649V173.046C342.649 170.718 343.945 169.158 345.937 169.158C348.025 169.158 349.129 170.646 349.129 173.286C349.129 174.822 349.129 179.694 349.129 179.694H350.953V172.926ZM358.077 178.374C355.701 178.374 354.333 176.406 354.333 173.766C354.333 171.126 355.701 169.158 358.077 169.158C360.429 169.158 361.653 171.126 361.653 173.766C361.653 176.406 360.453 178.374 358.077 178.374ZM363.573 177.894V167.838H361.725V169.71C361.725 170.07 361.773 170.43 361.869 170.79L361.965 171.078L361.941 171.102L361.653 170.214C361.341 169.206 360.453 167.478 357.741 167.478C354.597 167.478 352.509 170.118 352.509 173.766C352.509 177.414 354.573 180.054 357.741 180.054C360.453 180.054 361.365 178.326 361.677 177.294L361.941 176.43L361.965 176.454L361.869 176.766C361.797 177.03 361.749 177.318 361.749 177.606C361.749 177.678 361.725 178.326 361.725 178.398C361.725 179.502 362.325 180.198 362.325 181.014C362.325 182.166 361.389 182.382 360.333 182.358H354.429V183.918H360.981C363.213 183.918 364.221 183.054 364.221 181.302C364.221 179.838 363.573 179.502 363.573 177.894ZM380.93 167.814L377.45 176.43C377.378 176.646 377.33 176.862 377.33 177.078V177.486H377.282V177.078C377.282 176.862 377.234 176.646 377.162 176.43L373.682 167.814H371.714L376.034 178.422C376.226 178.878 376.226 179.358 376.034 179.814L374.378 183.894H376.346L382.898 167.814H380.93ZM384.45 173.766C384.45 171.126 385.818 169.158 388.194 169.158C390.546 169.158 391.914 171.126 391.914 173.766C391.914 176.406 390.546 178.374 388.194 178.374C385.818 178.374 384.45 176.406 384.45 173.766ZM393.762 173.766C393.762 170.094 391.506 167.478 388.194 167.478C384.882 167.478 382.626 170.094 382.626 173.766C382.626 177.438 384.882 180.054 388.194 180.054C391.506 180.054 393.762 177.438 393.762 173.766ZM395.595 167.838V174.606C395.595 178.11 397.131 180.03 400.059 180.03C402.363 180.03 403.419 178.614 403.803 177.678L404.091 176.79L404.115 176.814L404.043 177.102C403.947 177.462 403.899 177.798 403.899 178.158V179.67H405.723V167.838H403.899V174.486C403.899 176.814 402.579 178.374 400.611 178.374C398.379 178.374 397.419 176.886 397.419 174.246C397.419 172.71 397.419 167.838 397.419 167.838H395.595ZM410.008 179.694V173.862C410.008 171.87 410.944 169.254 411.904 169.254C412.552 169.254 412.744 170.118 412.744 170.79V172.11H414.592V170.406C414.592 168.63 414.016 167.478 412.624 167.478C411.904 167.478 411.304 168.006 410.872 168.63C410.44 169.23 410.2 169.926 410.128 170.334C410.104 170.406 410.008 170.982 409.984 171.054L409.912 171.51H409.888L409.936 171.198C409.984 170.814 410.008 170.454 410.008 170.07V167.838H408.184V179.694H410.008ZM79.8954 203.694H81.7434C81.7434 200.67 81.7434 191.886 81.7434 191.838H79.8954V203.694ZM80.8074 190.158C81.3834 190.158 81.8394 189.702 81.8394 189.15C81.8394 188.574 81.3834 188.118 80.8074 188.118C80.2554 188.118 79.7994 188.574 79.7994 189.15C79.7994 189.702 80.2554 190.158 80.8074 190.158ZM94.3359 196.926C94.3359 193.422 92.6559 191.478 89.8719 191.478C88.2639 191.478 87.2079 192.198 86.6079 192.942C86.3199 193.302 86.1519 193.734 86.0319 194.118L85.8399 194.742L85.7919 194.718L85.8879 194.406C85.9839 194.07 86.0319 193.71 86.0319 193.35V191.838H84.2079V203.694H86.0319V197.046C86.0319 194.718 87.3279 193.158 89.3199 193.158C91.4079 193.158 92.5119 194.646 92.5119 197.286C92.5119 198.822 92.5119 203.694 92.5119 203.694H94.3359V196.926ZM98.9707 202.014C98.8987 202.014 98.8507 201.942 98.8507 201.87V193.374H100.939V191.814H98.8507V187.614H97.1707C97.1707 187.638 97.1707 189.678 97.1707 191.118C97.1707 191.55 96.8347 191.886 96.4027 191.886H95.1787V193.374H97.0027C97.0027 196.326 97.0027 202.302 97.0027 202.542C97.0027 203.166 97.5067 203.67 98.1307 203.67H101.467V202.014H98.9707ZM107.647 193.158C109.783 193.158 111.055 194.766 111.271 196.95H103.999C104.215 194.766 105.511 193.158 107.647 193.158ZM113.167 198.318C113.191 198.15 113.215 197.958 113.215 197.766C113.215 194.094 110.959 191.478 107.647 191.478C104.335 191.478 102.079 194.094 102.079 197.766C102.079 201.438 104.335 204.054 107.647 204.054C110.311 204.054 112.255 202.35 112.951 199.806L111.079 199.47C110.671 201.174 109.471 202.374 107.647 202.374C105.415 202.374 104.119 200.622 103.999 198.318H113.167ZM116.993 203.694V197.862C116.993 195.87 117.929 193.254 118.889 193.254C119.537 193.254 119.729 194.118 119.729 194.79V196.11H121.577V194.406C121.577 192.63 121.001 191.478 119.609 191.478C118.889 191.478 118.289 192.006 117.857 192.63C117.425 193.23 117.185 193.926 117.113 194.334C117.089 194.406 116.993 194.982 116.969 195.054L116.897 195.51H116.873L116.921 195.198C116.969 194.814 116.993 194.454 116.993 194.07V191.838H115.169V203.694H116.993ZM131.342 191.838L127.886 201.654C127.814 201.87 127.766 202.134 127.766 202.374V202.806H127.718V202.374C127.718 202.134 127.694 201.894 127.622 201.654L124.166 191.838H122.27L126.422 203.694H129.086L133.238 191.838H131.342ZM134.692 203.694H136.54C136.54 200.67 136.54 191.886 136.54 191.838H134.692V203.694ZM135.604 190.158C136.18 190.158 136.636 189.702 136.636 189.15C136.636 188.574 136.18 188.118 135.604 188.118C135.052 188.118 134.596 188.574 134.596 189.15C134.596 189.702 135.052 190.158 135.604 190.158ZM143.835 193.158C145.971 193.158 147.243 194.766 147.459 196.95H140.187C140.403 194.766 141.699 193.158 143.835 193.158ZM149.355 198.318C149.379 198.15 149.403 197.958 149.403 197.766C149.403 194.094 147.147 191.478 143.835 191.478C140.523 191.478 138.267 194.094 138.267 197.766C138.267 201.438 140.523 204.054 143.835 204.054C146.499 204.054 148.443 202.35 149.139 199.806L147.267 199.47C146.859 201.174 145.659 202.374 143.835 202.374C141.603 202.374 140.307 200.622 140.187 198.318H149.355ZM165.219 191.838L162.435 200.214C162.339 200.478 162.291 200.742 162.291 201.03V201.438H162.243V201.03C162.243 200.742 162.219 200.478 162.123 200.214L159.339 191.838H157.515L154.731 200.214C154.659 200.478 154.611 200.742 154.611 201.03V201.438H154.563V201.03C154.563 200.742 154.515 200.478 154.443 200.214L151.659 191.838H149.763L153.579 203.694H155.403L158.283 195.15C158.355 194.886 158.403 194.598 158.403 194.31V193.974H158.451V194.31C158.451 194.598 158.499 194.886 158.595 195.15L161.451 203.694H163.275L167.115 191.838H165.219ZM184.502 197.766C184.502 200.406 183.158 202.374 180.782 202.374C178.43 202.374 177.206 200.406 177.206 197.766C177.206 195.126 178.406 193.158 180.782 193.158C183.134 193.158 184.502 195.126 184.502 197.766ZM177.11 201.822C177.11 201.462 177.062 201.102 176.966 200.766L176.87 200.454L176.918 200.43L177.182 201.318C177.494 202.326 178.406 204.054 181.118 204.054C184.262 204.054 186.35 201.438 186.35 197.766C186.35 194.118 184.262 191.478 181.118 191.478C178.406 191.478 177.494 193.206 177.182 194.262L176.918 195.102L176.87 195.078L176.966 194.79C177.062 194.43 177.11 194.07 177.11 193.71V191.838H175.286V207.918H177.11V201.822ZM189.93 203.694V197.862C189.93 195.87 190.866 193.254 191.826 193.254C192.474 193.254 192.666 194.118 192.666 194.79V196.11H194.514V194.406C194.514 192.63 193.938 191.478 192.546 191.478C191.826 191.478 191.226 192.006 190.794 192.63C190.362 193.23 190.122 193.926 190.05 194.334C190.026 194.406 189.93 194.982 189.906 195.054L189.834 195.51H189.81L189.858 195.198C189.906 194.814 189.93 194.454 189.93 194.07V191.838H188.106V203.694H189.93ZM197.56 197.766C197.56 195.126 198.928 193.158 201.304 193.158C203.656 193.158 205.024 195.126 205.024 197.766C205.024 200.406 203.656 202.374 201.304 202.374C198.928 202.374 197.56 200.406 197.56 197.766ZM206.872 197.766C206.872 194.094 204.616 191.478 201.304 191.478C197.992 191.478 195.736 194.094 195.736 197.766C195.736 201.438 197.992 204.054 201.304 204.054C204.616 204.054 206.872 201.438 206.872 197.766ZM217.584 198.942C217.224 200.982 215.952 202.374 213.96 202.374C211.584 202.374 210.216 200.406 210.216 197.766C210.216 195.126 211.584 193.158 213.96 193.158C215.952 193.158 217.224 194.55 217.584 196.59L219.408 196.398C218.928 193.422 216.84 191.478 213.96 191.478C210.648 191.478 208.392 194.094 208.392 197.766C208.392 201.438 210.648 204.054 213.96 204.054C216.84 204.054 218.928 202.11 219.408 199.158L217.584 198.942ZM226.405 193.158C228.541 193.158 229.813 194.766 230.029 196.95H222.757C222.973 194.766 224.269 193.158 226.405 193.158ZM231.925 198.318C231.949 198.15 231.973 197.958 231.973 197.766C231.973 194.094 229.717 191.478 226.405 191.478C223.093 191.478 220.837 194.094 220.837 197.766C220.837 201.438 223.093 204.054 226.405 204.054C229.069 204.054 231.013 202.35 231.709 199.806L229.837 199.47C229.429 201.174 228.229 202.374 226.405 202.374C224.173 202.374 222.877 200.622 222.757 198.318H231.925ZM242.735 200.598C242.735 198.102 240.431 197.406 238.511 196.926C237.479 196.662 235.535 196.23 235.535 194.766C235.535 193.878 236.255 193.014 238.031 193.014C239.999 193.014 240.599 194.094 240.599 195.294H242.303C242.303 193.35 241.199 191.478 237.983 191.478C234.935 191.478 233.687 192.966 233.687 194.598C233.687 196.734 235.319 197.598 237.575 198.15C239.807 198.678 240.887 199.326 240.887 200.502C240.887 201.798 239.759 202.494 238.199 202.494C235.607 202.494 235.247 200.646 235.247 199.902H233.423C233.423 201.894 234.695 204.03 238.271 204.03C241.391 204.03 242.735 202.47 242.735 200.598ZM253.539 200.598C253.539 198.102 251.235 197.406 249.315 196.926C248.283 196.662 246.339 196.23 246.339 194.766C246.339 193.878 247.059 193.014 248.835 193.014C250.803 193.014 251.403 194.094 251.403 195.294H253.107C253.107 193.35 252.003 191.478 248.787 191.478C245.739 191.478 244.491 192.966 244.491 194.598C244.491 196.734 246.123 197.598 248.379 198.15C250.611 198.678 251.691 199.326 251.691 200.502C251.691 201.798 250.563 202.494 249.003 202.494C246.411 202.494 246.051 200.646 246.051 199.902H244.227C244.227 201.894 245.499 204.03 249.075 204.03C252.195 204.03 253.539 202.47 253.539 200.598ZM265.096 202.014C265.024 202.014 264.976 201.942 264.976 201.87V193.374H267.064V191.814H264.976V187.614H263.296C263.296 187.638 263.296 189.678 263.296 191.118C263.296 191.55 262.96 191.886 262.528 191.886H261.304V193.374H263.128C263.128 196.326 263.128 202.302 263.128 202.542C263.128 203.166 263.632 203.67 264.256 203.67H267.592V202.014H265.096ZM278.812 203.694V196.926C278.812 193.422 277.252 191.478 274.348 191.478C273.028 191.478 272.068 192.006 271.444 192.606C270.94 193.062 270.652 193.638 270.484 194.166L270.316 194.742L270.268 194.718L270.364 194.406C270.46 194.07 270.508 193.71 270.508 193.35V187.638H268.684V203.694H270.508V197.046C270.508 194.718 271.804 193.158 273.796 193.158C276.028 193.158 276.988 194.646 276.988 197.286C276.988 198.822 276.988 203.694 276.988 203.694H278.812ZM282.954 203.694V197.862C282.954 195.87 283.89 193.254 284.85 193.254C285.498 193.254 285.69 194.118 285.69 194.79V196.11H287.538V194.406C287.538 192.63 286.962 191.478 285.57 191.478C284.85 191.478 284.25 192.006 283.818 192.63C283.386 193.23 283.146 193.926 283.074 194.334C283.05 194.406 282.954 194.982 282.93 195.054L282.858 195.51H282.834L282.882 195.198C282.93 194.814 282.954 194.454 282.954 194.07V191.838H281.13V203.694H282.954ZM290.583 197.766C290.583 195.126 291.951 193.158 294.327 193.158C296.679 193.158 298.047 195.126 298.047 197.766C298.047 200.406 296.679 202.374 294.327 202.374C291.951 202.374 290.583 200.406 290.583 197.766ZM299.895 197.766C299.895 194.094 297.639 191.478 294.327 191.478C291.015 191.478 288.759 194.094 288.759 197.766C288.759 201.438 291.015 204.054 294.327 204.054C297.639 204.054 299.895 201.438 299.895 197.766ZM301.727 191.838V198.606C301.727 202.11 303.263 204.03 306.191 204.03C308.495 204.03 309.551 202.614 309.935 201.678L310.223 200.79L310.247 200.814L310.175 201.102C310.079 201.462 310.031 201.798 310.031 202.158V203.67H311.855V191.838H310.031V198.486C310.031 200.814 308.711 202.374 306.743 202.374C304.511 202.374 303.551 200.886 303.551 198.246C303.551 196.71 303.551 191.838 303.551 191.838H301.727ZM319.405 202.374C317.029 202.374 315.661 200.406 315.661 197.766C315.661 195.126 317.029 193.158 319.405 193.158C321.757 193.158 322.981 195.126 322.981 197.766C322.981 200.406 321.781 202.374 319.405 202.374ZM324.901 201.894V191.838H323.053V193.71C323.053 194.07 323.101 194.43 323.197 194.79L323.293 195.078L323.269 195.102L322.981 194.214C322.669 193.206 321.781 191.478 319.069 191.478C315.925 191.478 313.837 194.118 313.837 197.766C313.837 201.414 315.901 204.054 319.069 204.054C321.781 204.054 322.693 202.326 323.005 201.294L323.269 200.43L323.293 200.454L323.197 200.766C323.125 201.03 323.077 201.318 323.077 201.606C323.077 201.678 323.053 202.326 323.053 202.398C323.053 203.502 323.653 204.198 323.653 205.014C323.653 206.166 322.717 206.382 321.661 206.358H315.757V207.918H322.309C324.541 207.918 325.549 207.054 325.549 205.302C325.549 203.838 324.901 203.502 324.901 201.894ZM337.547 203.694V196.926C337.547 193.422 335.987 191.478 333.083 191.478C331.763 191.478 330.803 192.006 330.179 192.606C329.675 193.062 329.387 193.638 329.219 194.166L329.051 194.742L329.003 194.718L329.099 194.406C329.195 194.07 329.243 193.71 329.243 193.35V187.638H327.419V203.694H329.243V197.046C329.243 194.718 330.539 193.158 332.531 193.158C334.763 193.158 335.723 194.646 335.723 197.286C335.723 198.822 335.723 203.694 335.723 203.694H337.547ZM349.424 202.014C349.352 202.014 349.304 201.942 349.304 201.87V193.374H351.392V191.814H349.304V187.614H347.624C347.624 187.638 347.624 189.678 347.624 191.118C347.624 191.55 347.288 191.886 346.856 191.886H345.632V193.374H347.456C347.456 196.326 347.456 202.302 347.456 202.542C347.456 203.166 347.96 203.67 348.584 203.67H351.92V202.014H349.424ZM354.357 197.766C354.357 195.126 355.725 193.158 358.101 193.158C360.453 193.158 361.821 195.126 361.821 197.766C361.821 200.406 360.453 202.374 358.101 202.374C355.725 202.374 354.357 200.406 354.357 197.766ZM363.669 197.766C363.669 194.094 361.413 191.478 358.101 191.478C354.789 191.478 352.533 194.094 352.533 197.766C352.533 201.438 354.789 204.054 358.101 204.054C361.413 204.054 363.669 201.438 363.669 197.766ZM373.693 197.766C373.693 195.126 375.061 193.158 377.437 193.158C379.789 193.158 381.157 195.126 381.157 197.766C381.157 200.406 379.789 202.374 377.437 202.374C375.061 202.374 373.693 200.406 373.693 197.766ZM383.005 197.766C383.005 194.094 380.749 191.478 377.437 191.478C374.125 191.478 371.869 194.094 371.869 197.766C371.869 201.438 374.125 204.054 377.437 204.054C380.749 204.054 383.005 201.438 383.005 197.766ZM393.765 191.838C393.765 191.838 393.597 190.686 393.597 190.134C393.597 189.558 393.933 189.174 394.389 189.174H395.397V187.614H393.717C392.445 187.614 391.893 188.502 391.893 189.486C391.893 190.206 392.037 190.974 392.181 191.382C392.229 191.574 392.373 191.742 392.541 191.814C392.613 191.886 392.829 191.982 392.901 192.006V192.03C392.853 192.03 392.709 191.982 392.661 191.958C392.349 191.886 392.013 191.838 391.701 191.838H387.789C387.789 191.838 387.621 190.686 387.621 190.134C387.621 189.558 387.957 189.174 388.413 189.174H389.421V187.614H387.741C386.469 187.614 385.917 188.502 385.917 189.486C385.917 190.206 386.061 190.974 386.205 191.382C386.253 191.574 386.397 191.742 386.565 191.814C386.637 191.886 386.853 191.982 386.925 192.006V192.03C386.877 192.03 386.733 191.982 386.685 191.958C386.373 191.886 386.037 191.838 385.725 191.838H384.021V193.374H386.085V203.67H387.933V193.374H392.061V203.694H393.909V193.374H396.285V191.838H393.765ZM402.796 193.158C404.932 193.158 406.204 194.766 406.42 196.95H399.148C399.364 194.766 400.66 193.158 402.796 193.158ZM408.316 198.318C408.34 198.15 408.364 197.958 408.364 197.766C408.364 194.094 406.108 191.478 402.796 191.478C399.484 191.478 397.228 194.094 397.228 197.766C397.228 201.438 399.484 204.054 402.796 204.054C405.46 204.054 407.404 202.35 408.1 199.806L406.228 199.47C405.82 201.174 404.62 202.374 402.796 202.374C400.564 202.374 399.268 200.622 399.148 198.318H408.316ZM412.141 203.694V197.862C412.141 195.87 413.077 193.254 414.037 193.254C414.685 193.254 414.877 194.118 414.877 194.79V196.11H416.725V194.406C416.725 192.63 416.149 191.478 414.757 191.478C414.037 191.478 413.437 192.006 413.005 192.63C412.573 193.23 412.333 193.926 412.261 194.334C412.237 194.406 412.141 194.982 412.117 195.054L412.045 195.51H412.021L412.069 195.198C412.117 194.814 412.141 194.454 412.141 194.07V191.838H410.317V203.694H412.141ZM418.402 202.59C418.258 202.086 417.754 201.75 417.226 201.87C416.794 201.942 416.458 202.326 416.434 202.758C416.434 202.926 416.458 203.094 416.53 203.238C416.602 203.334 416.554 203.454 416.506 203.526L415.618 204.462L416.506 205.302L418.186 203.502C418.426 203.262 418.474 202.926 418.402 202.59ZM87.2874 222.798C87.2874 224.79 85.9914 226.422 83.6154 226.422C82.2714 226.422 81.4074 225.678 81.2874 224.646C81.1674 223.566 81.7914 222.51 83.3274 222.222C84.1674 222.078 85.6074 221.79 86.1594 221.67C87.0714 221.502 87.2874 221.214 87.2874 221.214V222.798ZM90.0954 226.134H89.2554C89.1834 226.134 89.1354 226.086 89.1354 226.014V219.966C89.1594 217.158 87.5754 215.478 84.5514 215.478C82.9674 215.478 81.6234 216.006 80.7834 216.966C79.9914 217.854 79.7514 218.982 79.9914 220.086L81.7914 219.822C81.6714 219.246 81.6954 218.526 82.1514 217.95C82.5354 217.494 83.2554 217.014 84.5274 217.014C86.2794 217.014 87.2154 217.974 87.2154 219.15C87.2154 219.63 86.9994 219.942 86.5914 220.11C86.2314 220.254 85.5834 220.35 84.7434 220.518C84.0954 220.662 82.9674 220.902 82.1994 221.118C80.0154 221.718 79.3914 223.182 79.4394 224.694C79.4634 226.422 80.8314 228.054 83.3034 228.054C84.9114 228.054 86.1114 227.43 86.8794 226.494C87.2394 226.038 87.4794 225.438 87.5994 224.838C87.6234 224.79 87.6954 224.43 87.6954 224.43H87.7194L87.6954 224.598C87.6234 224.958 87.5994 225.318 87.5754 225.678C87.5754 225.822 87.5754 226.374 87.5754 226.806C87.5754 227.31 87.9354 227.694 88.4874 227.694H90.0954V226.134ZM102.047 220.926C102.047 217.422 100.367 215.478 97.5828 215.478C95.9748 215.478 94.9188 216.198 94.3188 216.942C94.0308 217.302 93.8628 217.734 93.7428 218.118L93.5508 218.742L93.5028 218.718L93.5988 218.406C93.6948 218.07 93.7428 217.71 93.7428 217.35V215.838H91.9188V227.694H93.7428V221.046C93.7428 218.718 95.0388 217.158 97.0308 217.158C99.1188 217.158 100.223 218.646 100.223 221.286C100.223 222.822 100.223 227.694 100.223 227.694H102.047V220.926ZM105.685 221.766C105.685 219.102 107.053 217.134 109.429 217.134C111.781 217.134 113.005 219.102 113.005 221.766C113.005 224.406 111.805 226.374 109.429 226.374C107.053 226.374 105.685 224.406 105.685 221.766ZM113.077 211.614V217.71C113.077 218.07 113.125 218.43 113.221 218.766L113.317 219.078H113.293L113.005 218.214C112.693 217.182 111.805 215.478 109.093 215.478C105.949 215.478 103.861 218.094 103.861 221.766C103.861 225.414 105.925 228.03 109.093 228.03C111.805 228.03 112.717 226.302 113.029 225.27L113.293 224.43H113.317L113.221 224.742C113.125 225.078 113.077 225.438 113.077 225.798V227.694H114.925V211.614H113.077ZM133.003 217.806C132.355 216.054 131.011 215.478 129.523 215.478C127.963 215.478 127.051 216.198 126.499 216.942C126.187 217.326 125.995 217.758 125.875 218.166L125.707 218.742L125.659 218.718L125.755 218.406C125.851 218.07 125.899 217.71 125.899 217.35V215.838H124.075V227.694H125.899V221.046C125.899 218.718 127.003 217.158 128.851 217.158C130.435 217.158 131.635 218.07 131.635 221.046C131.635 222.558 131.635 227.694 131.635 227.694H133.483V221.046C133.483 218.718 134.563 217.158 136.435 217.158C138.019 217.158 139.219 218.262 139.219 220.926C139.219 222.438 139.219 227.694 139.219 227.694H141.067V220.422C141.067 216.942 139.195 215.478 136.915 215.478C134.971 215.478 133.963 216.678 133.531 217.446C133.315 217.83 133.171 218.214 133.123 218.454C133.099 218.502 133.051 218.742 133.051 218.742L133.027 218.718L133.051 218.55C133.123 218.262 133.099 218.022 133.003 217.806ZM150.756 222.798C150.756 224.79 149.46 226.422 147.084 226.422C145.74 226.422 144.876 225.678 144.756 224.646C144.636 223.566 145.26 222.51 146.796 222.222C147.636 222.078 149.076 221.79 149.628 221.67C150.54 221.502 150.756 221.214 150.756 221.214V222.798ZM153.564 226.134H152.724C152.652 226.134 152.604 226.086 152.604 226.014V219.966C152.628 217.158 151.044 215.478 148.02 215.478C146.436 215.478 145.092 216.006 144.252 216.966C143.46 217.854 143.22 218.982 143.46 220.086L145.26 219.822C145.14 219.246 145.164 218.526 145.62 217.95C146.004 217.494 146.724 217.014 147.996 217.014C149.748 217.014 150.684 217.974 150.684 219.15C150.684 219.63 150.468 219.942 150.06 220.11C149.7 220.254 149.052 220.35 148.212 220.518C147.564 220.662 146.436 220.902 145.668 221.118C143.484 221.718 142.86 223.182 142.908 224.694C142.932 226.422 144.3 228.054 146.772 228.054C148.38 228.054 149.58 227.43 150.348 226.494C150.708 226.038 150.948 225.438 151.068 224.838C151.092 224.79 151.164 224.43 151.164 224.43H151.188L151.164 224.598C151.092 224.958 151.068 225.318 151.044 225.678C151.044 225.822 151.044 226.374 151.044 226.806C151.044 227.31 151.404 227.694 151.956 227.694H153.564V226.134ZM162.348 219.726L164.868 215.838H162.66C162.66 215.838 157.74 223.47 157.596 223.686C157.404 223.998 157.284 224.358 157.284 224.742L157.26 225.102H157.212V211.638H155.388V227.694H157.188L160.692 222.27L163.596 227.694H165.636L162.276 221.286C162.012 220.782 162.036 220.182 162.348 219.726ZM171.046 217.158C173.182 217.158 174.454 218.766 174.67 220.95H167.398C167.614 218.766 168.91 217.158 171.046 217.158ZM176.566 222.318C176.59 222.15 176.614 221.958 176.614 221.766C176.614 218.094 174.358 215.478 171.046 215.478C167.734 215.478 165.478 218.094 165.478 221.766C165.478 225.438 167.734 228.054 171.046 228.054C173.71 228.054 175.654 226.35 176.35 223.806L174.478 223.47C174.07 225.174 172.87 226.374 171.046 226.374C168.814 226.374 167.518 224.622 167.398 222.318H176.566ZM194.055 224.598C194.055 222.102 191.751 221.406 189.831 220.926C188.799 220.662 186.855 220.23 186.855 218.766C186.855 217.878 187.575 217.014 189.351 217.014C191.319 217.014 191.919 218.094 191.919 219.294H193.623C193.623 217.35 192.519 215.478 189.303 215.478C186.255 215.478 185.007 216.966 185.007 218.598C185.007 220.734 186.639 221.598 188.895 222.15C191.127 222.678 192.207 223.326 192.207 224.502C192.207 225.798 191.079 226.494 189.519 226.494C186.927 226.494 186.567 224.646 186.567 223.902H184.743C184.743 225.894 186.015 228.03 189.591 228.03C192.711 228.03 194.055 226.47 194.055 224.598ZM195.884 215.838V222.606C195.884 226.11 197.42 228.03 200.348 228.03C202.652 228.03 203.708 226.614 204.092 225.678L204.38 224.79L204.404 224.814L204.332 225.102C204.236 225.462 204.188 225.798 204.188 226.158V227.67H206.012V215.838H204.188V222.486C204.188 224.814 202.868 226.374 200.9 226.374C198.668 226.374 197.708 224.886 197.708 222.246C197.708 220.71 197.708 215.838 197.708 215.838H195.884ZM210.298 227.694V221.862C210.298 219.87 211.234 217.254 212.194 217.254C212.842 217.254 213.034 218.118 213.034 218.79V220.11H214.882V218.406C214.882 216.63 214.306 215.478 212.914 215.478C212.194 215.478 211.594 216.006 211.162 216.63C210.73 217.23 210.49 217.926 210.418 218.334C210.394 218.406 210.298 218.982 210.274 219.054L210.202 219.51H210.178L210.226 219.198C210.274 218.814 210.298 218.454 210.298 218.07V215.838H208.474V227.694H210.298ZM221.671 217.158C223.807 217.158 225.079 218.766 225.295 220.95H218.023C218.239 218.766 219.535 217.158 221.671 217.158ZM227.191 222.318C227.215 222.15 227.239 221.958 227.239 221.766C227.239 218.094 224.983 215.478 221.671 215.478C218.359 215.478 216.103 218.094 216.103 221.766C216.103 225.438 218.359 228.054 221.671 228.054C224.335 228.054 226.279 226.35 226.975 223.806L225.103 223.47C224.695 225.174 223.495 226.374 221.671 226.374C219.439 226.374 218.143 224.622 218.023 222.318H227.191ZM238.752 226.014C238.68 226.014 238.632 225.942 238.632 225.87V217.374H240.72V215.814H238.632V211.614H236.952C236.952 211.638 236.952 213.678 236.952 215.118C236.952 215.55 236.616 215.886 236.184 215.886H234.96V217.374H236.784C236.784 220.326 236.784 226.302 236.784 226.542C236.784 227.166 237.288 227.67 237.912 227.67H241.248V226.014H238.752ZM252.469 227.694V220.926C252.469 217.422 250.909 215.478 248.005 215.478C246.685 215.478 245.725 216.006 245.101 216.606C244.597 217.062 244.309 217.638 244.141 218.166L243.973 218.742L243.925 218.718L244.021 218.406C244.117 218.07 244.165 217.71 244.165 217.35V211.638H242.341V227.694H244.165V221.046C244.165 218.718 245.461 217.158 247.453 217.158C249.685 217.158 250.645 218.646 250.645 221.286C250.645 222.822 250.645 227.694 250.645 227.694H252.469ZM259.874 217.158C262.01 217.158 263.282 218.766 263.498 220.95H256.226C256.442 218.766 257.738 217.158 259.874 217.158ZM265.394 222.318C265.418 222.15 265.442 221.958 265.442 221.766C265.442 218.094 263.186 215.478 259.874 215.478C256.562 215.478 254.306 218.094 254.306 221.766C254.306 225.438 256.562 228.054 259.874 228.054C262.538 228.054 264.482 226.35 265.178 223.806L263.306 223.47C262.898 225.174 261.698 226.374 259.874 226.374C257.642 226.374 256.346 224.622 256.226 222.318H265.394ZM274.571 215.814L271.091 224.43C271.019 224.646 270.971 224.862 270.971 225.078V225.486H270.923V225.078C270.923 224.862 270.875 224.646 270.803 224.43L267.323 215.814H265.355L269.675 226.422C269.867 226.878 269.867 227.358 269.675 227.814L268.019 231.894H269.987L276.539 215.814H274.571ZM279.249 211.254C278.817 211.35 278.481 211.71 278.457 212.166C278.457 212.31 278.481 212.478 278.553 212.622C278.625 212.742 278.577 212.838 278.529 212.91L277.641 213.846L278.529 214.71L280.209 212.91C280.449 212.646 280.497 212.31 280.425 211.998C280.281 211.47 279.777 211.158 279.249 211.254ZM283.001 227.694V221.862C283.001 219.87 283.937 217.254 284.897 217.254C285.545 217.254 285.737 218.118 285.737 218.79V220.11H287.585V218.406C287.585 216.63 287.009 215.478 285.617 215.478C284.897 215.478 284.297 216.006 283.865 216.63C283.433 217.23 283.193 217.926 283.121 218.334C283.097 218.406 283.001 218.982 282.977 219.054L282.905 219.51H282.881L282.929 219.198C282.977 218.814 283.001 218.454 283.001 218.07V215.838H281.177V227.694H283.001ZM294.374 217.158C296.51 217.158 297.782 218.766 297.998 220.95H290.726C290.942 218.766 292.238 217.158 294.374 217.158ZM299.894 222.318C299.918 222.15 299.942 221.958 299.942 221.766C299.942 218.094 297.686 215.478 294.374 215.478C291.062 215.478 288.806 218.094 288.806 221.766C288.806 225.438 291.062 228.054 294.374 228.054C297.038 228.054 298.982 226.35 299.678 223.806L297.806 223.47C297.398 225.174 296.198 226.374 294.374 226.374C292.142 226.374 290.846 224.622 290.726 222.318H299.894ZM317.383 224.598C317.383 222.102 315.079 221.406 313.159 220.926C312.127 220.662 310.183 220.23 310.183 218.766C310.183 217.878 310.903 217.014 312.679 217.014C314.647 217.014 315.247 218.094 315.247 219.294H316.951C316.951 217.35 315.847 215.478 312.631 215.478C309.583 215.478 308.335 216.966 308.335 218.598C308.335 220.734 309.967 221.598 312.223 222.15C314.455 222.678 315.535 223.326 315.535 224.502C315.535 225.798 314.407 226.494 312.847 226.494C310.255 226.494 309.895 224.646 309.895 223.902H308.071C308.071 225.894 309.343 228.03 312.919 228.03C316.039 228.03 317.383 226.47 317.383 224.598ZM324.468 217.158C326.604 217.158 327.876 218.766 328.092 220.95H320.82C321.036 218.766 322.332 217.158 324.468 217.158ZM329.988 222.318C330.012 222.15 330.036 221.958 330.036 221.766C330.036 218.094 327.78 215.478 324.468 215.478C321.156 215.478 318.9 218.094 318.9 221.766C318.9 225.438 321.156 228.054 324.468 228.054C327.132 228.054 329.076 226.35 329.772 223.806L327.9 223.47C327.492 225.174 326.292 226.374 324.468 226.374C322.236 226.374 320.94 224.622 320.82 222.318H329.988ZM334.33 226.014C334.258 226.014 334.21 225.942 334.21 225.87V217.374H336.298V215.814H334.21V211.614H332.53C332.53 211.638 332.53 213.678 332.53 215.118C332.53 215.55 332.194 215.886 331.762 215.886H330.538V217.374H332.362C332.362 220.326 332.362 226.302 332.362 226.542C332.362 227.166 332.866 227.67 333.49 227.67H336.826V226.014H334.33ZM337.714 221.43H345.874V219.678H337.714V221.43ZM347.524 215.838V222.606C347.524 226.11 349.06 228.03 351.988 228.03C354.292 228.03 355.348 226.614 355.732 225.678L356.02 224.79L356.044 224.814L355.972 225.102C355.876 225.462 355.828 225.798 355.828 226.158V227.67H357.652V215.838H355.828V222.486C355.828 224.814 354.508 226.374 352.54 226.374C350.308 226.374 349.348 224.886 349.348 222.246C349.348 220.71 349.348 215.838 349.348 215.838H347.524ZM369.33 221.766C369.33 224.406 367.986 226.374 365.61 226.374C363.258 226.374 362.034 224.406 362.034 221.766C362.034 219.126 363.234 217.158 365.61 217.158C367.962 217.158 369.33 219.126 369.33 221.766ZM361.938 225.822C361.938 225.462 361.89 225.102 361.794 224.766L361.698 224.454L361.746 224.43L362.01 225.318C362.322 226.326 363.234 228.054 365.946 228.054C369.09 228.054 371.178 225.438 371.178 221.766C371.178 218.118 369.09 215.478 365.946 215.478C363.234 215.478 362.322 217.206 362.01 218.262L361.746 219.102L361.698 219.078L361.794 218.79C361.89 218.43 361.938 218.07 361.938 217.71V215.838H360.114V231.918H361.938V225.822ZM82.8474 241.494H85.2234V239.814H82.7034C82.7034 239.814 82.5354 238.686 82.5354 238.134C82.5354 237.558 82.8714 237.174 83.3274 237.174H84.3354V235.614H82.6554C81.3834 235.614 80.8314 236.502 80.8314 237.486C80.8314 238.206 80.9754 238.974 81.1194 239.382C81.1674 239.574 81.3114 239.718 81.4794 239.814C81.5514 239.862 81.7674 239.982 81.8394 239.982V240.03C81.7914 240.03 81.6474 239.982 81.5994 239.958C81.2874 239.886 80.9514 239.814 80.6394 239.814H78.9354V241.494H80.9994V251.67H82.8474V241.494ZM87.755 245.766C87.755 243.126 89.123 241.158 91.499 241.158C93.851 241.158 95.219 243.126 95.219 245.766C95.219 248.406 93.851 250.374 91.499 250.374C89.123 250.374 87.755 248.406 87.755 245.766ZM97.067 245.766C97.067 242.094 94.811 239.478 91.499 239.478C88.187 239.478 85.931 242.094 85.931 245.766C85.931 249.438 88.187 252.054 91.499 252.054C94.811 252.054 97.067 249.438 97.067 245.766ZM100.657 251.694V245.862C100.657 243.87 101.593 241.254 102.553 241.254C103.201 241.254 103.393 242.118 103.393 242.79V244.11H105.241V242.406C105.241 240.63 104.665 239.478 103.273 239.478C102.553 239.478 101.953 240.006 101.521 240.63C101.089 241.23 100.849 241.926 100.777 242.334C100.753 242.406 100.657 242.982 100.633 243.054L100.561 243.51H100.537L100.585 243.198C100.633 242.814 100.657 242.454 100.657 242.07V239.838H98.8329V251.694H100.657ZM122.43 248.598C122.43 246.102 120.126 245.406 118.206 244.926C117.174 244.662 115.23 244.23 115.23 242.766C115.23 241.878 115.95 241.014 117.726 241.014C119.694 241.014 120.294 242.094 120.294 243.294H121.998C121.998 241.35 120.894 239.478 117.678 239.478C114.63 239.478 113.382 240.966 113.382 242.598C113.382 244.734 115.014 245.598 117.27 246.15C119.502 246.678 120.582 247.326 120.582 248.502C120.582 249.798 119.454 250.494 117.894 250.494C115.302 250.494 114.942 248.646 114.942 247.902H113.118C113.118 249.894 114.39 252.03 117.966 252.03C121.086 252.03 122.43 250.47 122.43 248.598ZM124.259 239.838V246.606C124.259 250.11 125.795 252.03 128.723 252.03C131.027 252.03 132.083 250.614 132.467 249.678L132.755 248.79L132.779 248.814L132.707 249.102C132.611 249.462 132.563 249.798 132.563 250.158V251.67H134.387V239.838H132.563V246.486C132.563 248.814 131.243 250.374 129.275 250.374C127.043 250.374 126.083 248.886 126.083 246.246C126.083 244.71 126.083 239.838 126.083 239.838H124.259ZM145.561 246.942C145.201 248.982 143.929 250.374 141.937 250.374C139.561 250.374 138.193 248.406 138.193 245.766C138.193 243.126 139.561 241.158 141.937 241.158C143.929 241.158 145.201 242.55 145.561 244.59L147.385 244.398C146.905 241.422 144.817 239.478 141.937 239.478C138.625 239.478 136.369 242.094 136.369 245.766C136.369 249.438 138.625 252.054 141.937 252.054C144.817 252.054 146.905 250.11 147.385 247.158L145.561 246.942ZM158.006 246.942C157.646 248.982 156.374 250.374 154.382 250.374C152.006 250.374 150.638 248.406 150.638 245.766C150.638 243.126 152.006 241.158 154.382 241.158C156.374 241.158 157.646 242.55 158.006 244.59L159.83 244.398C159.35 241.422 157.262 239.478 154.382 239.478C151.07 239.478 148.814 242.094 148.814 245.766C148.814 249.438 151.07 252.054 154.382 252.054C157.262 252.054 159.35 250.11 159.83 247.158L158.006 246.942ZM166.827 241.158C168.963 241.158 170.235 242.766 170.451 244.95H163.179C163.395 242.766 164.691 241.158 166.827 241.158ZM172.347 246.318C172.371 246.15 172.395 245.958 172.395 245.766C172.395 242.094 170.139 239.478 166.827 239.478C163.515 239.478 161.259 242.094 161.259 245.766C161.259 249.438 163.515 252.054 166.827 252.054C169.491 252.054 171.435 250.35 172.131 247.806L170.259 247.47C169.851 249.174 168.651 250.374 166.827 250.374C164.595 250.374 163.299 248.622 163.179 246.318H172.347ZM183.157 248.598C183.157 246.102 180.853 245.406 178.933 244.926C177.901 244.662 175.957 244.23 175.957 242.766C175.957 241.878 176.677 241.014 178.453 241.014C180.421 241.014 181.021 242.094 181.021 243.294H182.725C182.725 241.35 181.621 239.478 178.405 239.478C175.357 239.478 174.109 240.966 174.109 242.598C174.109 244.734 175.741 245.598 177.997 246.15C180.229 246.678 181.309 247.326 181.309 248.502C181.309 249.798 180.181 250.494 178.621 250.494C176.029 250.494 175.669 248.646 175.669 247.902H173.845C173.845 249.894 175.117 252.03 178.693 252.03C181.813 252.03 183.157 250.47 183.157 248.598ZM193.961 248.598C193.961 246.102 191.657 245.406 189.737 244.926C188.705 244.662 186.761 244.23 186.761 242.766C186.761 241.878 187.481 241.014 189.257 241.014C191.225 241.014 191.825 242.094 191.825 243.294H193.529C193.529 241.35 192.425 239.478 189.209 239.478C186.161 239.478 184.913 240.966 184.913 242.598C184.913 244.734 186.545 245.598 188.801 246.15C191.033 246.678 192.113 247.326 192.113 248.502C192.113 249.798 190.985 250.494 189.425 250.494C186.833 250.494 186.473 248.646 186.473 247.902H184.649C184.649 249.894 185.921 252.03 189.497 252.03C192.617 252.03 193.961 250.47 193.961 248.598ZM196.126 251.838C196.702 251.838 197.158 251.358 197.158 250.806C197.158 250.23 196.702 249.774 196.126 249.774C195.574 249.774 195.118 250.23 195.118 250.806C195.118 251.358 195.574 251.838 196.126 251.838Z" fill="#303030"/>
<path fill-rule="evenodd" clip-rule="evenodd" d="M415 42.4064C426.046 42.4064 435 51.5473 435 62.8231C435 65.9912 434.296 68.9799 433.043 71.6453C432.494 72.8133 432.278 74.1938 432.557 75.5861L433.885 82.1919L427.061 80.8884C425.761 80.6401 424.479 80.8489 423.384 81.3658C420.839 82.5673 418.002 83.2397 415 83.2397C403.955 83.2397 395 74.0989 395 62.8231C395 51.5473 403.955 42.4064 415 42.4064ZM443 62.8231C443 47.0369 430.464 34.2397 415 34.2397C399.536 34.2397 387 47.0369 387 62.8231C387 78.6092 399.536 91.4064 415 91.4064C418.972 91.4064 422.759 90.5599 426.192 89.0308L435.339 90.778C439.529 91.5783 443.177 87.7886 442.32 83.5262L440.524 74.5903C442.116 70.997 443 67.0103 443 62.8231Z" fill="#303030"/>
<path fill-rule="evenodd" clip-rule="evenodd" d="M381.003 63.51C375.015 67.0463 371 73.6459 371 81.1978C371 84.3659 371.704 87.3546 372.958 90.02C373.507 91.1881 373.723 92.5685 373.443 93.9608L372.115 100.567L378.94 99.2632C380.24 99.0149 381.522 99.2236 382.616 99.7406C385.161 100.942 387.998 101.614 391 101.614C396.125 101.614 400.792 99.652 404.333 96.4167L409.668 102.502C404.717 107.026 398.169 109.781 391 109.781C387.029 109.781 383.241 108.935 379.809 107.406L370.661 109.153C366.472 109.953 362.823 106.163 363.68 101.901L365.477 92.965C363.885 89.3717 363 85.385 363 81.1978C363 70.6128 368.639 61.3769 376.997 56.4409L381.003 63.51Z" fill="#FFF6E9"/>
</svg>
