<svg width="475" height="300" viewBox="0 0 475 300" fill="none" xmlns="http://www.w3.org/2000/svg">
<rect x="0.741089" y="0.26123" width="474.259" height="299" rx="10" fill="#8CD87C"/>
<path d="M61.6922 56.0909C61.6922 52.1549 58.3322 50.7149 54.0442 49.5949C50.2362 48.6349 48.4762 47.6749 48.4762 45.4989C48.4762 43.6109 50.0122 42.1709 53.3082 42.1709C56.6042 42.1709 58.2682 43.9629 58.2682 46.7149H60.8922C60.8922 43.0989 58.8762 39.8989 53.3082 39.8989C48.0602 39.8989 45.8522 42.4269 45.8522 45.4669C45.8522 48.8589 48.1242 50.5869 52.8602 51.7389C57.1482 52.7949 59.0362 53.6909 59.0362 56.2509C59.0362 58.4589 57.1162 60.0269 53.7882 60.0269C49.9482 60.0269 47.9642 57.8829 47.9642 54.9709H45.3402C45.3402 58.9389 47.9002 62.2669 53.8522 62.2669C59.5162 62.2669 61.6922 59.2589 61.6922 56.0909ZM68.1655 59.5789C68.0695 59.5789 68.0055 59.4829 68.0055 59.3869V48.0589H70.7895V45.9789H68.0055V40.3789H65.7655C65.7655 40.4109 65.7655 43.1309 65.7655 45.0509C65.7655 45.6269 65.3175 46.0749 64.7415 46.0749H63.1095V48.0589H65.5415C65.5415 51.9949 65.5415 59.9629 65.5415 60.2829C65.5415 61.1149 66.2135 61.7869 67.0455 61.7869H71.4935V59.5789H68.1655ZM79.7345 47.7709C82.5825 47.7709 84.2785 49.9149 84.5665 52.8269H74.8705C75.1585 49.9149 76.8865 47.7709 79.7345 47.7709ZM87.0945 54.6509C87.1265 54.4269 87.1585 54.1709 87.1585 53.9149C87.1585 49.0189 84.1505 45.5309 79.7345 45.5309C75.3185 45.5309 72.3105 49.0189 72.3105 53.9149C72.3105 58.8109 75.3185 62.2989 79.7345 62.2989C83.2865 62.2989 85.8785 60.0269 86.8065 56.6349L84.3105 56.1869C83.7665 58.4589 82.1665 60.0589 79.7345 60.0589C76.7585 60.0589 75.0305 57.7229 74.8705 54.6509H87.0945ZM102.051 53.9149C102.051 57.4349 100.259 60.0589 97.091 60.0589C93.955 60.0589 92.323 57.4349 92.323 53.9149C92.323 50.3949 93.923 47.7709 97.091 47.7709C100.227 47.7709 102.051 50.3949 102.051 53.9149ZM92.195 59.3229C92.195 58.8429 92.131 58.3629 92.003 57.9149L91.875 57.4989L91.939 57.4669L92.291 58.6509C92.707 59.9949 93.923 62.2989 97.539 62.2989C101.731 62.2989 104.515 58.8109 104.515 53.9149C104.515 49.0509 101.731 45.5309 97.539 45.5309C93.923 45.5309 92.707 47.8349 92.291 49.2429L91.939 50.3629L91.875 50.3309L92.003 49.9469C92.131 49.4669 92.195 48.9869 92.195 48.5069V46.0109H89.763V67.4509H92.195V59.3229ZM115.467 54.9389C115.435 59.5789 119.211 62.2669 123.371 62.2669C127.595 62.2669 131.499 59.7389 131.499 54.6829C131.499 50.4269 128.203 47.3229 123.947 47.3229C120.779 47.3229 119.275 48.7309 118.539 49.7549L118.347 50.0109L118.283 49.9789L118.347 49.9469C118.731 49.4669 118.795 49.0829 118.859 48.4749L119.691 42.7149H129.835V40.3789H117.483L115.915 51.8349H118.923C119.179 51.3229 120.555 49.7869 123.467 49.7869C126.347 49.7869 128.875 51.7709 128.875 54.8429C128.875 58.3949 126.123 59.9309 123.371 59.9309C120.715 59.9309 118.059 58.2029 118.091 54.9389H115.467ZM134.424 62.0109C135.192 62.0109 135.8 61.3709 135.8 60.6349C135.8 59.8669 135.192 59.2589 134.424 59.2589C133.688 59.2589 133.08 59.8669 133.08 60.6349C133.08 61.3709 133.688 62.0109 134.424 62.0109ZM65.4922 83.0269H44.4922V88.8269H51.6122V109.787H58.3322V88.8269H65.4922V83.0269ZM85.7032 109.827V98.2269C85.7032 92.9869 83.4232 89.4669 78.8232 89.4669C77.0632 89.4669 75.8632 89.9869 75.0232 90.5869C73.9832 91.3869 73.6232 92.4269 73.4232 93.2269L73.2232 94.1469H73.1432L73.2632 93.7469C73.3832 93.0269 73.4632 92.2669 73.4632 91.5469V83.0669H67.3432V109.827H73.4632V99.6269C73.4632 96.7069 74.4232 94.9469 76.5432 94.9469C78.7432 94.9469 79.5432 96.6669 79.5432 99.7469C79.5432 100.387 79.5432 109.827 79.5432 109.827H85.7032ZM97.9847 94.9469C99.6647 94.9469 100.825 96.0669 101.265 97.7469H94.6647C95.1047 96.0669 96.2647 94.9469 97.9847 94.9469ZM107.665 101.947C107.745 101.307 107.825 100.667 107.825 99.9469C107.825 93.4269 103.625 89.4669 97.9847 89.4669C92.3047 89.4669 88.1447 93.4269 88.1447 99.9469C88.1447 106.507 92.3047 110.427 97.9847 110.427C102.265 110.427 105.705 108.147 107.105 104.187L100.865 103.067C100.305 104.227 99.3047 104.947 97.9847 104.947C96.2247 104.947 95.0247 103.747 94.6247 101.947H107.665ZM129.361 95.5069H132.561V90.0669H128.761C128.761 90.0669 128.681 89.0269 128.681 88.7869C128.681 88.3469 129.001 87.9869 129.401 87.9869H131.041V83.0269H126.161C124.321 83.0269 123.121 84.3069 123.121 86.1869C123.121 87.3069 123.401 88.2269 123.721 88.9069C123.881 89.2669 124.121 89.5469 124.441 89.7869C124.721 90.0269 125.081 90.1869 125.401 90.3069V90.3469C125.201 90.3069 124.921 90.2669 124.721 90.1869C124.201 90.1069 123.681 90.0669 123.121 90.0669H120.521V95.5069H123.201V109.787H129.361V95.5069ZM143.453 94.9469C145.133 94.9469 146.293 96.0669 146.733 97.7469H140.133C140.573 96.0669 141.733 94.9469 143.453 94.9469ZM153.133 101.947C153.213 101.307 153.293 100.667 153.293 99.9469C153.293 93.4269 149.093 89.4669 143.453 89.4669C137.773 89.4669 133.613 93.4269 133.613 99.9469C133.613 106.507 137.773 110.427 143.453 110.427C147.733 110.427 151.173 108.147 152.573 104.187L146.333 103.067C145.773 104.227 144.773 104.947 143.453 104.947C141.693 104.947 140.493 103.747 140.093 101.947H153.133ZM164.977 94.9469C166.657 94.9469 167.817 96.0669 168.257 97.7469H161.657C162.097 96.0669 163.257 94.9469 164.977 94.9469ZM174.657 101.947C174.737 101.307 174.817 100.667 174.817 99.9469C174.817 93.4269 170.617 89.4669 164.977 89.4669C159.297 89.4669 155.137 93.4269 155.137 99.9469C155.137 106.507 159.297 110.427 164.977 110.427C169.257 110.427 172.697 108.147 174.097 104.187L167.857 103.067C167.297 104.227 166.297 104.947 164.977 104.947C163.217 104.947 162.017 103.747 161.617 101.947H174.657ZM182.86 99.9469C182.86 96.8269 184.3 94.9069 186.58 94.9069C188.82 94.9069 190.18 96.8269 190.18 99.9469C190.18 103.027 188.82 104.947 186.58 104.947C184.3 104.947 182.86 103.027 182.86 99.9469ZM190.54 83.0269V91.6669C190.54 92.4269 190.62 93.1469 190.78 93.8669L190.86 94.2669H190.78L190.54 93.2269C190.22 91.8669 189.26 89.4669 185.14 89.4669C179.82 89.4669 176.74 93.9869 176.74 99.9469C176.74 105.867 179.82 110.387 185.14 110.387C189.26 110.387 190.22 107.987 190.54 106.627L190.78 105.587H190.86L190.78 105.987C190.62 106.707 190.54 107.467 190.54 108.187V109.787H196.7V83.0269H190.54ZM206.675 99.9469C206.675 96.8269 208.035 94.9069 210.315 94.9069C212.555 94.9069 213.995 96.8269 213.995 99.9469C213.995 103.027 212.555 104.947 210.315 104.947C208.035 104.947 206.675 103.027 206.675 99.9469ZM206.315 106.627C206.635 107.987 207.595 110.387 211.715 110.387C217.035 110.387 220.155 105.867 220.155 99.9469C220.155 93.9869 217.035 89.4669 211.715 89.4669C207.595 89.4669 206.635 91.8669 206.315 93.2269L206.075 94.2669H205.995L206.115 93.8669C206.235 93.1469 206.315 92.4269 206.315 91.6669V83.0269H200.195V109.787H206.315V108.187C206.315 107.467 206.235 106.707 206.115 105.987L205.995 105.587H206.075L206.315 106.627ZM233.689 102.147C233.689 103.667 232.369 105.187 230.249 105.187C229.049 105.187 228.409 104.627 228.329 103.867C228.289 103.027 228.849 102.347 230.129 102.107C231.129 101.947 232.169 101.707 232.689 101.547C233.489 101.387 233.729 101.187 233.729 101.187L233.689 102.147ZM241.129 104.867H240.209C240.009 104.867 239.809 104.667 239.809 104.467V97.6269C239.889 92.5469 237.049 89.4669 231.569 89.4669C228.769 89.4669 226.489 90.2669 224.929 91.7469C223.249 93.3069 222.729 95.3069 222.969 97.2269L229.009 96.5469C228.929 96.0669 229.009 95.5069 229.329 95.1069C229.729 94.6269 230.529 94.3069 231.449 94.3469C232.849 94.3469 233.649 95.0669 233.649 95.9469C233.649 96.4669 233.369 96.7469 232.969 96.9469C232.529 97.1469 231.089 97.3869 229.609 97.7469C228.289 98.0669 226.489 98.5069 225.489 99.0269C223.049 100.187 222.129 102.147 222.169 104.627C222.169 107.787 224.769 110.427 228.849 110.427C231.689 110.387 233.409 109.147 234.289 107.547C234.529 107.107 234.769 106.307 234.929 105.667C234.969 105.387 235.009 105.067 235.009 105.067L235.089 105.107L235.049 105.387C234.969 105.747 234.929 106.107 234.889 106.467C234.889 106.747 234.849 107.227 234.849 107.627C234.849 108.867 235.689 109.787 237.169 109.827H241.129V104.867ZM256.428 100.907C256.188 103.467 254.828 104.947 252.828 104.947C250.548 104.947 249.108 103.027 249.108 99.9469C249.108 96.8669 250.548 94.9469 252.828 94.9469C254.828 94.9469 256.188 96.4669 256.428 98.9869L262.548 98.4269C261.988 92.7869 258.028 89.4669 252.828 89.4669C247.148 89.4669 242.988 93.4269 242.988 99.9469C242.988 106.507 247.148 110.427 252.828 110.427C258.028 110.427 261.988 107.147 262.548 101.507L256.428 100.907ZM280.115 96.0269L283.915 90.0669H276.635C276.635 90.0669 272.675 96.2269 272.075 97.1869C271.715 97.7469 271.435 98.5469 271.435 99.3469L271.395 100.427H271.315V83.0669H265.195V109.827H271.315L275.035 103.987L277.915 109.827H284.715L279.875 99.9069C279.275 98.6669 279.395 97.1869 280.115 96.0269Z" fill="#FFF6E9"/>
<path d="M98.1082 163.322L94.6522 175.202C94.5322 175.562 94.4842 175.922 94.4842 176.258V176.642H94.4602V176.282C94.4602 175.922 94.3882 175.562 94.2922 175.226L90.7162 163.322H89.0362L85.4602 175.226C85.3402 175.562 85.2922 175.922 85.2922 176.282V176.642H85.2442V176.258C85.2442 175.922 85.1962 175.562 85.1002 175.202L81.6202 163.322H79.5802L84.2842 179.402H86.2042L89.7082 167.714C89.8042 167.354 89.8522 167.018 89.8522 166.658V166.202H89.9002V166.658C89.9002 167.018 89.9482 167.354 90.0442 167.714L93.5482 179.402H95.4682L100.172 163.322H98.1082ZM105.084 168.866C107.22 168.866 108.492 170.474 108.708 172.658H101.436C101.652 170.474 102.948 168.866 105.084 168.866ZM110.604 174.026C110.628 173.858 110.652 173.666 110.652 173.474C110.652 169.802 108.396 167.186 105.084 167.186C101.772 167.186 99.5156 169.802 99.5156 173.474C99.5156 177.146 101.772 179.762 105.084 179.762C107.748 179.762 109.692 178.058 110.388 175.514L108.516 175.178C108.108 176.882 106.908 178.082 105.084 178.082C102.852 178.082 101.556 176.33 101.436 174.026H110.604ZM112.646 162.962C112.214 163.058 111.878 163.418 111.854 163.874C111.854 164.018 111.878 164.186 111.95 164.33C112.022 164.45 111.974 164.546 111.926 164.618L111.038 165.554L111.926 166.418L113.606 164.618C113.846 164.354 113.894 164.018 113.822 163.706C113.678 163.178 113.174 162.866 112.646 162.962ZM115.511 178.274C115.511 178.898 116.015 179.402 116.639 179.402H119.639V177.722H117.479C117.407 177.722 117.335 177.674 117.335 177.578V163.346H115.511C115.487 163.418 115.487 177.89 115.511 178.274ZM121.159 178.274C121.159 178.898 121.663 179.402 122.287 179.402H125.287V177.722H123.127C123.055 177.722 122.983 177.674 122.983 177.578V163.346H121.159C121.135 163.418 121.135 177.89 121.159 178.274ZM142.727 173.474C142.727 176.114 141.383 178.082 139.007 178.082C136.655 178.082 135.431 176.114 135.431 173.474C135.431 170.834 136.631 168.866 139.007 168.866C141.359 168.866 142.727 170.834 142.727 173.474ZM135.335 177.53C135.335 177.17 135.287 176.81 135.191 176.474L135.095 176.162L135.143 176.138L135.407 177.026C135.719 178.034 136.631 179.762 139.343 179.762C142.487 179.762 144.575 177.146 144.575 173.474C144.575 169.826 142.487 167.186 139.343 167.186C136.631 167.186 135.719 168.914 135.407 169.97L135.143 170.81L135.095 170.786L135.191 170.498C135.287 170.138 135.335 169.778 135.335 169.418V167.546H133.511V183.626H135.335V177.53ZM148.156 179.402V173.57C148.156 171.578 149.092 168.962 150.052 168.962C150.7 168.962 150.892 169.826 150.892 170.498V171.818H152.74V170.114C152.74 168.338 152.164 167.186 150.772 167.186C150.052 167.186 149.452 167.714 149.02 168.338C148.588 168.938 148.348 169.634 148.276 170.042C148.252 170.114 148.156 170.69 148.132 170.762L148.06 171.218H148.036L148.084 170.906C148.132 170.522 148.156 170.162 148.156 169.778V167.546H146.332V179.402H148.156ZM155.785 173.474C155.785 170.834 157.153 168.866 159.529 168.866C161.881 168.866 163.249 170.834 163.249 173.474C163.249 176.114 161.881 178.082 159.529 178.082C157.153 178.082 155.785 176.114 155.785 173.474ZM165.097 173.474C165.097 169.802 162.841 167.186 159.529 167.186C156.217 167.186 153.961 169.802 153.961 173.474C153.961 177.146 156.217 179.762 159.529 179.762C162.841 179.762 165.097 177.146 165.097 173.474ZM174.294 167.546L170.838 177.362C170.766 177.578 170.718 177.842 170.718 178.082V178.514H170.67V178.082C170.67 177.842 170.646 177.602 170.574 177.362L167.118 167.546H165.222L169.374 179.402H172.038L176.19 167.546H174.294ZM177.644 179.402H179.492C179.492 176.378 179.492 167.594 179.492 167.546H177.644V179.402ZM178.556 165.866C179.132 165.866 179.588 165.41 179.588 164.858C179.588 164.282 179.132 163.826 178.556 163.826C178.004 163.826 177.548 164.282 177.548 164.858C177.548 165.41 178.004 165.866 178.556 165.866ZM183.301 173.474C183.301 170.81 184.669 168.842 187.045 168.842C189.397 168.842 190.621 170.81 190.621 173.474C190.621 176.114 189.421 178.082 187.045 178.082C184.669 178.082 183.301 176.114 183.301 173.474ZM190.693 163.322V169.418C190.693 169.778 190.741 170.138 190.837 170.474L190.933 170.786H190.909L190.621 169.922C190.309 168.89 189.421 167.186 186.709 167.186C183.565 167.186 181.477 169.802 181.477 173.474C181.477 177.122 183.541 179.738 186.709 179.738C189.421 179.738 190.333 178.01 190.645 176.978L190.909 176.138H190.933L190.837 176.45C190.741 176.786 190.693 177.146 190.693 177.506V179.402H192.541V163.322H190.693ZM200.099 168.866C202.235 168.866 203.507 170.474 203.723 172.658H196.451C196.667 170.474 197.963 168.866 200.099 168.866ZM205.619 174.026C205.643 173.858 205.667 173.666 205.667 173.474C205.667 169.802 203.411 167.186 200.099 167.186C196.787 167.186 194.531 169.802 194.531 173.474C194.531 177.146 196.787 179.762 200.099 179.762C202.763 179.762 204.707 178.058 205.403 175.514L203.531 175.178C203.123 176.882 201.923 178.082 200.099 178.082C197.867 178.082 196.571 176.33 196.451 174.026H205.619ZM222.46 167.522L218.98 176.138C218.908 176.354 218.86 176.57 218.86 176.786V177.194H218.812V176.786C218.812 176.57 218.764 176.354 218.692 176.138L215.212 167.522H213.244L217.564 178.13C217.756 178.586 217.756 179.066 217.564 179.522L215.908 183.602H217.876L224.428 167.522H222.46ZM225.98 173.474C225.98 170.834 227.348 168.866 229.724 168.866C232.076 168.866 233.444 170.834 233.444 173.474C233.444 176.114 232.076 178.082 229.724 178.082C227.348 178.082 225.98 176.114 225.98 173.474ZM235.292 173.474C235.292 169.802 233.036 167.186 229.724 167.186C226.412 167.186 224.156 169.802 224.156 173.474C224.156 177.146 226.412 179.762 229.724 179.762C233.036 179.762 235.292 177.146 235.292 173.474ZM237.124 167.546V174.314C237.124 177.818 238.66 179.738 241.588 179.738C243.892 179.738 244.948 178.322 245.332 177.386L245.62 176.498L245.644 176.522L245.572 176.81C245.476 177.17 245.428 177.506 245.428 177.866V179.378H247.252V167.546H245.428V174.194C245.428 176.522 244.108 178.082 242.14 178.082C239.908 178.082 238.948 176.594 238.948 173.954C238.948 172.418 238.948 167.546 238.948 167.546H237.124ZM270.866 167.546L268.082 175.922C267.986 176.186 267.938 176.45 267.938 176.738V177.146H267.89V176.738C267.89 176.45 267.866 176.186 267.77 175.922L264.986 167.546H263.162L260.378 175.922C260.306 176.186 260.258 176.45 260.258 176.738V177.146H260.21V176.738C260.21 176.45 260.162 176.186 260.09 175.922L257.306 167.546H255.41L259.226 179.402H261.05L263.93 170.858C264.002 170.594 264.05 170.306 264.05 170.018V169.682H264.098V170.018C264.098 170.306 264.146 170.594 264.242 170.858L267.098 179.402H268.922L272.762 167.546H270.866ZM274.253 179.402H276.101C276.101 176.378 276.101 167.594 276.101 167.546H274.253V179.402ZM275.165 165.866C275.741 165.866 276.197 165.41 276.197 164.858C276.197 164.282 275.741 163.826 275.165 163.826C274.613 163.826 274.157 164.282 274.157 164.858C274.157 165.41 274.613 165.866 275.165 165.866ZM281.446 177.722C281.374 177.722 281.326 177.65 281.326 177.578V169.082H283.414V167.522H281.326V163.322H279.646C279.646 163.346 279.646 165.386 279.646 166.826C279.646 167.258 279.31 167.594 278.878 167.594H277.654V169.082H279.478C279.478 172.034 279.478 178.01 279.478 178.25C279.478 178.874 279.982 179.378 280.606 179.378H283.942V177.722H281.446ZM295.163 179.402V172.634C295.163 169.13 293.603 167.186 290.699 167.186C289.379 167.186 288.419 167.714 287.795 168.314C287.291 168.77 287.003 169.346 286.835 169.874L286.667 170.45L286.619 170.426L286.715 170.114C286.811 169.778 286.859 169.418 286.859 169.058V163.346H285.035V179.402H286.859V172.754C286.859 170.426 288.155 168.866 290.147 168.866C292.379 168.866 293.339 170.354 293.339 172.994C293.339 174.53 293.339 179.402 293.339 179.402H295.163ZM82.4602 203.402V197.57C82.4602 195.578 83.3962 192.962 84.3562 192.962C85.0042 192.962 85.1962 193.826 85.1962 194.498V195.818H87.0442V194.114C87.0442 192.338 86.4682 191.186 85.0762 191.186C84.3562 191.186 83.7562 191.714 83.3242 192.338C82.8922 192.938 82.6522 193.634 82.5802 194.042C82.5562 194.114 82.4602 194.69 82.4362 194.762L82.3642 195.218H82.3402L82.3882 194.906C82.4362 194.522 82.4602 194.162 82.4602 193.778V191.546H80.6362V203.402H82.4602ZM93.8336 192.866C95.9696 192.866 97.2416 194.474 97.4576 196.658H90.1856C90.4016 194.474 91.6976 192.866 93.8336 192.866ZM99.3536 198.026C99.3776 197.858 99.4016 197.666 99.4016 197.474C99.4016 193.802 97.1456 191.186 93.8336 191.186C90.5216 191.186 88.2656 193.802 88.2656 197.474C88.2656 201.146 90.5216 203.762 93.8336 203.762C96.4976 203.762 98.4416 202.058 99.1376 199.514L97.2656 199.178C96.8576 200.882 95.6576 202.082 93.8336 202.082C91.6016 202.082 90.3056 200.33 90.1856 198.026H99.3536ZM108.747 198.506C108.747 200.498 107.451 202.13 105.075 202.13C103.731 202.13 102.867 201.386 102.747 200.354C102.627 199.274 103.251 198.218 104.787 197.93C105.627 197.786 107.067 197.498 107.619 197.378C108.531 197.21 108.747 196.922 108.747 196.922V198.506ZM111.555 201.842H110.715C110.643 201.842 110.595 201.794 110.595 201.722V195.674C110.619 192.866 109.035 191.186 106.011 191.186C104.427 191.186 103.083 191.714 102.243 192.674C101.451 193.562 101.211 194.69 101.451 195.794L103.251 195.53C103.131 194.954 103.155 194.234 103.611 193.658C103.995 193.202 104.715 192.722 105.987 192.722C107.739 192.722 108.675 193.682 108.675 194.858C108.675 195.338 108.459 195.65 108.051 195.818C107.691 195.962 107.043 196.058 106.203 196.226C105.555 196.37 104.427 196.61 103.659 196.826C101.475 197.426 100.851 198.89 100.899 200.402C100.923 202.13 102.291 203.762 104.763 203.762C106.371 203.762 107.571 203.138 108.339 202.202C108.699 201.746 108.939 201.146 109.059 200.546C109.083 200.498 109.155 200.138 109.155 200.138H109.179L109.155 200.306C109.083 200.666 109.059 201.026 109.035 201.386C109.035 201.53 109.035 202.082 109.035 202.514C109.035 203.018 109.395 203.402 109.947 203.402H111.555V201.842ZM113.354 202.274C113.354 202.898 113.858 203.402 114.482 203.402H117.482V201.722H115.322C115.25 201.722 115.178 201.674 115.178 201.578V187.346H113.354C113.33 187.418 113.33 201.89 113.354 202.274ZM118.072 197.138H126.232V195.386H118.072V197.138ZM130.93 201.722C130.858 201.722 130.81 201.65 130.81 201.578V193.082H132.898V191.522H130.81V187.322H129.13C129.13 187.346 129.13 189.386 129.13 190.826C129.13 191.258 128.794 191.594 128.362 191.594H127.138V193.082H128.962C128.962 196.034 128.962 202.01 128.962 202.25C128.962 202.874 129.466 203.378 130.09 203.378H133.426V201.722H130.93ZM135.058 203.402H136.906C136.906 200.378 136.906 191.594 136.906 191.546H135.058V203.402ZM135.97 189.866C136.546 189.866 137.002 189.41 137.002 188.858C137.002 188.282 136.546 187.826 135.97 187.826C135.418 187.826 134.962 188.282 134.962 188.858C134.962 189.41 135.418 189.866 135.97 189.866ZM148.299 193.514C147.651 191.762 146.307 191.186 144.819 191.186C143.259 191.186 142.347 191.906 141.795 192.65C141.483 193.034 141.291 193.466 141.171 193.874L141.003 194.45L140.955 194.426L141.051 194.114C141.147 193.778 141.195 193.418 141.195 193.058V191.546H139.371V203.402H141.195V196.754C141.195 194.426 142.299 192.866 144.147 192.866C145.731 192.866 146.931 193.778 146.931 196.754C146.931 198.266 146.931 203.402 146.931 203.402H148.779V196.754C148.779 194.426 149.859 192.866 151.731 192.866C153.315 192.866 154.515 193.97 154.515 196.634C154.515 198.146 154.515 203.402 154.515 203.402H156.363V196.13C156.363 192.65 154.491 191.186 152.211 191.186C150.267 191.186 149.259 192.386 148.827 193.154C148.611 193.538 148.467 193.922 148.419 194.162C148.395 194.21 148.347 194.45 148.347 194.45L148.323 194.426L148.347 194.258C148.419 193.97 148.395 193.73 148.299 193.514ZM163.49 192.866C165.626 192.866 166.898 194.474 167.114 196.658H159.842C160.058 194.474 161.354 192.866 163.49 192.866ZM169.01 198.026C169.034 197.858 169.058 197.666 169.058 197.474C169.058 193.802 166.802 191.186 163.49 191.186C160.178 191.186 157.922 193.802 157.922 197.474C157.922 201.146 160.178 203.762 163.49 203.762C166.154 203.762 168.098 202.058 168.794 199.514L166.922 199.178C166.514 200.882 165.314 202.082 163.49 202.082C161.258 202.082 159.962 200.33 159.842 198.026H169.01ZM185.083 198.506C185.083 200.498 183.787 202.13 181.411 202.13C180.067 202.13 179.203 201.386 179.083 200.354C178.963 199.274 179.587 198.218 181.123 197.93C181.963 197.786 183.403 197.498 183.955 197.378C184.867 197.21 185.083 196.922 185.083 196.922V198.506ZM187.891 201.842H187.051C186.979 201.842 186.931 201.794 186.931 201.722V195.674C186.955 192.866 185.371 191.186 182.347 191.186C180.763 191.186 179.419 191.714 178.579 192.674C177.787 193.562 177.547 194.69 177.787 195.794L179.587 195.53C179.467 194.954 179.491 194.234 179.947 193.658C180.331 193.202 181.051 192.722 182.323 192.722C184.075 192.722 185.011 193.682 185.011 194.858C185.011 195.338 184.795 195.65 184.387 195.818C184.027 195.962 183.379 196.058 182.539 196.226C181.891 196.37 180.763 196.61 179.995 196.826C177.811 197.426 177.187 198.89 177.235 200.402C177.259 202.13 178.627 203.762 181.099 203.762C182.707 203.762 183.907 203.138 184.675 202.202C185.035 201.746 185.275 201.146 185.395 200.546C185.419 200.498 185.491 200.138 185.491 200.138H185.515L185.491 200.306C185.419 200.666 185.395 201.026 185.371 201.386C185.371 201.53 185.371 202.082 185.371 202.514C185.371 203.018 185.731 203.402 186.283 203.402H187.891V201.842ZM199.842 196.634C199.842 193.13 198.162 191.186 195.378 191.186C193.77 191.186 192.714 191.906 192.114 192.65C191.826 193.01 191.658 193.442 191.538 193.826L191.346 194.45L191.298 194.426L191.394 194.114C191.49 193.778 191.538 193.418 191.538 193.058V191.546H189.714V203.402H191.538V196.754C191.538 194.426 192.834 192.866 194.826 192.866C196.914 192.866 198.018 194.354 198.018 196.994C198.018 198.53 198.018 203.402 198.018 203.402H199.842V196.634ZM203.48 197.474C203.48 194.81 204.848 192.842 207.224 192.842C209.576 192.842 210.8 194.81 210.8 197.474C210.8 200.114 209.6 202.082 207.224 202.082C204.848 202.082 203.48 200.114 203.48 197.474ZM210.872 187.322V193.418C210.872 193.778 210.92 194.138 211.016 194.474L211.112 194.786H211.088L210.8 193.922C210.488 192.89 209.6 191.186 206.888 191.186C203.744 191.186 201.656 193.802 201.656 197.474C201.656 201.122 203.72 203.738 206.888 203.738C209.6 203.738 210.512 202.01 210.824 200.978L211.088 200.138H211.112L211.016 200.45C210.92 200.786 210.872 201.146 210.872 201.506V203.402H212.72V187.322H210.872ZM231.087 197.474C231.087 200.114 229.743 202.082 227.367 202.082C225.015 202.082 223.791 200.114 223.791 197.474C223.791 194.834 224.991 192.866 227.367 192.866C229.719 192.866 231.087 194.834 231.087 197.474ZM223.695 201.53C223.695 201.17 223.647 200.81 223.551 200.474L223.455 200.162L223.503 200.138L223.767 201.026C224.079 202.034 224.991 203.762 227.703 203.762C230.847 203.762 232.935 201.146 232.935 197.474C232.935 193.826 230.847 191.186 227.703 191.186C224.991 191.186 224.079 192.914 223.767 193.97L223.503 194.81L223.455 194.786L223.551 194.498C223.647 194.138 223.695 193.778 223.695 193.418V191.546H221.871V207.626H223.695V201.53ZM236.269 197.474C236.269 194.834 237.637 192.866 240.013 192.866C242.365 192.866 243.733 194.834 243.733 197.474C243.733 200.114 242.365 202.082 240.013 202.082C237.637 202.082 236.269 200.114 236.269 197.474ZM245.581 197.474C245.581 193.802 243.325 191.186 240.013 191.186C236.701 191.186 234.445 193.802 234.445 197.474C234.445 201.146 236.701 203.762 240.013 203.762C243.325 203.762 245.581 201.146 245.581 197.474ZM256.39 200.306C256.39 197.81 254.086 197.114 252.166 196.634C251.134 196.37 249.19 195.938 249.19 194.474C249.19 193.586 249.91 192.722 251.686 192.722C253.654 192.722 254.254 193.802 254.254 195.002H255.958C255.958 193.058 254.854 191.186 251.638 191.186C248.59 191.186 247.342 192.674 247.342 194.306C247.342 196.442 248.974 197.306 251.23 197.858C253.462 198.386 254.542 199.034 254.542 200.21C254.542 201.506 253.414 202.202 251.854 202.202C249.262 202.202 248.902 200.354 248.902 199.61H247.078C247.078 201.602 248.35 203.738 251.926 203.738C255.046 203.738 256.39 202.178 256.39 200.306ZM261.266 201.722C261.194 201.722 261.146 201.65 261.146 201.578V193.082H263.234V191.522H261.146V187.322H259.466C259.466 187.346 259.466 189.386 259.466 190.826C259.466 191.258 259.13 191.594 258.698 191.594H257.474V193.082H259.298C259.298 196.034 259.298 202.01 259.298 202.25C259.298 202.874 259.802 203.378 260.426 203.378H263.762V201.722H261.266ZM264.65 197.138H272.81V195.386H264.65V197.138ZM284.756 203.402V196.634C284.756 193.13 283.196 191.186 280.292 191.186C278.972 191.186 278.012 191.714 277.388 192.314C276.884 192.77 276.596 193.346 276.428 193.874L276.26 194.45L276.212 194.426L276.308 194.114C276.404 193.778 276.452 193.418 276.452 193.058V187.346H274.628V203.402H276.452V196.754C276.452 194.426 277.748 192.866 279.74 192.866C281.972 192.866 282.932 194.354 282.932 196.994C282.932 198.53 282.932 203.402 282.932 203.402H284.756ZM287.074 203.402H288.922C288.922 200.378 288.922 191.594 288.922 191.546H287.074V203.402ZM287.986 189.866C288.562 189.866 289.018 189.41 289.018 188.858C289.018 188.282 288.562 187.826 287.986 187.826C287.434 187.826 286.978 188.282 286.978 188.858C286.978 189.41 287.434 189.866 287.986 189.866ZM293.21 203.402V197.57C293.21 195.578 294.146 192.962 295.106 192.962C295.754 192.962 295.946 193.826 295.946 194.498V195.818H297.794V194.114C297.794 192.338 297.218 191.186 295.826 191.186C295.106 191.186 294.506 191.714 294.074 192.338C293.642 192.938 293.402 193.634 293.33 194.042C293.306 194.114 293.21 194.69 293.186 194.762L293.114 195.218H293.09L293.138 194.906C293.186 194.522 293.21 194.162 293.21 193.778V191.546H291.386V203.402H293.21ZM304.584 192.866C306.72 192.866 307.992 194.474 308.208 196.658H300.936C301.152 194.474 302.448 192.866 304.584 192.866ZM310.104 198.026C310.128 197.858 310.152 197.666 310.152 197.474C310.152 193.802 307.896 191.186 304.584 191.186C301.272 191.186 299.016 193.802 299.016 197.474C299.016 201.146 301.272 203.762 304.584 203.762C307.248 203.762 309.192 202.058 309.888 199.514L308.016 199.178C307.608 200.882 306.408 202.082 304.584 202.082C302.352 202.082 301.056 200.33 300.936 198.026H310.104ZM318.785 203.402H320.633C320.633 200.378 320.633 191.594 320.633 191.546H318.785V203.402ZM319.697 189.866C320.273 189.866 320.729 189.41 320.729 188.858C320.729 188.282 320.273 187.826 319.697 187.826C319.145 187.826 318.689 188.282 318.689 188.858C318.689 189.41 319.145 189.866 319.697 189.866ZM333.225 196.634C333.225 193.13 331.545 191.186 328.761 191.186C327.153 191.186 326.097 191.906 325.497 192.65C325.209 193.01 325.041 193.442 324.921 193.826L324.729 194.45L324.681 194.426L324.777 194.114C324.873 193.778 324.921 193.418 324.921 193.058V191.546H323.097V203.402H324.921V196.754C324.921 194.426 326.217 192.866 328.209 192.866C330.297 192.866 331.401 194.354 331.401 196.994C331.401 198.53 331.401 203.402 331.401 203.402H333.225V196.634ZM344.327 200.306C344.327 197.81 342.023 197.114 340.103 196.634C339.071 196.37 337.127 195.938 337.127 194.474C337.127 193.586 337.847 192.722 339.623 192.722C341.591 192.722 342.191 193.802 342.191 195.002H343.895C343.895 193.058 342.791 191.186 339.575 191.186C336.527 191.186 335.279 192.674 335.279 194.306C335.279 196.442 336.911 197.306 339.167 197.858C341.399 198.386 342.479 199.034 342.479 200.21C342.479 201.506 341.351 202.202 339.791 202.202C337.199 202.202 336.839 200.354 336.839 199.61H335.015C335.015 201.602 336.287 203.738 339.863 203.738C342.983 203.738 344.327 202.178 344.327 200.306ZM346.324 203.402H348.172C348.172 200.378 348.172 191.594 348.172 191.546H346.324V203.402ZM347.236 189.866C347.812 189.866 348.268 189.41 348.268 188.858C348.268 188.282 347.812 187.826 347.236 187.826C346.684 187.826 346.228 188.282 346.228 188.858C346.228 189.41 346.684 189.866 347.236 189.866ZM355.466 202.082C353.09 202.082 351.722 200.114 351.722 197.474C351.722 194.834 353.09 192.866 355.466 192.866C357.818 192.866 359.042 194.834 359.042 197.474C359.042 200.114 357.842 202.082 355.466 202.082ZM360.962 201.602V191.546H359.114V193.418C359.114 193.778 359.162 194.138 359.258 194.498L359.354 194.786L359.33 194.81L359.042 193.922C358.73 192.914 357.842 191.186 355.13 191.186C351.986 191.186 349.898 193.826 349.898 197.474C349.898 201.122 351.962 203.762 355.13 203.762C357.842 203.762 358.754 202.034 359.066 201.002L359.33 200.138L359.354 200.162L359.258 200.474C359.186 200.738 359.138 201.026 359.138 201.314C359.138 201.386 359.114 202.034 359.114 202.106C359.114 203.21 359.714 203.906 359.714 204.722C359.714 205.874 358.778 206.09 357.722 206.066H351.818V207.626H358.37C360.602 207.626 361.61 206.762 361.61 205.01C361.61 203.546 360.962 203.21 360.962 201.602ZM373.608 203.402V196.634C373.608 193.13 372.048 191.186 369.144 191.186C367.824 191.186 366.864 191.714 366.24 192.314C365.736 192.77 365.448 193.346 365.28 193.874L365.112 194.45L365.064 194.426L365.16 194.114C365.256 193.778 365.304 193.418 365.304 193.058V187.346H363.48V203.402H365.304V196.754C365.304 194.426 366.6 192.866 368.592 192.866C370.824 192.866 371.784 194.354 371.784 196.994C371.784 198.53 371.784 203.402 371.784 203.402H373.608ZM378.008 201.722C377.936 201.722 377.888 201.65 377.888 201.578V193.082H379.976V191.522H377.888V187.322H376.208C376.208 187.346 376.208 189.386 376.208 190.826C376.208 191.258 375.872 191.594 375.44 191.594H374.216V193.082H376.04C376.04 196.034 376.04 202.01 376.04 202.25C376.04 202.874 376.544 203.378 377.168 203.378H380.504V201.722H378.008ZM390.944 200.306C390.944 197.81 388.64 197.114 386.72 196.634C385.688 196.37 383.744 195.938 383.744 194.474C383.744 193.586 384.464 192.722 386.24 192.722C388.208 192.722 388.808 193.802 388.808 195.002H390.512C390.512 193.058 389.408 191.186 386.192 191.186C383.144 191.186 381.896 192.674 381.896 194.306C381.896 196.442 383.528 197.306 385.784 197.858C388.016 198.386 389.096 199.034 389.096 200.21C389.096 201.506 387.968 202.202 386.408 202.202C383.816 202.202 383.456 200.354 383.456 199.61H381.632C381.632 201.602 382.904 203.738 386.48 203.738C389.6 203.738 390.944 202.178 390.944 200.306ZM83.5162 225.722C83.4442 225.722 83.3962 225.65 83.3962 225.578V217.082H85.4842V215.522H83.3962V211.322H81.7162C81.7162 211.346 81.7162 213.386 81.7162 214.826C81.7162 215.258 81.3802 215.594 80.9482 215.594H79.7242V217.082H81.5482C81.5482 220.034 81.5482 226.01 81.5482 226.25C81.5482 226.874 82.0522 227.378 82.6762 227.378H86.0122V225.722H83.5162ZM88.449 221.474C88.449 218.834 89.817 216.866 92.193 216.866C94.545 216.866 95.913 218.834 95.913 221.474C95.913 224.114 94.545 226.082 92.193 226.082C89.817 226.082 88.449 224.114 88.449 221.474ZM97.761 221.474C97.761 217.802 95.505 215.186 92.193 215.186C88.881 215.186 86.625 217.802 86.625 221.474C86.625 225.146 88.881 227.762 92.193 227.762C95.505 227.762 97.761 225.146 97.761 221.474ZM115.249 224.306C115.249 221.81 112.945 221.114 111.025 220.634C109.993 220.37 108.049 219.938 108.049 218.474C108.049 217.586 108.769 216.722 110.545 216.722C112.513 216.722 113.113 217.802 113.113 219.002H114.817C114.817 217.058 113.713 215.186 110.497 215.186C107.449 215.186 106.201 216.674 106.201 218.306C106.201 220.442 107.833 221.306 110.089 221.858C112.321 222.386 113.401 223.034 113.401 224.21C113.401 225.506 112.273 226.202 110.713 226.202C108.121 226.202 107.761 224.354 107.761 223.61H105.937C105.937 225.602 107.209 227.738 110.785 227.738C113.905 227.738 115.249 226.178 115.249 224.306ZM117.078 215.546V222.314C117.078 225.818 118.614 227.738 121.542 227.738C123.846 227.738 124.902 226.322 125.286 225.386L125.574 224.498L125.598 224.522L125.526 224.81C125.43 225.17 125.382 225.506 125.382 225.866V227.378H127.206V215.546H125.382V222.194C125.382 224.522 124.062 226.082 122.094 226.082C119.862 226.082 118.902 224.594 118.902 221.954C118.902 220.418 118.902 215.546 118.902 215.546H117.078ZM138.883 221.474C138.883 224.114 137.539 226.082 135.163 226.082C132.811 226.082 131.587 224.114 131.587 221.474C131.587 218.834 132.787 216.866 135.163 216.866C137.515 216.866 138.883 218.834 138.883 221.474ZM131.491 225.53C131.491 225.17 131.443 224.81 131.347 224.474L131.251 224.162L131.299 224.138L131.563 225.026C131.875 226.034 132.787 227.762 135.499 227.762C138.643 227.762 140.731 225.146 140.731 221.474C140.731 217.826 138.643 215.186 135.499 215.186C132.787 215.186 131.875 216.914 131.563 217.97L131.299 218.81L131.251 218.786L131.347 218.498C131.443 218.138 131.491 217.778 131.491 217.418V215.546H129.667V231.626H131.491V225.53ZM151.704 221.474C151.704 224.114 150.36 226.082 147.984 226.082C145.632 226.082 144.408 224.114 144.408 221.474C144.408 218.834 145.608 216.866 147.984 216.866C150.336 216.866 151.704 218.834 151.704 221.474ZM144.312 225.53C144.312 225.17 144.264 224.81 144.168 224.474L144.072 224.162L144.12 224.138L144.384 225.026C144.696 226.034 145.608 227.762 148.32 227.762C151.464 227.762 153.552 225.146 153.552 221.474C153.552 217.826 151.464 215.186 148.32 215.186C145.608 215.186 144.696 216.914 144.384 217.97L144.12 218.81L144.072 218.786L144.168 218.498C144.264 218.138 144.312 217.778 144.312 217.418V215.546H142.488V231.626H144.312V225.53ZM156.886 221.474C156.886 218.834 158.254 216.866 160.63 216.866C162.982 216.866 164.35 218.834 164.35 221.474C164.35 224.114 162.982 226.082 160.63 226.082C158.254 226.082 156.886 224.114 156.886 221.474ZM166.198 221.474C166.198 217.802 163.942 215.186 160.63 215.186C157.318 215.186 155.062 217.802 155.062 221.474C155.062 225.146 157.318 227.762 160.63 227.762C163.942 227.762 166.198 225.146 166.198 221.474ZM169.788 227.402V221.57C169.788 219.578 170.724 216.962 171.684 216.962C172.332 216.962 172.524 217.826 172.524 218.498V219.818H174.372V218.114C174.372 216.338 173.796 215.186 172.404 215.186C171.684 215.186 171.084 215.714 170.652 216.338C170.22 216.938 169.98 217.634 169.908 218.042C169.884 218.114 169.788 218.69 169.764 218.762L169.692 219.218H169.668L169.716 218.906C169.764 218.522 169.788 218.162 169.788 217.778V215.546H167.964V227.402H169.788ZM178.954 225.722C178.882 225.722 178.834 225.65 178.834 225.578V217.082H180.922V215.522H178.834V211.322H177.154C177.154 211.346 177.154 213.386 177.154 214.826C177.154 215.258 176.818 215.594 176.386 215.594H175.162V217.082H176.986C176.986 220.034 176.986 226.01 176.986 226.25C176.986 226.874 177.49 227.378 178.114 227.378H181.45V225.722H178.954ZM197.921 215.522L194.441 224.138C194.369 224.354 194.321 224.57 194.321 224.786V225.194H194.273V224.786C194.273 224.57 194.225 224.354 194.153 224.138L190.673 215.522H188.705L193.025 226.13C193.217 226.586 193.217 227.066 193.025 227.522L191.369 231.602H193.337L199.889 215.522H197.921ZM201.441 221.474C201.441 218.834 202.809 216.866 205.185 216.866C207.537 216.866 208.905 218.834 208.905 221.474C208.905 224.114 207.537 226.082 205.185 226.082C202.809 226.082 201.441 224.114 201.441 221.474ZM210.753 221.474C210.753 217.802 208.497 215.186 205.185 215.186C201.873 215.186 199.617 217.802 199.617 221.474C199.617 225.146 201.873 227.762 205.185 227.762C208.497 227.762 210.753 225.146 210.753 221.474ZM212.585 215.546V222.314C212.585 225.818 214.121 227.738 217.049 227.738C219.353 227.738 220.409 226.322 220.793 225.386L221.081 224.498L221.105 224.522L221.033 224.81C220.937 225.17 220.889 225.506 220.889 225.866V227.378H222.713V215.546H220.889V222.194C220.889 224.522 219.569 226.082 217.601 226.082C215.369 226.082 214.409 224.594 214.409 221.954C214.409 220.418 214.409 215.546 214.409 215.546H212.585ZM226.999 227.402V221.57C226.999 219.578 227.935 216.962 228.895 216.962C229.543 216.962 229.735 217.826 229.735 218.498V219.818H231.583V218.114C231.583 216.338 231.007 215.186 229.615 215.186C228.895 215.186 228.295 215.714 227.863 216.338C227.431 216.938 227.191 217.634 227.119 218.042C227.095 218.114 226.999 218.69 226.975 218.762L226.903 219.218H226.879L226.927 218.906C226.975 218.522 226.999 218.162 226.999 217.778V215.546H225.175V227.402H226.999ZM250.092 220.634C250.092 217.13 248.412 215.186 245.628 215.186C244.02 215.186 242.964 215.906 242.364 216.65C242.076 217.01 241.908 217.442 241.788 217.826L241.596 218.45L241.548 218.426L241.644 218.114C241.74 217.778 241.788 217.418 241.788 217.058V215.546H239.964V227.402H241.788V220.754C241.788 218.426 243.084 216.866 245.076 216.866C247.164 216.866 248.268 218.354 248.268 220.994C248.268 222.53 248.268 227.402 248.268 227.402H250.092V220.634ZM257.216 216.866C259.352 216.866 260.624 218.474 260.84 220.658H253.568C253.784 218.474 255.08 216.866 257.216 216.866ZM262.736 222.026C262.76 221.858 262.784 221.666 262.784 221.474C262.784 217.802 260.528 215.186 257.216 215.186C253.904 215.186 251.648 217.802 251.648 221.474C251.648 225.146 253.904 227.762 257.216 227.762C259.88 227.762 261.824 226.058 262.52 223.514L260.648 223.178C260.24 224.882 259.04 226.082 257.216 226.082C254.984 226.082 253.688 224.33 253.568 222.026H262.736ZM273.992 215.546H271.904L268.736 220.058C268.64 220.202 268.616 220.346 268.616 220.514V220.874H268.568V220.514C268.568 220.346 268.52 220.202 268.448 220.058L265.256 215.546H263.192L266.72 220.778C266.96 221.21 266.96 221.714 266.72 222.146L263.192 227.402H265.256L268.448 222.89C268.52 222.722 268.568 222.578 268.568 222.41V222.026H268.616V222.41C268.616 222.578 268.64 222.722 268.736 222.89L271.904 227.402H273.992L270.44 222.146C270.2 221.714 270.2 221.21 270.44 220.778L273.992 215.546ZM278.141 225.722C278.069 225.722 278.021 225.65 278.021 225.578V217.082H280.109V215.522H278.021V211.322H276.341C276.341 211.346 276.341 213.386 276.341 214.826C276.341 215.258 276.005 215.594 275.573 215.594H274.349V217.082H276.173C276.173 220.034 276.173 226.01 276.173 226.25C276.173 226.874 276.677 227.378 277.301 227.378H280.637V225.722H278.141ZM82.4602 251.402V245.57C82.4602 243.578 83.3962 240.962 84.3562 240.962C85.0042 240.962 85.1962 241.826 85.1962 242.498V243.818H87.0442V242.114C87.0442 240.338 86.4682 239.186 85.0762 239.186C84.3562 239.186 83.7562 239.714 83.3242 240.338C82.8922 240.938 82.6522 241.634 82.5802 242.042C82.5562 242.114 82.4602 242.69 82.4362 242.762L82.3642 243.218H82.3402L82.3882 242.906C82.4362 242.522 82.4602 242.162 82.4602 241.778V239.546H80.6362V251.402H82.4602ZM93.8336 240.866C95.9696 240.866 97.2416 242.474 97.4576 244.658H90.1856C90.4016 242.474 91.6976 240.866 93.8336 240.866ZM99.3536 246.026C99.3776 245.858 99.4016 245.666 99.4016 245.474C99.4016 241.802 97.1456 239.186 93.8336 239.186C90.5216 239.186 88.2656 241.802 88.2656 245.474C88.2656 249.146 90.5216 251.762 93.8336 251.762C96.4976 251.762 98.4416 250.058 99.1376 247.514L97.2656 247.178C96.8576 248.882 95.6576 250.082 93.8336 250.082C91.6016 250.082 90.3056 248.33 90.1856 246.026H99.3536ZM110.067 246.65C109.707 248.69 108.435 250.082 106.443 250.082C104.067 250.082 102.699 248.114 102.699 245.474C102.699 242.834 104.067 240.866 106.443 240.866C108.435 240.866 109.707 242.258 110.067 244.298L111.891 244.106C111.411 241.13 109.323 239.186 106.443 239.186C103.131 239.186 100.875 241.802 100.875 245.474C100.875 249.146 103.131 251.762 106.443 251.762C109.323 251.762 111.411 249.818 111.891 246.866L110.067 246.65ZM115.624 251.402V245.57C115.624 243.578 116.56 240.962 117.52 240.962C118.168 240.962 118.36 241.826 118.36 242.498V243.818H120.208V242.114C120.208 240.338 119.632 239.186 118.24 239.186C117.52 239.186 116.92 239.714 116.488 240.338C116.056 240.938 115.816 241.634 115.744 242.042C115.72 242.114 115.624 242.69 115.6 242.762L115.528 243.218H115.504L115.552 242.906C115.6 242.522 115.624 242.162 115.624 241.778V239.546H113.8V251.402H115.624ZM121.742 239.546V246.314C121.742 249.818 123.278 251.738 126.206 251.738C128.51 251.738 129.566 250.322 129.95 249.386L130.238 248.498L130.262 248.522L130.19 248.81C130.094 249.17 130.046 249.506 130.046 249.866V251.378H131.87V239.546H130.046V246.194C130.046 248.522 128.726 250.082 126.758 250.082C124.526 250.082 123.566 248.594 123.566 245.954C123.566 244.418 123.566 239.546 123.566 239.546H121.742ZM134.332 251.402H136.18C136.18 248.378 136.18 239.594 136.18 239.546H134.332V251.402ZM135.244 237.866C135.82 237.866 136.276 237.41 136.276 236.858C136.276 236.282 135.82 235.826 135.244 235.826C134.692 235.826 134.236 236.282 134.236 236.858C134.236 237.41 134.692 237.866 135.244 237.866ZM141.524 249.722C141.452 249.722 141.404 249.65 141.404 249.578V241.082H143.492V239.522H141.404V235.322H139.724C139.724 235.346 139.724 237.386 139.724 238.826C139.724 239.258 139.388 239.594 138.956 239.594H137.732V241.082H139.556C139.556 244.034 139.556 250.01 139.556 250.25C139.556 250.874 140.06 251.378 140.684 251.378H144.02V249.722H141.524ZM154.345 241.514C153.697 239.762 152.353 239.186 150.865 239.186C149.305 239.186 148.393 239.906 147.841 240.65C147.529 241.034 147.337 241.466 147.217 241.874L147.049 242.45L147.001 242.426L147.097 242.114C147.193 241.778 147.241 241.418 147.241 241.058V239.546H145.417V251.402H147.241V244.754C147.241 242.426 148.345 240.866 150.193 240.866C151.777 240.866 152.977 241.778 152.977 244.754C152.977 246.266 152.977 251.402 152.977 251.402H154.825V244.754C154.825 242.426 155.905 240.866 157.777 240.866C159.361 240.866 160.561 241.97 160.561 244.634C160.561 246.146 160.561 251.402 160.561 251.402H162.409V244.13C162.409 240.65 160.537 239.186 158.257 239.186C156.313 239.186 155.305 240.386 154.873 241.154C154.657 241.538 154.513 241.922 154.465 242.162C154.441 242.21 154.393 242.45 154.393 242.45L154.369 242.426L154.393 242.258C154.465 241.97 154.441 241.73 154.345 241.514ZM169.537 240.866C171.673 240.866 172.945 242.474 173.161 244.658H165.889C166.105 242.474 167.401 240.866 169.537 240.866ZM175.057 246.026C175.081 245.858 175.105 245.666 175.105 245.474C175.105 241.802 172.849 239.186 169.537 239.186C166.225 239.186 163.969 241.802 163.969 245.474C163.969 249.146 166.225 251.762 169.537 251.762C172.201 251.762 174.145 250.058 174.841 247.514L172.969 247.178C172.561 248.882 171.361 250.082 169.537 250.082C167.305 250.082 166.009 248.33 165.889 246.026H175.057ZM187.186 244.634C187.186 241.13 185.506 239.186 182.722 239.186C181.114 239.186 180.058 239.906 179.458 240.65C179.17 241.01 179.002 241.442 178.882 241.826L178.69 242.45L178.642 242.426L178.738 242.114C178.834 241.778 178.882 241.418 178.882 241.058V239.546H177.058V251.402H178.882V244.754C178.882 242.426 180.178 240.866 182.17 240.866C184.258 240.866 185.362 242.354 185.362 244.994C185.362 246.53 185.362 251.402 185.362 251.402H187.186V244.634ZM191.821 249.722C191.749 249.722 191.701 249.65 191.701 249.578V241.082H193.789V239.522H191.701V235.322H190.021C190.021 235.346 190.021 237.386 190.021 238.826C190.021 239.258 189.685 239.594 189.253 239.594H188.029V241.082H189.853C189.853 244.034 189.853 250.01 189.853 250.25C189.853 250.874 190.357 251.378 190.981 251.378H194.317V249.722H191.821ZM203.972 245.474C203.972 242.81 205.34 240.842 207.716 240.842C210.068 240.842 211.292 242.81 211.292 245.474C211.292 248.114 210.092 250.082 207.716 250.082C205.34 250.082 203.972 248.114 203.972 245.474ZM211.364 235.322V241.418C211.364 241.778 211.412 242.138 211.508 242.474L211.604 242.786H211.58L211.292 241.922C210.98 240.89 210.092 239.186 207.38 239.186C204.236 239.186 202.148 241.802 202.148 245.474C202.148 249.122 204.212 251.738 207.38 251.738C210.092 251.738 211.004 250.01 211.316 248.978L211.58 248.138H211.604L211.508 248.45C211.412 248.786 211.364 249.146 211.364 249.506V251.402H213.212V235.322H211.364ZM217.507 251.402V245.57C217.507 243.578 218.443 240.962 219.403 240.962C220.051 240.962 220.243 241.826 220.243 242.498V243.818H222.091V242.114C222.091 240.338 221.515 239.186 220.123 239.186C219.403 239.186 218.803 239.714 218.371 240.338C217.939 240.938 217.699 241.634 217.627 242.042C217.603 242.114 217.507 242.69 217.483 242.762L217.411 243.218H217.387L217.435 242.906C217.483 242.522 217.507 242.162 217.507 241.778V239.546H215.683V251.402H217.507ZM223.324 251.402H225.172C225.172 248.378 225.172 239.594 225.172 239.546H223.324V251.402ZM224.236 237.866C224.812 237.866 225.268 237.41 225.268 236.858C225.268 236.282 224.812 235.826 224.236 235.826C223.684 235.826 223.228 236.282 223.228 236.858C223.228 237.41 223.684 237.866 224.236 237.866ZM235.7 239.546L232.244 249.362C232.172 249.578 232.124 249.842 232.124 250.082V250.514H232.076V250.082C232.076 249.842 232.052 249.602 231.98 249.362L228.524 239.546H226.628L230.78 251.402H233.444L237.596 239.546H235.7ZM243.295 240.866C245.431 240.866 246.703 242.474 246.919 244.658H239.647C239.863 242.474 241.159 240.866 243.295 240.866ZM248.815 246.026C248.839 245.858 248.863 245.666 248.863 245.474C248.863 241.802 246.607 239.186 243.295 239.186C239.983 239.186 237.727 241.802 237.727 245.474C237.727 249.146 239.983 251.762 243.295 251.762C245.959 251.762 247.903 250.058 248.599 247.514L246.727 247.178C246.319 248.882 245.119 250.082 243.295 250.082C241.063 250.082 239.767 248.33 239.647 246.026H248.815ZM250.023 251.546C250.599 251.546 251.055 251.066 251.055 250.514C251.055 249.938 250.599 249.482 250.023 249.482C249.471 249.482 249.015 249.938 249.015 250.514C249.015 251.066 249.471 251.546 250.023 251.546Z" fill="#303030"/>
<path fill-rule="evenodd" clip-rule="evenodd" d="M399.871 39.6256C417.544 39.6256 431.871 53.654 431.871 70.9589C431.871 75.9261 430.693 80.6128 428.6 84.7761C428.025 85.9216 427.816 87.26 428.095 88.5892L430.756 101.287L417.265 98.8155C415.971 98.5785 414.675 98.7721 413.555 99.2917C409.411 101.215 404.775 102.292 399.871 102.292C382.198 102.292 367.871 88.2638 367.871 70.9589C367.871 53.654 382.198 39.6256 399.871 39.6256ZM439.871 70.9589C439.871 49.3277 421.962 31.7922 399.871 31.7922C377.779 31.7922 359.871 49.3277 359.871 70.9589C359.871 92.5901 377.779 110.126 399.871 110.126C405.763 110.126 411.367 108.876 416.413 106.629L432.21 109.523C436.4 110.29 440.048 106.655 439.191 102.567L436.065 87.6525C438.507 82.584 439.871 76.9222 439.871 70.9589Z" fill="#303030"/>
<path fill-rule="evenodd" clip-rule="evenodd" d="M399.871 49.4172C401.604 49.4172 403.14 50.5098 403.675 52.1236L406.818 61.5958H416.99C418.723 61.5958 420.259 62.6884 420.794 64.3022C421.33 65.9159 420.743 67.6838 419.341 68.6811L411.112 74.5353L414.255 84.0075C414.791 85.6213 414.204 87.3891 412.802 88.3865C411.4 89.3838 409.502 89.3838 408.1 88.3865L399.871 82.5323L391.642 88.3865C390.24 89.3838 388.342 89.3838 386.94 88.3865C385.538 87.3891 384.951 85.6213 385.487 84.0075L388.63 74.5353L380.401 68.6811C378.999 67.6838 378.412 65.9159 378.948 64.3022C379.483 62.6884 381.019 61.5958 382.752 61.5958H392.923L396.067 52.1236C396.602 50.5098 398.138 49.4172 399.871 49.4172ZM399.871 66.0085L399.634 66.7228C399.098 68.3366 397.563 69.4291 395.83 69.4291H395.063L395.683 69.8706C397.085 70.868 397.672 72.6358 397.136 74.2496L396.899 74.9639L397.52 74.5224C398.922 73.525 400.82 73.525 402.222 74.5224L402.843 74.9639L402.606 74.2496C402.07 72.6358 402.657 70.868 404.059 69.8706L404.679 69.4291H403.912C402.179 69.4291 400.643 68.3366 400.108 66.7228L399.871 66.0085Z" fill="#FFF6E9"/>
</svg>
