<svg width="569" height="331" viewBox="0 0 569 331" fill="none" xmlns="http://www.w3.org/2000/svg">
<path d="M84.9174 4.85499V57.335H35.3074V4.85499H0.867422V142H35.3074V87.06H84.9174V142H119.357V4.85499H84.9174ZM165.247 91.57C165.247 75.785 172.627 65.945 184.312 65.945C195.792 65.945 203.172 75.785 203.172 91.57C203.172 107.355 195.792 117.195 184.312 117.195C172.627 117.195 165.247 107.355 165.247 91.57ZM234.742 91.57C234.742 58.155 213.217 37.86 184.312 37.86C155.202 37.86 133.882 58.155 133.882 91.57C133.882 125.19 155.202 145.28 184.312 145.28C213.217 145.28 234.742 125.19 234.742 91.57ZM358.138 40.935L344.198 91.57C343.173 94.85 342.763 98.335 342.763 101.82V105.715H342.148V101.82C342.148 98.335 341.738 94.85 340.713 91.57L325.338 40.935H298.688L283.108 91.57C282.288 94.85 281.673 98.335 281.673 101.82V105.715H281.263V101.82C281.263 98.335 280.853 94.85 279.828 91.57L265.888 40.935H233.498L263.223 142.205H297.458L310.168 101.615C311.193 98.13 311.808 94.44 311.808 90.75V87.265H312.218V90.75C312.218 94.44 312.833 98.13 313.858 101.615L326.568 142.205H360.598L390.528 40.935H358.138ZM457.689 142.205H489.259C489.259 135.645 489.259 41.14 489.259 40.935H457.689V142.205ZM473.474 34.17C482.699 34.17 490.079 26.585 490.079 17.565C490.079 8.34 482.699 0.959995 473.474 0.959995C464.454 0.959995 457.074 8.34 457.074 17.565C457.074 26.585 464.454 34.17 473.474 34.17ZM549.372 114.12C548.142 114.12 547.117 113.095 547.117 111.865V66.355H562.902V40.935H547.117V4.85499H519.442C519.442 4.85499 519.442 28.02 519.442 31.095C519.442 37.245 514.522 42.165 508.372 42.165H501.197V66.355H515.547C515.547 72.71 515.547 124.78 515.547 125.395C515.547 134.62 522.927 142 532.357 142H568.642V114.12H549.372ZM145.73 187.935L131.79 238.57C130.765 241.85 130.355 245.335 130.355 248.82V252.715H129.74V248.82C129.74 245.335 129.33 241.85 128.305 238.57L112.93 187.935H86.2804L70.7004 238.57C69.8804 241.85 69.2654 245.335 69.2654 248.82V252.715H68.8554V248.82C68.8554 245.335 68.4454 241.85 67.4204 238.57L53.4804 187.935H21.0904L50.8154 289.205H85.0504L97.7604 248.615C98.7854 245.13 99.4004 241.44 99.4004 237.75V234.265H99.8104V237.75C99.8104 241.44 100.425 245.13 101.45 248.615L114.16 289.205H148.19L178.12 187.935H145.73ZM208.489 238.57C208.489 222.785 215.869 212.945 227.554 212.945C239.034 212.945 246.414 222.785 246.414 238.57C246.414 254.355 239.034 264.195 227.554 264.195C215.869 264.195 208.489 254.355 208.489 238.57ZM277.984 238.57C277.984 205.155 256.459 184.86 227.554 184.86C198.444 184.86 177.124 205.155 177.124 238.57C177.124 272.19 198.444 292.28 227.554 292.28C256.459 292.28 277.984 272.19 277.984 238.57ZM321.095 244.925C321.095 227.91 324.58 214.995 330.73 214.995C335.24 214.995 335.855 221.145 335.855 226.065V236.93L367.425 236.725V213.15C367.425 198.39 362.095 184.86 345.49 184.86C339.955 184.86 334.42 187.115 330.73 190.6C326.015 195.11 323.76 200.645 322.53 204.335C322.12 205.975 321.505 208.845 321.3 210.69L320.48 215.815H320.07L320.48 213.15C320.89 210.075 321.095 206.795 321.095 203.72V187.935H289.73V289.205H321.095V244.925ZM456.683 218.48L476.158 187.935H438.848C438.848 187.935 418.553 219.505 415.478 224.425C413.633 227.295 412.198 231.395 412.198 235.495L411.993 241.03H411.583V152.06H380.218V289.205H411.583L430.648 259.275L445.408 289.205H480.258L455.453 238.365C452.378 232.01 452.993 224.425 456.683 218.48ZM567.969 260.71C567.969 238.365 548.904 232.42 533.119 228.115C525.124 225.86 513.849 224.22 513.849 217.455C513.849 213.15 516.924 210.075 524.509 210.075C532.299 210.075 535.579 213.56 535.579 218.275L564.484 218.48C564.484 197.775 549.519 184.86 523.074 184.86C495.194 184.86 482.279 198.595 482.279 213.765C482.279 235.905 499.499 242.26 515.284 246.565C526.559 249.64 536.194 252.1 536.194 258.455C536.194 263.99 531.274 266.655 524.304 266.655C514.669 266.655 511.389 260.095 511.389 255.38H480.024C480.024 276.495 495.194 292.075 525.739 292.075C553.619 292.075 567.969 278.955 567.969 260.71Z" fill="#FFF6E9"/>
<line x1="11.0002" y1="315.503" x2="560.603" y2="315.503" stroke="#8CD87C" stroke-width="30"/>
</svg>
