<svg width="49" height="49" viewBox="0 0 49 49" fill="none" xmlns="http://www.w3.org/2000/svg">
<path fill-rule="evenodd" clip-rule="evenodd" d="M38.7917 28.7786C37.6641 28.7786 36.75 29.674 36.75 30.7786C36.75 31.8831 37.6641 32.7786 38.7917 32.7786C39.9192 32.7786 40.8333 31.8831 40.8333 30.7786C40.8333 29.674 39.9192 28.7786 38.7917 28.7786ZM32.6667 30.7786C32.6667 27.4649 35.4089 24.7786 38.7917 24.7786C42.1744 24.7786 44.9167 27.4649 44.9167 30.7786C44.9167 34.0923 42.1744 36.7786 38.7917 36.7786C35.4089 36.7786 32.6667 34.0923 32.6667 30.7786Z" fill="#F98D2B"/>
<path fill-rule="evenodd" clip-rule="evenodd" d="M10.2083 28.7786C9.08073 28.7786 8.16665 29.674 8.16665 30.7786C8.16665 31.8831 9.08073 32.7786 10.2083 32.7786C11.3359 32.7786 12.25 31.8831 12.25 30.7786C12.25 29.674 11.3359 28.7786 10.2083 28.7786ZM4.08331 30.7786C4.08331 27.4649 6.82557 24.7786 10.2083 24.7786C13.5911 24.7786 16.3333 27.4649 16.3333 30.7786C16.3333 34.0923 13.5911 36.7786 10.2083 36.7786C6.82557 36.7786 4.08331 34.0923 4.08331 30.7786Z" fill="#F98D2B"/>
<path fill-rule="evenodd" clip-rule="evenodd" d="M30.625 40.7786C30.625 36.3603 34.2813 32.7786 38.7917 32.7786C43.302 32.7786 46.9583 36.3603 46.9583 40.7786V42.7786C46.9583 44.9877 45.1302 46.7786 42.875 46.7786H34.7083C32.4532 46.7786 30.625 44.9877 30.625 42.7786V40.7786ZM38.7917 36.7786C36.5365 36.7786 34.7083 38.5694 34.7083 40.7786V42.7786H42.875V40.7786C42.875 38.5694 41.0468 36.7786 38.7917 36.7786Z" fill="#F98D2B"/>
<path fill-rule="evenodd" clip-rule="evenodd" d="M2.04166 40.7786C2.04166 36.3603 5.698 32.7786 10.2083 32.7786C14.7186 32.7786 18.375 36.3603 18.375 40.7786V42.7786C18.375 44.9877 16.5468 46.7786 14.2917 46.7786H6.12499C3.86983 46.7786 2.04166 44.9877 2.04166 42.7786V40.7786ZM10.2083 36.7786C7.95316 36.7786 6.12499 38.5694 6.12499 40.7786V42.7786H14.2917V40.7786C14.2917 38.5694 12.4635 36.7786 10.2083 36.7786Z" fill="#F98D2B"/>
<path fill-rule="evenodd" clip-rule="evenodd" d="M10.2083 8.77857C10.2083 5.46486 12.9506 2.77856 16.3333 2.77856H32.1863C35.569 2.77856 38.3113 5.46486 38.3113 8.77856V17.2492C38.3113 20.5629 35.569 23.2492 32.1863 23.2492H29.5541C29.0126 23.2492 28.4933 23.4599 28.1104 23.8349L25.7035 26.1928C25.3206 26.5679 24.8013 26.7786 24.2598 26.7786C23.7183 26.7786 23.199 26.5679 22.8161 26.1928L20.4091 23.8349C20.0263 23.4599 19.507 23.2492 18.9655 23.2492H16.3333C12.9506 23.2492 10.2083 20.5629 10.2083 17.2492V8.77857ZM16.3333 6.77856C15.2057 6.77856 14.2916 7.674 14.2916 8.77857V17.2492C14.2916 18.3537 15.2057 19.2492 16.3333 19.2492H18.9655C20.5899 19.2492 22.1478 19.8813 23.2965 21.0065L24.2598 21.9501L25.2231 21.0065C26.3717 19.8813 27.9296 19.2492 29.5541 19.2492H32.1863C33.3138 19.2492 34.2279 18.3537 34.2279 17.2492V8.77856C34.2279 7.67399 33.3138 6.77856 32.1863 6.77856H16.3333Z" fill="#8CD87C"/>
</svg>
