<svg width="48" height="50" viewBox="0 0 48 50" fill="none" xmlns="http://www.w3.org/2000/svg">
<path fill-rule="evenodd" clip-rule="evenodd" d="M10.2111 44.7821L14.2111 36.6155L17.7888 38.4416L13.7888 46.6083L10.2111 44.7821Z" fill="#F98D2B"/>
<path fill-rule="evenodd" clip-rule="evenodd" d="M39.7889 44.7821L35.7889 36.6155L32.2112 38.4416L36.2112 46.6083L39.7889 44.7821Z" fill="#F98D2B"/>
<path fill-rule="evenodd" clip-rule="evenodd" d="M35.5858 23.8351C35.9609 23.4522 36.4696 23.2371 37 23.2371H44C44.776 23.2371 45.482 23.6953 45.8112 24.4127C46.1403 25.1302 46.0332 25.9772 45.5364 26.5858L35.5364 38.8358C35.1565 39.3013 34.5936 39.5704 34 39.5704H14.554L5.02899 45.4044C4.41113 45.7829 3.64162 45.7928 3.0146 45.4304C2.38759 45.068 2 44.3893 2 43.6537V37.5287C2 36.8116 2.3686 36.147 2.97101 35.778L12.971 29.653C13.2818 29.4626 13.6375 29.3621 14 29.3621H30.1716L35.5858 23.8351ZM37.8284 27.3204L32.4142 32.8474C32.0391 33.2303 31.5304 33.4454 31 33.4454H14.554L6 38.6847V40.0478L12.971 35.778C13.2818 35.5876 13.6375 35.4871 14 35.4871H33.0633L39.7299 27.3204H37.8284Z" fill="#8CD87C"/>
<path fill-rule="evenodd" clip-rule="evenodd" d="M22 45.6953V21.1953H26V45.6953H22Z" fill="#F98D2B"/>
<path fill-rule="evenodd" clip-rule="evenodd" d="M6.33128 18.4958L11.5149 17.1729C11.7811 17.105 12.0582 17.0937 12.3288 17.1398L24 19.1255L35.6712 17.1398C35.9418 17.0937 36.2189 17.105 36.4851 17.1729L41.6687 18.4958C40.1001 12.1461 33.1144 6.90365 24 6.90365C14.8856 6.90365 7.89989 12.1461 6.33128 18.4958ZM2 21.1953C2 10.6455 12.2893 2.82031 24 2.82031C35.7107 2.82031 46 10.6455 46 21.1953C46 21.824 45.7163 22.4177 45.2308 22.8046C44.7454 23.1915 44.1124 23.3285 43.5149 23.176L35.9185 21.2373L24.3288 23.2092C24.1111 23.2462 23.8889 23.2462 23.6712 23.2092L12.0815 21.2373L4.48507 23.176C3.88759 23.3285 3.25461 23.1915 2.76918 22.8046C2.28374 22.4177 2 21.824 2 21.1953Z" fill="#8CD87C"/>
</svg>
