<svg width="48" height="49" viewBox="0 0 48 49" fill="none" xmlns="http://www.w3.org/2000/svg">
<path fill-rule="evenodd" clip-rule="evenodd" d="M36.7279 20.3348C29.6985 13.3054 18.3015 13.3054 11.2721 20.3348L6.82843 24.7785L11.2721 29.2221C18.3015 36.2516 29.6985 36.2516 36.7279 29.2221L41.1716 24.7785L36.7279 20.3348ZM8.44366 17.5064C17.0352 8.91486 30.9648 8.91487 39.5563 17.5064L45.4142 23.3643C46.1953 24.1453 46.1953 25.4116 45.4142 26.1927L39.5563 32.0506C30.9648 40.6421 17.0352 40.6421 8.44365 32.0506L2.58579 26.1927C2.21071 25.8176 2 25.3089 2 24.7785C2 24.248 2.21071 23.7393 2.58579 23.3643L8.44366 17.5064Z" fill="#8CD87C"/>
<path fill-rule="evenodd" clip-rule="evenodd" d="M24 16.7786C19.5817 16.7786 16 20.3603 16 24.7786C16 29.1968 19.5817 32.7786 24 32.7786C28.4183 32.7786 32 29.1968 32 24.7786C32 20.3603 28.4183 16.7786 24 16.7786ZM12 24.7786C12 18.1511 17.3726 12.7786 24 12.7786C30.6274 12.7786 36 18.1511 36 24.7786C36 31.406 30.6274 36.7786 24 36.7786C17.3726 36.7786 12 31.406 12 24.7786Z" fill="#F98D2B"/>
<path fill-rule="evenodd" clip-rule="evenodd" d="M27 20.7786C26.4477 20.7786 26 21.2263 26 21.7786C26 22.3308 26.4477 22.7786 27 22.7786C27.5523 22.7786 28 22.3308 28 21.7786C28 21.2263 27.5523 20.7786 27 20.7786ZM22 21.7786C22 19.0171 24.2386 16.7786 27 16.7786C29.7614 16.7786 32 19.0171 32 21.7786C32 24.54 29.7614 26.7786 27 26.7786C24.2386 26.7786 22 24.54 22 21.7786Z" fill="#8CD87C"/>
</svg>
