<svg width="49" height="48" viewBox="0 0 49 48" fill="none" xmlns="http://www.w3.org/2000/svg">
<path fill-rule="evenodd" clip-rule="evenodd" d="M12.25 30.1535C11.1224 30.1535 10.2083 31.0303 10.2083 32.1118C10.2083 33.1934 11.1224 34.0701 12.25 34.0701C13.3776 34.0701 14.2917 33.1934 14.2917 32.1118C14.2917 31.0303 13.3776 30.1535 12.25 30.1535ZM6.125 32.1118C6.125 28.8671 8.86726 26.2368 12.25 26.2368C15.6327 26.2368 18.375 28.8671 18.375 32.1118C18.375 35.3565 15.6327 37.9868 12.25 37.9868C8.86726 37.9868 6.125 35.3565 6.125 32.1118Z" fill="#8CD87C"/>
<path fill-rule="evenodd" clip-rule="evenodd" d="M36.75 30.1535C35.6224 30.1535 34.7083 31.0303 34.7083 32.1118C34.7083 33.1934 35.6224 34.0701 36.75 34.0701C37.8776 34.0701 38.7917 33.1934 38.7917 32.1118C38.7917 31.0303 37.8776 30.1535 36.75 30.1535ZM30.625 32.1118C30.625 28.8671 33.3673 26.2368 36.75 26.2368C40.1327 26.2368 42.875 28.8671 42.875 32.1118C42.875 35.3565 40.1327 37.9868 36.75 37.9868C33.3673 37.9868 30.625 35.3565 30.625 32.1118Z" fill="#8CD87C"/>
<path fill-rule="evenodd" clip-rule="evenodd" d="M4.08331 41.9034C4.08331 37.5772 7.73965 34.0701 12.25 34.0701C16.7603 34.0701 20.4166 37.5772 20.4166 41.9034C20.4166 44.0665 18.5885 45.8201 16.3333 45.8201H8.16665C5.91148 45.8201 4.08331 44.0665 4.08331 41.9034ZM12.25 37.9867C9.99482 37.9867 8.16665 39.7403 8.16665 41.9034H16.3333C16.3333 39.7403 14.5051 37.9867 12.25 37.9867Z" fill="#8CD87C"/>
<path fill-rule="evenodd" clip-rule="evenodd" d="M28.5833 41.9034C28.5833 37.5772 32.2397 34.0701 36.75 34.0701C41.2603 34.0701 44.9166 37.5772 44.9166 41.9034C44.9166 44.0665 43.0885 45.8201 40.8333 45.8201H32.6666C30.4115 45.8201 28.5833 44.0665 28.5833 41.9034ZM36.75 37.9867C34.4948 37.9867 32.6666 39.7403 32.6666 41.9034H40.8333C40.8333 39.7403 39.0051 37.9867 36.75 37.9867Z" fill="#8CD87C"/>
<path fill-rule="evenodd" clip-rule="evenodd" d="M2.04166 8.61182C2.04166 5.36714 4.78391 2.73682 8.16666 2.73682H40.8333C44.2161 2.73682 46.9583 5.36714 46.9583 8.61182V16.4451C46.9583 19.6898 44.2161 22.3201 40.8333 22.3201H39.6374L38.1937 23.7049C37.8108 24.0722 37.2915 24.2785 36.7501 24.2785C36.2086 24.2785 35.6893 24.0722 35.3064 23.7049L33.8627 22.3201H15.1373L13.6937 23.7049C13.3108 24.0722 12.7915 24.2785 12.25 24.2785C11.7085 24.2785 11.1892 24.0722 10.8063 23.7049L9.36264 22.3201H8.16666C4.78391 22.3201 2.04166 19.6898 2.04166 16.4451V8.61182ZM8.16666 6.65348C7.03908 6.65348 6.12499 7.53026 6.12499 8.61182V16.4451C6.12499 17.5267 7.03908 18.4035 8.16666 18.4035H10.2083C10.7498 18.4035 11.2691 18.6098 11.652 18.9771L12.25 19.5506L12.848 18.9771C13.2309 18.6098 13.7502 18.4035 14.2917 18.4035H34.7084C35.2498 18.4035 35.7691 18.6098 36.152 18.9771L36.75 19.5506L37.348 18.9771C37.7309 18.6098 38.2502 18.4035 38.7917 18.4035H40.8333C41.9609 18.4035 42.875 17.5267 42.875 16.4451V8.61182C42.875 7.53026 41.9609 6.65348 40.8333 6.65348H8.16666Z" fill="#F98D2B"/>
<path fill-rule="evenodd" clip-rule="evenodd" d="M14.2916 14.4867H10.2083V10.5701H14.2916V14.4867Z" fill="#8CD87C"/>
<path fill-rule="evenodd" clip-rule="evenodd" d="M38.7917 14.4867L20.4167 14.4867V10.5701L38.7917 10.5701V14.4867Z" fill="#8CD87C"/>
</svg>
