<svg width="48" height="49" viewBox="0 0 48 49" fill="none" xmlns="http://www.w3.org/2000/svg">
<path fill-rule="evenodd" clip-rule="evenodd" d="M24 7.77856C17.3726 7.77856 12 13.1511 12 19.7786C12 26.406 17.3726 31.7786 24 31.7786C30.6274 31.7786 36 26.406 36 19.7786C36 13.1511 30.6274 7.77856 24 7.77856ZM8 19.7786C8 10.942 15.1634 3.77856 24 3.77856C32.8366 3.77856 40 10.942 40 19.7786C40 28.6151 32.8366 35.7786 24 35.7786C15.1634 35.7786 8 28.6151 8 19.7786Z" fill="#8CD87C"/>
<path fill-rule="evenodd" clip-rule="evenodd" d="M23.9999 9.77856C24.8664 9.77856 25.6343 10.3365 25.9021 11.1605L27.2491 15.3064H31.6084C32.4749 15.3064 33.2428 15.8643 33.5105 16.6884C33.7783 17.5124 33.4849 18.4152 32.784 18.9245L29.2573 21.4868L30.6043 25.6327C30.8721 26.4567 30.5788 27.3594 29.8778 27.8687C29.1768 28.378 28.2276 28.378 27.5267 27.8687L23.9999 25.3064L20.4732 27.8687C19.7723 28.378 18.8231 28.378 18.1221 27.8687C17.4211 27.3594 17.1278 26.4567 17.3956 25.6327L18.7426 21.4868L15.2159 18.9245C14.5149 18.4152 14.2216 17.5124 14.4894 16.6884C14.7571 15.8643 15.525 15.3064 16.3915 15.3064H20.7507L22.0978 11.1605C22.3656 10.3365 23.1335 9.77856 23.9999 9.77856ZM23.9999 18.1864C23.7091 18.7807 23.1408 19.1936 22.4857 19.2866C22.961 19.7468 23.1781 20.4149 23.0641 21.0667C23.6487 20.7568 24.3512 20.7568 24.9358 21.0667C24.8218 20.4149 25.0389 19.7469 25.5142 19.2866C24.8591 19.1936 24.2908 18.7807 23.9999 18.1864Z" fill="#F98D2B"/>
<path fill-rule="evenodd" clip-rule="evenodd" d="M16 29.7786C17.1046 29.7786 18 30.674 18 31.7786V40.5425L23.1056 37.9897C23.6686 37.7082 24.3314 37.7082 24.8944 37.9897L30 40.5425V31.7786C30 30.674 30.8954 29.7786 32 29.7786C33.1046 29.7786 34 30.674 34 31.7786V43.7786C34 44.4717 33.6411 45.1155 33.0515 45.4799C32.4618 45.8443 31.7255 45.8774 31.1056 45.5674L24 42.0146L16.8944 45.5674C16.2745 45.8774 15.5382 45.8443 14.9485 45.4799C14.3589 45.1155 14 44.4717 14 43.7786V31.7786C14 30.674 14.8954 29.7786 16 29.7786Z" fill="#8CD87C"/>
</svg>
