<svg width="742" height="340" viewBox="0 0 742 340" fill="none" xmlns="http://www.w3.org/2000/svg">
<line x1="0.5" y1="324.779" x2="741.299" y2="324.779" stroke="#8CD87C" stroke-width="30"/>
<path d="M38.59 72.3086C38.59 45.8636 51.3 30.2836 70.16 30.2836C88.815 30.2836 101.525 45.8636 101.525 72.3086C101.525 98.5486 88.815 114.129 70.16 114.129C51.3 114.129 38.59 98.5486 38.59 72.3086ZM137.81 72.3086C137.81 27.2086 108.7 0.558561 70.16 0.558561C31.62 0.558561 2.51 27.2086 2.51 72.3086C2.51 117.204 31.62 143.854 70.16 143.854C108.7 143.854 137.81 117.204 137.81 72.3086ZM150.126 39.7136V99.1636C150.126 126.019 161.606 143.854 185.181 143.854C205.476 143.854 210.806 132.169 212.651 125.404L213.881 120.074H214.291L213.676 122.124C213.061 125.814 212.651 129.504 212.651 133.399V140.779H244.221V39.7136H212.651V91.7836C212.651 106.954 207.731 115.974 196.866 115.974C185.591 115.974 181.491 107.159 181.491 91.3736C181.491 88.0936 181.491 39.7136 181.491 39.7136H150.126ZM293.429 96.7036C293.429 79.6886 296.914 66.7736 303.064 66.7736C307.574 66.7736 308.189 72.9236 308.189 77.8436V88.7086L339.759 88.5036V64.9286C339.759 50.1686 334.429 36.6386 317.824 36.6386C312.289 36.6386 306.754 38.8936 303.064 42.3786C298.349 46.8886 296.094 52.4236 294.864 56.1136C294.454 57.7536 293.839 60.6236 293.634 62.4686L292.814 67.5936H292.404L292.814 64.9286C293.224 61.8536 293.429 58.5736 293.429 55.4986V39.7136H262.064V140.984H293.429V96.7036ZM77.54 237.349C77.54 253.134 70.16 262.974 58.68 262.974C46.995 262.974 40.025 253.134 40.025 237.349C40.025 221.564 46.995 211.724 58.68 211.724C70.16 211.724 77.54 221.564 77.54 237.349ZM38.18 324.064V279.784C38.18 275.889 37.77 272.199 37.155 268.509L36.54 266.459L36.95 266.254L38.18 271.584C39.82 278.759 44.74 291.059 65.855 291.059C93.12 291.059 109.11 267.689 109.11 237.349C109.11 207.009 93.12 183.639 65.855 183.639C44.74 183.639 39.82 196.144 38.18 203.114L36.95 208.444L36.54 208.239L37.155 206.189C37.77 202.499 38.18 198.809 38.18 195.119V186.714H6.815V324.064H38.18ZM152.692 243.704C152.692 226.689 156.177 213.774 162.327 213.774C166.837 213.774 167.452 219.924 167.452 224.844V235.709L199.022 235.504V211.929C199.022 197.169 193.692 183.639 177.087 183.639C171.552 183.639 166.017 185.894 162.327 189.379C157.612 193.889 155.357 199.424 154.127 203.114C153.717 204.754 153.102 207.624 152.897 209.469L152.077 214.594H151.667L152.077 211.929C152.487 208.854 152.692 205.574 152.692 202.499V186.714H121.327V287.984H152.692V243.704ZM239.08 237.349C239.08 221.564 246.46 211.724 258.145 211.724C269.625 211.724 277.005 221.564 277.005 237.349C277.005 253.134 269.625 262.974 258.145 262.974C246.46 262.974 239.08 253.134 239.08 237.349ZM308.575 237.349C308.575 203.934 287.05 183.639 258.145 183.639C229.035 183.639 207.715 203.934 207.715 237.349C207.715 270.969 229.035 291.059 258.145 291.059C287.05 291.059 308.575 270.969 308.575 237.349ZM406.421 197.784C400.681 188.149 392.686 183.639 381.001 183.639C368.496 183.639 361.116 188.149 356.606 193.274C353.736 196.554 352.096 200.039 351.481 202.909L350.456 207.624H350.046L350.661 205.574C351.276 201.884 351.686 197.989 351.686 194.299V186.714H320.321V287.984H351.686V235.709C351.686 220.744 356.196 211.724 366.651 211.724C376.491 211.724 381.206 219.309 381.206 235.709C381.206 238.989 381.206 287.984 381.206 287.984H412.776V235.709C412.776 220.744 417.286 211.724 427.741 211.724C437.581 211.724 442.296 219.719 442.296 235.504C442.296 238.784 442.296 287.984 442.296 287.984H473.866V225.254C473.866 198.194 460.336 183.639 438.196 183.639C424.871 183.639 417.081 189.379 412.776 194.504C410.111 197.784 408.881 201.064 408.266 203.524C408.266 203.729 407.446 207.624 407.446 207.624H407.036L407.446 205.779C408.266 202.294 407.651 199.834 406.421 197.784ZM490.482 287.984H522.052C522.052 281.424 522.052 186.919 522.052 186.714H490.482V287.984ZM506.267 179.949C515.492 179.949 522.872 172.364 522.872 163.344C522.872 154.119 515.492 146.739 506.267 146.739C497.247 146.739 489.867 154.119 489.867 163.344C489.867 172.364 497.247 179.949 506.267 179.949ZM623.985 259.489C623.985 237.144 604.92 231.199 589.135 226.894C581.14 224.639 569.865 222.999 569.865 216.234C569.865 211.929 572.94 208.854 580.525 208.854C588.315 208.854 591.595 212.339 591.595 217.054L620.5 217.259C620.5 196.554 605.535 183.639 579.09 183.639C551.21 183.639 538.295 197.374 538.295 212.544C538.295 234.684 555.515 241.039 571.3 245.344C582.575 248.419 592.21 250.879 592.21 257.234C592.21 262.769 587.29 265.434 580.32 265.434C570.685 265.434 567.405 258.874 567.405 254.159H536.04C536.04 275.274 551.21 290.854 581.755 290.854C609.635 290.854 623.985 277.734 623.985 259.489ZM684.161 211.724C692.771 211.724 698.716 217.464 700.971 226.074H667.146C669.401 217.464 675.346 211.724 684.161 211.724ZM733.771 247.599C734.181 244.319 734.591 241.039 734.591 237.349C734.591 203.934 713.066 183.639 684.161 183.639C655.051 183.639 633.731 203.934 633.731 237.349C633.731 270.969 655.051 291.059 684.161 291.059C706.096 291.059 723.726 279.374 730.901 259.079L698.921 253.339C696.051 259.284 690.926 262.974 684.161 262.974C675.141 262.974 668.991 256.824 666.941 247.599H733.771Z" fill="#FFF6E9"/>
</svg>
