<svg width="97" height="93" viewBox="0 0 97 93" fill="none" xmlns="http://www.w3.org/2000/svg">
<path fill-rule="evenodd" clip-rule="evenodd" d="M49.5386 11.9262C45.6938 11.9262 42.577 14.9157 42.577 18.6035C42.577 22.2914 45.6938 25.2809 49.5386 25.2809C53.3833 25.2809 56.5001 22.2914 56.5001 18.6035C56.5001 14.9157 53.3833 11.9262 49.5386 11.9262ZM34.577 18.6035C34.577 10.6778 41.2755 4.25269 49.5386 4.25269C57.8016 4.25269 64.5001 10.6778 64.5001 18.6035C64.5001 26.5293 57.8016 32.9544 49.5386 32.9544C41.2755 32.9544 34.577 26.5293 34.577 18.6035Z" fill="#303030"/>
<path fill-rule="evenodd" clip-rule="evenodd" d="M38.7016 36.4131C36.152 38.5031 34.538 41.5141 34.538 45.4239C34.538 47.5428 32.7471 49.2606 30.538 49.2606C28.3288 49.2606 26.538 47.5428 26.538 45.4239C26.538 39.2686 29.1772 34.1265 33.5043 30.5796C37.7729 27.0806 43.4878 25.281 49.538 25.281C55.5881 25.281 61.303 27.0806 65.5717 30.5796C69.8987 34.1265 72.538 39.2686 72.538 45.4239C72.538 47.5428 70.7471 49.2606 68.538 49.2606C66.3288 49.2606 64.538 47.5428 64.538 45.4239C64.538 41.5141 62.924 38.5031 60.3743 36.4131C57.7663 34.2754 53.9812 32.9545 49.538 32.9545C45.0947 32.9545 41.3096 34.2754 38.7016 36.4131Z" fill="#303030"/>
<path fill-rule="evenodd" clip-rule="evenodd" d="M44.538 61.8038C44.538 51.2089 53.4923 42.6201 64.538 42.6201H80.538C82.7471 42.6201 84.538 44.3379 84.538 46.4569V79.7086C84.538 81.5841 83.1243 83.1847 81.1956 83.4931L49.1956 88.6087C48.0357 88.7941 46.8496 88.4807 45.9525 87.7517C45.0553 87.0227 44.538 85.952 44.538 84.8242V61.8038ZM64.538 50.2936C57.9105 50.2936 52.538 55.4469 52.538 61.8038V80.2951L76.538 76.4584V50.2936H64.538Z" fill="#FFF6E9"/>
<path fill-rule="evenodd" clip-rule="evenodd" d="M52.538 61.8038C52.538 51.2089 43.5837 42.6201 32.538 42.6201H16.538C14.3288 42.6201 12.538 44.3379 12.538 46.4569V79.7086C12.538 81.5841 13.9516 83.1847 15.8804 83.4931L47.8804 88.6087C49.0402 88.7941 50.2263 88.4807 51.1235 87.7517C52.0206 87.0227 52.538 85.952 52.538 84.8242V61.8038ZM32.538 50.2936C39.1654 50.2936 44.538 55.4469 44.538 61.8038V80.2951L20.538 76.4584V50.2936H32.538Z" fill="#FFF6E9"/>
</svg>
