<svg width="97" height="97" viewBox="0 0 97 97" fill="none" xmlns="http://www.w3.org/2000/svg">
<path fill-rule="evenodd" clip-rule="evenodd" d="M48.8704 16.2498C66.5435 16.2498 80.8704 30.5766 80.8704 48.2498C80.8704 53.3226 79.6929 58.109 77.6 62.361C77.0242 63.5308 76.8156 64.8977 77.0941 66.2552L79.7555 79.2233L66.2642 76.6991C64.9703 76.457 63.6748 76.6548 62.5551 77.1854C58.4109 79.1492 53.7747 80.2498 48.8704 80.2498C31.1973 80.2498 16.8704 65.9229 16.8704 48.2498C16.8704 30.5766 31.1973 16.2498 48.8704 16.2498ZM88.8704 48.2498C88.8704 26.1584 70.9618 8.24976 48.8704 8.24976C26.779 8.24976 8.87036 26.1584 8.87036 48.2498C8.87036 70.3411 26.779 88.2498 48.8704 88.2498C54.7623 88.2498 60.3664 86.9733 65.4127 84.6786L81.2094 87.6342C85.3991 88.4181 89.0473 84.7057 88.1904 80.5303L85.0645 65.2985C87.5066 60.1222 88.8704 54.34 88.8704 48.2498Z" fill="#303030"/>
<path fill-rule="evenodd" clip-rule="evenodd" d="M20.8704 48.2498C20.8704 43.8315 24.4521 40.2498 28.8704 40.2498C33.2886 40.2498 36.8704 43.8315 36.8704 48.2498C36.8704 52.668 33.2886 56.2498 28.8704 56.2498C24.4521 56.2498 20.8704 52.668 20.8704 48.2498Z" fill="#FFF6E9"/>
<path fill-rule="evenodd" clip-rule="evenodd" d="M40.8704 48.2498C40.8704 43.8315 44.4521 40.2498 48.8704 40.2498C53.2886 40.2498 56.8704 43.8315 56.8704 48.2498C56.8704 52.668 53.2886 56.2498 48.8704 56.2498C44.4521 56.2498 40.8704 52.668 40.8704 48.2498Z" fill="#FFF6E9"/>
<path fill-rule="evenodd" clip-rule="evenodd" d="M60.8704 48.2498C60.8704 43.8315 64.4521 40.2498 68.8704 40.2498C73.2886 40.2498 76.8704 43.8315 76.8704 48.2498C76.8704 52.668 73.2886 56.2498 68.8704 56.2498C64.4521 56.2498 60.8704 52.668 60.8704 48.2498Z" fill="#FFF6E9"/>
</svg>
