<svg width="96" height="95" viewBox="0 0 96 95" fill="none" xmlns="http://www.w3.org/2000/svg">
<path fill-rule="evenodd" clip-rule="evenodd" d="M44.8284 11.2465L28.8284 26.92C27.2663 28.4502 24.7337 28.4502 23.1716 26.92L15.1716 19.0832L20.8284 13.5418L26 18.6078L39.1716 5.70508L44.8284 11.2465Z" fill="#FFF6E9"/>
<path fill-rule="evenodd" clip-rule="evenodd" d="M44.8284 38.675L28.8284 54.3484C27.2663 55.8786 24.7337 55.8786 23.1716 54.3484L15.1716 46.5117L20.8284 40.9703L26 46.0363L39.1716 33.1335L44.8284 38.675Z" fill="#FFF6E9"/>
<path fill-rule="evenodd" clip-rule="evenodd" d="M16 71.1696C16 69.0055 17.7909 67.2512 20 67.2512H36C38.2091 67.2512 40 69.0055 40 71.1696V86.8431C40 89.0071 38.2091 90.7614 36 90.7614H20C17.7909 90.7614 16 89.0071 16 86.8431V71.1696ZM24 75.088V82.9247H32V75.088H24Z" fill="#FFF6E9"/>
<path fill-rule="evenodd" clip-rule="evenodd" d="M80 24.1492H48V16.3125H80V24.1492Z" fill="#303030"/>
<path fill-rule="evenodd" clip-rule="evenodd" d="M80 51.5779H48V43.7412H80V51.5779Z" fill="#303030"/>
<path fill-rule="evenodd" clip-rule="evenodd" d="M80 82.9249H48V75.0881H80V82.9249Z" fill="#303030"/>
</svg>
