<svg width="96" height="99" viewBox="0 0 96 99" fill="none" xmlns="http://www.w3.org/2000/svg">
<path fill-rule="evenodd" clip-rule="evenodd" d="M24 12.9744C19.5817 12.9744 16 16.6323 16 21.1446V78.3361C16 82.8484 19.5817 86.5063 24 86.5063H40V94.6765H24C15.1634 94.6765 8 87.3607 8 78.3361V21.1446C8 12.1201 15.1634 4.8042 24 4.8042H64C72.8366 4.8042 80 12.1201 80 21.1446V45.6553H72V21.1446C72 16.6323 68.4183 12.9744 64 12.9744H24Z" fill="#303030"/>
<path fill-rule="evenodd" clip-rule="evenodd" d="M71.1612 56.2622C74.3426 53.0132 79.5006 53.0132 82.682 56.2622L85.614 59.2565C88.7954 62.5056 88.7954 67.7733 85.6141 71.0223C85.614 71.0224 85.6141 71.0223 85.6141 71.0223L65.0904 91.9829C64.4784 92.6079 63.6844 93.0133 62.8276 93.1383L52.5657 94.6354C51.3193 94.8173 50.0619 94.3892 49.1716 93.48C48.2813 92.5708 47.8622 91.2866 48.0402 90.0137L49.5062 79.5335C49.6286 78.6585 50.0256 77.8477 50.6376 77.2227L71.1612 56.2622ZM68.1259 70.9169L57.2373 82.037L56.7141 85.7771L60.3764 85.2428L71.2649 74.1226L68.1259 70.9169ZM76.9217 68.3454L79.9571 65.2453C80.0142 65.1869 80.0143 65.0922 79.9572 65.0338L77.0252 62.0395C76.968 61.9811 76.8754 61.9811 76.8182 62.0394C76.8181 62.0394 76.8182 62.0393 76.8182 62.0394L73.7827 65.1396L76.9217 68.3454Z" fill="#FFF6E9"/>
<path fill-rule="evenodd" clip-rule="evenodd" d="M60 33.3999H28V25.2297H60V33.3999Z" fill="#FFF6E9"/>
<path fill-rule="evenodd" clip-rule="evenodd" d="M60 53.8255H28V45.6553H60V53.8255Z" fill="#FFF6E9"/>
<path fill-rule="evenodd" clip-rule="evenodd" d="M44 74.251H28V66.0808H44V74.251Z" fill="#FFF6E9"/>
</svg>
