<svg width="97" height="97" viewBox="0 0 97 97" fill="none" xmlns="http://www.w3.org/2000/svg">
<path fill-rule="evenodd" clip-rule="evenodd" d="M46.0423 21.2521C46.7924 20.502 47.8099 20.0806 48.8707 20.0806H60.8707C61.9316 20.0806 62.949 20.502 63.6992 21.2521L70.5276 28.0806H88.8707C91.0799 28.0806 92.8707 29.8714 92.8707 32.0806V60.0806C92.8707 62.2897 91.0799 64.0806 88.8707 64.0806H68.8707V56.0806H84.8707V36.0806H68.8707C67.8099 36.0806 66.7924 35.6591 66.0423 34.909L59.2139 28.0806H50.5276L41.6991 36.909C41.0521 37.556 41.0521 38.6051 41.6992 39.2521C42.3462 39.8992 43.3953 39.8992 44.0423 39.2521L52.0423 31.2521L57.6992 36.909L49.6992 44.909C45.9279 48.6802 39.8135 48.6802 36.0423 44.909C32.2711 41.1378 32.2711 35.0234 36.0423 31.2521L46.0423 21.2521Z" fill="#303030"/>
<path fill-rule="evenodd" clip-rule="evenodd" d="M26.0418 21.2521C26.792 20.502 27.8094 20.0806 28.8702 20.0806H48.8702V28.0806H30.5271L23.6987 34.909C22.9485 35.6591 21.9311 36.0806 20.8702 36.0806H12.8702V56.0806H24.8702C25.9311 56.0806 26.9485 56.502 27.6987 57.2521L38.5271 68.0806H63.2134L67.2134 64.0806L46.0418 42.909L51.6987 37.2521L75.6987 61.2521C77.2608 62.8142 77.2608 65.3469 75.6987 66.909L67.6987 74.909C66.9485 75.6591 65.9311 76.0806 64.8702 76.0806H36.8702C35.8094 76.0806 34.792 75.6591 34.0418 74.909L23.2134 64.0806H8.87024C6.6611 64.0806 4.87024 62.2897 4.87024 60.0806V32.0806C4.87024 29.8714 6.6611 28.0806 8.87024 28.0806H19.2134L26.0418 21.2521Z" fill="#FFF6E9"/>
<path d="M46.0418 21.2521C46.792 20.502 47.8094 20.0806 48.8702 20.0806H60.8702C61.9311 20.0806 62.9485 20.502 63.6987 21.2521L70.5271 28.0806H88.8702C91.0794 28.0806 92.8702 29.8714 92.8702 32.0806V60.0806C92.8702 62.2897 91.0794 64.0806 88.8702 64.0806L84.8702 56.0806V36.0806H68.8702C67.8094 36.0806 66.792 35.6591 66.0418 34.909L59.2134 28.0806H50.5271L41.6987 36.909C41.0516 37.556 41.0516 38.6051 41.6987 39.2521C42.3457 39.8992 43.3948 39.8992 44.0418 39.2521L52.0418 31.2521L57.6987 36.909L49.6987 44.909C45.9274 48.6802 39.813 48.6802 36.0418 44.909C32.2706 41.1378 32.2706 35.0234 36.0418 31.2521L46.0418 21.2521Z" fill="#303030"/>
</svg>
