<svg width="48" height="48" viewBox="0 0 48 48" fill="none" xmlns="http://www.w3.org/2000/svg">
<path fill-rule="evenodd" clip-rule="evenodd" d="M24 7C17.3726 7 12 12.3726 12 19C12 25.6274 17.3726 31 24 31C30.6274 31 36 25.6274 36 19C36 12.3726 30.6274 7 24 7ZM8 19C8 10.1634 15.1634 3 24 3C32.8366 3 40 10.1634 40 19C40 27.8366 32.8366 35 24 35C15.1634 35 8 27.8366 8 19Z" fill="#8CD87C"/>
<path fill-rule="evenodd" clip-rule="evenodd" d="M23.9999 9C24.8664 9 25.6343 9.55792 25.9021 10.382L27.2491 14.5279H31.6084C32.4749 14.5279 33.2428 15.0858 33.5105 15.9098C33.7783 16.7339 33.4849 17.6366 32.784 18.1459L29.2573 20.7082L30.6043 24.8541C30.8721 25.6781 30.5788 26.5809 29.8778 27.0902C29.1768 27.5995 28.2276 27.5995 27.5267 27.0902L23.9999 24.5279L20.4732 27.0902C19.7723 27.5995 18.8231 27.5995 18.1221 27.0902C17.4211 26.5809 17.1278 25.6781 17.3956 24.8541L18.7426 20.7082L15.2159 18.1459C14.5149 17.6366 14.2216 16.7339 14.4894 15.9098C14.7571 15.0858 15.525 14.5279 16.3915 14.5279H20.7507L22.0978 10.382C22.3656 9.55792 23.1335 9 23.9999 9ZM23.9999 17.4078C23.7091 18.0021 23.1408 18.415 22.4857 18.508C22.961 18.9683 23.1781 19.6363 23.0641 20.2881C23.6487 19.9783 24.3512 19.9783 24.9358 20.2881C24.8218 19.6363 25.0389 18.9683 25.5142 18.508C24.8591 18.415 24.2908 18.0021 23.9999 17.4078Z" fill="#F98D2B"/>
<path fill-rule="evenodd" clip-rule="evenodd" d="M16 29C17.1046 29 18 29.8954 18 31V39.7639L23.1056 37.2111C23.6686 36.9296 24.3314 36.9296 24.8944 37.2111L30 39.7639V31C30 29.8954 30.8954 29 32 29C33.1046 29 34 29.8954 34 31V43C34 43.6932 33.6411 44.3369 33.0515 44.7013C32.4618 45.0657 31.7255 45.0988 31.1056 44.7889L24 41.2361L16.8944 44.7889C16.2745 45.0988 15.5382 45.0657 14.9485 44.7013C14.3589 44.3369 14 43.6932 14 43V31C14 29.8954 14.8954 29 16 29Z" fill="#8CD87C"/>
</svg>
