<svg width="49" height="48" viewBox="0 0 49 48" fill="none" xmlns="http://www.w3.org/2000/svg">
<path fill-rule="evenodd" clip-rule="evenodd" d="M38.7917 28C37.6641 28 36.75 28.8954 36.75 30C36.75 31.1046 37.6641 32 38.7917 32C39.9192 32 40.8333 31.1046 40.8333 30C40.8333 28.8954 39.9192 28 38.7917 28ZM32.6667 30C32.6667 26.6863 35.4089 24 38.7917 24C42.1744 24 44.9167 26.6863 44.9167 30C44.9167 33.3137 42.1744 36 38.7917 36C35.4089 36 32.6667 33.3137 32.6667 30Z" fill="#F98D2B"/>
<path fill-rule="evenodd" clip-rule="evenodd" d="M10.2083 28C9.08073 28 8.16665 28.8954 8.16665 30C8.16665 31.1046 9.08073 32 10.2083 32C11.3359 32 12.25 31.1046 12.25 30C12.25 28.8954 11.3359 28 10.2083 28ZM4.08331 30C4.08331 26.6863 6.82557 24 10.2083 24C13.5911 24 16.3333 26.6863 16.3333 30C16.3333 33.3137 13.5911 36 10.2083 36C6.82557 36 4.08331 33.3137 4.08331 30Z" fill="#F98D2B"/>
<path fill-rule="evenodd" clip-rule="evenodd" d="M30.625 40C30.625 35.5817 34.2813 32 38.7917 32C43.302 32 46.9583 35.5817 46.9583 40V42C46.9583 44.2091 45.1302 46 42.875 46H34.7083C32.4532 46 30.625 44.2091 30.625 42V40ZM38.7917 36C36.5365 36 34.7083 37.7909 34.7083 40V42H42.875V40C42.875 37.7909 41.0468 36 38.7917 36Z" fill="#F98D2B"/>
<path fill-rule="evenodd" clip-rule="evenodd" d="M2.04166 40C2.04166 35.5817 5.698 32 10.2083 32C14.7186 32 18.375 35.5817 18.375 40V42C18.375 44.2091 16.5468 46 14.2917 46H6.12499C3.86983 46 2.04166 44.2091 2.04166 42V40ZM10.2083 36C7.95316 36 6.12499 37.7909 6.12499 40V42H14.2917V40C14.2917 37.7909 12.4635 36 10.2083 36Z" fill="#F98D2B"/>
<path fill-rule="evenodd" clip-rule="evenodd" d="M10.2083 8C10.2083 4.6863 12.9506 2 16.3333 2H32.1863C35.569 2 38.3113 4.68629 38.3113 8V16.4706C38.3113 19.7843 35.569 22.4706 32.1863 22.4706H29.5541C29.0126 22.4706 28.4933 22.6813 28.1104 23.0564L25.7035 25.4142C25.3206 25.7893 24.8013 26 24.2598 26C23.7183 26 23.199 25.7893 22.8161 25.4142L20.4091 23.0564C20.0263 22.6813 19.507 22.4706 18.9655 22.4706H16.3333C12.9506 22.4706 10.2083 19.7843 10.2083 16.4706V8ZM16.3333 6C15.2057 6 14.2916 6.89543 14.2916 8V16.4706C14.2916 17.5752 15.2057 18.4706 16.3333 18.4706H18.9655C20.5899 18.4706 22.1478 19.1027 23.2965 20.2279L24.2598 21.1716L25.2231 20.2279C26.3717 19.1027 27.9296 18.4706 29.5541 18.4706H32.1863C33.3138 18.4706 34.2279 17.5752 34.2279 16.4706V8C34.2279 6.89543 33.3138 6 32.1863 6H16.3333Z" fill="#8CD87C"/>
</svg>
