<svg width="49" height="47" viewBox="0 0 49 47" fill="none" xmlns="http://www.w3.org/2000/svg">
<path fill-rule="evenodd" clip-rule="evenodd" d="M12.25 29.3749C11.1224 29.3749 10.2083 30.2517 10.2083 31.3333C10.2083 32.4148 11.1224 33.2916 12.25 33.2916C13.3776 33.2916 14.2917 32.4148 14.2917 31.3333C14.2917 30.2517 13.3776 29.3749 12.25 29.3749ZM6.125 31.3333C6.125 28.0886 8.86726 25.4583 12.25 25.4583C15.6327 25.4583 18.375 28.0886 18.375 31.3333C18.375 34.5779 15.6327 37.2083 12.25 37.2083C8.86726 37.2083 6.125 34.5779 6.125 31.3333Z" fill="#8CD87C"/>
<path fill-rule="evenodd" clip-rule="evenodd" d="M36.75 29.3749C35.6224 29.3749 34.7083 30.2517 34.7083 31.3333C34.7083 32.4148 35.6224 33.2916 36.75 33.2916C37.8776 33.2916 38.7917 32.4148 38.7917 31.3333C38.7917 30.2517 37.8776 29.3749 36.75 29.3749ZM30.625 31.3333C30.625 28.0886 33.3673 25.4583 36.75 25.4583C40.1327 25.4583 42.875 28.0886 42.875 31.3333C42.875 34.5779 40.1327 37.2083 36.75 37.2083C33.3673 37.2083 30.625 34.5779 30.625 31.3333Z" fill="#8CD87C"/>
<path fill-rule="evenodd" clip-rule="evenodd" d="M4.08331 41.1248C4.08331 36.7986 7.73965 33.2915 12.25 33.2915C16.7603 33.2915 20.4166 36.7986 20.4166 41.1248C20.4166 43.288 18.5885 45.0415 16.3333 45.0415H8.16665C5.91148 45.0415 4.08331 43.288 4.08331 41.1248ZM12.25 37.2082C9.99482 37.2082 8.16665 38.9617 8.16665 41.1248H16.3333C16.3333 38.9617 14.5051 37.2082 12.25 37.2082Z" fill="#8CD87C"/>
<path fill-rule="evenodd" clip-rule="evenodd" d="M28.5833 41.1248C28.5833 36.7986 32.2397 33.2915 36.75 33.2915C41.2603 33.2915 44.9166 36.7986 44.9166 41.1248C44.9166 43.288 43.0885 45.0415 40.8333 45.0415H32.6666C30.4115 45.0415 28.5833 43.288 28.5833 41.1248ZM36.75 37.2082C34.4948 37.2082 32.6666 38.9617 32.6666 41.1248H40.8333C40.8333 38.9617 39.0051 37.2082 36.75 37.2082Z" fill="#8CD87C"/>
<path fill-rule="evenodd" clip-rule="evenodd" d="M2.04166 7.83325C2.04166 4.58858 4.78391 1.95825 8.16666 1.95825H40.8333C44.2161 1.95825 46.9583 4.58858 46.9583 7.83325V15.6666C46.9583 18.9113 44.2161 21.5416 40.8333 21.5416H39.6374L38.1937 22.9263C37.8108 23.2936 37.2915 23.4999 36.7501 23.4999C36.2086 23.4999 35.6893 23.2936 35.3064 22.9263L33.8627 21.5416H15.1373L13.6937 22.9263C13.3108 23.2936 12.7915 23.4999 12.25 23.4999C11.7085 23.4999 11.1892 23.2936 10.8063 22.9263L9.36264 21.5416H8.16666C4.78391 21.5416 2.04166 18.9113 2.04166 15.6666V7.83325ZM8.16666 5.87492C7.03908 5.87492 6.12499 6.75169 6.12499 7.83325V15.6666C6.12499 16.7481 7.03908 17.6249 8.16666 17.6249H10.2083C10.7498 17.6249 11.2691 17.8312 11.652 18.1985L12.25 18.7721L12.848 18.1985C13.2309 17.8312 13.7502 17.6249 14.2917 17.6249H34.7084C35.2498 17.6249 35.7691 17.8312 36.152 18.1985L36.75 18.7721L37.348 18.1985C37.7309 17.8312 38.2502 17.6249 38.7917 17.6249H40.8333C41.9609 17.6249 42.875 16.7481 42.875 15.6666V7.83325C42.875 6.7517 41.9609 5.87492 40.8333 5.87492H8.16666Z" fill="#F98D2B"/>
<path fill-rule="evenodd" clip-rule="evenodd" d="M14.2916 13.7082H10.2083V9.7915H14.2916V13.7082Z" fill="#8CD87C"/>
<path fill-rule="evenodd" clip-rule="evenodd" d="M38.7917 13.7082L20.4167 13.7082V9.7915L38.7917 9.7915V13.7082Z" fill="#8CD87C"/>
</svg>
