<svg width="48" height="49" viewBox="0 0 48 49" fill="none" xmlns="http://www.w3.org/2000/svg">
<path fill-rule="evenodd" clip-rule="evenodd" d="M10.2111 44.0036L14.2111 35.8369L17.7888 37.663L13.7888 45.8297L10.2111 44.0036Z" fill="#F98D2B"/>
<path fill-rule="evenodd" clip-rule="evenodd" d="M39.7889 44.0036L35.7889 35.8369L32.2112 37.663L36.2112 45.8297L39.7889 44.0036Z" fill="#F98D2B"/>
<path fill-rule="evenodd" clip-rule="evenodd" d="M35.5858 23.0562C35.9609 22.6734 36.4696 22.4583 37 22.4583H44C44.776 22.4583 45.482 22.9165 45.8112 23.6339C46.1403 24.3513 46.0332 25.1984 45.5364 25.807L35.5364 38.057C35.1565 38.5224 34.5936 38.7916 34 38.7916H14.554L5.02899 44.6256C4.41113 45.0041 3.64162 45.014 3.0146 44.6516C2.38759 44.2892 2 43.6105 2 42.8749V36.7499C2 36.0328 2.3686 35.3682 2.97101 34.9992L12.971 28.8742C13.2818 28.6838 13.6375 28.5833 14 28.5833H30.1716L35.5858 23.0562ZM37.8284 26.5416L32.4142 32.0686C32.0391 32.4515 31.5304 32.6666 31 32.6666H14.554L6 37.9059V39.2689L12.971 34.9992C13.2818 34.8088 13.6375 34.7083 14 34.7083H33.0633L39.7299 26.5416H37.8284Z" fill="#8CD87C"/>
<path fill-rule="evenodd" clip-rule="evenodd" d="M22 44.9165V20.4165H26V44.9165H22Z" fill="#F98D2B"/>
<path fill-rule="evenodd" clip-rule="evenodd" d="M6.33128 17.7172L11.5149 16.3943C11.7811 16.3263 12.0582 16.315 12.3288 16.3611L24 18.3468L35.6712 16.3611C35.9418 16.315 36.2189 16.3263 36.4851 16.3943L41.6687 17.7172C40.1001 11.3674 33.1144 6.12496 24 6.12496C14.8856 6.12496 7.89989 11.3674 6.33128 17.7172ZM2 20.4166C2 9.8668 12.2893 2.04163 24 2.04163C35.7107 2.04163 46 9.8668 46 20.4166C46 21.0453 45.7163 21.639 45.2308 22.0259C44.7454 22.4128 44.1124 22.5498 43.5149 22.3973L35.9185 20.4587L24.3288 22.4305C24.1111 22.4676 23.8889 22.4676 23.6712 22.4305L12.0815 20.4587L4.48507 22.3973C3.88759 22.5498 3.25461 22.4128 2.76918 22.0259C2.28374 21.639 2 21.0453 2 20.4166Z" fill="#8CD87C"/>
</svg>
