<svg width="48" height="48" viewBox="0 0 48 48" fill="none" xmlns="http://www.w3.org/2000/svg">
<path fill-rule="evenodd" clip-rule="evenodd" d="M36.7279 19.5564C29.6985 12.5269 18.3015 12.5269 11.2721 19.5564L6.82843 24L11.2721 28.4437C18.3015 35.4731 29.6985 35.4731 36.7279 28.4437L41.1716 24L36.7279 19.5564ZM8.44366 16.7279C17.0352 8.13641 30.9648 8.13642 39.5563 16.728L45.4142 22.5858C46.1953 23.3669 46.1953 24.6332 45.4142 25.4142L39.5563 31.2721C30.9648 39.8637 17.0352 39.8636 8.44365 31.2721L2.58579 25.4142C2.21071 25.0392 2 24.5305 2 24C2 23.4696 2.21071 22.9609 2.58579 22.5858L8.44366 16.7279Z" fill="#8CD87C"/>
<path fill-rule="evenodd" clip-rule="evenodd" d="M24 16C19.5817 16 16 19.5817 16 24C16 28.4183 19.5817 32 24 32C28.4183 32 32 28.4183 32 24C32 19.5817 28.4183 16 24 16ZM12 24C12 17.3726 17.3726 12 24 12C30.6274 12 36 17.3726 36 24C36 30.6274 30.6274 36 24 36C17.3726 36 12 30.6274 12 24Z" fill="#F98D2B"/>
<path fill-rule="evenodd" clip-rule="evenodd" d="M27 20C26.4477 20 26 20.4477 26 21C26 21.5523 26.4477 22 27 22C27.5523 22 28 21.5523 28 21C28 20.4477 27.5523 20 27 20ZM22 21C22 18.2386 24.2386 16 27 16C29.7614 16 32 18.2386 32 21C32 23.7614 29.7614 26 27 26C24.2386 26 22 23.7614 22 21Z" fill="#8CD87C"/>
</svg>
