<svg width="48" height="48" viewBox="0 0 48 48" fill="none" xmlns="http://www.w3.org/2000/svg">
<path fill-rule="evenodd" clip-rule="evenodd" d="M10 6C8.89543 6 8 6.89543 8 8C8 9.10457 8.89543 10 10 10C11.1046 10 12 9.10457 12 8C12 6.89543 11.1046 6 10 6ZM4 8C4 4.68629 6.68629 2 10 2C13.3137 2 16 4.68629 16 8C16 11.3137 13.3137 14 10 14C6.68629 14 4 11.3137 4 8Z" fill="#8CD87C"/>
<path fill-rule="evenodd" clip-rule="evenodd" d="M38 30C36.8954 30 36 30.8954 36 32C36 33.1046 36.8954 34 38 34C39.1046 34 40 33.1046 40 32C40 30.8954 39.1046 30 38 30ZM32 32C32 28.6863 34.6863 26 38 26C41.3137 26 44 28.6863 44 32C44 35.3137 41.3137 38 38 38C34.6863 38 32 35.3137 32 32Z" fill="#8CD87C"/>
<path fill-rule="evenodd" clip-rule="evenodd" d="M3 17C3 13.134 6.13401 10 10 10C13.866 10 17 13.134 17 17V18C17 20.2091 15.2091 22 13 22H7C4.79086 22 3 20.2091 3 18V17ZM10 14C8.34315 14 7 15.3431 7 17V18H13V17C13 15.3431 11.6569 14 10 14Z" fill="#8CD87C"/>
<path fill-rule="evenodd" clip-rule="evenodd" d="M31 41C31 37.134 34.134 34 38 34C41.866 34 45 37.134 45 41V42C45 44.2091 43.2091 46 41 46H35C32.7909 46 31 44.2091 31 42V41ZM38 38C36.3431 38 35 39.3431 35 41V42H41V41C41 39.3431 39.6569 38 38 38Z" fill="#8CD87C"/>
<path fill-rule="evenodd" clip-rule="evenodd" d="M18 4C18 2.89543 18.8954 2 20 2H44C45.1046 2 46 2.89543 46 4V16C46 17.1046 45.1046 18 44 18H30L25.2 21.6C24.594 22.0545 23.7831 22.1276 23.1056 21.7889C22.428 21.4501 22 20.7575 22 20V18H20C18.8954 18 18 17.1046 18 16V4ZM26 16L28.1333 14.4C28.4795 14.1404 28.9006 14 29.3333 14H42V6H22V14H24C25.1046 14 26 14.8954 26 16Z" fill="#9545ED"/>
<path fill-rule="evenodd" clip-rule="evenodd" d="M30 28C30 26.8954 29.1046 26 28 26H4C2.89543 26 2 26.8954 2 28V40C2 41.1046 2.89543 42 4 42H18L22.8 45.6C23.406 46.0545 24.2169 46.1276 24.8944 45.7889C25.572 45.4501 26 44.7575 26 44V42H28C29.1046 42 30 41.1046 30 40V28ZM22 40L19.8667 38.4C19.5205 38.1404 19.0994 38 18.6667 38H6V30H26V38H24C22.8954 38 22 38.8954 22 40Z" fill="#9545ED"/>
<path fill-rule="evenodd" clip-rule="evenodd" d="M30 12H26V8H30V12Z" fill="#8CD87C"/>
<path fill-rule="evenodd" clip-rule="evenodd" d="M18 36H22V32H18V36Z" fill="#8CD87C"/>
<path fill-rule="evenodd" clip-rule="evenodd" d="M38 12H36V8H38V12Z" fill="#8CD87C"/>
<path fill-rule="evenodd" clip-rule="evenodd" d="M10 36H12V32H10V36Z" fill="#8CD87C"/>
</svg>
