<svg width="47" height="49" viewBox="0 0 47 49" fill="none" xmlns="http://www.w3.org/2000/svg">
<path fill-rule="evenodd" clip-rule="evenodd" d="M23.5 16.3333C19.1738 16.3333 15.6667 19.9897 15.6667 24.5C15.6667 29.0103 19.1738 32.6667 23.5 32.6667C27.8262 32.6667 31.3333 29.0103 31.3333 24.5C31.3333 19.9897 27.8262 16.3333 23.5 16.3333ZM11.75 24.5C11.75 17.7345 17.0107 12.25 23.5 12.25C29.9893 12.25 35.25 17.7345 35.25 24.5C35.25 31.2655 29.9893 36.75 23.5 36.75C17.0107 36.75 11.75 31.2655 11.75 24.5Z" fill="#8CD87C"/>
<path fill-rule="evenodd" clip-rule="evenodd" d="M23.5 22.4583C22.4184 22.4583 21.5417 23.3724 21.5417 24.5C21.5417 25.6276 22.4184 26.5417 23.5 26.5417C24.5816 26.5417 25.4583 25.6276 25.4583 24.5C25.4583 23.3724 24.5816 22.4583 23.5 22.4583ZM17.625 24.5C17.625 21.1173 20.2553 18.375 23.5 18.375C26.7447 18.375 29.375 21.1173 29.375 24.5C29.375 27.8827 26.7447 30.625 23.5 30.625C20.2553 30.625 17.625 27.8827 17.625 24.5Z" fill="#9545ED"/>
<path fill-rule="evenodd" clip-rule="evenodd" d="M23.4999 6.12508C13.7659 6.12508 5.87492 14.3518 5.87492 24.5001C5.87492 34.6483 13.7659 42.8751 23.4999 42.8751C33.2339 42.8751 41.1249 34.6483 41.1249 24.5001C41.1249 14.3518 33.2339 6.12508 23.4999 6.12508ZM1.95825 24.5001C1.95825 12.0967 11.6028 2.04175 23.4999 2.04175C35.3971 2.04175 45.0416 12.0967 45.0416 24.5001C45.0416 36.9035 35.3971 46.9584 23.4999 46.9584C11.6028 46.9584 1.95825 36.9035 1.95825 24.5001Z" fill="#8CD87C"/>
<path fill-rule="evenodd" clip-rule="evenodd" d="M37.2081 7.32114V4.0835H41.1247V6.12516H43.0831V10.2085H39.9776L24.8845 25.9438L22.115 23.0565L37.2081 7.32114Z" fill="#9545ED"/>
</svg>
