<svg width="48" height="47" viewBox="0 0 48 47" fill="none" xmlns="http://www.w3.org/2000/svg">
<path fill-rule="evenodd" clip-rule="evenodd" d="M24 15.6667C19.5817 15.6667 16 19.1738 16 23.5C16 25.2663 16.5947 26.891 17.5995 28.2002C17.729 28.369 17.8298 28.5572 17.898 28.7575L19.6522 33.9109C19.9244 34.7106 20.6887 35.25 21.5496 35.25H26.4502C27.311 35.25 28.0753 34.7106 28.3475 33.911L30.1021 28.7574C30.1702 28.5571 30.271 28.369 30.4005 28.2002C31.4053 26.891 32 25.2663 32 23.5C32 19.1738 28.4183 15.6667 24 15.6667ZM12 23.5C12 17.0107 17.3726 11.75 24 11.75C30.6274 11.75 36 17.0107 36 23.5C36 26.0245 35.1847 28.3678 33.7986 30.2843L32.1423 35.1496C31.3255 37.5486 29.0327 39.1667 26.4502 39.1667H21.5496C18.967 39.1667 16.6741 37.5485 15.8575 35.1494L14.2014 30.2843C12.8153 28.3677 12 26.0245 12 23.5Z" fill="#8CD87C"/>
<path fill-rule="evenodd" clip-rule="evenodd" d="M34.5857 10.3654L38.5857 6.44873L41.4141 9.21823L37.4141 13.1349L34.5857 10.3654Z" fill="#9545ED"/>
<path fill-rule="evenodd" clip-rule="evenodd" d="M40 21.5417H44V25.4584H40V21.5417Z" fill="#9545ED"/>
<path fill-rule="evenodd" clip-rule="evenodd" d="M4 21.5417L8 21.5417L8 25.4584L4 25.4584L4 21.5417Z" fill="#9545ED"/>
<path fill-rule="evenodd" clip-rule="evenodd" d="M9.41431 6.44857L13.4143 10.3652L10.5859 13.1347L6.58588 9.21807L9.41431 6.44857Z" fill="#9545ED"/>
<path fill-rule="evenodd" clip-rule="evenodd" d="M26 3.91675V7.83341H22V3.91675H26Z" fill="#9545ED"/>
<path fill-rule="evenodd" clip-rule="evenodd" d="M18 41.1251C18 43.2882 19.7909 45.0417 22 45.0417H26C28.2091 45.0417 30 43.2882 30 41.1251V37.2084C30 36.1269 29.1046 35.2501 28 35.2501H20C18.8954 35.2501 18 36.1269 18 37.2084V41.1251ZM26 41.1251H22V39.1667H26V41.1251Z" fill="#8CD87C"/>
</svg>
