<svg width="524" height="1794" viewBox="0 0 524 1794" fill="none" xmlns="http://www.w3.org/2000/svg">
<path d="M89 81.256H197.884C233.667 81.256 262.499 110.595 261.874 146.373L250.109 820.245C249.5 855.15 221.03 883.128 186.119 883.128H181C145.654 883.128 117 911.782 117 947.128V1471L117 1545C117 1580.35 145.654 1609 181 1609H379C414.346 1609 443 1637.65 443 1673V1709" stroke="#303030" stroke-width="30"/>
<path d="M140.399 105.016C140.399 108.588 138.493 111.89 135.399 113.676L94.2457 137.436C91.1517 139.222 87.3398 139.222 84.2457 137.436L43.0926 113.676C39.9986 111.89 38.0926 108.588 38.0926 105.016L38.0926 57.4962C38.0926 53.9235 39.9986 50.6223 43.0926 48.8359L84.2458 25.0762C87.3398 23.2898 91.1517 23.2898 94.2458 25.0762L135.399 48.8359C138.493 50.6223 140.399 53.9235 140.399 57.4962L140.399 105.016Z" fill="#8CD87C"/>
<path d="M62.2096 81.3197C62.2308 90.4208 54.8701 97.8159 45.769 97.8371L17.0562 97.9041C7.95503 97.9253 0.559921 90.5645 0.538706 81.4634V81.4634C0.517491 72.3623 7.87821 64.9672 16.9793 64.9459L45.6922 64.879C54.7933 64.8578 62.1884 72.2185 62.2096 81.3197V81.3197Z" fill="#303030"/>
<path d="M466.759 1653.82C470.332 1653.82 473.633 1655.72 475.42 1658.82L499.18 1699.97C500.966 1703.06 500.966 1706.88 499.18 1709.97L475.42 1751.12C473.633 1754.22 470.332 1756.12 466.759 1756.12L419.24 1756.12C415.667 1756.12 412.366 1754.22 410.58 1751.12L386.82 1709.97C385.034 1706.88 385.034 1703.06 386.82 1699.97L410.58 1658.82C412.366 1655.72 415.667 1653.82 419.24 1653.82L466.759 1653.82Z" fill="#F98D2B"/>
<path d="M442.927 1732.01C452.028 1731.99 459.424 1739.35 459.445 1748.45L459.512 1777.16C459.533 1786.26 452.172 1793.66 443.071 1793.68V1793.68C433.97 1793.7 426.575 1786.34 426.554 1777.24L426.487 1748.52C426.465 1739.42 433.826 1732.03 442.927 1732.01V1732.01Z" fill="#303030"/>
</svg>
