<svg width="524" height="1794" viewBox="0 0 524 1794" fill="none" xmlns="http://www.w3.org/2000/svg">
<path d="M88.9312 81.256H197.815C233.599 81.256 262.43 110.595 261.805 146.373L250.04 820.245C249.431 855.15 220.961 883.128 186.05 883.128H180.931C145.585 883.128 116.931 911.782 116.931 947.128V1471L116.931 1545C116.931 1580.35 145.585 1609 180.931 1609H378.931C414.277 1609 442.931 1637.65 442.931 1673V1709" stroke="#303030" stroke-width="30"/>
<path d="M140.33 105.016C140.33 108.588 138.424 111.89 135.33 113.676L94.1769 137.436C91.0829 139.222 87.2709 139.222 84.1769 137.436L43.0238 113.676C39.9298 111.89 38.0238 108.588 38.0238 105.016L38.0238 57.4962C38.0238 53.9235 39.9298 50.6223 43.0238 48.8359L84.1769 25.0762C87.2709 23.2898 91.0829 23.2898 94.1769 25.0762L135.33 48.8359C138.424 50.6223 140.33 53.9235 140.33 57.4962L140.33 105.016Z" fill="#C096D6"/>
<path d="M62.1408 81.3197C62.162 90.4208 54.8013 97.8159 45.7001 97.8371L16.9873 97.9041C7.88618 97.9253 0.491073 90.5645 0.469858 81.4634V81.4634C0.448643 72.3623 7.80937 64.9672 16.9105 64.9459L45.6233 64.879C54.7245 64.8578 62.1196 72.2185 62.1408 81.3197V81.3197Z" fill="#303030"/>
<path d="M466.691 1653.82C470.263 1653.82 473.565 1655.72 475.351 1658.82L499.111 1699.97C500.897 1703.06 500.897 1706.88 499.111 1709.97L475.351 1751.12C473.565 1754.22 470.263 1756.12 466.691 1756.12L419.171 1756.12C415.598 1756.12 412.297 1754.22 410.511 1751.12L386.751 1709.97C384.965 1706.88 384.965 1703.06 386.751 1699.97L410.511 1658.82C412.297 1655.72 415.598 1653.82 419.171 1653.82L466.691 1653.82Z" fill="#8CD87C"/>
<path d="M442.858 1732.01C451.96 1731.99 459.355 1739.35 459.376 1748.45L459.443 1777.16C459.464 1786.26 452.103 1793.66 443.002 1793.68V1793.68C433.901 1793.7 426.506 1786.34 426.485 1777.24L426.418 1748.52C426.397 1739.42 433.757 1732.03 442.858 1732.01V1732.01Z" fill="#303030"/>
</svg>
