<svg width="992" height="467" viewBox="0 0 992 467" fill="none" xmlns="http://www.w3.org/2000/svg">
<line x1="0.499999" y1="307" x2="991.5" y2="307" stroke="#8CD87C" stroke-width="30"/>
<path d="M304.591 0.917372L284.091 75.1274C283.066 79.0224 282.451 83.3274 282.451 87.4274V92.9624H282.041V87.6324C282.041 83.3274 281.426 79.2274 280.196 75.1274L258.876 0.917372H234.276L212.956 75.1274C211.726 79.2274 211.111 83.3274 211.111 87.6324V92.9624H210.701V87.4274C210.701 83.3274 210.086 79.0224 209.061 75.1274L188.561 0.917372H152.686L191.841 138.062H228.331L244.731 79.4324C245.756 74.9224 246.371 71.6424 246.371 66.9274V59.7524H246.781V66.9274C246.781 71.6424 247.396 74.9224 248.421 79.4324L264.821 138.062H301.311L340.671 0.917372H304.591ZM437.769 138.267V78.8174C437.769 51.9624 426.084 33.9224 402.509 33.9224C393.489 33.9224 387.339 36.5874 383.034 39.6624C377.704 43.7624 375.859 49.0924 374.834 53.1924L373.809 57.9074H373.399L374.014 55.8574C374.629 52.1674 375.039 48.2724 375.039 44.5824V1.12237H343.674V138.267H375.039V85.9924C375.039 71.0274 379.959 62.0074 390.824 62.0074C402.099 62.0074 406.199 70.8224 406.199 86.6074C406.199 89.8874 406.199 138.267 406.199 138.267H437.769ZM509.527 98.9074C509.527 106.697 502.762 114.487 491.897 114.487C485.747 114.487 482.467 111.617 482.057 107.722C481.852 103.417 484.722 99.9324 491.282 98.7024C496.407 97.8824 501.737 96.6524 504.402 95.8324C508.502 95.0124 509.732 93.9874 509.732 93.9874L509.527 98.9074ZM547.657 112.847H542.942C541.917 112.847 540.892 111.822 540.892 110.797V75.7424C541.302 49.7074 526.747 33.9224 498.662 33.9224C484.312 33.9224 472.627 38.0224 464.632 45.6074C456.022 53.6024 453.357 63.8524 454.587 73.6924L485.542 70.2074C485.132 67.7474 485.542 64.8774 487.182 62.8274C489.232 60.3674 493.332 58.7274 498.047 58.9324C505.222 58.9324 509.322 62.6224 509.322 67.1324C509.322 69.7974 507.887 71.2324 505.837 72.2574C503.582 73.2824 496.202 74.5124 488.617 76.3574C481.852 77.9974 472.627 80.2524 467.502 82.9174C454.997 88.8624 450.282 98.9074 450.487 111.617C450.487 127.812 463.812 141.342 484.722 141.342C499.277 141.137 508.092 134.782 512.602 126.582C513.832 124.327 515.062 120.227 515.882 116.947C516.087 115.512 516.292 113.872 516.292 113.872L516.702 114.077L516.497 115.512C516.087 117.357 515.882 119.202 515.677 121.047C515.677 122.482 515.472 124.942 515.472 126.992C515.472 133.347 519.777 138.062 527.362 138.267H547.657V112.847ZM599.112 110.182C597.882 110.182 596.857 109.157 596.857 107.927V62.4174H612.642V36.9974H596.857V0.917372H569.182C569.182 0.917372 569.182 24.0824 569.182 27.1574C569.182 33.3074 564.262 38.2274 558.112 38.2274H550.937V62.4174H565.287C565.287 68.7724 565.287 120.842 565.287 121.457C565.287 130.682 572.667 138.062 582.097 138.062H618.382V110.182H599.112ZM715.876 87.6324C715.876 71.8474 723.256 62.0074 734.941 62.0074C746.421 62.0074 753.801 71.8474 753.801 87.6324C753.801 103.417 746.421 113.257 734.941 113.257C723.256 113.257 715.876 103.417 715.876 87.6324ZM785.371 87.6324C785.371 54.2174 763.846 33.9224 734.941 33.9224C705.831 33.9224 684.511 54.2174 684.511 87.6324C684.511 121.252 705.831 141.342 734.941 141.342C763.846 141.342 785.371 121.252 785.371 87.6324ZM797.889 36.9974V96.4474C797.889 123.302 809.369 141.137 832.944 141.137C853.239 141.137 858.569 129.452 860.414 122.687L861.644 117.357H862.054L861.439 119.407C860.824 123.097 860.414 126.787 860.414 130.682V138.062H891.984V36.9974H860.414V89.0674C860.414 104.237 855.494 113.257 844.629 113.257C833.354 113.257 829.254 104.442 829.254 88.6574C829.254 85.3774 829.254 36.9974 829.254 36.9974H797.889ZM941.192 93.9874C941.192 76.9724 944.677 64.0574 950.827 64.0574C955.337 64.0574 955.952 70.2074 955.952 75.1274V85.9924L987.522 85.7874V62.2124C987.522 47.4524 982.192 33.9224 965.587 33.9224C960.052 33.9224 954.517 36.1774 950.827 39.6624C946.112 44.1724 943.857 49.7074 942.627 53.3974C942.217 55.0374 941.602 57.9074 941.397 59.7524L940.577 64.8774H940.167L940.577 62.2124C940.987 59.1374 941.192 55.8574 941.192 52.7824V36.9974H909.827V138.267H941.192V93.9874ZM74.7288 239.552C73.4988 252.672 66.5288 260.257 56.2788 260.257C44.5938 260.257 37.2138 250.417 37.2138 234.632C37.2138 218.847 44.5938 209.007 56.2788 209.007C66.5288 209.007 73.4988 216.797 74.7288 229.712L106.094 226.842C103.224 197.937 82.9288 180.922 56.2788 180.922C27.1688 180.922 5.84879 201.217 5.84879 234.632C5.84879 268.252 27.1688 288.342 56.2788 288.342C82.9288 288.342 103.224 271.532 106.094 242.627L74.7288 239.552ZM174.801 245.907C174.801 253.697 168.036 261.487 157.171 261.487C151.021 261.487 147.741 258.617 147.331 254.722C147.126 250.417 149.996 246.932 156.556 245.702C161.681 244.882 167.011 243.652 169.676 242.832C173.776 242.012 175.006 240.987 175.006 240.987L174.801 245.907ZM212.931 259.847H208.216C207.191 259.847 206.166 258.822 206.166 257.797V222.742C206.576 196.707 192.021 180.922 163.936 180.922C149.586 180.922 137.901 185.022 129.906 192.607C121.296 200.602 118.631 210.852 119.861 220.692L150.816 217.207C150.406 214.747 150.816 211.877 152.456 209.827C154.506 207.367 158.606 205.727 163.321 205.932C170.496 205.932 174.596 209.622 174.596 214.132C174.596 216.797 173.161 218.232 171.111 219.257C168.856 220.282 161.476 221.512 153.891 223.357C147.126 224.997 137.901 227.252 132.776 229.917C120.271 235.862 115.556 245.907 115.761 258.617C115.761 274.812 129.086 288.342 149.996 288.342C164.551 288.137 173.366 281.782 177.876 273.582C179.106 271.327 180.336 267.227 181.156 263.947C181.361 262.512 181.566 260.872 181.566 260.872L181.976 261.077L181.771 262.512C181.361 264.357 181.156 266.202 180.951 268.047C180.951 269.482 180.746 271.942 180.746 273.992C180.746 280.347 185.051 285.062 192.636 285.267H212.931V259.847ZM320.655 225.817C320.655 198.962 308.56 180.922 285.395 180.922C272.685 180.922 265.715 185.637 261.82 190.762C259.565 193.837 258.335 197.322 257.72 200.192L256.695 204.907H256.285L256.9 202.857C257.515 199.167 257.925 195.272 257.925 191.582V183.997H226.56V285.267H257.925V232.992C257.925 218.027 262.845 209.007 273.71 209.007C284.575 209.007 289.085 217.822 289.085 233.607C289.085 236.887 289.085 285.267 289.085 285.267H320.655V225.817ZM364.943 234.632C364.943 218.642 372.323 208.802 384.008 208.802C395.488 208.802 402.458 218.642 402.458 234.632C402.458 250.417 395.488 260.257 384.008 260.257C372.323 260.257 364.943 250.417 364.943 234.632ZM404.303 147.917V192.197C404.303 196.092 404.713 199.782 405.533 203.472L405.943 205.522H405.533L404.303 200.192C402.663 193.222 397.743 180.922 376.628 180.922C349.363 180.922 333.578 204.087 333.578 234.632C333.578 264.972 349.363 288.137 376.628 288.137C397.743 288.137 402.663 275.837 404.303 268.867L405.533 263.537H405.943L405.533 265.587C404.713 269.277 404.303 273.172 404.303 276.862V285.062H435.873V147.917H404.303ZM453.577 285.267H485.147C485.147 278.707 485.147 184.202 485.147 183.997H453.577V285.267ZM469.362 177.232C478.587 177.232 485.967 169.647 485.967 160.627C485.967 151.402 478.587 144.022 469.362 144.022C460.342 144.022 452.962 151.402 452.962 160.627C452.962 169.647 460.342 177.232 469.362 177.232ZM530.705 234.632C530.705 218.642 538.085 208.802 549.77 208.802C561.25 208.802 568.22 218.642 568.22 234.632C568.22 250.417 561.25 260.257 549.77 260.257C538.085 260.257 530.705 250.417 530.705 234.632ZM570.065 147.917V192.197C570.065 196.092 570.475 199.782 571.295 203.472L571.705 205.522H571.295L570.065 200.192C568.425 193.222 563.505 180.922 542.39 180.922C515.125 180.922 499.34 204.087 499.34 234.632C499.34 264.972 515.125 288.137 542.39 288.137C563.505 288.137 568.425 275.837 570.065 268.867L571.295 263.537H571.705L571.295 265.587C570.475 269.277 570.065 273.172 570.065 276.862V285.062H601.635V147.917H570.065ZM674.689 245.907C674.689 253.697 667.924 261.487 657.059 261.487C650.909 261.487 647.629 258.617 647.219 254.722C647.014 250.417 649.884 246.932 656.444 245.702C661.569 244.882 666.899 243.652 669.564 242.832C673.664 242.012 674.894 240.987 674.894 240.987L674.689 245.907ZM712.819 259.847H708.104C707.079 259.847 706.054 258.822 706.054 257.797V222.742C706.464 196.707 691.909 180.922 663.824 180.922C649.474 180.922 637.789 185.022 629.794 192.607C621.184 200.602 618.519 210.852 619.749 220.692L650.704 217.207C650.294 214.747 650.704 211.877 652.344 209.827C654.394 207.367 658.494 205.727 663.209 205.932C670.384 205.932 674.484 209.622 674.484 214.132C674.484 216.797 673.049 218.232 670.999 219.257C668.744 220.282 661.364 221.512 653.779 223.357C647.014 224.997 637.789 227.252 632.664 229.917C620.159 235.862 615.444 245.907 615.649 258.617C615.649 274.812 628.974 288.342 649.884 288.342C664.439 288.137 673.254 281.782 677.764 273.582C678.994 271.327 680.224 267.227 681.044 263.947C681.249 262.512 681.454 260.872 681.454 260.872L681.864 261.077L681.659 262.512C681.249 264.357 681.044 266.202 680.839 268.047C680.839 269.482 680.634 271.942 680.634 273.992C680.634 280.347 684.939 285.062 692.524 285.267H712.819V259.847ZM764.274 257.182C763.044 257.182 762.019 256.157 762.019 254.927V209.417H777.804V183.997H762.019V147.917H734.344C734.344 147.917 734.344 171.082 734.344 174.157C734.344 180.307 729.424 185.227 723.274 185.227H716.099V209.417H730.449C730.449 215.772 730.449 267.842 730.449 268.457C730.449 277.682 737.829 285.062 747.259 285.062H783.544V257.182H764.274ZM838.442 209.007C847.052 209.007 852.997 214.747 855.252 223.357H821.427C823.682 214.747 829.627 209.007 838.442 209.007ZM888.052 244.882C888.462 241.602 888.872 238.322 888.872 234.632C888.872 201.217 867.347 180.922 838.442 180.922C809.332 180.922 788.012 201.217 788.012 234.632C788.012 268.252 809.332 288.342 838.442 288.342C860.377 288.342 878.007 276.657 885.182 256.362L853.202 250.622C850.332 256.567 845.207 260.257 838.442 260.257C829.422 260.257 823.272 254.107 821.222 244.882H888.052ZM986.469 256.772C986.469 234.427 967.404 228.482 951.619 224.177C943.624 221.922 932.349 220.282 932.349 213.517C932.349 209.212 935.424 206.137 943.009 206.137C950.799 206.137 954.079 209.622 954.079 214.337L982.984 214.542C982.984 193.837 968.019 180.922 941.574 180.922C913.694 180.922 900.779 194.657 900.779 209.827C900.779 231.967 917.999 238.322 933.784 242.627C945.059 245.702 954.694 248.162 954.694 254.517C954.694 260.052 949.774 262.717 942.804 262.717C933.169 262.717 929.889 256.157 929.889 251.442H898.524C898.524 272.557 913.694 288.137 944.239 288.137C972.119 288.137 986.469 275.017 986.469 256.772ZM782.07 402.772C782.07 380.427 763.005 374.482 747.22 370.177C739.225 367.922 727.95 366.282 727.95 359.517C727.95 355.212 731.025 352.137 738.61 352.137C746.4 352.137 749.68 355.622 749.68 360.337L778.585 360.542C778.585 339.837 763.62 326.922 737.175 326.922C709.295 326.922 696.38 340.657 696.38 355.827C696.38 377.967 713.6 384.322 729.385 388.627C740.66 391.702 750.295 394.162 750.295 400.517C750.295 406.052 745.375 408.717 738.405 408.717C728.77 408.717 725.49 402.157 725.49 397.442H694.125C694.125 418.557 709.295 434.137 739.84 434.137C767.72 434.137 782.07 421.017 782.07 402.772ZM851.061 391.907C851.061 399.697 844.296 407.487 833.431 407.487C827.281 407.487 824.001 404.617 823.591 400.722C823.386 396.417 826.256 392.932 832.816 391.702C837.941 390.882 843.271 389.652 845.936 388.832C850.036 388.012 851.266 386.987 851.266 386.987L851.061 391.907ZM889.191 405.847H884.476C883.451 405.847 882.426 404.822 882.426 403.797V368.742C882.836 342.707 868.281 326.922 840.196 326.922C825.846 326.922 814.161 331.022 806.166 338.607C797.556 346.602 794.891 356.852 796.121 366.692L827.076 363.207C826.666 360.747 827.076 357.877 828.716 355.827C830.766 353.367 834.866 351.727 839.581 351.932C846.756 351.932 850.856 355.622 850.856 360.132C850.856 362.797 849.421 364.232 847.371 365.257C845.116 366.282 837.736 367.512 830.151 369.357C823.386 370.997 814.161 373.252 809.036 375.917C796.531 381.862 791.816 391.907 792.021 404.617C792.021 420.812 805.346 434.342 826.256 434.342C840.811 434.137 849.626 427.782 854.136 419.582C855.366 417.327 856.596 413.227 857.416 409.947C857.621 408.512 857.826 406.872 857.826 406.872L858.236 407.077L858.031 408.512C857.621 410.357 857.416 412.202 857.211 414.047C857.211 415.482 857.006 417.942 857.006 419.992C857.006 426.347 861.311 431.062 868.896 431.267H889.191V405.847ZM956.999 329.997L938.754 378.377C937.729 381.042 937.319 383.707 937.319 386.577V390.677H936.909V386.577C936.909 383.707 936.294 381.042 935.269 378.377L917.229 329.997H883.404L916.819 414.252C918.869 419.992 918.869 426.142 916.819 431.677L902.674 466.937H936.499L990.824 329.997H956.999Z" fill="#303030"/>
</svg>
