<svg width="50" height="48" viewBox="0 0 50 48" fill="none" xmlns="http://www.w3.org/2000/svg">
<path fill-rule="evenodd" clip-rule="evenodd" d="M2.91174 8C2.91174 4.68629 5.654 2 9.03674 2H15.1617V6H9.03674C7.90916 6 6.99508 6.89543 6.99508 8V14H2.91174V8ZM41.7034 6H35.5784V2H41.7034C45.0862 2 47.8284 4.68629 47.8284 8V14H43.7451V8C43.7451 6.89543 42.831 6 41.7034 6ZM6.99508 34V40C6.99508 41.1046 7.90916 42 9.03674 42H15.1617V46H9.03674C5.654 46 2.91174 43.3137 2.91174 40V34H6.99508ZM43.7451 40V34H47.8284V40C47.8284 43.3137 45.0862 46 41.7034 46H35.5784V42H41.7034C42.831 42 43.7451 41.1046 43.7451 40Z" fill="#C096D6"/>
<path fill-rule="evenodd" clip-rule="evenodd" d="M25.3701 12C18.6046 12 13.1201 17.3726 13.1201 24C13.1201 30.6274 18.6046 36 25.3701 36C32.1356 36 37.6201 30.6274 37.6201 24C37.6201 17.3726 32.1356 12 25.3701 12ZM9.03674 24C9.03674 15.1634 16.3494 8 25.3701 8C34.3907 8 41.7034 15.1634 41.7034 24C41.7034 32.8366 34.3907 40 25.3701 40C16.3494 40 9.03674 32.8366 9.03674 24Z" fill="#8CD87C"/>
<path fill-rule="evenodd" clip-rule="evenodd" d="M25.3701 17C24.2425 17 23.3285 17.8954 23.3285 19C23.3285 20.1046 24.2425 21 25.3701 21C26.4977 21 27.4118 20.1046 27.4118 19C27.4118 17.8954 26.4977 17 25.3701 17ZM19.2451 19C19.2451 15.6863 21.9874 13 25.3701 13C28.7529 13 31.4951 15.6863 31.4951 19C31.4951 22.3137 28.7529 25 25.3701 25C21.9874 25 19.2451 22.3137 19.2451 19Z" fill="#8CD87C"/>
<path fill-rule="evenodd" clip-rule="evenodd" d="M25.3701 31C22.5512 31 20.266 33.2386 20.266 36C20.266 37.1046 19.3519 38 18.2243 38C17.0967 38 16.1826 37.1046 16.1826 36C16.1826 31.0294 20.296 27 25.3701 27C30.4442 27 34.5576 31.0294 34.5576 36C34.5576 37.1046 33.6435 38 32.516 38C31.3884 38 30.4743 37.1046 30.4743 36C30.4743 33.2386 28.1891 31 25.3701 31Z" fill="#8CD87C"/>
</svg>
