<svg width="49" height="48" viewBox="0 0 49 48" fill="none" xmlns="http://www.w3.org/2000/svg">
<path fill-rule="evenodd" clip-rule="evenodd" d="M24.5 14C22.8086 14 21.4375 15.3431 21.4375 17C21.4375 18.6569 22.8086 20 24.5 20C26.1914 20 27.5625 18.6569 27.5625 17C27.5625 15.3431 26.1914 14 24.5 14ZM17.3542 17C17.3542 13.134 20.5535 10 24.5 10C28.4466 10 31.6459 13.134 31.6459 17C31.6459 20.866 28.4466 24 24.5 24C20.5535 24 17.3542 20.866 17.3542 17Z" fill="#8CD87C"/>
<path fill-rule="evenodd" clip-rule="evenodd" d="M38.7917 20C37.6641 20 36.75 20.8954 36.75 22C36.75 23.1046 37.6641 24 38.7917 24C39.9193 24 40.8334 23.1046 40.8334 22C40.8334 20.8954 39.9193 20 38.7917 20ZM32.6667 22C32.6667 18.6863 35.4089 16 38.7917 16C42.1744 16 44.9167 18.6863 44.9167 22C44.9167 25.3137 42.1744 28 38.7917 28C35.4089 28 32.6667 25.3137 32.6667 22Z" fill="#C096D6"/>
<path fill-rule="evenodd" clip-rule="evenodd" d="M10.2084 20C9.08079 20 8.16671 20.8954 8.16671 22C8.16671 23.1046 9.08079 24 10.2084 24C11.336 24 12.25 23.1046 12.25 22C12.25 20.8954 11.336 20 10.2084 20ZM4.08337 22C4.08337 18.6863 6.82563 16 10.2084 16C13.5911 16 16.3334 18.6863 16.3334 22C16.3334 25.3137 13.5911 28 10.2084 28C6.82563 28 4.08337 25.3137 4.08337 22Z" fill="#C096D6"/>
<path fill-rule="evenodd" clip-rule="evenodd" d="M30.625 32C30.625 27.5817 34.2813 24 38.7917 24C43.302 24 46.9583 27.5817 46.9583 32V34C46.9583 36.2091 45.1302 38 42.875 38H34.7083C32.4532 38 30.625 36.2091 30.625 34V32ZM38.7917 28C36.5365 28 34.7083 29.7909 34.7083 32V34H42.875V32C42.875 29.7909 41.0468 28 38.7917 28Z" fill="#C096D6"/>
<path fill-rule="evenodd" clip-rule="evenodd" d="M2.04169 32C2.04169 27.5817 5.69803 24 10.2084 24C14.7187 24 18.375 27.5817 18.375 32V34C18.375 36.2091 16.5468 38 14.2917 38H6.12502C3.86986 38 2.04169 36.2091 2.04169 34V32ZM10.2084 28C7.95319 28 6.12502 29.7909 6.12502 32V34H14.2917V32C14.2917 29.7909 12.4635 28 10.2084 28Z" fill="#C096D6"/>
<path fill-rule="evenodd" clip-rule="evenodd" d="M14.2917 28C14.2917 23.5817 17.948 20 22.4584 20H26.5417C31.052 20 34.7084 23.5817 34.7084 28V34C34.7084 36.2091 32.8802 38 30.625 38H18.375C16.1199 38 14.2917 36.2091 14.2917 34V28ZM22.4584 24C20.2032 24 18.375 25.7909 18.375 28V34H30.625V28C30.625 25.7909 28.7969 24 26.5417 24H22.4584Z" fill="#8CD87C"/>
</svg>
