<svg width="48" height="49" viewBox="0 0 48 49" fill="none" xmlns="http://www.w3.org/2000/svg">
<path fill-rule="evenodd" clip-rule="evenodd" d="M24 20.4171C21.7909 20.4171 20 22.2452 20 24.5004C20 26.7556 21.7909 28.5837 24 28.5837C26.2091 28.5837 28 26.7556 28 24.5004C28 22.2452 26.2091 20.4171 24 20.4171ZM16 24.5004C16 19.9901 19.5817 16.3337 24 16.3337C28.4183 16.3337 32 19.9901 32 24.5004C32 29.0107 28.4183 32.6671 24 32.6671C19.5817 32.6671 16 29.0107 16 24.5004Z" fill="#8CD87C"/>
<path d="M30 22.4587H35.6569V26.5421H30V22.4587Z" fill="#8CD87C"/>
<path d="M17.992 21.2546L7.992 11.0463L10.8204 8.15894L20.8204 18.3673L17.992 21.2546Z" fill="#8CD87C"/>
<path d="M21.3838 30.4406L12.3838 39.2452L9.61621 36.2971L18.6162 27.4924L21.3838 30.4406Z" fill="#8CD87C"/>
<path d="M31.6639 13.3831L27.664 19.5082L24.3358 17.2432L28.3357 11.1182L31.6639 13.3831Z" fill="#8CD87C"/>
<path fill-rule="evenodd" clip-rule="evenodd" d="M7 6.12533C6.44772 6.12533 6 6.58237 6 7.14616C6 7.70995 6.44772 8.16699 7 8.16699C7.55228 8.16699 8 7.70995 8 7.14616C8 6.58237 7.55228 6.12533 7 6.12533ZM2 7.14616C2 4.32721 4.23858 2.04199 7 2.04199C9.76142 2.04199 12 4.32721 12 7.14616C12 9.96511 9.76142 12.2503 7 12.2503C4.23858 12.2503 2 9.96511 2 7.14616Z" fill="#C096D6"/>
<path fill-rule="evenodd" clip-rule="evenodd" d="M41.4142 23.0566C40.6332 22.2592 39.3668 22.2592 38.5858 23.0566C37.8047 23.8539 37.8047 25.1466 38.5858 25.9439C39.3668 26.7412 40.6332 26.7412 41.4142 25.9439C42.1953 25.1466 42.1953 23.8539 41.4142 23.0566ZM35.7574 20.1692C38.1005 17.7773 41.8995 17.7773 44.2426 20.1692C46.5858 22.5612 46.5858 26.4393 44.2426 28.8313C41.8995 31.2232 38.1005 31.2232 35.7574 28.8313C33.4142 26.4393 33.4142 22.5612 35.7574 20.1692Z" fill="#C096D6"/>
<path fill-rule="evenodd" clip-rule="evenodd" d="M8 38.7921C6.89543 38.7921 6 39.7062 6 40.8337C6 41.9613 6.89543 42.8754 8 42.8754C9.10457 42.8754 10 41.9613 10 40.8337C10 39.7062 9.10457 38.7921 8 38.7921ZM2 40.8337C2 37.451 4.68629 34.7087 8 34.7087C11.3137 34.7087 14 37.451 14 40.8337C14 44.2165 11.3137 46.9587 8 46.9587C4.68629 46.9587 2 44.2165 2 40.8337Z" fill="#C096D6"/>
<path fill-rule="evenodd" clip-rule="evenodd" d="M33.9329 7.6396C33.647 6.55044 32.5503 5.90409 31.4834 6.19593C30.4164 6.48777 29.7833 7.60729 30.0691 8.69645C30.355 9.78561 31.4517 10.432 32.5186 10.1401C33.5856 9.84828 34.2187 8.72876 33.9329 7.6396ZM30.4481 2.25173C33.6489 1.37621 36.9389 3.31528 37.7966 6.58276C38.6542 9.85024 36.7547 13.2088 33.5539 14.0843C30.3531 14.9598 27.0631 13.0208 26.2054 9.75329C25.3478 6.48581 27.2473 3.12725 30.4481 2.25173Z" fill="#C096D6"/>
</svg>
