<svg width="50" height="48" viewBox="0 0 50 48" fill="none" xmlns="http://www.w3.org/2000/svg">
<path fill-rule="evenodd" clip-rule="evenodd" d="M37.62 18C37.62 15.2386 39.9052 13 42.7242 13C45.5432 13 47.8284 15.2386 47.8284 18V30.1716C47.8284 31.2324 47.3982 32.2499 46.6324 33L37.62 41.8284V44C37.62 45.1046 36.706 46 35.5784 46H25.37C24.2425 46 23.3284 45.1046 23.3284 44V33C23.3284 31.8954 24.2425 31 25.37 31C26.4976 31 27.4117 31.8954 27.4117 33V42H33.5367V41C33.5367 40.4696 33.7518 39.9609 34.1347 39.5858L43.745 30.1716V18C43.745 17.4477 43.288 17 42.7242 17C42.1604 17 41.7034 17.4477 41.7034 18V27C41.7034 27.5304 41.4883 28.0391 41.1054 28.4142L37.022 32.4142C36.2247 33.1953 34.932 33.1953 34.1347 32.4142C33.3374 31.6332 33.3374 30.3668 34.1347 29.5858L37.62 26.1716V18Z" fill="#C096D6"/>
<path fill-rule="evenodd" clip-rule="evenodd" d="M13.1201 18C13.1201 15.2386 10.8349 13 8.01591 13C5.19696 13 2.91174 15.2386 2.91174 18V30.1716C2.91174 31.2324 3.34195 32.2499 4.10772 33L13.1201 41.8284V44C13.1201 45.1046 14.0342 46 15.1617 46H25.3701C26.4977 46 27.4117 45.1046 27.4117 44V33C27.4117 31.8954 26.4977 31 25.3701 31C24.2425 31 23.3284 31.8954 23.3284 33V42H17.2034V41C17.2034 40.4696 16.9883 39.9609 16.6054 39.5858L6.99508 30.1716V18C6.99508 17.4477 7.45212 17 8.01591 17C8.5797 17 9.03674 17.4477 9.03674 18V27C9.03674 27.5304 9.25185 28.0391 9.63473 28.4142L13.7181 32.4142C14.5154 33.1953 15.8081 33.1953 16.6054 32.4142C17.4027 31.6332 17.4027 30.3668 16.6054 29.5858L13.1201 26.1716V18Z" fill="#C096D6"/>
<path fill-rule="evenodd" clip-rule="evenodd" d="M37.62 25.8283C37.62 25.0903 36.7091 24.7207 36.1764 25.2426L26.8137 34.4141C26.0164 35.1952 24.7237 35.1952 23.9264 34.4141C23.129 33.6331 23.129 32.3668 23.9264 31.5857L33.289 22.4141C36.3941 19.3724 41.7034 21.5267 41.7034 25.8283C41.7034 27.1089 41.1841 28.3371 40.2597 29.2426L37.022 32.4141C36.2247 33.1952 34.932 33.1952 34.1347 32.4141C33.3374 31.6331 33.3374 30.3668 34.1347 29.5857L37.3723 26.4141C37.5309 26.2588 37.62 26.0481 37.62 25.8283Z" fill="#C096D6"/>
<path fill-rule="evenodd" clip-rule="evenodd" d="M13.1201 25.8283C13.1201 25.0903 14.031 24.7207 14.5637 25.2426L23.9264 34.4141C24.7237 35.1952 26.0164 35.1952 26.8138 34.4141C27.6111 33.6331 27.6111 32.3668 26.8138 31.5857L17.4511 22.4141C14.346 19.3724 9.03674 21.5267 9.03674 25.8283C9.03674 27.1089 9.55605 28.3371 10.4804 29.2426L13.7181 32.4141C14.5154 33.1952 15.8081 33.1952 16.6054 32.4141C17.4027 31.6331 17.4027 30.3668 16.6054 29.5857L13.3678 26.4141C13.2092 26.2588 13.1201 26.0481 13.1201 25.8283Z" fill="#C096D6"/>
<path fill-rule="evenodd" clip-rule="evenodd" d="M25.37 6C24.8062 6 24.3492 6.44772 24.3492 7C24.3492 7.55228 24.8062 8 25.37 8C25.9338 8 26.3909 7.55228 26.3909 7C26.3909 6.44772 25.9338 6 25.37 6ZM20.2659 7C20.2659 4.23858 22.5511 2 25.37 2C28.189 2 30.4742 4.23858 30.4742 7C30.4742 9.76142 28.189 12 25.37 12C22.5511 12 20.2659 9.76142 20.2659 7Z" fill="#8CD87C"/>
<path fill-rule="evenodd" clip-rule="evenodd" d="M18.2242 17C18.2242 14.7909 20.0524 13 22.3076 13H28.4326C30.6877 13 32.5159 14.7909 32.5159 17V20C32.5159 21.1046 31.6018 22 30.4742 22H20.2659C19.1383 22 18.2242 21.1046 18.2242 20V17ZM28.4326 17H22.3076V18H28.4326V17Z" fill="#8CD87C"/>
</svg>
