<svg width="265" height="64" viewBox="0 0 265 64" fill="none" xmlns="http://www.w3.org/2000/svg">
<g clip-path="url(#clip0_384_169)">
<path d="M36.1813 0H46.6027V35.8346C46.6027 35.9355 46.6223 36.0354 46.6604 36.1286C46.6986 36.2218 46.7544 36.3065 46.8248 36.3777C46.8952 36.449 46.9788 36.5055 47.0707 36.5439C47.1627 36.5824 47.2612 36.6021 47.3606 36.6019H51.3047V46.0011H41.7176C40.2491 45.9994 38.8413 45.4067 37.803 44.3532C36.7648 43.2997 36.181 41.8713 36.1797 40.3816C36.1813 40.1102 36.1813 0.0581495 36.1813 0Z" fill="#FFF6E9"/>
<path d="M86.2202 37.4515V45.9769H79.504C76.9977 45.9527 75.5583 44.3406 75.5774 42.2214C75.5774 41.5301 75.6077 40.737 75.6443 40.254C75.6906 39.6166 75.773 38.9823 75.8911 38.3545L75.985 37.8699L75.8656 37.8457C75.8656 37.8457 75.7653 38.3948 75.6746 38.8471C75.4612 39.931 75.0488 41.3104 74.6157 42.0987C73.1237 44.8074 70.1876 46.9816 65.3805 46.9994C58.5337 47.0236 54.0912 42.5138 54.0658 37.0429C54.0387 32.8157 55.6071 29.4721 59.6881 27.4159C61.4062 26.5517 64.4426 25.7829 66.6941 25.2466C69.2338 24.6522 71.6556 24.2209 72.3801 23.8752C73.0696 23.5522 73.5329 23.0208 73.5329 22.1566C73.5329 20.656 72.1588 19.4381 69.8436 19.3848C68.2338 19.3493 66.9202 19.8888 66.2435 20.7109C65.6814 21.391 65.5302 22.365 65.6703 23.1678L55.4797 24.3275C55.0641 21.0889 55.9033 17.6339 58.7375 14.959C61.4094 12.4311 65.2658 11.0436 69.9838 11.0436C79.3129 11.0436 84.0802 16.2932 83.9958 25.0318V36.7957C83.9945 36.8814 84.0101 36.9665 84.0415 37.046C84.0729 37.1255 84.1197 37.1979 84.1789 37.2589C84.2382 37.3199 84.3088 37.3684 84.3867 37.4014C84.4646 37.4345 84.5482 37.4515 84.6327 37.4515H86.2202ZM73.6412 31.1342C73.6412 31.1342 73.2352 31.4702 71.9295 31.8046C71.0362 32.0307 69.2736 32.4297 67.6017 32.7382C65.3884 33.1517 64.4617 34.3018 64.5493 35.7474C64.6321 37.08 65.7356 38.0201 67.753 38.0201C71.3643 38.0201 73.6333 35.4357 73.6333 32.8093L73.6412 31.1342Z" fill="#FFF6E9"/>
<path d="M120.991 31.6753C119.993 41.3669 113.292 47.0203 104.477 47.0203C94.8744 47.0203 87.8047 40.2588 87.8047 29.0263C87.8047 17.7937 94.8744 11.0322 104.477 11.0322C113.292 11.0322 119.993 16.697 120.991 26.3772L110.624 27.3722C110.159 23.011 107.861 20.4266 104.477 20.4266C100.656 20.4266 98.2245 23.7153 98.2245 29.023C98.2245 34.3308 100.651 37.6195 104.477 37.6195C107.859 37.6195 110.157 35.0351 110.624 30.6738L120.991 31.6753Z" fill="#FFF6E9"/>
<path d="M135.402 34.0207C136.994 36.7941 139.518 38.1299 142.344 37.2302C143.355 36.9274 144.25 36.3195 144.911 35.4874C146.344 33.6476 148.352 32.3457 150.643 32.0598L156.711 31.3055C156.439 38.474 152.062 43.9885 145.117 46.1966C135.953 49.1121 127.213 44.8058 123.899 34.0821C120.586 23.3583 125.332 14.7668 134.499 11.8496C143.666 8.93242 152.403 13.2452 155.724 23.9673C156.065 25.0608 156.315 26.1814 156.471 27.3174L135.402 34.0207ZM133.35 27.1478L144.051 23.7444C142.451 21.16 139.997 19.9614 137.271 20.8288C134.545 21.6962 133.209 24.1062 133.35 27.1478Z" fill="#FFF6E9"/>
<path d="M176.246 54.4344V62.9582H169.53C167.024 62.9339 165.584 61.3219 165.603 59.2027C165.603 58.5113 165.632 57.7182 165.67 57.2353C165.716 56.5977 165.798 55.9635 165.917 55.3357L166.011 54.8511L165.892 54.8285C165.892 54.8285 165.791 55.3761 165.701 55.8284C165.486 56.9138 165.075 58.2917 164.642 59.0799C163.15 61.7887 160.212 63.9628 155.406 63.9806C148.56 64.0065 144.117 59.4966 144.09 54.0241C144.065 49.797 145.633 46.455 149.714 44.3988C151.432 43.533 154.469 42.7641 156.72 42.2295C159.258 41.6334 161.68 41.2022 162.406 40.8565C163.096 40.5334 163.557 40.0036 163.557 39.1379C163.557 37.6373 162.185 36.4194 159.87 36.3661C158.26 36.3305 156.946 36.87 156.269 37.6922C156.07 37.9365 155.916 38.2164 155.817 38.5176C155.656 39.0119 155.36 39.4496 154.963 39.7797C154.566 40.1097 154.085 40.3185 153.575 40.3816L145.509 41.3007C145.093 38.0605 145.931 34.607 148.767 31.9322C151.438 29.4043 155.295 28.0184 160.013 28.0184C169.342 28.0184 174.109 33.2664 174.025 42.0049V53.7721C174.024 53.8577 174.04 53.9426 174.071 54.0219C174.103 54.1012 174.149 54.1734 174.209 54.2342C174.268 54.2951 174.338 54.3434 174.416 54.3764C174.494 54.4094 174.578 54.4263 174.662 54.4263L176.246 54.4344ZM163.667 48.1171C163.667 48.1171 163.261 48.4515 161.955 48.7858C161.062 49.0136 159.3 49.4109 157.628 49.7211C155.414 50.1346 154.488 51.2846 154.575 52.7287C154.658 54.0613 155.76 55.0014 157.779 55.0014C161.389 55.0014 163.659 52.4169 163.659 49.7905L163.667 48.1171Z" fill="#FFF6E9"/>
<path d="M189.177 55.683L189.059 55.7088L189.218 56.3856C189.478 57.625 189.609 58.8886 189.608 60.1557V62.9371H179.188V16.936H189.608V31.7803C189.608 33.0474 189.478 34.3109 189.218 35.5503L189.059 36.2271L189.177 36.2546L189.596 34.4681C190.132 32.1098 191.774 27.9715 198.758 27.9715C207.732 27.9715 213.01 35.791 213.01 45.9672C213.01 56.1433 207.735 63.9645 198.758 63.9645C191.764 63.9645 190.119 59.8197 189.586 57.4452L189.177 55.683ZM196.342 54.5685C200.164 54.5685 202.593 51.2782 202.593 45.9656C202.593 40.653 200.167 37.3643 196.342 37.3643C192.517 37.3643 190.197 40.6546 190.197 45.9656C190.197 51.2766 192.506 54.5685 196.339 54.5685H196.342Z" fill="#FFF6E9"/>
<path d="M215.306 16.9748H225.727V52.8094C225.727 53.0129 225.807 53.2081 225.949 53.352C226.09 53.4958 226.283 53.5767 226.483 53.5767H230.429V62.9759H220.848C219.379 62.9746 217.97 62.3814 216.932 61.3268C215.893 60.2721 215.31 58.8422 215.31 57.3516C215.304 57.085 215.304 17.0329 215.306 16.9748Z" fill="#FFF6E9"/>
<path d="M241.886 49.4271C242.58 52.5543 244.602 54.5959 247.562 54.5959C249.852 54.5959 251.543 53.3263 252.462 51.3331L263.025 53.307C260.637 60.062 254.845 63.9952 247.562 63.9952C237.959 63.9952 230.89 57.2321 230.89 46.0011C230.89 34.7702 237.959 28.0071 247.562 28.0071C257.165 28.0071 264.237 34.7686 264.237 46.0011C264.24 47.1484 264.147 48.2939 263.961 49.4255L241.886 49.4271ZM241.954 42.2472H253.172C252.406 39.301 250.419 37.4015 247.562 37.4015C244.706 37.4015 242.719 39.3042 241.954 42.2505V42.2472Z" fill="#FFF6E9"/>
<path d="M0 57.4259V11.2632H10.4565V14.0528C10.4569 15.3242 10.3256 16.5922 10.0648 17.8357L9.90555 18.5158L10.0234 18.5432L10.4342 16.7778C10.9692 14.3952 12.6188 10.2343 19.6391 10.2343C28.6482 10.2343 33.9441 18.0877 33.9441 28.2946C33.9441 38.5014 28.6482 46.3581 19.6439 46.3581C12.6379 46.3581 10.9867 42.2052 10.4469 39.8389L10.0313 38.0379L9.91192 38.0653L10.0711 38.7437C10.3312 39.988 10.4625 41.2564 10.4628 42.5283V57.4259H0ZM17.2157 19.6562C13.3735 19.6562 11.0488 22.9578 11.0488 28.2897C11.0488 33.6217 13.3831 36.9233 17.2157 36.9233C21.0483 36.9233 23.4908 33.6217 23.4908 28.2897C23.4908 22.9578 21.0499 19.6562 17.2157 19.6562Z" fill="#FFF6E9"/>
</g>
<defs>
<clipPath id="clip0_384_169">
<rect width="264.237" height="64" fill="white"/>
</clipPath>
</defs>
</svg>
