<svg width="266" height="64" viewBox="0 0 266 64" fill="none" xmlns="http://www.w3.org/2000/svg">
<g clip-path="url(#clip0_384_188)">
<path d="M37.1061 0H47.5275V35.8346C47.5275 35.9355 47.5471 36.0354 47.5853 36.1286C47.6234 36.2218 47.6792 36.3065 47.7496 36.3777C47.82 36.449 47.9036 36.5055 47.9955 36.5439C48.0875 36.5824 48.186 36.6021 48.2855 36.6019H52.2295V46.0011H42.6424C41.1739 45.9994 39.7661 45.4067 38.7278 44.3532C37.6896 43.2997 37.1058 41.8713 37.1045 40.3816C37.1061 40.1102 37.1061 0.0581495 37.1061 0Z" fill="#8CD87C"/>
<path d="M87.145 37.4515V45.9769H80.4288C77.9225 45.9527 76.4831 44.3406 76.5022 42.2214C76.5022 41.5301 76.5325 40.737 76.5691 40.254C76.6154 39.6166 76.6978 38.9823 76.8159 38.3545L76.9098 37.8699L76.7904 37.8457C76.7904 37.8457 76.6901 38.3948 76.5994 38.8471C76.386 39.931 75.9736 41.3104 75.5405 42.0987C74.0485 44.8074 71.1124 46.9816 66.3053 46.9994C59.4585 47.0236 55.0161 42.5138 54.9906 37.0429C54.9635 32.8157 56.5319 29.4721 60.6129 27.4159C62.331 26.5517 65.3674 25.7829 67.6189 25.2466C70.1586 24.6522 72.5805 24.2209 73.3049 23.8752C73.9944 23.5522 74.4577 23.0208 74.4577 22.1566C74.4577 20.656 73.0836 19.4381 70.7684 19.3848C69.1587 19.3493 67.845 19.8888 67.1683 20.7109C66.6062 21.391 66.455 22.365 66.5951 23.1678L56.4045 24.3275C55.9889 21.0889 56.8281 17.6339 59.6623 14.959C62.3342 12.4311 66.1906 11.0436 70.9086 11.0436C80.2377 11.0436 85.005 16.2932 84.9206 25.0318V36.7957C84.9193 36.8814 84.9349 36.9665 84.9663 37.046C84.9977 37.1255 85.0445 37.1979 85.1037 37.2589C85.163 37.3199 85.2336 37.3684 85.3115 37.4014C85.3894 37.4345 85.473 37.4515 85.5575 37.4515H87.145ZM74.566 31.1342C74.566 31.1342 74.16 31.4702 72.8543 31.8046C71.9611 32.0307 70.1984 32.4297 68.5265 32.7382C66.3133 33.1517 65.3866 34.3018 65.4741 35.7474C65.5569 37.08 66.6604 38.0201 68.6778 38.0201C72.2891 38.0201 74.5581 35.4357 74.5581 32.8093L74.566 31.1342Z" fill="#8CD87C"/>
<path d="M121.916 31.6753C120.917 41.3669 114.217 47.0203 105.402 47.0203C95.7992 47.0203 88.7295 40.2588 88.7295 29.0263C88.7295 17.7937 95.7992 11.0322 105.402 11.0322C114.217 11.0322 120.917 16.697 121.916 26.3772L111.548 27.3722C111.083 23.011 108.786 20.4266 105.402 20.4266C101.581 20.4266 99.1493 23.7153 99.1493 29.023C99.1493 34.3308 101.576 37.6195 105.402 37.6195C108.784 37.6195 111.082 35.0351 111.548 30.6738L121.916 31.6753Z" fill="#8CD87C"/>
<path d="M136.327 34.0207C137.919 36.7941 140.443 38.1299 143.269 37.2302C144.279 36.9274 145.175 36.3195 145.836 35.4874C147.269 33.6476 149.277 32.3457 151.568 32.0598L157.636 31.3055C157.364 38.474 152.987 43.9885 146.041 46.1966C136.878 49.1121 128.138 44.8058 124.824 34.0821C121.511 23.3584 126.257 14.7668 135.424 11.8496C144.591 8.93242 153.328 13.2452 156.649 23.9673C156.99 25.0608 157.24 26.1814 157.396 27.3174L136.327 34.0207ZM134.274 27.1478L144.976 23.7444C143.376 21.16 140.922 19.9614 138.196 20.8288C135.47 21.6962 134.134 24.1062 134.274 27.1478Z" fill="#8CD87C"/>
<path d="M177.171 54.4345V62.9582H170.455C167.948 62.934 166.509 61.322 166.528 59.2027C166.528 58.5114 166.557 57.7183 166.595 57.2353C166.641 56.5978 166.723 55.9635 166.842 55.3358L166.936 54.8512L166.816 54.8286C166.816 54.8286 166.716 55.3762 166.625 55.8284C166.41 56.9139 166 58.2917 165.566 59.08C164.074 61.7888 161.137 63.9629 156.331 63.9807C149.484 64.0065 145.042 59.4967 145.015 54.0242C144.989 49.797 146.558 46.4551 150.639 44.3988C152.357 43.533 155.393 42.7642 157.645 42.2295C160.183 41.6335 162.605 41.2022 163.331 40.8566C164.02 40.5335 164.482 40.0037 164.482 39.1379C164.482 37.6373 163.11 36.4194 160.794 36.3661C159.185 36.3306 157.871 36.8701 157.194 37.6923C156.994 37.9366 156.841 38.2165 156.742 38.5177C156.581 39.012 156.285 39.4497 155.888 39.7797C155.491 40.1098 155.01 40.3185 154.5 40.3817L146.434 41.3008C146.018 38.0605 146.856 34.6071 149.691 31.9322C152.363 29.4043 156.22 28.0184 160.938 28.0184C170.267 28.0184 175.034 33.2664 174.95 42.005V53.7722C174.949 53.8577 174.964 53.9426 174.996 54.0219C175.027 54.1013 175.074 54.1734 175.133 54.2343C175.193 54.2952 175.263 54.3435 175.341 54.3764C175.419 54.4094 175.502 54.4264 175.587 54.4264L177.171 54.4345ZM164.592 48.1172C164.592 48.1172 164.186 48.4515 162.88 48.7859C161.987 49.0136 160.224 49.411 158.552 49.7211C156.339 50.1346 155.413 51.2847 155.5 52.7287C155.583 54.0613 156.685 55.0014 158.704 55.0014C162.313 55.0014 164.584 52.417 164.584 49.7906L164.592 48.1172Z" fill="#8CD87C"/>
<path d="M190.102 55.683L189.984 55.7088L190.143 56.3856C190.403 57.625 190.533 58.8886 190.533 60.1557V62.9371H180.113V16.936H190.533V31.7803C190.533 33.0474 190.402 34.3109 190.143 35.5503L189.984 36.2271L190.102 36.2546L190.52 34.4681C191.057 32.1098 192.699 27.9715 199.682 27.9715C208.656 27.9715 213.935 35.791 213.935 45.9672C213.935 56.1433 208.66 63.9644 199.682 63.9644C192.689 63.9644 191.044 59.8197 190.511 57.4452L190.102 55.683ZM197.267 54.5685C201.088 54.5685 203.518 51.2782 203.518 45.9656C203.518 40.653 201.092 37.3643 197.267 37.3643C193.442 37.3643 191.122 40.6546 191.122 45.9656C191.122 51.2766 193.431 54.5685 197.264 54.5685H197.267Z" fill="#8CD87C"/>
<path d="M216.23 16.9749H226.652V52.8095C226.652 53.013 226.732 53.2081 226.873 53.352C227.015 53.4959 227.208 53.5767 227.408 53.5767H231.354V62.976H221.773C220.304 62.9747 218.895 62.3815 217.856 61.3268C216.818 60.2721 216.235 58.8423 216.235 57.3516C216.229 57.0851 216.229 17.033 216.23 16.9749Z" fill="#8CD87C"/>
<path d="M242.811 49.4271C243.505 52.5543 245.527 54.5959 248.487 54.5959C250.777 54.5959 252.468 53.3263 253.387 51.3331L263.95 53.307C261.561 60.062 255.77 63.9952 248.487 63.9952C238.884 63.9952 231.814 57.2321 231.814 46.0011C231.814 34.7702 238.884 28.0071 248.487 28.0071C258.09 28.0071 265.161 34.7686 265.161 46.0011C265.164 47.1484 265.072 48.2939 264.886 49.4255L242.811 49.4271ZM242.879 42.2472H254.097C253.331 39.301 251.344 37.4015 248.487 37.4015C245.631 37.4015 243.643 39.3042 242.879 42.2505V42.2472Z" fill="#8CD87C"/>
<path d="M0.924805 57.4259V11.2633H11.3813V14.0529C11.3817 15.3243 11.2504 16.5922 10.9896 17.8358L10.8304 18.5158L10.9482 18.5433L11.359 16.7778C11.894 14.3953 13.5436 10.2344 20.5639 10.2344C29.573 10.2344 34.8689 18.0878 34.8689 28.2946C34.8689 38.5015 29.573 46.3581 20.5687 46.3581C13.5627 46.3581 11.9115 42.2053 11.3717 39.8389L10.9561 38.0379L10.8367 38.0654L10.9959 38.7438C11.256 39.988 11.3873 41.2564 11.3876 42.5284V57.4259H0.924805ZM18.1405 19.6562C14.2983 19.6562 11.9736 22.9578 11.9736 28.2898C11.9736 33.6218 14.3079 36.9234 18.1405 36.9234C21.9731 36.9234 24.4156 33.6218 24.4156 28.2898C24.4156 22.9578 21.9747 19.6562 18.1405 19.6562Z" fill="#8CD87C"/>
</g>
<defs>
<clipPath id="clip0_384_188">
<rect width="264.237" height="64" fill="white" transform="translate(0.924805)"/>
</clipPath>
</defs>
</svg>
