<svg xmlns="http://www.w3.org/2000/svg" viewBox="0 0 349.16 90.46"><defs><style>.cls-1{fill:#fff6e9;}</style></defs><g id="Layer_2" data-name="Layer 2"><g id="Layer_1-2" data-name="Layer 1"><path class="cls-1" d="M25.06,51.16H13.78v16H0V2.58H25.06c14.81,0,24.55,10.94,24.55,24.29S39.87,51.16,25.06,51.16ZM35.83,26.87C35.83,19.9,31.26,14,24,14H13.78V39.7H24C31.26,39.7,35.83,33.93,35.83,26.87Z"/><path class="cls-1" d="M54.23,67.18V0H67.58V67.18Z"/><path class="cls-1" d="M112.78,41.34V67.18H99.43V62.44c-2,2.93-5.51,5.17-12.06,5.17-9,0-14.12-5-14.12-12.92,0-10.42,7.84-14.38,19.55-14.38h6.63c0-4.74-2.58-7-6-7-2.84,0-5.68,1-8.7,3.62L77,30.4a25.58,25.58,0,0,1,18.34-7.58C107,22.82,112.78,29.11,112.78,41.34ZM99.43,50H94.78c-6.11,0-8.18,1.29-8.18,4.39s2.41,4.48,5.6,4.48c5.68,0,7.23-2.84,7.23-6.46Z"/><path class="cls-1" d="M140,67.61a22.4,22.4,0,0,1,0-44.79c8.44,0,13.87,3.36,17.83,8.7l-8.1,7.24c-2.67-4.4-6-5.43-8.87-5.43-6.11,0-9.9,5.17-9.9,12s3.79,11.8,9.9,11.8c2.84,0,6.2-.78,8.87-5.43l8.1,7.24C153.9,64.25,148.47,67.61,140,67.61Z"/><path class="cls-1" d="M201.32,51.13A9.39,9.39,0,0,0,191.48,53a14.48,14.48,0,0,1-4.62,2.84c-4.59,1.73-10.19.79-11.94-3.88L190,46.43l13.22-4.83-1.55-4.11a27.63,27.63,0,0,0-1.34-3c-5.12-9.91-15.42-14.56-26.9-10.25C161.11,28.9,156.55,41,161,52.78s15.88,18,28.94,13.14c7.5-2.82,12.09-7.49,14.84-13.39Zm-24.19-17c4.52-1.69,9-.06,10.66,4.37l-15.72,5.91C170.4,39.94,172.78,35.74,177.13,34.1Z"/><path class="cls-1" d="M209.74,45.67a25.6,25.6,0,0,0-18.35,7.58l7.67,6.55c3-2.59,5.85-3.62,8.7-3.62,3.44,0,6,2.24,6,7h-6.63c-11.71,0-19.55,4-19.55,14.38,0,7.92,5.08,12.92,14.13,12.92,6.54,0,10.07-2.24,12.05-5.17V90h13.35V64.19C227.13,52,221.36,45.67,209.74,45.67Zm4,29.54c0,3.62-1.55,6.46-7.23,6.46-3.19,0-5.6-1.37-5.6-4.48s2.07-4.39,8.18-4.39h4.65Z"/><path class="cls-1" d="M281.2,68.07c0,14.81-8.52,22.39-19.38,22.39-4.39,0-10.42-1.38-14.12-6.29V90H234.35V22.85H247.7V52c3.7-4.91,9.73-6.29,14.12-6.29C272.68,45.67,281.2,54.11,281.2,68.07Zm-13.35,0c0-7-3.61-11.89-10.07-11.89S247.7,61.09,247.7,68.07,251.32,80,257.78,80,267.85,75,267.85,68.07Z"/><path class="cls-1" d="M286.71,90V22.85h13.35V90Z"/><path class="cls-1" d="M319,72.11c0,5,4.91,7.84,9.82,7.84a14.09,14.09,0,0,0,10-4.13l7.93,7.32c-4.66,4.56-10.6,7.32-18.61,7.32-13.95,0-22.48-9.91-22.48-22.48s8.53-22.31,21.71-22.31c13.43,0,21.79,9.56,21.79,22.31v4.39Zm8.36-15.93c-4.65,0-8.36,3.1-8.36,7.84h16.8C335.81,59.28,332.19,56.18,327.37,56.18Z"/></g></g></svg>