<svg width="266" height="64" viewBox="0 0 266 64" fill="none" xmlns="http://www.w3.org/2000/svg">
<g clip-path="url(#clip0_384_108)">
<path d="M37.0065 0H47.4279V35.8346C47.4279 35.9355 47.4475 36.0354 47.4856 36.1286C47.5238 36.2218 47.5796 36.3065 47.65 36.3777C47.7204 36.449 47.804 36.5055 47.8959 36.5439C47.9879 36.5824 48.0864 36.6021 48.1858 36.6019H52.1299V46.0011H42.5428C41.0743 45.9994 39.6665 45.4067 38.6282 44.3532C37.59 43.2997 37.0061 41.8713 37.0049 40.3816C37.0065 40.1102 37.0065 0.0581495 37.0065 0Z" fill="#C096D6"/>
<path d="M87.0454 37.4515V45.9769H80.3292C77.8229 45.9527 76.3835 44.3406 76.4026 42.2214C76.4026 41.5301 76.4329 40.737 76.4695 40.254C76.5158 39.6166 76.5982 38.9823 76.7163 38.3545L76.8102 37.8699L76.6908 37.8457C76.6908 37.8457 76.5905 38.3948 76.4997 38.8471C76.2864 39.931 75.874 41.3104 75.4409 42.0987C73.9489 44.8074 71.0128 46.9816 66.2057 46.9994C59.3589 47.0236 54.9164 42.5138 54.891 37.0429C54.8639 32.8157 56.4323 29.4721 60.5133 27.4159C62.2314 26.5517 65.2678 25.7829 67.5193 25.2466C70.059 24.6522 72.4808 24.2209 73.2053 23.8752C73.8948 23.5522 74.3581 23.0208 74.3581 22.1566C74.3581 20.656 72.984 19.4381 70.6688 19.3848C69.059 19.3493 67.7454 19.8888 67.0687 20.7109C66.5066 21.391 66.3554 22.365 66.4955 23.1678L56.3049 24.3275C55.8893 21.0889 56.7285 17.6339 59.5627 14.959C62.2345 12.4311 66.091 11.0436 70.8089 11.0436C80.1381 11.0436 84.9054 16.2932 84.821 25.0318V36.7957C84.8197 36.8814 84.8352 36.9665 84.8667 37.046C84.8981 37.1255 84.9448 37.1979 85.0041 37.2589C85.0634 37.3199 85.134 37.3684 85.2119 37.4014C85.2898 37.4345 85.3734 37.4515 85.4579 37.4515H87.0454ZM74.4664 31.1342C74.4664 31.1342 74.0604 31.4702 72.7547 31.8046C71.8614 32.0307 70.0988 32.4297 68.4269 32.7382C66.2136 33.1517 65.2869 34.3018 65.3745 35.7474C65.4573 37.08 66.5608 38.0201 68.5782 38.0201C72.1895 38.0201 74.4584 35.4357 74.4584 32.8093L74.4664 31.1342Z" fill="#C096D6"/>
<path d="M121.816 31.6753C120.818 41.3669 114.117 47.0203 105.303 47.0203C95.6996 47.0203 88.6299 40.2588 88.6299 29.0263C88.6299 17.7937 95.6996 11.0322 105.303 11.0322C114.117 11.0322 120.818 16.697 121.816 26.3772L111.449 27.3722C110.984 23.011 108.686 20.4266 105.303 20.4266C101.481 20.4266 99.0497 23.7153 99.0497 29.023C99.0497 34.3308 101.476 37.6195 105.303 37.6195C108.685 37.6195 110.982 35.0351 111.449 30.6738L121.816 31.6753Z" fill="#C096D6"/>
<path d="M136.227 34.0207C137.82 36.7941 140.343 38.1299 143.17 37.2302C144.18 36.9274 145.075 36.3195 145.736 35.4874C147.169 33.6476 149.177 32.3457 151.469 32.0598L157.537 31.3055C157.264 38.474 152.887 43.9885 145.942 46.1966C136.778 49.1121 128.038 44.8058 124.725 34.0821C121.411 23.3583 126.158 14.7668 135.324 11.8496C144.491 8.93242 153.228 13.2452 156.549 23.9673C156.891 25.0608 157.14 26.1814 157.296 27.3174L136.227 34.0207ZM134.175 27.1478L144.876 23.7444C143.276 21.16 140.823 19.9614 138.097 20.8288C135.371 21.6962 134.035 24.1062 134.175 27.1478Z" fill="#C096D6"/>
<path d="M177.071 54.4345V62.9582H170.355C167.849 62.934 166.409 61.322 166.429 59.2027C166.429 58.5114 166.457 57.7183 166.495 57.2353C166.541 56.5978 166.623 55.9635 166.742 55.3358L166.836 54.8512L166.717 54.8286C166.717 54.8286 166.616 55.3762 166.526 55.8284C166.311 56.9139 165.9 58.2917 165.467 59.08C163.975 61.7888 161.037 63.9629 156.232 63.9807C149.385 64.0065 144.942 59.4967 144.915 54.0242C144.89 49.797 146.458 46.4551 150.539 44.3988C152.257 43.533 155.294 42.7642 157.545 42.2295C160.083 41.6335 162.505 41.2022 163.231 40.8566C163.921 40.5335 164.382 40.0037 164.382 39.1379C164.382 37.6373 163.01 36.4194 160.695 36.3661C159.085 36.3306 157.771 36.8701 157.095 37.6923C156.895 37.9366 156.741 38.2165 156.642 38.5177C156.481 39.012 156.185 39.4497 155.788 39.7797C155.391 40.1098 154.91 40.3185 154.401 40.3817L146.334 41.3008C145.918 38.0605 146.756 34.6071 149.592 31.9322C152.264 29.4043 156.12 28.0184 160.838 28.0184C170.167 28.0184 174.935 33.2664 174.85 42.005V53.7722C174.849 53.8577 174.865 53.9426 174.896 54.0219C174.928 54.1013 174.975 54.1734 175.034 54.2343C175.093 54.2952 175.164 54.3435 175.241 54.3764C175.319 54.4094 175.403 54.4264 175.487 54.4264L177.071 54.4345ZM164.492 48.1172C164.492 48.1172 164.086 48.4515 162.781 48.7859C161.887 49.0136 160.125 49.411 158.453 49.7211C156.24 50.1346 155.313 51.2847 155.4 52.7287C155.483 54.0613 156.585 55.0014 158.604 55.0014C162.214 55.0014 164.484 52.417 164.484 49.7906L164.492 48.1172Z" fill="#C096D6"/>
<path d="M190.002 55.683L189.884 55.7088L190.043 56.3856C190.303 57.625 190.434 58.8886 190.434 60.1557V62.9371H180.014V16.936H190.434V31.7803C190.434 33.0474 190.303 34.3109 190.043 35.5503L189.884 36.2271L190.002 36.2546L190.421 34.4681C190.957 32.1098 192.599 27.9715 199.583 27.9715C208.557 27.9715 213.835 35.791 213.835 45.9672C213.835 56.1433 208.56 63.9645 199.583 63.9645C192.589 63.9645 190.945 59.8197 190.411 57.4452L190.002 55.683ZM197.167 54.5685C200.989 54.5685 203.419 51.2782 203.419 45.9656C203.419 40.653 200.992 37.3643 197.167 37.3643C193.343 37.3643 191.023 40.6546 191.023 45.9656C191.023 51.2766 193.331 54.5685 197.164 54.5685H197.167Z" fill="#C096D6"/>
<path d="M216.131 16.9749H226.552V52.8095C226.552 53.013 226.632 53.2081 226.774 53.352C226.916 53.4959 227.108 53.5767 227.309 53.5767H231.254V62.976H221.673C220.204 62.9747 218.795 62.3815 217.757 61.3268C216.718 60.2721 216.135 58.8423 216.136 57.3516C216.129 57.0851 216.129 17.033 216.131 16.9749Z" fill="#C096D6"/>
<path d="M242.711 49.4271C243.405 52.5543 245.428 54.5959 248.388 54.5959C250.677 54.5959 252.368 53.3263 253.287 51.3331L263.85 53.307C261.462 60.062 255.671 63.9952 248.388 63.9952C238.785 63.9952 231.715 57.2321 231.715 46.0011C231.715 34.7702 238.785 28.0071 248.388 28.0071C257.991 28.0071 265.062 34.7686 265.062 46.0011C265.065 47.1484 264.973 48.2939 264.786 49.4255L242.711 49.4271ZM242.78 42.2472H253.997C253.231 39.301 251.244 37.4015 248.388 37.4015C245.531 37.4015 243.544 39.3042 242.78 42.2505V42.2472Z" fill="#C096D6"/>
<path d="M0.825195 57.4259V11.2633H11.2817V14.0529C11.2821 15.3243 11.1508 16.5922 10.89 17.8358L10.7307 18.5158L10.8486 18.5433L11.2594 16.7778C11.7944 14.3953 13.444 10.2344 20.4643 10.2344C29.4734 10.2344 34.7693 18.0878 34.7693 28.2946C34.7693 38.5015 29.4734 46.3581 20.4691 46.3581C13.4631 46.3581 11.8119 42.2053 11.2721 39.8389L10.8565 38.0379L10.7371 38.0654L10.8963 38.7438C11.1564 39.988 11.2877 41.2564 11.288 42.5284V57.4259H0.825195ZM18.0409 19.6562C14.1987 19.6562 11.874 22.9578 11.874 28.2898C11.874 33.6218 14.2083 36.9234 18.0409 36.9234C21.8735 36.9234 24.316 33.6218 24.316 28.2898C24.316 22.9578 21.8751 19.6562 18.0409 19.6562Z" fill="#C096D6"/>
</g>
<defs>
<clipPath id="clip0_384_108">
<rect width="264.237" height="64" fill="white" transform="translate(0.825195)"/>
</clipPath>
</defs>
</svg>
