<svg width="48" height="48" viewBox="0 0 48 48" fill="none" xmlns="http://www.w3.org/2000/svg">
<path fill-rule="evenodd" clip-rule="evenodd" d="M14.9157 10.0944C14.7898 9.96853 14.5858 9.96853 14.4599 10.0944L11.6776 12.8767C9.98963 14.5647 9.52578 17.1226 10.5136 19.2958C14.1787 27.359 20.641 33.8214 28.7043 37.4865C30.8775 38.4743 33.4354 38.0104 35.1234 36.3225L37.9057 33.5402C38.0315 33.4143 38.0315 33.2102 37.9057 33.0843L34.1628 29.3415C34.0647 29.2434 33.9148 29.2191 33.7907 29.2811L31.7136 30.3197C29.1555 31.5988 26.0659 31.0974 24.0435 29.075L18.925 23.9565C16.9027 21.9342 16.4013 18.8446 17.6804 16.2865L18.7189 14.2093C18.781 14.0852 18.7567 13.9353 18.6586 13.8372L14.9157 10.0944ZM11.6314 7.26598C13.3194 5.57801 16.0562 5.57801 17.7442 7.26598L21.487 11.0088C22.8025 12.3244 23.1287 14.3341 22.2966 15.9982L21.2581 18.0753C20.749 19.0935 20.9485 20.3232 21.7535 21.1281L26.8719 26.2466C27.6769 27.0515 28.9066 27.2511 29.9247 26.742L32.0019 25.7034C33.6659 24.8714 35.6757 25.1975 36.9913 26.5131L40.7341 30.2559C42.4221 31.9439 42.4221 34.6806 40.7341 36.3686L37.9518 39.1509C35.0848 42.0179 30.7402 42.8057 27.0491 41.1279C18.1054 37.0626 10.9374 29.8947 6.87212 20.951C5.19435 17.2599 5.98219 12.9152 8.84915 10.0483L11.6314 7.26598Z" fill="#8CD87C"/>
</svg>
