<svg width="1608" height="637" viewBox="0 0 1608 637" fill="none" xmlns="http://www.w3.org/2000/svg">
<path d="M1527 535V486C1527 450.653 1498.35 422 1463 422H948.525C933.339 422 918.647 416.599 907.076 406.764L702.925 233.236C691.354 223.4 676.662 218 661.476 218H145C109.654 218 81 189.346 81 154V118" stroke="#303030" stroke-width="30"/>
<path d="M1550.45 496.533C1554.02 496.533 1557.32 498.439 1559.11 501.533L1582.87 542.686C1584.65 545.78 1584.65 549.592 1582.87 552.686L1559.11 593.839C1557.32 596.933 1554.02 598.839 1550.45 598.839L1502.93 598.839C1499.35 598.839 1496.05 596.933 1494.27 593.839L1470.51 552.686C1468.72 549.592 1468.72 545.78 1470.51 542.686L1494.27 501.533C1496.05 498.439 1499.35 496.533 1502.93 496.533L1550.45 496.533Z" fill="#8CD87C"/>
<path d="M1526.61 574.722C1535.71 574.701 1543.11 582.062 1543.13 591.163L1543.2 619.876C1543.22 628.977 1535.86 636.372 1526.76 636.393C1517.66 636.415 1510.26 629.054 1510.24 619.953L1510.17 591.24C1510.15 582.139 1517.51 574.744 1526.61 574.722Z" fill="#303030"/>
<path d="M56.9265 139.899C53.3539 139.899 50.0526 137.993 48.2663 134.899L24.5065 93.7456C22.7202 90.6516 22.7202 86.8396 24.5065 83.7456L48.2663 42.5925C50.0526 39.4985 53.3539 37.5925 56.9266 37.5925L104.446 37.5925C108.019 37.5925 111.32 39.4985 113.106 42.5925L136.866 83.7456C138.652 86.8396 138.652 90.6516 136.866 93.7456L113.106 134.899C111.32 137.993 108.019 139.899 104.446 139.899L56.9265 139.899Z" fill="#C096D6"/>
<path d="M80.6226 61.7095C71.5215 61.7307 64.1264 54.37 64.1051 45.2689L64.0382 16.556C64.017 7.45491 71.3777 0.059799 80.4789 0.0385843C89.58 0.0173696 96.9751 7.37809 96.9963 16.4792L97.0632 45.1921C97.0845 54.2932 89.7237 61.6883 80.6226 61.7095Z" fill="#303030"/>
</svg>
