<svg width="518" height="1792" viewBox="0 0 518 1792" fill="none" xmlns="http://www.w3.org/2000/svg">
<path d="M88.5 80.6864H197.384C233.167 80.6864 261.999 110.026 261.374 145.804L249.609 819.676C249 854.581 220.53 882.558 185.619 882.558H180.5C145.154 882.558 116.5 911.212 116.5 946.558V1470.43L116.5 1544.43C116.5 1579.78 145.154 1608.43 180.5 1608.43H378.5C413.846 1608.43 442.5 1637.08 442.5 1672.43V1708.43" stroke="#303030" stroke-width="30"/>
<path d="M139.899 104.446C139.899 108.019 137.993 111.32 134.899 113.106L93.7457 136.866C90.6517 138.652 86.8398 138.652 83.7457 136.866L42.5926 113.106C39.4986 111.32 37.5926 108.019 37.5926 104.446L37.5926 56.9266C37.5926 53.354 39.4986 50.0527 42.5926 48.2664L83.7458 24.5066C86.8398 22.7203 90.6517 22.7203 93.7458 24.5066L134.899 48.2664C137.993 50.0527 139.899 53.354 139.899 56.9266L139.899 104.446Z" fill="#C096D6"/>
<path d="M61.7096 80.7501C61.7308 89.8512 54.3701 97.2463 45.269 97.2675L16.5562 97.3345C7.45503 97.3557 0.0599208 89.995 0.0387057 80.8938V80.8938C0.0174906 71.7927 7.37821 64.3976 16.4793 64.3764L45.1922 64.3094C54.2933 64.2882 61.6884 71.6489 61.7096 80.7501V80.7501Z" fill="#303030"/>
<path d="M460.691 1651.82C464.263 1651.82 467.565 1653.72 469.351 1656.82L493.111 1697.97C494.897 1701.06 494.897 1704.88 493.111 1707.97L469.351 1749.12C467.565 1752.22 464.263 1754.12 460.691 1754.12L413.171 1754.12C409.598 1754.12 406.297 1752.22 404.511 1749.12L380.751 1707.97C378.965 1704.88 378.965 1701.06 380.751 1697.97L404.511 1656.82C406.297 1653.72 409.598 1651.82 413.171 1651.82L460.691 1651.82Z" fill="#8CD87C"/>
<path d="M436.858 1730.01C445.96 1729.99 453.355 1737.35 453.376 1746.45L453.443 1775.16C453.464 1784.26 446.103 1791.66 437.002 1791.68V1791.68C427.901 1791.7 420.506 1784.34 420.485 1775.24L420.418 1746.52C420.397 1737.42 427.757 1730.03 436.858 1730.01V1730.01Z" fill="#303030"/>
</svg>
