<svg width="1245" height="675" viewBox="0 0 1245 675" fill="none" xmlns="http://www.w3.org/2000/svg">
<rect width="607" height="607" rx="10" fill="#8CD87C"/>
<path d="M53.4714 518.023H56.7514V505.663H69.4314V502.743H56.7514V494.743C56.7514 494.423 56.6314 494.143 56.4314 493.903L56.0314 493.543L56.0714 493.463L56.4314 493.863C56.6714 494.063 56.9514 494.183 57.2714 494.183H71.2714V491.263H53.4714V518.023ZM74.8864 508.183C74.8864 503.783 77.1664 500.503 81.1264 500.503C85.0464 500.503 87.3264 503.783 87.3264 508.183C87.3264 512.583 85.0464 515.863 81.1264 515.863C77.1664 515.863 74.8864 512.583 74.8864 508.183ZM90.4064 508.183C90.4064 502.063 86.6464 497.703 81.1264 497.703C75.6064 497.703 71.8464 502.063 71.8464 508.183C71.8464 514.303 75.6064 518.663 81.1264 518.663C86.6464 518.663 90.4064 514.303 90.4064 508.183ZM93.4602 498.303V509.583C93.4602 515.423 96.0202 518.623 100.9 518.623C104.74 518.623 106.5 516.263 107.14 514.703L107.62 513.223L107.66 513.263L107.54 513.743C107.38 514.343 107.3 514.903 107.3 515.503V518.023H110.34V498.303H107.3V509.383C107.3 513.263 105.1 515.863 101.82 515.863C98.1002 515.863 96.5002 513.383 96.5002 508.983C96.5002 506.423 96.5002 498.303 96.5002 498.303H93.4602ZM131.323 506.783C131.323 500.943 128.523 497.703 123.883 497.703C121.203 497.703 119.443 498.903 118.443 500.143C117.963 500.743 117.683 501.463 117.483 502.103L117.163 503.143L117.083 503.103L117.243 502.583C117.403 502.023 117.483 501.423 117.483 500.823V498.303H114.443V518.063H117.483V506.983C117.483 503.103 119.643 500.503 122.963 500.503C126.443 500.503 128.283 502.983 128.283 507.383C128.283 509.943 128.283 518.063 128.283 518.063H131.323V506.783ZM137.386 508.183C137.386 503.743 139.666 500.463 143.626 500.463C147.546 500.463 149.586 503.743 149.586 508.183C149.586 512.583 147.586 515.863 143.626 515.863C139.666 515.863 137.386 512.583 137.386 508.183ZM149.706 491.263V501.423C149.706 502.023 149.786 502.623 149.946 503.183L150.106 503.703H150.066L149.586 502.263C149.066 500.543 147.586 497.703 143.066 497.703C137.826 497.703 134.346 502.063 134.346 508.183C134.346 514.263 137.786 518.623 143.066 518.623C147.586 518.623 149.106 515.743 149.626 514.023L150.066 512.623H150.106L149.946 513.143C149.786 513.703 149.706 514.303 149.706 514.903V518.063H152.786V491.263H149.706ZM165.384 500.503C168.944 500.503 171.064 503.183 171.424 506.823H159.304C159.664 503.183 161.824 500.503 165.384 500.503ZM174.584 509.103C174.624 508.823 174.664 508.503 174.664 508.183C174.664 502.063 170.904 497.703 165.384 497.703C159.864 497.703 156.104 502.063 156.104 508.183C156.104 514.303 159.864 518.663 165.384 518.663C169.824 518.663 173.064 515.823 174.224 511.583L171.104 511.023C170.424 513.863 168.424 515.863 165.384 515.863C161.664 515.863 159.504 512.943 159.304 509.103H174.584ZM180.96 518.063V508.343C180.96 505.023 182.52 500.663 184.12 500.663C185.2 500.663 185.52 502.103 185.52 503.223V505.423H188.6V502.583C188.6 499.623 187.64 497.703 185.32 497.703C184.12 497.703 183.12 498.583 182.4 499.623C181.68 500.623 181.28 501.783 181.16 502.463C181.12 502.583 180.96 503.543 180.92 503.663L180.8 504.423H180.76L180.84 503.903C180.92 503.263 180.96 502.663 180.96 502.023V498.303H177.92V518.063H180.96ZM211.128 493.583C213.448 493.583 215.088 495.223 215.048 497.383C214.968 499.503 212.928 501.103 210.968 502.903L208.648 500.543C207.608 499.463 206.968 498.623 207.008 497.063C207.088 495.383 208.448 493.583 211.128 493.583ZM204.648 509.623C204.648 507.303 205.808 506.063 207.528 504.503C207.528 504.503 207.928 504.143 207.928 504.103L217.368 513.703C216.168 514.783 214.408 515.543 212.008 515.543C208.648 515.543 204.648 513.743 204.648 509.623ZM222.768 512.903C223.368 511.663 223.688 510.263 223.688 509.063C223.688 506.743 223.088 505.703 223.088 505.703H220.168C220.288 505.943 220.688 506.823 220.728 508.223C220.728 509.503 220.408 510.863 219.648 511.903L213.608 505.743C213.208 505.343 213.248 504.703 213.688 504.343C216.008 502.223 218.048 500.463 218.128 497.103C218.208 493.903 215.728 490.663 211.128 490.663C206.528 490.663 203.928 493.463 203.928 497.023C203.928 498.703 204.488 500.023 205.128 500.943C205.208 501.063 205.288 501.183 205.408 501.303C205.688 501.703 205.648 502.263 205.288 502.623C205.088 502.783 204.928 502.943 204.848 503.023C203.168 504.703 201.568 506.503 201.568 509.783C201.568 514.343 205.248 518.343 212.328 518.343C215.128 518.343 217.328 517.543 218.928 516.503C219.288 516.263 219.768 516.303 220.088 516.623L222.168 518.783L224.328 516.823L222.408 514.863C222.128 514.543 222.088 514.063 222.328 513.663C222.488 513.423 222.608 513.183 222.768 512.903ZM261.907 491.263L252.827 511.263C252.627 511.743 252.547 512.183 252.547 512.743V513.383H252.467V512.743C252.467 512.183 252.387 511.743 252.227 511.263L243.147 491.263H238.667V518.063H241.947V496.943C241.947 496.663 241.907 496.383 241.867 496.143L241.747 495.623H241.827L241.907 496.023C241.987 496.343 242.067 496.663 242.187 496.983L251.627 518.063H253.467L262.907 496.983C263.027 496.663 263.107 496.343 263.187 496.023L263.267 495.623H263.347L263.227 496.143C263.187 496.423 263.147 496.663 263.147 496.943V518.063H266.467V491.263H261.907ZM279.211 515.103H274.771C274.451 515.103 274.171 515.223 273.971 515.463L273.571 515.823L273.531 515.783L273.931 515.383C274.131 515.183 274.251 514.863 274.251 514.583V494.743C274.251 494.423 274.131 494.143 273.931 493.903L273.531 493.543L273.571 493.463L273.971 493.863C274.171 494.063 274.451 494.183 274.771 494.183H279.211C284.971 494.183 289.251 497.903 289.251 504.663C289.251 511.383 284.971 515.103 279.211 515.103ZM279.851 491.263H270.971V518.063H279.851C287.091 518.063 292.571 513.183 292.571 504.663C292.571 496.143 287.091 491.263 279.851 491.263ZM319.263 509.903C319.263 513.223 317.103 515.943 313.143 515.943C310.903 515.943 309.463 514.703 309.263 512.983C309.063 511.183 310.103 509.423 312.663 508.943C314.063 508.703 316.463 508.223 317.383 508.023C318.903 507.743 319.263 507.263 319.263 507.263V509.903ZM323.943 515.463H322.543C322.423 515.463 322.343 515.383 322.343 515.263V505.183C322.383 500.503 319.743 497.703 314.703 497.703C312.063 497.703 309.823 498.583 308.423 500.183C307.103 501.663 306.703 503.543 307.103 505.383L310.103 504.943C309.903 503.983 309.943 502.783 310.703 501.823C311.343 501.063 312.543 500.263 314.663 500.263C317.583 500.263 319.143 501.863 319.143 503.823C319.143 504.623 318.783 505.143 318.103 505.423C317.503 505.663 316.423 505.823 315.023 506.103C313.943 506.343 312.063 506.743 310.783 507.103C307.143 508.103 306.103 510.543 306.183 513.063C306.223 515.943 308.503 518.663 312.623 518.663C315.303 518.663 317.303 517.623 318.583 516.063C319.183 515.303 319.583 514.303 319.783 513.303C319.823 513.223 319.943 512.623 319.943 512.623H319.983L319.943 512.903C319.823 513.503 319.783 514.103 319.743 514.703C319.743 514.943 319.743 515.863 319.743 516.583C319.743 517.423 320.343 518.063 321.263 518.063H323.943V515.463ZM330.923 515.263C330.803 515.263 330.723 515.143 330.723 515.023V500.863H334.203V498.263H330.723V491.263H327.923C327.923 491.303 327.923 494.703 327.923 497.103C327.923 497.823 327.363 498.383 326.643 498.383H324.603V500.863H327.643C327.643 505.783 327.643 515.743 327.643 516.143C327.643 517.183 328.483 518.023 329.523 518.023H335.083V515.263H330.923ZM366.376 491.263H346.896V494.183H354.976V518.063H358.256V494.183H366.376V491.263ZM385.347 518.063V506.783C385.347 500.943 382.747 497.703 377.907 497.703C375.707 497.703 374.107 498.583 373.067 499.583C372.227 500.343 371.747 501.303 371.467 502.183L371.187 503.143L371.107 503.103L371.267 502.583C371.427 502.023 371.507 501.423 371.507 500.823V491.303H368.467V518.063H371.507V506.983C371.507 503.103 373.667 500.503 376.987 500.503C380.707 500.503 382.307 502.983 382.307 507.383C382.307 509.943 382.307 518.063 382.307 518.063H385.347ZM389.209 518.063H392.289C392.289 513.023 392.289 498.383 392.289 498.303H389.209V518.063ZM390.729 495.503C391.689 495.503 392.449 494.743 392.449 493.823C392.449 492.863 391.689 492.103 390.729 492.103C389.809 492.103 389.049 492.863 389.049 493.823C389.049 494.743 389.809 495.503 390.729 495.503ZM399.436 518.063V508.343C399.436 505.023 400.996 500.663 402.596 500.663C403.676 500.663 403.996 502.103 403.996 503.223V505.423H407.076V502.583C407.076 499.623 406.116 497.703 403.796 497.703C402.596 497.703 401.596 498.583 400.876 499.623C400.156 500.623 399.756 501.783 399.636 502.463C399.596 502.583 399.436 503.543 399.396 503.663L399.276 504.423H399.236L399.316 503.903C399.396 503.263 399.436 502.663 399.436 502.023V498.303H396.396V518.063H399.436ZM412.152 508.183C412.152 503.743 414.432 500.463 418.392 500.463C422.312 500.463 424.352 503.743 424.352 508.183C424.352 512.583 422.352 515.863 418.392 515.863C414.432 515.863 412.152 512.583 412.152 508.183ZM424.472 491.263V501.423C424.472 502.023 424.552 502.623 424.712 503.183L424.872 503.703H424.832L424.352 502.263C423.832 500.543 422.352 497.703 417.832 497.703C412.592 497.703 409.112 502.063 409.112 508.183C409.112 514.263 412.552 518.623 417.832 518.623C422.352 518.623 423.872 515.743 424.392 514.023L424.832 512.623H424.872L424.712 513.143C424.552 513.703 424.472 514.303 424.472 514.903V518.063H427.552V491.263H424.472ZM436.59 501.063H440.55V498.263H436.35C436.35 498.263 436.07 496.383 436.07 495.463C436.07 494.503 436.63 493.863 437.39 493.863H439.07V491.263H436.27C434.15 491.263 433.23 492.743 433.23 494.383C433.23 495.583 433.47 496.863 433.71 497.543C433.79 497.863 434.03 498.103 434.31 498.263C434.43 498.343 434.79 498.543 434.91 498.543V498.623C434.83 498.623 434.59 498.543 434.51 498.503C433.99 498.383 433.43 498.263 432.91 498.263H430.07V501.063H433.51V518.023H436.59V501.063ZM444.769 508.183C444.769 503.783 447.049 500.503 451.009 500.503C454.929 500.503 457.209 503.783 457.209 508.183C457.209 512.583 454.929 515.863 451.009 515.863C447.049 515.863 444.769 512.583 444.769 508.183ZM460.289 508.183C460.289 502.063 456.529 497.703 451.009 497.703C445.489 497.703 441.729 502.063 441.729 508.183C441.729 514.303 445.489 518.663 451.009 518.663C456.529 518.663 460.289 514.303 460.289 508.183ZM466.272 518.063V508.343C466.272 505.023 467.832 500.663 469.432 500.663C470.512 500.663 470.832 502.103 470.832 503.223V505.423H473.912V502.583C473.912 499.623 472.952 497.703 470.632 497.703C469.432 497.703 468.432 498.583 467.712 499.623C466.992 500.623 466.592 501.783 466.472 502.463C466.432 502.583 466.272 503.543 466.232 503.663L466.112 504.423H466.072L466.152 503.903C466.232 503.263 466.272 502.663 466.272 502.023V498.303H463.232V518.063H466.272ZM481.548 515.263C481.428 515.263 481.348 515.143 481.348 515.023V500.863H484.828V498.263H481.348V491.263H478.548C478.548 491.303 478.548 494.703 478.548 497.103C478.548 497.823 477.988 498.383 477.268 498.383H475.228V500.863H478.268C478.268 505.783 478.268 515.743 478.268 516.143C478.268 517.183 479.108 518.023 480.148 518.023H485.708V515.263H481.548ZM502.121 525.063V484.223H499.201V525.063H502.121ZM59.1514 552.663C59.1514 547.503 61.6314 544.463 65.3114 544.463C68.9514 544.463 71.4314 547.503 71.4314 552.663C71.4314 557.783 68.9514 560.823 65.3114 560.823C61.6314 560.823 59.1514 557.783 59.1514 552.663ZM78.5114 552.663C78.5114 543.863 72.8314 538.663 65.3114 538.663C57.7914 538.663 52.1114 543.863 52.1114 552.663C52.1114 561.423 57.7914 566.623 65.3114 566.623C72.8314 566.623 78.5114 561.423 78.5114 552.663ZM81.0746 562.783C81.0746 564.583 82.5146 566.063 84.3146 566.063H89.9946V560.583H87.6746C87.3946 560.583 87.1946 560.383 87.1946 560.143V539.303H81.0746C81.0746 539.303 81.0746 562.623 81.0746 562.783ZM92.3246 562.783C92.3246 564.583 93.7646 566.063 95.5646 566.063H101.245V560.583H98.9246C98.6446 560.583 98.4446 560.383 98.4446 560.143V539.303H92.3246C92.3246 539.303 92.3246 562.623 92.3246 562.783ZM114.851 546.303L111.291 555.743C111.091 556.263 111.011 556.783 111.011 557.343V558.143H110.931V557.343C110.931 556.783 110.811 556.263 110.611 555.743L107.091 546.303H100.491L107.011 562.743C107.411 563.863 107.411 565.063 107.011 566.143L104.251 573.023H110.851L121.451 546.303H114.851ZM153.796 539.263H132.796V545.063H139.916V566.023H146.636V545.063H153.796V539.263ZM174.007 566.063V554.463C174.007 549.223 171.727 545.703 167.127 545.703C165.367 545.703 164.167 546.223 163.327 546.823C162.287 547.623 161.927 548.663 161.727 549.463L161.527 550.383H161.447L161.567 549.983C161.687 549.263 161.767 548.503 161.767 547.783V539.303H155.647V566.063H161.767V555.863C161.767 552.943 162.727 551.183 164.847 551.183C167.047 551.183 167.847 552.903 167.847 555.983C167.847 556.623 167.847 566.063 167.847 566.063H174.007ZM182.568 556.183C182.568 553.103 184.008 551.183 186.288 551.183C188.528 551.183 189.968 553.103 189.968 556.183C189.968 559.263 188.528 561.183 186.288 561.183C184.008 561.183 182.568 559.263 182.568 556.183ZM196.128 556.183C196.128 549.663 191.928 545.703 186.288 545.703C180.608 545.703 176.448 549.663 176.448 556.183C176.448 562.743 180.608 566.663 186.288 566.663C191.928 566.663 196.128 562.743 196.128 556.183ZM204.54 557.423C204.54 554.103 205.22 551.583 206.42 551.583C207.3 551.583 207.42 552.783 207.42 553.743V555.863L213.58 555.823V551.223C213.58 548.343 212.54 545.703 209.3 545.703C208.22 545.703 207.14 546.143 206.42 546.823C205.5 547.703 205.06 548.783 204.82 549.503C204.74 549.823 204.62 550.383 204.58 550.743L204.42 551.743H204.34L204.42 551.223C204.5 550.623 204.54 549.983 204.54 549.383V546.303H198.42V566.063H204.54V557.423ZM233.655 554.463C233.655 549.223 231.295 545.703 226.775 545.703C224.295 545.703 222.935 546.623 222.175 547.623C221.735 548.223 221.495 548.903 221.375 549.463L221.175 550.383H221.095L221.215 549.983C221.335 549.263 221.415 548.503 221.415 547.783V546.303H215.295V566.063H221.415V555.863C221.415 552.943 222.375 551.183 224.495 551.183C226.615 551.183 227.495 552.903 227.495 555.983C227.495 556.623 227.495 566.063 227.495 566.063H233.655V554.463ZM244.238 560.583C243.998 560.583 243.798 560.383 243.798 560.143V551.263H246.878V546.303H243.798V539.263H238.398C238.398 539.263 238.398 543.783 238.398 544.383C238.398 545.583 237.438 546.543 236.238 546.543H234.838V551.263H237.638C237.638 552.503 237.638 562.663 237.638 562.783C237.638 564.583 239.078 566.023 240.918 566.023H247.998V560.583H244.238ZM254.99 556.183C254.99 553.103 256.43 551.183 258.71 551.183C260.95 551.183 262.39 553.103 262.39 556.183C262.39 559.263 260.95 561.183 258.71 561.183C256.43 561.183 254.99 559.263 254.99 556.183ZM268.55 556.183C268.55 549.663 264.35 545.703 258.71 545.703C253.03 545.703 248.87 549.663 248.87 556.183C248.87 562.743 253.03 566.663 258.71 566.663C264.35 566.663 268.55 562.743 268.55 556.183ZM289.202 554.463C289.202 549.223 286.842 545.703 282.322 545.703C279.842 545.703 278.482 546.623 277.722 547.623C277.282 548.223 277.042 548.903 276.922 549.463L276.722 550.383H276.642L276.762 549.983C276.882 549.263 276.962 548.503 276.962 547.783V546.303H270.842V566.063H276.962V555.863C276.962 552.943 277.922 551.183 280.042 551.183C282.162 551.183 283.042 552.903 283.042 555.983C283.042 556.623 283.042 566.063 283.042 566.063H289.202V554.463ZM291.524 557.063H305.124V551.263H291.524V557.063ZM313.637 544.063L314.277 544.703C314.517 544.943 314.837 545.063 315.157 545.063H319.957C321.277 545.063 322.357 545.943 322.357 547.303C322.357 548.543 321.317 549.503 320.077 549.503H314.597V545.623C314.597 545.303 314.477 545.023 314.237 544.783L313.557 544.143L313.637 544.063ZM320.957 560.223H315.117C314.837 560.223 314.517 560.383 314.277 560.583L313.637 561.223L313.557 561.183L314.237 560.503C314.477 560.303 314.597 559.983 314.597 559.663V554.943H320.957C322.397 554.943 323.557 555.983 323.557 557.583C323.557 559.263 322.317 560.223 320.957 560.223ZM327.037 552.143C326.637 551.903 326.197 551.783 325.717 551.783H325.117V551.703H325.517C326.117 551.703 326.677 551.463 327.117 551.063C328.317 549.863 329.077 548.183 329.077 546.223C329.077 542.223 325.837 539.263 321.637 539.263H307.877V566.023H322.797C327.117 566.023 330.277 562.743 330.277 558.423C330.277 555.663 328.957 553.423 327.037 552.143ZM341.991 551.183C343.671 551.183 344.831 552.303 345.271 553.983H338.671C339.111 552.303 340.271 551.183 341.991 551.183ZM351.671 558.183C351.751 557.543 351.831 556.903 351.831 556.183C351.831 549.663 347.631 545.703 341.991 545.703C336.311 545.703 332.151 549.663 332.151 556.183C332.151 562.743 336.311 566.663 341.991 566.663C346.271 566.663 349.711 564.383 351.111 560.423L344.871 559.303C344.311 560.463 343.311 561.183 341.991 561.183C340.231 561.183 339.031 559.983 338.631 558.183H351.671ZM360.595 557.423C360.595 554.103 361.275 551.583 362.475 551.583C363.355 551.583 363.475 552.783 363.475 553.743V555.863L369.635 555.823V551.223C369.635 548.343 368.595 545.703 365.355 545.703C364.275 545.703 363.195 546.143 362.475 546.823C361.555 547.703 361.115 548.783 360.875 549.503C360.795 549.823 360.675 550.383 360.635 550.743L360.475 551.743H360.395L360.475 551.223C360.555 550.623 360.595 549.983 360.595 549.383V546.303H354.475V566.063H360.595V557.423ZM377.47 557.423C377.47 554.103 378.15 551.583 379.35 551.583C380.23 551.583 380.35 552.783 380.35 553.743V555.863L386.51 555.823V551.223C386.51 548.343 385.47 545.703 382.23 545.703C381.15 545.703 380.07 546.143 379.35 546.823C378.43 547.703 377.99 548.783 377.75 549.503C377.67 549.823 377.55 550.383 377.51 550.743L377.35 551.743H377.27L377.35 551.223C377.43 550.623 377.47 549.983 377.47 549.383V546.303H371.35V566.063H377.47V557.423ZM401.726 546.303L398.166 555.743C397.966 556.263 397.886 556.783 397.886 557.343V558.143H397.806V557.343C397.806 556.783 397.686 556.263 397.486 555.743L393.966 546.303H387.366L393.886 562.743C394.286 563.863 394.286 565.063 393.886 566.143L391.126 573.023H397.726L408.326 546.303H401.726Z" fill="#303030"/>
<rect x="637.773" width="607" height="607" rx="10" fill="#C096D6"/>
<path d="M676.988 499.918L677.028 499.838L677.428 500.238C677.628 500.438 677.908 500.558 678.188 500.558H686.508C688.988 500.558 691.388 502.198 691.388 505.438C691.388 508.558 689.028 510.318 686.508 510.318H677.708V501.078C677.708 500.798 677.588 500.518 677.388 500.318L676.988 499.918ZM692.268 512.478C691.748 512.038 690.908 511.718 690.108 511.798L689.548 511.838L689.508 511.758L689.988 511.718C690.628 511.678 691.188 511.398 691.748 511.078C693.428 509.958 694.708 507.798 694.708 505.118C694.708 500.918 691.628 497.638 687.188 497.638H674.428V524.398H677.708V513.118H687.428C689.028 513.158 690.308 513.958 690.628 516.358C690.828 518.118 691.268 521.998 691.588 524.398H694.908C694.588 521.958 694.068 517.598 693.868 515.958C693.628 514.198 692.988 513.078 692.268 512.478ZM706.185 506.878C709.745 506.878 711.865 509.558 712.225 513.198H700.105C700.465 509.558 702.625 506.878 706.185 506.878ZM715.385 515.478C715.425 515.198 715.465 514.878 715.465 514.558C715.465 508.438 711.705 504.078 706.185 504.078C700.665 504.078 696.905 508.438 696.905 514.558C696.905 520.678 700.665 525.038 706.185 525.038C710.625 525.038 713.865 522.198 715.025 517.958L711.905 517.398C711.225 520.238 709.225 522.238 706.185 522.238C702.465 522.238 700.305 519.318 700.105 515.478H715.385ZM727.2 522.238C723.24 522.238 720.96 518.958 720.96 514.558C720.96 510.158 723.24 506.878 727.2 506.878C731.12 506.878 733.16 510.158 733.16 514.558C733.16 518.958 731.16 522.238 727.2 522.238ZM736.36 521.438V504.678H733.28V507.798C733.28 508.398 733.36 508.998 733.52 509.598L733.68 510.078L733.64 510.118L733.16 508.638C732.64 506.958 731.16 504.078 726.64 504.078C721.4 504.078 717.92 508.478 717.92 514.558C717.92 520.638 721.36 525.038 726.64 525.038C731.16 525.038 732.68 522.158 733.2 520.438L733.64 518.998L733.68 519.038L733.52 519.558C733.4 519.998 733.32 520.478 733.32 520.958C733.32 521.078 733.28 522.158 733.28 522.278C733.28 524.118 734.28 525.278 734.28 526.638C734.28 528.558 732.72 528.918 730.96 528.878H721.12V531.478H732.04C735.76 531.478 737.44 530.038 737.44 527.118C737.44 524.678 736.36 524.118 736.36 521.438ZM740.556 524.438H743.636C743.636 519.398 743.636 504.758 743.636 504.678H740.556V524.438ZM742.076 501.878C743.036 501.878 743.796 501.118 743.796 500.198C743.796 499.238 743.036 498.478 742.076 498.478C741.156 498.478 740.396 499.238 740.396 500.198C740.396 501.118 741.156 501.878 742.076 501.878ZM749.554 514.558C749.554 510.158 751.834 506.878 755.794 506.878C759.714 506.878 761.994 510.158 761.994 514.558C761.994 518.958 759.714 522.238 755.794 522.238C751.834 522.238 749.554 518.958 749.554 514.558ZM765.074 514.558C765.074 508.438 761.314 504.078 755.794 504.078C750.274 504.078 746.514 508.438 746.514 514.558C746.514 520.678 750.274 525.038 755.794 525.038C761.314 525.038 765.074 520.678 765.074 514.558ZM784.897 513.158C784.897 507.318 782.097 504.078 777.457 504.078C774.777 504.078 773.017 505.278 772.017 506.518C771.537 507.118 771.257 507.838 771.057 508.478L770.737 509.518L770.657 509.478L770.817 508.958C770.977 508.398 771.057 507.798 771.057 507.198V504.678H768.017V524.438H771.057V513.358C771.057 509.478 773.217 506.878 776.537 506.878C780.017 506.878 781.857 509.358 781.857 513.758C781.857 516.318 781.857 524.438 781.857 524.438H784.897V513.158ZM801.04 516.278C801.04 519.598 798.88 522.318 794.92 522.318C792.68 522.318 791.24 521.078 791.04 519.358C790.84 517.558 791.88 515.798 794.44 515.318C795.84 515.078 798.24 514.598 799.16 514.398C800.68 514.118 801.04 513.638 801.04 513.638V516.278ZM805.72 521.838H804.32C804.2 521.838 804.12 521.758 804.12 521.638V511.558C804.16 506.878 801.52 504.078 796.48 504.078C793.84 504.078 791.6 504.958 790.2 506.558C788.88 508.038 788.48 509.918 788.88 511.758L791.88 511.318C791.68 510.358 791.72 509.158 792.48 508.198C793.12 507.438 794.32 506.638 796.44 506.638C799.36 506.638 800.92 508.238 800.92 510.198C800.92 510.998 800.56 511.518 799.88 511.798C799.28 512.038 798.2 512.198 796.8 512.478C795.72 512.718 793.84 513.118 792.56 513.478C788.92 514.478 787.88 516.918 787.96 519.438C788 522.318 790.28 525.038 794.4 525.038C797.08 525.038 799.08 523.998 800.36 522.438C800.96 521.678 801.36 520.678 801.56 519.678C801.6 519.598 801.72 518.998 801.72 518.998H801.76L801.72 519.278C801.6 519.878 801.56 520.478 801.52 521.078C801.52 521.318 801.52 522.238 801.52 522.958C801.52 523.798 802.12 524.438 803.04 524.438H805.72V521.838ZM808.719 522.558C808.719 523.598 809.559 524.438 810.599 524.438H815.599V521.638H811.999C811.879 521.638 811.759 521.558 811.759 521.398V497.678H808.719C808.679 497.798 808.679 521.918 808.719 522.558ZM837.746 521.478H833.306C832.986 521.478 832.706 521.598 832.506 521.838L832.106 522.198L832.066 522.158L832.466 521.758C832.666 521.558 832.786 521.238 832.786 520.958V501.118C832.786 500.798 832.666 500.518 832.466 500.278L832.066 499.918L832.106 499.838L832.506 500.238C832.706 500.438 832.986 500.558 833.306 500.558H837.746C843.506 500.558 847.786 504.278 847.786 511.038C847.786 517.758 843.506 521.478 837.746 521.478ZM838.386 497.638H829.506V524.438H838.386C845.626 524.438 851.106 519.558 851.106 511.038C851.106 502.518 845.626 497.638 838.386 497.638ZM854.345 524.438H857.425C857.425 519.398 857.425 504.758 857.425 504.678H854.345V524.438ZM855.865 501.878C856.825 501.878 857.585 501.118 857.585 500.198C857.585 499.238 856.825 498.478 855.865 498.478C854.945 498.478 854.185 499.238 854.185 500.198C854.185 501.118 854.945 501.878 855.865 501.878ZM864.573 524.438V514.718C864.573 511.398 866.133 507.038 867.733 507.038C868.813 507.038 869.133 508.478 869.133 509.598V511.798H872.213V508.958C872.213 505.998 871.253 504.078 868.933 504.078C867.733 504.078 866.733 504.958 866.013 505.998C865.293 506.998 864.893 508.158 864.773 508.838C864.733 508.958 864.573 509.918 864.533 510.038L864.413 510.798H864.373L864.453 510.278C864.533 509.638 864.573 509.038 864.573 508.398V504.678H861.533V524.438H864.573ZM883.528 506.878C887.088 506.878 889.208 509.558 889.568 513.198H877.448C877.808 509.558 879.968 506.878 883.528 506.878ZM892.728 515.478C892.768 515.198 892.808 514.878 892.808 514.558C892.808 508.438 889.048 504.078 883.528 504.078C878.008 504.078 874.248 508.438 874.248 514.558C874.248 520.678 878.008 525.038 883.528 525.038C887.968 525.038 891.208 522.198 892.368 517.958L889.248 517.398C888.568 520.238 886.568 522.238 883.528 522.238C879.808 522.238 877.648 519.318 877.448 515.478H892.728ZM910.584 516.518C909.984 519.918 907.864 522.238 904.544 522.238C900.584 522.238 898.304 518.958 898.304 514.558C898.304 510.158 900.584 506.878 904.544 506.878C907.864 506.878 909.984 509.198 910.584 512.598L913.624 512.278C912.824 507.318 909.344 504.078 904.544 504.078C899.024 504.078 895.264 508.438 895.264 514.558C895.264 520.678 899.024 525.038 904.544 525.038C909.344 525.038 912.824 521.798 913.624 516.878L910.584 516.518ZM921.606 521.638C921.486 521.638 921.406 521.518 921.406 521.398V507.238H924.886V504.638H921.406V497.638H918.606C918.606 497.678 918.606 501.078 918.606 503.478C918.606 504.198 918.046 504.758 917.326 504.758H915.286V507.238H918.326C918.326 512.158 918.326 522.118 918.326 522.518C918.326 523.558 919.166 524.398 920.206 524.398H925.766V521.638H921.606ZM929.827 514.558C929.827 510.158 932.107 506.878 936.067 506.878C939.987 506.878 942.267 510.158 942.267 514.558C942.267 518.958 939.987 522.238 936.067 522.238C932.107 522.238 929.827 518.958 929.827 514.558ZM945.347 514.558C945.347 508.438 941.587 504.078 936.067 504.078C930.547 504.078 926.787 508.438 926.787 514.558C926.787 520.678 930.547 525.038 936.067 525.038C941.587 525.038 945.347 520.678 945.347 514.558ZM951.33 524.438V514.718C951.33 511.398 952.89 507.038 954.49 507.038C955.57 507.038 955.89 508.478 955.89 509.598V511.798H958.97V508.958C958.97 505.998 958.01 504.078 955.69 504.078C954.49 504.078 953.49 504.958 952.77 505.998C952.05 506.998 951.65 508.158 951.53 508.838C951.49 508.958 951.33 509.918 951.29 510.038L951.17 510.798H951.13L951.21 510.278C951.29 509.638 951.33 509.038 951.33 508.398V504.678H948.29V524.438H951.33ZM985.259 516.278C985.259 519.598 983.099 522.318 979.139 522.318C976.899 522.318 975.459 521.078 975.259 519.358C975.059 517.558 976.099 515.798 978.659 515.318C980.059 515.078 982.459 514.598 983.379 514.398C984.899 514.118 985.259 513.638 985.259 513.638V516.278ZM989.939 521.838H988.539C988.419 521.838 988.339 521.758 988.339 521.638V511.558C988.379 506.878 985.739 504.078 980.699 504.078C978.059 504.078 975.819 504.958 974.419 506.558C973.099 508.038 972.699 509.918 973.099 511.758L976.099 511.318C975.899 510.358 975.939 509.158 976.699 508.198C977.339 507.438 978.539 506.638 980.659 506.638C983.579 506.638 985.139 508.238 985.139 510.198C985.139 510.998 984.779 511.518 984.099 511.798C983.499 512.038 982.419 512.198 981.019 512.478C979.939 512.718 978.059 513.118 976.779 513.478C973.139 514.478 972.099 516.918 972.179 519.438C972.219 522.318 974.499 525.038 978.619 525.038C981.299 525.038 983.299 523.998 984.579 522.438C985.179 521.678 985.579 520.678 985.779 519.678C985.819 519.598 985.939 518.998 985.939 518.998H985.979L985.939 519.278C985.819 519.878 985.779 520.478 985.739 521.078C985.739 521.318 985.739 522.238 985.739 522.958C985.739 523.798 986.339 524.438 987.259 524.438H989.939V521.838ZM996.919 521.638C996.799 521.638 996.719 521.518 996.719 521.398V507.238H1000.2V504.638H996.719V497.638H993.919C993.919 497.678 993.919 501.078 993.919 503.478C993.919 504.198 993.359 504.758 992.639 504.758H990.599V507.238H993.639C993.639 512.158 993.639 522.118 993.639 522.518C993.639 523.558 994.479 524.398 995.519 524.398H1001.08V521.638H996.919ZM1038.37 497.638L1029.29 517.638C1029.09 518.118 1029.01 518.558 1029.01 519.118V519.758H1028.93V519.118C1028.93 518.558 1028.85 518.118 1028.69 517.638L1019.61 497.638H1015.13V524.438H1018.41V503.318C1018.41 503.038 1018.37 502.758 1018.33 502.518L1018.21 501.998H1018.29L1018.37 502.398C1018.45 502.718 1018.53 503.038 1018.65 503.358L1028.09 524.438H1029.93L1039.37 503.358C1039.49 503.038 1039.57 502.718 1039.65 502.398L1039.73 501.998H1039.81L1039.69 502.518C1039.65 502.798 1039.61 503.038 1039.61 503.318V524.438H1042.93V497.638H1038.37ZM1046.96 504.678V515.958C1046.96 521.798 1049.52 524.998 1054.4 524.998C1058.24 524.998 1060 522.638 1060.64 521.078L1061.12 519.598L1061.16 519.638L1061.04 520.118C1060.88 520.718 1060.8 521.278 1060.8 521.878V524.398H1063.84V504.678H1060.8V515.758C1060.8 519.638 1058.6 522.238 1055.32 522.238C1051.6 522.238 1050 519.758 1050 515.358C1050 512.798 1050 504.678 1050 504.678H1046.96ZM1067.9 522.558C1067.9 523.598 1068.74 524.438 1069.78 524.438H1074.78V521.638H1071.18C1071.06 521.638 1070.94 521.558 1070.94 521.398V497.678H1067.9C1067.86 497.798 1067.86 521.918 1067.9 522.558ZM1081.25 521.638C1081.13 521.638 1081.05 521.518 1081.05 521.398V507.238H1084.53V504.638H1081.05V497.638H1078.25C1078.25 497.678 1078.25 501.078 1078.25 503.478C1078.25 504.198 1077.69 504.758 1076.97 504.758H1074.93V507.238H1077.97C1077.97 512.158 1077.97 522.118 1077.97 522.518C1077.97 523.558 1078.81 524.398 1079.85 524.398H1085.41V521.638H1081.25ZM1088.13 524.438H1091.21C1091.21 519.398 1091.21 504.758 1091.21 504.678H1088.13V524.438ZM1089.65 501.878C1090.61 501.878 1091.37 501.118 1091.37 500.198C1091.37 499.238 1090.61 498.478 1089.65 498.478C1088.73 498.478 1087.97 499.238 1087.97 500.198C1087.97 501.118 1088.73 501.878 1089.65 501.878ZM1108.76 504.678L1103 521.038C1102.88 521.398 1102.8 521.838 1102.8 522.238V522.958H1102.72V522.238C1102.72 521.838 1102.68 521.438 1102.56 521.038L1096.8 504.678H1093.64L1100.56 524.438H1105L1111.92 504.678H1108.76ZM1121.42 506.878C1124.98 506.878 1127.1 509.558 1127.46 513.198H1115.34C1115.7 509.558 1117.86 506.878 1121.42 506.878ZM1130.62 515.478C1130.66 515.198 1130.7 514.878 1130.7 514.558C1130.7 508.438 1126.94 504.078 1121.42 504.078C1115.9 504.078 1112.14 508.438 1112.14 514.558C1112.14 520.678 1115.9 525.038 1121.42 525.038C1125.86 525.038 1129.1 522.198 1130.26 517.958L1127.14 517.398C1126.46 520.238 1124.46 522.238 1121.42 522.238C1117.7 522.238 1115.54 519.318 1115.34 515.478H1130.62ZM1136.99 524.438V514.718C1136.99 511.398 1138.55 507.038 1140.15 507.038C1141.23 507.038 1141.55 508.478 1141.55 509.598V511.798H1144.63V508.958C1144.63 505.998 1143.67 504.078 1141.35 504.078C1140.15 504.078 1139.15 504.958 1138.43 505.998C1137.71 506.998 1137.31 508.158 1137.19 508.838C1137.15 508.958 1136.99 509.918 1136.95 510.038L1136.83 510.798H1136.79L1136.87 510.278C1136.95 509.638 1136.99 509.038 1136.99 508.398V504.678H1133.95V524.438H1136.99ZM1162.15 519.278C1162.15 515.118 1158.31 513.958 1155.11 513.158C1153.39 512.718 1150.15 511.998 1150.15 509.558C1150.15 508.078 1151.35 506.638 1154.31 506.638C1157.59 506.638 1158.59 508.438 1158.59 510.438H1161.43C1161.43 507.198 1159.59 504.078 1154.23 504.078C1149.15 504.078 1147.07 506.558 1147.07 509.278C1147.07 512.838 1149.79 514.278 1153.55 515.198C1157.27 516.078 1159.07 517.158 1159.07 519.118C1159.07 521.278 1157.19 522.438 1154.59 522.438C1150.27 522.438 1149.67 519.358 1149.67 518.118H1146.63C1146.63 521.438 1148.75 524.998 1154.71 524.998C1159.91 524.998 1162.15 522.398 1162.15 519.278ZM1173.96 506.878C1177.52 506.878 1179.64 509.558 1180 513.198H1167.88C1168.24 509.558 1170.4 506.878 1173.96 506.878ZM1183.16 515.478C1183.2 515.198 1183.24 514.878 1183.24 514.558C1183.24 508.438 1179.48 504.078 1173.96 504.078C1168.44 504.078 1164.68 508.438 1164.68 514.558C1164.68 520.678 1168.44 525.038 1173.96 525.038C1178.4 525.038 1181.64 522.198 1182.8 517.958L1179.68 517.398C1179 520.238 1177 522.238 1173.96 522.238C1170.24 522.238 1168.08 519.318 1167.88 515.478H1183.16ZM1200.19 531.438V490.598H1197.27V531.438H1200.19ZM680.788 566.598V545.638H674.068V572.398H693.348V566.598H680.788ZM695.157 572.438H701.317C701.317 571.158 701.317 552.718 701.317 552.678H695.157V572.438ZM698.237 551.358C700.037 551.358 701.477 549.878 701.477 548.118C701.477 546.318 700.037 544.878 698.237 544.878C696.477 544.878 695.037 546.318 695.037 548.118C695.037 549.878 696.477 551.358 698.237 551.358ZM711.286 562.558C711.286 559.438 712.646 557.518 714.926 557.518C717.166 557.518 718.606 559.438 718.606 562.558C718.606 565.638 717.166 567.558 714.926 567.558C712.646 567.558 711.286 565.638 711.286 562.558ZM710.926 569.238C711.246 570.598 712.206 572.998 716.326 572.998C721.646 572.998 724.766 568.478 724.766 562.558C724.766 556.598 721.646 552.078 716.326 552.078C712.206 552.078 711.246 554.478 710.926 555.838L710.686 556.878H710.606L710.726 556.478C710.846 555.758 710.926 555.038 710.926 554.278V545.638H704.806V572.398H710.926V570.798C710.926 570.078 710.846 569.318 710.726 568.598L710.606 568.198H710.686L710.926 569.238ZM734.021 562.558C734.021 559.438 735.381 557.518 737.661 557.518C739.901 557.518 741.341 559.438 741.341 562.558C741.341 565.638 739.901 567.558 737.661 567.558C735.381 567.558 734.021 565.638 734.021 562.558ZM733.661 569.238C733.981 570.598 734.941 572.998 739.061 572.998C744.381 572.998 747.501 568.478 747.501 562.558C747.501 556.598 744.381 552.078 739.061 552.078C734.941 552.078 733.981 554.478 733.661 555.838L733.421 556.878H733.341L733.461 556.478C733.581 555.758 733.661 555.038 733.661 554.278V545.638H727.541V572.398H733.661V570.798C733.661 570.078 733.581 569.318 733.461 568.598L733.341 568.198H733.421L733.661 569.238ZM761.042 552.678L757.482 562.118C757.282 562.638 757.202 563.158 757.202 563.718V564.518H757.122V563.718C757.122 563.158 757.002 562.638 756.802 562.118L753.282 552.678H746.682L753.202 569.118C753.602 570.238 753.602 571.438 753.202 572.518L750.442 579.398H757.042L767.642 552.678H761.042ZM790.507 566.598H788.027C787.747 566.598 787.427 566.758 787.187 566.958L786.547 567.598L786.467 567.558L787.147 566.878C787.387 566.678 787.507 566.358 787.507 566.038V551.998C787.507 551.678 787.387 551.398 787.147 551.158L786.467 550.518L786.547 550.438L787.187 551.078C787.427 551.318 787.747 551.438 788.067 551.438H790.507C794.667 551.438 797.587 554.158 797.587 559.038C797.587 563.918 794.667 566.598 790.507 566.598ZM791.587 545.638H780.787V572.398H791.587C798.827 572.398 804.307 567.558 804.307 559.038C804.307 550.518 798.827 545.638 791.587 545.638ZM815.956 557.558C817.636 557.558 818.796 558.678 819.236 560.358H812.636C813.076 558.678 814.236 557.558 815.956 557.558ZM825.636 564.558C825.716 563.918 825.796 563.278 825.796 562.558C825.796 556.038 821.596 552.078 815.956 552.078C810.276 552.078 806.116 556.038 806.116 562.558C806.116 569.118 810.276 573.038 815.956 573.038C820.236 573.038 823.676 570.758 825.076 566.798L818.836 565.678C818.276 566.838 817.276 567.558 815.956 567.558C814.196 567.558 812.996 566.358 812.596 564.558H825.636ZM834.559 563.798C834.559 560.478 835.239 557.958 836.439 557.958C837.319 557.958 837.439 559.158 837.439 560.118V562.238L843.599 562.198V557.598C843.599 554.718 842.559 552.078 839.319 552.078C838.239 552.078 837.159 552.518 836.439 553.198C835.519 554.078 835.079 555.158 834.839 555.878C834.759 556.198 834.639 556.758 834.599 557.118L834.439 558.118H834.359L834.439 557.598C834.519 556.998 834.559 556.358 834.559 555.758V552.678H828.439V572.438H834.559V563.798ZM852.575 562.558C852.575 559.438 853.935 557.518 856.215 557.518C858.455 557.518 859.895 559.438 859.895 562.558C859.895 565.638 858.455 567.558 856.215 567.558C853.935 567.558 852.575 565.638 852.575 562.558ZM852.215 569.238C852.535 570.598 853.495 572.998 857.615 572.998C862.935 572.998 866.055 568.478 866.055 562.558C866.055 556.598 862.935 552.078 857.615 552.078C853.495 552.078 852.535 554.478 852.215 555.838L851.975 556.878H851.895L852.015 556.478C852.135 555.758 852.215 555.038 852.215 554.278V545.638H846.095V572.398H852.215V570.798C852.215 570.078 852.135 569.318 852.015 568.598L851.895 568.198H851.975L852.215 569.238ZM879.597 552.678L876.037 562.118C875.837 562.638 875.757 563.158 875.757 563.718V564.518H875.677V563.718C875.677 563.158 875.557 562.638 875.357 562.118L871.837 552.678H865.237L871.757 569.118C872.157 570.238 872.157 571.438 871.757 572.518L868.997 579.398H875.597L886.197 552.678H879.597ZM903.316 566.878C903.316 562.518 899.596 561.358 896.516 560.518C894.956 560.078 892.756 559.758 892.756 558.438C892.756 557.598 893.356 556.998 894.836 556.998C896.356 556.998 896.996 557.678 896.996 558.598L902.636 558.638C902.636 554.598 899.716 552.078 894.556 552.078C889.116 552.078 886.596 554.758 886.596 557.718C886.596 562.038 889.956 563.278 893.036 564.118C895.236 564.718 897.116 565.198 897.116 566.438C897.116 567.518 896.156 568.038 894.796 568.038C892.916 568.038 892.276 566.758 892.276 565.838H886.156C886.156 569.958 889.116 572.998 895.076 572.998C900.516 572.998 903.316 570.438 903.316 566.878ZM924.377 572.438V560.838C924.377 555.598 922.097 552.078 917.497 552.078C915.737 552.078 914.537 552.598 913.697 553.198C912.657 553.998 912.297 555.038 912.097 555.838L911.897 556.758H911.817L911.937 556.358C912.057 555.638 912.137 554.878 912.137 554.158V545.678H906.017V572.438H912.137V562.238C912.137 559.318 913.097 557.558 915.217 557.558C917.417 557.558 918.217 559.278 918.217 562.358C918.217 562.998 918.217 572.438 918.217 572.438H924.377ZM927.579 572.438H933.739C933.739 571.158 933.739 552.718 933.739 552.678H927.579V572.438ZM930.659 551.358C932.459 551.358 933.899 549.878 933.899 548.118C933.899 546.318 932.459 544.878 930.659 544.878C928.899 544.878 927.459 546.318 927.459 548.118C927.459 549.878 928.899 551.358 930.659 551.358ZM943.348 563.798C943.348 560.478 944.028 557.958 945.228 557.958C946.108 557.958 946.228 559.158 946.228 560.118V562.238L952.388 562.198V557.598C952.388 554.718 951.348 552.078 948.108 552.078C947.028 552.078 945.948 552.518 945.228 553.198C944.308 554.078 943.868 555.158 943.628 555.878C943.548 556.198 943.428 556.758 943.388 557.118L943.228 558.118H943.148L943.228 557.598C943.308 556.998 943.348 556.358 943.348 555.758V552.678H937.228V572.438H943.348V563.798ZM963.925 557.558C965.605 557.558 966.765 558.678 967.205 560.358H960.605C961.045 558.678 962.205 557.558 963.925 557.558ZM973.605 564.558C973.685 563.918 973.765 563.278 973.765 562.558C973.765 556.038 969.565 552.078 963.925 552.078C958.245 552.078 954.085 556.038 954.085 562.558C954.085 569.118 958.245 573.038 963.925 573.038C968.205 573.038 971.645 570.758 973.045 566.798L966.805 565.678C966.245 566.838 965.245 567.558 963.925 567.558C962.165 567.558 960.965 566.358 960.565 564.558H973.605Z" fill="#303030"/>
</svg>
