<?xml version="1.0" encoding="utf-8"?>
<!-- Generator: Adobe Illustrator 26.0.3, SVG Export Plug-In . SVG Version: 6.00 Build 0)  -->
<svg version="1.1" id="Layer_1" xmlns="http://www.w3.org/2000/svg" xmlns:xlink="http://www.w3.org/1999/xlink" x="0px" y="0px"
	 viewBox="0 0 1543 1053" style="enable-background:new 0 0 1543 1053;" xml:space="preserve">
<style type="text/css">
	.st0{fill:none;stroke:#C096D6;stroke-width:30;}
	.st1{fill:#FFF6E9;}
	.st2{fill:#C096D6;}
	.st3{fill:none;stroke:#FFF6E9;stroke-width:30;}
</style>
<path class="st0" d="M1483.9,1006.7V819"/>
<path class="st1" d="M1427.7,977.9c-1.8-3.1-1.8-6.9,0-10l23.8-41.2c1.8-3.1,5.1-5,8.7-5h47.5c3.6,0,6.9,1.9,8.7,5l23.8,41.2
	c1.8,3.1,1.8,6.9,0,10l-23.8,41.2c-1.8,3.1-5.1,5-8.7,5h-47.5c-3.6,0-6.9-1.9-8.7-5L1427.7,977.9z"/>
<path class="st2" d="M1483.9,991.2c9.1,0,16.5,7.4,16.5,16.5v28.7c0,9.1-7.4,16.5-16.5,16.5s-16.5-7.4-16.5-16.5v-28.7
	C1467.4,998.5,1474.8,991.2,1483.9,991.2z"/>
<path class="st1" d="M76.8,115.5c-3.1,1.8-6.9,1.8-10,0L25.7,91.7c-3.1-1.8-5-5.1-5-8.7V35.6c0-3.6,1.9-6.9,5-8.7L66.8,3.1
	c3.1-1.8,6.9-1.8,10,0L118,26.9c3.1,1.8,5,5.1,5,8.7v47.5c0,3.6-1.9,6.9-5,8.7L76.8,115.5z"/>
<path class="st3" d="M111.8,58.2l60,60c12,12,28.3,18.7,45.3,18.7h540.8c35.3,0,64,28.7,64,64v75.2c0,33.6-27.2,60.8-60.8,60.8l0,0
	H466.5h-148c-35.3,0-64,28.7-64,64v110c0,35.3,28.7,64,64,64h115.9c5.7,0,11.4-0.8,16.9-2.3l187.4-51.4c5.5-1.5,11.2-2.3,16.9-2.3
	H1037c35.3,0,64,28.7,64,64v72v12v87.4c0,51.7,58.2,82.1,100.6,52.5l126.9-88.4c10.7-7.5,23.5-11.5,36.6-11.5h53.9
	c35.3,0,64,28.7,64,64v52"/>
<path class="st2" d="M61.8,59.4c0,9.1-7.4,16.5-16.5,16.5H16.6c-9.1,0-16.5-7.4-16.5-16.5C0.2,50.3,7.5,43,16.6,43h28.7
	C54.5,43,61.8,50.3,61.8,59.4z"/>
</svg>
