<svg width="113" height="1935" viewBox="0 0 113 1935" fill="none" xmlns="http://www.w3.org/2000/svg">
<path d="M56.5 1889.09L56.5 1702.15" stroke="#C096D6" stroke-width="30"/>
<path d="M2.68969 1860.28C1.0166 1857.26 1.01659 1853.6 2.68969 1850.58L25.3938 1809.64C27.1565 1806.46 30.5047 1804.49 34.139 1804.49L78.8609 1804.49C82.4952 1804.49 85.8434 1806.46 87.6061 1809.64L110.31 1850.58C111.983 1853.6 111.983 1857.26 110.31 1860.28L87.6061 1901.22C85.8434 1904.4 82.4952 1906.37 78.8609 1906.37L34.139 1906.37C30.5047 1906.37 27.1565 1904.4 25.3938 1901.22L2.68969 1860.28Z" fill="#FFF6E9"/>
<path d="M56.5006 1873.59C65.2063 1873.59 72.2637 1880.64 72.2637 1889.35L72.2637 1919.24C72.2637 1927.94 65.2063 1935 56.5006 1935V1935C47.7949 1935 40.7376 1927.94 40.7376 1919.24L40.7376 1889.35C40.7376 1880.64 47.7949 1873.59 56.5006 1873.59V1873.59Z" fill="#C096D6"/>
<path d="M2.6897 83.1721C1.01661 80.1553 1.0166 76.4891 2.6897 73.4723L25.3938 32.5331C27.1565 29.3549 30.5047 27.3831 34.139 27.3831L78.8609 27.3831C82.4952 27.3831 85.8435 29.3549 87.6061 32.5332L110.31 73.4723C111.983 76.4891 111.983 80.1553 110.31 83.1721L87.6061 124.111C85.8434 127.29 82.4952 129.261 78.8609 129.261L34.139 129.261C30.5047 129.261 27.1565 127.29 25.3938 124.111L2.6897 83.1721Z" fill="#FFF6E9"/>
<path d="M55.0459 89.6692V300.782V515.879V679.193V1342.41V1637.17V1708.87" stroke="#FFF6E9" stroke-width="30"/>
<path d="M56.3817 61.4131C47.676 61.4131 40.6187 54.3557 40.6187 45.65L40.6187 15.763C40.6187 7.05735 47.676 -3.42975e-06 56.3817 -2.24127e-06V-2.24127e-06C65.0874 -1.05279e-06 72.1447 7.05735 72.1447 15.763L72.1447 45.65C72.1447 54.3557 65.0874 61.4131 56.3817 61.4131V61.4131Z" fill="#C096D6"/>
</svg>
