<?xml version="1.0" encoding="utf-8"?>
<!-- Generator: Adobe Illustrator 26.0.3, SVG Export Plug-In . SVG Version: 6.00 Build 0)  -->
<svg version="1.1" id="Layer_1" xmlns="http://www.w3.org/2000/svg" xmlns:xlink="http://www.w3.org/1999/xlink" x="0px" y="0px"
	 viewBox="0 0 162 162" style="enable-background:new 0 0 162 162;" xml:space="preserve">
<style type="text/css">
	.st0{fill:#303030;}
	.st1{fill:#8CD87C;}
</style>
<path class="st0" d="M104.8,44.6c3.6,0,6.9,1.9,8.7,5l23.8,41.2c1.8,3.1,1.8,6.9,0,10l-23.8,41.2c-1.8,3.1-5.1,5-8.7,5H57.2
	c-3.6,0-6.9-1.9-8.7-5l-23.8-41.2c-1.8-3.1-1.8-6.9,0-10l23.8-41.2c1.8-3.1,5.1-5,8.7-5H104.8z"/>
<path class="st1" d="M80.9,15.1c9.1,0,16.5,7.3,16.5,16.4l0.1,28.7c0,9.1-7.3,16.5-16.4,16.5c-9.1,0-16.5-7.3-16.5-16.4l-0.1-28.7
	C64.5,22.5,71.8,15.1,80.9,15.1z"/>
</svg>
