<svg width="163" height="163" viewBox="0 0 163 163" fill="none" xmlns="http://www.w3.org/2000/svg">
<path d="M105.392 30.2137C108.965 30.2137 112.266 32.1197 114.052 35.2137L137.812 76.3668C139.598 79.4608 139.598 83.2728 137.812 86.3668L114.052 127.52C112.266 130.614 108.965 132.52 105.392 132.52L57.8725 132.52C54.2999 132.52 50.9986 130.614 49.2123 127.52L25.4525 86.3668C23.6662 83.2728 23.6662 79.4608 25.4525 76.3668L49.2123 35.2137C50.9986 32.1197 54.2999 30.2137 57.8725 30.2137L105.392 30.2137Z" fill="#303030"/>
<path d="M81.5598 0.714338C90.661 0.693122 98.0561 8.05385 98.0773 17.155L98.1442 45.8678C98.1655 54.9689 90.8047 62.364 81.7036 62.3853C72.6025 62.4065 65.2073 55.0458 65.1861 45.9446L65.1192 17.2318C65.098 8.13066 72.4587 0.735553 81.5598 0.714338Z" fill="#C096D6"/>
<path d="M81.5598 0.714338C90.661 0.693122 98.0561 8.05385 98.0773 17.155L98.1442 45.8678C98.1655 54.9689 90.8047 62.364 81.7036 62.3853C72.6025 62.4065 65.2073 55.0458 65.1861 45.9446L65.1192 17.2318C65.098 8.13066 72.4587 0.735553 81.5598 0.714338Z" stroke="#303030"/>
</svg>
