<svg width="48" height="48" viewBox="0 0 48 48" fill="none" xmlns="http://www.w3.org/2000/svg">
<path fill-rule="evenodd" clip-rule="evenodd" d="M24 6C14.0589 6 6 14.0589 6 24C6 33.9411 14.0589 42 24 42C33.9411 42 42 33.9411 42 24C42 14.0589 33.9411 6 24 6ZM2 24C2 11.8497 11.8497 2 24 2C36.1503 2 46 11.8497 46 24C46 36.1503 36.1503 46 24 46C11.8497 46 2 36.1503 2 24Z" fill="#C096D6"/>
<path fill-rule="evenodd" clip-rule="evenodd" d="M15.3667 12.7525C15.9774 12.3931 16.7327 12.3837 17.3522 12.7279L34.4951 22.2517C35.13 22.6044 35.5238 23.2737 35.5238 24C35.5238 24.7263 35.13 25.3956 34.4951 25.7483L17.3522 35.2721C16.7327 35.6163 15.9774 35.6069 15.3667 35.2476C14.7559 34.8882 14.3809 34.2325 14.3809 33.5238V14.4762C14.3809 13.7676 14.7559 13.1118 15.3667 12.7525ZM18.3809 17.8752V30.1248L29.4055 24L18.3809 17.8752Z" fill="#8CD87C"/>
</svg>
