<svg width="1200" height="1200" viewBox="0 0 1241 689" fill="none" xmlns="http://www.w3.org/2000/svg">
<path d="M1642 494H1472H1451.91C1418.77 494 1391.91 467.137 1391.91 434V434V311.955C1391.91 288.784 1373.13 270 1349.95 270V270C1326.78 270 1308 288.784 1308 311.955V564C1308 599.346 1279.35 628 1244 628H1002L781.536 628.155C746.173 628.18 717.491 599.519 717.491 564.155V79.7886C717.491 44.4424 688.838 15.7886 653.491 15.7886L311.491 15.7887V15.7887C277.531 15.7887 250 43.3194 250 77.2802V414C250 449.346 278.654 478 314 478H392C427.346 478 456 506.654 456 542V546C456 581.346 427.346 610 392 610H124" stroke="#303030" stroke-width="30"/>
<path d="M1600.58 473.456C1600.58 469.883 1602.48 466.582 1605.58 464.796L1646.73 441.036C1649.83 439.25 1653.64 439.25 1656.73 441.036L1697.88 464.796C1700.98 466.582 1702.88 469.883 1702.88 473.456L1702.88 520.976C1702.88 524.548 1700.98 527.85 1697.88 529.636L1656.73 553.396C1653.64 555.182 1649.83 555.182 1646.73 553.396L1605.58 529.636C1602.48 527.85 1600.58 524.548 1600.58 520.976L1600.58 473.456Z" fill="#8CD87C"/>
<path d="M1678.77 497.288C1678.75 488.187 1686.11 480.792 1695.21 480.771L1723.92 480.704C1733.02 480.683 1740.42 488.043 1740.44 497.145C1740.46 506.246 1733.1 513.641 1724 513.662L1695.29 513.729C1686.18 513.75 1678.79 506.389 1678.77 497.288Z" fill="#303030"/>
<path d="M1678.77 497.288C1678.75 488.187 1686.11 480.792 1695.21 480.771L1723.92 480.704C1733.02 480.683 1740.42 488.043 1740.44 497.145C1740.46 506.246 1733.1 513.641 1724 513.662L1695.29 513.729C1686.18 513.75 1678.79 506.389 1678.77 497.288Z" stroke="#303030"/>
<path d="M139.957 631.691C139.957 635.264 138.051 638.565 134.957 640.352L93.8042 664.111C90.7102 665.898 86.8982 665.898 83.8042 664.111L42.6511 640.352C39.5571 638.565 37.6511 635.264 37.6511 631.691L37.6511 584.172C37.6511 580.599 39.5571 577.298 42.6511 575.511L83.8042 551.752C86.8982 549.965 90.7102 549.965 93.8042 551.752L134.957 575.511C138.051 577.298 139.957 580.599 139.957 584.172L139.957 631.691Z" fill="#C096D6"/>
<path d="M61.7681 607.995C61.7893 617.096 54.4286 624.491 45.3275 624.513L16.6146 624.58C7.5135 624.601 0.118392 617.24 0.0971774 608.139C0.0759623 599.038 7.43668 591.643 16.5378 591.621L45.2507 591.555C54.3518 591.533 61.7469 598.894 61.7681 607.995Z" fill="#303030"/>
<path d="M61.7681 607.995C61.7893 617.096 54.4286 624.491 45.3275 624.513L16.6146 624.58C7.5135 624.601 0.118392 617.24 0.0971774 608.139C0.0759623 599.038 7.43668 591.643 16.5378 591.621L45.2507 591.555C54.3518 591.533 61.7469 598.894 61.7681 607.995Z" stroke="#303030"/>
</svg>
