<svg width="1187" height="429" viewBox="0 0 1187 429" fill="none" xmlns="http://www.w3.org/2000/svg">
<line x1="512" y1="178" x2="1186" y2="178" stroke="#C096D6" stroke-width="30"/>
<line x1="156" y1="414" x2="432" y2="414" stroke="#8CD87C" stroke-width="30"/>
<path d="M257 235.5C257 254.255 245.705 273.013 223.793 287.755C201.974 302.434 170.979 312 136 312C101.021 312 70.0255 302.434 48.2067 287.755C26.2952 273.013 15 254.255 15 235.5C15 216.745 26.2952 197.987 48.2067 183.245C70.0255 168.566 101.021 159 136 159C170.979 159 201.974 168.566 223.793 183.245C245.705 197.987 257 216.745 257 235.5Z" stroke="black" stroke-width="30"/>
<path d="M257 235.5C257 254.255 245.705 273.013 223.793 287.755C201.974 302.434 170.979 312 136 312C101.021 312 70.0255 302.434 48.2067 287.755C26.2952 273.013 15 254.255 15 235.5C15 216.745 26.2952 197.987 48.2067 183.245C70.0255 168.566 101.021 159 136 159C170.979 159 201.974 168.566 223.793 183.245C245.705 197.987 257 216.745 257 235.5Z" stroke="#8CD87C" stroke-width="30"/>
<path d="M76.4485 365.015L67.0885 397.19C66.7635 398.165 66.6335 399.14 66.6335 400.05V401.09H66.5685V400.115C66.5685 399.14 66.3735 398.165 66.1135 397.255L56.4285 365.015H51.8785L42.1935 397.255C41.8685 398.165 41.7385 399.14 41.7385 400.115V401.09H41.6085V400.05C41.6085 399.14 41.4785 398.165 41.2185 397.19L31.7935 365.015H26.2685L39.0085 408.565H44.2085L53.6985 376.91C53.9585 375.935 54.0885 375.025 54.0885 374.05V372.815H54.2185V374.05C54.2185 375.025 54.3485 375.935 54.6085 376.91L64.0985 408.565H69.2985L82.0385 365.015H76.4485ZM111.339 408.565V390.235C111.339 380.745 107.114 375.48 99.2488 375.48C95.6738 375.48 93.0738 376.91 91.3838 378.535C90.0188 379.77 89.2388 381.33 88.7838 382.76L88.3288 384.32L88.1988 384.255L88.4588 383.41C88.7188 382.5 88.8488 381.525 88.8488 380.55V365.08H83.9088V408.565H88.8488V390.56C88.8488 384.255 92.3588 380.03 97.7537 380.03C103.799 380.03 106.399 384.06 106.399 391.21C106.399 395.37 106.399 408.565 106.399 408.565H111.339ZM138.572 376.39L129.147 399.725C128.952 400.31 128.822 400.895 128.822 401.48V402.585H128.692V401.48C128.692 400.895 128.562 400.31 128.367 399.725L118.942 376.39H113.612L125.312 405.12C125.832 406.355 125.832 407.655 125.312 408.89L120.827 419.94H126.157L143.902 376.39H138.572ZM185.357 386.66H171.512V370.605C171.512 370.15 171.317 369.695 170.992 369.37L170.342 368.72L170.407 368.59L171.057 369.305C171.382 369.565 171.837 369.76 172.292 369.76H185.357C189.647 369.76 193.742 372.62 193.742 378.21C193.742 383.8 189.647 386.66 185.357 386.66ZM185.877 365.015H166.182V408.565H171.512V391.405H185.877C193.742 391.405 199.137 385.555 199.137 378.21C199.137 370.8 193.742 365.015 185.877 365.015ZM203.624 405.51C203.624 407.2 204.989 408.565 206.679 408.565H214.804V404.015H208.954C208.759 404.015 208.564 403.885 208.564 403.625V365.08H203.624C203.559 365.275 203.559 404.47 203.624 405.51ZM239.007 395.305C239.007 400.7 235.497 405.12 229.062 405.12C225.422 405.12 223.082 403.105 222.757 400.31C222.432 397.385 224.122 394.525 228.282 393.745C230.557 393.355 234.457 392.575 235.952 392.25C238.422 391.795 239.007 391.015 239.007 391.015V395.305ZM246.612 404.34H244.337C244.142 404.34 244.012 404.21 244.012 404.015V387.635C244.077 380.03 239.787 375.48 231.597 375.48C227.307 375.48 223.667 376.91 221.392 379.51C219.247 381.915 218.597 384.97 219.247 387.96L224.122 387.245C223.797 385.685 223.862 383.735 225.097 382.175C226.137 380.94 228.087 379.64 231.532 379.64C236.277 379.64 238.812 382.24 238.812 385.425C238.812 386.725 238.227 387.57 237.122 388.025C236.147 388.415 234.392 388.675 232.117 389.13C230.362 389.52 227.307 390.17 225.227 390.755C219.312 392.38 217.622 396.345 217.752 400.44C217.817 405.12 221.522 409.54 228.217 409.54C232.572 409.54 235.822 407.85 237.902 405.315C238.877 404.08 239.527 402.455 239.852 400.83C239.917 400.7 240.112 399.725 240.112 399.725H240.177L240.112 400.18C239.917 401.155 239.852 402.13 239.787 403.105C239.787 403.495 239.787 404.99 239.787 406.16C239.787 407.525 240.762 408.565 242.257 408.565H246.612V404.34ZM275.145 395.695C274.17 401.22 270.725 404.99 265.33 404.99C258.895 404.99 255.19 399.66 255.19 392.51C255.19 385.36 258.895 380.03 265.33 380.03C270.725 380.03 274.17 383.8 275.145 389.325L280.085 388.805C278.785 380.745 273.13 375.48 265.33 375.48C256.36 375.48 250.25 382.565 250.25 392.51C250.25 402.455 256.36 409.54 265.33 409.54C273.13 409.54 278.785 404.275 280.085 396.28L275.145 395.695ZM299.036 380.03C304.821 380.03 308.266 384.385 308.851 390.3H289.156C289.741 384.385 293.251 380.03 299.036 380.03ZM313.986 394.005C314.051 393.55 314.116 393.03 314.116 392.51C314.116 382.565 308.006 375.48 299.036 375.48C290.066 375.48 283.956 382.565 283.956 392.51C283.956 402.455 290.066 409.54 299.036 409.54C306.251 409.54 311.516 404.925 313.401 398.035L308.331 397.125C307.226 401.74 303.976 404.99 299.036 404.99C292.991 404.99 289.481 400.245 289.156 394.005H313.986ZM339.427 395.305C339.427 400.7 335.917 405.12 329.482 405.12C325.842 405.12 323.502 403.105 323.177 400.31C322.852 397.385 324.542 394.525 328.702 393.745C330.977 393.355 334.877 392.575 336.372 392.25C338.842 391.795 339.427 391.015 339.427 391.015V395.305ZM347.032 404.34H344.757C344.562 404.34 344.432 404.21 344.432 404.015V387.635C344.497 380.03 340.207 375.48 332.017 375.48C327.727 375.48 324.087 376.91 321.812 379.51C319.667 381.915 319.017 384.97 319.667 387.96L324.542 387.245C324.217 385.685 324.282 383.735 325.517 382.175C326.557 380.94 328.507 379.64 331.952 379.64C336.697 379.64 339.232 382.24 339.232 385.425C339.232 386.725 338.647 387.57 337.542 388.025C336.567 388.415 334.812 388.675 332.537 389.13C330.782 389.52 327.727 390.17 325.647 390.755C319.732 392.38 318.042 396.345 318.172 400.44C318.237 405.12 321.942 409.54 328.637 409.54C332.992 409.54 336.242 407.85 338.322 405.315C339.297 404.08 339.947 402.455 340.272 400.83C340.337 400.7 340.532 399.725 340.532 399.725H340.597L340.532 400.18C340.337 401.155 340.272 402.13 340.207 403.105C340.207 403.495 340.207 404.99 340.207 406.16C340.207 407.525 341.182 408.565 342.677 408.565H347.032V404.34ZM357.17 392.51C357.17 385.295 360.485 379.965 366.855 379.965C373.29 379.965 376.93 385.295 376.93 392.51C376.93 399.66 373.225 404.99 366.855 404.99C360.42 404.99 357.17 399.66 357.17 392.51ZM357.105 402C357.95 404.795 360.42 409.475 367.765 409.475C376.28 409.475 381.935 402.39 381.935 392.51C381.935 382.565 376.28 375.48 367.765 375.48C360.42 375.48 357.95 380.095 357.105 382.89L356.39 385.23H356.26L356.52 384.385C356.78 383.475 356.91 382.5 356.91 381.525V365.015H351.97V408.565H356.91V403.43C356.91 402.455 356.78 401.48 356.52 400.57L356.26 399.725H356.39L357.105 402ZM387.262 405.51C387.262 407.2 388.627 408.565 390.317 408.565H398.442V404.015H392.592C392.397 404.015 392.202 403.885 392.202 403.625V365.08H387.262C387.197 365.275 387.197 404.47 387.262 405.51ZM414.945 380.03C420.73 380.03 424.175 384.385 424.76 390.3H405.065C405.65 384.385 409.16 380.03 414.945 380.03ZM429.895 394.005C429.96 393.55 430.025 393.03 430.025 392.51C430.025 382.565 423.915 375.48 414.945 375.48C405.975 375.48 399.865 382.565 399.865 392.51C399.865 402.455 405.975 409.54 414.945 409.54C422.16 409.54 427.425 404.925 429.31 398.035L424.24 397.125C423.135 401.74 419.885 404.99 414.945 404.99C408.9 404.99 405.39 400.245 405.065 394.005H429.895Z" fill="#FFF6E9"/>
<path d="M69.075 147V9.85499H34.635V147H69.075ZM127.438 73.815H143.838V45.935H124.363C124.363 45.935 123.953 40.605 123.953 39.375C123.953 37.12 125.593 35.275 127.643 35.275H136.048V9.85499H111.038C101.608 9.85499 95.4575 16.415 95.4575 26.05C95.4575 31.79 96.8925 36.505 98.5325 39.99C99.3525 41.835 100.583 43.27 102.223 44.5C103.658 45.73 105.503 46.55 107.143 47.165V47.37C106.118 47.165 104.683 46.96 103.658 46.55C100.993 46.14 98.3275 45.935 95.4575 45.935H82.1325V73.815H95.8675V147H127.438V73.815ZM212.384 147.205H243.954C243.954 140.645 243.954 46.14 243.954 45.935H212.384V147.205ZM228.169 39.17C237.394 39.17 244.774 31.585 244.774 22.565C244.774 13.34 237.394 5.96 228.169 5.96C219.149 5.96 211.769 13.34 211.769 22.565C211.769 31.585 219.149 39.17 228.169 39.17ZM304.067 119.12C302.837 119.12 301.812 118.095 301.812 116.865V71.355H317.597V45.935H301.812V9.85499H274.137C274.137 9.85499 274.137 33.02 274.137 36.095C274.137 42.245 269.217 47.165 263.067 47.165H255.892V71.355H270.242C270.242 77.71 270.242 129.78 270.242 130.395C270.242 139.62 277.622 147 287.052 147H323.337V119.12H304.067ZM351.885 1.24499C343.48 1.65499 336.715 8.41999 336.305 16.62C336.1 19.9 336.92 22.975 338.355 25.64C339.38 27.28 338.97 29.33 337.74 30.355L330.975 37.94L344.3 50.65L364.8 29.125C367.67 26.05 369.31 21.745 369.31 17.235C368.9 7.805 361.11 0.629991 351.885 1.24499ZM448.187 118.71C448.187 96.365 429.122 90.42 413.337 86.115C405.342 83.86 394.067 82.22 394.067 75.455C394.067 71.15 397.142 68.075 404.727 68.075C412.517 68.075 415.797 71.56 415.797 76.275L444.702 76.48C444.702 55.775 429.737 42.86 403.292 42.86C375.412 42.86 362.497 56.595 362.497 71.765C362.497 93.905 379.717 100.26 395.502 104.565C406.777 107.64 416.412 110.1 416.412 116.455C416.412 121.99 411.492 124.655 404.522 124.655C394.887 124.655 391.607 118.095 391.607 113.38H360.242C360.242 134.495 375.412 150.075 405.957 150.075C433.837 150.075 448.187 136.955 448.187 118.71ZM552.298 96.57C552.298 80.58 559.268 70.74 570.953 70.74C582.433 70.74 589.813 80.58 589.813 96.57C589.813 112.355 582.433 122.195 570.953 122.195C559.268 122.195 552.298 112.355 552.298 96.57ZM550.453 130.805C552.093 137.775 557.013 150.075 578.128 150.075C605.393 150.075 621.383 126.91 621.383 96.57C621.383 66.025 605.393 42.86 578.128 42.86C557.013 42.86 552.093 55.16 550.453 62.13L549.223 67.46H548.813L549.428 65.41C550.043 61.72 550.453 58.03 550.453 54.135V9.85499H519.088V147H550.453V138.8C550.453 135.11 550.043 131.215 549.428 127.525L548.813 125.475H549.223L550.453 130.805ZM666.967 102.925C666.967 85.91 670.452 72.995 676.602 72.995C681.112 72.995 681.727 79.145 681.727 84.065V94.93L713.297 94.725V71.15C713.297 56.39 707.967 42.86 691.362 42.86C685.827 42.86 680.292 45.115 676.602 48.6C671.887 53.11 669.632 58.645 668.402 62.335C667.992 63.975 667.377 66.845 667.172 68.69L666.352 73.815H665.942L666.352 71.15C666.762 68.075 666.967 64.795 666.967 61.72V45.935H635.602V147.205H666.967V102.925ZM753.355 96.57C753.355 80.785 760.735 70.945 772.42 70.945C783.9 70.945 791.28 80.785 791.28 96.57C791.28 112.355 783.9 122.195 772.42 122.195C760.735 122.195 753.355 112.355 753.355 96.57ZM822.85 96.57C822.85 63.155 801.325 42.86 772.42 42.86C743.31 42.86 721.99 63.155 721.99 96.57C721.99 130.19 743.31 150.28 772.42 150.28C801.325 150.28 822.85 130.19 822.85 96.57ZM913.063 76.48L932.538 45.935H895.228C895.228 45.935 874.933 77.505 871.858 82.425C870.013 85.295 868.578 89.395 868.578 93.495L868.373 99.03H867.963V10.06H836.598V147.205H867.963L887.028 117.275L901.788 147.205H936.638L911.833 96.365C908.758 90.01 909.373 82.425 913.063 76.48ZM983.226 70.945C991.836 70.945 997.781 76.685 1000.04 85.295H966.211C968.466 76.685 974.411 70.945 983.226 70.945ZM1032.84 106.82C1033.25 103.54 1033.66 100.26 1033.66 96.57C1033.66 63.155 1012.13 42.86 983.226 42.86C954.116 42.86 932.796 63.155 932.796 96.57C932.796 130.19 954.116 150.28 983.226 150.28C1005.16 150.28 1022.79 138.595 1029.97 118.3L997.986 112.56C995.116 118.505 989.991 122.195 983.226 122.195C974.206 122.195 968.056 116.045 966.006 106.82H1032.84ZM1141.3 87.755C1141.3 60.9 1129.2 42.86 1106.04 42.86C1093.33 42.86 1086.36 47.575 1082.46 52.7C1080.21 55.775 1078.98 59.26 1078.36 62.13L1077.34 66.845H1076.93L1077.54 64.795C1078.16 61.105 1078.57 57.21 1078.57 53.52V45.935H1047.2V147.205H1078.57V94.93C1078.57 79.965 1083.49 70.945 1094.35 70.945C1105.22 70.945 1109.73 79.76 1109.73 95.545C1109.73 98.825 1109.73 147.205 1109.73 147.205H1141.3V87.755ZM1186.31 131.83C1185.9 122.605 1178.11 115.225 1168.88 115.84C1160.48 116.25 1153.71 123.015 1153.3 131.42C1153.1 134.495 1153.92 137.57 1155.35 140.235C1156.38 141.875 1155.97 143.925 1154.74 145.155L1147.97 152.535L1161.3 165.245L1181.8 143.72C1184.67 140.645 1186.31 136.34 1186.31 131.83ZM121.35 186.17C130.575 186.17 137.955 178.585 137.955 169.565C137.955 160.34 130.575 152.96 121.35 152.96C112.33 152.96 104.95 160.34 104.95 169.565C104.95 178.585 112.33 186.17 121.35 186.17ZM70.305 192.935C70.305 192.935 69.895 187.605 69.895 186.375C69.895 184.12 71.535 182.275 73.585 182.275H81.99V156.855H56.98C47.55 156.855 41.4 163.415 41.4 173.05C41.4 178.79 42.835 183.505 44.475 186.99C45.295 188.835 46.525 190.475 48.165 191.5C49.6 192.73 51.445 193.55 53.085 194.165V194.37C52.06 194.165 50.625 193.755 49.6 193.55C46.935 193.14 44.27 192.935 41.4 192.935H28.075V218.355H41.81V294H73.38V218.355H105.565V294.205H137.135C137.135 287.645 137.135 192.935 137.135 192.935H70.305ZM250.668 192.935H216.228L201.058 221.43C200.033 223.48 199.623 225.94 199.623 228.4V232.91H199.008V228.4C199.008 225.94 198.598 223.48 197.573 221.43L182.403 192.935H147.963L169.078 234.96C171.538 240.29 171.538 246.645 169.078 251.975L147.963 294H182.403L197.573 265.71C198.598 263.455 199.008 260.995 199.008 258.535V254.025H199.623V258.535C199.623 260.995 200.033 263.455 201.058 265.71L216.228 294H250.668L229.553 251.975C227.093 246.645 227.093 240.29 229.553 234.96L250.668 192.935ZM318.288 294.205H349.858C349.858 287.645 349.858 193.14 349.858 192.935H318.288V294.205ZM334.073 186.17C343.298 186.17 350.678 178.585 350.678 169.565C350.678 160.34 343.298 152.96 334.073 152.96C325.053 152.96 317.673 160.34 317.673 169.565C317.673 178.585 325.053 186.17 334.073 186.17ZM409.971 266.12C408.741 266.12 407.716 265.095 407.716 263.865V218.355H423.501V192.935H407.716V156.855H380.041C380.041 156.855 380.041 180.02 380.041 183.095C380.041 189.245 375.121 194.165 368.971 194.165H361.796V218.355H376.146C376.146 224.71 376.146 276.78 376.146 277.395C376.146 286.62 383.526 294 392.956 294H429.241V266.12H409.971Z" fill="#FFF6E9"/>
</svg>
