<svg width="325" height="118" viewBox="0 0 325 118" fill="none" xmlns="http://www.w3.org/2000/svg">
<path d="M316.5 59C316.5 63.7315 313.885 69.3423 306.694 75.5158C299.53 81.6648 288.667 87.5873 274.504 92.7296C246.248 102.989 206.65 109.5 162.5 109.5C118.35 109.5 78.752 102.989 50.496 92.7296C36.3329 87.5873 25.4697 81.6648 18.3065 75.5158C11.1147 69.3423 8.5 63.7315 8.5 59C8.5 54.2685 11.1147 48.6577 18.3065 42.4842C25.4697 36.3352 36.3329 30.4127 50.496 25.2704C78.752 15.0113 118.35 8.5 162.5 8.5C206.65 8.5 246.248 15.0113 274.504 25.2704C288.667 30.4127 299.53 36.3352 306.694 42.4842C313.885 48.6577 316.5 54.2685 316.5 59Z" stroke="black" stroke-width="17"/>
<path d="M316.5 59C316.5 63.7315 313.885 69.3423 306.694 75.5158C299.53 81.6648 288.667 87.5873 274.504 92.7296C246.248 102.989 206.65 109.5 162.5 109.5C118.35 109.5 78.752 102.989 50.496 92.7296C36.3329 87.5873 25.4697 81.6648 18.3065 75.5158C11.1147 69.3423 8.5 63.7315 8.5 59C8.5 54.2685 11.1147 48.6577 18.3065 42.4842C25.4697 36.3352 36.3329 30.4127 50.496 25.2704C78.752 15.0113 118.35 8.5 162.5 8.5C206.65 8.5 246.248 15.0113 274.504 25.2704C288.667 30.4127 299.53 36.3352 306.694 42.4842C313.885 48.6577 316.5 54.2685 316.5 59Z" stroke="#F98D2B" stroke-width="17"/>
</svg>
