<svg width="1185" height="483" viewBox="0 0 1185 483" fill="none" xmlns="http://www.w3.org/2000/svg">
<line x1="388" y1="467.607" x2="765" y2="467.607" stroke="#F98D2B" stroke-width="30"/>
<path d="M1170 225.211C1170 235.515 1162.18 248.96 1138.94 263.996C1116.35 278.605 1082.67 292.329 1039.72 304.08C954.028 327.524 834.796 342.211 702.5 342.211C570.204 342.211 450.972 327.524 365.279 304.08C322.325 292.329 288.65 278.605 266.064 263.996C242.817 248.96 235 235.515 235 225.211C235 214.907 242.817 201.462 266.064 186.425C288.65 171.817 322.325 158.092 365.279 146.341C450.972 122.897 570.204 108.211 702.5 108.211C834.796 108.211 954.028 122.897 1039.72 146.341C1082.67 158.092 1116.35 171.817 1138.94 186.425C1162.18 201.462 1170 214.907 1170 225.211Z" stroke="black" stroke-width="30"/>
<path d="M1170 225.211C1170 235.515 1162.18 248.96 1138.94 263.996C1116.35 278.605 1082.67 292.329 1039.72 304.08C954.028 327.524 834.796 342.211 702.5 342.211C570.204 342.211 450.972 327.524 365.279 304.08C322.325 292.329 288.65 278.605 266.064 263.996C242.817 248.96 235 235.515 235 225.211C235 214.907 242.817 201.462 266.064 186.425C288.65 171.817 322.325 158.092 365.279 146.341C450.972 122.897 570.204 108.211 702.5 108.211C834.796 108.211 954.028 122.897 1039.72 146.341C1082.67 158.092 1116.35 171.817 1138.94 186.425C1162.18 201.462 1170 214.907 1170 225.211Z" stroke="#C096D6" stroke-width="30"/>
<path d="M844.894 0.854994V53.335H795.284V0.854994H760.844V138H795.284V83.06H844.894V138H879.334V0.854994H844.894ZM925.224 87.57C925.224 71.785 932.604 61.945 944.289 61.945C955.769 61.945 963.149 71.785 963.149 87.57C963.149 103.355 955.769 113.195 944.289 113.195C932.604 113.195 925.224 103.355 925.224 87.57ZM994.719 87.57C994.719 54.155 973.194 33.86 944.289 33.86C915.179 33.86 893.859 54.155 893.859 87.57C893.859 121.19 915.179 141.28 944.289 141.28C973.194 141.28 994.719 121.19 994.719 87.57ZM1118.11 36.935L1104.17 87.57C1103.15 90.85 1102.74 94.335 1102.74 97.82V101.715H1102.12V97.82C1102.12 94.335 1101.71 90.85 1100.69 87.57L1085.31 36.935H1058.66L1043.08 87.57C1042.26 90.85 1041.65 94.335 1041.65 97.82V101.715H1041.24V97.82C1041.24 94.335 1040.83 90.85 1039.8 87.57L1025.86 36.935H993.474L1023.2 138.205H1057.43L1070.14 97.615C1071.17 94.13 1071.78 90.44 1071.78 86.75V83.265H1072.19V86.75C1072.19 90.44 1072.81 94.13 1073.83 97.615L1086.54 138.205H1120.57L1150.5 36.935H1118.11ZM326.098 212.84H297.398V180.45C297.398 178.81 296.783 177.375 295.553 176.145L292.068 172.865L292.478 172.455L295.963 175.94C296.988 176.965 298.628 177.58 300.268 177.58H326.098C335.118 177.58 343.318 184.14 343.318 195.415C343.318 206.69 335.323 212.84 326.098 212.84ZM331.018 147.855H262.958V285H297.398V242.77H331.018C358.078 242.77 377.758 221.86 377.758 195.21C377.758 168.56 358.078 147.855 331.018 147.855ZM389.052 268.395C389.052 277.62 396.432 285.205 405.657 285.205H434.767V257.12H422.877C421.442 257.12 420.417 256.095 420.417 254.865V148.06H389.052C389.052 148.06 389.052 267.575 389.052 268.395ZM502.264 245.845C502.264 253.635 495.499 261.425 484.634 261.425C478.484 261.425 475.204 258.555 474.794 254.66C474.589 250.355 477.459 246.87 484.019 245.64C489.144 244.82 494.474 243.59 497.139 242.77C501.239 241.95 502.469 240.925 502.469 240.925L502.264 245.845ZM540.394 259.785H535.679C534.654 259.785 533.629 258.76 533.629 257.735V222.68C534.039 196.645 519.484 180.86 491.399 180.86C477.049 180.86 465.364 184.96 457.369 192.545C448.759 200.54 446.094 210.79 447.324 220.63L478.279 217.145C477.869 214.685 478.279 211.815 479.919 209.765C481.969 207.305 486.069 205.665 490.784 205.87C497.959 205.87 502.059 209.56 502.059 214.07C502.059 216.735 500.624 218.17 498.574 219.195C496.319 220.22 488.939 221.45 481.354 223.295C474.589 224.935 465.364 227.19 460.239 229.855C447.734 235.8 443.019 245.845 443.224 258.555C443.224 274.75 456.549 288.28 477.459 288.28C492.014 288.075 500.829 281.72 505.339 273.52C506.569 271.265 507.799 267.165 508.619 263.885C508.824 262.45 509.029 260.81 509.029 260.81L509.439 261.015L509.234 262.45C508.824 264.295 508.619 266.14 508.414 267.985C508.414 269.42 508.209 271.88 508.209 273.93C508.209 280.285 512.514 285 520.099 285.205H540.394V259.785ZM618.803 239.49C617.573 252.61 610.603 260.195 600.353 260.195C588.668 260.195 581.288 250.355 581.288 234.57C581.288 218.785 588.668 208.945 600.353 208.945C610.603 208.945 617.573 216.735 618.803 229.65L650.168 226.78C647.298 197.875 627.003 180.86 600.353 180.86C571.243 180.86 549.923 201.155 549.923 234.57C549.923 268.19 571.243 288.28 600.353 288.28C627.003 288.28 647.298 271.47 650.168 242.565L618.803 239.49ZM710.06 208.945C718.67 208.945 724.615 214.685 726.87 223.295H693.045C695.3 214.685 701.245 208.945 710.06 208.945ZM759.67 244.82C760.08 241.54 760.49 238.26 760.49 234.57C760.49 201.155 738.965 180.86 710.06 180.86C680.95 180.86 659.63 201.155 659.63 234.57C659.63 268.19 680.95 288.28 710.06 288.28C731.995 288.28 749.625 276.595 756.8 256.3L724.82 250.56C721.95 256.505 716.825 260.195 710.06 260.195C701.04 260.195 694.89 254.045 692.84 244.82H759.67ZM829.183 245.845C829.183 253.635 822.418 261.425 811.553 261.425C805.403 261.425 802.123 258.555 801.713 254.66C801.508 250.355 804.378 246.87 810.938 245.64C816.063 244.82 821.393 243.59 824.058 242.77C828.158 241.95 829.388 240.925 829.388 240.925L829.183 245.845ZM867.313 259.785H862.598C861.573 259.785 860.548 258.76 860.548 257.735V222.68C860.958 196.645 846.403 180.86 818.318 180.86C803.968 180.86 792.283 184.96 784.288 192.545C775.678 200.54 773.013 210.79 774.243 220.63L805.198 217.145C804.788 214.685 805.198 211.815 806.838 209.765C808.888 207.305 812.988 205.665 817.703 205.87C824.878 205.87 828.978 209.56 828.978 214.07C828.978 216.735 827.543 218.17 825.493 219.195C823.238 220.22 815.858 221.45 808.273 223.295C801.508 224.935 792.283 227.19 787.158 229.855C774.653 235.8 769.938 245.845 770.143 258.555C770.143 274.75 783.468 288.28 804.378 288.28C818.933 288.075 827.748 281.72 832.258 273.52C833.488 271.265 834.718 267.165 835.538 263.885C835.743 262.45 835.948 260.81 835.948 260.81L836.358 261.015L836.153 262.45C835.743 264.295 835.538 266.14 835.333 267.985C835.333 269.42 835.128 271.88 835.128 273.93C835.128 280.285 839.433 285 847.018 285.205H867.313V259.785ZM914.152 234.57C914.152 218.58 921.122 208.74 932.807 208.74C944.287 208.74 951.667 218.58 951.667 234.57C951.667 250.355 944.287 260.195 932.807 260.195C921.122 260.195 914.152 250.355 914.152 234.57ZM912.307 268.805C913.947 275.775 918.867 288.075 939.982 288.075C967.247 288.075 983.237 264.91 983.237 234.57C983.237 204.025 967.247 180.86 939.982 180.86C918.867 180.86 913.947 193.16 912.307 200.13L911.077 205.46H910.667L911.282 203.41C911.897 199.72 912.307 196.03 912.307 192.135V147.855H880.942V285H912.307V276.8C912.307 273.11 911.897 269.215 911.282 265.525L910.667 263.475H911.077L912.307 268.805ZM997.046 268.395C997.046 277.62 1004.43 285.205 1013.65 285.205H1042.76V257.12H1030.87C1029.44 257.12 1028.41 256.095 1028.41 254.865V148.06H997.046C997.046 148.06 997.046 267.575 997.046 268.395ZM1096.84 208.945C1105.45 208.945 1111.39 214.685 1113.65 223.295H1079.82C1082.08 214.685 1088.02 208.945 1096.84 208.945ZM1146.45 244.82C1146.86 241.54 1147.27 238.26 1147.27 234.57C1147.27 201.155 1125.74 180.86 1096.84 180.86C1067.73 180.86 1046.41 201.155 1046.41 234.57C1046.41 268.19 1067.73 288.28 1096.84 288.28C1118.77 288.28 1136.4 276.595 1143.58 256.3L1111.6 250.56C1108.73 256.505 1103.6 260.195 1096.84 260.195C1087.82 260.195 1081.67 254.045 1079.62 244.82H1146.45ZM69.6673 385.49C68.4373 398.61 61.4673 406.195 51.2173 406.195C39.5323 406.195 32.1523 396.355 32.1523 380.57C32.1523 364.785 39.5323 354.945 51.2173 354.945C61.4673 354.945 68.4373 362.735 69.6673 375.65L101.032 372.78C98.1623 343.875 77.8673 326.86 51.2173 326.86C22.1073 326.86 0.787266 347.155 0.787266 380.57C0.787266 414.19 22.1073 434.28 51.2173 434.28C77.8673 434.28 98.1623 417.47 101.032 388.565L69.6673 385.49ZM169.739 391.845C169.739 399.635 162.974 407.425 152.109 407.425C145.959 407.425 142.679 404.555 142.269 400.66C142.064 396.355 144.934 392.87 151.494 391.64C156.619 390.82 161.949 389.59 164.614 388.77C168.714 387.95 169.944 386.925 169.944 386.925L169.739 391.845ZM207.869 405.785H203.154C202.129 405.785 201.104 404.76 201.104 403.735V368.68C201.514 342.645 186.959 326.86 158.874 326.86C144.524 326.86 132.839 330.96 124.844 338.545C116.234 346.54 113.569 356.79 114.799 366.63L145.754 363.145C145.344 360.685 145.754 357.815 147.394 355.765C149.444 353.305 153.544 351.665 158.259 351.87C165.434 351.87 169.534 355.56 169.534 360.07C169.534 362.735 168.099 364.17 166.049 365.195C163.794 366.22 156.414 367.45 148.829 369.295C142.064 370.935 132.839 373.19 127.714 375.855C115.209 381.8 110.494 391.845 110.699 404.555C110.699 420.75 124.024 434.28 144.934 434.28C159.489 434.075 168.304 427.72 172.814 419.52C174.044 417.265 175.274 413.165 176.094 409.885C176.299 408.45 176.504 406.81 176.504 406.81L176.914 407.015L176.709 408.45C176.299 410.295 176.094 412.14 175.889 413.985C175.889 415.42 175.684 417.88 175.684 419.93C175.684 426.285 179.989 431 187.574 431.205H207.869V405.785ZM315.594 371.755C315.594 344.9 303.499 326.86 280.334 326.86C267.624 326.86 260.654 331.575 256.759 336.7C254.504 339.775 253.274 343.26 252.659 346.13L251.634 350.845H251.224L251.839 348.795C252.454 345.105 252.864 341.21 252.864 337.52V329.935H221.499V431.205H252.864V378.93C252.864 363.965 257.784 354.945 268.649 354.945C279.514 354.945 284.024 363.76 284.024 379.545C284.024 382.825 284.024 431.205 284.024 431.205H315.594V371.755ZM483.357 431.205V371.755C483.357 344.9 471.672 326.86 448.097 326.86C439.077 326.86 432.927 329.525 428.622 332.6C423.292 336.7 421.447 342.03 420.422 346.13L419.397 350.845H418.987L419.602 348.795C420.217 345.105 420.627 341.21 420.627 337.52V294.06H389.262V431.205H420.627V378.93C420.627 363.965 425.547 354.945 436.412 354.945C447.687 354.945 451.787 363.76 451.787 379.545C451.787 382.825 451.787 431.205 451.787 431.205H483.357ZM546.3 354.945C554.91 354.945 560.855 360.685 563.11 369.295H529.285C531.54 360.685 537.485 354.945 546.3 354.945ZM595.91 390.82C596.32 387.54 596.73 384.26 596.73 380.57C596.73 347.155 575.205 326.86 546.3 326.86C517.19 326.86 495.87 347.155 495.87 380.57C495.87 414.19 517.19 434.28 546.3 434.28C568.235 434.28 585.865 422.595 593.04 402.3L561.06 396.56C558.19 402.505 553.065 406.195 546.3 406.195C537.28 406.195 531.13 400.045 529.08 390.82H595.91ZM609.868 414.395C609.868 423.62 617.248 431.205 626.473 431.205H655.583V403.12H643.693C642.258 403.12 641.233 402.095 641.233 400.865V294.06H609.868C609.868 294.06 609.868 413.575 609.868 414.395ZM738.659 380.57C738.659 396.355 731.279 406.195 719.799 406.195C708.114 406.195 701.144 396.355 701.144 380.57C701.144 364.785 708.114 354.945 719.799 354.945C731.279 354.945 738.659 364.785 738.659 380.57ZM699.299 467.285V423.005C699.299 419.11 698.889 415.42 698.274 411.73L697.659 409.68L698.069 409.475L699.299 414.805C700.939 421.98 705.859 434.28 726.974 434.28C754.239 434.28 770.229 410.91 770.229 380.57C770.229 350.23 754.239 326.86 726.974 326.86C705.859 326.86 700.939 339.365 699.299 346.335L698.069 351.665L697.659 351.46L698.274 349.41C698.889 345.72 699.299 342.03 699.299 338.34V329.935H667.934V467.285H699.299ZM906.693 329.935L888.448 378.315C887.423 380.98 887.013 383.645 887.013 386.515V390.615H886.603V386.515C886.603 383.645 885.988 380.98 884.963 378.315L866.923 329.935H833.098L866.513 414.19C868.563 419.93 868.563 426.08 866.513 431.615L852.368 466.875H886.193L940.518 329.935H906.693ZM966.864 380.57C966.864 364.785 974.244 354.945 985.929 354.945C997.409 354.945 1004.79 364.785 1004.79 380.57C1004.79 396.355 997.409 406.195 985.929 406.195C974.244 406.195 966.864 396.355 966.864 380.57ZM1036.36 380.57C1036.36 347.155 1014.83 326.86 985.929 326.86C956.819 326.86 935.499 347.155 935.499 380.57C935.499 414.19 956.819 434.28 985.929 434.28C1014.83 434.28 1036.36 414.19 1036.36 380.57ZM1048.88 329.935V389.385C1048.88 416.24 1060.36 434.075 1083.93 434.075C1104.23 434.075 1109.56 422.39 1111.4 415.625L1112.63 410.295H1113.04L1112.43 412.345C1111.81 416.035 1111.4 419.725 1111.4 423.62V431H1142.97V329.935H1111.4V382.005C1111.4 397.175 1106.48 406.195 1095.62 406.195C1084.34 406.195 1080.24 397.38 1080.24 381.595C1080.24 378.315 1080.24 329.935 1080.24 329.935H1048.88Z" fill="#FAF6F0"/>
</svg>
