<svg width="630" height="209" viewBox="0 0 630 209" fill="none" xmlns="http://www.w3.org/2000/svg">
<path d="M199.258 9.315L200.298 10.355C200.688 10.745 201.208 10.94 201.728 10.94H209.528C211.673 10.94 213.428 12.37 213.428 14.58C213.428 16.595 211.738 18.155 209.723 18.155H200.818V11.85C200.818 11.33 200.623 10.875 200.233 10.485L199.128 9.445L199.258 9.315ZM211.153 35.575H201.663C201.208 35.575 200.688 35.835 200.298 36.16L199.258 37.2L199.128 37.135L200.233 36.03C200.623 35.705 200.818 35.185 200.818 34.665V26.995H211.153C213.493 26.995 215.378 28.685 215.378 31.285C215.378 34.015 213.363 35.575 211.153 35.575ZM221.033 22.445C220.383 22.055 219.668 21.86 218.888 21.86H217.913V21.73H218.563C219.538 21.73 220.448 21.34 221.163 20.69C223.113 18.74 224.348 16.01 224.348 12.825C224.348 6.325 219.083 1.515 212.258 1.515H189.898V45H214.143C221.163 45 226.298 39.67 226.298 32.65C226.298 28.165 224.153 24.525 221.033 22.445ZM230.254 12.955V31.805C230.254 40.32 233.894 45.975 241.369 45.975C247.804 45.975 249.494 42.27 250.079 40.125L250.469 38.435H250.599L250.404 39.085C250.209 40.255 250.079 41.425 250.079 42.66V45H260.089V12.955H250.079V29.465C250.079 34.275 248.519 37.135 245.074 37.135C241.499 37.135 240.199 34.34 240.199 29.335C240.199 28.295 240.199 12.955 240.199 12.955H230.254ZM279.137 36.16C278.747 36.16 278.422 35.835 278.422 35.445V21.015H283.427V12.955H278.422V1.515H269.647C269.647 1.515 269.647 8.86 269.647 9.835C269.647 11.785 268.087 13.345 266.137 13.345H263.862V21.015H268.412C268.412 23.03 268.412 39.54 268.412 39.735C268.412 42.66 270.752 45 273.742 45H285.247V36.16H279.137ZM317.459 31.025C317.459 25.63 318.564 21.535 320.514 21.535C321.944 21.535 322.139 23.485 322.139 25.045V28.49L332.149 28.425V20.95C332.149 16.27 330.459 11.98 325.194 11.98C323.439 11.98 321.684 12.695 320.514 13.8C319.019 15.23 318.304 16.985 317.914 18.155C317.784 18.675 317.589 19.585 317.524 20.17L317.264 21.795H317.134L317.264 20.95C317.394 19.975 317.459 18.935 317.459 17.96V12.955H307.514V45.065H317.459V31.025ZM350.896 20.885C353.626 20.885 355.511 22.705 356.226 25.435H345.501C346.216 22.705 348.101 20.885 350.896 20.885ZM366.626 32.26C366.756 31.22 366.886 30.18 366.886 29.01C366.886 18.415 360.061 11.98 350.896 11.98C341.666 11.98 334.906 18.415 334.906 29.01C334.906 39.67 341.666 46.04 350.896 46.04C357.851 46.04 363.441 42.335 365.716 35.9L355.576 34.08C354.666 35.965 353.041 37.135 350.896 37.135C348.036 37.135 346.086 35.185 345.436 32.26H366.626ZM391.721 30.57C391.331 34.73 389.121 37.135 385.871 37.135C382.166 37.135 379.826 34.015 379.826 29.01C379.826 24.005 382.166 20.885 385.871 20.885C389.121 20.885 391.331 23.355 391.721 27.45L401.666 26.54C400.756 17.375 394.321 11.98 385.871 11.98C376.641 11.98 369.881 18.415 369.881 29.01C369.881 39.67 376.641 46.04 385.871 46.04C394.321 46.04 400.756 40.71 401.666 31.545L391.721 30.57ZM415.911 31.025C415.911 25.63 417.016 21.535 418.966 21.535C420.396 21.535 420.591 23.485 420.591 25.045V28.49L430.601 28.425V20.95C430.601 16.27 428.911 11.98 423.646 11.98C421.891 11.98 420.136 12.695 418.966 13.8C417.471 15.23 416.756 16.985 416.366 18.155C416.236 18.675 416.041 19.585 415.976 20.17L415.716 21.795H415.586L415.716 20.95C415.846 19.975 415.911 18.935 415.911 17.96V12.955H405.966V45.065H415.911V31.025ZM434.268 12.955V31.805C434.268 40.32 437.908 45.975 445.383 45.975C451.818 45.975 453.508 42.27 454.093 40.125L454.483 38.435H454.613L454.418 39.085C454.223 40.255 454.093 41.425 454.093 42.66V45H464.103V12.955H454.093V29.465C454.093 34.275 452.533 37.135 449.088 37.135C445.513 37.135 444.213 34.34 444.213 29.335C444.213 28.295 444.213 12.955 444.213 12.955H434.268ZM469.695 45.065H479.705C479.705 42.985 479.705 13.02 479.705 12.955H469.695V45.065ZM474.7 10.81C477.625 10.81 479.965 8.405 479.965 5.545C479.965 2.62 477.625 0.279998 474.7 0.279998C471.84 0.279998 469.5 2.62 469.5 5.545C469.5 8.405 471.84 10.81 474.7 10.81ZM498.766 36.16C498.376 36.16 498.051 35.835 498.051 35.445V21.015H503.056V12.955H498.051V1.515H489.276C489.276 1.515 489.276 8.86 489.276 9.835C489.276 11.785 487.716 13.345 485.766 13.345H483.491V21.015H488.041C488.041 23.03 488.041 39.54 488.041 39.735C488.041 42.66 490.381 45 493.371 45H504.876V36.16H498.766ZM522.282 20.885C525.012 20.885 526.897 22.705 527.612 25.435H516.887C517.602 22.705 519.487 20.885 522.282 20.885ZM538.012 32.26C538.142 31.22 538.272 30.18 538.272 29.01C538.272 18.415 531.447 11.98 522.282 11.98C513.052 11.98 506.292 18.415 506.292 29.01C506.292 39.67 513.052 46.04 522.282 46.04C529.237 46.04 534.827 42.335 537.102 35.9L526.962 34.08C526.052 35.965 524.427 37.135 522.282 37.135C519.422 37.135 517.472 35.185 516.822 32.26H538.012ZM552.513 31.025C552.513 25.63 553.618 21.535 555.568 21.535C556.998 21.535 557.193 23.485 557.193 25.045V28.49L567.203 28.425V20.95C567.203 16.27 565.513 11.98 560.248 11.98C558.493 11.98 556.738 12.695 555.568 13.8C554.073 15.23 553.358 16.985 552.968 18.155C552.838 18.675 552.643 19.585 552.578 20.17L552.318 21.795H552.188L552.318 20.95C552.448 19.975 552.513 18.935 552.513 17.96V12.955H542.568V45.065H552.513V31.025ZM597.909 36.03C597.909 28.945 591.864 27.06 586.859 25.695C584.324 24.98 580.749 24.46 580.749 22.315C580.749 20.95 581.724 19.975 584.129 19.975C586.599 19.975 587.639 21.08 587.639 22.575L596.804 22.64C596.804 16.075 592.059 11.98 583.674 11.98C574.834 11.98 570.739 16.335 570.739 21.145C570.739 28.165 576.199 30.18 581.204 31.545C584.779 32.52 587.834 33.3 587.834 35.315C587.834 37.07 586.274 37.915 584.064 37.915C581.009 37.915 579.969 35.835 579.969 34.34H570.024C570.024 41.035 574.834 45.975 584.519 45.975C593.359 45.975 597.909 41.815 597.909 36.03ZM612.227 35.185C609.302 35.185 606.962 37.525 606.962 40.45C606.962 43.31 609.302 45.715 612.227 45.715C615.152 45.715 617.492 43.31 617.492 40.45C617.492 37.525 615.152 35.185 612.227 35.185ZM606.767 24.85V31.805H617.687V28.945C617.687 28.295 618.142 27.71 618.792 27.58C619.052 27.515 619.312 27.385 619.572 27.32C624.772 25.695 628.867 21.47 628.867 14.32C628.867 7.365 623.797 0.539999 613.397 0.539999C602.022 0.539999 598.122 8.6 598.187 13.995H609.107C609.107 12.11 610.472 9.965 613.592 9.965C616.192 9.965 617.947 11.525 617.947 14.125C617.947 16.595 616.387 18.285 613.592 18.285H612.812C609.497 18.285 606.767 21.21 606.767 24.85ZM34.7946 62.515H0.669551V71.94H12.2396V106H23.1596V71.94H34.7946V62.515ZM67.6373 106.065V87.215C67.6373 78.7 63.9323 72.98 56.4573 72.98C53.5973 72.98 51.6473 73.825 50.2823 74.8C48.5923 76.1 48.0073 77.79 47.6823 79.09L47.3573 80.585H47.2273L47.4223 79.935C47.6173 78.765 47.7473 77.53 47.7473 76.36V62.58H37.8023V106.065H47.7473V89.49C47.7473 84.745 49.3073 81.885 52.7523 81.885C56.3273 81.885 57.6273 84.68 57.6273 89.685C57.6273 90.725 57.6273 106.065 57.6273 106.065H67.6373ZM87.5949 81.885C90.3249 81.885 92.2099 83.705 92.9249 86.435H82.1999C82.9149 83.705 84.7999 81.885 87.5949 81.885ZM103.325 93.26C103.455 92.22 103.585 91.18 103.585 90.01C103.585 79.415 96.7599 72.98 87.5949 72.98C78.3649 72.98 71.6049 79.415 71.6049 90.01C71.6049 100.67 78.3649 107.04 87.5949 107.04C94.5499 107.04 100.14 103.335 102.415 96.9L92.2749 95.08C91.3649 96.965 89.7399 98.135 87.5949 98.135C84.7349 98.135 82.7849 96.185 82.1349 93.26H103.325ZM125.884 73.955L120.099 89.295C119.774 90.14 119.644 90.985 119.644 91.895V93.195H119.514V91.895C119.514 90.985 119.319 90.14 118.994 89.295L113.274 73.955H102.549L113.144 100.67C113.794 102.49 113.794 104.44 113.144 106.195L108.659 117.375H119.384L136.609 73.955H125.884ZM145.89 59.785C143.225 59.915 141.08 62.06 140.95 64.66C140.885 65.7 141.145 66.675 141.6 67.52C141.925 68.04 141.795 68.69 141.405 69.015L139.26 71.42L143.485 75.45L149.985 68.625C150.895 67.65 151.415 66.285 151.415 64.855C151.285 61.865 148.815 59.59 145.89 59.785ZM162.64 92.025C162.64 86.63 163.745 82.535 165.695 82.535C167.125 82.535 167.32 84.485 167.32 86.045V89.49L177.33 89.425V81.95C177.33 77.27 175.64 72.98 170.375 72.98C168.62 72.98 166.865 73.695 165.695 74.8C164.2 76.23 163.485 77.985 163.095 79.155C162.965 79.675 162.77 80.585 162.705 81.17L162.445 82.795H162.315L162.445 81.95C162.575 80.975 162.64 79.935 162.64 78.96V73.955H152.695V106.065H162.64V92.025ZM196.076 81.885C198.806 81.885 200.691 83.705 201.406 86.435H190.681C191.396 83.705 193.281 81.885 196.076 81.885ZM211.806 93.26C211.936 92.22 212.066 91.18 212.066 90.01C212.066 79.415 205.241 72.98 196.076 72.98C186.846 72.98 180.086 79.415 180.086 90.01C180.086 100.67 186.846 107.04 196.076 107.04C203.031 107.04 208.621 103.335 210.896 96.9L200.756 95.08C199.846 96.965 198.221 98.135 196.076 98.135C193.216 98.135 191.266 96.185 190.616 93.26H211.806ZM261.103 97.03C261.103 89.945 255.058 88.06 250.053 86.695C247.518 85.98 243.943 85.46 243.943 83.315C243.943 81.95 244.918 80.975 247.323 80.975C249.793 80.975 250.833 82.08 250.833 83.575L259.998 83.64C259.998 77.075 255.253 72.98 246.868 72.98C238.028 72.98 233.933 77.335 233.933 82.145C233.933 89.165 239.393 91.18 244.398 92.545C247.973 93.52 251.028 94.3 251.028 96.315C251.028 98.07 249.468 98.915 247.258 98.915C244.203 98.915 243.163 96.835 243.163 95.34H233.218C233.218 102.035 238.028 106.975 247.713 106.975C256.553 106.975 261.103 102.815 261.103 97.03ZM278.883 97.16C278.493 97.16 278.168 96.835 278.168 96.445V82.015H283.173V73.955H278.168V62.515H269.393C269.393 62.515 269.393 69.86 269.393 70.835C269.393 72.785 267.833 74.345 265.883 74.345H263.608V82.015H268.158C268.158 84.03 268.158 100.54 268.158 100.735C268.158 103.66 270.498 106 273.488 106H284.993V97.16H278.883ZM289.105 106.065H299.115C299.115 103.985 299.115 74.02 299.115 73.955H289.105V106.065ZM294.11 71.81C297.035 71.81 299.375 69.405 299.375 66.545C299.375 63.62 297.035 61.28 294.11 61.28C291.25 61.28 288.91 63.62 288.91 66.545C288.91 69.405 291.25 71.81 294.11 71.81ZM304.655 100.735C304.655 103.66 306.995 106.065 309.92 106.065H319.15V97.16H315.38C314.925 97.16 314.6 96.835 314.6 96.445V62.58H304.655C304.655 62.58 304.655 100.475 304.655 100.735ZM322.936 100.735C322.936 103.66 325.276 106.065 328.201 106.065H337.431V97.16H333.661C333.206 97.16 332.881 96.835 332.881 96.445V62.58H322.936C322.936 62.58 322.936 100.475 322.936 100.735ZM372.828 97.16C372.438 97.16 372.113 96.835 372.113 96.445V82.015H377.118V73.955H372.113V62.515H363.338C363.338 62.515 363.338 69.86 363.338 70.835C363.338 72.785 361.778 74.345 359.828 74.345H357.553V82.015H362.103C362.103 84.03 362.103 100.54 362.103 100.735C362.103 103.66 364.443 106 367.433 106H378.938V97.16H372.828ZM411.49 106.065V87.215C411.49 78.7 407.785 72.98 400.31 72.98C397.45 72.98 395.5 73.825 394.135 74.8C392.445 76.1 391.86 77.79 391.535 79.09L391.21 80.585H391.08L391.275 79.935C391.47 78.765 391.6 77.53 391.6 76.36V62.58H381.655V106.065H391.6V89.49C391.6 84.745 393.16 81.885 396.605 81.885C400.18 81.885 401.48 84.68 401.48 89.685C401.48 90.725 401.48 106.065 401.48 106.065H411.49ZM431.447 81.885C434.177 81.885 436.062 83.705 436.777 86.435H426.052C426.767 83.705 428.652 81.885 431.447 81.885ZM447.177 93.26C447.307 92.22 447.437 91.18 447.437 90.01C447.437 79.415 440.612 72.98 431.447 72.98C422.217 72.98 415.457 79.415 415.457 90.01C415.457 100.67 422.217 107.04 431.447 107.04C438.402 107.04 443.992 103.335 446.267 96.9L436.127 95.08C435.217 96.965 433.592 98.135 431.447 98.135C428.587 98.135 426.637 96.185 425.987 93.26H447.177ZM496.474 97.03C496.474 89.945 490.429 88.06 485.424 86.695C482.889 85.98 479.314 85.46 479.314 83.315C479.314 81.95 480.289 80.975 482.694 80.975C485.164 80.975 486.204 82.08 486.204 83.575L495.369 83.64C495.369 77.075 490.624 72.98 482.239 72.98C473.399 72.98 469.304 77.335 469.304 82.145C469.304 89.165 474.764 91.18 479.769 92.545C483.344 93.52 486.399 94.3 486.399 96.315C486.399 98.07 484.839 98.915 482.629 98.915C479.574 98.915 478.534 96.835 478.534 95.34H468.589C468.589 102.035 473.399 106.975 483.084 106.975C491.924 106.975 496.474 102.815 496.474 97.03ZM518.349 93.585C518.349 96.055 516.204 98.525 512.759 98.525C510.809 98.525 509.769 97.615 509.639 96.38C509.574 95.015 510.484 93.91 512.564 93.52C514.189 93.26 515.879 92.87 516.724 92.61C518.024 92.35 518.414 92.025 518.414 92.025L518.349 93.585ZM530.439 98.005H528.944C528.619 98.005 528.294 97.68 528.294 97.355V86.24C528.424 77.985 523.809 72.98 514.904 72.98C510.354 72.98 506.649 74.28 504.114 76.685C501.384 79.22 500.539 82.47 500.929 85.59L510.744 84.485C510.614 83.705 510.744 82.795 511.264 82.145C511.914 81.365 513.214 80.845 514.709 80.91C516.984 80.91 518.284 82.08 518.284 83.51C518.284 84.355 517.829 84.81 517.179 85.135C516.464 85.46 514.124 85.85 511.719 86.435C509.574 86.955 506.649 87.67 505.024 88.515C501.059 90.4 499.564 93.585 499.629 97.615C499.629 102.75 503.854 107.04 510.484 107.04C515.099 106.975 517.894 104.96 519.324 102.36C519.714 101.645 520.104 100.345 520.364 99.305C520.429 98.85 520.494 98.33 520.494 98.33L520.624 98.395L520.559 98.85C520.429 99.435 520.364 100.02 520.299 100.605C520.299 101.06 520.234 101.84 520.234 102.49C520.234 104.505 521.599 106 524.004 106.065H530.439V98.005ZM562.06 77.465C560.24 74.41 557.705 72.98 554 72.98C550.035 72.98 547.695 74.41 546.265 76.035C545.355 77.075 544.835 78.18 544.64 79.09L544.315 80.585H544.185L544.38 79.935C544.575 78.765 544.705 77.53 544.705 76.36V73.955H534.76V106.065H544.705V89.49C544.705 84.745 546.135 81.885 549.45 81.885C552.57 81.885 554.065 84.29 554.065 89.49C554.065 90.53 554.065 106.065 554.065 106.065H564.075V89.49C564.075 84.745 565.505 81.885 568.82 81.885C571.94 81.885 573.435 84.42 573.435 89.425C573.435 90.465 573.435 106.065 573.435 106.065H583.445V86.175C583.445 77.595 579.155 72.98 572.135 72.98C567.91 72.98 565.44 74.8 564.075 76.425C563.23 77.465 562.84 78.505 562.645 79.285C562.645 79.35 562.385 80.585 562.385 80.585H562.255L562.385 80C562.645 78.895 562.45 78.115 562.06 77.465ZM602.771 81.885C605.501 81.885 607.386 83.705 608.101 86.435H597.376C598.091 83.705 599.976 81.885 602.771 81.885ZM618.501 93.26C618.631 92.22 618.761 91.18 618.761 90.01C618.761 79.415 611.936 72.98 602.771 72.98C593.541 72.98 586.781 79.415 586.781 90.01C586.781 100.67 593.541 107.04 602.771 107.04C609.726 107.04 615.316 103.335 617.591 96.9L607.451 95.08C606.541 96.965 604.916 98.135 602.771 98.135C599.911 98.135 597.961 96.185 597.311 93.26H618.501ZM623.899 106.585C626.824 106.585 629.164 104.18 629.164 101.32C629.164 98.395 626.824 96.055 623.899 96.055C621.039 96.055 618.699 98.395 618.699 101.32C618.699 104.18 621.039 106.585 623.899 106.585Z" fill="#FFF6E9"/>
<line x1="232.291" y1="126.5" x2="629.291" y2="126.5" stroke="#F98D2B" stroke-width="17"/>
<line x1="196.291" y1="169.5" x2="426.291" y2="169.5" stroke="#C096D6" stroke-width="17"/>
<path d="M26.477 157.828C26.477 161.032 24.353 163.912 20.357 163.912C16.829 163.912 14.201 161.536 14.201 157.72V141.916H11.249V157.612C11.249 162.436 14.561 166.54 20.357 166.54C26.153 166.54 29.465 162.436 29.465 157.612V141.916H26.477V157.828ZM48.2404 155.884C48.2404 150.628 45.7204 147.712 41.5444 147.712C39.1324 147.712 37.5484 148.792 36.6484 149.908C36.2164 150.448 35.9644 151.096 35.7844 151.672L35.4964 152.608L35.4244 152.572L35.5684 152.104C35.7124 151.6 35.7844 151.06 35.7844 150.52V148.252H33.0484V166.036H35.7844V156.064C35.7844 152.572 37.7284 150.232 40.7164 150.232C43.8484 150.232 45.5044 152.464 45.5044 156.424C45.5044 158.728 45.5044 166.036 45.5044 166.036H48.2404V155.884ZM51.6452 164.344C51.6452 165.28 52.4012 166.036 53.3372 166.036H57.8372V163.516H54.5972C54.4892 163.516 54.3812 163.444 54.3812 163.3V141.952H51.6452C51.6092 142.06 51.6092 163.768 51.6452 164.344ZM66.9773 150.232C70.1813 150.232 72.0893 152.644 72.4133 155.92H61.5053C61.8293 152.644 63.7733 150.232 66.9773 150.232ZM75.2573 157.972C75.2933 157.72 75.3293 157.432 75.3293 157.144C75.3293 151.636 71.9453 147.712 66.9773 147.712C62.0093 147.712 58.6253 151.636 58.6253 157.144C58.6253 162.652 62.0093 166.576 66.9773 166.576C70.9733 166.576 73.8893 164.02 74.9333 160.204L72.1253 159.7C71.5133 162.256 69.7133 164.056 66.9773 164.056C63.6293 164.056 61.6853 161.428 61.5053 157.972H75.2573ZM91.4713 161.392C91.4713 157.648 88.0153 156.604 85.1353 155.884C83.5873 155.488 80.6713 154.84 80.6713 152.644C80.6713 151.312 81.7513 150.016 84.4153 150.016C87.3673 150.016 88.2673 151.636 88.2673 153.436H90.8233C90.8233 150.52 89.1673 147.712 84.3433 147.712C79.7713 147.712 77.8993 149.944 77.8993 152.392C77.8993 155.596 80.3473 156.892 83.7313 157.72C87.0793 158.512 88.6993 159.484 88.6993 161.248C88.6993 163.192 87.0073 164.236 84.6673 164.236C80.7793 164.236 80.2393 161.464 80.2393 160.348H77.5033C77.5033 163.336 79.4113 166.54 84.7753 166.54C89.4553 166.54 91.4713 164.2 91.4713 161.392ZM107.678 161.392C107.678 157.648 104.222 156.604 101.342 155.884C99.7944 155.488 96.8784 154.84 96.8784 152.644C96.8784 151.312 97.9584 150.016 100.622 150.016C103.574 150.016 104.474 151.636 104.474 153.436H107.03C107.03 150.52 105.374 147.712 100.55 147.712C95.9784 147.712 94.1064 149.944 94.1064 152.392C94.1064 155.596 96.5544 156.892 99.9384 157.72C103.286 158.512 104.906 159.484 104.906 161.248C104.906 163.192 103.214 164.236 100.874 164.236C96.9864 164.236 96.4464 161.464 96.4464 160.348H93.7104C93.7104 163.336 95.6184 166.54 100.982 166.54C105.662 166.54 107.678 164.2 107.678 161.392ZM132.933 148.216L127.713 161.14C127.605 161.464 127.533 161.788 127.533 162.112V162.724H127.461V162.112C127.461 161.788 127.389 161.464 127.281 161.14L122.061 148.216H119.109L125.589 164.128C125.877 164.812 125.877 165.532 125.589 166.216L123.105 172.336H126.057L135.885 148.216H132.933ZM138.213 157.144C138.213 153.184 140.265 150.232 143.829 150.232C147.357 150.232 149.409 153.184 149.409 157.144C149.409 161.104 147.357 164.056 143.829 164.056C140.265 164.056 138.213 161.104 138.213 157.144ZM152.181 157.144C152.181 151.636 148.797 147.712 143.829 147.712C138.861 147.712 135.477 151.636 135.477 157.144C135.477 162.652 138.861 166.576 143.829 166.576C148.797 166.576 152.181 162.652 152.181 157.144ZM154.929 148.252V158.404C154.929 163.66 157.233 166.54 161.625 166.54C165.081 166.54 166.665 164.416 167.241 163.012L167.673 161.68L167.709 161.716L167.601 162.148C167.457 162.688 167.385 163.192 167.385 163.732V166H170.121V148.252H167.385V158.224C167.385 161.716 165.405 164.056 162.453 164.056C159.105 164.056 157.665 161.824 157.665 157.864C157.665 155.56 157.665 148.252 157.665 148.252H154.929ZM176.55 166.036V157.288C176.55 154.3 177.954 150.376 179.394 150.376C180.366 150.376 180.654 151.672 180.654 152.68V154.66H183.426V152.104C183.426 149.44 182.562 147.712 180.474 147.712C179.394 147.712 178.494 148.504 177.846 149.44C177.198 150.34 176.838 151.384 176.73 151.996C176.694 152.104 176.55 152.968 176.514 153.076L176.406 153.76H176.37L176.442 153.292C176.514 152.716 176.55 152.176 176.55 151.6V148.252H173.814V166.036H176.55ZM198.014 157.144C198.014 153.184 200.066 150.232 203.63 150.232C207.158 150.232 209.21 153.184 209.21 157.144C209.21 161.104 207.158 164.056 203.63 164.056C200.066 164.056 198.014 161.104 198.014 157.144ZM211.982 157.144C211.982 151.636 208.598 147.712 203.63 147.712C198.662 147.712 195.278 151.636 195.278 157.144C195.278 162.652 198.662 166.576 203.63 166.576C208.598 166.576 211.982 162.652 211.982 157.144ZM229.822 155.884C229.822 150.628 227.302 147.712 223.126 147.712C220.714 147.712 219.13 148.792 218.23 149.908C217.798 150.448 217.546 151.096 217.366 151.672L217.078 152.608L217.006 152.572L217.15 152.104C217.294 151.6 217.366 151.06 217.366 150.52V148.252H214.63V166.036H217.366V156.064C217.366 152.572 219.31 150.232 222.298 150.232C225.43 150.232 227.086 152.464 227.086 156.424C227.086 158.728 227.086 166.036 227.086 166.036H229.822V155.884ZM240.509 150.232C243.713 150.232 245.621 152.644 245.945 155.92H235.037C235.361 152.644 237.305 150.232 240.509 150.232ZM248.789 157.972C248.825 157.72 248.861 157.432 248.861 157.144C248.861 151.636 245.477 147.712 240.509 147.712C235.541 147.712 232.157 151.636 232.157 157.144C232.157 162.652 235.541 166.576 240.509 166.576C244.505 166.576 247.421 164.02 248.465 160.204L245.657 159.7C245.045 162.256 243.245 164.056 240.509 164.056C237.161 164.056 235.217 161.428 235.037 157.972H248.789ZM275.022 161.392C275.022 157.648 271.566 156.604 268.686 155.884C267.138 155.488 264.222 154.84 264.222 152.644C264.222 151.312 265.302 150.016 267.966 150.016C270.918 150.016 271.818 151.636 271.818 153.436H274.374C274.374 150.52 272.718 147.712 267.894 147.712C263.322 147.712 261.45 149.944 261.45 152.392C261.45 155.596 263.898 156.892 267.282 157.72C270.63 158.512 272.25 159.484 272.25 161.248C272.25 163.192 270.558 164.236 268.218 164.236C264.33 164.236 263.79 161.464 263.79 160.348H261.054C261.054 163.336 262.962 166.54 268.326 166.54C273.006 166.54 275.022 164.2 275.022 161.392ZM282.337 163.516C282.229 163.516 282.157 163.408 282.157 163.3V150.556H285.289V148.216H282.157V141.916H279.637C279.637 141.952 279.637 145.012 279.637 147.172C279.637 147.82 279.133 148.324 278.485 148.324H276.649V150.556H279.385C279.385 154.984 279.385 163.948 279.385 164.308C279.385 165.244 280.141 166 281.077 166H286.081V163.516H282.337ZM295.352 150.232C298.556 150.232 300.464 152.644 300.788 155.92H289.88C290.204 152.644 292.148 150.232 295.352 150.232ZM303.632 157.972C303.668 157.72 303.704 157.432 303.704 157.144C303.704 151.636 300.32 147.712 295.352 147.712C290.384 147.712 287 151.636 287 157.144C287 162.652 290.384 166.576 295.352 166.576C299.348 166.576 302.264 164.02 303.308 160.204L300.5 159.7C299.888 162.256 298.088 164.056 295.352 164.056C292.004 164.056 290.06 161.428 289.88 157.972H303.632ZM320.458 157.144C320.458 161.104 318.442 164.056 314.878 164.056C311.35 164.056 309.514 161.104 309.514 157.144C309.514 153.184 311.314 150.232 314.878 150.232C318.406 150.232 320.458 153.184 320.458 157.144ZM309.37 163.228C309.37 162.688 309.298 162.148 309.154 161.644L309.01 161.176L309.082 161.14L309.478 162.472C309.946 163.984 311.314 166.576 315.382 166.576C320.098 166.576 323.23 162.652 323.23 157.144C323.23 151.672 320.098 147.712 315.382 147.712C311.314 147.712 309.946 150.304 309.478 151.888L309.082 153.148L309.01 153.112L309.154 152.68C309.298 152.14 309.37 151.6 309.37 151.06V148.252H306.634V172.372H309.37V163.228ZM347.324 158.692C347.324 161.68 345.38 164.128 341.816 164.128C339.8 164.128 338.504 163.012 338.324 161.464C338.144 159.844 339.08 158.26 341.384 157.828C342.644 157.612 344.804 157.18 345.632 157C347 156.748 347.324 156.316 347.324 156.316V158.692ZM351.536 163.696H350.276C350.168 163.696 350.096 163.624 350.096 163.516V154.444C350.132 150.232 347.756 147.712 343.22 147.712C340.844 147.712 338.828 148.504 337.568 149.944C336.38 151.276 336.02 152.968 336.38 154.624L339.08 154.228C338.9 153.364 338.936 152.284 339.62 151.42C340.196 150.736 341.276 150.016 343.184 150.016C345.812 150.016 347.216 151.456 347.216 153.22C347.216 153.94 346.892 154.408 346.28 154.66C345.74 154.876 344.768 155.02 343.508 155.272C342.536 155.488 340.844 155.848 339.692 156.172C336.416 157.072 335.48 159.268 335.552 161.536C335.588 164.128 337.64 166.576 341.348 166.576C343.76 166.576 345.56 165.64 346.712 164.236C347.252 163.552 347.612 162.652 347.792 161.752C347.828 161.68 347.936 161.14 347.936 161.14H347.972L347.936 161.392C347.828 161.932 347.792 162.472 347.756 163.012C347.756 163.228 347.756 164.056 347.756 164.704C347.756 165.46 348.296 166.036 349.124 166.036H351.536V163.696ZM369.463 166.036V155.884C369.463 150.628 367.123 147.712 362.767 147.712C360.787 147.712 359.347 148.504 358.411 149.404C357.655 150.088 357.223 150.952 356.971 151.744L356.719 152.608L356.647 152.572L356.791 152.104C356.935 151.6 357.007 151.06 357.007 150.52V141.952H354.271V166.036H357.007V156.064C357.007 152.572 358.951 150.232 361.939 150.232C365.287 150.232 366.727 152.464 366.727 156.424C366.727 158.728 366.727 166.036 366.727 166.036H369.463ZM380.571 150.232C383.775 150.232 385.683 152.644 386.007 155.92H375.099C375.423 152.644 377.367 150.232 380.571 150.232ZM388.851 157.972C388.887 157.72 388.923 157.432 388.923 157.144C388.923 151.636 385.539 147.712 380.571 147.712C375.603 147.712 372.219 151.636 372.219 157.144C372.219 162.652 375.603 166.576 380.571 166.576C384.567 166.576 387.483 164.02 388.527 160.204L385.719 159.7C385.107 162.256 383.307 164.056 380.571 164.056C377.223 164.056 375.279 161.428 375.099 157.972H388.851ZM402.941 158.692C402.941 161.68 400.997 164.128 397.433 164.128C395.417 164.128 394.121 163.012 393.941 161.464C393.761 159.844 394.697 158.26 397.001 157.828C398.261 157.612 400.421 157.18 401.249 157C402.617 156.748 402.941 156.316 402.941 156.316V158.692ZM407.153 163.696H405.893C405.785 163.696 405.713 163.624 405.713 163.516V154.444C405.749 150.232 403.373 147.712 398.837 147.712C396.461 147.712 394.445 148.504 393.185 149.944C391.997 151.276 391.637 152.968 391.997 154.624L394.697 154.228C394.517 153.364 394.553 152.284 395.237 151.42C395.813 150.736 396.893 150.016 398.801 150.016C401.429 150.016 402.833 151.456 402.833 153.22C402.833 153.94 402.509 154.408 401.897 154.66C401.357 154.876 400.385 155.02 399.125 155.272C398.153 155.488 396.461 155.848 395.309 156.172C392.033 157.072 391.097 159.268 391.169 161.536C391.205 164.128 393.257 166.576 396.965 166.576C399.377 166.576 401.177 165.64 402.329 164.236C402.869 163.552 403.229 162.652 403.409 161.752C403.445 161.68 403.553 161.14 403.553 161.14H403.589L403.553 161.392C403.445 161.932 403.409 162.472 403.373 163.012C403.373 163.228 403.373 164.056 403.373 164.704C403.373 165.46 403.913 166.036 404.741 166.036H407.153V163.696ZM411.904 157.144C411.904 153.148 413.956 150.196 417.52 150.196C421.048 150.196 422.884 153.148 422.884 157.144C422.884 161.104 421.084 164.056 417.52 164.056C413.956 164.056 411.904 161.104 411.904 157.144ZM422.992 141.916V151.06C422.992 151.6 423.064 152.14 423.208 152.644L423.352 153.112H423.316L422.884 151.816C422.416 150.268 421.084 147.712 417.016 147.712C412.3 147.712 409.168 151.636 409.168 157.144C409.168 162.616 412.264 166.54 417.016 166.54C421.084 166.54 422.452 163.948 422.92 162.4L423.316 161.14H423.352L423.208 161.608C423.064 162.112 422.992 162.652 422.992 163.192V166.036H425.764V141.916H422.992ZM454.682 166.036V155.884C454.682 150.628 452.342 147.712 447.986 147.712C446.006 147.712 444.566 148.504 443.63 149.404C442.874 150.088 442.442 150.952 442.19 151.744L441.938 152.608L441.866 152.572L442.01 152.104C442.154 151.6 442.226 151.06 442.226 150.52V141.952H439.49V166.036H442.226V156.064C442.226 152.572 444.17 150.232 447.158 150.232C450.506 150.232 451.946 152.464 451.946 156.424C451.946 158.728 451.946 166.036 451.946 166.036H454.682ZM460.174 157.144C460.174 153.184 462.226 150.232 465.79 150.232C469.318 150.232 471.37 153.184 471.37 157.144C471.37 161.104 469.318 164.056 465.79 164.056C462.226 164.056 460.174 161.104 460.174 157.144ZM474.142 157.144C474.142 151.636 470.758 147.712 465.79 147.712C460.822 147.712 457.438 151.636 457.438 157.144C457.438 162.652 460.822 166.576 465.79 166.576C470.758 166.576 474.142 162.652 474.142 157.144ZM497.549 148.252L493.373 160.816C493.229 161.212 493.157 161.608 493.157 162.04V162.652H493.085V162.04C493.085 161.608 493.049 161.212 492.905 160.816L488.729 148.252H485.993L481.817 160.816C481.709 161.212 481.637 161.608 481.637 162.04V162.652H481.565V162.04C481.565 161.608 481.493 161.212 481.385 160.816L477.209 148.252H474.365L480.089 166.036H482.825L487.145 153.22C487.253 152.824 487.325 152.392 487.325 151.96V151.456H487.397V151.96C487.397 152.392 487.469 152.824 487.613 153.22L491.897 166.036H494.633L500.393 148.252H497.549ZM525.718 158.908C525.178 161.968 523.27 164.056 520.282 164.056C516.718 164.056 514.666 161.104 514.666 157.144C514.666 153.184 516.718 150.232 520.282 150.232C523.27 150.232 525.178 152.32 525.718 155.38L528.454 155.092C527.734 150.628 524.602 147.712 520.282 147.712C515.314 147.712 511.93 151.636 511.93 157.144C511.93 162.652 515.314 166.576 520.282 166.576C524.602 166.576 527.734 163.66 528.454 159.232L525.718 158.908ZM542.406 158.692C542.406 161.68 540.462 164.128 536.898 164.128C534.882 164.128 533.586 163.012 533.406 161.464C533.226 159.844 534.162 158.26 536.466 157.828C537.726 157.612 539.886 157.18 540.714 157C542.082 156.748 542.406 156.316 542.406 156.316V158.692ZM546.618 163.696H545.358C545.25 163.696 545.178 163.624 545.178 163.516V154.444C545.214 150.232 542.838 147.712 538.302 147.712C535.926 147.712 533.91 148.504 532.65 149.944C531.462 151.276 531.102 152.968 531.462 154.624L534.162 154.228C533.982 153.364 534.018 152.284 534.702 151.42C535.278 150.736 536.358 150.016 538.266 150.016C540.894 150.016 542.298 151.456 542.298 153.22C542.298 153.94 541.974 154.408 541.362 154.66C540.822 154.876 539.85 155.02 538.59 155.272C537.618 155.488 535.926 155.848 534.774 156.172C531.498 157.072 530.562 159.268 530.634 161.536C530.67 164.128 532.722 166.576 536.43 166.576C538.842 166.576 540.642 165.64 541.794 164.236C542.334 163.552 542.694 162.652 542.874 161.752C542.91 161.68 543.018 161.14 543.018 161.14H543.054L543.018 161.392C542.91 161.932 542.874 162.472 542.838 163.012C542.838 163.228 542.838 164.056 542.838 164.704C542.838 165.46 543.378 166.036 544.206 166.036H546.618V163.696ZM564.545 155.884C564.545 150.628 562.025 147.712 557.849 147.712C555.437 147.712 553.853 148.792 552.953 149.908C552.521 150.448 552.269 151.096 552.089 151.672L551.801 152.608L551.729 152.572L551.873 152.104C552.017 151.6 552.089 151.06 552.089 150.52V148.252H549.353V166.036H552.089V156.064C552.089 152.572 554.033 150.232 557.021 150.232C560.153 150.232 561.809 152.464 561.809 156.424C561.809 158.728 561.809 166.036 561.809 166.036H564.545V155.884ZM590.245 148.216L585.025 161.14C584.917 161.464 584.845 161.788 584.845 162.112V162.724H584.773V162.112C584.773 161.788 584.701 161.464 584.593 161.14L579.373 148.216H576.421L582.901 164.128C583.189 164.812 583.189 165.532 582.901 166.216L580.417 172.336H583.369L593.197 148.216H590.245ZM595.525 157.144C595.525 153.184 597.577 150.232 601.141 150.232C604.669 150.232 606.721 153.184 606.721 157.144C606.721 161.104 604.669 164.056 601.141 164.056C597.577 164.056 595.525 161.104 595.525 157.144ZM609.493 157.144C609.493 151.636 606.109 147.712 601.141 147.712C596.173 147.712 592.789 151.636 592.789 157.144C592.789 162.652 596.173 166.576 601.141 166.576C606.109 166.576 609.493 162.652 609.493 157.144ZM612.242 148.252V158.404C612.242 163.66 614.546 166.54 618.938 166.54C622.394 166.54 623.978 164.416 624.554 163.012L624.986 161.68L625.022 161.716L624.914 162.148C624.77 162.688 624.698 163.192 624.698 163.732V166H627.434V148.252H624.698V158.224C624.698 161.716 622.718 164.056 619.766 164.056C616.418 164.056 614.978 161.824 614.978 157.864C614.978 155.56 614.978 148.252 614.978 148.252H612.242ZM37.1575 199.516C37.0495 199.516 36.9775 199.408 36.9775 199.3V186.556H40.1095V184.216H36.9775V177.916H34.4575C34.4575 177.952 34.4575 181.012 34.4575 183.172C34.4575 183.82 33.9535 184.324 33.3055 184.324H31.4695V186.556H34.2055C34.2055 190.984 34.2055 199.948 34.2055 200.308C34.2055 201.244 34.9615 202 35.8975 202H40.9015V199.516H37.1575ZM45.7336 202.036V193.288C45.7336 190.3 47.1376 186.376 48.5776 186.376C49.5496 186.376 49.8376 187.672 49.8376 188.68V190.66H52.6096V188.104C52.6096 185.44 51.7456 183.712 49.6576 183.712C48.5776 183.712 47.6776 184.504 47.0296 185.44C46.3816 186.34 46.0216 187.384 45.9136 187.996C45.8776 188.104 45.7336 188.968 45.6976 189.076L45.5896 189.76H45.5536L45.6256 189.292C45.6976 188.716 45.7336 188.176 45.7336 187.6V184.252H42.9976V202.036H45.7336ZM54.9097 184.252V194.404C54.9097 199.66 57.2137 202.54 61.6057 202.54C65.0617 202.54 66.6457 200.416 67.2217 199.012L67.6537 197.68L67.6897 197.716L67.5817 198.148C67.4377 198.688 67.3657 199.192 67.3657 199.732V202H70.1017V184.252H67.3657V194.224C67.3657 197.716 65.3857 200.056 62.4337 200.056C59.0857 200.056 57.6457 197.824 57.6457 193.864C57.6457 191.56 57.6457 184.252 57.6457 184.252H54.9097ZM87.0065 197.392C87.0065 193.648 83.5505 192.604 80.6705 191.884C79.1225 191.488 76.2065 190.84 76.2065 188.644C76.2065 187.312 77.2865 186.016 79.9505 186.016C82.9025 186.016 83.8025 187.636 83.8025 189.436H86.3585C86.3585 186.52 84.7025 183.712 79.8785 183.712C75.3065 183.712 73.4345 185.944 73.4345 188.392C73.4345 191.596 75.8825 192.892 79.2665 193.72C82.6145 194.512 84.2345 195.484 84.2345 197.248C84.2345 199.192 82.5425 200.236 80.2025 200.236C76.3145 200.236 75.7745 197.464 75.7745 196.348H73.0385C73.0385 199.336 74.9465 202.54 80.3105 202.54C84.9905 202.54 87.0065 200.2 87.0065 197.392ZM94.3215 199.516C94.2135 199.516 94.1415 199.408 94.1415 199.3V186.556H97.2735V184.216H94.1415V177.916H91.6215C91.6215 177.952 91.6215 181.012 91.6215 183.172C91.6215 183.82 91.1175 184.324 90.4695 184.324H88.6335V186.556H91.3695C91.3695 190.984 91.3695 199.948 91.3695 200.308C91.3695 201.244 92.1255 202 93.0615 202H98.0655V199.516H94.3215ZM114.853 199.516C114.745 199.516 114.673 199.408 114.673 199.3V186.556H117.805V184.216H114.673V177.916H112.153C112.153 177.952 112.153 181.012 112.153 183.172C112.153 183.82 111.649 184.324 111.001 184.324H109.165V186.556H111.901C111.901 190.984 111.901 199.948 111.901 200.308C111.901 201.244 112.657 202 113.593 202H118.597V199.516H114.853ZM135.428 202.036V191.884C135.428 186.628 133.088 183.712 128.732 183.712C126.752 183.712 125.312 184.504 124.376 185.404C123.62 186.088 123.188 186.952 122.936 187.744L122.684 188.608L122.612 188.572L122.756 188.104C122.9 187.6 122.972 187.06 122.972 186.52V177.952H120.236V202.036H122.972V192.064C122.972 188.572 124.916 186.232 127.904 186.232C131.252 186.232 132.692 188.464 132.692 192.424C132.692 194.728 132.692 202.036 132.692 202.036H135.428ZM146.536 186.232C149.74 186.232 151.648 188.644 151.972 191.92H141.064C141.388 188.644 143.332 186.232 146.536 186.232ZM154.816 193.972C154.852 193.72 154.888 193.432 154.888 193.144C154.888 187.636 151.504 183.712 146.536 183.712C141.568 183.712 138.184 187.636 138.184 193.144C138.184 198.652 141.568 202.576 146.536 202.576C150.532 202.576 153.448 200.02 154.492 196.204L151.684 195.7C151.072 198.256 149.272 200.056 146.536 200.056C143.188 200.056 141.244 197.428 141.064 193.972H154.816ZM168.581 184.216L163.361 197.14C163.253 197.464 163.181 197.788 163.181 198.112V198.724H163.109V198.112C163.109 197.788 163.037 197.464 162.929 197.14L157.709 184.216H154.757L161.237 200.128C161.525 200.812 161.525 201.532 161.237 202.216L158.753 208.336H161.705L171.533 184.216H168.581ZM175.599 177.376C174.951 177.52 174.447 178.06 174.411 178.744C174.411 178.96 174.447 179.212 174.555 179.428C174.663 179.608 174.591 179.752 174.519 179.86L173.187 181.264L174.519 182.56L177.039 179.86C177.399 179.464 177.471 178.96 177.363 178.492C177.147 177.7 176.391 177.232 175.599 177.376ZM179.895 200.344C179.895 201.28 180.651 202.036 181.587 202.036H186.087V199.516H182.847C182.739 199.516 182.631 199.444 182.631 199.3V177.952H179.895C179.859 178.06 179.859 199.768 179.895 200.344ZM188.368 200.344C188.368 201.28 189.124 202.036 190.06 202.036H194.56V199.516H191.32C191.212 199.516 191.104 199.444 191.104 199.3V177.952H188.368C188.332 178.06 188.332 199.768 188.368 200.344ZM218.848 181.732C219.712 181.732 220.396 181.048 220.396 180.184C220.396 179.356 219.712 178.636 218.848 178.636C218.02 178.636 217.336 179.356 217.336 180.184C217.336 181.048 218.02 181.732 218.848 181.732ZM211.072 184.252C211.072 184.252 210.82 182.524 210.82 181.696C210.82 180.832 211.324 180.256 212.008 180.256H213.52V177.916H211C209.128 177.916 208.264 179.248 208.264 180.724C208.264 181.804 208.48 182.956 208.696 183.568C208.768 183.856 208.984 184.108 209.236 184.216C209.344 184.324 209.668 184.468 209.776 184.504V184.54C209.704 184.54 209.488 184.468 209.416 184.432C208.948 184.324 208.444 184.252 207.976 184.252H205.42V186.556H208.516V202H211.288V186.556H217.48V202.036H220.252C220.252 197.464 220.252 184.324 220.252 184.252H211.072ZM239.139 191.884C239.139 186.628 236.619 183.712 232.443 183.712C230.031 183.712 228.447 184.792 227.547 185.908C227.115 186.448 226.863 187.096 226.683 187.672L226.395 188.608L226.323 188.572L226.467 188.104C226.611 187.6 226.683 187.06 226.683 186.52V184.252H223.947V202.036H226.683V192.064C226.683 188.572 228.627 186.232 231.615 186.232C234.747 186.232 236.403 188.464 236.403 192.424C236.403 194.728 236.403 202.036 236.403 202.036H239.139V191.884ZM244.596 193.144C244.596 189.148 246.648 186.196 250.212 186.196C253.74 186.196 255.576 189.148 255.576 193.144C255.576 197.104 253.776 200.056 250.212 200.056C246.648 200.056 244.596 197.104 244.596 193.144ZM255.684 177.916V187.06C255.684 187.6 255.756 188.14 255.9 188.644L256.044 189.112H256.008L255.576 187.816C255.108 186.268 253.776 183.712 249.708 183.712C244.992 183.712 241.86 187.636 241.86 193.144C241.86 198.616 244.956 202.54 249.708 202.54C253.776 202.54 255.144 199.948 255.612 198.4L256.008 197.14H256.044L255.9 197.608C255.756 198.112 255.684 198.652 255.684 199.192V202.036H258.456V177.916H255.684ZM293.889 184.252L289.713 196.816C289.569 197.212 289.497 197.608 289.497 198.04V198.652H289.425V198.04C289.425 197.608 289.389 197.212 289.245 196.816L285.069 184.252H282.333L278.157 196.816C278.049 197.212 277.977 197.608 277.977 198.04V198.652H277.905V198.04C277.905 197.608 277.833 197.212 277.725 196.816L273.549 184.252H270.705L276.429 202.036H279.165L283.485 189.22C283.593 188.824 283.665 188.392 283.665 187.96V187.456H283.737V187.96C283.737 188.392 283.809 188.824 283.953 189.22L288.237 202.036H290.973L296.733 184.252H293.889ZM313.354 202.036V191.884C313.354 186.628 311.014 183.712 306.658 183.712C304.678 183.712 303.238 184.504 302.302 185.404C301.546 186.088 301.114 186.952 300.862 187.744L300.61 188.608L300.538 188.572L300.682 188.104C300.826 187.6 300.898 187.06 300.898 186.52V177.952H298.162V202.036H300.898V192.064C300.898 188.572 302.842 186.232 305.83 186.232C309.178 186.232 310.618 188.464 310.618 192.424C310.618 194.728 310.618 202.036 310.618 202.036H313.354ZM327.918 194.692C327.918 197.68 325.974 200.128 322.41 200.128C320.394 200.128 319.098 199.012 318.918 197.464C318.738 195.844 319.674 194.26 321.978 193.828C323.238 193.612 325.398 193.18 326.226 193C327.594 192.748 327.918 192.316 327.918 192.316V194.692ZM332.13 199.696H330.87C330.762 199.696 330.69 199.624 330.69 199.516V190.444C330.726 186.232 328.35 183.712 323.814 183.712C321.438 183.712 319.422 184.504 318.162 185.944C316.974 187.276 316.614 188.968 316.974 190.624L319.674 190.228C319.494 189.364 319.53 188.284 320.214 187.42C320.79 186.736 321.87 186.016 323.778 186.016C326.406 186.016 327.81 187.456 327.81 189.22C327.81 189.94 327.486 190.408 326.874 190.66C326.334 190.876 325.362 191.02 324.102 191.272C323.13 191.488 321.438 191.848 320.286 192.172C317.01 193.072 316.074 195.268 316.146 197.536C316.182 200.128 318.234 202.576 321.942 202.576C324.354 202.576 326.154 201.64 327.306 200.236C327.846 199.552 328.206 198.652 328.386 197.752C328.422 197.68 328.53 197.14 328.53 197.14H328.566L328.53 197.392C328.422 197.932 328.386 198.472 328.35 199.012C328.35 199.228 328.35 200.056 328.35 200.704C328.35 201.46 328.89 202.036 329.718 202.036H332.13V199.696ZM338.411 199.516C338.303 199.516 338.231 199.408 338.231 199.3V186.556H341.363V184.216H338.231V177.916H335.711C335.711 177.952 335.711 181.012 335.711 183.172C335.711 183.82 335.207 184.324 334.559 184.324H332.723V186.556H335.459C335.459 190.984 335.459 199.948 335.459 200.308C335.459 201.244 336.215 202 337.151 202H342.155V199.516H338.411ZM366.863 184.216L361.643 197.14C361.535 197.464 361.463 197.788 361.463 198.112V198.724H361.391V198.112C361.391 197.788 361.319 197.464 361.211 197.14L355.991 184.216H353.039L359.519 200.128C359.807 200.812 359.807 201.532 359.519 202.216L357.035 208.336H359.987L369.815 184.216H366.863ZM372.143 193.144C372.143 189.184 374.195 186.232 377.759 186.232C381.287 186.232 383.339 189.184 383.339 193.144C383.339 197.104 381.287 200.056 377.759 200.056C374.195 200.056 372.143 197.104 372.143 193.144ZM386.111 193.144C386.111 187.636 382.727 183.712 377.759 183.712C372.791 183.712 369.407 187.636 369.407 193.144C369.407 198.652 372.791 202.576 377.759 202.576C382.727 202.576 386.111 198.652 386.111 193.144ZM388.859 184.252V194.404C388.859 199.66 391.163 202.54 395.555 202.54C399.011 202.54 400.595 200.416 401.171 199.012L401.603 197.68L401.639 197.716L401.531 198.148C401.387 198.688 401.315 199.192 401.315 199.732V202H404.051V184.252H401.315V194.224C401.315 197.716 399.335 200.056 396.383 200.056C393.035 200.056 391.595 197.824 391.595 193.864C391.595 191.56 391.595 184.252 391.595 184.252H388.859ZM408.896 177.376C408.248 177.52 407.744 178.06 407.708 178.744C407.708 178.96 407.744 179.212 407.852 179.428C407.96 179.608 407.888 179.752 407.816 179.86L406.484 181.264L407.816 182.56L410.336 179.86C410.696 179.464 410.768 178.96 410.66 178.492C410.444 177.7 409.688 177.232 408.896 177.376ZM414.523 202.036V193.288C414.523 190.3 415.927 186.376 417.367 186.376C418.339 186.376 418.627 187.672 418.627 188.68V190.66H421.399V188.104C421.399 185.44 420.535 183.712 418.447 183.712C417.367 183.712 416.467 184.504 415.819 185.44C415.171 186.34 414.811 187.384 414.703 187.996C414.667 188.104 414.523 188.968 414.487 189.076L414.379 189.76H414.343L414.415 189.292C414.487 188.716 414.523 188.176 414.523 187.6V184.252H411.787V202.036H414.523ZM431.583 186.232C434.787 186.232 436.695 188.644 437.019 191.92H426.111C426.435 188.644 428.379 186.232 431.583 186.232ZM439.863 193.972C439.899 193.72 439.935 193.432 439.935 193.144C439.935 187.636 436.551 183.712 431.583 183.712C426.615 183.712 423.231 187.636 423.231 193.144C423.231 198.652 426.615 202.576 431.583 202.576C435.579 202.576 438.495 200.02 439.539 196.204L436.731 195.7C436.119 198.256 434.319 200.056 431.583 200.056C428.235 200.056 426.291 197.428 426.111 193.972H439.863ZM454.756 202.036L456.376 193.612C456.988 190.624 458.752 187.276 460.084 187.276C460.984 187.276 460.984 188.464 460.804 189.436L460.408 191.38H464.116L464.692 188.284C465.232 185.656 464.728 183.712 462.352 183.712C461.308 183.712 460.264 184.36 459.436 185.188C458.572 186.088 457.996 187.06 457.744 187.708C457.636 187.888 457.384 188.608 457.312 188.788L457.024 189.58L456.988 189.544L457.132 189.076C457.348 188.536 457.492 187.96 457.6 187.42L458.212 184.252H454.54L451.048 202.036H454.756ZM474.925 187.024C477.589 187.024 478.849 188.968 478.669 191.668H469.417C470.281 188.968 472.297 187.024 474.925 187.024ZM481.945 194.296C482.089 193.936 482.197 193.54 482.269 193.144C483.349 187.492 480.577 183.712 475.573 183.712C470.569 183.712 466.321 187.492 465.205 193.144C464.125 198.796 466.897 202.576 471.901 202.576C475.861 202.576 479.317 200.2 481.153 196.456L477.553 195.772C476.581 197.824 474.781 199.264 472.549 199.264C469.813 199.264 468.553 197.14 468.877 194.296H481.945ZM494.987 194.836C494.519 197.284 492.503 199.372 489.623 199.372C488.003 199.372 487.175 198.436 487.283 197.176C487.391 195.844 488.399 194.62 490.307 194.26C491.423 194.044 493.187 193.684 493.871 193.54C495.059 193.288 495.383 192.964 495.383 192.964L494.987 194.836ZM499.055 198.976H497.903C497.795 198.976 497.687 198.868 497.723 198.76L499.415 190.084C500.207 186.124 498.407 183.712 493.727 183.712C491.279 183.712 489.263 184.504 487.823 185.8C486.383 187.132 485.663 188.896 485.663 190.66L489.335 190.156C489.335 189.4 489.515 188.572 490.235 187.888C490.775 187.348 491.675 186.772 493.151 186.772C495.167 186.772 496.067 187.888 495.779 189.328C495.671 189.976 495.311 190.372 494.699 190.624C494.195 190.84 493.367 190.984 491.999 191.236C490.919 191.488 489.443 191.848 488.291 192.208C485.231 193.18 483.899 195.232 483.503 197.464C483.035 200.164 484.439 202.576 488.147 202.576C490.595 202.54 492.503 201.532 493.799 200.128C494.339 199.552 494.843 198.724 495.167 197.932C495.203 197.788 495.383 197.356 495.383 197.356H495.455L495.347 197.608C495.167 198.076 495.023 198.544 494.915 199.012C494.879 199.228 494.699 199.948 494.591 200.488C494.447 201.352 494.915 202.036 495.923 202.036H498.443L499.055 198.976ZM501.472 199.912C501.256 201.1 502.012 202.036 503.2 202.036H507.88L508.528 198.724H505.684C505.504 198.724 505.432 198.58 505.432 198.436L509.428 177.952H505.756C505.72 178.024 501.544 199.516 501.472 199.912ZM510.401 199.912C510.185 201.1 510.941 202.036 512.129 202.036H516.809L517.457 198.724H514.613C514.433 198.724 514.361 198.58 514.361 198.436L518.357 177.952H514.685C514.649 178.024 510.473 199.516 510.401 199.912ZM532.13 184.216L525.362 195.592C525.182 195.952 525.002 196.312 524.93 196.708L524.822 197.356H524.75L524.858 196.708C524.93 196.312 524.93 195.952 524.858 195.592L522.554 184.216H518.594L521.87 199.768C522.014 200.56 521.834 201.388 521.402 202.18L517.694 208.336H521.654L536.09 184.216H532.13ZM557.523 194.692C557.523 197.68 555.579 200.128 552.015 200.128C549.999 200.128 548.703 199.012 548.523 197.464C548.343 195.844 549.279 194.26 551.583 193.828C552.843 193.612 555.003 193.18 555.831 193C557.199 192.748 557.523 192.316 557.523 192.316V194.692ZM561.735 199.696H560.475C560.367 199.696 560.295 199.624 560.295 199.516V190.444C560.331 186.232 557.955 183.712 553.419 183.712C551.043 183.712 549.027 184.504 547.767 185.944C546.579 187.276 546.219 188.968 546.579 190.624L549.279 190.228C549.099 189.364 549.135 188.284 549.819 187.42C550.395 186.736 551.475 186.016 553.383 186.016C556.011 186.016 557.415 187.456 557.415 189.22C557.415 189.94 557.091 190.408 556.479 190.66C555.939 190.876 554.967 191.02 553.707 191.272C552.735 191.488 551.043 191.848 549.891 192.172C546.615 193.072 545.679 195.268 545.751 197.536C545.787 200.128 547.839 202.576 551.547 202.576C553.959 202.576 555.759 201.64 556.911 200.236C557.451 199.552 557.811 198.652 557.991 197.752C558.027 197.68 558.135 197.14 558.135 197.14H558.171L558.135 197.392C558.027 197.932 557.991 198.472 557.955 199.012C557.955 199.228 557.955 200.056 557.955 200.704C557.955 201.46 558.495 202.036 559.323 202.036H561.735V199.696ZM578.042 199.552C577.934 199.552 577.826 199.444 577.826 199.336V186.592H580.958V184.288H577.826V177.952H575.342C575.342 177.988 575.342 180.976 575.342 183.1C575.342 183.748 574.802 184.288 574.19 184.288H568.646C568.646 184.288 568.394 182.56 568.394 181.732C568.394 180.868 568.898 180.292 569.582 180.292H571.094V177.952H568.574C566.702 177.952 565.838 179.284 565.838 180.76C565.838 181.84 566.054 182.992 566.27 183.604C566.342 183.892 566.558 184.144 566.81 184.252C566.918 184.36 567.242 184.504 567.35 184.54V184.576C567.278 184.576 567.062 184.504 566.99 184.468C566.522 184.36 566.018 184.288 565.55 184.288H562.994V186.592H566.09V202.072H568.862V186.592H575.054C575.054 191.02 575.054 199.984 575.054 200.344C575.054 201.28 575.846 202.072 576.782 202.072H581.786V199.552H578.042ZM591.895 186.232C595.099 186.232 597.007 188.644 597.331 191.92H586.423C586.747 188.644 588.691 186.232 591.895 186.232ZM600.175 193.972C600.211 193.72 600.247 193.432 600.247 193.144C600.247 187.636 596.863 183.712 591.895 183.712C586.927 183.712 583.543 187.636 583.543 193.144C583.543 198.652 586.927 202.576 591.895 202.576C595.891 202.576 598.807 200.02 599.851 196.204L597.043 195.7C596.431 198.256 594.631 200.056 591.895 200.056C588.547 200.056 586.603 197.428 586.423 193.972H600.175ZM605.913 202.036V193.288C605.913 190.3 607.317 186.376 608.757 186.376C609.729 186.376 610.017 187.672 610.017 188.68V190.66H612.789V188.104C612.789 185.44 611.925 183.712 609.837 183.712C608.757 183.712 607.857 184.504 607.209 185.44C606.561 186.34 606.201 187.384 606.093 187.996C606.057 188.104 605.913 188.968 605.877 189.076L605.769 189.76H605.733L605.805 189.292C605.877 188.716 605.913 188.176 605.913 187.6V184.252H603.177V202.036H605.913ZM620.417 197.752C619.553 197.752 618.869 198.436 618.869 199.3C618.869 200.128 619.553 200.812 620.417 200.812C621.281 200.812 621.965 200.128 621.965 199.3C621.965 198.436 621.281 197.752 620.417 197.752ZM618.941 189.796V194.98H621.893V190.804C621.893 190.48 622.145 190.264 622.433 190.192C622.505 190.192 622.613 190.156 622.649 190.156C625.853 189.436 628.481 187.636 628.481 183.892C628.481 180.832 626.321 177.376 621.317 177.376C615.557 177.376 613.829 181.264 613.865 183.964H616.817C616.817 182.776 617.429 180.004 621.353 180.004C623.765 180.004 625.493 181.696 625.493 183.82C625.493 185.692 624.125 187.6 621.353 187.6H621.029C619.877 187.6 618.941 188.608 618.941 189.796Z" fill="#FFF6E9"/>
</svg>
