<svg width="702" height="320" viewBox="0 0 702 320" fill="none" xmlns="http://www.w3.org/2000/svg">
<line x1="22" y1="157.5" x2="305" y2="157.5" stroke="#C096D6" stroke-width="17"/>
<line x1="22" y1="311.5" x2="349" y2="311.5" stroke="#8CD87C" stroke-width="17"/>
<path d="M316.5 115C316.5 119.731 313.885 125.342 306.694 131.516C299.53 137.665 288.667 143.587 274.504 148.73C246.248 158.989 206.65 165.5 162.5 165.5C118.35 165.5 78.752 158.989 50.496 148.73C36.3329 143.587 25.4697 137.665 18.3065 131.516C11.1147 125.342 8.5 119.731 8.5 115C8.5 110.269 11.1147 104.658 18.3065 98.4842C25.4697 92.3352 36.3329 86.4127 50.496 81.2704C78.752 71.0113 118.35 64.5 162.5 64.5C206.65 64.5 246.248 71.0113 274.504 81.2704C288.667 86.4127 299.53 92.3352 306.694 98.4842C313.885 104.658 316.5 110.269 316.5 115Z" stroke="black" stroke-width="17"/>
<path d="M316.5 115C316.5 119.731 313.885 125.342 306.694 131.516C299.53 137.665 288.667 143.587 274.504 148.73C246.248 158.989 206.65 165.5 162.5 165.5C118.35 165.5 78.752 158.989 50.496 148.73C36.3329 143.587 25.4697 137.665 18.3065 131.516C11.1147 125.342 8.5 119.731 8.5 115C8.5 110.269 11.1147 104.658 18.3065 98.4842C25.4697 92.3352 36.3329 86.4127 50.496 81.2704C78.752 71.0113 118.35 64.5 162.5 64.5C206.65 64.5 246.248 71.0113 274.504 81.2704C288.667 86.4127 299.53 92.3352 306.694 98.4842C313.885 104.658 316.5 110.269 316.5 115Z" stroke="#F98D2B" stroke-width="17"/>
<path d="M66.16 2.48H24.16V14.08H38.4V56H51.84V14.08H66.16V2.48ZM106.582 56.08V32.88C106.582 22.4 102.022 15.36 92.8219 15.36C89.3019 15.36 86.9019 16.4 85.2219 17.6C83.1419 19.2 82.4219 21.28 82.0219 22.88L81.6219 24.72H81.4619L81.7019 23.92C81.9419 22.48 82.1019 20.96 82.1019 19.52V2.56H69.8619V56.08H82.1019V35.68C82.1019 29.84 84.0219 26.32 88.2619 26.32C92.6619 26.32 94.2619 29.76 94.2619 35.92C94.2619 37.2 94.2619 56.08 94.2619 56.08H106.582ZM131.145 26.32C134.505 26.32 136.825 28.56 137.705 31.92H124.505C125.385 28.56 127.705 26.32 131.145 26.32ZM150.505 40.32C150.665 39.04 150.825 37.76 150.825 36.32C150.825 23.28 142.425 15.36 131.145 15.36C119.785 15.36 111.465 23.28 111.465 36.32C111.465 49.44 119.785 57.28 131.145 57.28C139.705 57.28 146.585 52.72 149.385 44.8L136.905 42.56C135.785 44.88 133.785 46.32 131.145 46.32C127.625 46.32 125.225 43.92 124.425 40.32H150.505ZM184.538 13.84C188.058 13.84 191.018 10.96 191.018 7.36C191.018 3.84 188.058 0.959998 184.538 0.959998C180.938 0.959998 178.058 3.84 178.058 7.36C178.058 10.96 180.938 13.84 184.538 13.84ZM178.378 58.24C178.378 58.72 177.978 59.12 177.498 59.12H172.857V70.08H184.138C187.738 70.08 190.698 67.12 190.698 63.52C190.698 63.2 190.698 16.56 190.698 16.48H178.378V58.24ZM208.314 36.32C208.314 30.16 211.194 26.32 215.754 26.32C220.234 26.32 223.114 30.16 223.114 36.32C223.114 42.48 220.234 46.32 215.754 46.32C211.194 46.32 208.314 42.48 208.314 36.32ZM235.434 36.32C235.434 23.28 227.034 15.36 215.754 15.36C204.394 15.36 196.074 23.28 196.074 36.32C196.074 49.44 204.394 57.28 215.754 57.28C227.034 57.28 235.434 49.44 235.434 36.32ZM253.759 36.32C253.759 30.08 256.479 26.24 261.039 26.24C265.519 26.24 268.399 30.08 268.399 36.32C268.399 42.48 265.519 46.32 261.039 46.32C256.479 46.32 253.759 42.48 253.759 36.32ZM253.039 49.68C253.679 52.4 255.599 57.2 263.839 57.2C274.479 57.2 280.719 48.16 280.719 36.32C280.719 24.4 274.479 15.36 263.839 15.36C255.599 15.36 253.679 20.16 253.039 22.88L252.559 24.96H252.399L252.639 24.16C252.879 22.72 253.039 21.28 253.039 19.76V2.48H240.799V56H253.039V52.8C253.039 51.36 252.879 49.84 252.639 48.4L252.399 47.6H252.559L253.039 49.68ZM342.134 20.88C339.894 17.12 336.774 15.36 332.214 15.36C327.334 15.36 324.454 17.12 322.694 19.12C321.574 20.4 320.934 21.76 320.694 22.88L320.294 24.72H320.134L320.374 23.92C320.614 22.48 320.774 20.96 320.774 19.52V16.56H308.534V56.08H320.774V35.68C320.774 29.84 322.534 26.32 326.614 26.32C330.454 26.32 332.294 29.28 332.294 35.68C332.294 36.96 332.294 56.08 332.294 56.08H344.614V35.68C344.614 29.84 346.374 26.32 350.454 26.32C354.294 26.32 356.134 29.44 356.134 35.6C356.134 36.88 356.134 56.08 356.134 56.08H368.454V31.6C368.454 21.04 363.174 15.36 354.534 15.36C349.334 15.36 346.294 17.6 344.614 19.6C343.574 20.88 343.094 22.16 342.854 23.12C342.854 23.2 342.534 24.72 342.534 24.72H342.374L342.534 24C342.854 22.64 342.614 21.68 342.134 20.88ZM396.538 40.72C396.538 43.76 393.898 46.8 389.658 46.8C387.258 46.8 385.978 45.68 385.818 44.16C385.738 42.48 386.858 41.12 389.418 40.64C391.418 40.32 393.498 39.84 394.538 39.52C396.138 39.2 396.618 38.8 396.618 38.8L396.538 40.72ZM411.418 46.16H409.578C409.178 46.16 408.778 45.76 408.778 45.36V31.68C408.938 21.52 403.258 15.36 392.298 15.36C386.698 15.36 382.138 16.96 379.018 19.92C375.658 23.04 374.618 27.04 375.098 30.88L387.178 29.52C387.018 28.56 387.178 27.44 387.818 26.64C388.618 25.68 390.218 25.04 392.058 25.12C394.858 25.12 396.458 26.56 396.458 28.32C396.458 29.36 395.898 29.92 395.098 30.32C394.218 30.72 391.338 31.2 388.378 31.92C385.738 32.56 382.138 33.44 380.138 34.48C375.258 36.8 373.418 40.72 373.498 45.68C373.498 52 378.698 57.28 386.858 57.28C392.538 57.2 395.978 54.72 397.738 51.52C398.218 50.64 398.698 49.04 399.018 47.76C399.098 47.2 399.178 46.56 399.178 46.56L399.338 46.64L399.258 47.2C399.098 47.92 399.018 48.64 398.938 49.36C398.938 49.92 398.858 50.88 398.858 51.68C398.858 54.16 400.538 56 403.498 56.08H411.418V46.16ZM428.977 38.8C428.977 32.16 430.337 27.12 432.737 27.12C434.497 27.12 434.737 29.52 434.737 31.44V35.68L447.057 35.6V26.4C447.057 20.64 444.977 15.36 438.497 15.36C436.337 15.36 434.177 16.24 432.737 17.6C430.897 19.36 430.017 21.52 429.537 22.96C429.377 23.6 429.137 24.72 429.057 25.44L428.737 27.44H428.577L428.737 26.4C428.897 25.2 428.977 23.92 428.977 22.72V16.56H416.737V56.08H428.977V38.8ZM481.889 28.48L489.489 16.56H474.929C474.929 16.56 467.009 28.88 465.809 30.8C465.089 31.92 464.529 33.52 464.529 35.12L464.449 37.28H464.289V2.56H452.049V56.08H464.289L471.729 44.4L477.489 56.08H491.089L481.409 36.24C480.209 33.76 480.449 30.8 481.889 28.48ZM509.27 26.32C512.63 26.32 514.95 28.56 515.83 31.92H502.63C503.51 28.56 505.83 26.32 509.27 26.32ZM528.63 40.32C528.79 39.04 528.95 37.76 528.95 36.32C528.95 23.28 520.55 15.36 509.27 15.36C497.91 15.36 489.59 23.28 489.59 36.32C489.59 49.44 497.91 57.28 509.27 57.28C517.83 57.28 524.71 52.72 527.51 44.8L515.03 42.56C513.91 44.88 511.91 46.32 509.27 46.32C505.75 46.32 503.35 43.92 502.55 40.32H528.63ZM548.92 45.12C548.44 45.12 548.04 44.72 548.04 44.24V26.48H554.2V16.56H548.04V2.48H537.24C537.24 2.48 537.24 11.52 537.24 12.72C537.24 15.12 535.32 17.04 532.92 17.04H530.12V26.48H535.72C535.72 28.96 535.72 49.28 535.72 49.52C535.72 53.12 538.6 56 542.28 56H556.44V45.12H548.92ZM620.566 56.08V32.88C620.566 22.4 616.006 15.36 606.806 15.36C603.286 15.36 600.886 16.4 599.206 17.6C597.126 19.2 596.406 21.28 596.006 22.88L595.606 24.72H595.446L595.686 23.92C595.926 22.48 596.086 20.96 596.086 19.52V2.56H583.846V56.08H596.086V35.68C596.086 29.84 598.006 26.32 602.246 26.32C606.646 26.32 608.246 29.76 608.246 35.92C608.246 37.2 608.246 56.08 608.246 56.08H620.566ZM648.569 40.72C648.569 43.76 645.929 46.8 641.689 46.8C639.289 46.8 638.009 45.68 637.849 44.16C637.769 42.48 638.889 41.12 641.449 40.64C643.449 40.32 645.529 39.84 646.569 39.52C648.169 39.2 648.649 38.8 648.649 38.8L648.569 40.72ZM663.449 46.16H661.609C661.209 46.16 660.809 45.76 660.809 45.36V31.68C660.969 21.52 655.289 15.36 644.329 15.36C638.729 15.36 634.169 16.96 631.049 19.92C627.689 23.04 626.649 27.04 627.129 30.88L639.209 29.52C639.049 28.56 639.209 27.44 639.849 26.64C640.649 25.68 642.249 25.04 644.089 25.12C646.889 25.12 648.489 26.56 648.489 28.32C648.489 29.36 647.929 29.92 647.129 30.32C646.249 30.72 643.369 31.2 640.409 31.92C637.769 32.56 634.169 33.44 632.169 34.48C627.289 36.8 625.449 40.72 625.529 45.68C625.529 52 630.729 57.28 638.889 57.28C644.569 57.2 648.009 54.72 649.769 51.52C650.249 50.64 650.729 49.04 651.049 47.76C651.129 47.2 651.209 46.56 651.209 46.56L651.369 46.64L651.289 47.2C651.129 47.92 651.049 48.64 650.969 49.36C650.969 49.92 650.889 50.88 650.889 51.68C650.889 54.16 652.569 56 655.529 56.08H663.449V46.16ZM701.568 44.96C701.568 36.24 694.128 33.92 687.968 32.24C684.848 31.36 680.448 30.72 680.448 28.08C680.448 26.4 681.648 25.2 684.608 25.2C687.648 25.2 688.928 26.56 688.928 28.4L700.208 28.48C700.208 20.4 694.368 15.36 684.048 15.36C673.168 15.36 668.128 20.72 668.128 26.64C668.128 35.28 674.848 37.76 681.008 39.44C685.408 40.64 689.168 41.6 689.168 44.08C689.168 46.24 687.248 47.28 684.528 47.28C680.768 47.28 679.488 44.72 679.488 42.88H667.248C667.248 51.12 673.168 57.2 685.088 57.2C695.968 57.2 701.568 52.08 701.568 44.96ZM45.52 106.32C48.88 106.32 51.2 108.56 52.08 111.92H38.88C39.76 108.56 42.08 106.32 45.52 106.32ZM64.88 120.32C65.04 119.04 65.2 117.76 65.2 116.32C65.2 103.28 56.8 95.36 45.52 95.36C34.16 95.36 25.84 103.28 25.84 116.32C25.84 129.44 34.16 137.28 45.52 137.28C54.08 137.28 60.96 132.72 63.76 124.8L51.28 122.56C50.16 124.88 48.16 126.32 45.52 126.32C42 126.32 39.6 123.92 38.8 120.32H64.88ZM93.0956 96.56L86.1356 124.24C85.8956 125.36 85.7356 126.4 85.7356 127.52V129.36H85.5756V127.52C85.5756 126.48 85.4956 125.36 85.1756 124.24L78.2156 96.56H65.6556L75.5756 136H95.7356L105.736 96.56H93.0956ZM117.689 116.32C117.689 110.16 120.569 106.32 125.129 106.32C129.609 106.32 132.489 110.16 132.489 116.32C132.489 122.48 129.609 126.32 125.129 126.32C120.569 126.32 117.689 122.48 117.689 116.32ZM144.809 116.32C144.809 103.28 136.409 95.36 125.129 95.36C113.769 95.36 105.449 103.28 105.449 116.32C105.449 129.44 113.769 137.28 125.129 137.28C136.409 137.28 144.809 129.44 144.809 116.32ZM150.014 129.52C150.014 133.12 152.894 136.08 156.494 136.08H167.854V125.12H163.214C162.654 125.12 162.254 124.72 162.254 124.24V82.56H150.014C150.014 82.56 150.014 129.2 150.014 129.52ZM193.643 96.56L186.682 124.24C186.443 125.36 186.283 126.4 186.283 127.52V129.36H186.122V127.52C186.122 126.48 186.043 125.36 185.723 124.24L178.763 96.56H166.203L176.122 136H196.283L206.283 96.56H193.643ZM225.676 106.32C229.036 106.32 231.356 108.56 232.236 111.92H219.036C219.916 108.56 222.236 106.32 225.676 106.32ZM245.036 120.32C245.196 119.04 245.356 117.76 245.356 116.32C245.356 103.28 236.956 95.36 225.676 95.36C214.316 95.36 205.996 103.28 205.996 116.32C205.996 129.44 214.316 137.28 225.676 137.28C234.236 137.28 241.116 132.72 243.916 124.8L231.436 122.56C230.316 124.88 228.316 126.32 225.676 126.32C222.156 126.32 219.756 123.92 218.956 120.32H245.036ZM261.443 116.32C261.443 110.08 264.323 106.24 268.883 106.24C273.363 106.24 276.083 110.08 276.083 116.32C276.083 122.48 273.363 126.32 268.883 126.32C264.323 126.32 261.443 122.48 261.443 116.32ZM276.803 82.48V99.76C276.803 101.28 276.963 102.72 277.283 104.16L277.443 104.96H277.283L276.803 102.88C276.163 100.16 274.243 95.36 266.003 95.36C255.363 95.36 249.203 104.4 249.203 116.32C249.203 128.16 255.363 137.2 266.003 137.2C274.243 137.2 276.163 132.4 276.803 129.68L277.283 127.6H277.443L277.283 128.4C276.963 129.84 276.803 131.36 276.803 132.8V136H289.123V82.48H276.803ZM298.789 136.72C302.389 136.72 305.269 133.76 305.269 130.24C305.269 126.64 302.389 123.76 298.789 123.76C295.269 123.76 292.389 126.64 292.389 130.24C292.389 133.76 295.269 136.72 298.789 136.72ZM368.762 114.96C367.642 121.6 362.922 125.6 357.082 125.6C349.722 125.6 344.762 119.52 344.762 109.28C344.762 98.96 349.722 92.88 357.082 92.88C362.762 92.88 367.562 96.64 368.682 103.12L382.602 101.12C380.122 88.56 369.642 81.28 357.082 81.28C342.042 81.28 330.682 91.68 330.682 109.28C330.682 126.8 342.042 137.2 357.082 137.2C369.802 137.2 380.282 129.68 382.682 116.96L368.762 114.96ZM409.116 120.72C409.116 123.76 406.476 126.8 402.236 126.8C399.836 126.8 398.556 125.68 398.396 124.16C398.316 122.48 399.436 121.12 401.996 120.64C403.996 120.32 406.076 119.84 407.116 119.52C408.716 119.2 409.196 118.8 409.196 118.8L409.116 120.72ZM423.996 126.16H422.156C421.756 126.16 421.356 125.76 421.356 125.36V111.68C421.516 101.52 415.836 95.36 404.876 95.36C399.276 95.36 394.716 96.96 391.596 99.92C388.236 103.04 387.196 107.04 387.676 110.88L399.756 109.52C399.596 108.56 399.756 107.44 400.396 106.64C401.196 105.68 402.796 105.04 404.636 105.12C407.436 105.12 409.036 106.56 409.036 108.32C409.036 109.36 408.476 109.92 407.676 110.32C406.796 110.72 403.916 111.2 400.956 111.92C398.316 112.56 394.716 113.44 392.716 114.48C387.836 116.8 385.996 120.72 386.076 125.68C386.076 132 391.276 137.28 399.436 137.28C405.116 137.2 408.556 134.72 410.316 131.52C410.796 130.64 411.276 129.04 411.596 127.76C411.676 127.2 411.756 126.56 411.756 126.56L411.916 126.64L411.836 127.2C411.676 127.92 411.596 128.64 411.516 129.36C411.516 129.92 411.436 130.88 411.436 131.68C411.436 134.16 413.116 136 416.076 136.08H423.996V126.16ZM441.555 118.8C441.555 112.16 442.915 107.12 445.315 107.12C447.075 107.12 447.315 109.52 447.315 111.44V115.68L459.635 115.6V106.4C459.635 100.64 457.555 95.36 451.075 95.36C448.915 95.36 446.755 96.24 445.315 97.6C443.475 99.36 442.595 101.52 442.115 102.96C441.955 103.6 441.715 104.72 441.635 105.44L441.315 107.44H441.155L441.315 106.4C441.475 105.2 441.555 103.92 441.555 102.72V96.56H429.315V136.08H441.555V118.8ZM482.708 106.32C486.068 106.32 488.388 108.56 489.268 111.92H476.068C476.948 108.56 479.268 106.32 482.708 106.32ZM502.068 120.32C502.228 119.04 502.388 117.76 502.388 116.32C502.388 103.28 493.988 95.36 482.708 95.36C471.348 95.36 463.028 103.28 463.028 116.32C463.028 129.44 471.348 137.28 482.708 137.28C491.268 137.28 498.148 132.72 500.948 124.8L488.468 122.56C487.348 124.88 485.348 126.32 482.708 126.32C479.188 126.32 476.788 123.92 475.988 120.32H502.068ZM525.754 106.32C529.114 106.32 531.434 108.56 532.314 111.92H519.114C519.994 108.56 522.314 106.32 525.754 106.32ZM545.114 120.32C545.274 119.04 545.434 117.76 545.434 116.32C545.434 103.28 537.034 95.36 525.754 95.36C514.394 95.36 506.074 103.28 506.074 116.32C506.074 129.44 514.394 137.28 525.754 137.28C534.314 137.28 541.194 132.72 543.994 124.8L531.514 122.56C530.394 124.88 528.394 126.32 525.754 126.32C522.234 126.32 519.834 123.92 519.034 120.32H545.114ZM562.961 118.8C562.961 112.16 564.321 107.12 566.721 107.12C568.481 107.12 568.721 109.52 568.721 111.44V115.68L581.041 115.6V106.4C581.041 100.64 578.961 95.36 572.481 95.36C570.321 95.36 568.161 96.24 566.721 97.6C564.881 99.36 564.001 101.52 563.521 102.96C563.361 103.6 563.121 104.72 563.041 105.44L562.721 107.44H562.561L562.721 106.4C562.881 105.2 562.961 103.92 562.961 102.72V96.56H550.721V136.08H562.961V118.8ZM45.52 186.32C48.88 186.32 51.2 188.56 52.08 191.92H38.88C39.76 188.56 42.08 186.32 45.52 186.32ZM64.88 200.32C65.04 199.04 65.2 197.76 65.2 196.32C65.2 183.28 56.8 175.36 45.52 175.36C34.16 175.36 25.84 183.28 25.84 196.32C25.84 209.44 34.16 217.28 45.52 217.28C54.08 217.28 60.96 212.72 63.76 204.8L51.28 202.56C50.16 204.88 48.16 206.32 45.52 206.32C42 206.32 39.6 203.92 38.8 200.32H64.88ZM105.816 176.56H92.3756L86.4556 187.68C86.0556 188.48 85.8956 189.44 85.8956 190.4V192.16H85.6556V190.4C85.6556 189.44 85.4956 188.48 85.0956 187.68L79.1756 176.56H65.7356L73.9756 192.96C74.9356 195.04 74.9356 197.52 73.9756 199.6L65.7356 216H79.1756L85.0956 204.96C85.4956 204.08 85.6556 203.12 85.6556 202.16V200.4H85.8956V202.16C85.8956 203.12 86.0556 204.08 86.4556 204.96L92.3756 216H105.816L97.5756 199.6C96.6156 197.52 96.6156 195.04 97.5756 192.96L105.816 176.56ZM136.837 196.32C136.837 202.48 133.957 206.32 129.477 206.32C124.917 206.32 122.197 202.48 122.197 196.32C122.197 190.16 124.917 186.32 129.477 186.32C133.957 186.32 136.837 190.16 136.837 196.32ZM121.477 230.16V212.88C121.477 211.36 121.317 209.92 121.077 208.48L120.837 207.68L120.997 207.6L121.477 209.68C122.117 212.48 124.037 217.28 132.277 217.28C142.917 217.28 149.157 208.16 149.157 196.32C149.157 184.48 142.917 175.36 132.277 175.36C124.037 175.36 122.117 180.24 121.477 182.96L120.997 185.04L120.837 184.96L121.077 184.16C121.317 182.72 121.477 181.28 121.477 179.84V176.56H109.237V230.16H121.477ZM172.786 186.32C176.146 186.32 178.466 188.56 179.346 191.92H166.146C167.026 188.56 169.346 186.32 172.786 186.32ZM192.146 200.32C192.306 199.04 192.466 197.76 192.466 196.32C192.466 183.28 184.066 175.36 172.786 175.36C161.426 175.36 153.106 183.28 153.106 196.32C153.106 209.44 161.426 217.28 172.786 217.28C181.346 217.28 188.226 212.72 191.026 204.8L178.546 202.56C177.426 204.88 175.426 206.32 172.786 206.32C169.266 206.32 166.866 203.92 166.066 200.32H192.146ZM223.033 198.24C222.553 203.36 219.833 206.32 215.833 206.32C211.273 206.32 208.393 202.48 208.393 196.32C208.393 190.16 211.273 186.32 215.833 186.32C219.833 186.32 222.553 189.36 223.033 194.4L235.273 193.28C234.153 182 226.233 175.36 215.833 175.36C204.473 175.36 196.153 183.28 196.153 196.32C196.153 209.44 204.473 217.28 215.833 217.28C226.233 217.28 234.153 210.72 235.273 199.44L223.033 198.24ZM257.045 205.12C256.565 205.12 256.165 204.72 256.165 204.24V186.48H262.325V176.56H256.165V162.48H245.365C245.365 162.48 245.365 171.52 245.365 172.72C245.365 175.12 243.445 177.04 241.045 177.04H238.245V186.48H243.845C243.845 188.96 243.845 209.28 243.845 209.52C243.845 213.12 246.725 216 250.405 216H264.565V205.12H257.045ZM291.226 200.72C291.226 203.76 288.586 206.8 284.346 206.8C281.946 206.8 280.666 205.68 280.506 204.16C280.426 202.48 281.546 201.12 284.106 200.64C286.106 200.32 288.186 199.84 289.226 199.52C290.826 199.2 291.306 198.8 291.306 198.8L291.226 200.72ZM306.106 206.16H304.266C303.866 206.16 303.466 205.76 303.466 205.36V191.68C303.626 181.52 297.946 175.36 286.986 175.36C281.386 175.36 276.826 176.96 273.706 179.92C270.346 183.04 269.306 187.04 269.786 190.88L281.866 189.52C281.706 188.56 281.866 187.44 282.506 186.64C283.306 185.68 284.906 185.04 286.746 185.12C289.546 185.12 291.146 186.56 291.146 188.32C291.146 189.36 290.586 189.92 289.786 190.32C288.906 190.72 286.026 191.2 283.066 191.92C280.426 192.56 276.826 193.44 274.826 194.48C269.946 196.8 268.106 200.72 268.186 205.68C268.186 212 273.386 217.28 281.546 217.28C287.226 217.2 290.666 214.72 292.426 211.52C292.906 210.64 293.386 209.04 293.706 207.76C293.786 207.2 293.866 206.56 293.866 206.56L294.026 206.64L293.946 207.2C293.786 207.92 293.706 208.64 293.626 209.36C293.626 209.92 293.546 210.88 293.546 211.68C293.546 214.16 295.226 216 298.186 216.08H306.106V206.16ZM326.186 205.12C325.706 205.12 325.306 204.72 325.306 204.24V186.48H331.466V176.56H325.306V162.48H314.506C314.506 162.48 314.506 171.52 314.506 172.72C314.506 175.12 312.586 177.04 310.186 177.04H307.386V186.48H312.986C312.986 188.96 312.986 209.28 312.986 209.52C312.986 213.12 315.866 216 319.546 216H333.706V205.12H326.186ZM338.766 216.08H351.086C351.086 213.52 351.086 176.64 351.086 176.56H338.766V216.08ZM344.926 173.92C348.526 173.92 351.406 170.96 351.406 167.44C351.406 163.84 348.526 160.96 344.926 160.96C341.406 160.96 338.526 163.84 338.526 167.44C338.526 170.96 341.406 173.92 344.926 173.92ZM367.846 196.32C367.846 190.16 370.726 186.32 375.286 186.32C379.766 186.32 382.646 190.16 382.646 196.32C382.646 202.48 379.766 206.32 375.286 206.32C370.726 206.32 367.846 202.48 367.846 196.32ZM394.966 196.32C394.966 183.28 386.566 175.36 375.286 175.36C363.926 175.36 355.606 183.28 355.606 196.32C355.606 209.44 363.926 217.28 375.286 217.28C386.566 217.28 394.966 209.44 394.966 196.32ZM436.269 192.88C436.269 182.4 431.549 175.36 422.509 175.36C417.549 175.36 414.829 177.2 413.309 179.2C412.429 180.4 411.949 181.76 411.709 182.88L411.309 184.72H411.149L411.389 183.92C411.629 182.48 411.789 180.96 411.789 179.52V176.56H399.549V216.08H411.789V195.68C411.789 189.84 413.709 186.32 417.949 186.32C422.189 186.32 423.949 189.76 423.949 195.92C423.949 197.2 423.949 216.08 423.949 216.08H436.269V192.88ZM475.553 204.96C475.553 196.24 468.113 193.92 461.953 192.24C458.833 191.36 454.433 190.72 454.433 188.08C454.433 186.4 455.633 185.2 458.593 185.2C461.633 185.2 462.913 186.56 462.913 188.4L474.193 188.48C474.193 180.4 468.353 175.36 458.033 175.36C447.153 175.36 442.113 180.72 442.113 186.64C442.113 195.28 448.833 197.76 454.993 199.44C459.393 200.64 463.153 201.6 463.153 204.08C463.153 206.24 461.233 207.28 458.513 207.28C454.753 207.28 453.473 204.72 453.473 202.88H441.233C441.233 211.12 447.153 217.2 459.073 217.2C469.953 217.2 475.553 212.08 475.553 204.96ZM539.941 216.08V192.88C539.941 182.4 535.381 175.36 526.181 175.36C522.661 175.36 520.261 176.4 518.581 177.6C516.501 179.2 515.781 181.28 515.381 182.88L514.981 184.72H514.821L515.061 183.92C515.301 182.48 515.461 180.96 515.461 179.52V162.56H503.221V216.08H515.461V195.68C515.461 189.84 517.381 186.32 521.621 186.32C526.021 186.32 527.621 189.76 527.621 195.92C527.621 197.2 527.621 216.08 527.621 216.08H539.941ZM567.944 200.72C567.944 203.76 565.304 206.8 561.064 206.8C558.664 206.8 557.384 205.68 557.224 204.16C557.144 202.48 558.264 201.12 560.824 200.64C562.824 200.32 564.904 199.84 565.944 199.52C567.544 199.2 568.024 198.8 568.024 198.8L567.944 200.72ZM582.824 206.16H580.984C580.584 206.16 580.184 205.76 580.184 205.36V191.68C580.344 181.52 574.664 175.36 563.704 175.36C558.104 175.36 553.544 176.96 550.424 179.92C547.064 183.04 546.024 187.04 546.504 190.88L558.584 189.52C558.424 188.56 558.584 187.44 559.224 186.64C560.024 185.68 561.624 185.04 563.464 185.12C566.264 185.12 567.864 186.56 567.864 188.32C567.864 189.36 567.304 189.92 566.504 190.32C565.624 190.72 562.744 191.2 559.784 191.92C557.144 192.56 553.544 193.44 551.544 194.48C546.664 196.8 544.824 200.72 544.904 205.68C544.904 212 550.104 217.28 558.264 217.28C563.944 217.2 567.384 214.72 569.144 211.52C569.624 210.64 570.104 209.04 570.424 207.76C570.504 207.2 570.584 206.56 570.584 206.56L570.744 206.64L570.664 207.2C570.504 207.92 570.424 208.64 570.344 209.36C570.344 209.92 570.264 210.88 570.264 211.68C570.264 214.16 571.944 216 574.904 216.08H582.824V206.16ZM610.986 176.56L604.026 204.24C603.786 205.36 603.626 206.4 603.626 207.52V209.36H603.466V207.52C603.466 206.48 603.386 205.36 603.066 204.24L596.106 176.56H583.546L593.466 216H613.626L623.626 176.56H610.986ZM643.02 186.32C646.38 186.32 648.7 188.56 649.58 191.92H636.38C637.26 188.56 639.58 186.32 643.02 186.32ZM662.38 200.32C662.54 199.04 662.7 197.76 662.7 196.32C662.7 183.28 654.3 175.36 643.02 175.36C631.66 175.36 623.34 183.28 623.34 196.32C623.34 209.44 631.66 217.28 643.02 217.28C651.58 217.28 658.46 212.72 661.26 204.8L648.78 202.56C647.66 204.88 645.66 206.32 643.02 206.32C639.5 206.32 637.1 203.92 636.3 200.32H662.38ZM52.72 278.24C52.24 283.36 49.52 286.32 45.52 286.32C40.96 286.32 38.08 282.48 38.08 276.32C38.08 270.16 40.96 266.32 45.52 266.32C49.52 266.32 52.24 269.36 52.72 274.4L64.96 273.28C63.84 262 55.92 255.36 45.52 255.36C34.16 255.36 25.84 263.28 25.84 276.32C25.84 289.44 34.16 297.28 45.52 297.28C55.92 297.28 63.84 290.72 64.96 279.44L52.72 278.24ZM106.973 296.08V272.88C106.973 262.4 102.413 255.36 93.2125 255.36C89.6925 255.36 87.2925 256.4 85.6125 257.6C83.5325 259.2 82.8125 261.28 82.4125 262.88L82.0125 264.72H81.8525L82.0925 263.92C82.3325 262.48 82.4925 260.96 82.4925 259.52V242.56H70.2525V296.08H82.4925V275.68C82.4925 269.84 84.4125 266.32 88.6525 266.32C93.0525 266.32 94.6525 269.76 94.6525 275.92C94.6525 277.2 94.6525 296.08 94.6525 296.08H106.973ZM134.976 280.72C134.976 283.76 132.336 286.8 128.096 286.8C125.696 286.8 124.416 285.68 124.256 284.16C124.176 282.48 125.296 281.12 127.856 280.64C129.856 280.32 131.936 279.84 132.976 279.52C134.576 279.2 135.056 278.8 135.056 278.8L134.976 280.72ZM149.856 286.16H148.016C147.616 286.16 147.216 285.76 147.216 285.36V271.68C147.376 261.52 141.696 255.36 130.736 255.36C125.136 255.36 120.576 256.96 117.456 259.92C114.096 263.04 113.056 267.04 113.536 270.88L125.616 269.52C125.456 268.56 125.616 267.44 126.256 266.64C127.056 265.68 128.656 265.04 130.496 265.12C133.296 265.12 134.896 266.56 134.896 268.32C134.896 269.36 134.336 269.92 133.536 270.32C132.656 270.72 129.776 271.2 126.816 271.92C124.176 272.56 120.576 273.44 118.576 274.48C113.696 276.8 111.856 280.72 111.936 285.68C111.936 292 117.136 297.28 125.296 297.28C130.976 297.2 134.416 294.72 136.176 291.52C136.656 290.64 137.136 289.04 137.456 287.76C137.536 287.2 137.616 286.56 137.616 286.56L137.776 286.64L137.696 287.2C137.536 287.92 137.456 288.64 137.376 289.36C137.376 289.92 137.296 290.88 137.296 291.68C137.296 294.16 138.976 296 141.936 296.08H149.856V286.16ZM191.894 272.88C191.894 262.4 187.174 255.36 178.134 255.36C173.174 255.36 170.454 257.2 168.934 259.2C168.054 260.4 167.574 261.76 167.334 262.88L166.934 264.72H166.774L167.014 263.92C167.254 262.48 167.414 260.96 167.414 259.52V256.56H155.174V296.08H167.414V275.68C167.414 269.84 169.334 266.32 173.574 266.32C177.814 266.32 179.574 269.76 179.574 275.92C179.574 277.2 179.574 296.08 179.574 296.08H191.894V272.88ZM215.758 286.32C211.198 286.32 208.318 282.48 208.318 276.32C208.318 270.16 211.198 266.32 215.758 266.32C220.238 266.32 222.958 270.16 222.958 276.32C222.958 282.48 220.238 286.32 215.758 286.32ZM235.998 289.6V256.56H223.678V259.84C223.678 261.28 223.838 262.72 224.158 264.16L224.318 264.96L224.158 265.04L223.678 262.96C223.038 260.16 221.118 255.36 212.878 255.36C202.238 255.36 196.078 264.48 196.078 276.32C196.078 288.16 202.238 297.28 212.878 297.28C221.118 297.28 223.038 292.48 223.678 289.68L224.158 287.6L224.318 287.68L224.158 288.48C223.918 289.36 223.838 290.24 223.758 291.12C223.678 291.68 223.678 292.72 223.678 293.36C223.678 295.76 224.638 296.88 224.638 298.24C224.638 299.68 223.598 300.16 222.078 300.16H201.598V310.16H225.918C234.798 310.16 237.438 306 237.438 300.56C237.438 295.44 235.998 295.12 235.998 289.6ZM260.364 266.32C263.724 266.32 266.044 268.56 266.924 271.92H253.724C254.604 268.56 256.924 266.32 260.364 266.32ZM279.724 280.32C279.884 279.04 280.044 277.76 280.044 276.32C280.044 263.28 271.644 255.36 260.364 255.36C249.004 255.36 240.684 263.28 240.684 276.32C240.684 289.44 249.004 297.28 260.364 297.28C268.924 297.28 275.804 292.72 278.604 284.8L266.124 282.56C265.004 284.88 263.004 286.32 260.364 286.32C256.844 286.32 254.444 283.92 253.644 280.32H279.724ZM296.131 276.32C296.131 270.08 299.011 266.24 303.571 266.24C308.051 266.24 310.771 270.08 310.771 276.32C310.771 282.48 308.051 286.32 303.571 286.32C299.011 286.32 296.131 282.48 296.131 276.32ZM311.491 242.48V259.76C311.491 261.28 311.651 262.72 311.971 264.16L312.131 264.96H311.971L311.491 262.88C310.851 260.16 308.931 255.36 300.691 255.36C290.051 255.36 283.891 264.4 283.891 276.32C283.891 288.16 290.051 297.2 300.691 297.2C308.931 297.2 310.851 292.4 311.491 289.68L311.971 287.6H312.131L311.971 288.4C311.651 289.84 311.491 291.36 311.491 292.8V296H323.811V242.48H311.491ZM333.477 296.72C337.077 296.72 339.957 293.76 339.957 290.24C339.957 286.64 337.077 283.76 333.477 283.76C329.957 283.76 327.077 286.64 327.077 290.24C327.077 293.76 329.957 296.72 333.477 296.72Z" fill="#FFF6E9"/>
</svg>
