<svg width="97" height="95" viewBox="0 0 97 95" fill="none" xmlns="http://www.w3.org/2000/svg">
<path fill-rule="evenodd" clip-rule="evenodd" d="M64.168 59.2443C65.7301 57.7148 68.2627 57.7148 69.8248 59.2443L78.6207 67.8569C79.3709 68.5914 79.7923 69.5876 79.7923 70.6264C79.7923 71.6652 79.3709 72.6614 78.6207 73.3959L63.9608 87.7502C63.3489 88.3494 62.5549 88.7381 61.6981 88.858L51.4362 90.2934C50.1898 90.4678 48.9324 90.0573 48.0421 89.1856C47.1518 88.3139 46.7327 87.0826 46.9107 85.8622L48.3767 75.8142C48.4991 74.9753 48.8961 74.1978 49.5081 73.5986L64.168 59.2443ZM66.9964 67.5528L56.1077 78.2145L55.5846 81.8003L59.2468 81.288L70.1354 70.6264L66.9964 67.5528Z" fill="#FFF6E9"/>
<path fill-rule="evenodd" clip-rule="evenodd" d="M70.0318 53.5028C73.2132 50.3877 78.3712 50.3877 81.5526 53.5028L84.4845 56.3737C87.6659 59.4887 87.6659 64.5392 84.4846 67.6543C84.4846 67.6543 84.4847 67.6543 84.4846 67.6543L78.6209 73.3962C77.8708 74.1308 76.8533 74.5434 75.7925 74.5435C74.7316 74.5435 73.7141 74.1308 72.964 73.3963L64.1681 64.7837C62.606 63.2542 62.6059 60.7744 64.168 59.2448L70.0318 53.5028ZM75.6886 59.0418C75.6886 59.0419 75.6886 59.0418 75.6886 59.0418L72.6533 62.0141L75.7923 65.0877L78.8276 62.1155C78.8848 62.0595 78.8849 61.9687 78.8277 61.9127L75.8957 59.0418C75.8386 58.9859 75.7458 58.9859 75.6886 59.0418Z" fill="#FFF6E9"/>
<path fill-rule="evenodd" clip-rule="evenodd" d="M46.8705 31.5831H26.8705V23.7498H46.8705V31.5831Z" fill="#303030"/>
<path fill-rule="evenodd" clip-rule="evenodd" d="M54.8705 51.1666H26.8705V43.3333H54.8705V51.1666Z" fill="#303030"/>
<path fill-rule="evenodd" clip-rule="evenodd" d="M38.8705 70.7498H26.8705V62.9165H38.8705V70.7498Z" fill="#303030"/>
<path fill-rule="evenodd" clip-rule="evenodd" d="M26.8705 11.9998C22.4522 11.9998 18.8705 15.5069 18.8705 19.8332V74.6665C18.8705 78.9927 22.4522 82.4998 26.8705 82.4998H38.8705V90.3332H26.8705C18.0339 90.3332 10.8705 83.319 10.8705 74.6665V19.8332C10.8705 11.1807 18.0339 4.1665 26.8705 4.1665H54.8705C55.9314 4.1665 56.9488 4.57915 57.6989 5.31367L81.6989 28.8137C82.4491 29.5482 82.8705 30.5444 82.8705 31.5832V43.3332H74.8705V33.2055L53.2136 11.9998H26.8705Z" fill="#303030"/>
<path fill-rule="evenodd" clip-rule="evenodd" d="M53.3397 4.46476C54.8344 3.85853 56.5549 4.19362 57.6989 5.31378L81.6989 28.8138C82.8429 29.9339 83.1851 31.6186 82.566 33.0821C81.9469 34.5457 80.4883 35.5 78.8705 35.5H66.8705C58.0339 35.5 50.8705 28.4857 50.8705 19.8333V8.08328C50.8705 6.49914 51.8451 5.07098 53.3397 4.46476ZM58.8705 17.539V19.8333C58.8705 24.1595 62.4522 27.6666 66.8705 27.6666H69.2136L58.8705 17.539Z" fill="#303030"/>
</svg>
