<svg width="81" height="79" viewBox="0 0 81 79" fill="none" xmlns="http://www.w3.org/2000/svg">
<path fill-rule="evenodd" clip-rule="evenodd" d="M40.8702 8.0262C58.5433 8.0262 72.8702 22.0546 72.8702 39.3595C72.8702 44.3267 71.6927 49.0134 69.5998 53.1768C69.024 54.3222 68.8154 55.6607 69.094 56.9899L71.7553 69.6878L58.264 67.2161C56.9701 66.9791 55.6746 67.1728 54.5549 67.6923C50.4107 69.6152 45.7745 70.6929 40.8702 70.6929C23.1971 70.6929 8.87018 56.6645 8.87018 39.3595C8.87018 22.0546 23.1971 8.0262 40.8702 8.0262ZM80.8702 39.3595C80.8702 17.7284 62.9616 0.192871 40.8702 0.192871C18.7788 0.192871 0.870178 17.7284 0.870178 39.3595C0.870178 60.9907 18.7788 78.5262 40.8702 78.5262C46.7621 78.5262 52.3662 77.2764 57.4125 75.0294L73.2093 77.9235C77.399 78.691 81.0471 75.056 80.1902 70.9676L77.0644 56.0531C79.5064 50.9846 80.8702 45.3229 80.8702 39.3595Z" fill="#303030"/>
<path fill-rule="evenodd" clip-rule="evenodd" d="M40.8703 17.8179C42.6032 17.8179 44.1391 18.9105 44.6746 20.5242L47.8177 29.9964H57.9893C59.7223 29.9964 61.2581 31.089 61.7936 32.7028C62.3291 34.3166 61.7424 36.0844 60.3405 37.0818L52.1115 42.9359L55.2547 52.4081C55.7902 54.0219 55.2036 55.7898 53.8016 56.7871C52.3997 57.7845 50.5013 57.7845 49.0993 56.7871L40.8703 50.933L32.6413 56.7871C31.2394 57.7845 29.341 57.7845 27.9391 56.7871C26.5371 55.7898 25.9505 54.0219 26.486 52.4081L29.6292 42.9359L21.4002 37.0818C19.9982 36.0844 19.4116 34.3166 19.9471 32.7028C20.4826 31.089 22.0184 29.9964 23.7513 29.9964H33.9229L37.0661 20.5242C37.6016 18.9105 39.1374 17.8179 40.8703 17.8179ZM40.8703 34.4091L40.6333 35.1234C40.0978 36.7372 38.562 37.8298 36.8291 37.8298H36.062L36.6826 38.2712C38.0845 39.2686 38.6712 41.0364 38.1357 42.6502L37.8986 43.3645L38.5192 42.923C39.9211 41.9257 41.8195 41.9257 43.2215 42.923L43.842 43.3645L43.605 42.6502C43.0695 41.0364 43.6561 39.2686 45.0581 38.2712L45.6786 37.8298H44.9116C43.1787 37.8298 41.6429 36.7372 41.1074 35.1234L40.8703 34.4091Z" fill="#FFF6E9"/>
</svg>
