<svg width="81" height="77" viewBox="0 0 81 77" fill="none" xmlns="http://www.w3.org/2000/svg">
<path fill-rule="evenodd" clip-rule="evenodd" d="M52.8705 8.8527C63.9162 8.8527 72.8705 17.9936 72.8705 29.2694C72.8705 32.4374 72.1664 35.4262 70.9131 38.0916C70.3638 39.2596 70.1477 40.6401 70.4276 42.0323L71.7556 48.6382L64.931 47.3347C63.631 47.0864 62.3492 47.2952 61.2543 47.8121C58.7094 49.0136 55.8724 49.686 52.8705 49.686C41.8248 49.686 32.8705 40.5452 32.8705 29.2694C32.8705 17.9936 41.8248 8.8527 52.8705 8.8527ZM80.8705 29.2694C80.8705 13.4832 68.3345 0.686035 52.8705 0.686035C37.4065 0.686035 24.8705 13.4832 24.8705 29.2694C24.8705 45.0555 37.4065 57.8527 52.8705 57.8527C56.8419 57.8527 60.6296 57.0062 64.0618 55.4771L73.2096 57.2243C77.3993 58.0246 81.0474 54.2348 80.1905 49.9725L78.3941 41.0366C79.986 37.4432 80.8705 33.4566 80.8705 29.2694Z" fill="#303030"/>
<path fill-rule="evenodd" clip-rule="evenodd" d="M18.8734 29.9563C12.8849 33.4926 8.87048 40.0922 8.87048 47.6441C8.87048 50.8122 9.57454 53.8009 10.8279 56.4663C11.3771 57.6344 11.5933 59.0148 11.3134 60.4071L9.98537 67.013L16.8099 65.7094C18.1099 65.4611 19.3917 65.6699 20.4866 66.1868C23.0315 67.3883 25.8686 68.0608 28.8705 68.0608C33.9954 68.0608 38.6618 66.0983 42.2028 62.863L47.5381 68.9483C42.5871 73.4719 36.0392 76.2274 28.8705 76.2274C24.899 76.2274 21.1114 75.381 17.6792 73.8518L8.5314 75.599C4.34169 76.3993 0.693543 72.6096 1.55042 68.3472L3.34683 59.4113C1.75498 55.818 0.870483 51.8313 0.870483 47.6441C0.870483 37.0591 6.5088 27.8232 14.8676 22.8872L18.8734 29.9563Z" fill="#FFF6E9"/>
</svg>
