<svg width="89" height="85" viewBox="0 0 89 85" fill="none" xmlns="http://www.w3.org/2000/svg">
<path fill-rule="evenodd" clip-rule="evenodd" d="M8.8703 76.4488V0.44873H0.8703V80.4488C0.8703 82.6579 2.66116 84.4488 4.8703 84.4488H84.8703V76.4488H8.8703Z" fill="#303030"/>
<path fill-rule="evenodd" clip-rule="evenodd" d="M76.367 30.3915L66.367 48.3915L59.3737 44.5063L69.3737 26.5063L76.367 30.3915Z" fill="#303030"/>
<path fill-rule="evenodd" clip-rule="evenodd" d="M76.8703 16.4487C74.6612 16.4487 72.8703 18.2396 72.8703 20.4487C72.8703 22.6579 74.6612 24.4487 76.8703 24.4487C79.0794 24.4487 80.8703 22.6579 80.8703 20.4487C80.8703 18.2396 79.0794 16.4487 76.8703 16.4487ZM64.8703 20.4487C64.8703 13.8213 70.2429 8.44873 76.8703 8.44873C83.4977 8.44873 88.8703 13.8213 88.8703 20.4487C88.8703 27.0761 83.4977 32.4487 76.8703 32.4487C70.2429 32.4487 64.8703 27.0761 64.8703 20.4487Z" fill="#FFF6E9"/>
<path fill-rule="evenodd" clip-rule="evenodd" d="M24.4481 50.2374L8.44808 82.2374L1.29266 78.6597L17.2927 46.6597L24.4481 50.2374Z" fill="#303030"/>
<path fill-rule="evenodd" clip-rule="evenodd" d="M46.7502 55.8411L30.7502 45.8411L34.9902 39.0571L50.9902 49.0571L46.7502 55.8411Z" fill="#303030"/>
<path fill-rule="evenodd" clip-rule="evenodd" d="M56.8703 48.4487C54.6612 48.4487 52.8703 50.2396 52.8703 52.4487C52.8703 54.6579 54.6612 56.4487 56.8703 56.4487C59.0794 56.4487 60.8703 54.6579 60.8703 52.4487C60.8703 50.2396 59.0794 48.4487 56.8703 48.4487ZM44.8703 52.4487C44.8703 45.8213 50.2429 40.4487 56.8703 40.4487C63.4977 40.4487 68.8703 45.8213 68.8703 52.4487C68.8703 59.0761 63.4977 64.4487 56.8703 64.4487C50.2429 64.4487 44.8703 59.0761 44.8703 52.4487Z" fill="#FFF6E9"/>
<path fill-rule="evenodd" clip-rule="evenodd" d="M24.8703 36.4487C22.6612 36.4487 20.8703 38.2396 20.8703 40.4487C20.8703 42.6579 22.6612 44.4487 24.8703 44.4487C27.0794 44.4487 28.8703 42.6579 28.8703 40.4487C28.8703 38.2396 27.0794 36.4487 24.8703 36.4487ZM12.8703 40.4487C12.8703 33.8213 18.2429 28.4487 24.8703 28.4487C31.4977 28.4487 36.8703 33.8213 36.8703 40.4487C36.8703 47.0761 31.4977 52.4487 24.8703 52.4487C18.2429 52.4487 12.8703 47.0761 12.8703 40.4487Z" fill="#FFF6E9"/>
</svg>
