<svg width="96" height="93" viewBox="0 0 96 93" fill="none" xmlns="http://www.w3.org/2000/svg">
<path fill-rule="evenodd" clip-rule="evenodd" d="M62.8285 55.2869L86.8285 78.3073L81.1716 83.7332L57.1716 60.7128L62.8285 55.2869Z" fill="#FFF6E9"/>
<path fill-rule="evenodd" clip-rule="evenodd" d="M40 15.7958C26.7452 15.7958 16 26.1024 16 38.8162C16 51.53 26.7452 61.8366 40 61.8366C53.2548 61.8366 64 51.53 64 38.8162C64 26.1024 53.2548 15.7958 40 15.7958ZM8 38.8162C8 21.8644 22.3269 8.12231 40 8.12231C57.6731 8.12231 72 21.8644 72 38.8162C72 55.768 57.6731 69.5101 40 69.5101C22.3269 69.5101 8 55.768 8 38.8162Z" fill="#303030"/>
<path fill-rule="evenodd" clip-rule="evenodd" d="M54 38.8162C54 31.3998 47.732 25.3876 40 25.3876V17.7141C52.1503 17.7141 62 27.1618 62 38.8162H54Z" fill="#FFF6E9"/>
</svg>
