<svg width="990" height="319" viewBox="0 0 990 319" fill="none" xmlns="http://www.w3.org/2000/svg">
<path d="M25.2999 50.78C21.8332 50.78 18.6049 50.1517 15.6149 48.895C12.6682 47.6383 10.0899 45.8833 7.87988 43.63C5.66988 41.3767 3.93654 38.7333 2.67988 35.7C1.46654 32.6667 0.859878 29.3517 0.859878 25.755C0.859878 22.1583 1.46654 18.8433 2.67988 15.81C3.89321 12.7333 5.60488 10.09 7.81488 7.88C10.0249 5.62666 12.6032 3.89333 15.5499 2.68C18.5399 1.42333 21.7899 0.794998 25.2999 0.794998C28.8099 0.794998 31.9515 1.38 34.7249 2.55C37.5415 3.72 39.9249 5.28 41.8749 7.23C43.8249 9.18 45.2115 11.3467 46.0349 13.73L37.1299 18.02C36.3065 15.68 34.8549 13.7517 32.7749 12.235C30.7382 10.675 28.2465 9.895 25.2999 9.895C22.4399 9.895 19.9265 10.5667 17.7599 11.91C15.5932 13.2533 13.9032 15.1167 12.6899 17.5C11.5199 19.84 10.9349 22.5917 10.9349 25.755C10.9349 28.9183 11.5199 31.6917 12.6899 34.075C13.9032 36.4583 15.5932 38.3217 17.7599 39.665C19.9265 41.0083 22.4399 41.68 25.2999 41.68C28.2465 41.68 30.7382 40.9217 32.7749 39.405C34.8549 37.845 36.3065 35.895 37.1299 33.555L46.0349 37.845C45.2115 40.2283 43.8249 42.395 41.8749 44.345C39.9249 46.295 37.5415 47.855 34.7249 49.025C31.9515 50.195 28.8099 50.78 25.2999 50.78ZM62.1351 50.78C59.5784 50.78 57.3684 50.3683 55.5051 49.545C53.6417 48.7217 52.2117 47.5517 51.2151 46.035C50.2184 44.475 49.7201 42.6333 49.7201 40.51C49.7201 38.5167 50.1751 36.7617 51.0851 35.245C51.9951 33.685 53.3817 32.385 55.2451 31.345C57.1517 30.305 59.5134 29.5683 62.3301 29.135L73.1851 27.38V34.53L64.0851 36.155C62.6984 36.415 61.6367 36.87 60.9001 37.52C60.1634 38.1267 59.7951 39.015 59.7951 40.185C59.7951 41.2683 60.2067 42.1133 61.0301 42.72C61.8534 43.3267 62.8717 43.63 64.0851 43.63C65.6884 43.63 67.0967 43.2833 68.3101 42.59C69.5234 41.8967 70.4551 40.965 71.1051 39.795C71.7984 38.5817 72.1451 37.26 72.1451 35.83V26.6C72.1451 25.2567 71.6034 24.13 70.5201 23.22C69.4801 22.31 68.0501 21.855 66.2301 21.855C64.4967 21.855 62.9584 22.3317 61.6151 23.285C60.3151 24.2383 59.3617 25.495 58.7551 27.055L50.9551 23.35C51.6484 21.3567 52.7534 19.645 54.2701 18.215C55.7867 16.785 57.6067 15.68 59.7301 14.9C61.8534 14.12 64.1717 13.73 66.6851 13.73C69.6751 13.73 72.3184 14.2717 74.6151 15.355C76.9117 16.4383 78.6884 17.955 79.9451 19.905C81.2451 21.8117 81.8951 24.0433 81.8951 26.6V50H72.7951V44.28L75.0051 43.89C73.9651 45.45 72.8167 46.75 71.5601 47.79C70.3034 48.7867 68.8951 49.5233 67.3351 50C65.7751 50.52 64.0417 50.78 62.1351 50.78ZM89.0456 50V14.51H98.1456V21.53L97.6256 19.97C98.4489 17.8467 99.7706 16.2867 101.591 15.29C103.454 14.25 105.621 13.73 108.091 13.73C110.777 13.73 113.117 14.2933 115.111 15.42C117.147 16.5467 118.729 18.1283 119.856 20.165C120.982 22.1583 121.546 24.4983 121.546 27.185V50H111.796V29.265C111.796 27.8783 111.514 26.6867 110.951 25.69C110.431 24.6933 109.672 23.9133 108.676 23.35C107.722 22.7867 106.596 22.505 105.296 22.505C104.039 22.505 102.912 22.7867 101.916 23.35C100.919 23.9133 100.139 24.6933 99.5756 25.69C99.0556 26.6867 98.7956 27.8783 98.7956 29.265V50H89.0456ZM144.662 50.78C141.195 50.78 138.097 49.9567 135.367 48.31C132.637 46.6633 130.47 44.4317 128.867 41.615C127.307 38.7983 126.527 35.6783 126.527 32.255C126.527 28.7883 127.328 25.6683 128.932 22.895C130.535 20.0783 132.702 17.8467 135.432 16.2C138.162 14.5533 141.217 13.73 144.597 13.73C147.197 13.73 149.493 14.2283 151.487 15.225C153.523 16.1783 155.127 17.5433 156.297 19.32L154.802 21.27V0.794998H164.552V50H155.452V43.5L156.362 45.515C155.148 47.2483 153.502 48.57 151.422 49.48C149.342 50.3467 147.088 50.78 144.662 50.78ZM145.832 42.005C147.608 42.005 149.168 41.5933 150.512 40.77C151.855 39.9467 152.895 38.7983 153.632 37.325C154.412 35.8517 154.802 34.1617 154.802 32.255C154.802 30.3483 154.412 28.6583 153.632 27.185C152.895 25.7117 151.855 24.5633 150.512 23.74C149.168 22.9167 147.608 22.505 145.832 22.505C144.055 22.505 142.452 22.9383 141.022 23.805C139.635 24.6283 138.552 25.7767 137.772 27.25C136.992 28.68 136.602 30.3483 136.602 32.255C136.602 34.1617 136.992 35.8517 137.772 37.325C138.552 38.7983 139.635 39.9467 141.022 40.77C142.452 41.5933 144.055 42.005 145.832 42.005ZM171.692 50V14.51H181.442V50H171.692ZM171.692 11.325V1.575H181.442V11.325H171.692ZM205.282 50.78C201.815 50.78 198.717 49.9567 195.987 48.31C193.257 46.6633 191.09 44.4317 189.487 41.615C187.927 38.7983 187.147 35.6783 187.147 32.255C187.147 28.7883 187.948 25.6683 189.552 22.895C191.155 20.0783 193.322 17.8467 196.052 16.2C198.782 14.5533 201.837 13.73 205.217 13.73C207.817 13.73 210.113 14.2283 212.107 15.225C214.143 16.1783 215.747 17.5433 216.917 19.32L215.422 21.27V0.794998H225.172V50H216.072V43.5L216.982 45.515C215.768 47.2483 214.122 48.57 212.042 49.48C209.962 50.3467 207.708 50.78 205.282 50.78ZM206.452 42.005C208.228 42.005 209.788 41.5933 211.132 40.77C212.475 39.9467 213.515 38.7983 214.252 37.325C215.032 35.8517 215.422 34.1617 215.422 32.255C215.422 30.3483 215.032 28.6583 214.252 27.185C213.515 25.7117 212.475 24.5633 211.132 23.74C209.788 22.9167 208.228 22.505 206.452 22.505C204.675 22.505 203.072 22.9383 201.642 23.805C200.255 24.6283 199.172 25.7767 198.392 27.25C197.612 28.68 197.222 30.3483 197.222 32.255C197.222 34.1617 197.612 35.8517 198.392 37.325C199.172 38.7983 200.255 39.9467 201.642 40.77C203.072 41.5933 204.675 42.005 206.452 42.005ZM243.297 50.78C240.741 50.78 238.531 50.3683 236.667 49.545C234.804 48.7217 233.374 47.5517 232.377 46.035C231.381 44.475 230.882 42.6333 230.882 40.51C230.882 38.5167 231.337 36.7617 232.247 35.245C233.157 33.685 234.544 32.385 236.407 31.345C238.314 30.305 240.676 29.5683 243.492 29.135L254.347 27.38V34.53L245.247 36.155C243.861 36.415 242.799 36.87 242.062 37.52C241.326 38.1267 240.957 39.015 240.957 40.185C240.957 41.2683 241.369 42.1133 242.192 42.72C243.016 43.3267 244.034 43.63 245.247 43.63C246.851 43.63 248.259 43.2833 249.472 42.59C250.686 41.8967 251.617 40.965 252.267 39.795C252.961 38.5817 253.307 37.26 253.307 35.83V26.6C253.307 25.2567 252.766 24.13 251.682 23.22C250.642 22.31 249.212 21.855 247.392 21.855C245.659 21.855 244.121 22.3317 242.777 23.285C241.477 24.2383 240.524 25.495 239.917 27.055L232.117 23.35C232.811 21.3567 233.916 19.645 235.432 18.215C236.949 16.785 238.769 15.68 240.892 14.9C243.016 14.12 245.334 13.73 247.847 13.73C250.837 13.73 253.481 14.2717 255.777 15.355C258.074 16.4383 259.851 17.955 261.107 19.905C262.407 21.8117 263.057 24.0433 263.057 26.6V50H253.957V44.28L256.167 43.89C255.127 45.45 253.979 46.75 252.722 47.79C251.466 48.7867 250.057 49.5233 248.497 50C246.937 50.52 245.204 50.78 243.297 50.78ZM286.668 50.39C282.378 50.39 279.041 49.2417 276.658 46.945C274.318 44.605 273.148 41.355 273.148 37.195V22.96H267.168V14.51H267.493C269.313 14.51 270.7 14.055 271.653 13.145C272.65 12.235 273.148 10.87 273.148 9.05V6.45H282.898V14.51H291.218V22.96H282.898V36.545C282.898 37.7583 283.115 38.7767 283.548 39.6C283.981 40.38 284.653 40.965 285.563 41.355C286.473 41.745 287.6 41.94 288.943 41.94C289.246 41.94 289.593 41.9183 289.983 41.875C290.373 41.8317 290.785 41.7883 291.218 41.745V50C290.568 50.0867 289.831 50.1733 289.008 50.26C288.185 50.3467 287.405 50.39 286.668 50.39ZM314.026 50.78C310.256 50.78 306.985 49.9567 304.211 48.31C301.438 46.62 299.293 44.3667 297.776 41.55C296.26 38.7333 295.501 35.6133 295.501 32.19C295.501 28.6367 296.281 25.4733 297.841 22.7C299.445 19.9267 301.59 17.7383 304.276 16.135C306.963 14.5317 309.996 13.73 313.376 13.73C316.193 13.73 318.685 14.185 320.851 15.095C323.018 15.9617 324.838 17.1967 326.311 18.8C327.828 20.4033 328.976 22.2667 329.756 24.39C330.536 26.47 330.926 28.745 330.926 31.215C330.926 31.9083 330.883 32.6017 330.796 33.295C330.753 33.945 330.645 34.5083 330.471 34.985H303.886V27.835H324.946L320.331 31.215C320.765 29.3517 320.743 27.705 320.266 26.275C319.79 24.8017 318.945 23.6533 317.731 22.83C316.561 21.9633 315.11 21.53 313.376 21.53C311.686 21.53 310.235 21.9417 309.021 22.765C307.808 23.5883 306.898 24.8017 306.291 26.405C305.685 28.0083 305.446 29.9583 305.576 32.255C305.403 34.2483 305.641 36.0033 306.291 37.52C306.941 39.0367 307.938 40.2283 309.281 41.095C310.625 41.9183 312.25 42.33 314.156 42.33C315.89 42.33 317.363 41.9833 318.576 41.29C319.833 40.5967 320.808 39.6433 321.501 38.43L329.301 42.135C328.608 43.8683 327.503 45.385 325.986 46.685C324.513 47.985 322.758 49.0033 320.721 49.74C318.685 50.4333 316.453 50.78 314.026 50.78ZM350.578 50.78C346.678 50.78 343.276 49.87 340.373 48.05C337.513 46.1867 335.563 43.695 334.523 40.575L341.673 37.195C342.583 39.1017 343.818 40.5967 345.378 41.68C346.938 42.7633 348.671 43.305 350.578 43.305C351.964 43.305 353.026 43.0233 353.763 42.46C354.499 41.8967 354.868 41.1167 354.868 40.12C354.868 39.6 354.738 39.1667 354.478 38.82C354.218 38.43 353.828 38.0833 353.308 37.78C352.788 37.4767 352.138 37.2167 351.358 37L345.313 35.31C342.409 34.4867 340.178 33.165 338.618 31.345C337.058 29.4817 336.278 27.2933 336.278 24.78C336.278 22.57 336.841 20.6417 337.968 18.995C339.094 17.3483 340.676 16.07 342.713 15.16C344.749 14.2067 347.089 13.73 349.733 13.73C353.199 13.73 356.233 14.5533 358.833 16.2C361.476 17.8033 363.339 20.0783 364.423 23.025L357.208 26.405C356.688 24.9317 355.734 23.7617 354.348 22.895C353.004 21.985 351.466 21.53 349.733 21.53C348.476 21.53 347.479 21.79 346.743 22.31C346.049 22.83 345.703 23.545 345.703 24.455C345.703 24.9317 345.833 25.365 346.093 25.755C346.353 26.145 346.764 26.4917 347.328 26.795C347.934 27.0983 348.671 27.38 349.538 27.64L355.193 29.33C358.139 30.1967 360.393 31.5183 361.953 33.295C363.513 35.0283 364.293 37.1733 364.293 39.73C364.293 41.94 363.708 43.8683 362.538 45.515C361.411 47.1617 359.829 48.4617 357.793 49.415C355.756 50.325 353.351 50.78 350.578 50.78Z" fill="#8CD87C"/>
<line x1="242" y1="133.5" x2="626" y2="133.5" stroke="#F98D2B" stroke-width="17"/>
<line x1="1.99988" y1="310" x2="361" y2="310" stroke="#F98D2B" stroke-width="17"/>
<path d="M10.3699 106.52C11.1799 106.34 11.8099 105.665 11.8549 104.81C11.8549 104.54 11.7649 104.225 11.6299 103.955C11.5399 103.73 11.6299 103.55 11.7199 103.415L13.3849 101.66L11.7199 100.04L8.52488 103.415C8.11988 103.91 7.98488 104.54 8.16488 105.125C8.43488 106.115 9.33488 106.7 10.3699 106.52ZM4.96988 106.52C5.77988 106.34 6.40988 105.665 6.45488 104.81C6.45488 104.54 6.36488 104.225 6.27488 103.955C6.13988 103.73 6.22988 103.55 6.31988 103.415L7.98488 101.66L6.31988 100.04L3.12488 103.415C2.71988 103.91 2.58488 104.54 2.76488 105.125C3.03488 106.115 3.97988 106.7 4.96988 106.52ZM19.6167 103.46L19.6617 103.37L20.1117 103.82C20.3367 104.045 20.6517 104.18 20.9667 104.18H30.3267C33.1167 104.18 35.8167 106.025 35.8167 109.67C35.8167 113.18 33.1617 115.16 30.3267 115.16H20.4267V104.765C20.4267 104.45 20.2917 104.135 20.0667 103.91L19.6167 103.46ZM36.8067 117.59C36.2217 117.095 35.2767 116.735 34.3767 116.825L33.7467 116.87L33.7017 116.78L34.2417 116.735C34.9617 116.69 35.5917 116.375 36.2217 116.015C38.1117 114.755 39.5517 112.325 39.5517 109.31C39.5517 104.585 36.0867 100.895 31.0917 100.895H16.7367V131H20.4267V118.31H31.3617C33.1617 118.355 34.6017 119.255 34.9617 121.955C35.1867 123.935 35.6817 128.3 36.0417 131H39.7767C39.4167 128.255 38.8317 123.35 38.6067 121.505C38.3367 119.525 37.6167 118.265 36.8067 117.59ZM52.4628 111.29C56.4678 111.29 58.8528 114.305 59.2578 118.4H45.6228C46.0278 114.305 48.4578 111.29 52.4628 111.29ZM62.8128 120.965C62.8578 120.65 62.9028 120.29 62.9028 119.93C62.9028 113.045 58.6728 108.14 52.4628 108.14C46.2528 108.14 42.0228 113.045 42.0228 119.93C42.0228 126.815 46.2528 131.72 52.4628 131.72C57.4578 131.72 61.1028 128.525 62.4078 123.755L58.8978 123.125C58.1328 126.32 55.8828 128.57 52.4628 128.57C48.2778 128.57 45.8478 125.285 45.6228 120.965H62.8128ZM82.9004 122.135C82.2254 125.96 79.8404 128.57 76.1054 128.57C71.6504 128.57 69.0854 124.88 69.0854 119.93C69.0854 114.98 71.6504 111.29 76.1054 111.29C79.8404 111.29 82.2254 113.9 82.9004 117.725L86.3204 117.365C85.4204 111.785 81.5054 108.14 76.1054 108.14C69.8954 108.14 65.6654 113.045 65.6654 119.93C65.6654 126.815 69.8954 131.72 76.1054 131.72C81.5054 131.72 85.4204 128.075 86.3204 122.54L82.9004 122.135ZM93.3203 131.045V120.11C93.3203 116.375 95.0753 111.47 96.8753 111.47C98.0903 111.47 98.4503 113.09 98.4503 114.35V116.825H101.915V113.63C101.915 110.3 100.835 108.14 98.2253 108.14C96.8753 108.14 95.7503 109.13 94.9403 110.3C94.1303 111.425 93.6803 112.73 93.5453 113.495C93.5003 113.63 93.3203 114.71 93.2753 114.845L93.1403 115.7H93.0953L93.1853 115.115C93.2753 114.395 93.3203 113.72 93.3203 113V108.815H89.9003V131.045H93.3203ZM104.79 108.815V121.505C104.79 128.075 107.67 131.675 113.16 131.675C117.48 131.675 119.46 129.02 120.18 127.265L120.72 125.6L120.765 125.645L120.63 126.185C120.45 126.86 120.36 127.49 120.36 128.165V131H123.78V108.815H120.36V121.28C120.36 125.645 117.885 128.57 114.195 128.57C110.01 128.57 108.21 125.78 108.21 120.83C108.21 117.95 108.21 108.815 108.21 108.815H104.79ZM128.396 131.045H131.861C131.861 125.375 131.861 108.905 131.861 108.815H128.396V131.045ZM130.106 105.665C131.186 105.665 132.041 104.81 132.041 103.775C132.041 102.695 131.186 101.84 130.106 101.84C129.071 101.84 128.216 102.695 128.216 103.775C128.216 104.81 129.071 105.665 130.106 105.665ZM141.882 127.895C141.747 127.895 141.657 127.76 141.657 127.625V111.695H145.572V108.77H141.657V100.895H138.507C138.507 100.94 138.507 104.765 138.507 107.465C138.507 108.275 137.877 108.905 137.067 108.905H134.772V111.695H138.192C138.192 117.23 138.192 128.435 138.192 128.885C138.192 130.055 139.137 131 140.307 131H146.562V127.895H141.882ZM158.151 111.29C162.156 111.29 164.541 114.305 164.946 118.4H151.311C151.716 114.305 154.146 111.29 158.151 111.29ZM168.501 120.965C168.546 120.65 168.591 120.29 168.591 119.93C168.591 113.045 164.361 108.14 158.151 108.14C151.941 108.14 147.711 113.045 147.711 119.93C147.711 126.815 151.941 131.72 158.151 131.72C163.146 131.72 166.791 128.525 168.096 123.755L164.586 123.125C163.821 126.32 161.571 128.57 158.151 128.57C153.966 128.57 151.536 125.285 151.311 120.965H168.501ZM175.674 131.045V120.11C175.674 116.375 177.429 111.47 179.229 111.47C180.444 111.47 180.804 113.09 180.804 114.35V116.825H184.269V113.63C184.269 110.3 183.189 108.14 180.579 108.14C179.229 108.14 178.104 109.13 177.294 110.3C176.484 111.425 176.034 112.73 175.899 113.495C175.854 113.63 175.674 114.71 175.629 114.845L175.494 115.7H175.449L175.539 115.115C175.629 114.395 175.674 113.72 175.674 113V108.815H172.254V131.045H175.674ZM203.974 125.24C203.974 120.56 199.654 119.255 196.054 118.355C194.119 117.86 190.474 117.05 190.474 114.305C190.474 112.64 191.824 111.02 195.154 111.02C198.844 111.02 199.969 113.045 199.969 115.295H203.164C203.164 111.65 201.094 108.14 195.064 108.14C189.349 108.14 187.009 110.93 187.009 113.99C187.009 117.995 190.069 119.615 194.299 120.65C198.484 121.64 200.509 122.855 200.509 125.06C200.509 127.49 198.394 128.795 195.469 128.795C190.609 128.795 189.934 125.33 189.934 123.935H186.514C186.514 127.67 188.899 131.675 195.604 131.675C201.454 131.675 203.974 128.75 203.974 125.24ZM212.7 125.69C211.62 125.69 210.765 126.545 210.765 127.625C210.765 128.66 211.62 129.515 212.7 129.515C213.78 129.515 214.635 128.66 214.635 127.625C214.635 126.545 213.78 125.69 212.7 125.69ZM210.855 115.745V122.225H214.545V117.005C214.545 116.6 214.86 116.33 215.22 116.24C215.31 116.24 215.445 116.195 215.49 116.195C219.495 115.295 222.78 113.045 222.78 108.365C222.78 104.54 220.08 100.22 213.825 100.22C206.625 100.22 204.465 105.08 204.51 108.455H208.2C208.2 106.97 208.965 103.505 213.87 103.505C216.885 103.505 219.045 105.62 219.045 108.275C219.045 110.615 217.335 113 213.87 113H213.465C212.025 113 210.855 114.26 210.855 115.745ZM258.231 100.895H236.316V104.18H245.406V131.045H249.096V104.18H258.231V100.895ZM279.574 131.045V118.355C279.574 111.785 276.649 108.14 271.204 108.14C268.729 108.14 266.929 109.13 265.759 110.255C264.814 111.11 264.274 112.19 263.959 113.18L263.644 114.26L263.554 114.215L263.734 113.63C263.914 113 264.004 112.325 264.004 111.65V100.94H260.584V131.045H264.004V118.58C264.004 114.215 266.434 111.29 270.169 111.29C274.354 111.29 276.154 114.08 276.154 119.03C276.154 121.91 276.154 131.045 276.154 131.045H279.574ZM293.459 111.29C297.464 111.29 299.849 114.305 300.254 118.4H286.619C287.024 114.305 289.454 111.29 293.459 111.29ZM303.809 120.965C303.854 120.65 303.899 120.29 303.899 119.93C303.899 113.045 299.669 108.14 293.459 108.14C287.249 108.14 283.019 113.045 283.019 119.93C283.019 126.815 287.249 131.72 293.459 131.72C298.454 131.72 302.099 128.525 303.404 123.755L299.894 123.125C299.129 126.32 296.879 128.57 293.459 128.57C289.274 128.57 286.844 125.285 286.619 120.965H303.809ZM321.016 108.77L314.491 124.925C314.356 125.33 314.266 125.735 314.266 126.14V126.905H314.176V126.14C314.176 125.735 314.086 125.33 313.951 124.925L307.426 108.77H303.736L311.836 128.66C312.196 129.515 312.196 130.415 311.836 131.27L308.731 138.92H312.421L324.706 108.77H321.016ZM341.615 105.665C342.695 105.665 343.55 104.81 343.55 103.73C343.55 102.65 342.695 101.795 341.615 101.795C340.535 101.795 339.68 102.65 339.68 103.73C339.68 104.81 340.535 105.665 341.615 105.665ZM339.905 135.5C339.905 135.635 339.77 135.77 339.635 135.77H335.63V138.92H341.21C342.38 138.92 343.37 137.975 343.37 136.805C343.37 136.085 343.37 108.95 343.37 108.77H339.905V135.5ZM347.676 108.815V121.505C347.676 128.075 350.556 131.675 356.046 131.675C360.366 131.675 362.346 129.02 363.066 127.265L363.606 125.6L363.651 125.645L363.516 126.185C363.336 126.86 363.246 127.49 363.246 128.165V131H366.666V108.815H363.246V121.28C363.246 125.645 360.771 128.57 357.081 128.57C352.896 128.57 351.096 125.78 351.096 120.83C351.096 117.95 351.096 108.815 351.096 108.815H347.676ZM387.797 125.24C387.797 120.56 383.477 119.255 379.877 118.355C377.942 117.86 374.297 117.05 374.297 114.305C374.297 112.64 375.647 111.02 378.977 111.02C382.667 111.02 383.792 113.045 383.792 115.295H386.987C386.987 111.65 384.917 108.14 378.887 108.14C373.172 108.14 370.832 110.93 370.832 113.99C370.832 117.995 373.892 119.615 378.122 120.65C382.307 121.64 384.332 122.855 384.332 125.06C384.332 127.49 382.217 128.795 379.292 128.795C374.432 128.795 373.757 125.33 373.757 123.935H370.337C370.337 127.67 372.722 131.675 379.427 131.675C385.277 131.675 387.797 128.75 387.797 125.24ZM396.941 127.895C396.806 127.895 396.716 127.76 396.716 127.625V111.695H400.631V108.77H396.716V100.895H393.566C393.566 100.94 393.566 104.765 393.566 107.465C393.566 108.275 392.936 108.905 392.126 108.905H389.831V111.695H393.251C393.251 117.23 393.251 128.435 393.251 128.885C393.251 130.055 394.196 131 395.366 131H401.621V127.895H396.941ZM419.725 119.93C419.725 114.935 422.29 111.245 426.745 111.245C431.155 111.245 433.45 114.935 433.45 119.93C433.45 124.88 431.2 128.57 426.745 128.57C422.29 128.57 419.725 124.88 419.725 119.93ZM433.585 100.895V112.325C433.585 113 433.675 113.675 433.855 114.305L434.035 114.89H433.99L433.45 113.27C432.865 111.335 431.2 108.14 426.115 108.14C420.22 108.14 416.305 113.045 416.305 119.93C416.305 126.77 420.175 131.675 426.115 131.675C431.2 131.675 432.91 128.435 433.495 126.5L433.99 124.925H434.035L433.855 125.51C433.675 126.14 433.585 126.815 433.585 127.49V131.045H437.05V100.895H433.585ZM444.203 119.93C444.203 114.98 446.768 111.29 451.223 111.29C455.633 111.29 458.198 114.98 458.198 119.93C458.198 124.88 455.633 128.57 451.223 128.57C446.768 128.57 444.203 124.88 444.203 119.93ZM461.663 119.93C461.663 113.045 457.433 108.14 451.223 108.14C445.013 108.14 440.783 113.045 440.783 119.93C440.783 126.815 445.013 131.72 451.223 131.72C457.433 131.72 461.663 126.815 461.663 119.93ZM483.964 118.355C483.964 111.785 480.814 108.14 475.594 108.14C472.579 108.14 470.599 109.49 469.474 110.885C468.934 111.56 468.619 112.37 468.394 113.09L468.034 114.26L467.944 114.215L468.124 113.63C468.304 113 468.394 112.325 468.394 111.65V108.815H464.974V131.045H468.394V118.58C468.394 114.215 470.824 111.29 474.559 111.29C478.474 111.29 480.544 114.08 480.544 119.03C480.544 121.91 480.544 131.045 480.544 131.045H483.964V118.355ZM488.606 100.22C487.796 100.4 487.166 101.075 487.121 101.93C487.121 102.2 487.166 102.515 487.301 102.785C487.436 103.01 487.346 103.19 487.256 103.325L485.591 105.08L487.256 106.7L490.406 103.325C490.856 102.83 490.946 102.2 490.811 101.615C490.541 100.625 489.596 100.04 488.606 100.22ZM498.543 127.895C498.408 127.895 498.318 127.76 498.318 127.625V111.695H502.233V108.77H498.318V100.895H495.168C495.168 100.94 495.168 104.765 495.168 107.465C495.168 108.275 494.538 108.905 493.728 108.905H491.433V111.695H494.853C494.853 117.23 494.853 128.435 494.853 128.885C494.853 130.055 495.798 131 496.968 131H503.223V127.895H498.543ZM518.762 128.93C518.762 130.1 519.707 131.045 520.877 131.045H526.502V127.895H522.452C522.317 127.895 522.182 127.805 522.182 127.625V100.94H518.762C518.717 101.075 518.717 128.21 518.762 128.93ZM529.397 131.045H532.862C532.862 125.375 532.862 108.905 532.862 108.815H529.397V131.045ZM531.107 105.665C532.187 105.665 533.042 104.81 533.042 103.775C533.042 102.695 532.187 101.84 531.107 101.84C530.072 101.84 529.217 102.695 529.217 103.775C529.217 104.81 530.072 105.665 531.107 105.665ZM553.998 125.24C553.998 120.56 549.678 119.255 546.078 118.355C544.143 117.86 540.498 117.05 540.498 114.305C540.498 112.64 541.848 111.02 545.178 111.02C548.868 111.02 549.993 113.045 549.993 115.295H553.188C553.188 111.65 551.118 108.14 545.088 108.14C539.373 108.14 537.033 110.93 537.033 113.99C537.033 117.995 540.093 119.615 544.323 120.65C548.508 121.64 550.533 122.855 550.533 125.06C550.533 127.49 548.418 128.795 545.493 128.795C540.633 128.795 539.958 125.33 539.958 123.935H536.538C536.538 127.67 538.923 131.675 545.628 131.675C551.478 131.675 553.998 128.75 553.998 125.24ZM563.142 127.895C563.007 127.895 562.917 127.76 562.917 127.625V111.695H566.832V108.77H562.917V100.895H559.767C559.767 100.94 559.767 104.765 559.767 107.465C559.767 108.275 559.137 108.905 558.327 108.905H556.032V111.695H559.452C559.452 117.23 559.452 128.435 559.452 128.885C559.452 130.055 560.397 131 561.567 131H567.822V127.895H563.142ZM579.411 111.29C583.416 111.29 585.801 114.305 586.206 118.4H572.571C572.976 114.305 575.406 111.29 579.411 111.29ZM589.761 120.965C589.806 120.65 589.851 120.29 589.851 119.93C589.851 113.045 585.621 108.14 579.411 108.14C573.201 108.14 568.971 113.045 568.971 119.93C568.971 126.815 573.201 131.72 579.411 131.72C584.406 131.72 588.051 128.525 589.356 123.755L585.846 123.125C585.081 126.32 582.831 128.57 579.411 128.57C575.226 128.57 572.796 125.285 572.571 120.965H589.761ZM612.504 118.355C612.504 111.785 609.354 108.14 604.134 108.14C601.119 108.14 599.139 109.49 598.014 110.885C597.474 111.56 597.159 112.37 596.934 113.09L596.574 114.26L596.484 114.215L596.664 113.63C596.844 113 596.934 112.325 596.934 111.65V108.815H593.514V131.045H596.934V118.58C596.934 114.215 599.364 111.29 603.099 111.29C607.014 111.29 609.084 114.08 609.084 119.03C609.084 121.91 609.084 131.045 609.084 131.045H612.504V118.355ZM616.153 131.315C617.233 131.315 618.088 130.415 618.088 129.38C618.088 128.3 617.233 127.445 616.153 127.445C615.118 127.445 614.263 128.3 614.263 129.38C614.263 130.415 615.118 131.315 616.153 131.315ZM653.344 100.895H631.429V104.18H640.519V131.045H644.209V104.18H653.344V100.895ZM674.686 131.045V118.355C674.686 111.785 671.761 108.14 666.316 108.14C663.841 108.14 662.041 109.13 660.871 110.255C659.926 111.11 659.386 112.19 659.071 113.18L658.756 114.26L658.666 114.215L658.846 113.63C659.026 113 659.116 112.325 659.116 111.65V100.94H655.696V131.045H659.116V118.58C659.116 114.215 661.546 111.29 665.281 111.29C669.466 111.29 671.266 114.08 671.266 119.03C671.266 121.91 671.266 131.045 671.266 131.045H674.686ZM688.571 111.29C692.576 111.29 694.961 114.305 695.366 118.4H681.731C682.136 114.305 684.566 111.29 688.571 111.29ZM698.921 120.965C698.966 120.65 699.011 120.29 699.011 119.93C699.011 113.045 694.781 108.14 688.571 108.14C682.361 108.14 678.131 113.045 678.131 119.93C678.131 126.815 682.361 131.72 688.571 131.72C693.566 131.72 697.211 128.525 698.516 123.755L695.006 123.125C694.241 126.32 691.991 128.57 688.571 128.57C684.386 128.57 681.956 125.285 681.731 120.965H698.921ZM716.128 108.77L709.603 124.925C709.468 125.33 709.378 125.735 709.378 126.14V126.905H709.288V126.14C709.288 125.735 709.198 125.33 709.063 124.925L702.538 108.77H698.848L706.948 128.66C707.308 129.515 707.308 130.415 706.948 131.27L703.843 138.92H707.533L719.818 108.77H716.128ZM724.9 100.22C724.09 100.4 723.46 101.075 723.415 101.93C723.415 102.2 723.46 102.515 723.595 102.785C723.73 103.01 723.64 103.19 723.55 103.325L721.885 105.08L723.55 106.7L726.7 103.325C727.15 102.83 727.24 102.2 727.105 101.615C726.835 100.625 725.89 100.04 724.9 100.22ZM730.27 128.93C730.27 130.1 731.215 131.045 732.385 131.045H738.01V127.895H733.96C733.825 127.895 733.69 127.805 733.69 127.625V100.94H730.27C730.225 101.075 730.225 128.21 730.27 128.93ZM740.861 128.93C740.861 130.1 741.806 131.045 742.976 131.045H748.601V127.895H744.551C744.416 127.895 744.281 127.805 744.281 127.625V100.94H740.861C740.816 101.075 740.816 128.21 740.861 128.93ZM767.621 119.93C767.621 114.935 769.916 111.245 774.326 111.245C778.781 111.245 781.301 114.935 781.301 119.93C781.301 124.88 778.736 128.57 774.326 128.57C769.871 128.57 767.621 124.88 767.621 119.93ZM767.576 126.5C768.161 128.435 769.871 131.675 774.956 131.675C780.851 131.675 784.766 126.77 784.766 119.93C784.766 113.045 780.851 108.14 774.956 108.14C769.871 108.14 768.161 111.335 767.576 113.27L767.081 114.89H766.991L767.171 114.305C767.351 113.675 767.441 113 767.441 112.325V100.895H764.021V131.045H767.441V127.49C767.441 126.815 767.351 126.14 767.171 125.51L766.991 124.925H767.081L767.576 126.5ZM788.454 128.93C788.454 130.1 789.399 131.045 790.569 131.045H796.194V127.895H792.144C792.009 127.895 791.874 127.805 791.874 127.625V100.94H788.454C788.409 101.075 788.409 128.21 788.454 128.93ZM812.95 121.865C812.95 125.6 810.52 128.66 806.065 128.66C803.545 128.66 801.925 127.265 801.7 125.33C801.475 123.305 802.645 121.325 805.525 120.785C807.1 120.515 809.8 119.975 810.835 119.75C812.545 119.435 812.95 118.895 812.95 118.895V121.865ZM818.215 128.12H816.64C816.505 128.12 816.415 128.03 816.415 127.895V116.555C816.46 111.29 813.49 108.14 807.82 108.14C804.85 108.14 802.33 109.13 800.755 110.93C799.27 112.595 798.82 114.71 799.27 116.78L802.645 116.285C802.42 115.205 802.465 113.855 803.32 112.775C804.04 111.92 805.39 111.02 807.775 111.02C811.06 111.02 812.815 112.82 812.815 115.025C812.815 115.925 812.41 116.51 811.645 116.825C810.97 117.095 809.755 117.275 808.18 117.59C806.965 117.86 804.85 118.31 803.41 118.715C799.315 119.84 798.145 122.585 798.235 125.42C798.28 128.66 800.845 131.72 805.48 131.72C808.495 131.72 810.745 130.55 812.185 128.795C812.86 127.94 813.31 126.815 813.535 125.69C813.58 125.6 813.715 124.925 813.715 124.925H813.76L813.715 125.24C813.58 125.915 813.535 126.59 813.49 127.265C813.49 127.535 813.49 128.57 813.49 129.38C813.49 130.325 814.165 131.045 815.2 131.045H818.215V128.12ZM831.174 128.57C826.719 128.57 824.154 124.88 824.154 119.93C824.154 114.98 826.719 111.29 831.174 111.29C835.584 111.29 837.879 114.98 837.879 119.93C837.879 124.88 835.629 128.57 831.174 128.57ZM841.479 127.67V108.815H838.014V112.325C838.014 113 838.104 113.675 838.284 114.35L838.464 114.89L838.419 114.935L837.879 113.27C837.294 111.38 835.629 108.14 830.544 108.14C824.649 108.14 820.734 113.09 820.734 119.93C820.734 126.77 824.604 131.72 830.544 131.72C835.629 131.72 837.339 128.48 837.924 126.545L838.419 124.925L838.464 124.97L838.284 125.555C838.149 126.05 838.059 126.59 838.059 127.13C838.059 127.265 838.014 128.48 838.014 128.615C838.014 130.685 839.139 131.99 839.139 133.52C839.139 135.68 837.384 136.085 835.404 136.04H824.334V138.965H836.619C840.804 138.965 842.694 137.345 842.694 134.06C842.694 131.315 841.479 130.685 841.479 127.67ZM845.635 131.315C846.715 131.315 847.57 130.415 847.57 129.38C847.57 128.3 846.715 127.445 845.635 127.445C844.6 127.445 843.745 128.3 843.745 129.38C843.745 130.415 844.6 131.315 845.635 131.315ZM882.826 100.895H860.911V104.18H870.001V131.045H873.691V104.18H882.826V100.895ZM904.169 131.045V118.355C904.169 111.785 901.244 108.14 895.799 108.14C893.324 108.14 891.524 109.13 890.354 110.255C889.409 111.11 888.869 112.19 888.554 113.18L888.239 114.26L888.149 114.215L888.329 113.63C888.509 113 888.599 112.325 888.599 111.65V100.94H885.179V131.045H888.599V118.58C888.599 114.215 891.029 111.29 894.764 111.29C898.949 111.29 900.749 114.08 900.749 119.03C900.749 121.91 900.749 131.045 900.749 131.045H904.169ZM918.054 111.29C922.059 111.29 924.444 114.305 924.849 118.4H911.214C911.619 114.305 914.049 111.29 918.054 111.29ZM928.404 120.965C928.449 120.65 928.494 120.29 928.494 119.93C928.494 113.045 924.264 108.14 918.054 108.14C911.844 108.14 907.614 113.045 907.614 119.93C907.614 126.815 911.844 131.72 918.054 131.72C923.049 131.72 926.694 128.525 927.999 123.755L924.489 123.125C923.724 126.32 921.474 128.57 918.054 128.57C913.869 128.57 911.439 125.285 911.214 120.965H928.404ZM945.611 108.77L939.086 124.925C938.951 125.33 938.861 125.735 938.861 126.14V126.905H938.771V126.14C938.771 125.735 938.681 125.33 938.546 124.925L932.021 108.77H928.331L936.431 128.66C936.791 129.515 936.791 130.415 936.431 131.27L933.326 138.92H937.016L949.301 108.77H945.611ZM954.382 100.22C953.572 100.4 952.942 101.075 952.897 101.93C952.897 102.2 952.942 102.515 953.077 102.785C953.212 103.01 953.122 103.19 953.032 103.325L951.367 105.08L953.032 106.7L956.182 103.325C956.632 102.83 956.722 102.2 956.587 101.615C956.317 100.625 955.372 100.04 954.382 100.22ZM959.753 128.93C959.753 130.1 960.698 131.045 961.868 131.045H967.493V127.895H963.443C963.308 127.895 963.173 127.805 963.173 127.625V100.94H959.753C959.708 101.075 959.708 128.21 959.753 128.93ZM970.344 128.93C970.344 130.1 971.289 131.045 972.459 131.045H978.084V127.895H974.034C973.899 127.895 973.764 127.805 973.764 127.625V100.94H970.344C970.299 101.075 970.299 128.21 970.344 128.93ZM20.8099 170.24C20.8099 165.56 16.4899 164.255 12.8899 163.355C10.9549 162.86 7.30988 162.05 7.30988 159.305C7.30988 157.64 8.65988 156.02 11.9899 156.02C15.6799 156.02 16.8049 158.045 16.8049 160.295H19.9999C19.9999 156.65 17.9299 153.14 11.8999 153.14C6.18488 153.14 3.84488 155.93 3.84488 158.99C3.84488 162.995 6.90488 164.615 11.1349 165.65C15.3199 166.64 17.3449 167.855 17.3449 170.06C17.3449 172.49 15.2299 173.795 12.3049 173.795C7.44488 173.795 6.76988 170.33 6.76988 168.935H3.34988C3.34988 172.67 5.73488 176.675 12.4399 176.675C18.2899 176.675 20.8099 173.75 20.8099 170.24ZM34.0937 156.29C38.0987 156.29 40.4837 159.305 40.8887 163.4H27.2537C27.6587 159.305 30.0887 156.29 34.0937 156.29ZM44.4437 165.965C44.4887 165.65 44.5337 165.29 44.5337 164.93C44.5337 158.045 40.3037 153.14 34.0937 153.14C27.8837 153.14 23.6537 158.045 23.6537 164.93C23.6537 171.815 27.8837 176.72 34.0937 176.72C39.0887 176.72 42.7337 173.525 44.0387 168.755L40.5287 168.125C39.7637 171.32 37.5137 173.57 34.0937 173.57C29.9087 173.57 27.4787 170.285 27.2537 165.965H44.4437ZM67.1862 163.355C67.1862 156.785 64.0362 153.14 58.8162 153.14C55.8012 153.14 53.8212 154.49 52.6962 155.885C52.1562 156.56 51.8412 157.37 51.6162 158.09L51.2562 159.26L51.1662 159.215L51.3462 158.63C51.5262 158 51.6162 157.325 51.6162 156.65V153.815H48.1962V176.045H51.6162V163.58C51.6162 159.215 54.0462 156.29 57.7812 156.29C61.6962 156.29 63.7662 159.08 63.7662 164.03C63.7662 166.91 63.7662 176.045 63.7662 176.045H67.1862V163.355ZM74.0073 164.93C74.0073 159.935 76.5723 156.245 81.0273 156.245C85.4373 156.245 87.7323 159.935 87.7323 164.93C87.7323 169.88 85.4823 173.57 81.0273 173.57C76.5723 173.57 74.0073 169.88 74.0073 164.93ZM87.8673 145.895V157.325C87.8673 158 87.9573 158.675 88.1373 159.305L88.3173 159.89H88.2723L87.7323 158.27C87.1473 156.335 85.4823 153.14 80.3973 153.14C74.5023 153.14 70.5873 158.045 70.5873 164.93C70.5873 171.77 74.4573 176.675 80.3973 176.675C85.4823 176.675 87.1923 173.435 87.7773 171.5L88.2723 169.925H88.3173L88.1373 170.51C87.9573 171.14 87.8673 171.815 87.8673 172.49V176.045H91.3323V145.895H87.8673ZM123.789 153.77L117.264 169.925C117.129 170.33 117.039 170.735 117.039 171.14V171.905H116.949V171.14C116.949 170.735 116.859 170.33 116.724 169.925L110.199 153.77H106.509L114.609 173.66C114.969 174.515 114.969 175.415 114.609 176.27L111.504 183.92H115.194L127.479 153.77H123.789ZM130.389 164.93C130.389 159.98 132.954 156.29 137.409 156.29C141.819 156.29 144.384 159.98 144.384 164.93C144.384 169.88 141.819 173.57 137.409 173.57C132.954 173.57 130.389 169.88 130.389 164.93ZM147.849 164.93C147.849 158.045 143.619 153.14 137.409 153.14C131.199 153.14 126.969 158.045 126.969 164.93C126.969 171.815 131.199 176.72 137.409 176.72C143.619 176.72 147.849 171.815 147.849 164.93ZM151.285 153.815V166.505C151.285 173.075 154.165 176.675 159.655 176.675C163.975 176.675 165.955 174.02 166.675 172.265L167.215 170.6L167.26 170.645L167.125 171.185C166.945 171.86 166.855 172.49 166.855 173.165V176H170.275V153.815H166.855V166.28C166.855 170.645 164.38 173.57 160.69 173.57C156.505 173.57 154.705 170.78 154.705 165.83C154.705 162.95 154.705 153.815 154.705 153.815H151.285ZM190.835 176.045V165.11C190.835 161.375 192.59 156.47 194.39 156.47C195.605 156.47 195.965 158.09 195.965 159.35V161.825H199.43V158.63C199.43 155.3 198.35 153.14 195.74 153.14C194.39 153.14 193.265 154.13 192.455 155.3C191.645 156.425 191.195 157.73 191.06 158.495C191.015 158.63 190.835 159.71 190.79 159.845L190.655 160.7H190.61L190.7 160.115C190.79 159.395 190.835 158.72 190.835 158V153.815H187.415V176.045H190.835ZM205.14 164.93C205.14 159.98 207.705 156.29 212.16 156.29C216.57 156.29 219.135 159.98 219.135 164.93C219.135 169.88 216.57 173.57 212.16 173.57C207.705 173.57 205.14 169.88 205.14 164.93ZM222.6 164.93C222.6 158.045 218.37 153.14 212.16 153.14C205.95 153.14 201.72 158.045 201.72 164.93C201.72 171.815 205.95 176.72 212.16 176.72C218.37 176.72 222.6 171.815 222.6 164.93ZM226.306 173.93C226.306 175.1 227.251 176.045 228.421 176.045H234.046V172.895H229.996C229.861 172.895 229.726 172.805 229.726 172.625V145.94H226.306C226.261 146.075 226.261 173.21 226.306 173.93ZM245.471 156.29C249.476 156.29 251.861 159.305 252.266 163.4H238.631C239.036 159.305 241.466 156.29 245.471 156.29ZM255.821 165.965C255.866 165.65 255.911 165.29 255.911 164.93C255.911 158.045 251.681 153.14 245.471 153.14C239.261 153.14 235.031 158.045 235.031 164.93C235.031 171.815 239.261 176.72 245.471 176.72C250.466 176.72 254.111 173.525 255.416 168.755L251.906 168.125C251.141 171.32 248.891 173.57 245.471 173.57C241.286 173.57 238.856 170.285 238.631 165.965H255.821ZM276.088 170.24C276.088 165.56 271.768 164.255 268.168 163.355C266.233 162.86 262.588 162.05 262.588 159.305C262.588 157.64 263.938 156.02 267.268 156.02C270.958 156.02 272.083 158.045 272.083 160.295H275.278C275.278 156.65 273.208 153.14 267.178 153.14C261.463 153.14 259.123 155.93 259.123 158.99C259.123 162.995 262.183 164.615 266.413 165.65C270.598 166.64 272.623 167.855 272.623 170.06C272.623 172.49 270.508 173.795 267.583 173.795C262.723 173.795 262.048 170.33 262.048 168.935H258.628C258.628 172.67 261.013 176.675 267.718 176.675C273.568 176.675 276.088 173.75 276.088 170.24ZM297.756 172.895C297.621 172.895 297.531 172.76 297.531 172.625V156.695H301.446V153.77H297.531V145.895H294.381C294.381 145.94 294.381 149.765 294.381 152.465C294.381 153.275 293.751 153.905 292.941 153.905H290.646V156.695H294.066C294.066 162.23 294.066 173.435 294.066 173.885C294.066 175.055 295.011 176 296.181 176H302.436V172.895H297.756ZM323.475 176.045V163.355C323.475 156.785 320.55 153.14 315.105 153.14C312.63 153.14 310.83 154.13 309.66 155.255C308.715 156.11 308.175 157.19 307.86 158.18L307.545 159.26L307.455 159.215L307.635 158.63C307.815 158 307.905 157.325 307.905 156.65V145.94H304.485V176.045H307.905V163.58C307.905 159.215 310.335 156.29 314.07 156.29C318.255 156.29 320.055 159.08 320.055 164.03C320.055 166.91 320.055 176.045 320.055 176.045H323.475ZM341.68 166.865C341.68 170.6 339.25 173.66 334.795 173.66C332.275 173.66 330.655 172.265 330.43 170.33C330.205 168.305 331.375 166.325 334.255 165.785C335.83 165.515 338.53 164.975 339.565 164.75C341.275 164.435 341.68 163.895 341.68 163.895V166.865ZM346.945 173.12H345.37C345.235 173.12 345.145 173.03 345.145 172.895V161.555C345.19 156.29 342.22 153.14 336.55 153.14C333.58 153.14 331.06 154.13 329.485 155.93C328 157.595 327.55 159.71 328 161.78L331.375 161.285C331.15 160.205 331.195 158.855 332.05 157.775C332.77 156.92 334.12 156.02 336.505 156.02C339.79 156.02 341.545 157.82 341.545 160.025C341.545 160.925 341.14 161.51 340.375 161.825C339.7 162.095 338.485 162.275 336.91 162.59C335.695 162.86 333.58 163.31 332.14 163.715C328.045 164.84 326.875 167.585 326.965 170.42C327.01 173.66 329.575 176.72 334.21 176.72C337.225 176.72 339.475 175.55 340.915 173.795C341.59 172.94 342.04 171.815 342.265 170.69C342.31 170.6 342.445 169.925 342.445 169.925H342.49L342.445 170.24C342.31 170.915 342.265 171.59 342.22 172.265C342.22 172.535 342.22 173.57 342.22 174.38C342.22 175.325 342.895 176.045 343.93 176.045H346.945V173.12ZM354.797 172.895C354.662 172.895 354.572 172.76 354.572 172.625V156.695H358.487V153.77H354.572V145.895H351.422C351.422 145.94 351.422 149.765 351.422 152.465C351.422 153.275 350.792 153.905 349.982 153.905H347.687V156.695H351.107C351.107 162.23 351.107 173.435 351.107 173.885C351.107 175.055 352.052 176 353.222 176H359.477V172.895H354.797ZM394.051 176.045V163.355C394.051 156.785 391.126 153.14 385.681 153.14C383.206 153.14 381.406 154.13 380.236 155.255C379.291 156.11 378.751 157.19 378.436 158.18L378.121 159.26L378.031 159.215L378.211 158.63C378.391 158 378.481 157.325 378.481 156.65V145.94H375.061V176.045H378.481V163.58C378.481 159.215 380.911 156.29 384.646 156.29C388.831 156.29 390.631 159.08 390.631 164.03C390.631 166.91 390.631 176.045 390.631 176.045H394.051ZM412.256 166.865C412.256 170.6 409.826 173.66 405.371 173.66C402.851 173.66 401.231 172.265 401.006 170.33C400.781 168.305 401.951 166.325 404.831 165.785C406.406 165.515 409.106 164.975 410.141 164.75C411.851 164.435 412.256 163.895 412.256 163.895V166.865ZM417.521 173.12H415.946C415.811 173.12 415.721 173.03 415.721 172.895V161.555C415.766 156.29 412.796 153.14 407.126 153.14C404.156 153.14 401.636 154.13 400.061 155.93C398.576 157.595 398.126 159.71 398.576 161.78L401.951 161.285C401.726 160.205 401.771 158.855 402.626 157.775C403.346 156.92 404.696 156.02 407.081 156.02C410.366 156.02 412.121 157.82 412.121 160.025C412.121 160.925 411.716 161.51 410.951 161.825C410.276 162.095 409.061 162.275 407.486 162.59C406.271 162.86 404.156 163.31 402.716 163.715C398.621 164.84 397.451 167.585 397.541 170.42C397.586 173.66 400.151 176.72 404.786 176.72C407.801 176.72 410.051 175.55 411.491 173.795C412.166 172.94 412.616 171.815 412.841 170.69C412.886 170.6 413.021 169.925 413.021 169.925H413.066L413.021 170.24C412.886 170.915 412.841 171.59 412.796 172.265C412.796 172.535 412.796 173.57 412.796 174.38C412.796 175.325 413.471 176.045 414.506 176.045H417.521V173.12ZM435.05 153.815L428.57 172.22C428.435 172.625 428.345 173.12 428.345 173.57V174.38H428.255V173.57C428.255 173.12 428.21 172.67 428.075 172.22L421.595 153.815H418.04L425.825 176.045H430.82L438.605 153.815H435.05ZM449.289 156.29C453.294 156.29 455.679 159.305 456.084 163.4H442.449C442.854 159.305 445.284 156.29 449.289 156.29ZM459.639 165.965C459.684 165.65 459.729 165.29 459.729 164.93C459.729 158.045 455.499 153.14 449.289 153.14C443.079 153.14 438.849 158.045 438.849 164.93C438.849 171.815 443.079 176.72 449.289 176.72C454.284 176.72 457.929 173.525 459.234 168.755L455.724 168.125C454.959 171.32 452.709 173.57 449.289 173.57C445.104 173.57 442.674 170.285 442.449 165.965H459.639ZM494.906 163.355C494.906 156.785 491.756 153.14 486.536 153.14C483.521 153.14 481.541 154.49 480.416 155.885C479.876 156.56 479.561 157.37 479.336 158.09L478.976 159.26L478.886 159.215L479.066 158.63C479.246 158 479.336 157.325 479.336 156.65V153.815H475.916V176.045H479.336V163.58C479.336 159.215 481.766 156.29 485.501 156.29C489.416 156.29 491.486 159.08 491.486 164.03C491.486 166.91 491.486 176.045 491.486 176.045H494.906V163.355ZM501.244 164.93C501.244 159.98 503.809 156.29 508.264 156.29C512.674 156.29 515.239 159.98 515.239 164.93C515.239 169.88 512.674 173.57 508.264 173.57C503.809 173.57 501.244 169.88 501.244 164.93ZM518.704 164.93C518.704 158.045 514.474 153.14 508.264 153.14C502.054 153.14 497.824 158.045 497.824 164.93C497.824 171.815 502.054 176.72 508.264 176.72C514.474 176.72 518.704 171.815 518.704 164.93ZM527.854 172.895C527.719 172.895 527.629 172.76 527.629 172.625V156.695H531.544V153.77H527.629V145.895H524.479C524.479 145.94 524.479 149.765 524.479 152.465C524.479 153.275 523.849 153.905 523.039 153.905H520.744V156.695H524.164C524.164 162.23 524.164 173.435 524.164 173.885C524.164 175.055 525.109 176 526.279 176H532.534V172.895H527.854ZM553.573 176.045V163.355C553.573 156.785 550.648 153.14 545.203 153.14C542.728 153.14 540.928 154.13 539.758 155.255C538.813 156.11 538.273 157.19 537.958 158.18L537.643 159.26L537.553 159.215L537.733 158.63C537.913 158 538.003 157.325 538.003 156.65V145.94H534.583V176.045H538.003V163.58C538.003 159.215 540.433 156.29 544.168 156.29C548.353 156.29 550.153 159.08 550.153 164.03C550.153 166.91 550.153 176.045 550.153 176.045H553.573ZM557.918 176.045H561.383C561.383 170.375 561.383 153.905 561.383 153.815H557.918V176.045ZM559.628 150.665C560.708 150.665 561.563 149.81 561.563 148.775C561.563 147.695 560.708 146.84 559.628 146.84C558.593 146.84 557.738 147.695 557.738 148.775C557.738 149.81 558.593 150.665 559.628 150.665ZM584.994 163.355C584.994 156.785 581.844 153.14 576.624 153.14C573.609 153.14 571.629 154.49 570.504 155.885C569.964 156.56 569.649 157.37 569.424 158.09L569.064 159.26L568.974 159.215L569.154 158.63C569.334 158 569.424 157.325 569.424 156.65V153.815H566.004V176.045H569.424V163.58C569.424 159.215 571.854 156.29 575.589 156.29C579.504 156.29 581.574 159.08 581.574 164.03C581.574 166.91 581.574 176.045 581.574 176.045H584.994V163.355ZM598.351 173.57C593.896 173.57 591.331 169.88 591.331 164.93C591.331 159.98 593.896 156.29 598.351 156.29C602.761 156.29 605.056 159.98 605.056 164.93C605.056 169.88 602.806 173.57 598.351 173.57ZM608.656 172.67V153.815H605.191V157.325C605.191 158 605.281 158.675 605.461 159.35L605.641 159.89L605.596 159.935L605.056 158.27C604.471 156.38 602.806 153.14 597.721 153.14C591.826 153.14 587.911 158.09 587.911 164.93C587.911 171.77 591.781 176.72 597.721 176.72C602.806 176.72 604.516 173.48 605.101 171.545L605.596 169.925L605.641 169.97L605.461 170.555C605.326 171.05 605.236 171.59 605.236 172.13C605.236 172.265 605.191 173.48 605.191 173.615C605.191 175.685 606.316 176.99 606.316 178.52C606.316 180.68 604.561 181.085 602.581 181.04H591.511V183.965H603.796C607.981 183.965 609.871 182.345 609.871 179.06C609.871 176.315 608.656 175.685 608.656 172.67ZM631.301 172.895C631.166 172.895 631.076 172.76 631.076 172.625V156.695H634.991V153.77H631.076V145.895H627.926C627.926 145.94 627.926 149.765 627.926 152.465C627.926 153.275 627.296 153.905 626.486 153.905H624.191V156.695H627.611C627.611 162.23 627.611 173.435 627.611 173.885C627.611 175.055 628.556 176 629.726 176H635.981V172.895H631.301ZM640.55 164.93C640.55 159.98 643.115 156.29 647.57 156.29C651.98 156.29 654.545 159.98 654.545 164.93C654.545 169.88 651.98 173.57 647.57 173.57C643.115 173.57 640.55 169.88 640.55 164.93ZM658.01 164.93C658.01 158.045 653.78 153.14 647.57 153.14C641.36 153.14 637.13 158.045 637.13 164.93C637.13 171.815 641.36 176.72 647.57 176.72C653.78 176.72 658.01 171.815 658.01 164.93ZM676.805 164.93C676.805 159.935 679.37 156.245 683.825 156.245C688.235 156.245 690.53 159.935 690.53 164.93C690.53 169.88 688.28 173.57 683.825 173.57C679.37 173.57 676.805 169.88 676.805 164.93ZM690.665 145.895V157.325C690.665 158 690.755 158.675 690.935 159.305L691.115 159.89H691.07L690.53 158.27C689.945 156.335 688.28 153.14 683.195 153.14C677.3 153.14 673.385 158.045 673.385 164.93C673.385 171.77 677.255 176.675 683.195 176.675C688.28 176.675 689.99 173.435 690.575 171.5L691.07 169.925H691.115L690.935 170.51C690.755 171.14 690.665 171.815 690.665 172.49V176.045H694.13V145.895H690.665ZM701.283 164.93C701.283 159.98 703.848 156.29 708.303 156.29C712.713 156.29 715.278 159.98 715.278 164.93C715.278 169.88 712.713 173.57 708.303 173.57C703.848 173.57 701.283 169.88 701.283 164.93ZM718.743 164.93C718.743 158.045 714.513 153.14 708.303 153.14C702.093 153.14 697.863 158.045 697.863 164.93C697.863 171.815 702.093 176.72 708.303 176.72C714.513 176.72 718.743 171.815 718.743 164.93ZM762.153 153.815L756.933 169.52C756.753 170.015 756.663 170.51 756.663 171.05V171.815H756.573V171.05C756.573 170.51 756.528 170.015 756.348 169.52L751.128 153.815H747.708L742.488 169.52C742.353 170.015 742.263 170.51 742.263 171.05V171.815H742.173V171.05C742.173 170.51 742.083 170.015 741.948 169.52L736.728 153.815H733.173L740.328 176.045H743.748L749.148 160.025C749.283 159.53 749.373 158.99 749.373 158.45V157.82H749.463V158.45C749.463 158.99 749.553 159.53 749.733 160.025L755.088 176.045H758.508L765.708 153.815H762.153ZM768.504 176.045H771.969C771.969 170.375 771.969 153.905 771.969 153.815H768.504V176.045ZM770.214 150.665C771.294 150.665 772.149 149.81 772.149 148.775C772.149 147.695 771.294 146.84 770.214 146.84C769.179 146.84 768.324 147.695 768.324 148.775C768.324 149.81 769.179 150.665 770.214 150.665ZM781.99 172.895C781.855 172.895 781.765 172.76 781.765 172.625V156.695H785.68V153.77H781.765V145.895H778.615C778.615 145.94 778.615 149.765 778.615 152.465C778.615 153.275 777.985 153.905 777.175 153.905H774.88V156.695H778.3C778.3 162.23 778.3 173.435 778.3 173.885C778.3 175.055 779.245 176 780.415 176H786.67V172.895H781.99ZM807.709 176.045V163.355C807.709 156.785 804.784 153.14 799.339 153.14C796.864 153.14 795.064 154.13 793.894 155.255C792.949 156.11 792.409 157.19 792.094 158.18L791.779 159.26L791.689 159.215L791.869 158.63C792.049 158 792.139 157.325 792.139 156.65V145.94H788.719V176.045H792.139V163.58C792.139 159.215 794.569 156.29 798.304 156.29C802.489 156.29 804.289 159.08 804.289 164.03C804.289 166.91 804.289 176.045 804.289 176.045H807.709ZM851.713 153.815L846.493 169.52C846.313 170.015 846.223 170.51 846.223 171.05V171.815H846.133V171.05C846.133 170.51 846.088 170.015 845.908 169.52L840.688 153.815H837.268L832.048 169.52C831.913 170.015 831.823 170.51 831.823 171.05V171.815H831.733V171.05C831.733 170.51 831.643 170.015 831.508 169.52L826.288 153.815H822.733L829.888 176.045H833.308L838.708 160.025C838.843 159.53 838.933 158.99 838.933 158.45V157.82H839.023V158.45C839.023 158.99 839.113 159.53 839.293 160.025L844.648 176.045H848.068L855.268 153.815H851.713ZM876.044 176.045V163.355C876.044 156.785 873.119 153.14 867.674 153.14C865.199 153.14 863.399 154.13 862.229 155.255C861.284 156.11 860.744 157.19 860.429 158.18L860.114 159.26L860.024 159.215L860.204 158.63C860.384 158 860.474 157.325 860.474 156.65V145.94H857.054V176.045H860.474V163.58C860.474 159.215 862.904 156.29 866.639 156.29C870.824 156.29 872.624 159.08 872.624 164.03C872.624 166.91 872.624 176.045 872.624 176.045H876.044ZM894.249 166.865C894.249 170.6 891.819 173.66 887.364 173.66C884.844 173.66 883.224 172.265 882.999 170.33C882.774 168.305 883.944 166.325 886.824 165.785C888.399 165.515 891.099 164.975 892.134 164.75C893.844 164.435 894.249 163.895 894.249 163.895V166.865ZM899.514 173.12H897.939C897.804 173.12 897.714 173.03 897.714 172.895V161.555C897.759 156.29 894.789 153.14 889.119 153.14C886.149 153.14 883.629 154.13 882.054 155.93C880.569 157.595 880.119 159.71 880.569 161.78L883.944 161.285C883.719 160.205 883.764 158.855 884.619 157.775C885.339 156.92 886.689 156.02 889.074 156.02C892.359 156.02 894.114 157.82 894.114 160.025C894.114 160.925 893.709 161.51 892.944 161.825C892.269 162.095 891.054 162.275 889.479 162.59C888.264 162.86 886.149 163.31 884.709 163.715C880.614 164.84 879.444 167.585 879.534 170.42C879.579 173.66 882.144 176.72 886.779 176.72C889.794 176.72 892.044 175.55 893.484 173.795C894.159 172.94 894.609 171.815 894.834 170.69C894.879 170.6 895.014 169.925 895.014 169.925H895.059L895.014 170.24C894.879 170.915 894.834 171.59 894.789 172.265C894.789 172.535 894.789 173.57 894.789 174.38C894.789 175.325 895.464 176.045 896.499 176.045H899.514V173.12ZM907.366 172.895C907.231 172.895 907.141 172.76 907.141 172.625V156.695H911.056V153.77H907.141V145.895H903.991C903.991 145.94 903.991 149.765 903.991 152.465C903.991 153.275 903.361 153.905 902.551 153.905H900.256V156.695H903.676C903.676 162.23 903.676 173.435 903.676 173.885C903.676 175.055 904.621 176 905.791 176H912.046V172.895H907.366ZM942.93 153.77L936.405 169.925C936.27 170.33 936.18 170.735 936.18 171.14V171.905H936.09V171.14C936.09 170.735 936 170.33 935.865 169.925L929.34 153.77H925.65L933.75 173.66C934.11 174.515 934.11 175.415 933.75 176.27L930.645 183.92H934.335L946.62 153.77H942.93ZM949.53 164.93C949.53 159.98 952.095 156.29 956.55 156.29C960.96 156.29 963.525 159.98 963.525 164.93C963.525 169.88 960.96 173.57 956.55 173.57C952.095 173.57 949.53 169.88 949.53 164.93ZM966.99 164.93C966.99 158.045 962.76 153.14 956.55 153.14C950.34 153.14 946.11 158.045 946.11 164.93C946.11 171.815 950.34 176.72 956.55 176.72C962.76 176.72 966.99 171.815 966.99 164.93ZM970.425 153.815V166.505C970.425 173.075 973.305 176.675 978.795 176.675C983.115 176.675 985.095 174.02 985.815 172.265L986.355 170.6L986.4 170.645L986.265 171.185C986.085 171.86 985.995 172.49 985.995 173.165V176H989.415V153.815H985.995V166.28C985.995 170.645 983.52 173.57 979.83 173.57C975.645 173.57 973.845 170.78 973.845 165.83C973.845 162.95 973.845 153.815 973.845 153.815H970.425ZM18.1549 211.865C18.1549 215.6 15.7249 218.66 11.2699 218.66C8.74988 218.66 7.12988 217.265 6.90488 215.33C6.67988 213.305 7.84988 211.325 10.7299 210.785C12.3049 210.515 15.0049 209.975 16.0399 209.75C17.7499 209.435 18.1549 208.895 18.1549 208.895V211.865ZM23.4199 218.12H21.8449C21.7099 218.12 21.6199 218.03 21.6199 217.895V206.555C21.6649 201.29 18.6949 198.14 13.0249 198.14C10.0549 198.14 7.53488 199.13 5.95988 200.93C4.47488 202.595 4.02488 204.71 4.47488 206.78L7.84988 206.285C7.62488 205.205 7.66988 203.855 8.52488 202.775C9.24488 201.92 10.5949 201.02 12.9799 201.02C16.2649 201.02 18.0199 202.82 18.0199 205.025C18.0199 205.925 17.6149 206.51 16.8499 206.825C16.1749 207.095 14.9599 207.275 13.3849 207.59C12.1699 207.86 10.0549 208.31 8.61488 208.715C4.51988 209.84 3.34988 212.585 3.43988 215.42C3.48488 218.66 6.04988 221.72 10.6849 221.72C13.6999 221.72 15.9499 220.55 17.3899 218.795C18.0649 217.94 18.5149 216.815 18.7399 215.69C18.7849 215.6 18.9199 214.925 18.9199 214.925H18.9649L18.9199 215.24C18.7849 215.915 18.7399 216.59 18.6949 217.265C18.6949 217.535 18.6949 218.57 18.6949 219.38C18.6949 220.325 19.3699 221.045 20.4049 221.045H23.4199V218.12ZM43.1738 212.135C42.4988 215.96 40.1138 218.57 36.3788 218.57C31.9238 218.57 29.3588 214.88 29.3588 209.93C29.3588 204.98 31.9238 201.29 36.3788 201.29C40.1138 201.29 42.4988 203.9 43.1738 207.725L46.5938 207.365C45.6938 201.785 41.7788 198.14 36.3788 198.14C30.1688 198.14 25.9388 203.045 25.9388 209.93C25.9388 216.815 30.1688 221.72 36.3788 221.72C41.7788 221.72 45.6938 218.075 46.5938 212.54L43.1738 212.135ZM55.5738 217.895C55.4388 217.895 55.3488 217.76 55.3488 217.625V201.695H59.2638V198.77H55.3488V190.895H52.1988C52.1988 190.94 52.1988 194.765 52.1988 197.465C52.1988 198.275 51.5688 198.905 50.7588 198.905H48.4638V201.695H51.8838C51.8838 207.23 51.8838 218.435 51.8838 218.885C51.8838 220.055 52.8288 221 53.9988 221H60.2538V217.895H55.5738ZM62.9984 198.815V211.505C62.9984 218.075 65.8784 221.675 71.3684 221.675C75.6884 221.675 77.6684 219.02 78.3884 217.265L78.9284 215.6L78.9734 215.645L78.8384 216.185C78.6584 216.86 78.5684 217.49 78.5684 218.165V221H81.9884V198.815H78.5684V211.28C78.5684 215.645 76.0934 218.57 72.4034 218.57C68.2184 218.57 66.4184 215.78 66.4184 210.83C66.4184 207.95 66.4184 198.815 66.4184 198.815H62.9984ZM100.464 211.865C100.464 215.6 98.0344 218.66 93.5794 218.66C91.0594 218.66 89.4394 217.265 89.2144 215.33C88.9894 213.305 90.1594 211.325 93.0394 210.785C94.6144 210.515 97.3144 209.975 98.3494 209.75C100.059 209.435 100.464 208.895 100.464 208.895V211.865ZM105.729 218.12H104.154C104.019 218.12 103.929 218.03 103.929 217.895V206.555C103.974 201.29 101.004 198.14 95.3344 198.14C92.3644 198.14 89.8444 199.13 88.2694 200.93C86.7844 202.595 86.3344 204.71 86.7844 206.78L90.1594 206.285C89.9344 205.205 89.9794 203.855 90.8344 202.775C91.5544 201.92 92.9044 201.02 95.2894 201.02C98.5744 201.02 100.329 202.82 100.329 205.025C100.329 205.925 99.9244 206.51 99.1594 206.825C98.4844 207.095 97.2694 207.275 95.6944 207.59C94.4794 207.86 92.3644 208.31 90.9244 208.715C86.8294 209.84 85.6594 212.585 85.7494 215.42C85.7944 218.66 88.3594 221.72 92.9944 221.72C96.0094 221.72 98.2594 220.55 99.6994 218.795C100.374 217.94 100.824 216.815 101.049 215.69C101.094 215.6 101.229 214.925 101.229 214.925H101.274L101.229 215.24C101.094 215.915 101.049 216.59 101.004 217.265C101.004 217.535 101.004 218.57 101.004 219.38C101.004 220.325 101.679 221.045 102.714 221.045H105.729V218.12ZM109.103 218.93C109.103 220.1 110.048 221.045 111.218 221.045H116.843V217.895H112.793C112.658 217.895 112.523 217.805 112.523 217.625V190.94H109.103C109.058 191.075 109.058 218.21 109.103 218.93ZM119.694 218.93C119.694 220.1 120.639 221.045 121.809 221.045H127.434V217.895H123.384C123.249 217.895 123.114 217.805 123.114 217.625V190.94H119.694C119.649 191.075 119.649 218.21 119.694 218.93ZM143.916 198.77L137.391 214.925C137.256 215.33 137.166 215.735 137.166 216.14V216.905H137.076V216.14C137.076 215.735 136.986 215.33 136.851 214.925L130.326 198.77H126.636L134.736 218.66C135.096 219.515 135.096 220.415 134.736 221.27L131.631 228.92H135.321L147.606 198.77H143.916ZM189.941 198.815L184.721 214.52C184.541 215.015 184.451 215.51 184.451 216.05V216.815H184.361V216.05C184.361 215.51 184.316 215.015 184.136 214.52L178.916 198.815H175.496L170.276 214.52C170.141 215.015 170.051 215.51 170.051 216.05V216.815H169.961V216.05C169.961 215.51 169.871 215.015 169.736 214.52L164.516 198.815H160.961L168.116 221.045H171.536L176.936 205.025C177.071 204.53 177.161 203.99 177.161 203.45V202.82H177.251V203.45C177.251 203.99 177.341 204.53 177.521 205.025L182.876 221.045H186.296L193.496 198.815H189.941ZM209.141 211.865C209.141 215.6 206.711 218.66 202.256 218.66C199.736 218.66 198.116 217.265 197.891 215.33C197.666 213.305 198.836 211.325 201.716 210.785C203.291 210.515 205.991 209.975 207.026 209.75C208.736 209.435 209.141 208.895 209.141 208.895V211.865ZM214.406 218.12H212.831C212.696 218.12 212.606 218.03 212.606 217.895V206.555C212.651 201.29 209.681 198.14 204.011 198.14C201.041 198.14 198.521 199.13 196.946 200.93C195.461 202.595 195.011 204.71 195.461 206.78L198.836 206.285C198.611 205.205 198.656 203.855 199.511 202.775C200.231 201.92 201.581 201.02 203.966 201.02C207.251 201.02 209.006 202.82 209.006 205.025C209.006 205.925 208.601 206.51 207.836 206.825C207.161 207.095 205.946 207.275 204.371 207.59C203.156 207.86 201.041 208.31 199.601 208.715C195.506 209.84 194.336 212.585 194.426 215.42C194.471 218.66 197.036 221.72 201.671 221.72C204.686 221.72 206.936 220.55 208.376 218.795C209.051 217.94 209.501 216.815 209.726 215.69C209.771 215.6 209.906 214.925 209.906 214.925H209.951L209.906 215.24C209.771 215.915 209.726 216.59 209.681 217.265C209.681 217.535 209.681 218.57 209.681 219.38C209.681 220.325 210.356 221.045 211.391 221.045H214.406V218.12ZM236.815 208.355C236.815 201.785 233.665 198.14 228.445 198.14C225.43 198.14 223.45 199.49 222.325 200.885C221.785 201.56 221.47 202.37 221.245 203.09L220.885 204.26L220.795 204.215L220.975 203.63C221.155 203 221.245 202.325 221.245 201.65V198.815H217.825V221.045H221.245V208.58C221.245 204.215 223.675 201.29 227.41 201.29C231.325 201.29 233.395 204.08 233.395 209.03C233.395 211.91 233.395 221.045 233.395 221.045H236.815V208.355ZM245.505 217.895C245.37 217.895 245.28 217.76 245.28 217.625V201.695H249.195V198.77H245.28V190.895H242.13C242.13 190.94 242.13 194.765 242.13 197.465C242.13 198.275 241.5 198.905 240.69 198.905H238.395V201.695H241.815C241.815 207.23 241.815 218.435 241.815 218.885C241.815 220.055 242.76 221 243.93 221H250.185V217.895H245.505ZM261.774 201.29C265.779 201.29 268.164 204.305 268.569 208.4H254.934C255.339 204.305 257.769 201.29 261.774 201.29ZM272.124 210.965C272.169 210.65 272.214 210.29 272.214 209.93C272.214 203.045 267.984 198.14 261.774 198.14C255.564 198.14 251.334 203.045 251.334 209.93C251.334 216.815 255.564 221.72 261.774 221.72C266.769 221.72 270.414 218.525 271.719 213.755L268.209 213.125C267.444 216.32 265.194 218.57 261.774 218.57C257.589 218.57 255.159 215.285 254.934 210.965H272.124ZM278.397 209.93C278.397 204.935 280.962 201.245 285.417 201.245C289.827 201.245 292.122 204.935 292.122 209.93C292.122 214.88 289.872 218.57 285.417 218.57C280.962 218.57 278.397 214.88 278.397 209.93ZM292.257 190.895V202.325C292.257 203 292.347 203.675 292.527 204.305L292.707 204.89H292.662L292.122 203.27C291.537 201.335 289.872 198.14 284.787 198.14C278.892 198.14 274.977 203.045 274.977 209.93C274.977 216.77 278.847 221.675 284.787 221.675C289.872 221.675 291.582 218.435 292.167 216.5L292.662 214.925H292.707L292.527 215.51C292.347 216.14 292.257 216.815 292.257 217.49V221.045H295.722V190.895H292.257ZM299.791 221.315C300.871 221.315 301.726 220.415 301.726 219.38C301.726 218.3 300.871 217.445 299.791 217.445C298.756 217.445 297.901 218.3 297.901 219.38C297.901 220.415 298.756 221.315 299.791 221.315ZM311.677 190.22C310.867 190.4 310.237 191.075 310.192 191.93C310.147 192.2 310.237 192.515 310.372 192.785C310.462 193.01 310.417 193.19 310.327 193.325L308.617 195.08L310.327 196.7L313.477 193.325C313.927 192.83 314.017 192.2 313.882 191.615C313.567 190.625 312.667 190.04 311.677 190.22ZM306.277 190.22C305.467 190.4 304.837 191.075 304.792 191.93C304.792 192.2 304.837 192.515 304.972 192.785C305.107 193.01 305.017 193.19 304.927 193.325L303.262 195.08L304.927 196.7L308.077 193.325C308.527 192.83 308.617 192.2 308.482 191.615C308.212 190.625 307.267 190.04 306.277 190.22ZM351.583 212.99C351.583 207.455 346.858 205.43 340.828 203.855C335.473 202.505 332.998 201.155 332.998 198.095C332.998 195.44 335.158 193.415 339.793 193.415C344.428 193.415 346.768 195.935 346.768 199.805H350.458C350.458 194.72 347.623 190.22 339.793 190.22C332.413 190.22 329.308 193.775 329.308 198.05C329.308 202.82 332.503 205.25 339.163 206.87C345.193 208.355 347.848 209.615 347.848 213.215C347.848 216.32 345.148 218.525 340.468 218.525C335.068 218.525 332.278 215.51 332.278 211.415H328.588C328.588 216.995 332.188 221.675 340.558 221.675C348.523 221.675 351.583 217.445 351.583 212.99ZM357.806 209.93C357.806 204.98 360.371 201.29 364.826 201.29C369.236 201.29 371.801 204.98 371.801 209.93C371.801 214.88 369.236 218.57 364.826 218.57C360.371 218.57 357.806 214.88 357.806 209.93ZM375.266 209.93C375.266 203.045 371.036 198.14 364.826 198.14C358.616 198.14 354.386 203.045 354.386 209.93C354.386 216.815 358.616 221.72 364.826 221.72C371.036 221.72 375.266 216.815 375.266 209.93ZM378.702 198.815V211.505C378.702 218.075 381.582 221.675 387.072 221.675C391.392 221.675 393.372 219.02 394.092 217.265L394.632 215.6L394.677 215.645L394.542 216.185C394.362 216.86 394.272 217.49 394.272 218.165V221H397.692V198.815H394.272V211.28C394.272 215.645 391.797 218.57 388.107 218.57C383.922 218.57 382.122 215.78 382.122 210.83C382.122 207.95 382.122 198.815 382.122 198.815H378.702ZM421.298 208.355C421.298 201.785 418.148 198.14 412.928 198.14C409.913 198.14 407.933 199.49 406.808 200.885C406.268 201.56 405.953 202.37 405.728 203.09L405.368 204.26L405.278 204.215L405.458 203.63C405.638 203 405.728 202.325 405.728 201.65V198.815H402.308V221.045H405.728V208.58C405.728 204.215 408.158 201.29 411.893 201.29C415.808 201.29 417.878 204.08 417.878 209.03C417.878 211.91 417.878 221.045 417.878 221.045H421.298V208.355ZM428.119 209.93C428.119 204.935 430.684 201.245 435.139 201.245C439.549 201.245 441.844 204.935 441.844 209.93C441.844 214.88 439.594 218.57 435.139 218.57C430.684 218.57 428.119 214.88 428.119 209.93ZM441.979 190.895V202.325C441.979 203 442.069 203.675 442.249 204.305L442.429 204.89H442.384L441.844 203.27C441.259 201.335 439.594 198.14 434.509 198.14C428.614 198.14 424.699 203.045 424.699 209.93C424.699 216.77 428.569 221.675 434.509 221.675C439.594 221.675 441.304 218.435 441.889 216.5L442.384 214.925H442.429L442.249 215.51C442.069 216.14 441.979 216.815 441.979 217.49V221.045H445.444V190.895H441.979ZM468.136 201.92H472.591V198.77H467.866C467.866 198.77 467.551 196.655 467.551 195.62C467.551 194.54 468.181 193.82 469.036 193.82H470.926V190.895H467.776C465.391 190.895 464.356 192.56 464.356 194.405C464.356 195.755 464.626 197.195 464.896 197.96C464.986 198.32 465.256 198.59 465.571 198.77C465.706 198.86 466.111 199.085 466.246 199.085V199.175C466.156 199.175 465.886 199.085 465.796 199.04C465.211 198.905 464.581 198.77 463.996 198.77H460.801V201.92H464.671V221H468.136V201.92ZM489.161 211.865C489.161 215.6 486.731 218.66 482.276 218.66C479.756 218.66 478.136 217.265 477.911 215.33C477.686 213.305 478.856 211.325 481.736 210.785C483.311 210.515 486.011 209.975 487.046 209.75C488.756 209.435 489.161 208.895 489.161 208.895V211.865ZM494.426 218.12H492.851C492.716 218.12 492.626 218.03 492.626 217.895V206.555C492.671 201.29 489.701 198.14 484.031 198.14C481.061 198.14 478.541 199.13 476.966 200.93C475.481 202.595 475.031 204.71 475.481 206.78L478.856 206.285C478.631 205.205 478.676 203.855 479.531 202.775C480.251 201.92 481.601 201.02 483.986 201.02C487.271 201.02 489.026 202.82 489.026 205.025C489.026 205.925 488.621 206.51 487.856 206.825C487.181 207.095 485.966 207.275 484.391 207.59C483.176 207.86 481.061 208.31 479.621 208.715C475.526 209.84 474.356 212.585 474.446 215.42C474.491 218.66 477.056 221.72 481.691 221.72C484.706 221.72 486.956 220.55 488.396 218.795C489.071 217.94 489.521 216.815 489.746 215.69C489.791 215.6 489.926 214.925 489.926 214.925H489.971L489.926 215.24C489.791 215.915 489.746 216.59 489.701 217.265C489.701 217.535 489.701 218.57 489.701 219.38C489.701 220.325 490.376 221.045 491.411 221.045H494.426V218.12ZM514.585 202.505C513.37 199.22 510.85 198.14 508.06 198.14C505.135 198.14 503.425 199.49 502.39 200.885C501.805 201.605 501.445 202.415 501.22 203.18L500.905 204.26L500.815 204.215L500.995 203.63C501.175 203 501.265 202.325 501.265 201.65V198.815H497.845V221.045H501.265V208.58C501.265 204.215 503.335 201.29 506.8 201.29C509.77 201.29 512.02 203 512.02 208.58C512.02 211.415 512.02 221.045 512.02 221.045H515.485V208.58C515.485 204.215 517.51 201.29 521.02 201.29C523.99 201.29 526.24 203.36 526.24 208.355C526.24 211.19 526.24 221.045 526.24 221.045H529.705V207.41C529.705 200.885 526.195 198.14 521.92 198.14C518.275 198.14 516.385 200.39 515.575 201.83C515.17 202.55 514.9 203.27 514.81 203.72C514.765 203.81 514.675 204.26 514.675 204.26L514.63 204.215L514.675 203.9C514.81 203.36 514.765 202.91 514.585 202.505ZM534.012 221.045H537.477C537.477 215.375 537.477 198.905 537.477 198.815H534.012V221.045ZM535.722 195.665C536.802 195.665 537.657 194.81 537.657 193.775C537.657 192.695 536.802 191.84 535.722 191.84C534.687 191.84 533.832 192.695 533.832 193.775C533.832 194.81 534.687 195.665 535.722 195.665ZM542.053 218.93C542.053 220.1 542.998 221.045 544.168 221.045H549.793V217.895H545.743C545.608 217.895 545.473 217.805 545.473 217.625V190.94H542.053C542.008 191.075 542.008 218.21 542.053 218.93ZM552.688 221.045H556.153C556.153 215.375 556.153 198.905 556.153 198.815H552.688V221.045ZM554.398 195.665C555.478 195.665 556.333 194.81 556.333 193.775C556.333 192.695 555.478 191.84 554.398 191.84C553.363 191.84 552.508 192.695 552.508 193.775C552.508 194.81 553.363 195.665 554.398 195.665ZM574.634 211.865C574.634 215.6 572.204 218.66 567.749 218.66C565.229 218.66 563.609 217.265 563.384 215.33C563.159 213.305 564.329 211.325 567.209 210.785C568.784 210.515 571.484 209.975 572.519 209.75C574.229 209.435 574.634 208.895 574.634 208.895V211.865ZM579.899 218.12H578.324C578.189 218.12 578.099 218.03 578.099 217.895V206.555C578.144 201.29 575.174 198.14 569.504 198.14C566.534 198.14 564.014 199.13 562.439 200.93C560.954 202.595 560.504 204.71 560.954 206.78L564.329 206.285C564.104 205.205 564.149 203.855 565.004 202.775C565.724 201.92 567.074 201.02 569.459 201.02C572.744 201.02 574.499 202.82 574.499 205.025C574.499 205.925 574.094 206.51 573.329 206.825C572.654 207.095 571.439 207.275 569.864 207.59C568.649 207.86 566.534 208.31 565.094 208.715C560.999 209.84 559.829 212.585 559.919 215.42C559.964 218.66 562.529 221.72 567.164 221.72C570.179 221.72 572.429 220.55 573.869 218.795C574.544 217.94 574.994 216.815 575.219 215.69C575.264 215.6 575.399 214.925 575.399 214.925H575.444L575.399 215.24C575.264 215.915 575.219 216.59 575.174 217.265C575.174 217.535 575.174 218.57 575.174 219.38C575.174 220.325 575.849 221.045 576.884 221.045H579.899V218.12ZM586.738 221.045V210.11C586.738 206.375 588.493 201.47 590.293 201.47C591.508 201.47 591.868 203.09 591.868 204.35V206.825H595.333V203.63C595.333 200.3 594.253 198.14 591.643 198.14C590.293 198.14 589.168 199.13 588.358 200.3C587.548 201.425 587.098 202.73 586.963 203.495C586.918 203.63 586.738 204.71 586.693 204.845L586.558 205.7H586.513L586.603 205.115C586.693 204.395 586.738 203.72 586.738 203V198.815H583.318V221.045H586.738ZM604.868 215.69C603.788 215.69 602.933 216.545 602.933 217.625C602.933 218.66 603.788 219.515 604.868 219.515C605.948 219.515 606.803 218.66 606.803 217.625C606.803 216.545 605.948 215.69 604.868 215.69ZM603.023 205.745V212.225H606.713V207.005C606.713 206.6 607.028 206.33 607.388 206.24C607.478 206.24 607.613 206.195 607.658 206.195C611.663 205.295 614.948 203.045 614.948 198.365C614.948 194.54 612.248 190.22 605.993 190.22C598.793 190.22 596.633 195.08 596.678 198.455H600.368C600.368 196.97 601.133 193.505 606.038 193.505C609.053 193.505 611.213 195.62 611.213 198.275C611.213 200.615 609.503 203 606.038 203H605.633C604.193 203 603.023 204.26 603.023 205.745ZM8.20988 311.045V280.895H4.51988V311.045H8.20988ZM18.4839 307.895C18.3489 307.895 18.2589 307.76 18.2589 307.625V291.695H22.1739V288.77H18.2589V280.895H15.1089C15.1089 280.94 15.1089 284.765 15.1089 287.465C15.1089 288.275 14.4789 288.905 13.6689 288.905H11.3739V291.695H14.7939C14.7939 297.23 14.7939 308.435 14.7939 308.885C14.7939 310.055 15.7389 311 16.9089 311H23.1639V307.895H18.4839ZM55.263 305.24C55.263 300.56 50.943 299.255 47.343 298.355C45.408 297.86 41.763 297.05 41.763 294.305C41.763 292.64 43.113 291.02 46.443 291.02C50.133 291.02 51.258 293.045 51.258 295.295H54.453C54.453 291.65 52.383 288.14 46.353 288.14C40.638 288.14 38.298 290.93 38.298 293.99C38.298 297.995 41.358 299.615 45.588 300.65C49.773 301.64 51.798 302.855 51.798 305.06C51.798 307.49 49.683 308.795 46.758 308.795C41.898 308.795 41.223 305.33 41.223 303.935H37.803C37.803 307.67 40.188 311.675 46.893 311.675C52.743 311.675 55.263 308.75 55.263 305.24ZM77.9968 311.045V298.355C77.9968 291.785 75.0718 288.14 69.6268 288.14C67.1518 288.14 65.3518 289.13 64.1818 290.255C63.2368 291.11 62.6968 292.19 62.3818 293.18L62.0668 294.26L61.9768 294.215L62.1568 293.63C62.3368 293 62.4268 292.325 62.4268 291.65V280.94H59.0068V311.045H62.4268V298.58C62.4268 294.215 64.8568 291.29 68.5918 291.29C72.7768 291.29 74.5768 294.08 74.5768 299.03C74.5768 301.91 74.5768 311.045 74.5768 311.045H77.9968ZM84.8618 299.93C84.8618 294.98 87.4268 291.29 91.8818 291.29C96.2918 291.29 98.8568 294.98 98.8568 299.93C98.8568 304.88 96.2918 308.57 91.8818 308.57C87.4268 308.57 84.8618 304.88 84.8618 299.93ZM102.322 299.93C102.322 293.045 98.0918 288.14 91.8818 288.14C85.6718 288.14 81.4418 293.045 81.4418 299.93C81.4418 306.815 85.6718 311.72 91.8818 311.72C98.0918 311.72 102.322 306.815 102.322 299.93ZM105.757 288.815V301.505C105.757 308.075 108.637 311.675 114.127 311.675C118.447 311.675 120.427 309.02 121.147 307.265L121.687 305.6L121.732 305.645L121.597 306.185C121.417 306.86 121.327 307.49 121.327 308.165V311H124.747V288.815H121.327V301.28C121.327 305.645 118.852 308.57 115.162 308.57C110.977 308.57 109.177 305.78 109.177 300.83C109.177 297.95 109.177 288.815 109.177 288.815H105.757ZM129.318 308.93C129.318 310.1 130.263 311.045 131.433 311.045H137.058V307.895H133.008C132.873 307.895 132.738 307.805 132.738 307.625V280.94H129.318C129.273 281.075 129.273 308.21 129.318 308.93ZM141.463 299.93C141.463 294.935 144.028 291.245 148.483 291.245C152.893 291.245 155.188 294.935 155.188 299.93C155.188 304.88 152.938 308.57 148.483 308.57C144.028 308.57 141.463 304.88 141.463 299.93ZM155.323 280.895V292.325C155.323 293 155.413 293.675 155.593 294.305L155.773 294.89H155.728L155.188 293.27C154.603 291.335 152.938 288.14 147.853 288.14C141.958 288.14 138.043 293.045 138.043 299.93C138.043 306.77 141.913 311.675 147.853 311.675C152.938 311.675 154.648 308.435 155.233 306.5L155.728 304.925H155.773L155.593 305.51C155.413 306.14 155.323 306.815 155.323 307.49V311.045H158.788V280.895H155.323ZM182.411 298.355C182.411 291.785 179.261 288.14 174.041 288.14C171.026 288.14 169.046 289.49 167.921 290.885C167.381 291.56 167.066 292.37 166.841 293.09L166.481 294.26L166.391 294.215L166.571 293.63C166.751 293 166.841 292.325 166.841 291.65V288.815H163.421V311.045H166.841V298.58C166.841 294.215 169.271 291.29 173.006 291.29C176.921 291.29 178.991 294.08 178.991 299.03C178.991 301.91 178.991 311.045 178.991 311.045H182.411V298.355ZM187.053 280.22C186.243 280.4 185.613 281.075 185.568 281.93C185.568 282.2 185.613 282.515 185.748 282.785C185.883 283.01 185.793 283.19 185.703 283.325L184.038 285.08L185.703 286.7L188.853 283.325C189.303 282.83 189.393 282.2 189.258 281.615C188.988 280.625 188.043 280.04 187.053 280.22ZM196.99 307.895C196.855 307.895 196.765 307.76 196.765 307.625V291.695H200.68V288.77H196.765V280.895H193.615C193.615 280.94 193.615 284.765 193.615 287.465C193.615 288.275 192.985 288.905 192.175 288.905H189.88V291.695H193.3C193.3 297.23 193.3 308.435 193.3 308.885C193.3 310.055 194.245 311 195.415 311H201.67V307.895H196.99ZM236.244 311.045V298.355C236.244 291.785 233.319 288.14 227.874 288.14C225.399 288.14 223.599 289.13 222.429 290.255C221.484 291.11 220.944 292.19 220.629 293.18L220.314 294.26L220.224 294.215L220.404 293.63C220.584 293 220.674 292.325 220.674 291.65V280.94H217.254V311.045H220.674V298.58C220.674 294.215 223.104 291.29 226.839 291.29C231.024 291.29 232.824 294.08 232.824 299.03C232.824 301.91 232.824 311.045 232.824 311.045H236.244ZM254.449 301.865C254.449 305.6 252.019 308.66 247.564 308.66C245.044 308.66 243.424 307.265 243.199 305.33C242.974 303.305 244.144 301.325 247.024 300.785C248.599 300.515 251.299 299.975 252.334 299.75C254.044 299.435 254.449 298.895 254.449 298.895V301.865ZM259.714 308.12H258.139C258.004 308.12 257.914 308.03 257.914 307.895V296.555C257.959 291.29 254.989 288.14 249.319 288.14C246.349 288.14 243.829 289.13 242.254 290.93C240.769 292.595 240.319 294.71 240.769 296.78L244.144 296.285C243.919 295.205 243.964 293.855 244.819 292.775C245.539 291.92 246.889 291.02 249.274 291.02C252.559 291.02 254.314 292.82 254.314 295.025C254.314 295.925 253.909 296.51 253.144 296.825C252.469 297.095 251.254 297.275 249.679 297.59C248.464 297.86 246.349 298.31 244.909 298.715C240.814 299.84 239.644 302.585 239.734 305.42C239.779 308.66 242.344 311.72 246.979 311.72C249.994 311.72 252.244 310.55 253.684 308.795C254.359 307.94 254.809 306.815 255.034 305.69C255.079 305.6 255.214 304.925 255.214 304.925H255.259L255.214 305.24C255.079 305.915 255.034 306.59 254.989 307.265C254.989 307.535 254.989 308.57 254.989 309.38C254.989 310.325 255.664 311.045 256.699 311.045H259.714V308.12ZM277.242 288.815L270.762 307.22C270.627 307.625 270.537 308.12 270.537 308.57V309.38H270.447V308.57C270.447 308.12 270.402 307.67 270.267 307.22L263.787 288.815H260.232L268.017 311.045H273.012L280.797 288.815H277.242ZM291.481 291.29C295.486 291.29 297.871 294.305 298.276 298.4H284.641C285.046 294.305 287.476 291.29 291.481 291.29ZM301.831 300.965C301.876 300.65 301.921 300.29 301.921 299.93C301.921 293.045 297.691 288.14 291.481 288.14C285.271 288.14 281.041 293.045 281.041 299.93C281.041 306.815 285.271 311.72 291.481 311.72C296.476 311.72 300.121 308.525 301.426 303.755L297.916 303.125C297.151 306.32 294.901 308.57 291.481 308.57C287.296 308.57 284.866 305.285 284.641 300.965H301.831ZM323.508 307.895C323.373 307.895 323.283 307.76 323.283 307.625V291.695H327.198V288.77H323.283V280.895H320.133C320.133 280.94 320.133 284.765 320.133 287.465C320.133 288.275 319.503 288.905 318.693 288.905H316.398V291.695H319.818C319.818 297.23 319.818 308.435 319.818 308.885C319.818 310.055 320.763 311 321.933 311H328.188V307.895H323.508ZM332.757 299.93C332.757 294.98 335.322 291.29 339.777 291.29C344.187 291.29 346.752 294.98 346.752 299.93C346.752 304.88 344.187 308.57 339.777 308.57C335.322 308.57 332.757 304.88 332.757 299.93ZM350.217 299.93C350.217 293.045 345.987 288.14 339.777 288.14C333.567 288.14 329.337 293.045 329.337 299.93C329.337 306.815 333.567 311.72 339.777 311.72C345.987 311.72 350.217 306.815 350.217 299.93ZM353.052 311.315C354.132 311.315 354.987 310.415 354.987 309.38C354.987 308.3 354.132 307.445 353.052 307.445C352.017 307.445 351.162 308.3 351.162 309.38C351.162 310.415 352.017 311.315 353.052 311.315Z" fill="#FFF6E9"/>
</svg>
