<svg width="887" height="312" viewBox="0 0 887 312" fill="none" xmlns="http://www.w3.org/2000/svg">
<path d="M25.2999 50.78C21.8332 50.78 18.6049 50.1517 15.6149 48.895C12.6682 47.6383 10.0899 45.8833 7.87988 43.63C5.66988 41.3767 3.93654 38.7333 2.67988 35.7C1.46654 32.6667 0.859878 29.3517 0.859878 25.755C0.859878 22.1583 1.46654 18.8433 2.67988 15.81C3.89321 12.7333 5.60488 10.09 7.81488 7.88C10.0249 5.62666 12.6032 3.89333 15.5499 2.68C18.5399 1.42333 21.7899 0.794998 25.2999 0.794998C28.8099 0.794998 31.9515 1.38 34.7249 2.55C37.5415 3.72 39.9249 5.28 41.8749 7.23C43.8249 9.18 45.2115 11.3467 46.0349 13.73L37.1299 18.02C36.3065 15.68 34.8549 13.7517 32.7749 12.235C30.7382 10.675 28.2465 9.895 25.2999 9.895C22.4399 9.895 19.9265 10.5667 17.7599 11.91C15.5932 13.2533 13.9032 15.1167 12.6899 17.5C11.5199 19.84 10.9349 22.5917 10.9349 25.755C10.9349 28.9183 11.5199 31.6917 12.6899 34.075C13.9032 36.4583 15.5932 38.3217 17.7599 39.665C19.9265 41.0083 22.4399 41.68 25.2999 41.68C28.2465 41.68 30.7382 40.9217 32.7749 39.405C34.8549 37.845 36.3065 35.895 37.1299 33.555L46.0349 37.845C45.2115 40.2283 43.8249 42.395 41.8749 44.345C39.9249 46.295 37.5415 47.855 34.7249 49.025C31.9515 50.195 28.8099 50.78 25.2999 50.78ZM62.1351 50.78C59.5784 50.78 57.3684 50.3683 55.5051 49.545C53.6417 48.7217 52.2117 47.5517 51.2151 46.035C50.2184 44.475 49.7201 42.6333 49.7201 40.51C49.7201 38.5167 50.1751 36.7617 51.0851 35.245C51.9951 33.685 53.3817 32.385 55.2451 31.345C57.1517 30.305 59.5134 29.5683 62.3301 29.135L73.1851 27.38V34.53L64.0851 36.155C62.6984 36.415 61.6367 36.87 60.9001 37.52C60.1634 38.1267 59.7951 39.015 59.7951 40.185C59.7951 41.2683 60.2067 42.1133 61.0301 42.72C61.8534 43.3267 62.8717 43.63 64.0851 43.63C65.6884 43.63 67.0967 43.2833 68.3101 42.59C69.5234 41.8967 70.4551 40.965 71.1051 39.795C71.7984 38.5817 72.1451 37.26 72.1451 35.83V26.6C72.1451 25.2567 71.6034 24.13 70.5201 23.22C69.4801 22.31 68.0501 21.855 66.2301 21.855C64.4967 21.855 62.9584 22.3317 61.6151 23.285C60.3151 24.2383 59.3617 25.495 58.7551 27.055L50.9551 23.35C51.6484 21.3567 52.7534 19.645 54.2701 18.215C55.7867 16.785 57.6067 15.68 59.7301 14.9C61.8534 14.12 64.1717 13.73 66.6851 13.73C69.6751 13.73 72.3184 14.2717 74.6151 15.355C76.9117 16.4383 78.6884 17.955 79.9451 19.905C81.2451 21.8117 81.8951 24.0433 81.8951 26.6V50H72.7951V44.28L75.0051 43.89C73.9651 45.45 72.8167 46.75 71.5601 47.79C70.3034 48.7867 68.8951 49.5233 67.3351 50C65.7751 50.52 64.0417 50.78 62.1351 50.78ZM89.0456 50V14.51H98.1456V21.53L97.6256 19.97C98.4489 17.8467 99.7706 16.2867 101.591 15.29C103.454 14.25 105.621 13.73 108.091 13.73C110.777 13.73 113.117 14.2933 115.111 15.42C117.147 16.5467 118.729 18.1283 119.856 20.165C120.982 22.1583 121.546 24.4983 121.546 27.185V50H111.796V29.265C111.796 27.8783 111.514 26.6867 110.951 25.69C110.431 24.6933 109.672 23.9133 108.676 23.35C107.722 22.7867 106.596 22.505 105.296 22.505C104.039 22.505 102.912 22.7867 101.916 23.35C100.919 23.9133 100.139 24.6933 99.5756 25.69C99.0556 26.6867 98.7956 27.8783 98.7956 29.265V50H89.0456ZM144.662 50.78C141.195 50.78 138.097 49.9567 135.367 48.31C132.637 46.6633 130.47 44.4317 128.867 41.615C127.307 38.7983 126.527 35.6783 126.527 32.255C126.527 28.7883 127.328 25.6683 128.932 22.895C130.535 20.0783 132.702 17.8467 135.432 16.2C138.162 14.5533 141.217 13.73 144.597 13.73C147.197 13.73 149.493 14.2283 151.487 15.225C153.523 16.1783 155.127 17.5433 156.297 19.32L154.802 21.27V0.794998H164.552V50H155.452V43.5L156.362 45.515C155.148 47.2483 153.502 48.57 151.422 49.48C149.342 50.3467 147.088 50.78 144.662 50.78ZM145.832 42.005C147.608 42.005 149.168 41.5933 150.512 40.77C151.855 39.9467 152.895 38.7983 153.632 37.325C154.412 35.8517 154.802 34.1617 154.802 32.255C154.802 30.3483 154.412 28.6583 153.632 27.185C152.895 25.7117 151.855 24.5633 150.512 23.74C149.168 22.9167 147.608 22.505 145.832 22.505C144.055 22.505 142.452 22.9383 141.022 23.805C139.635 24.6283 138.552 25.7767 137.772 27.25C136.992 28.68 136.602 30.3483 136.602 32.255C136.602 34.1617 136.992 35.8517 137.772 37.325C138.552 38.7983 139.635 39.9467 141.022 40.77C142.452 41.5933 144.055 42.005 145.832 42.005ZM171.692 50V14.51H181.442V50H171.692ZM171.692 11.325V1.575H181.442V11.325H171.692ZM205.282 50.78C201.815 50.78 198.717 49.9567 195.987 48.31C193.257 46.6633 191.09 44.4317 189.487 41.615C187.927 38.7983 187.147 35.6783 187.147 32.255C187.147 28.7883 187.948 25.6683 189.552 22.895C191.155 20.0783 193.322 17.8467 196.052 16.2C198.782 14.5533 201.837 13.73 205.217 13.73C207.817 13.73 210.113 14.2283 212.107 15.225C214.143 16.1783 215.747 17.5433 216.917 19.32L215.422 21.27V0.794998H225.172V50H216.072V43.5L216.982 45.515C215.768 47.2483 214.122 48.57 212.042 49.48C209.962 50.3467 207.708 50.78 205.282 50.78ZM206.452 42.005C208.228 42.005 209.788 41.5933 211.132 40.77C212.475 39.9467 213.515 38.7983 214.252 37.325C215.032 35.8517 215.422 34.1617 215.422 32.255C215.422 30.3483 215.032 28.6583 214.252 27.185C213.515 25.7117 212.475 24.5633 211.132 23.74C209.788 22.9167 208.228 22.505 206.452 22.505C204.675 22.505 203.072 22.9383 201.642 23.805C200.255 24.6283 199.172 25.7767 198.392 27.25C197.612 28.68 197.222 30.3483 197.222 32.255C197.222 34.1617 197.612 35.8517 198.392 37.325C199.172 38.7983 200.255 39.9467 201.642 40.77C203.072 41.5933 204.675 42.005 206.452 42.005ZM243.297 50.78C240.741 50.78 238.531 50.3683 236.667 49.545C234.804 48.7217 233.374 47.5517 232.377 46.035C231.381 44.475 230.882 42.6333 230.882 40.51C230.882 38.5167 231.337 36.7617 232.247 35.245C233.157 33.685 234.544 32.385 236.407 31.345C238.314 30.305 240.676 29.5683 243.492 29.135L254.347 27.38V34.53L245.247 36.155C243.861 36.415 242.799 36.87 242.062 37.52C241.326 38.1267 240.957 39.015 240.957 40.185C240.957 41.2683 241.369 42.1133 242.192 42.72C243.016 43.3267 244.034 43.63 245.247 43.63C246.851 43.63 248.259 43.2833 249.472 42.59C250.686 41.8967 251.617 40.965 252.267 39.795C252.961 38.5817 253.307 37.26 253.307 35.83V26.6C253.307 25.2567 252.766 24.13 251.682 23.22C250.642 22.31 249.212 21.855 247.392 21.855C245.659 21.855 244.121 22.3317 242.777 23.285C241.477 24.2383 240.524 25.495 239.917 27.055L232.117 23.35C232.811 21.3567 233.916 19.645 235.432 18.215C236.949 16.785 238.769 15.68 240.892 14.9C243.016 14.12 245.334 13.73 247.847 13.73C250.837 13.73 253.481 14.2717 255.777 15.355C258.074 16.4383 259.851 17.955 261.107 19.905C262.407 21.8117 263.057 24.0433 263.057 26.6V50H253.957V44.28L256.167 43.89C255.127 45.45 253.979 46.75 252.722 47.79C251.466 48.7867 250.057 49.5233 248.497 50C246.937 50.52 245.204 50.78 243.297 50.78ZM286.668 50.39C282.378 50.39 279.041 49.2417 276.658 46.945C274.318 44.605 273.148 41.355 273.148 37.195V22.96H267.168V14.51H267.493C269.313 14.51 270.7 14.055 271.653 13.145C272.65 12.235 273.148 10.87 273.148 9.05V6.45H282.898V14.51H291.218V22.96H282.898V36.545C282.898 37.7583 283.115 38.7767 283.548 39.6C283.981 40.38 284.653 40.965 285.563 41.355C286.473 41.745 287.6 41.94 288.943 41.94C289.246 41.94 289.593 41.9183 289.983 41.875C290.373 41.8317 290.785 41.7883 291.218 41.745V50C290.568 50.0867 289.831 50.1733 289.008 50.26C288.185 50.3467 287.405 50.39 286.668 50.39ZM314.026 50.78C310.256 50.78 306.985 49.9567 304.211 48.31C301.438 46.62 299.293 44.3667 297.776 41.55C296.26 38.7333 295.501 35.6133 295.501 32.19C295.501 28.6367 296.281 25.4733 297.841 22.7C299.445 19.9267 301.59 17.7383 304.276 16.135C306.963 14.5317 309.996 13.73 313.376 13.73C316.193 13.73 318.685 14.185 320.851 15.095C323.018 15.9617 324.838 17.1967 326.311 18.8C327.828 20.4033 328.976 22.2667 329.756 24.39C330.536 26.47 330.926 28.745 330.926 31.215C330.926 31.9083 330.883 32.6017 330.796 33.295C330.753 33.945 330.645 34.5083 330.471 34.985H303.886V27.835H324.946L320.331 31.215C320.765 29.3517 320.743 27.705 320.266 26.275C319.79 24.8017 318.945 23.6533 317.731 22.83C316.561 21.9633 315.11 21.53 313.376 21.53C311.686 21.53 310.235 21.9417 309.021 22.765C307.808 23.5883 306.898 24.8017 306.291 26.405C305.685 28.0083 305.446 29.9583 305.576 32.255C305.403 34.2483 305.641 36.0033 306.291 37.52C306.941 39.0367 307.938 40.2283 309.281 41.095C310.625 41.9183 312.25 42.33 314.156 42.33C315.89 42.33 317.363 41.9833 318.576 41.29C319.833 40.5967 320.808 39.6433 321.501 38.43L329.301 42.135C328.608 43.8683 327.503 45.385 325.986 46.685C324.513 47.985 322.758 49.0033 320.721 49.74C318.685 50.4333 316.453 50.78 314.026 50.78ZM350.578 50.78C346.678 50.78 343.276 49.87 340.373 48.05C337.513 46.1867 335.563 43.695 334.523 40.575L341.673 37.195C342.583 39.1017 343.818 40.5967 345.378 41.68C346.938 42.7633 348.671 43.305 350.578 43.305C351.964 43.305 353.026 43.0233 353.763 42.46C354.499 41.8967 354.868 41.1167 354.868 40.12C354.868 39.6 354.738 39.1667 354.478 38.82C354.218 38.43 353.828 38.0833 353.308 37.78C352.788 37.4767 352.138 37.2167 351.358 37L345.313 35.31C342.409 34.4867 340.178 33.165 338.618 31.345C337.058 29.4817 336.278 27.2933 336.278 24.78C336.278 22.57 336.841 20.6417 337.968 18.995C339.094 17.3483 340.676 16.07 342.713 15.16C344.749 14.2067 347.089 13.73 349.733 13.73C353.199 13.73 356.233 14.5533 358.833 16.2C361.476 17.8033 363.339 20.0783 364.423 23.025L357.208 26.405C356.688 24.9317 355.734 23.7617 354.348 22.895C353.004 21.985 351.466 21.53 349.733 21.53C348.476 21.53 347.479 21.79 346.743 22.31C346.049 22.83 345.703 23.545 345.703 24.455C345.703 24.9317 345.833 25.365 346.093 25.755C346.353 26.145 346.764 26.4917 347.328 26.795C347.934 27.0983 348.671 27.38 349.538 27.64L355.193 29.33C358.139 30.1967 360.393 31.5183 361.953 33.295C363.513 35.0283 364.293 37.1733 364.293 39.73C364.293 41.94 363.708 43.8683 362.538 45.515C361.411 47.1617 359.829 48.4617 357.793 49.415C355.756 50.325 353.351 50.78 350.578 50.78Z" fill="#8CD87C"/>
<path d="M10.3699 106.52C11.1799 106.34 11.8099 105.665 11.8549 104.81C11.8549 104.54 11.7649 104.225 11.6299 103.955C11.5399 103.73 11.6299 103.55 11.7199 103.415L13.3849 101.66L11.7199 100.04L8.52488 103.415C8.11988 103.91 7.98488 104.54 8.16488 105.125C8.43488 106.115 9.33488 106.7 10.3699 106.52ZM4.96988 106.52C5.77988 106.34 6.40988 105.665 6.45488 104.81C6.45488 104.54 6.36488 104.225 6.27488 103.955C6.13988 103.73 6.22988 103.55 6.31988 103.415L7.98488 101.66L6.31988 100.04L3.12488 103.415C2.71988 103.91 2.58488 104.54 2.76488 105.125C3.03488 106.115 3.97988 106.7 4.96988 106.52ZM19.6167 103.46L19.6617 103.37L20.1117 103.82C20.3367 104.045 20.6517 104.18 20.9667 104.18H30.3267C33.1167 104.18 35.8167 106.025 35.8167 109.67C35.8167 113.18 33.1617 115.16 30.3267 115.16H20.4267V104.765C20.4267 104.45 20.2917 104.135 20.0667 103.91L19.6167 103.46ZM36.8067 117.59C36.2217 117.095 35.2767 116.735 34.3767 116.825L33.7467 116.87L33.7017 116.78L34.2417 116.735C34.9617 116.69 35.5917 116.375 36.2217 116.015C38.1117 114.755 39.5517 112.325 39.5517 109.31C39.5517 104.585 36.0867 100.895 31.0917 100.895H16.7367V131H20.4267V118.31H31.3617C33.1617 118.355 34.6017 119.255 34.9617 121.955C35.1867 123.935 35.6817 128.3 36.0417 131H39.7767C39.4167 128.255 38.8317 123.35 38.6067 121.505C38.3367 119.525 37.6167 118.265 36.8067 117.59ZM52.4628 111.29C56.4678 111.29 58.8528 114.305 59.2578 118.4H45.6228C46.0278 114.305 48.4578 111.29 52.4628 111.29ZM62.8128 120.965C62.8578 120.65 62.9028 120.29 62.9028 119.93C62.9028 113.045 58.6728 108.14 52.4628 108.14C46.2528 108.14 42.0228 113.045 42.0228 119.93C42.0228 126.815 46.2528 131.72 52.4628 131.72C57.4578 131.72 61.1028 128.525 62.4078 123.755L58.8978 123.125C58.1328 126.32 55.8828 128.57 52.4628 128.57C48.2778 128.57 45.8478 125.285 45.6228 120.965H62.8128ZM82.9004 122.135C82.2254 125.96 79.8404 128.57 76.1054 128.57C71.6504 128.57 69.0854 124.88 69.0854 119.93C69.0854 114.98 71.6504 111.29 76.1054 111.29C79.8404 111.29 82.2254 113.9 82.9004 117.725L86.3204 117.365C85.4204 111.785 81.5054 108.14 76.1054 108.14C69.8954 108.14 65.6654 113.045 65.6654 119.93C65.6654 126.815 69.8954 131.72 76.1054 131.72C81.5054 131.72 85.4204 128.075 86.3204 122.54L82.9004 122.135ZM93.3203 131.045V120.11C93.3203 116.375 95.0753 111.47 96.8753 111.47C98.0903 111.47 98.4503 113.09 98.4503 114.35V116.825H101.915V113.63C101.915 110.3 100.835 108.14 98.2253 108.14C96.8753 108.14 95.7503 109.13 94.9403 110.3C94.1303 111.425 93.6803 112.73 93.5453 113.495C93.5003 113.63 93.3203 114.71 93.2753 114.845L93.1403 115.7H93.0953L93.1853 115.115C93.2753 114.395 93.3203 113.72 93.3203 113V108.815H89.9003V131.045H93.3203ZM104.79 108.815V121.505C104.79 128.075 107.67 131.675 113.16 131.675C117.48 131.675 119.46 129.02 120.18 127.265L120.72 125.6L120.765 125.645L120.63 126.185C120.45 126.86 120.36 127.49 120.36 128.165V131H123.78V108.815H120.36V121.28C120.36 125.645 117.885 128.57 114.195 128.57C110.01 128.57 108.21 125.78 108.21 120.83C108.21 117.95 108.21 108.815 108.21 108.815H104.79ZM128.396 131.045H131.861C131.861 125.375 131.861 108.905 131.861 108.815H128.396V131.045ZM130.106 105.665C131.186 105.665 132.041 104.81 132.041 103.775C132.041 102.695 131.186 101.84 130.106 101.84C129.071 101.84 128.216 102.695 128.216 103.775C128.216 104.81 129.071 105.665 130.106 105.665ZM141.882 127.895C141.747 127.895 141.657 127.76 141.657 127.625V111.695H145.572V108.77H141.657V100.895H138.507C138.507 100.94 138.507 104.765 138.507 107.465C138.507 108.275 137.877 108.905 137.067 108.905H134.772V111.695H138.192C138.192 117.23 138.192 128.435 138.192 128.885C138.192 130.055 139.137 131 140.307 131H146.562V127.895H141.882ZM158.151 111.29C162.156 111.29 164.541 114.305 164.946 118.4H151.311C151.716 114.305 154.146 111.29 158.151 111.29ZM168.501 120.965C168.546 120.65 168.591 120.29 168.591 119.93C168.591 113.045 164.361 108.14 158.151 108.14C151.941 108.14 147.711 113.045 147.711 119.93C147.711 126.815 151.941 131.72 158.151 131.72C163.146 131.72 166.791 128.525 168.096 123.755L164.586 123.125C163.821 126.32 161.571 128.57 158.151 128.57C153.966 128.57 151.536 125.285 151.311 120.965H168.501ZM175.674 131.045V120.11C175.674 116.375 177.429 111.47 179.229 111.47C180.444 111.47 180.804 113.09 180.804 114.35V116.825H184.269V113.63C184.269 110.3 183.189 108.14 180.579 108.14C179.229 108.14 178.104 109.13 177.294 110.3C176.484 111.425 176.034 112.73 175.899 113.495C175.854 113.63 175.674 114.71 175.629 114.845L175.494 115.7H175.449L175.539 115.115C175.629 114.395 175.674 113.72 175.674 113V108.815H172.254V131.045H175.674ZM203.974 125.24C203.974 120.56 199.654 119.255 196.054 118.355C194.119 117.86 190.474 117.05 190.474 114.305C190.474 112.64 191.824 111.02 195.154 111.02C198.844 111.02 199.969 113.045 199.969 115.295H203.164C203.164 111.65 201.094 108.14 195.064 108.14C189.349 108.14 187.009 110.93 187.009 113.99C187.009 117.995 190.069 119.615 194.299 120.65C198.484 121.64 200.509 122.855 200.509 125.06C200.509 127.49 198.394 128.795 195.469 128.795C190.609 128.795 189.934 125.33 189.934 123.935H186.514C186.514 127.67 188.899 131.675 195.604 131.675C201.454 131.675 203.974 128.75 203.974 125.24ZM212.7 125.69C211.62 125.69 210.765 126.545 210.765 127.625C210.765 128.66 211.62 129.515 212.7 129.515C213.78 129.515 214.635 128.66 214.635 127.625C214.635 126.545 213.78 125.69 212.7 125.69ZM210.855 115.745V122.225H214.545V117.005C214.545 116.6 214.86 116.33 215.22 116.24C215.31 116.24 215.445 116.195 215.49 116.195C219.495 115.295 222.78 113.045 222.78 108.365C222.78 104.54 220.08 100.22 213.825 100.22C206.625 100.22 204.465 105.08 204.51 108.455H208.2C208.2 106.97 208.965 103.505 213.87 103.505C216.885 103.505 219.045 105.62 219.045 108.275C219.045 110.615 217.335 113 213.87 113H213.465C212.025 113 210.855 114.26 210.855 115.745ZM258.231 100.895H236.316V104.18H245.406V131.045H249.096V104.18H258.231V100.895ZM279.574 131.045V118.355C279.574 111.785 276.649 108.14 271.204 108.14C268.729 108.14 266.929 109.13 265.759 110.255C264.814 111.11 264.274 112.19 263.959 113.18L263.644 114.26L263.554 114.215L263.734 113.63C263.914 113 264.004 112.325 264.004 111.65V100.94H260.584V131.045H264.004V118.58C264.004 114.215 266.434 111.29 270.169 111.29C274.354 111.29 276.154 114.08 276.154 119.03C276.154 121.91 276.154 131.045 276.154 131.045H279.574ZM293.459 111.29C297.464 111.29 299.849 114.305 300.254 118.4H286.619C287.024 114.305 289.454 111.29 293.459 111.29ZM303.809 120.965C303.854 120.65 303.899 120.29 303.899 119.93C303.899 113.045 299.669 108.14 293.459 108.14C287.249 108.14 283.019 113.045 283.019 119.93C283.019 126.815 287.249 131.72 293.459 131.72C298.454 131.72 302.099 128.525 303.404 123.755L299.894 123.125C299.129 126.32 296.879 128.57 293.459 128.57C289.274 128.57 286.844 125.285 286.619 120.965H303.809ZM321.016 108.77L314.491 124.925C314.356 125.33 314.266 125.735 314.266 126.14V126.905H314.176V126.14C314.176 125.735 314.086 125.33 313.951 124.925L307.426 108.77H303.736L311.836 128.66C312.196 129.515 312.196 130.415 311.836 131.27L308.731 138.92H312.421L324.706 108.77H321.016ZM341.615 105.665C342.695 105.665 343.55 104.81 343.55 103.73C343.55 102.65 342.695 101.795 341.615 101.795C340.535 101.795 339.68 102.65 339.68 103.73C339.68 104.81 340.535 105.665 341.615 105.665ZM339.905 135.5C339.905 135.635 339.77 135.77 339.635 135.77H335.63V138.92H341.21C342.38 138.92 343.37 137.975 343.37 136.805C343.37 136.085 343.37 108.95 343.37 108.77H339.905V135.5ZM347.676 108.815V121.505C347.676 128.075 350.556 131.675 356.046 131.675C360.366 131.675 362.346 129.02 363.066 127.265L363.606 125.6L363.651 125.645L363.516 126.185C363.336 126.86 363.246 127.49 363.246 128.165V131H366.666V108.815H363.246V121.28C363.246 125.645 360.771 128.57 357.081 128.57C352.896 128.57 351.096 125.78 351.096 120.83C351.096 117.95 351.096 108.815 351.096 108.815H347.676ZM387.797 125.24C387.797 120.56 383.477 119.255 379.877 118.355C377.942 117.86 374.297 117.05 374.297 114.305C374.297 112.64 375.647 111.02 378.977 111.02C382.667 111.02 383.792 113.045 383.792 115.295H386.987C386.987 111.65 384.917 108.14 378.887 108.14C373.172 108.14 370.832 110.93 370.832 113.99C370.832 117.995 373.892 119.615 378.122 120.65C382.307 121.64 384.332 122.855 384.332 125.06C384.332 127.49 382.217 128.795 379.292 128.795C374.432 128.795 373.757 125.33 373.757 123.935H370.337C370.337 127.67 372.722 131.675 379.427 131.675C385.277 131.675 387.797 128.75 387.797 125.24ZM396.941 127.895C396.806 127.895 396.716 127.76 396.716 127.625V111.695H400.631V108.77H396.716V100.895H393.566C393.566 100.94 393.566 104.765 393.566 107.465C393.566 108.275 392.936 108.905 392.126 108.905H389.831V111.695H393.251C393.251 117.23 393.251 128.435 393.251 128.885C393.251 130.055 394.196 131 395.366 131H401.621V127.895H396.941ZM419.725 119.93C419.725 114.935 422.29 111.245 426.745 111.245C431.155 111.245 433.45 114.935 433.45 119.93C433.45 124.88 431.2 128.57 426.745 128.57C422.29 128.57 419.725 124.88 419.725 119.93ZM433.585 100.895V112.325C433.585 113 433.675 113.675 433.855 114.305L434.035 114.89H433.99L433.45 113.27C432.865 111.335 431.2 108.14 426.115 108.14C420.22 108.14 416.305 113.045 416.305 119.93C416.305 126.77 420.175 131.675 426.115 131.675C431.2 131.675 432.91 128.435 433.495 126.5L433.99 124.925H434.035L433.855 125.51C433.675 126.14 433.585 126.815 433.585 127.49V131.045H437.05V100.895H433.585ZM444.203 119.93C444.203 114.98 446.768 111.29 451.223 111.29C455.633 111.29 458.198 114.98 458.198 119.93C458.198 124.88 455.633 128.57 451.223 128.57C446.768 128.57 444.203 124.88 444.203 119.93ZM461.663 119.93C461.663 113.045 457.433 108.14 451.223 108.14C445.013 108.14 440.783 113.045 440.783 119.93C440.783 126.815 445.013 131.72 451.223 131.72C457.433 131.72 461.663 126.815 461.663 119.93ZM483.964 118.355C483.964 111.785 480.814 108.14 475.594 108.14C472.579 108.14 470.599 109.49 469.474 110.885C468.934 111.56 468.619 112.37 468.394 113.09L468.034 114.26L467.944 114.215L468.124 113.63C468.304 113 468.394 112.325 468.394 111.65V108.815H464.974V131.045H468.394V118.58C468.394 114.215 470.824 111.29 474.559 111.29C478.474 111.29 480.544 114.08 480.544 119.03C480.544 121.91 480.544 131.045 480.544 131.045H483.964V118.355ZM488.606 100.22C487.796 100.4 487.166 101.075 487.121 101.93C487.121 102.2 487.166 102.515 487.301 102.785C487.436 103.01 487.346 103.19 487.256 103.325L485.591 105.08L487.256 106.7L490.406 103.325C490.856 102.83 490.946 102.2 490.811 101.615C490.541 100.625 489.596 100.04 488.606 100.22ZM498.543 127.895C498.408 127.895 498.318 127.76 498.318 127.625V111.695H502.233V108.77H498.318V100.895H495.168C495.168 100.94 495.168 104.765 495.168 107.465C495.168 108.275 494.538 108.905 493.728 108.905H491.433V111.695H494.853C494.853 117.23 494.853 128.435 494.853 128.885C494.853 130.055 495.798 131 496.968 131H503.223V127.895H498.543ZM518.762 128.93C518.762 130.1 519.707 131.045 520.877 131.045H526.502V127.895H522.452C522.317 127.895 522.182 127.805 522.182 127.625V100.94H518.762C518.717 101.075 518.717 128.21 518.762 128.93ZM529.397 131.045H532.862C532.862 125.375 532.862 108.905 532.862 108.815H529.397V131.045ZM531.107 105.665C532.187 105.665 533.042 104.81 533.042 103.775C533.042 102.695 532.187 101.84 531.107 101.84C530.072 101.84 529.217 102.695 529.217 103.775C529.217 104.81 530.072 105.665 531.107 105.665ZM553.998 125.24C553.998 120.56 549.678 119.255 546.078 118.355C544.143 117.86 540.498 117.05 540.498 114.305C540.498 112.64 541.848 111.02 545.178 111.02C548.868 111.02 549.993 113.045 549.993 115.295H553.188C553.188 111.65 551.118 108.14 545.088 108.14C539.373 108.14 537.033 110.93 537.033 113.99C537.033 117.995 540.093 119.615 544.323 120.65C548.508 121.64 550.533 122.855 550.533 125.06C550.533 127.49 548.418 128.795 545.493 128.795C540.633 128.795 539.958 125.33 539.958 123.935H536.538C536.538 127.67 538.923 131.675 545.628 131.675C551.478 131.675 553.998 128.75 553.998 125.24ZM563.142 127.895C563.007 127.895 562.917 127.76 562.917 127.625V111.695H566.832V108.77H562.917V100.895H559.767C559.767 100.94 559.767 104.765 559.767 107.465C559.767 108.275 559.137 108.905 558.327 108.905H556.032V111.695H559.452C559.452 117.23 559.452 128.435 559.452 128.885C559.452 130.055 560.397 131 561.567 131H567.822V127.895H563.142ZM579.411 111.29C583.416 111.29 585.801 114.305 586.206 118.4H572.571C572.976 114.305 575.406 111.29 579.411 111.29ZM589.761 120.965C589.806 120.65 589.851 120.29 589.851 119.93C589.851 113.045 585.621 108.14 579.411 108.14C573.201 108.14 568.971 113.045 568.971 119.93C568.971 126.815 573.201 131.72 579.411 131.72C584.406 131.72 588.051 128.525 589.356 123.755L585.846 123.125C585.081 126.32 582.831 128.57 579.411 128.57C575.226 128.57 572.796 125.285 572.571 120.965H589.761ZM612.504 118.355C612.504 111.785 609.354 108.14 604.134 108.14C601.119 108.14 599.139 109.49 598.014 110.885C597.474 111.56 597.159 112.37 596.934 113.09L596.574 114.26L596.484 114.215L596.664 113.63C596.844 113 596.934 112.325 596.934 111.65V108.815H593.514V131.045H596.934V118.58C596.934 114.215 599.364 111.29 603.099 111.29C607.014 111.29 609.084 114.08 609.084 119.03C609.084 121.91 609.084 131.045 609.084 131.045H612.504V118.355ZM616.153 131.315C617.233 131.315 618.088 130.415 618.088 129.38C618.088 128.3 617.233 127.445 616.153 127.445C615.118 127.445 614.263 128.3 614.263 129.38C614.263 130.415 615.118 131.315 616.153 131.315ZM653.344 100.895H631.429V104.18H640.519V131.045H644.209V104.18H653.344V100.895ZM674.686 131.045V118.355C674.686 111.785 671.761 108.14 666.316 108.14C663.841 108.14 662.041 109.13 660.871 110.255C659.926 111.11 659.386 112.19 659.071 113.18L658.756 114.26L658.666 114.215L658.846 113.63C659.026 113 659.116 112.325 659.116 111.65V100.94H655.696V131.045H659.116V118.58C659.116 114.215 661.546 111.29 665.281 111.29C669.466 111.29 671.266 114.08 671.266 119.03C671.266 121.91 671.266 131.045 671.266 131.045H674.686ZM688.571 111.29C692.576 111.29 694.961 114.305 695.366 118.4H681.731C682.136 114.305 684.566 111.29 688.571 111.29ZM698.921 120.965C698.966 120.65 699.011 120.29 699.011 119.93C699.011 113.045 694.781 108.14 688.571 108.14C682.361 108.14 678.131 113.045 678.131 119.93C678.131 126.815 682.361 131.72 688.571 131.72C693.566 131.72 697.211 128.525 698.516 123.755L695.006 123.125C694.241 126.32 691.991 128.57 688.571 128.57C684.386 128.57 681.956 125.285 681.731 120.965H698.921ZM716.128 108.77L709.603 124.925C709.468 125.33 709.378 125.735 709.378 126.14V126.905H709.288V126.14C709.288 125.735 709.198 125.33 709.063 124.925L702.538 108.77H698.848L706.948 128.66C707.308 129.515 707.308 130.415 706.948 131.27L703.843 138.92H707.533L719.818 108.77H716.128ZM724.9 100.22C724.09 100.4 723.46 101.075 723.415 101.93C723.415 102.2 723.46 102.515 723.595 102.785C723.73 103.01 723.64 103.19 723.55 103.325L721.885 105.08L723.55 106.7L726.7 103.325C727.15 102.83 727.24 102.2 727.105 101.615C726.835 100.625 725.89 100.04 724.9 100.22ZM730.27 128.93C730.27 130.1 731.215 131.045 732.385 131.045H738.01V127.895H733.96C733.825 127.895 733.69 127.805 733.69 127.625V100.94H730.27C730.225 101.075 730.225 128.21 730.27 128.93ZM740.861 128.93C740.861 130.1 741.806 131.045 742.976 131.045H748.601V127.895H744.551C744.416 127.895 744.281 127.805 744.281 127.625V100.94H740.861C740.816 101.075 740.816 128.21 740.861 128.93ZM767.621 119.93C767.621 114.935 769.916 111.245 774.326 111.245C778.781 111.245 781.301 114.935 781.301 119.93C781.301 124.88 778.736 128.57 774.326 128.57C769.871 128.57 767.621 124.88 767.621 119.93ZM767.576 126.5C768.161 128.435 769.871 131.675 774.956 131.675C780.851 131.675 784.766 126.77 784.766 119.93C784.766 113.045 780.851 108.14 774.956 108.14C769.871 108.14 768.161 111.335 767.576 113.27L767.081 114.89H766.991L767.171 114.305C767.351 113.675 767.441 113 767.441 112.325V100.895H764.021V131.045H767.441V127.49C767.441 126.815 767.351 126.14 767.171 125.51L766.991 124.925H767.081L767.576 126.5ZM788.454 128.93C788.454 130.1 789.399 131.045 790.569 131.045H796.194V127.895H792.144C792.009 127.895 791.874 127.805 791.874 127.625V100.94H788.454C788.409 101.075 788.409 128.21 788.454 128.93ZM812.95 121.865C812.95 125.6 810.52 128.66 806.065 128.66C803.545 128.66 801.925 127.265 801.7 125.33C801.475 123.305 802.645 121.325 805.525 120.785C807.1 120.515 809.8 119.975 810.835 119.75C812.545 119.435 812.95 118.895 812.95 118.895V121.865ZM818.215 128.12H816.64C816.505 128.12 816.415 128.03 816.415 127.895V116.555C816.46 111.29 813.49 108.14 807.82 108.14C804.85 108.14 802.33 109.13 800.755 110.93C799.27 112.595 798.82 114.71 799.27 116.78L802.645 116.285C802.42 115.205 802.465 113.855 803.32 112.775C804.04 111.92 805.39 111.02 807.775 111.02C811.06 111.02 812.815 112.82 812.815 115.025C812.815 115.925 812.41 116.51 811.645 116.825C810.97 117.095 809.755 117.275 808.18 117.59C806.965 117.86 804.85 118.31 803.41 118.715C799.315 119.84 798.145 122.585 798.235 125.42C798.28 128.66 800.845 131.72 805.48 131.72C808.495 131.72 810.745 130.55 812.185 128.795C812.86 127.94 813.31 126.815 813.535 125.69C813.58 125.6 813.715 124.925 813.715 124.925H813.76L813.715 125.24C813.58 125.915 813.535 126.59 813.49 127.265C813.49 127.535 813.49 128.57 813.49 129.38C813.49 130.325 814.165 131.045 815.2 131.045H818.215V128.12ZM831.174 128.57C826.719 128.57 824.154 124.88 824.154 119.93C824.154 114.98 826.719 111.29 831.174 111.29C835.584 111.29 837.879 114.98 837.879 119.93C837.879 124.88 835.629 128.57 831.174 128.57ZM841.479 127.67V108.815H838.014V112.325C838.014 113 838.104 113.675 838.284 114.35L838.464 114.89L838.419 114.935L837.879 113.27C837.294 111.38 835.629 108.14 830.544 108.14C824.649 108.14 820.734 113.09 820.734 119.93C820.734 126.77 824.604 131.72 830.544 131.72C835.629 131.72 837.339 128.48 837.924 126.545L838.419 124.925L838.464 124.97L838.284 125.555C838.149 126.05 838.059 126.59 838.059 127.13C838.059 127.265 838.014 128.48 838.014 128.615C838.014 130.685 839.139 131.99 839.139 133.52C839.139 135.68 837.384 136.085 835.404 136.04H824.334V138.965H836.619C840.804 138.965 842.694 137.345 842.694 134.06C842.694 131.315 841.479 130.685 841.479 127.67ZM845.635 131.315C846.715 131.315 847.57 130.415 847.57 129.38C847.57 128.3 846.715 127.445 845.635 127.445C844.6 127.445 843.745 128.3 843.745 129.38C843.745 130.415 844.6 131.315 845.635 131.315ZM23.9149 145.895H1.99988V149.18H11.0899V176.045H14.7799V149.18H23.9149V145.895ZM45.2575 176.045V163.355C45.2575 156.785 42.3325 153.14 36.8875 153.14C34.4125 153.14 32.6125 154.13 31.4425 155.255C30.4975 156.11 29.9575 157.19 29.6425 158.18L29.3275 159.26L29.2375 159.215L29.4175 158.63C29.5975 158 29.6875 157.325 29.6875 156.65V145.94H26.2675V176.045H29.6875V163.58C29.6875 159.215 32.1175 156.29 35.8525 156.29C40.0375 156.29 41.8375 159.08 41.8375 164.03C41.8375 166.91 41.8375 176.045 41.8375 176.045H45.2575ZM59.1425 156.29C63.1475 156.29 65.5325 159.305 65.9375 163.4H52.3025C52.7075 159.305 55.1375 156.29 59.1425 156.29ZM69.4925 165.965C69.5375 165.65 69.5825 165.29 69.5825 164.93C69.5825 158.045 65.3525 153.14 59.1425 153.14C52.9325 153.14 48.7025 158.045 48.7025 164.93C48.7025 171.815 52.9325 176.72 59.1425 176.72C64.1375 176.72 67.7825 173.525 69.0875 168.755L65.5775 168.125C64.8125 171.32 62.5625 173.57 59.1425 173.57C54.9575 173.57 52.5275 170.285 52.3025 165.965H69.4925ZM86.6994 153.77L80.1744 169.925C80.0394 170.33 79.9494 170.735 79.9494 171.14V171.905H79.8594V171.14C79.8594 170.735 79.7694 170.33 79.6344 169.925L73.1094 153.77H69.4194L77.5194 173.66C77.8794 174.515 77.8794 175.415 77.5194 176.27L74.4144 183.92H78.1044L90.3894 153.77H86.6994ZM95.4712 145.22C94.6612 145.4 94.0312 146.075 93.9862 146.93C93.9862 147.2 94.0312 147.515 94.1662 147.785C94.3012 148.01 94.2112 148.19 94.1212 148.325L92.4562 150.08L94.1212 151.7L97.2712 148.325C97.7212 147.83 97.8112 147.2 97.6762 146.615C97.4062 145.625 96.4612 145.04 95.4712 145.22ZM100.842 173.93C100.842 175.1 101.787 176.045 102.957 176.045H108.582V172.895H104.532C104.397 172.895 104.262 172.805 104.262 172.625V145.94H100.842C100.797 146.075 100.797 173.21 100.842 173.93ZM111.432 173.93C111.432 175.1 112.377 176.045 113.547 176.045H119.172V172.895H115.122C114.987 172.895 114.852 172.805 114.852 172.625V145.94H111.432C111.387 146.075 111.387 173.21 111.432 173.93ZM151.108 170.24C151.108 165.56 146.788 164.255 143.188 163.355C141.253 162.86 137.608 162.05 137.608 159.305C137.608 157.64 138.958 156.02 142.288 156.02C145.978 156.02 147.103 158.045 147.103 160.295H150.298C150.298 156.65 148.228 153.14 142.198 153.14C136.483 153.14 134.143 155.93 134.143 158.99C134.143 162.995 137.203 164.615 141.433 165.65C145.618 166.64 147.643 167.855 147.643 170.06C147.643 172.49 145.528 173.795 142.603 173.795C137.743 173.795 137.068 170.33 137.068 168.935H133.648C133.648 172.67 136.033 176.675 142.738 176.675C148.588 176.675 151.108 173.75 151.108 170.24ZM164.392 156.29C168.397 156.29 170.782 159.305 171.187 163.4H157.552C157.957 159.305 160.387 156.29 164.392 156.29ZM174.742 165.965C174.787 165.65 174.832 165.29 174.832 164.93C174.832 158.045 170.602 153.14 164.392 153.14C158.182 153.14 153.952 158.045 153.952 164.93C153.952 171.815 158.182 176.72 164.392 176.72C169.387 176.72 173.032 173.525 174.337 168.755L170.827 168.125C170.062 171.32 167.812 173.57 164.392 173.57C160.207 173.57 157.777 170.285 157.552 165.965H174.742ZM197.484 163.355C197.484 156.785 194.334 153.14 189.114 153.14C186.099 153.14 184.119 154.49 182.994 155.885C182.454 156.56 182.139 157.37 181.914 158.09L181.554 159.26L181.464 159.215L181.644 158.63C181.824 158 181.914 157.325 181.914 156.65V153.815H178.494V176.045H181.914V163.58C181.914 159.215 184.344 156.29 188.079 156.29C191.994 156.29 194.064 159.08 194.064 164.03C194.064 166.91 194.064 176.045 194.064 176.045H197.484V163.355ZM204.305 164.93C204.305 159.935 206.87 156.245 211.325 156.245C215.735 156.245 218.03 159.935 218.03 164.93C218.03 169.88 215.78 173.57 211.325 173.57C206.87 173.57 204.305 169.88 204.305 164.93ZM218.165 145.895V157.325C218.165 158 218.255 158.675 218.435 159.305L218.615 159.89H218.57L218.03 158.27C217.445 156.335 215.78 153.14 210.695 153.14C204.8 153.14 200.885 158.045 200.885 164.93C200.885 171.77 204.755 176.675 210.695 176.675C215.78 176.675 217.49 173.435 218.075 171.5L218.57 169.925H218.615L218.435 170.51C218.255 171.14 218.165 171.815 218.165 172.49V176.045H221.63V145.895H218.165ZM254.087 153.77L247.562 169.925C247.427 170.33 247.337 170.735 247.337 171.14V171.905H247.247V171.14C247.247 170.735 247.157 170.33 247.022 169.925L240.497 153.77H236.807L244.907 173.66C245.267 174.515 245.267 175.415 244.907 176.27L241.802 183.92H245.492L257.777 153.77H254.087ZM260.687 164.93C260.687 159.98 263.252 156.29 267.707 156.29C272.117 156.29 274.682 159.98 274.682 164.93C274.682 169.88 272.117 173.57 267.707 173.57C263.252 173.57 260.687 169.88 260.687 164.93ZM278.147 164.93C278.147 158.045 273.917 153.14 267.707 153.14C261.497 153.14 257.267 158.045 257.267 164.93C257.267 171.815 261.497 176.72 267.707 176.72C273.917 176.72 278.147 171.815 278.147 164.93ZM281.582 153.815V166.505C281.582 173.075 284.462 176.675 289.952 176.675C294.272 176.675 296.252 174.02 296.972 172.265L297.512 170.6L297.557 170.645L297.422 171.185C297.242 171.86 297.152 172.49 297.152 173.165V176H300.572V153.815H297.152V166.28C297.152 170.645 294.677 173.57 290.987 173.57C286.802 173.57 285.002 170.78 285.002 165.83C285.002 162.95 285.002 153.815 285.002 153.815H281.582ZM321.133 176.045V165.11C321.133 161.375 322.888 156.47 324.688 156.47C325.903 156.47 326.263 158.09 326.263 159.35V161.825H329.728V158.63C329.728 155.3 328.648 153.14 326.038 153.14C324.688 153.14 323.563 154.13 322.753 155.3C321.943 156.425 321.493 157.73 321.358 158.495C321.313 158.63 321.133 159.71 321.088 159.845L320.953 160.7H320.908L320.998 160.115C321.088 159.395 321.133 158.72 321.133 158V153.815H317.713V176.045H321.133ZM335.438 164.93C335.438 159.98 338.003 156.29 342.458 156.29C346.868 156.29 349.433 159.98 349.433 164.93C349.433 169.88 346.868 173.57 342.458 173.57C338.003 173.57 335.438 169.88 335.438 164.93ZM352.898 164.93C352.898 158.045 348.668 153.14 342.458 153.14C336.248 153.14 332.018 158.045 332.018 164.93C332.018 171.815 336.248 176.72 342.458 176.72C348.668 176.72 352.898 171.815 352.898 164.93ZM356.603 173.93C356.603 175.1 357.548 176.045 358.718 176.045H364.343V172.895H360.293C360.158 172.895 360.023 172.805 360.023 172.625V145.94H356.603C356.558 146.075 356.558 173.21 356.603 173.93ZM375.768 156.29C379.773 156.29 382.158 159.305 382.563 163.4H368.928C369.333 159.305 371.763 156.29 375.768 156.29ZM386.118 165.965C386.163 165.65 386.208 165.29 386.208 164.93C386.208 158.045 381.978 153.14 375.768 153.14C369.558 153.14 365.328 158.045 365.328 164.93C365.328 171.815 369.558 176.72 375.768 176.72C380.763 176.72 384.408 173.525 385.713 168.755L382.203 168.125C381.438 171.32 379.188 173.57 375.768 173.57C371.583 173.57 369.153 170.285 368.928 165.965H386.118ZM406.386 170.24C406.386 165.56 402.066 164.255 398.466 163.355C396.531 162.86 392.886 162.05 392.886 159.305C392.886 157.64 394.236 156.02 397.566 156.02C401.256 156.02 402.381 158.045 402.381 160.295H405.576C405.576 156.65 403.506 153.14 397.476 153.14C391.761 153.14 389.421 155.93 389.421 158.99C389.421 162.995 392.481 164.615 396.711 165.65C400.896 166.64 402.921 167.855 402.921 170.06C402.921 172.49 400.806 173.795 397.881 173.795C393.021 173.795 392.346 170.33 392.346 168.935H388.926C388.926 172.67 391.311 176.675 398.016 176.675C403.866 176.675 406.386 173.75 406.386 170.24ZM428.054 172.895C427.919 172.895 427.829 172.76 427.829 172.625V156.695H431.744V153.77H427.829V145.895H424.679C424.679 145.94 424.679 149.765 424.679 152.465C424.679 153.275 424.049 153.905 423.239 153.905H420.944V156.695H424.364C424.364 162.23 424.364 173.435 424.364 173.885C424.364 175.055 425.309 176 426.479 176H432.734V172.895H428.054ZM453.773 176.045V163.355C453.773 156.785 450.848 153.14 445.403 153.14C442.928 153.14 441.128 154.13 439.958 155.255C439.013 156.11 438.473 157.19 438.158 158.18L437.843 159.26L437.753 159.215L437.933 158.63C438.113 158 438.203 157.325 438.203 156.65V145.94H434.783V176.045H438.203V163.58C438.203 159.215 440.633 156.29 444.368 156.29C448.553 156.29 450.353 159.08 450.353 164.03C450.353 166.91 450.353 176.045 450.353 176.045H453.773ZM471.978 166.865C471.978 170.6 469.548 173.66 465.093 173.66C462.573 173.66 460.953 172.265 460.728 170.33C460.503 168.305 461.673 166.325 464.553 165.785C466.128 165.515 468.828 164.975 469.863 164.75C471.573 164.435 471.978 163.895 471.978 163.895V166.865ZM477.243 173.12H475.668C475.533 173.12 475.443 173.03 475.443 172.895V161.555C475.488 156.29 472.518 153.14 466.848 153.14C463.878 153.14 461.358 154.13 459.783 155.93C458.298 157.595 457.848 159.71 458.298 161.78L461.673 161.285C461.448 160.205 461.493 158.855 462.348 157.775C463.068 156.92 464.418 156.02 466.803 156.02C470.088 156.02 471.843 157.82 471.843 160.025C471.843 160.925 471.438 161.51 470.673 161.825C469.998 162.095 468.783 162.275 467.208 162.59C465.993 162.86 463.878 163.31 462.438 163.715C458.343 164.84 457.173 167.585 457.263 170.42C457.308 173.66 459.873 176.72 464.508 176.72C467.523 176.72 469.773 175.55 471.213 173.795C471.888 172.94 472.338 171.815 472.563 170.69C472.608 170.6 472.743 169.925 472.743 169.925H472.788L472.743 170.24C472.608 170.915 472.563 171.59 472.518 172.265C472.518 172.535 472.518 173.57 472.518 174.38C472.518 175.325 473.193 176.045 474.228 176.045H477.243V173.12ZM485.095 172.895C484.96 172.895 484.87 172.76 484.87 172.625V156.695H488.785V153.77H484.87V145.895H481.72C481.72 145.94 481.72 149.765 481.72 152.465C481.72 153.275 481.09 153.905 480.28 153.905H477.985V156.695H481.405C481.405 162.23 481.405 173.435 481.405 173.885C481.405 175.055 482.35 176 483.52 176H489.775V172.895H485.095ZM524.349 176.045V163.355C524.349 156.785 521.424 153.14 515.979 153.14C513.504 153.14 511.704 154.13 510.534 155.255C509.589 156.11 509.049 157.19 508.734 158.18L508.419 159.26L508.329 159.215L508.509 158.63C508.689 158 508.779 157.325 508.779 156.65V145.94H505.359V176.045H508.779V163.58C508.779 159.215 511.209 156.29 514.944 156.29C519.129 156.29 520.929 159.08 520.929 164.03C520.929 166.91 520.929 176.045 520.929 176.045H524.349ZM542.554 166.865C542.554 170.6 540.124 173.66 535.669 173.66C533.149 173.66 531.529 172.265 531.304 170.33C531.079 168.305 532.249 166.325 535.129 165.785C536.704 165.515 539.404 164.975 540.439 164.75C542.149 164.435 542.554 163.895 542.554 163.895V166.865ZM547.819 173.12H546.244C546.109 173.12 546.019 173.03 546.019 172.895V161.555C546.064 156.29 543.094 153.14 537.424 153.14C534.454 153.14 531.934 154.13 530.359 155.93C528.874 157.595 528.424 159.71 528.874 161.78L532.249 161.285C532.024 160.205 532.069 158.855 532.924 157.775C533.644 156.92 534.994 156.02 537.379 156.02C540.664 156.02 542.419 157.82 542.419 160.025C542.419 160.925 542.014 161.51 541.249 161.825C540.574 162.095 539.359 162.275 537.784 162.59C536.569 162.86 534.454 163.31 533.014 163.715C528.919 164.84 527.749 167.585 527.839 170.42C527.884 173.66 530.449 176.72 535.084 176.72C538.099 176.72 540.349 175.55 541.789 173.795C542.464 172.94 542.914 171.815 543.139 170.69C543.184 170.6 543.319 169.925 543.319 169.925H543.364L543.319 170.24C543.184 170.915 543.139 171.59 543.094 172.265C543.094 172.535 543.094 173.57 543.094 174.38C543.094 175.325 543.769 176.045 544.804 176.045H547.819V173.12ZM565.347 153.815L558.867 172.22C558.732 172.625 558.642 173.12 558.642 173.57V174.38H558.552V173.57C558.552 173.12 558.507 172.67 558.372 172.22L551.892 153.815H548.337L556.122 176.045H561.117L568.902 153.815H565.347ZM579.587 156.29C583.592 156.29 585.977 159.305 586.382 163.4H572.747C573.152 159.305 575.582 156.29 579.587 156.29ZM589.937 165.965C589.982 165.65 590.027 165.29 590.027 164.93C590.027 158.045 585.797 153.14 579.587 153.14C573.377 153.14 569.147 158.045 569.147 164.93C569.147 171.815 573.377 176.72 579.587 176.72C584.582 176.72 588.227 173.525 589.532 168.755L586.022 168.125C585.257 171.32 583.007 173.57 579.587 173.57C575.402 173.57 572.972 170.285 572.747 165.965H589.937ZM625.204 163.355C625.204 156.785 622.054 153.14 616.834 153.14C613.819 153.14 611.839 154.49 610.714 155.885C610.174 156.56 609.859 157.37 609.634 158.09L609.274 159.26L609.184 159.215L609.364 158.63C609.544 158 609.634 157.325 609.634 156.65V153.815H606.214V176.045H609.634V163.58C609.634 159.215 612.064 156.29 615.799 156.29C619.714 156.29 621.784 159.08 621.784 164.03C621.784 166.91 621.784 176.045 621.784 176.045H625.204V163.355ZM631.541 164.93C631.541 159.98 634.106 156.29 638.561 156.29C642.971 156.29 645.536 159.98 645.536 164.93C645.536 169.88 642.971 173.57 638.561 173.57C634.106 173.57 631.541 169.88 631.541 164.93ZM649.001 164.93C649.001 158.045 644.771 153.14 638.561 153.14C632.351 153.14 628.121 158.045 628.121 164.93C628.121 171.815 632.351 176.72 638.561 176.72C644.771 176.72 649.001 171.815 649.001 164.93ZM658.152 172.895C658.017 172.895 657.927 172.76 657.927 172.625V156.695H661.842V153.77H657.927V145.895H654.777C654.777 145.94 654.777 149.765 654.777 152.465C654.777 153.275 654.147 153.905 653.337 153.905H651.042V156.695H654.462C654.462 162.23 654.462 173.435 654.462 173.885C654.462 175.055 655.407 176 656.577 176H662.832V172.895H658.152ZM683.871 176.045V163.355C683.871 156.785 680.946 153.14 675.501 153.14C673.026 153.14 671.226 154.13 670.056 155.255C669.111 156.11 668.571 157.19 668.256 158.18L667.941 159.26L667.851 159.215L668.031 158.63C668.211 158 668.301 157.325 668.301 156.65V145.94H664.881V176.045H668.301V163.58C668.301 159.215 670.731 156.29 674.466 156.29C678.651 156.29 680.451 159.08 680.451 164.03C680.451 166.91 680.451 176.045 680.451 176.045H683.871ZM688.216 176.045H691.681C691.681 170.375 691.681 153.905 691.681 153.815H688.216V176.045ZM689.926 150.665C691.006 150.665 691.861 149.81 691.861 148.775C691.861 147.695 691.006 146.84 689.926 146.84C688.891 146.84 688.036 147.695 688.036 148.775C688.036 149.81 688.891 150.665 689.926 150.665ZM715.292 163.355C715.292 156.785 712.142 153.14 706.922 153.14C703.907 153.14 701.927 154.49 700.802 155.885C700.262 156.56 699.947 157.37 699.722 158.09L699.362 159.26L699.272 159.215L699.452 158.63C699.632 158 699.722 157.325 699.722 156.65V153.815H696.302V176.045H699.722V163.58C699.722 159.215 702.152 156.29 705.887 156.29C709.802 156.29 711.872 159.08 711.872 164.03C711.872 166.91 711.872 176.045 711.872 176.045H715.292V163.355ZM728.649 173.57C724.194 173.57 721.629 169.88 721.629 164.93C721.629 159.98 724.194 156.29 728.649 156.29C733.059 156.29 735.354 159.98 735.354 164.93C735.354 169.88 733.104 173.57 728.649 173.57ZM738.954 172.67V153.815H735.489V157.325C735.489 158 735.579 158.675 735.759 159.35L735.939 159.89L735.894 159.935L735.354 158.27C734.769 156.38 733.104 153.14 728.019 153.14C722.124 153.14 718.209 158.09 718.209 164.93C718.209 171.77 722.079 176.72 728.019 176.72C733.104 176.72 734.814 173.48 735.399 171.545L735.894 169.925L735.939 169.97L735.759 170.555C735.624 171.05 735.534 171.59 735.534 172.13C735.534 172.265 735.489 173.48 735.489 173.615C735.489 175.685 736.614 176.99 736.614 178.52C736.614 180.68 734.859 181.085 732.879 181.04H721.809V183.965H734.094C738.279 183.965 740.169 182.345 740.169 179.06C740.169 176.315 738.954 175.685 738.954 172.67ZM761.599 172.895C761.464 172.895 761.374 172.76 761.374 172.625V156.695H765.289V153.77H761.374V145.895H758.224C758.224 145.94 758.224 149.765 758.224 152.465C758.224 153.275 757.594 153.905 756.784 153.905H754.489V156.695H757.909C757.909 162.23 757.909 173.435 757.909 173.885C757.909 175.055 758.854 176 760.024 176H766.279V172.895H761.599ZM770.848 164.93C770.848 159.98 773.413 156.29 777.868 156.29C782.278 156.29 784.843 159.98 784.843 164.93C784.843 169.88 782.278 173.57 777.868 173.57C773.413 173.57 770.848 169.88 770.848 164.93ZM788.308 164.93C788.308 158.045 784.078 153.14 777.868 153.14C771.658 153.14 767.428 158.045 767.428 164.93C767.428 171.815 771.658 176.72 777.868 176.72C784.078 176.72 788.308 171.815 788.308 164.93ZM807.103 164.93C807.103 159.935 809.668 156.245 814.123 156.245C818.533 156.245 820.828 159.935 820.828 164.93C820.828 169.88 818.578 173.57 814.123 173.57C809.668 173.57 807.103 169.88 807.103 164.93ZM820.963 145.895V157.325C820.963 158 821.053 158.675 821.233 159.305L821.413 159.89H821.368L820.828 158.27C820.243 156.335 818.578 153.14 813.493 153.14C807.598 153.14 803.683 158.045 803.683 164.93C803.683 171.77 807.553 176.675 813.493 176.675C818.578 176.675 820.288 173.435 820.873 171.5L821.368 169.925H821.413L821.233 170.51C821.053 171.14 820.963 171.815 820.963 172.49V176.045H824.428V145.895H820.963ZM831.581 164.93C831.581 159.98 834.146 156.29 838.601 156.29C843.011 156.29 845.576 159.98 845.576 164.93C845.576 169.88 843.011 173.57 838.601 173.57C834.146 173.57 831.581 169.88 831.581 164.93ZM849.041 164.93C849.041 158.045 844.811 153.14 838.601 153.14C832.391 153.14 828.161 158.045 828.161 164.93C828.161 171.815 832.391 176.72 838.601 176.72C844.811 176.72 849.041 171.815 849.041 164.93ZM31.4299 198.815L26.2099 214.52C26.0299 215.015 25.9399 215.51 25.9399 216.05V216.815H25.8499V216.05C25.8499 215.51 25.8049 215.015 25.6249 214.52L20.4049 198.815H16.9849L11.7649 214.52C11.6299 215.015 11.5399 215.51 11.5399 216.05V216.815H11.4499V216.05C11.4499 215.51 11.3599 215.015 11.2249 214.52L6.00488 198.815H2.44988L9.60488 221.045H13.0249L18.4249 205.025C18.5599 204.53 18.6499 203.99 18.6499 203.45V202.82H18.7399V203.45C18.7399 203.99 18.8299 204.53 19.0099 205.025L24.3649 221.045H27.7849L34.9849 198.815H31.4299ZM37.7812 221.045H41.2462C41.2462 215.375 41.2462 198.905 41.2462 198.815H37.7812V221.045ZM39.4912 195.665C40.5712 195.665 41.4262 194.81 41.4262 193.775C41.4262 192.695 40.5712 191.84 39.4912 191.84C38.4562 191.84 37.6012 192.695 37.6012 193.775C37.6012 194.81 38.4562 195.665 39.4912 195.665ZM51.2671 217.895C51.1321 217.895 51.0421 217.76 51.0421 217.625V201.695H54.9571V198.77H51.0421V190.895H47.8921C47.8921 190.94 47.8921 194.765 47.8921 197.465C47.8921 198.275 47.2621 198.905 46.4521 198.905H44.1571V201.695H47.5771C47.5771 207.23 47.5771 218.435 47.5771 218.885C47.5771 220.055 48.5221 221 49.6921 221H55.9471V217.895H51.2671ZM76.9861 221.045V208.355C76.9861 201.785 74.0611 198.14 68.616 198.14C66.1411 198.14 64.341 199.13 63.1711 200.255C62.2261 201.11 61.686 202.19 61.371 203.18L61.056 204.26L60.9661 204.215L61.1461 203.63C61.326 203 61.416 202.325 61.416 201.65V190.94H57.996V221.045H61.416V208.58C61.416 204.215 63.8461 201.29 67.581 201.29C71.7661 201.29 73.5661 204.08 73.5661 209.03C73.5661 211.91 73.5661 221.045 73.5661 221.045H76.9861ZM120.99 198.815L115.77 214.52C115.59 215.015 115.5 215.51 115.5 216.05V216.815H115.41V216.05C115.41 215.51 115.365 215.015 115.185 214.52L109.965 198.815H106.545L101.325 214.52C101.19 215.015 101.1 215.51 101.1 216.05V216.815H101.01V216.05C101.01 215.51 100.92 215.015 100.785 214.52L95.5654 198.815H92.0104L99.1654 221.045H102.585L107.985 205.025C108.12 204.53 108.21 203.99 108.21 203.45V202.82H108.3V203.45C108.3 203.99 108.39 204.53 108.57 205.025L113.925 221.045H117.345L124.545 198.815H120.99ZM145.321 221.045V208.355C145.321 201.785 142.396 198.14 136.951 198.14C134.476 198.14 132.676 199.13 131.506 200.255C130.561 201.11 130.021 202.19 129.706 203.18L129.391 204.26L129.301 204.215L129.481 203.63C129.661 203 129.751 202.325 129.751 201.65V190.94H126.331V221.045H129.751V208.58C129.751 204.215 132.181 201.29 135.916 201.29C140.101 201.29 141.901 204.08 141.901 209.03C141.901 211.91 141.901 221.045 141.901 221.045H145.321ZM163.526 211.865C163.526 215.6 161.096 218.66 156.641 218.66C154.121 218.66 152.501 217.265 152.276 215.33C152.051 213.305 153.221 211.325 156.101 210.785C157.676 210.515 160.376 209.975 161.411 209.75C163.121 209.435 163.526 208.895 163.526 208.895V211.865ZM168.791 218.12H167.216C167.081 218.12 166.991 218.03 166.991 217.895V206.555C167.036 201.29 164.066 198.14 158.396 198.14C155.426 198.14 152.906 199.13 151.331 200.93C149.846 202.595 149.396 204.71 149.846 206.78L153.221 206.285C152.996 205.205 153.041 203.855 153.896 202.775C154.616 201.92 155.966 201.02 158.351 201.02C161.636 201.02 163.391 202.82 163.391 205.025C163.391 205.925 162.986 206.51 162.221 206.825C161.546 207.095 160.331 207.275 158.756 207.59C157.541 207.86 155.426 208.31 153.986 208.715C149.891 209.84 148.721 212.585 148.811 215.42C148.856 218.66 151.421 221.72 156.056 221.72C159.071 221.72 161.321 220.55 162.761 218.795C163.436 217.94 163.886 216.815 164.111 215.69C164.156 215.6 164.291 214.925 164.291 214.925H164.336L164.291 215.24C164.156 215.915 164.111 216.59 164.066 217.265C164.066 217.535 164.066 218.57 164.066 219.38C164.066 220.325 164.741 221.045 165.776 221.045H168.791V218.12ZM176.643 217.895C176.508 217.895 176.418 217.76 176.418 217.625V201.695H180.333V198.77H176.418V190.895H173.268C173.268 190.94 173.268 194.765 173.268 197.465C173.268 198.275 172.638 198.905 171.828 198.905H169.533V201.695H172.953C172.953 207.23 172.953 218.435 172.953 218.885C172.953 220.055 173.898 221 175.068 221H181.323V217.895H176.643ZM212.207 198.77L205.682 214.925C205.547 215.33 205.457 215.735 205.457 216.14V216.905H205.367V216.14C205.367 215.735 205.277 215.33 205.142 214.925L198.617 198.77H194.927L203.027 218.66C203.387 219.515 203.387 220.415 203.027 221.27L199.922 228.92H203.612L215.897 198.77H212.207ZM218.807 209.93C218.807 204.98 221.372 201.29 225.827 201.29C230.237 201.29 232.802 204.98 232.802 209.93C232.802 214.88 230.237 218.57 225.827 218.57C221.372 218.57 218.807 214.88 218.807 209.93ZM236.267 209.93C236.267 203.045 232.037 198.14 225.827 198.14C219.617 198.14 215.387 203.045 215.387 209.93C215.387 216.815 219.617 221.72 225.827 221.72C232.037 221.72 236.267 216.815 236.267 209.93ZM239.703 198.815V211.505C239.703 218.075 242.583 221.675 248.073 221.675C252.393 221.675 254.373 219.02 255.093 217.265L255.633 215.6L255.678 215.645L255.543 216.185C255.363 216.86 255.273 217.49 255.273 218.165V221H258.693V198.815H255.273V211.28C255.273 215.645 252.798 218.57 249.108 218.57C244.923 218.57 243.123 215.78 243.123 210.83C243.123 207.95 243.123 198.815 243.123 198.815H239.703ZM289.693 211.865C289.693 215.6 287.263 218.66 282.808 218.66C280.288 218.66 278.668 217.265 278.443 215.33C278.218 213.305 279.388 211.325 282.268 210.785C283.843 210.515 286.543 209.975 287.578 209.75C289.288 209.435 289.693 208.895 289.693 208.895V211.865ZM294.958 218.12H293.383C293.248 218.12 293.158 218.03 293.158 217.895V206.555C293.203 201.29 290.233 198.14 284.563 198.14C281.593 198.14 279.073 199.13 277.498 200.93C276.013 202.595 275.563 204.71 276.013 206.78L279.388 206.285C279.163 205.205 279.208 203.855 280.063 202.775C280.783 201.92 282.133 201.02 284.518 201.02C287.803 201.02 289.558 202.82 289.558 205.025C289.558 205.925 289.153 206.51 288.388 206.825C287.713 207.095 286.498 207.275 284.923 207.59C283.708 207.86 281.593 208.31 280.153 208.715C276.058 209.84 274.888 212.585 274.978 215.42C275.023 218.66 277.588 221.72 282.223 221.72C285.238 221.72 287.488 220.55 288.928 218.795C289.603 217.94 290.053 216.815 290.278 215.69C290.323 215.6 290.458 214.925 290.458 214.925H290.503L290.458 215.24C290.323 215.915 290.278 216.59 290.233 217.265C290.233 217.535 290.233 218.57 290.233 219.38C290.233 220.325 290.908 221.045 291.943 221.045H294.958V218.12ZM314.712 212.135C314.037 215.96 311.652 218.57 307.917 218.57C303.462 218.57 300.897 214.88 300.897 209.93C300.897 204.98 303.462 201.29 307.917 201.29C311.652 201.29 314.037 203.9 314.712 207.725L318.132 207.365C317.232 201.785 313.317 198.14 307.917 198.14C301.707 198.14 297.477 203.045 297.477 209.93C297.477 216.815 301.707 221.72 307.917 221.72C313.317 221.72 317.232 218.075 318.132 212.54L314.712 212.135ZM327.112 217.895C326.977 217.895 326.887 217.76 326.887 217.625V201.695H330.802V198.77H326.887V190.895H323.737C323.737 190.94 323.737 194.765 323.737 197.465C323.737 198.275 323.107 198.905 322.297 198.905H320.002V201.695H323.422C323.422 207.23 323.422 218.435 323.422 218.885C323.422 220.055 324.367 221 325.537 221H331.792V217.895H327.112ZM334.537 198.815V211.505C334.537 218.075 337.417 221.675 342.907 221.675C347.227 221.675 349.207 219.02 349.927 217.265L350.467 215.6L350.512 215.645L350.377 216.185C350.197 216.86 350.107 217.49 350.107 218.165V221H353.527V198.815H350.107V211.28C350.107 215.645 347.632 218.57 343.942 218.57C339.757 218.57 337.957 215.78 337.957 210.83C337.957 207.95 337.957 198.815 337.957 198.815H334.537ZM372.003 211.865C372.003 215.6 369.573 218.66 365.118 218.66C362.598 218.66 360.978 217.265 360.753 215.33C360.528 213.305 361.698 211.325 364.578 210.785C366.153 210.515 368.853 209.975 369.888 209.75C371.598 209.435 372.003 208.895 372.003 208.895V211.865ZM377.268 218.12H375.693C375.558 218.12 375.468 218.03 375.468 217.895V206.555C375.513 201.29 372.543 198.14 366.873 198.14C363.903 198.14 361.383 199.13 359.808 200.93C358.323 202.595 357.873 204.71 358.323 206.78L361.698 206.285C361.473 205.205 361.518 203.855 362.373 202.775C363.093 201.92 364.443 201.02 366.828 201.02C370.113 201.02 371.868 202.82 371.868 205.025C371.868 205.925 371.463 206.51 370.698 206.825C370.023 207.095 368.808 207.275 367.233 207.59C366.018 207.86 363.903 208.31 362.463 208.715C358.368 209.84 357.198 212.585 357.288 215.42C357.333 218.66 359.898 221.72 364.533 221.72C367.548 221.72 369.798 220.55 371.238 218.795C371.913 217.94 372.363 216.815 372.588 215.69C372.633 215.6 372.768 214.925 372.768 214.925H372.813L372.768 215.24C372.633 215.915 372.588 216.59 372.543 217.265C372.543 217.535 372.543 218.57 372.543 219.38C372.543 220.325 373.218 221.045 374.253 221.045H377.268V218.12ZM380.641 218.93C380.641 220.1 381.586 221.045 382.756 221.045H388.381V217.895H384.331C384.196 217.895 384.061 217.805 384.061 217.625V190.94H380.641C380.596 191.075 380.596 218.21 380.641 218.93ZM391.232 218.93C391.232 220.1 392.177 221.045 393.347 221.045H398.972V217.895H394.922C394.787 217.895 394.652 217.805 394.652 217.625V190.94H391.232C391.187 191.075 391.187 218.21 391.232 218.93ZM415.454 198.77L408.929 214.925C408.794 215.33 408.704 215.735 408.704 216.14V216.905H408.614V216.14C408.614 215.735 408.524 215.33 408.389 214.925L401.864 198.77H398.174L406.274 218.66C406.634 219.515 406.634 220.415 406.274 221.27L403.169 228.92H406.859L419.144 198.77H415.454ZM461.479 198.815L456.259 214.52C456.079 215.015 455.989 215.51 455.989 216.05V216.815H455.899V216.05C455.899 215.51 455.854 215.015 455.674 214.52L450.454 198.815H447.034L441.814 214.52C441.679 215.015 441.589 215.51 441.589 216.05V216.815H441.499V216.05C441.499 215.51 441.409 215.015 441.274 214.52L436.054 198.815H432.499L439.654 221.045H443.074L448.474 205.025C448.609 204.53 448.699 203.99 448.699 203.45V202.82H448.789V203.45C448.789 203.99 448.879 204.53 449.059 205.025L454.414 221.045H457.834L465.034 198.815H461.479ZM480.679 211.865C480.679 215.6 478.249 218.66 473.794 218.66C471.274 218.66 469.654 217.265 469.429 215.33C469.204 213.305 470.374 211.325 473.254 210.785C474.829 210.515 477.529 209.975 478.564 209.75C480.274 209.435 480.679 208.895 480.679 208.895V211.865ZM485.944 218.12H484.369C484.234 218.12 484.144 218.03 484.144 217.895V206.555C484.189 201.29 481.219 198.14 475.549 198.14C472.579 198.14 470.059 199.13 468.484 200.93C466.999 202.595 466.549 204.71 466.999 206.78L470.374 206.285C470.149 205.205 470.194 203.855 471.049 202.775C471.769 201.92 473.119 201.02 475.504 201.02C478.789 201.02 480.544 202.82 480.544 205.025C480.544 205.925 480.139 206.51 479.374 206.825C478.699 207.095 477.484 207.275 475.909 207.59C474.694 207.86 472.579 208.31 471.139 208.715C467.044 209.84 465.874 212.585 465.964 215.42C466.009 218.66 468.574 221.72 473.209 221.72C476.224 221.72 478.474 220.55 479.914 218.795C480.589 217.94 481.039 216.815 481.264 215.69C481.309 215.6 481.444 214.925 481.444 214.925H481.489L481.444 215.24C481.309 215.915 481.264 216.59 481.219 217.265C481.219 217.535 481.219 218.57 481.219 219.38C481.219 220.325 481.894 221.045 482.929 221.045H485.944V218.12ZM508.353 208.355C508.353 201.785 505.203 198.14 499.983 198.14C496.968 198.14 494.988 199.49 493.863 200.885C493.323 201.56 493.008 202.37 492.783 203.09L492.423 204.26L492.333 204.215L492.513 203.63C492.693 203 492.783 202.325 492.783 201.65V198.815H489.363V221.045H492.783V208.58C492.783 204.215 495.213 201.29 498.948 201.29C502.863 201.29 504.933 204.08 504.933 209.03C504.933 211.91 504.933 221.045 504.933 221.045H508.353V208.355ZM517.044 217.895C516.909 217.895 516.819 217.76 516.819 217.625V201.695H520.734V198.77H516.819V190.895H513.669C513.669 190.94 513.669 194.765 513.669 197.465C513.669 198.275 513.039 198.905 512.229 198.905H509.934V201.695H513.354C513.354 207.23 513.354 218.435 513.354 218.885C513.354 220.055 514.299 221 515.469 221H521.724V217.895H517.044ZM533.312 201.29C537.317 201.29 539.702 204.305 540.107 208.4H526.472C526.877 204.305 529.307 201.29 533.312 201.29ZM543.662 210.965C543.707 210.65 543.752 210.29 543.752 209.93C543.752 203.045 539.522 198.14 533.312 198.14C527.102 198.14 522.872 203.045 522.872 209.93C522.872 216.815 527.102 221.72 533.312 221.72C538.307 221.72 541.952 218.525 543.257 213.755L539.747 213.125C538.982 216.32 536.732 218.57 533.312 218.57C529.127 218.57 526.697 215.285 526.472 210.965H543.662ZM549.935 209.93C549.935 204.935 552.5 201.245 556.955 201.245C561.365 201.245 563.66 204.935 563.66 209.93C563.66 214.88 561.41 218.57 556.955 218.57C552.5 218.57 549.935 214.88 549.935 209.93ZM563.795 190.895V202.325C563.795 203 563.885 203.675 564.065 204.305L564.245 204.89H564.2L563.66 203.27C563.075 201.335 561.41 198.14 556.325 198.14C550.43 198.14 546.515 203.045 546.515 209.93C546.515 216.77 550.385 221.675 556.325 221.675C561.41 221.675 563.12 218.435 563.705 216.5L564.2 214.925H564.245L564.065 215.51C563.885 216.14 563.795 216.815 563.795 217.49V221.045H567.26V190.895H563.795ZM571.329 221.315C572.409 221.315 573.264 220.415 573.264 219.38C573.264 218.3 572.409 217.445 571.329 217.445C570.294 217.445 569.439 218.3 569.439 219.38C569.439 220.415 570.294 221.315 571.329 221.315ZM583.215 190.22C582.405 190.4 581.775 191.075 581.73 191.93C581.685 192.2 581.775 192.515 581.91 192.785C582 193.01 581.955 193.19 581.865 193.325L580.155 195.08L581.865 196.7L585.015 193.325C585.465 192.83 585.555 192.2 585.42 191.615C585.105 190.625 584.205 190.04 583.215 190.22ZM577.815 190.22C577.005 190.4 576.375 191.075 576.33 191.93C576.33 192.2 576.375 192.515 576.51 192.785C576.645 193.01 576.555 193.19 576.465 193.325L574.8 195.08L576.465 196.7L579.615 193.325C580.065 192.83 580.155 192.2 580.02 191.615C579.75 190.625 578.805 190.04 577.815 190.22ZM623.121 212.99C623.121 207.455 618.396 205.43 612.366 203.855C607.011 202.505 604.536 201.155 604.536 198.095C604.536 195.44 606.696 193.415 611.331 193.415C615.966 193.415 618.306 195.935 618.306 199.805H621.996C621.996 194.72 619.161 190.22 611.331 190.22C603.951 190.22 600.846 193.775 600.846 198.05C600.846 202.82 604.041 205.25 610.701 206.87C616.731 208.355 619.386 209.615 619.386 213.215C619.386 216.32 616.686 218.525 612.006 218.525C606.606 218.525 603.816 215.51 603.816 211.415H600.126C600.126 216.995 603.726 221.675 612.096 221.675C620.061 221.675 623.121 217.445 623.121 212.99ZM629.344 209.93C629.344 204.98 631.909 201.29 636.364 201.29C640.774 201.29 643.339 204.98 643.339 209.93C643.339 214.88 640.774 218.57 636.364 218.57C631.909 218.57 629.344 214.88 629.344 209.93ZM646.804 209.93C646.804 203.045 642.574 198.14 636.364 198.14C630.154 198.14 625.924 203.045 625.924 209.93C625.924 216.815 630.154 221.72 636.364 221.72C642.574 221.72 646.804 216.815 646.804 209.93ZM650.24 198.815V211.505C650.24 218.075 653.12 221.675 658.61 221.675C662.93 221.675 664.91 219.02 665.63 217.265L666.17 215.6L666.215 215.645L666.08 216.185C665.9 216.86 665.81 217.49 665.81 218.165V221H669.23V198.815H665.81V211.28C665.81 215.645 663.335 218.57 659.645 218.57C655.46 218.57 653.66 215.78 653.66 210.83C653.66 207.95 653.66 198.815 653.66 198.815H650.24ZM692.836 208.355C692.836 201.785 689.686 198.14 684.466 198.14C681.451 198.14 679.471 199.49 678.346 200.885C677.806 201.56 677.491 202.37 677.266 203.09L676.906 204.26L676.816 204.215L676.996 203.63C677.176 203 677.266 202.325 677.266 201.65V198.815H673.846V221.045H677.266V208.58C677.266 204.215 679.696 201.29 683.431 201.29C687.346 201.29 689.416 204.08 689.416 209.03C689.416 211.91 689.416 221.045 689.416 221.045H692.836V208.355ZM699.657 209.93C699.657 204.935 702.222 201.245 706.677 201.245C711.087 201.245 713.382 204.935 713.382 209.93C713.382 214.88 711.132 218.57 706.677 218.57C702.222 218.57 699.657 214.88 699.657 209.93ZM713.517 190.895V202.325C713.517 203 713.607 203.675 713.787 204.305L713.967 204.89H713.922L713.382 203.27C712.797 201.335 711.132 198.14 706.047 198.14C700.152 198.14 696.237 203.045 696.237 209.93C696.237 216.77 700.107 221.675 706.047 221.675C711.132 221.675 712.842 218.435 713.427 216.5L713.922 214.925H713.967L713.787 215.51C713.607 216.14 713.517 216.815 713.517 217.49V221.045H716.982V190.895H713.517ZM739.674 201.92H744.129V198.77H739.404C739.404 198.77 739.089 196.655 739.089 195.62C739.089 194.54 739.719 193.82 740.574 193.82H742.464V190.895H739.314C736.929 190.895 735.894 192.56 735.894 194.405C735.894 195.755 736.164 197.195 736.434 197.96C736.524 198.32 736.794 198.59 737.109 198.77C737.244 198.86 737.649 199.085 737.784 199.085V199.175C737.694 199.175 737.424 199.085 737.334 199.04C736.749 198.905 736.119 198.77 735.534 198.77H732.339V201.92H736.209V221H739.674V201.92ZM760.699 211.865C760.699 215.6 758.269 218.66 753.814 218.66C751.294 218.66 749.674 217.265 749.449 215.33C749.224 213.305 750.394 211.325 753.274 210.785C754.849 210.515 757.549 209.975 758.584 209.75C760.294 209.435 760.699 208.895 760.699 208.895V211.865ZM765.964 218.12H764.389C764.254 218.12 764.164 218.03 764.164 217.895V206.555C764.209 201.29 761.239 198.14 755.569 198.14C752.599 198.14 750.079 199.13 748.504 200.93C747.019 202.595 746.569 204.71 747.019 206.78L750.394 206.285C750.169 205.205 750.214 203.855 751.069 202.775C751.789 201.92 753.139 201.02 755.524 201.02C758.809 201.02 760.564 202.82 760.564 205.025C760.564 205.925 760.159 206.51 759.394 206.825C758.719 207.095 757.504 207.275 755.929 207.59C754.714 207.86 752.599 208.31 751.159 208.715C747.064 209.84 745.894 212.585 745.984 215.42C746.029 218.66 748.594 221.72 753.229 221.72C756.244 221.72 758.494 220.55 759.934 218.795C760.609 217.94 761.059 216.815 761.284 215.69C761.329 215.6 761.464 214.925 761.464 214.925H761.509L761.464 215.24C761.329 215.915 761.284 216.59 761.239 217.265C761.239 217.535 761.239 218.57 761.239 219.38C761.239 220.325 761.914 221.045 762.949 221.045H765.964V218.12ZM786.123 202.505C784.908 199.22 782.388 198.14 779.598 198.14C776.673 198.14 774.963 199.49 773.928 200.885C773.343 201.605 772.983 202.415 772.758 203.18L772.443 204.26L772.353 204.215L772.533 203.63C772.713 203 772.803 202.325 772.803 201.65V198.815H769.383V221.045H772.803V208.58C772.803 204.215 774.873 201.29 778.338 201.29C781.308 201.29 783.558 203 783.558 208.58C783.558 211.415 783.558 221.045 783.558 221.045H787.023V208.58C787.023 204.215 789.048 201.29 792.558 201.29C795.528 201.29 797.778 203.36 797.778 208.355C797.778 211.19 797.778 221.045 797.778 221.045H801.243V207.41C801.243 200.885 797.733 198.14 793.458 198.14C789.813 198.14 787.923 200.39 787.113 201.83C786.708 202.55 786.438 203.27 786.348 203.72C786.303 203.81 786.213 204.26 786.213 204.26L786.168 204.215L786.213 203.9C786.348 203.36 786.303 202.91 786.123 202.505ZM805.55 221.045H809.015C809.015 215.375 809.015 198.905 809.015 198.815H805.55V221.045ZM807.26 195.665C808.34 195.665 809.195 194.81 809.195 193.775C809.195 192.695 808.34 191.84 807.26 191.84C806.225 191.84 805.37 192.695 805.37 193.775C805.37 194.81 806.225 195.665 807.26 195.665ZM813.591 218.93C813.591 220.1 814.536 221.045 815.706 221.045H821.331V217.895H817.281C817.146 217.895 817.011 217.805 817.011 217.625V190.94H813.591C813.546 191.075 813.546 218.21 813.591 218.93ZM824.227 221.045H827.692C827.692 215.375 827.692 198.905 827.692 198.815H824.227V221.045ZM825.937 195.665C827.017 195.665 827.872 194.81 827.872 193.775C827.872 192.695 827.017 191.84 825.937 191.84C824.902 191.84 824.047 192.695 824.047 193.775C824.047 194.81 824.902 195.665 825.937 195.665ZM846.172 211.865C846.172 215.6 843.742 218.66 839.287 218.66C836.767 218.66 835.147 217.265 834.922 215.33C834.697 213.305 835.867 211.325 838.747 210.785C840.322 210.515 843.022 209.975 844.057 209.75C845.767 209.435 846.172 208.895 846.172 208.895V211.865ZM851.437 218.12H849.862C849.727 218.12 849.637 218.03 849.637 217.895V206.555C849.682 201.29 846.712 198.14 841.042 198.14C838.072 198.14 835.552 199.13 833.977 200.93C832.492 202.595 832.042 204.71 832.492 206.78L835.867 206.285C835.642 205.205 835.687 203.855 836.542 202.775C837.262 201.92 838.612 201.02 840.997 201.02C844.282 201.02 846.037 202.82 846.037 205.025C846.037 205.925 845.632 206.51 844.867 206.825C844.192 207.095 842.977 207.275 841.402 207.59C840.187 207.86 838.072 208.31 836.632 208.715C832.537 209.84 831.367 212.585 831.457 215.42C831.502 218.66 834.067 221.72 838.702 221.72C841.717 221.72 843.967 220.55 845.407 218.795C846.082 217.94 846.532 216.815 846.757 215.69C846.802 215.6 846.937 214.925 846.937 214.925H846.982L846.937 215.24C846.802 215.915 846.757 216.59 846.712 217.265C846.712 217.535 846.712 218.57 846.712 219.38C846.712 220.325 847.387 221.045 848.422 221.045H851.437V218.12ZM858.276 221.045V210.11C858.276 206.375 860.031 201.47 861.831 201.47C863.046 201.47 863.406 203.09 863.406 204.35V206.825H866.871V203.63C866.871 200.3 865.791 198.14 863.181 198.14C861.831 198.14 860.706 199.13 859.896 200.3C859.086 201.425 858.636 202.73 858.501 203.495C858.456 203.63 858.276 204.71 858.231 204.845L858.096 205.7H858.051L858.141 205.115C858.231 204.395 858.276 203.72 858.276 203V198.815H854.856V221.045H858.276ZM876.406 215.69C875.326 215.69 874.471 216.545 874.471 217.625C874.471 218.66 875.326 219.515 876.406 219.515C877.486 219.515 878.341 218.66 878.341 217.625C878.341 216.545 877.486 215.69 876.406 215.69ZM874.561 205.745V212.225H878.251V207.005C878.251 206.6 878.566 206.33 878.926 206.24C879.016 206.24 879.151 206.195 879.196 206.195C883.201 205.295 886.486 203.045 886.486 198.365C886.486 194.54 883.786 190.22 877.531 190.22C870.331 190.22 868.171 195.08 868.216 198.455H871.906C871.906 196.97 872.671 193.505 877.576 193.505C880.591 193.505 882.751 195.62 882.751 198.275C882.751 200.615 881.041 203 877.576 203H877.171C875.731 203 874.561 204.26 874.561 205.745ZM8.20988 311.045V280.895H4.51988V311.045H8.20988ZM18.4839 307.895C18.3489 307.895 18.2589 307.76 18.2589 307.625V291.695H22.1739V288.77H18.2589V280.895H15.1089C15.1089 280.94 15.1089 284.765 15.1089 287.465C15.1089 288.275 14.4789 288.905 13.6689 288.905H11.3739V291.695H14.7939C14.7939 297.23 14.7939 308.435 14.7939 308.885C14.7939 310.055 15.7389 311 16.9089 311H23.1639V307.895H18.4839ZM55.263 305.24C55.263 300.56 50.943 299.255 47.343 298.355C45.408 297.86 41.763 297.05 41.763 294.305C41.763 292.64 43.113 291.02 46.443 291.02C50.133 291.02 51.258 293.045 51.258 295.295H54.453C54.453 291.65 52.383 288.14 46.353 288.14C40.638 288.14 38.298 290.93 38.298 293.99C38.298 297.995 41.358 299.615 45.588 300.65C49.773 301.64 51.798 302.855 51.798 305.06C51.798 307.49 49.683 308.795 46.758 308.795C41.898 308.795 41.223 305.33 41.223 303.935H37.803C37.803 307.67 40.188 311.675 46.893 311.675C52.743 311.675 55.263 308.75 55.263 305.24ZM77.9968 311.045V298.355C77.9968 291.785 75.0718 288.14 69.6268 288.14C67.1518 288.14 65.3518 289.13 64.1818 290.255C63.2368 291.11 62.6968 292.19 62.3818 293.18L62.0668 294.26L61.9768 294.215L62.1568 293.63C62.3368 293 62.4268 292.325 62.4268 291.65V280.94H59.0068V311.045H62.4268V298.58C62.4268 294.215 64.8568 291.29 68.5918 291.29C72.7768 291.29 74.5768 294.08 74.5768 299.03C74.5768 301.91 74.5768 311.045 74.5768 311.045H77.9968ZM84.8618 299.93C84.8618 294.98 87.4268 291.29 91.8818 291.29C96.2918 291.29 98.8568 294.98 98.8568 299.93C98.8568 304.88 96.2918 308.57 91.8818 308.57C87.4268 308.57 84.8618 304.88 84.8618 299.93ZM102.322 299.93C102.322 293.045 98.0918 288.14 91.8818 288.14C85.6718 288.14 81.4418 293.045 81.4418 299.93C81.4418 306.815 85.6718 311.72 91.8818 311.72C98.0918 311.72 102.322 306.815 102.322 299.93ZM105.757 288.815V301.505C105.757 308.075 108.637 311.675 114.127 311.675C118.447 311.675 120.427 309.02 121.147 307.265L121.687 305.6L121.732 305.645L121.597 306.185C121.417 306.86 121.327 307.49 121.327 308.165V311H124.747V288.815H121.327V301.28C121.327 305.645 118.852 308.57 115.162 308.57C110.977 308.57 109.177 305.78 109.177 300.83C109.177 297.95 109.177 288.815 109.177 288.815H105.757ZM129.318 308.93C129.318 310.1 130.263 311.045 131.433 311.045H137.058V307.895H133.008C132.873 307.895 132.738 307.805 132.738 307.625V280.94H129.318C129.273 281.075 129.273 308.21 129.318 308.93ZM141.463 299.93C141.463 294.935 144.028 291.245 148.483 291.245C152.893 291.245 155.188 294.935 155.188 299.93C155.188 304.88 152.938 308.57 148.483 308.57C144.028 308.57 141.463 304.88 141.463 299.93ZM155.323 280.895V292.325C155.323 293 155.413 293.675 155.593 294.305L155.773 294.89H155.728L155.188 293.27C154.603 291.335 152.938 288.14 147.853 288.14C141.958 288.14 138.043 293.045 138.043 299.93C138.043 306.77 141.913 311.675 147.853 311.675C152.938 311.675 154.648 308.435 155.233 306.5L155.728 304.925H155.773L155.593 305.51C155.413 306.14 155.323 306.815 155.323 307.49V311.045H158.788V280.895H155.323ZM182.411 298.355C182.411 291.785 179.261 288.14 174.041 288.14C171.026 288.14 169.046 289.49 167.921 290.885C167.381 291.56 167.066 292.37 166.841 293.09L166.481 294.26L166.391 294.215L166.571 293.63C166.751 293 166.841 292.325 166.841 291.65V288.815H163.421V311.045H166.841V298.58C166.841 294.215 169.271 291.29 173.006 291.29C176.921 291.29 178.991 294.08 178.991 299.03C178.991 301.91 178.991 311.045 178.991 311.045H182.411V298.355ZM187.053 280.22C186.243 280.4 185.613 281.075 185.568 281.93C185.568 282.2 185.613 282.515 185.748 282.785C185.883 283.01 185.793 283.19 185.703 283.325L184.038 285.08L185.703 286.7L188.853 283.325C189.303 282.83 189.393 282.2 189.258 281.615C188.988 280.625 188.043 280.04 187.053 280.22ZM196.99 307.895C196.855 307.895 196.765 307.76 196.765 307.625V291.695H200.68V288.77H196.765V280.895H193.615C193.615 280.94 193.615 284.765 193.615 287.465C193.615 288.275 192.985 288.905 192.175 288.905H189.88V291.695H193.3C193.3 297.23 193.3 308.435 193.3 308.885C193.3 310.055 194.245 311 195.415 311H201.67V307.895H196.99ZM236.244 311.045V298.355C236.244 291.785 233.319 288.14 227.874 288.14C225.399 288.14 223.599 289.13 222.429 290.255C221.484 291.11 220.944 292.19 220.629 293.18L220.314 294.26L220.224 294.215L220.404 293.63C220.584 293 220.674 292.325 220.674 291.65V280.94H217.254V311.045H220.674V298.58C220.674 294.215 223.104 291.29 226.839 291.29C231.024 291.29 232.824 294.08 232.824 299.03C232.824 301.91 232.824 311.045 232.824 311.045H236.244ZM254.449 301.865C254.449 305.6 252.019 308.66 247.564 308.66C245.044 308.66 243.424 307.265 243.199 305.33C242.974 303.305 244.144 301.325 247.024 300.785C248.599 300.515 251.299 299.975 252.334 299.75C254.044 299.435 254.449 298.895 254.449 298.895V301.865ZM259.714 308.12H258.139C258.004 308.12 257.914 308.03 257.914 307.895V296.555C257.959 291.29 254.989 288.14 249.319 288.14C246.349 288.14 243.829 289.13 242.254 290.93C240.769 292.595 240.319 294.71 240.769 296.78L244.144 296.285C243.919 295.205 243.964 293.855 244.819 292.775C245.539 291.92 246.889 291.02 249.274 291.02C252.559 291.02 254.314 292.82 254.314 295.025C254.314 295.925 253.909 296.51 253.144 296.825C252.469 297.095 251.254 297.275 249.679 297.59C248.464 297.86 246.349 298.31 244.909 298.715C240.814 299.84 239.644 302.585 239.734 305.42C239.779 308.66 242.344 311.72 246.979 311.72C249.994 311.72 252.244 310.55 253.684 308.795C254.359 307.94 254.809 306.815 255.034 305.69C255.079 305.6 255.214 304.925 255.214 304.925H255.259L255.214 305.24C255.079 305.915 255.034 306.59 254.989 307.265C254.989 307.535 254.989 308.57 254.989 309.38C254.989 310.325 255.664 311.045 256.699 311.045H259.714V308.12ZM277.242 288.815L270.762 307.22C270.627 307.625 270.537 308.12 270.537 308.57V309.38H270.447V308.57C270.447 308.12 270.402 307.67 270.267 307.22L263.787 288.815H260.232L268.017 311.045H273.012L280.797 288.815H277.242ZM291.481 291.29C295.486 291.29 297.871 294.305 298.276 298.4H284.641C285.046 294.305 287.476 291.29 291.481 291.29ZM301.831 300.965C301.876 300.65 301.921 300.29 301.921 299.93C301.921 293.045 297.691 288.14 291.481 288.14C285.271 288.14 281.041 293.045 281.041 299.93C281.041 306.815 285.271 311.72 291.481 311.72C296.476 311.72 300.121 308.525 301.426 303.755L297.916 303.125C297.151 306.32 294.901 308.57 291.481 308.57C287.296 308.57 284.866 305.285 284.641 300.965H301.831ZM323.508 307.895C323.373 307.895 323.283 307.76 323.283 307.625V291.695H327.198V288.77H323.283V280.895H320.133C320.133 280.94 320.133 284.765 320.133 287.465C320.133 288.275 319.503 288.905 318.693 288.905H316.398V291.695H319.818C319.818 297.23 319.818 308.435 319.818 308.885C319.818 310.055 320.763 311 321.933 311H328.188V307.895H323.508ZM332.757 299.93C332.757 294.98 335.322 291.29 339.777 291.29C344.187 291.29 346.752 294.98 346.752 299.93C346.752 304.88 344.187 308.57 339.777 308.57C335.322 308.57 332.757 304.88 332.757 299.93ZM350.217 299.93C350.217 293.045 345.987 288.14 339.777 288.14C333.567 288.14 329.337 293.045 329.337 299.93C329.337 306.815 333.567 311.72 339.777 311.72C345.987 311.72 350.217 306.815 350.217 299.93ZM353.052 311.315C354.132 311.315 354.987 310.415 354.987 309.38C354.987 308.3 354.132 307.445 353.052 307.445C352.017 307.445 351.162 308.3 351.162 309.38C351.162 310.415 352.017 311.315 353.052 311.315Z" fill="#FFF6E9"/>
</svg>
