<svg width="1544" height="1053" viewBox="0 0 1544 1053" fill="none" xmlns="http://www.w3.org/2000/svg">
<path d="M1484.31 1006.72L1484.31 819" stroke="#8CD87C" stroke-width="30"/>
<path d="M1428.13 977.926C1426.35 974.832 1426.35 971.02 1428.13 967.926L1451.89 926.773C1453.68 923.679 1456.98 921.773 1460.55 921.773L1508.07 921.773C1511.65 921.773 1514.95 923.679 1516.73 926.773L1540.49 967.926C1542.28 971.02 1542.28 974.832 1540.49 977.926L1516.73 1019.08C1514.95 1022.17 1511.65 1024.08 1508.07 1024.08L1460.55 1024.08C1456.98 1024.08 1453.68 1022.17 1451.89 1019.08L1428.13 977.926Z" fill="#FFF6E9"/>
<path d="M1484.31 991.157C1493.42 991.157 1500.79 998.535 1500.79 1007.64L1500.79 1036.35C1500.79 1045.45 1493.42 1052.83 1484.31 1052.83C1475.21 1052.83 1467.83 1045.45 1467.83 1036.35L1467.83 1007.64C1467.83 998.535 1475.21 991.157 1484.31 991.157Z" fill="#8CD87C"/>
<path d="M1484.31 991.157C1493.42 991.157 1500.79 998.535 1500.79 1007.64L1500.79 1036.35C1500.79 1045.45 1493.42 1052.83 1484.31 1052.83C1475.21 1052.83 1467.83 1045.45 1467.83 1036.35L1467.83 1007.64C1467.83 998.535 1475.21 991.157 1484.31 991.157Z" stroke="#303030"/>
<path d="M77.2389 115.492C74.1449 117.278 70.3329 117.278 67.2389 115.492L26.0858 91.7324C22.9918 89.9461 21.0858 86.6448 21.0858 83.0721L21.0858 35.5526C21.0858 31.98 22.9918 28.6787 26.0858 26.8924L67.2389 3.13259C70.3329 1.34627 74.1449 1.34627 77.2389 3.13259L118.392 26.8924C121.486 28.6787 123.392 31.98 123.392 35.5526L123.392 83.0721C123.392 86.6448 121.486 89.9461 118.392 91.7324L77.2389 115.492Z" fill="#FFF6E9"/>
<path d="M112.172 58.25L172.177 118.255C184.18 130.257 200.458 137 217.432 137H770.785C806.131 137 834.785 165.654 834.785 201V273C834.785 308.346 806.131 337 770.785 337H761.422H466.922H318.922C283.576 337 254.922 365.654 254.922 401V511C254.922 546.346 283.576 575 318.922 575H434.798C440.522 575 446.22 574.232 451.739 572.717L639.105 521.283C644.625 519.768 650.323 519 656.047 519H1037.42C1072.77 519 1101.42 547.654 1101.42 583V655V667V754.408C1101.42 806.121 1159.58 836.482 1202.01 806.92L1328.93 718.488C1339.67 711.009 1352.44 707 1365.52 707H1419.42C1454.77 707 1483.42 735.654 1483.42 771V823" stroke="#FFF6E9" stroke-width="30"/>
<path d="M62.2583 59.436C62.2583 68.5372 54.8803 75.9151 45.7792 75.9151L17.0663 75.9151C7.96512 75.9151 0.587185 68.5372 0.587186 59.436C0.587187 50.3349 7.96513 42.9569 17.0663 42.9569L45.7792 42.9569C54.8804 42.9569 62.2583 50.3349 62.2583 59.436Z" fill="#8CD87C"/>
<path d="M62.2583 59.436C62.2583 68.5372 54.8803 75.9151 45.7792 75.9151L17.0663 75.9151C7.96512 75.9151 0.587185 68.5372 0.587186 59.436C0.587187 50.3349 7.96513 42.9569 17.0663 42.9569L45.7792 42.9569C54.8804 42.9569 62.2583 50.3349 62.2583 59.436Z" stroke="#303030"/>
</svg>
