<svg width="48" height="48" viewBox="0 0 48 48" fill="none" xmlns="http://www.w3.org/2000/svg">
<path fill-rule="evenodd" clip-rule="evenodd" d="M14.9157 10.0944C14.7898 9.96853 14.5857 9.96853 14.4598 10.0944L11.6775 12.8767C9.98957 14.5647 9.52572 17.1226 10.5135 19.2958C14.1786 27.359 20.641 33.8214 28.7042 37.4865C30.8774 38.4743 33.4353 38.0104 35.1233 36.3225L37.9056 33.5402C38.0315 33.4143 38.0315 33.2102 37.9056 33.0843L34.1628 29.3415C34.0647 29.2434 33.9148 29.2191 33.7907 29.2811L31.7135 30.3197C29.1554 31.5988 26.0658 31.0974 24.0435 29.075L18.925 23.9565C16.9026 21.9342 16.4012 18.8446 17.6803 16.2865L18.7189 14.2093C18.7809 14.0852 18.7566 13.9353 18.6585 13.8372L14.9157 10.0944ZM11.6314 7.26598C13.3194 5.57801 16.0561 5.57801 17.7441 7.26598L21.4869 11.0088C22.8025 12.3244 23.1286 14.3341 22.2966 15.9982L21.258 18.0753C20.7489 19.0935 20.9485 20.3232 21.7534 21.1281L26.8719 26.2466C27.6768 27.0515 28.9065 27.2511 29.9247 26.742L32.0018 25.7034C33.6659 24.8714 35.6756 25.1975 36.9912 26.5131L40.734 30.2559C42.422 31.9439 42.422 34.6806 40.734 36.3686L37.9517 39.1509C35.0848 42.0179 30.7401 42.8057 27.049 41.1279C18.1053 37.0626 10.9374 29.8947 6.87205 20.951C5.19429 17.2599 5.98213 12.9152 8.84909 10.0483L11.6314 7.26598Z" fill="#F98D2B"/>
</svg>
