<svg width="49" height="48" viewBox="0 0 49 48" fill="none" xmlns="http://www.w3.org/2000/svg">
<path fill-rule="evenodd" clip-rule="evenodd" d="M24.5 6C14.5589 6 6.5 14.0589 6.5 24C6.5 33.9411 14.5589 42 24.5 42C34.4411 42 42.5 33.9411 42.5 24C42.5 14.0589 34.4411 6 24.5 6ZM2.5 24C2.5 11.8497 12.3497 2 24.5 2C36.6503 2 46.5 11.8497 46.5 24C46.5 36.1503 36.6503 46 24.5 46C12.3497 46 2.5 36.1503 2.5 24Z" fill="#8CD87C"/>
<path fill-rule="evenodd" clip-rule="evenodd" d="M15.8666 12.7525C16.4774 12.3931 17.2327 12.3837 17.8521 12.7279L34.995 22.2517C35.6299 22.6044 36.0237 23.2737 36.0237 24C36.0237 24.7263 35.6299 25.3956 34.995 25.7483L17.8521 35.2721C17.2327 35.6163 16.4774 35.6069 15.8666 35.2476C15.2558 34.8882 14.8809 34.2325 14.8809 33.5238V14.4762C14.8809 13.7676 15.2558 13.1118 15.8666 12.7525ZM18.8809 17.8752V30.1248L29.9055 24L18.8809 17.8752Z" fill="#F98D2B"/>
</svg>
