<svg width="1741" height="689" viewBox="0 0 1741 689" fill="none" xmlns="http://www.w3.org/2000/svg">
<path d="M1642.44 494H1472.44H1452.35C1419.21 494 1392.35 467.137 1392.35 434V434V311.955C1392.35 288.784 1373.57 270 1350.4 270V270C1327.22 270 1308.44 288.784 1308.44 311.955V564C1308.44 599.346 1279.79 628 1244.44 628H1002.44L781.978 628.155C746.614 628.18 717.933 599.519 717.933 564.155V79.7887C717.933 44.4425 689.279 15.7887 653.933 15.7887L311.933 15.7888V15.7888C277.972 15.7888 250.441 43.3194 250.441 77.2802V414C250.441 449.346 279.095 478 314.441 478H392.441C427.787 478 456.441 506.654 456.441 542V546C456.441 581.346 427.788 610 392.441 610H124.441" stroke="#303030" stroke-width="30"/>
<path d="M1601.02 473.456C1601.02 469.884 1602.93 466.582 1606.02 464.796L1647.17 441.036C1650.27 439.25 1654.08 439.25 1657.17 441.036L1698.33 464.796C1701.42 466.582 1703.33 469.884 1703.33 473.456L1703.33 520.976C1703.33 524.548 1701.42 527.85 1698.33 529.636L1657.17 553.396C1654.08 555.182 1650.27 555.182 1647.17 553.396L1606.02 529.636C1602.93 527.85 1601.02 524.548 1601.02 520.976L1601.02 473.456Z" fill="#F98D2B"/>
<path d="M1679.21 497.288C1679.19 488.187 1686.55 480.792 1695.65 480.771L1724.36 480.704C1733.46 480.683 1740.86 488.044 1740.88 497.145C1740.9 506.246 1733.54 513.641 1724.44 513.662L1695.73 513.729C1686.63 513.75 1679.23 506.39 1679.21 497.288Z" fill="#303030"/>
<path d="M1679.21 497.288C1679.19 488.187 1686.55 480.792 1695.65 480.771L1724.36 480.704C1733.46 480.683 1740.86 488.044 1740.88 497.145C1740.9 506.246 1733.54 513.641 1724.44 513.662L1695.73 513.729C1686.63 513.75 1679.23 506.39 1679.21 497.288Z" stroke="#303030"/>
<path d="M140.399 631.691C140.399 635.264 138.493 638.565 135.399 640.352L94.2454 664.111C91.1514 665.898 87.3395 665.898 84.2454 664.111L43.0923 640.352C39.9983 638.565 38.0923 635.264 38.0923 631.691L38.0923 584.172C38.0923 580.599 39.9983 577.298 43.0923 575.512L84.2454 551.752C87.3395 549.966 91.1514 549.966 94.2454 551.752L135.399 575.512C138.493 577.298 140.399 580.599 140.399 584.172L140.399 631.691Z" fill="#8CD87C"/>
<path d="M62.2093 607.995C62.2305 617.096 54.8698 624.492 45.7687 624.513L17.0559 624.58C7.95473 624.601 0.559616 617.24 0.538401 608.139C0.517185 599.038 7.87791 591.643 16.979 591.622L45.6919 591.555C54.793 591.533 62.1881 598.894 62.2093 607.995Z" fill="#303030"/>
<path d="M62.2093 607.995C62.2305 617.096 54.8698 624.492 45.7687 624.513L17.0559 624.58C7.95473 624.601 0.559616 617.24 0.538401 608.139C0.517185 599.038 7.87791 591.643 16.979 591.622L45.6919 591.555C54.793 591.533 62.1881 598.894 62.2093 607.995Z" stroke="#303030"/>
</svg>
