<svg width="475" height="300" viewBox="0 0 475 300" fill="none" xmlns="http://www.w3.org/2000/svg">
<rect x="0.281982" y="0.00341797" width="474.259" height="299" rx="10" fill="#F98D2B"/>
<path d="M61.2331 56.8331C61.2331 52.8971 57.8731 51.4571 53.5851 50.3371C49.7771 49.3771 48.0171 48.4171 48.0171 46.2411C48.0171 44.3531 49.5531 42.9131 52.8491 42.9131C56.1451 42.9131 57.8091 44.7051 57.8091 47.4571H60.4331C60.4331 43.8411 58.4171 40.6411 52.8491 40.6411C47.6011 40.6411 45.3931 43.1691 45.3931 46.2091C45.3931 49.6011 47.6651 51.3291 52.4011 52.4811C56.6891 53.5371 58.5771 54.4331 58.5771 56.9931C58.5771 59.2011 56.6571 60.7691 53.3291 60.7691C49.4891 60.7691 47.5051 58.6251 47.5051 55.7131H44.8811C44.8811 59.6811 47.4411 63.0091 53.3931 63.0091C59.0571 63.0091 61.2331 60.0011 61.2331 56.8331ZM67.7064 60.3211C67.6104 60.3211 67.5464 60.2251 67.5464 60.1291V48.8011H70.3304V46.7211H67.5464V41.1211H65.3064C65.3064 41.1531 65.3064 43.8731 65.3064 45.7931C65.3064 46.3691 64.8584 46.8171 64.2824 46.8171H62.6504V48.8011H65.0824C65.0824 52.7371 65.0824 60.7051 65.0824 61.0251C65.0824 61.8571 65.7544 62.5291 66.5864 62.5291H71.0344V60.3211H67.7064ZM79.2754 48.5131C82.1234 48.5131 83.8194 50.6571 84.1074 53.5691H74.4114C74.6994 50.6571 76.4274 48.5131 79.2754 48.5131ZM86.6354 55.3931C86.6674 55.1691 86.6994 54.9131 86.6994 54.6571C86.6994 49.7611 83.6914 46.2731 79.2754 46.2731C74.8594 46.2731 71.8514 49.7611 71.8514 54.6571C71.8514 59.5531 74.8594 63.0411 79.2754 63.0411C82.8274 63.0411 85.4194 60.7691 86.3474 57.3771L83.8514 56.9291C83.3074 59.2011 81.7074 60.8011 79.2754 60.8011C76.2994 60.8011 74.5714 58.4651 74.4114 55.3931H86.6354ZM101.592 54.6571C101.592 58.1771 99.7999 60.8011 96.6319 60.8011C93.4959 60.8011 91.8639 58.1771 91.8639 54.6571C91.8639 51.1371 93.4639 48.5131 96.6319 48.5131C99.7679 48.5131 101.592 51.1371 101.592 54.6571ZM91.7359 60.0651C91.7359 59.5851 91.6719 59.1051 91.5439 58.6571L91.4159 58.2411L91.4799 58.2091L91.8319 59.3931C92.2479 60.7371 93.4639 63.0411 97.0799 63.0411C101.272 63.0411 104.056 59.5531 104.056 54.6571C104.056 49.7931 101.272 46.2731 97.0799 46.2731C93.4639 46.2731 92.2479 48.5771 91.8319 49.9851L91.4799 51.1051L91.4159 51.0731L91.5439 50.6891C91.6719 50.2091 91.7359 49.7291 91.7359 49.2491V46.7531H89.3039V68.1931H91.7359V60.0651ZM119.168 41.1211V41.6331C119.168 42.7851 118.72 43.8731 117.888 44.6731L114.08 48.5131L115.776 50.2091L118.656 47.3291C118.944 47.0091 119.168 46.6251 119.264 46.2091L119.328 45.8891H119.392L119.296 46.2731C119.2 46.6891 119.168 47.1371 119.168 47.5531V62.5291H121.792V41.1211H119.168ZM125.215 62.7531C125.983 62.7531 126.591 62.1131 126.591 61.3771C126.591 60.6091 125.983 60.0011 125.215 60.0011C124.479 60.0011 123.871 60.6091 123.871 61.3771C123.871 62.1131 124.479 62.7531 125.215 62.7531ZM65.0331 83.7691H44.0331V89.5691H51.1531V110.529H57.8731V89.5691H65.0331V83.7691ZM85.2441 110.569V98.9691C85.2441 93.7291 82.9641 90.2091 78.3641 90.2091C76.6041 90.2091 75.4041 90.7291 74.5641 91.3291C73.5241 92.1291 73.1641 93.1691 72.9641 93.9691L72.7641 94.8891H72.6841L72.8041 94.4891C72.9241 93.7691 73.0041 93.0091 73.0041 92.2891V83.8091H66.8841V110.569H73.0041V100.369C73.0041 97.4491 73.9641 95.6891 76.0841 95.6891C78.2841 95.6891 79.0841 97.4091 79.0841 100.489C79.0841 101.129 79.0841 110.569 79.0841 110.569H85.2441ZM97.5256 95.6891C99.2056 95.6891 100.366 96.8091 100.806 98.4891H94.2056C94.6456 96.8091 95.8056 95.6891 97.5256 95.6891ZM107.206 102.689C107.286 102.049 107.366 101.409 107.366 100.689C107.366 94.1691 103.166 90.2091 97.5256 90.2091C91.8456 90.2091 87.6856 94.1691 87.6856 100.689C87.6856 107.249 91.8456 111.169 97.5256 111.169C101.806 111.169 105.246 108.889 106.646 104.929L100.406 103.809C99.8456 104.969 98.8456 105.689 97.5256 105.689C95.7656 105.689 94.5656 104.489 94.1656 102.689H107.206ZM133.782 101.649C133.542 104.209 132.182 105.689 130.182 105.689C127.902 105.689 126.462 103.769 126.462 100.689C126.462 97.6091 127.902 95.6891 130.182 95.6891C132.182 95.6891 133.542 97.2091 133.782 99.7291L139.902 99.1691C139.342 93.5291 135.382 90.2091 130.182 90.2091C124.502 90.2091 120.342 94.1691 120.342 100.689C120.342 107.249 124.502 111.169 130.182 111.169C135.382 111.169 139.342 107.889 139.902 102.249L133.782 101.649ZM160.908 110.569V98.9691C160.908 93.7291 158.628 90.2091 154.028 90.2091C152.268 90.2091 151.068 90.7291 150.228 91.3291C149.188 92.1291 148.828 93.1691 148.628 93.9691L148.428 94.8891H148.348L148.468 94.4891C148.588 93.7691 148.668 93.0091 148.668 92.2891V83.8091H142.548V110.569H148.668V100.369C148.668 97.4491 149.628 95.6891 151.748 95.6891C153.948 95.6891 154.748 97.4091 154.748 100.489C154.748 101.129 154.748 110.569 154.748 110.569H160.908ZM174.91 102.889C174.91 104.409 173.59 105.929 171.47 105.929C170.27 105.929 169.63 105.369 169.55 104.609C169.51 103.769 170.07 103.089 171.35 102.849C172.35 102.689 173.39 102.449 173.91 102.289C174.71 102.129 174.95 101.929 174.95 101.929L174.91 102.889ZM182.35 105.609H181.43C181.23 105.609 181.03 105.409 181.03 105.209V98.3691C181.11 93.2891 178.27 90.2091 172.79 90.2091C169.99 90.2091 167.71 91.0091 166.15 92.4891C164.47 94.0491 163.95 96.0491 164.19 97.9691L170.23 97.2891C170.15 96.8091 170.23 96.2491 170.55 95.8491C170.95 95.3691 171.75 95.0491 172.67 95.0891C174.07 95.0891 174.87 95.8091 174.87 96.6891C174.87 97.2091 174.59 97.4891 174.19 97.6891C173.75 97.8891 172.31 98.1291 170.83 98.4891C169.51 98.8091 167.71 99.2491 166.71 99.7691C164.27 100.929 163.35 102.889 163.39 105.369C163.39 108.529 165.99 111.169 170.07 111.169C172.91 111.129 174.63 109.889 175.51 108.289C175.75 107.849 175.99 107.049 176.15 106.409C176.19 106.129 176.23 105.809 176.23 105.809L176.31 105.849L176.27 106.129C176.19 106.489 176.15 106.849 176.11 107.209C176.11 107.489 176.07 107.969 176.07 108.369C176.07 109.609 176.91 110.529 178.39 110.569H182.35V105.609ZM192.39 105.089C192.15 105.089 191.95 104.889 191.95 104.649V95.7691H195.03V90.8091H191.95V83.7691H186.55C186.55 83.7691 186.55 88.2891 186.55 88.8891C186.55 90.0891 185.59 91.0491 184.39 91.0491H182.99V95.7691H185.79C185.79 97.0091 185.79 107.169 185.79 107.289C185.79 109.089 187.23 110.529 189.07 110.529H196.15V105.089H192.39Z" fill="#FFF6E9"/>
<path d="M83.2971 173.192L86.2491 165.464C86.3211 165.224 86.3691 164.96 86.3691 164.696V164.384H86.4171V164.696C86.4171 164.96 86.4651 165.224 86.5371 165.464L89.4891 173.192H83.2971ZM85.0971 163.064L79.0251 179.144H81.0891L82.7691 174.944H90.0171L91.7211 179.144H93.7851L87.6891 163.064H85.0971ZM105.235 172.376C105.235 168.872 103.555 166.928 100.771 166.928C99.1628 166.928 98.1068 167.648 97.5068 168.392C97.2188 168.752 97.0508 169.184 96.9308 169.568L96.7388 170.192L96.6908 170.168L96.7868 169.856C96.8828 169.52 96.9308 169.16 96.9308 168.8V167.288H95.1068V179.144H96.9308V172.496C96.9308 170.168 98.2268 168.608 100.219 168.608C102.307 168.608 103.411 170.096 103.411 172.736C103.411 174.272 103.411 179.144 103.411 179.144H105.235V172.376ZM115.552 173.216C115.552 170.576 116.92 168.608 119.296 168.608C121.648 168.608 123.016 170.576 123.016 173.216C123.016 175.856 121.648 177.824 119.296 177.824C116.92 177.824 115.552 175.856 115.552 173.216ZM124.864 173.216C124.864 169.544 122.608 166.928 119.296 166.928C115.984 166.928 113.728 169.544 113.728 173.216C113.728 176.888 115.984 179.504 119.296 179.504C122.608 179.504 124.864 176.888 124.864 173.216ZM135.846 173.216C135.846 175.856 134.502 177.824 132.126 177.824C129.774 177.824 128.55 175.856 128.55 173.216C128.55 170.576 129.75 168.608 132.126 168.608C134.478 168.608 135.846 170.576 135.846 173.216ZM128.454 177.272C128.454 176.912 128.406 176.552 128.31 176.216L128.214 175.904L128.262 175.88L128.526 176.768C128.838 177.776 129.75 179.504 132.462 179.504C135.606 179.504 137.694 176.888 137.694 173.216C137.694 169.568 135.606 166.928 132.462 166.928C129.75 166.928 128.838 168.656 128.526 169.712L128.262 170.552L128.214 170.528L128.31 170.24C128.406 169.88 128.454 169.52 128.454 169.16V167.288H126.63V183.368H128.454V177.272ZM148.667 173.216C148.667 175.856 147.323 177.824 144.947 177.824C142.595 177.824 141.371 175.856 141.371 173.216C141.371 170.576 142.571 168.608 144.947 168.608C147.299 168.608 148.667 170.576 148.667 173.216ZM141.275 177.272C141.275 176.912 141.227 176.552 141.131 176.216L141.035 175.904L141.083 175.88L141.347 176.768C141.659 177.776 142.571 179.504 145.283 179.504C148.427 179.504 150.515 176.888 150.515 173.216C150.515 169.568 148.427 166.928 145.283 166.928C142.571 166.928 141.659 168.656 141.347 169.712L141.083 170.552L141.035 170.528L141.131 170.24C141.227 169.88 141.275 169.52 141.275 169.16V167.288H139.451V183.368H141.275V177.272ZM153.849 173.216C153.849 170.576 155.217 168.608 157.593 168.608C159.945 168.608 161.313 170.576 161.313 173.216C161.313 175.856 159.945 177.824 157.593 177.824C155.217 177.824 153.849 175.856 153.849 173.216ZM163.161 173.216C163.161 169.544 160.905 166.928 157.593 166.928C154.281 166.928 152.025 169.544 152.025 173.216C152.025 176.888 154.281 179.504 157.593 179.504C160.905 179.504 163.161 176.888 163.161 173.216ZM166.751 179.144V173.312C166.751 171.32 167.687 168.704 168.647 168.704C169.295 168.704 169.487 169.568 169.487 170.24V171.56H171.335V169.856C171.335 168.08 170.759 166.928 169.367 166.928C168.647 166.928 168.047 167.456 167.615 168.08C167.183 168.68 166.943 169.376 166.871 169.784C166.847 169.856 166.751 170.432 166.727 170.504L166.655 170.96H166.631L166.679 170.648C166.727 170.264 166.751 169.904 166.751 169.52V167.288H164.927V179.144H166.751ZM175.917 177.464C175.845 177.464 175.797 177.392 175.797 177.32V168.824H177.885V167.264H175.797V163.064H174.117C174.117 163.088 174.117 165.128 174.117 166.568C174.117 167 173.781 167.336 173.349 167.336H172.125V168.824H173.949C173.949 171.776 173.949 177.752 173.949 177.992C173.949 178.616 174.453 179.12 175.077 179.12H178.413V177.464H175.917ZM179.876 167.288V174.056C179.876 177.56 181.412 179.48 184.34 179.48C186.644 179.48 187.7 178.064 188.084 177.128L188.372 176.24L188.396 176.264L188.324 176.552C188.228 176.912 188.18 177.248 188.18 177.608V179.12H190.004V167.288H188.18V173.936C188.18 176.264 186.86 177.824 184.892 177.824C182.66 177.824 181.7 176.336 181.7 173.696C181.7 172.16 181.7 167.288 181.7 167.288H179.876ZM202.594 172.376C202.594 168.872 200.914 166.928 198.13 166.928C196.522 166.928 195.466 167.648 194.866 168.392C194.578 168.752 194.41 169.184 194.29 169.568L194.098 170.192L194.05 170.168L194.146 169.856C194.242 169.52 194.29 169.16 194.29 168.8V167.288H192.466V179.144H194.29V172.496C194.29 170.168 195.586 168.608 197.578 168.608C199.666 168.608 200.77 170.096 200.77 172.736C200.77 174.272 200.77 179.144 200.77 179.144H202.594V172.376ZM204.888 179.144H206.736C206.736 176.12 206.736 167.336 206.736 167.288H204.888V179.144ZM205.8 165.608C206.376 165.608 206.832 165.152 206.832 164.6C206.832 164.024 206.376 163.568 205.8 163.568C205.248 163.568 204.792 164.024 204.792 164.6C204.792 165.152 205.248 165.608 205.8 165.608ZM212.081 177.464C212.009 177.464 211.961 177.392 211.961 177.32V168.824H214.049V167.264H211.961V163.064H210.281C210.281 163.088 210.281 165.128 210.281 166.568C210.281 167 209.945 167.336 209.513 167.336H208.289V168.824H210.113C210.113 171.776 210.113 177.752 210.113 177.992C210.113 178.616 210.617 179.12 211.241 179.12H214.577V177.464H212.081ZM223.9 167.264L220.42 175.88C220.348 176.096 220.3 176.312 220.3 176.528V176.936H220.252V176.528C220.252 176.312 220.204 176.096 220.132 175.88L216.652 167.264H214.684L219.004 177.872C219.196 178.328 219.196 178.808 219.004 179.264L217.348 183.344H219.316L225.868 167.264H223.9ZM236.926 168.944H239.302V167.264H236.782C236.782 167.264 236.614 166.136 236.614 165.584C236.614 165.008 236.95 164.624 237.406 164.624H238.414V163.064H236.734C235.462 163.064 234.91 163.952 234.91 164.936C234.91 165.656 235.054 166.424 235.198 166.832C235.246 167.024 235.39 167.168 235.558 167.264C235.63 167.312 235.846 167.432 235.918 167.432V167.48C235.87 167.48 235.726 167.432 235.678 167.408C235.366 167.336 235.03 167.264 234.718 167.264H233.014V168.944H235.078V179.12H236.926V168.944ZM241.834 173.216C241.834 170.576 243.202 168.608 245.578 168.608C247.93 168.608 249.298 170.576 249.298 173.216C249.298 175.856 247.93 177.824 245.578 177.824C243.202 177.824 241.834 175.856 241.834 173.216ZM251.146 173.216C251.146 169.544 248.89 166.928 245.578 166.928C242.266 166.928 240.01 169.544 240.01 173.216C240.01 176.888 242.266 179.504 245.578 179.504C248.89 179.504 251.146 176.888 251.146 173.216ZM254.736 179.144V173.312C254.736 171.32 255.672 168.704 256.632 168.704C257.28 168.704 257.472 169.568 257.472 170.24V171.56H259.32V169.856C259.32 168.08 258.743 166.928 257.352 166.928C256.632 166.928 256.032 167.456 255.6 168.08C255.168 168.68 254.928 169.376 254.855 169.784C254.832 169.856 254.736 170.432 254.712 170.504L254.64 170.96H254.616L254.664 170.648C254.712 170.264 254.736 169.904 254.736 169.52V167.288H252.912V179.144H254.736ZM267.533 167.288V174.056C267.533 177.56 269.069 179.48 271.997 179.48C274.301 179.48 275.357 178.064 275.741 177.128L276.029 176.24L276.053 176.264L275.981 176.552C275.885 176.912 275.837 177.248 275.837 177.608V179.12H277.661V167.288H275.837V173.936C275.837 176.264 274.517 177.824 272.549 177.824C270.317 177.824 269.357 176.336 269.357 173.696C269.357 172.16 269.357 167.288 269.357 167.288H267.533ZM288.93 176.048C288.93 173.552 286.626 172.856 284.706 172.376C283.674 172.112 281.73 171.68 281.73 170.216C281.73 169.328 282.45 168.464 284.226 168.464C286.194 168.464 286.794 169.544 286.794 170.744H288.498C288.498 168.8 287.394 166.928 284.178 166.928C281.13 166.928 279.882 168.416 279.882 170.048C279.882 172.184 281.514 173.048 283.77 173.6C286.002 174.128 287.082 174.776 287.082 175.952C287.082 177.248 285.954 177.944 284.394 177.944C281.802 177.944 281.442 176.096 281.442 175.352H279.618C279.618 177.344 280.89 179.48 284.466 179.48C287.586 179.48 288.93 177.92 288.93 176.048ZM300.487 177.464C300.415 177.464 300.367 177.392 300.367 177.32V168.824H302.455V167.264H300.367V163.064H298.687C298.687 163.088 298.687 165.128 298.687 166.568C298.687 167 298.351 167.336 297.919 167.336H296.695V168.824H298.519C298.519 171.776 298.519 177.752 298.519 177.992C298.519 178.616 299.023 179.12 299.647 179.12H302.983V177.464H300.487ZM305.42 173.216C305.42 170.576 306.788 168.608 309.164 168.608C311.516 168.608 312.884 170.576 312.884 173.216C312.884 175.856 311.516 177.824 309.164 177.824C306.788 177.824 305.42 175.856 305.42 173.216ZM314.732 173.216C314.732 169.544 312.476 166.928 309.164 166.928C305.852 166.928 303.596 169.544 303.596 173.216C303.596 176.888 305.852 179.504 309.164 179.504C312.476 179.504 314.732 176.888 314.732 173.216ZM328.5 177.824C326.124 177.824 324.756 175.856 324.756 173.216C324.756 170.576 326.124 168.608 328.5 168.608C330.852 168.608 332.076 170.576 332.076 173.216C332.076 175.856 330.876 177.824 328.5 177.824ZM333.996 177.344V167.288H332.148V169.16C332.148 169.52 332.196 169.88 332.292 170.24L332.388 170.528L332.364 170.552L332.076 169.664C331.764 168.656 330.876 166.928 328.164 166.928C325.02 166.928 322.932 169.568 322.932 173.216C322.932 176.864 324.996 179.504 328.164 179.504C330.876 179.504 331.788 177.776 332.1 176.744L332.364 175.88L332.388 175.904L332.292 176.216C332.22 176.48 332.172 176.768 332.172 177.056C332.172 177.128 332.148 177.776 332.148 177.848C332.148 178.952 332.748 179.648 332.748 180.464C332.748 181.616 331.812 181.832 330.756 181.808H324.852V183.368H331.404C333.636 183.368 334.644 182.504 334.644 180.752C334.644 179.288 333.996 178.952 333.996 177.344ZM341.343 168.608C343.479 168.608 344.751 170.216 344.967 172.4H337.695C337.911 170.216 339.207 168.608 341.343 168.608ZM346.863 173.768C346.887 173.6 346.911 173.408 346.911 173.216C346.911 169.544 344.655 166.928 341.343 166.928C338.031 166.928 335.775 169.544 335.775 173.216C335.775 176.888 338.031 179.504 341.343 179.504C344.007 179.504 345.951 177.8 346.647 175.256L344.775 174.92C344.367 176.624 343.167 177.824 341.343 177.824C339.111 177.824 337.815 176.072 337.695 173.768H346.863ZM351.206 177.464C351.134 177.464 351.086 177.392 351.086 177.32V168.824H353.174V167.264H351.086V163.064H349.406C349.406 163.088 349.406 165.128 349.406 166.568C349.406 167 349.07 167.336 348.638 167.336H347.414V168.824H349.238C349.238 171.776 349.238 177.752 349.238 177.992C349.238 178.616 349.742 179.12 350.366 179.12H353.702V177.464H351.206ZM364.893 177.464C364.821 177.464 364.773 177.392 364.773 177.32V168.824H366.861V167.264H364.773V163.064H363.093C363.093 163.088 363.093 165.128 363.093 166.568C363.093 167 362.757 167.336 362.325 167.336H361.101V168.824H362.925C362.925 171.776 362.925 177.752 362.925 177.992C362.925 178.616 363.429 179.12 364.053 179.12H367.389V177.464H364.893ZM369.826 173.216C369.826 170.576 371.194 168.608 373.57 168.608C375.922 168.608 377.29 170.576 377.29 173.216C377.29 175.856 375.922 177.824 373.57 177.824C371.194 177.824 369.826 175.856 369.826 173.216ZM379.138 173.216C379.138 169.544 376.882 166.928 373.57 166.928C370.258 166.928 368.002 169.544 368.002 173.216C368.002 176.888 370.258 179.504 373.57 179.504C376.882 179.504 379.138 176.888 379.138 173.216ZM87.1371 195.176L89.6571 191.288H87.4491C87.4491 191.288 82.5291 198.92 82.3851 199.136C82.1931 199.448 82.0731 199.808 82.0731 200.192L82.0491 200.552H82.0011V187.088H80.1771V203.144H81.9771L85.4811 197.72L88.3851 203.144H90.4251L87.0651 196.736C86.8011 196.232 86.8251 195.632 87.1371 195.176ZM101.579 196.376C101.579 192.872 99.8986 190.928 97.1146 190.928C95.5066 190.928 94.4506 191.648 93.8506 192.392C93.5626 192.752 93.3946 193.184 93.2746 193.568L93.0826 194.192L93.0346 194.168L93.1306 193.856C93.2266 193.52 93.2746 193.16 93.2746 192.8V191.288H91.4506V203.144H93.2746V196.496C93.2746 194.168 94.5706 192.608 96.5626 192.608C98.6506 192.608 99.7546 194.096 99.7546 196.736C99.7546 198.272 99.7546 203.144 99.7546 203.144H101.579V196.376ZM104.959 197.216C104.959 194.576 106.327 192.608 108.703 192.608C111.055 192.608 112.423 194.576 112.423 197.216C112.423 199.856 111.055 201.824 108.703 201.824C106.327 201.824 104.959 199.856 104.959 197.216ZM114.271 197.216C114.271 193.544 112.015 190.928 108.703 190.928C105.391 190.928 103.135 193.544 103.135 197.216C103.135 200.888 105.391 203.504 108.703 203.504C112.015 203.504 114.271 200.888 114.271 197.216ZM129.876 191.288L127.092 199.664C126.996 199.928 126.948 200.192 126.948 200.48V200.888H126.9V200.48C126.9 200.192 126.876 199.928 126.78 199.664L123.996 191.288H122.172L119.388 199.664C119.316 199.928 119.268 200.192 119.268 200.48V200.888H119.22V200.48C119.22 200.192 119.172 199.928 119.1 199.664L116.316 191.288H114.42L118.236 203.144H120.06L122.94 194.6C123.012 194.336 123.06 194.048 123.06 193.76V193.424H123.108V193.76C123.108 194.048 123.156 194.336 123.252 194.6L126.108 203.144H127.932L131.772 191.288H129.876ZM148.103 191.264L144.623 199.88C144.551 200.096 144.503 200.312 144.503 200.528V200.936H144.455V200.528C144.455 200.312 144.407 200.096 144.335 199.88L140.855 191.264H138.887L143.207 201.872C143.399 202.328 143.399 202.808 143.207 203.264L141.551 207.344H143.519L150.071 191.264H148.103ZM151.623 197.216C151.623 194.576 152.991 192.608 155.367 192.608C157.719 192.608 159.087 194.576 159.087 197.216C159.087 199.856 157.719 201.824 155.367 201.824C152.991 201.824 151.623 199.856 151.623 197.216ZM160.935 197.216C160.935 193.544 158.679 190.928 155.367 190.928C152.055 190.928 149.799 193.544 149.799 197.216C149.799 200.888 152.055 203.504 155.367 203.504C158.679 203.504 160.935 200.888 160.935 197.216ZM162.767 191.288V198.056C162.767 201.56 164.303 203.48 167.231 203.48C169.535 203.48 170.591 202.064 170.975 201.128L171.263 200.24L171.287 200.264L171.215 200.552C171.119 200.912 171.071 201.248 171.071 201.608V203.12H172.895V191.288H171.071V197.936C171.071 200.264 169.751 201.824 167.783 201.824C165.551 201.824 164.591 200.336 164.591 197.696C164.591 196.16 164.591 191.288 164.591 191.288H162.767ZM177.043 202.04C176.899 201.536 176.395 201.2 175.867 201.32C175.435 201.392 175.099 201.776 175.075 202.208C175.075 202.376 175.099 202.544 175.171 202.688C175.243 202.784 175.195 202.904 175.147 202.976L174.259 203.912L175.147 204.752L176.827 202.952C177.067 202.712 177.115 202.376 177.043 202.04ZM192.827 198.248C192.827 200.24 191.531 201.872 189.155 201.872C187.811 201.872 186.947 201.128 186.827 200.096C186.707 199.016 187.331 197.96 188.867 197.672C189.707 197.528 191.147 197.24 191.699 197.12C192.611 196.952 192.827 196.664 192.827 196.664V198.248ZM195.635 201.584H194.795C194.723 201.584 194.675 201.536 194.675 201.464V195.416C194.699 192.608 193.115 190.928 190.091 190.928C188.507 190.928 187.163 191.456 186.323 192.416C185.531 193.304 185.291 194.432 185.531 195.536L187.331 195.272C187.211 194.696 187.235 193.976 187.691 193.4C188.075 192.944 188.795 192.464 190.067 192.464C191.819 192.464 192.755 193.424 192.755 194.6C192.755 195.08 192.539 195.392 192.131 195.56C191.771 195.704 191.123 195.8 190.283 195.968C189.635 196.112 188.507 196.352 187.739 196.568C185.555 197.168 184.931 198.632 184.979 200.144C185.003 201.872 186.371 203.504 188.843 203.504C190.451 203.504 191.651 202.88 192.419 201.944C192.779 201.488 193.019 200.888 193.139 200.288C193.163 200.24 193.235 199.88 193.235 199.88H193.259L193.235 200.048C193.163 200.408 193.139 200.768 193.115 201.128C193.115 201.272 193.115 201.824 193.115 202.256C193.115 202.76 193.475 203.144 194.027 203.144H195.635V201.584ZM207.586 196.376C207.586 192.872 205.906 190.928 203.122 190.928C201.514 190.928 200.458 191.648 199.858 192.392C199.57 192.752 199.402 193.184 199.282 193.568L199.09 194.192L199.042 194.168L199.138 193.856C199.234 193.52 199.282 193.16 199.282 192.8V191.288H197.458V203.144H199.282V196.496C199.282 194.168 200.578 192.608 202.57 192.608C204.658 192.608 205.762 194.096 205.762 196.736C205.762 198.272 205.762 203.144 205.762 203.144H207.586V196.376ZM211.224 197.216C211.224 194.552 212.592 192.584 214.968 192.584C217.32 192.584 218.544 194.552 218.544 197.216C218.544 199.856 217.344 201.824 214.968 201.824C212.592 201.824 211.224 199.856 211.224 197.216ZM218.616 187.064V193.16C218.616 193.52 218.664 193.88 218.76 194.216L218.856 194.528H218.832L218.544 193.664C218.232 192.632 217.344 190.928 214.632 190.928C211.488 190.928 209.4 193.544 209.4 197.216C209.4 200.864 211.464 203.48 214.632 203.48C217.344 203.48 218.256 201.752 218.568 200.72L218.832 199.88H218.856L218.76 200.192C218.664 200.528 218.616 200.888 218.616 201.248V203.144H220.464V187.064H218.616ZM237.775 191.264L234.295 199.88C234.223 200.096 234.175 200.312 234.175 200.528V200.936H234.127V200.528C234.127 200.312 234.079 200.096 234.007 199.88L230.527 191.264H228.559L232.879 201.872C233.071 202.328 233.071 202.808 232.879 203.264L231.223 207.344H233.191L239.743 191.264H237.775ZM241.295 197.216C241.295 194.576 242.663 192.608 245.039 192.608C247.391 192.608 248.759 194.576 248.759 197.216C248.759 199.856 247.391 201.824 245.039 201.824C242.663 201.824 241.295 199.856 241.295 197.216ZM250.607 197.216C250.607 193.544 248.351 190.928 245.039 190.928C241.727 190.928 239.471 193.544 239.471 197.216C239.471 200.888 241.727 203.504 245.039 203.504C248.351 203.504 250.607 200.888 250.607 197.216ZM252.439 191.288V198.056C252.439 201.56 253.975 203.48 256.903 203.48C259.207 203.48 260.263 202.064 260.647 201.128L260.935 200.24L260.959 200.264L260.887 200.552C260.791 200.912 260.743 201.248 260.743 201.608V203.12H262.567V191.288H260.743V197.936C260.743 200.264 259.423 201.824 257.455 201.824C255.223 201.824 254.263 200.336 254.263 197.696C254.263 196.16 254.263 191.288 254.263 191.288H252.439ZM274.588 201.464C274.516 201.464 274.468 201.392 274.468 201.32V192.824H276.556V191.264H274.468V187.064H272.788C272.788 187.088 272.788 189.128 272.788 190.568C272.788 191 272.452 191.336 272.02 191.336H270.796V192.824H272.62C272.62 195.776 272.62 201.752 272.62 201.992C272.62 202.616 273.124 203.12 273.748 203.12H277.084V201.464H274.588ZM279.521 197.216C279.521 194.576 280.889 192.608 283.265 192.608C285.617 192.608 286.985 194.576 286.985 197.216C286.985 199.856 285.617 201.824 283.265 201.824C280.889 201.824 279.521 199.856 279.521 197.216ZM288.833 197.216C288.833 193.544 286.577 190.928 283.265 190.928C279.953 190.928 277.697 193.544 277.697 197.216C277.697 200.888 279.953 203.504 283.265 203.504C286.577 203.504 288.833 200.888 288.833 197.216ZM304.473 195.176L306.993 191.288H304.785C304.785 191.288 299.865 198.92 299.721 199.136C299.529 199.448 299.409 199.808 299.409 200.192L299.385 200.552H299.337V187.088H297.513V203.144H299.313L302.817 197.72L305.721 203.144H307.761L304.401 196.736C304.137 196.232 304.161 195.632 304.473 195.176ZM318.915 196.376C318.915 192.872 317.235 190.928 314.451 190.928C312.843 190.928 311.787 191.648 311.187 192.392C310.899 192.752 310.73 193.184 310.611 193.568L310.419 194.192L310.371 194.168L310.467 193.856C310.562 193.52 310.611 193.16 310.611 192.8V191.288H308.787V203.144H310.611V196.496C310.611 194.168 311.907 192.608 313.898 192.608C315.987 192.608 317.091 194.096 317.091 196.736C317.091 198.272 317.091 203.144 317.091 203.144H318.915V196.376ZM322.295 197.216C322.295 194.576 323.663 192.608 326.039 192.608C328.391 192.608 329.759 194.576 329.759 197.216C329.759 199.856 328.391 201.824 326.039 201.824C323.663 201.824 322.295 199.856 322.295 197.216ZM331.607 197.216C331.607 193.544 329.351 190.928 326.039 190.928C322.727 190.928 320.471 193.544 320.471 197.216C320.471 200.888 322.727 203.504 326.039 203.504C329.351 203.504 331.607 200.888 331.607 197.216ZM347.212 191.288L344.428 199.664C344.332 199.928 344.284 200.192 344.284 200.48V200.888H344.236V200.48C344.236 200.192 344.212 199.928 344.116 199.664L341.332 191.288H339.508L336.724 199.664C336.652 199.928 336.604 200.192 336.604 200.48V200.888H336.556V200.48C336.556 200.192 336.508 199.928 336.436 199.664L333.652 191.288H331.756L335.572 203.144H337.396L340.276 194.6C340.348 194.336 340.396 194.048 340.396 193.76V193.424H340.444V193.76C340.444 194.048 340.492 194.336 340.588 194.6L343.444 203.144H345.268L349.108 191.288H347.212ZM357.111 191.288V198.056C357.111 201.56 358.647 203.48 361.575 203.48C363.879 203.48 364.935 202.064 365.319 201.128L365.607 200.24L365.631 200.264L365.559 200.552C365.463 200.912 365.415 201.248 365.415 201.608V203.12H367.239V191.288H365.415V197.936C365.415 200.264 364.095 201.824 362.127 201.824C359.895 201.824 358.935 200.336 358.935 197.696C358.935 196.16 358.935 191.288 358.935 191.288H357.111ZM378.509 200.048C378.509 197.552 376.205 196.856 374.285 196.376C373.253 196.112 371.309 195.68 371.309 194.216C371.309 193.328 372.029 192.464 373.805 192.464C375.773 192.464 376.373 193.544 376.373 194.744H378.077C378.077 192.8 376.973 190.928 373.757 190.928C370.709 190.928 369.461 192.416 369.461 194.048C369.461 196.184 371.093 197.048 373.349 197.6C375.581 198.128 376.661 198.776 376.661 199.952C376.661 201.248 375.533 201.944 373.973 201.944C371.381 201.944 371.021 200.096 371.021 199.352H369.197C369.197 201.344 370.469 203.48 374.045 203.48C377.165 203.48 378.509 201.92 378.509 200.048ZM380.673 203.288C381.249 203.288 381.705 202.808 381.705 202.256C381.705 201.68 381.249 201.224 380.673 201.224C380.121 201.224 379.665 201.68 379.665 202.256C379.665 202.808 380.121 203.288 380.673 203.288ZM91.9131 222.848C91.9131 219.896 89.3931 218.816 86.1771 217.976C83.3211 217.256 82.0011 216.536 82.0011 214.904C82.0011 213.488 83.1531 212.408 85.6251 212.408C88.0971 212.408 89.3451 213.752 89.3451 215.816H91.3131C91.3131 213.104 89.8011 210.704 85.6251 210.704C81.6891 210.704 80.0331 212.6 80.0331 214.88C80.0331 217.424 81.7371 218.72 85.2891 219.584C88.5051 220.376 89.9211 221.048 89.9211 222.968C89.9211 224.624 88.4811 225.8 85.9851 225.8C83.1051 225.8 81.6171 224.192 81.6171 222.008H79.6491C79.6491 224.984 81.5691 227.48 86.0331 227.48C90.2811 227.48 91.9131 225.224 91.9131 222.848ZM96.7681 225.464C96.6961 225.464 96.6481 225.392 96.6481 225.32V216.824H98.7361V215.264H96.6481V211.064H94.9681C94.9681 211.088 94.9681 213.128 94.9681 214.568C94.9681 215 94.6321 215.336 94.2001 215.336H92.9761V216.824H94.8001C94.8001 219.776 94.8001 225.752 94.8001 225.992C94.8001 226.616 95.3041 227.12 95.9281 227.12H99.2641V225.464H96.7681ZM102.486 227.144V221.312C102.486 219.32 103.422 216.704 104.382 216.704C105.03 216.704 105.222 217.568 105.222 218.24V219.56H107.07V217.856C107.07 216.08 106.493 214.928 105.102 214.928C104.382 214.928 103.782 215.456 103.35 216.08C102.918 216.68 102.678 217.376 102.605 217.784C102.582 217.856 102.486 218.432 102.462 218.504L102.39 218.96H102.366L102.414 218.648C102.462 218.264 102.486 217.904 102.486 217.52V215.288H100.662V227.144H102.486ZM108.302 227.144H110.15C110.15 224.12 110.15 215.336 110.15 215.288H108.302V227.144ZM109.214 213.608C109.79 213.608 110.246 213.152 110.246 212.6C110.246 212.024 109.79 211.568 109.214 211.568C108.662 211.568 108.206 212.024 108.206 212.6C108.206 213.152 108.662 213.608 109.214 213.608ZM121.069 222.392C120.709 224.432 119.437 225.824 117.445 225.824C115.069 225.824 113.701 223.856 113.701 221.216C113.701 218.576 115.069 216.608 117.445 216.608C119.437 216.608 120.709 218 121.069 220.04L122.893 219.848C122.413 216.872 120.325 214.928 117.445 214.928C114.133 214.928 111.877 217.544 111.877 221.216C111.877 224.888 114.133 227.504 117.445 227.504C120.325 227.504 122.413 225.56 122.893 222.608L121.069 222.392ZM127.682 225.464C127.61 225.464 127.562 225.392 127.562 225.32V216.824H129.65V215.264H127.562V211.064H125.882C125.882 211.088 125.882 213.128 125.882 214.568C125.882 215 125.546 215.336 125.114 215.336H123.89V216.824H125.714C125.714 219.776 125.714 225.752 125.714 225.992C125.714 226.616 126.218 227.12 126.842 227.12H130.178V225.464H127.682ZM131.786 226.016C131.786 226.64 132.29 227.144 132.914 227.144H135.914V225.464H133.754C133.682 225.464 133.61 225.416 133.61 225.32V211.088H131.786C131.762 211.16 131.762 225.632 131.786 226.016ZM144.704 215.264L141.224 223.88C141.152 224.096 141.104 224.312 141.104 224.528V224.936H141.056V224.528C141.056 224.312 141.008 224.096 140.936 223.88L137.456 215.264H135.488L139.808 225.872C140 226.328 140 226.808 139.808 227.264L138.152 231.344H140.12L146.672 215.264H144.704ZM163.995 221.216C163.995 223.856 162.651 225.824 160.275 225.824C157.923 225.824 156.699 223.856 156.699 221.216C156.699 218.576 157.899 216.608 160.275 216.608C162.627 216.608 163.995 218.576 163.995 221.216ZM156.603 225.272C156.603 224.912 156.555 224.552 156.459 224.216L156.363 223.904L156.411 223.88L156.675 224.768C156.987 225.776 157.899 227.504 160.611 227.504C163.755 227.504 165.843 224.888 165.843 221.216C165.843 217.568 163.755 214.928 160.611 214.928C157.899 214.928 156.987 216.656 156.675 217.712L156.411 218.552L156.363 218.528L156.459 218.24C156.555 217.88 156.603 217.52 156.603 217.16V215.288H154.779V231.368H156.603V225.272ZM169.423 227.144V221.312C169.423 219.32 170.359 216.704 171.319 216.704C171.967 216.704 172.159 217.568 172.159 218.24V219.56H174.007V217.856C174.007 216.08 173.431 214.928 172.039 214.928C171.319 214.928 170.719 215.456 170.287 216.08C169.855 216.68 169.615 217.376 169.543 217.784C169.519 217.856 169.423 218.432 169.399 218.504L169.327 218.96H169.303L169.351 218.648C169.399 218.264 169.423 217.904 169.423 217.52V215.288H167.599V227.144H169.423ZM177.052 221.216C177.052 218.576 178.42 216.608 180.796 216.608C183.148 216.608 184.516 218.576 184.516 221.216C184.516 223.856 183.148 225.824 180.796 225.824C178.42 225.824 177.052 223.856 177.052 221.216ZM186.364 221.216C186.364 217.544 184.108 214.928 180.796 214.928C177.484 214.928 175.228 217.544 175.228 221.216C175.228 224.888 177.484 227.504 180.796 227.504C184.108 227.504 186.364 224.888 186.364 221.216ZM191.317 216.944H193.693V215.264H191.173C191.173 215.264 191.005 214.136 191.005 213.584C191.005 213.008 191.341 212.624 191.797 212.624H192.805V211.064H191.125C189.853 211.064 189.301 211.952 189.301 212.936C189.301 213.656 189.445 214.424 189.589 214.832C189.637 215.024 189.781 215.168 189.949 215.264C190.021 215.312 190.237 215.432 190.309 215.432V215.48C190.261 215.48 190.117 215.432 190.069 215.408C189.757 215.336 189.421 215.264 189.109 215.264H187.405V216.944H189.469V227.12H191.317V216.944ZM199.968 216.608C202.104 216.608 203.376 218.216 203.592 220.4H196.32C196.536 218.216 197.832 216.608 199.968 216.608ZM205.488 221.768C205.512 221.6 205.536 221.408 205.536 221.216C205.536 217.544 203.28 214.928 199.968 214.928C196.656 214.928 194.4 217.544 194.4 221.216C194.4 224.888 196.656 227.504 199.968 227.504C202.632 227.504 204.576 225.8 205.272 223.256L203.4 222.92C202.992 224.624 201.792 225.824 199.968 225.824C197.736 225.824 196.44 224.072 196.32 221.768H205.488ZM216.298 224.048C216.298 221.552 213.994 220.856 212.074 220.376C211.042 220.112 209.098 219.68 209.098 218.216C209.098 217.328 209.818 216.464 211.594 216.464C213.562 216.464 214.162 217.544 214.162 218.744H215.866C215.866 216.8 214.762 214.928 211.546 214.928C208.498 214.928 207.25 216.416 207.25 218.048C207.25 220.184 208.882 221.048 211.138 221.6C213.37 222.128 214.45 222.776 214.45 223.952C214.45 225.248 213.322 225.944 211.762 225.944C209.17 225.944 208.81 224.096 208.81 223.352H206.986C206.986 225.344 208.258 227.48 211.834 227.48C214.954 227.48 216.298 225.92 216.298 224.048ZM227.102 224.048C227.102 221.552 224.798 220.856 222.878 220.376C221.846 220.112 219.902 219.68 219.902 218.216C219.902 217.328 220.622 216.464 222.398 216.464C224.366 216.464 224.966 217.544 224.966 218.744H226.67C226.67 216.8 225.566 214.928 222.35 214.928C219.302 214.928 218.054 216.416 218.054 218.048C218.054 220.184 219.686 221.048 221.942 221.6C224.174 222.128 225.254 222.776 225.254 223.952C225.254 225.248 224.126 225.944 222.566 225.944C219.974 225.944 219.614 224.096 219.614 223.352H217.79C217.79 225.344 219.062 227.48 222.638 227.48C225.758 227.48 227.102 225.92 227.102 224.048ZM229.099 227.144H230.947C230.947 224.12 230.947 215.336 230.947 215.288H229.099V227.144ZM230.011 213.608C230.587 213.608 231.043 213.152 231.043 212.6C231.043 212.024 230.587 211.568 230.011 211.568C229.459 211.568 229.003 212.024 229.003 212.6C229.003 213.152 229.459 213.608 230.011 213.608ZM234.498 221.216C234.498 218.576 235.866 216.608 238.242 216.608C240.594 216.608 241.962 218.576 241.962 221.216C241.962 223.856 240.594 225.824 238.242 225.824C235.866 225.824 234.498 223.856 234.498 221.216ZM243.81 221.216C243.81 217.544 241.554 214.928 238.242 214.928C234.93 214.928 232.674 217.544 232.674 221.216C232.674 224.888 234.93 227.504 238.242 227.504C241.554 227.504 243.81 224.888 243.81 221.216ZM255.704 220.376C255.704 216.872 254.024 214.928 251.24 214.928C249.632 214.928 248.576 215.648 247.976 216.392C247.688 216.752 247.52 217.184 247.4 217.568L247.208 218.192L247.16 218.168L247.256 217.856C247.352 217.52 247.4 217.16 247.4 216.8V215.288H245.576V227.144H247.4V220.496C247.4 218.168 248.696 216.608 250.688 216.608C252.776 216.608 253.88 218.096 253.88 220.736C253.88 222.272 253.88 227.144 253.88 227.144H255.704V220.376ZM265.389 222.248C265.389 224.24 264.093 225.872 261.717 225.872C260.373 225.872 259.509 225.128 259.389 224.096C259.269 223.016 259.893 221.96 261.429 221.672C262.269 221.528 263.709 221.24 264.261 221.12C265.173 220.952 265.389 220.664 265.389 220.664V222.248ZM268.197 225.584H267.357C267.285 225.584 267.237 225.536 267.237 225.464V219.416C267.261 216.608 265.677 214.928 262.653 214.928C261.069 214.928 259.725 215.456 258.885 216.416C258.093 217.304 257.853 218.432 258.093 219.536L259.893 219.272C259.773 218.696 259.797 217.976 260.253 217.4C260.637 216.944 261.357 216.464 262.629 216.464C264.381 216.464 265.317 217.424 265.317 218.6C265.317 219.08 265.101 219.392 264.693 219.56C264.333 219.704 263.685 219.8 262.845 219.968C262.197 220.112 261.069 220.352 260.301 220.568C258.117 221.168 257.493 222.632 257.541 224.144C257.565 225.872 258.933 227.504 261.405 227.504C263.013 227.504 264.213 226.88 264.981 225.944C265.341 225.488 265.581 224.888 265.701 224.288C265.725 224.24 265.797 223.88 265.797 223.88H265.821L265.797 224.048C265.725 224.408 265.701 224.768 265.677 225.128C265.677 225.272 265.677 225.824 265.677 226.256C265.677 226.76 266.037 227.144 266.589 227.144H268.197V225.584ZM269.997 226.016C269.997 226.64 270.501 227.144 271.125 227.144H274.125V225.464H271.965C271.893 225.464 271.821 225.416 271.821 225.32V211.088H269.997C269.973 211.16 269.973 225.632 269.997 226.016ZM277.566 226.04C277.422 225.536 276.918 225.2 276.39 225.32C275.958 225.392 275.622 225.776 275.598 226.208C275.598 226.376 275.622 226.544 275.694 226.688C275.766 226.784 275.718 226.904 275.67 226.976L274.782 227.912L275.67 228.752L277.35 226.952C277.59 226.712 277.638 226.376 277.566 226.04ZM287.302 221.216C287.302 218.576 288.67 216.608 291.046 216.608C293.398 216.608 294.766 218.576 294.766 221.216C294.766 223.856 293.398 225.824 291.046 225.824C288.67 225.824 287.302 223.856 287.302 221.216ZM296.614 221.216C296.614 217.544 294.358 214.928 291.046 214.928C287.734 214.928 285.478 217.544 285.478 221.216C285.478 224.888 287.734 227.504 291.046 227.504C294.358 227.504 296.614 224.888 296.614 221.216ZM301.567 216.944H303.943V215.264H301.423C301.423 215.264 301.255 214.136 301.255 213.584C301.255 213.008 301.591 212.624 302.047 212.624H303.055V211.064H301.375C300.103 211.064 299.551 211.952 299.551 212.936C299.551 213.656 299.695 214.424 299.839 214.832C299.887 215.024 300.031 215.168 300.199 215.264C300.271 215.312 300.487 215.432 300.559 215.432V215.48C300.511 215.48 300.367 215.432 300.319 215.408C300.007 215.336 299.671 215.264 299.359 215.264H297.655V216.944H299.719V227.12H301.567V216.944ZM320.78 222.392C320.42 224.432 319.148 225.824 317.156 225.824C314.78 225.824 313.412 223.856 313.412 221.216C313.412 218.576 314.78 216.608 317.156 216.608C319.148 216.608 320.42 218 320.78 220.04L322.604 219.848C322.124 216.872 320.036 214.928 317.156 214.928C313.844 214.928 311.588 217.544 311.588 221.216C311.588 224.888 313.844 227.504 317.156 227.504C320.036 227.504 322.124 225.56 322.604 222.608L320.78 222.392ZM325.857 221.216C325.857 218.576 327.225 216.608 329.601 216.608C331.953 216.608 333.321 218.576 333.321 221.216C333.321 223.856 331.953 225.824 329.601 225.824C327.225 225.824 325.857 223.856 325.857 221.216ZM335.169 221.216C335.169 217.544 332.913 214.928 329.601 214.928C326.289 214.928 324.033 217.544 324.033 221.216C324.033 224.888 326.289 227.504 329.601 227.504C332.913 227.504 335.169 224.888 335.169 221.216ZM337.001 215.288V222.056C337.001 225.56 338.537 227.48 341.465 227.48C343.769 227.48 344.825 226.064 345.209 225.128L345.497 224.24L345.521 224.264L345.449 224.552C345.353 224.912 345.305 225.248 345.305 225.608V227.12H347.129V215.288H345.305V221.936C345.305 224.264 343.985 225.824 342.017 225.824C339.785 225.824 338.825 224.336 338.825 221.696C338.825 220.16 338.825 215.288 338.825 215.288H337.001ZM351.415 227.144V221.312C351.415 219.32 352.351 216.704 353.311 216.704C353.959 216.704 354.151 217.568 354.151 218.24V219.56H355.999V217.856C355.999 216.08 355.423 214.928 354.031 214.928C353.311 214.928 352.711 215.456 352.279 216.08C351.847 216.68 351.607 217.376 351.535 217.784C351.511 217.856 351.415 218.432 351.391 218.504L351.319 218.96H351.295L351.343 218.648C351.391 218.264 351.415 217.904 351.415 217.52V215.288H349.591V227.144H351.415ZM366.509 224.048C366.509 221.552 364.205 220.856 362.285 220.376C361.253 220.112 359.309 219.68 359.309 218.216C359.309 217.328 360.029 216.464 361.805 216.464C363.773 216.464 364.373 217.544 364.373 218.744H366.077C366.077 216.8 364.973 214.928 361.757 214.928C358.709 214.928 357.461 216.416 357.461 218.048C357.461 220.184 359.093 221.048 361.349 221.6C363.581 222.128 364.661 222.776 364.661 223.952C364.661 225.248 363.533 225.944 361.973 225.944C359.381 225.944 359.021 224.096 359.021 223.352H357.197C357.197 225.344 358.469 227.48 362.045 227.48C365.165 227.48 366.509 225.92 366.509 224.048ZM373.593 216.608C375.729 216.608 377.001 218.216 377.217 220.4H369.945C370.161 218.216 371.457 216.608 373.593 216.608ZM379.113 221.768C379.137 221.6 379.161 221.408 379.161 221.216C379.161 217.544 376.905 214.928 373.593 214.928C370.281 214.928 368.025 217.544 368.025 221.216C368.025 224.888 370.281 227.504 373.593 227.504C376.257 227.504 378.201 225.8 378.897 223.256L377.025 222.92C376.617 224.624 375.417 225.824 373.593 225.824C371.361 225.824 370.065 224.072 369.945 221.768H379.113ZM380.322 227.288C380.898 227.288 381.354 226.808 381.354 226.256C381.354 225.68 380.898 225.224 380.322 225.224C379.77 225.224 379.314 225.68 379.314 226.256C379.314 226.808 379.77 227.288 380.322 227.288Z" fill="#303030"/>
<path fill-rule="evenodd" clip-rule="evenodd" d="M403.282 41.2788C420.955 41.2788 435.282 55.6057 435.282 73.2788C435.282 78.3517 434.104 83.1381 432.012 87.39C431.436 88.5598 431.227 89.9268 431.506 91.2842L434.167 104.252L420.676 101.728C419.382 101.486 418.086 101.684 416.967 102.214C412.822 104.178 408.186 105.279 403.282 105.279C385.609 105.279 371.282 90.9519 371.282 73.2788C371.282 55.6057 385.609 41.2788 403.282 41.2788ZM443.282 73.2788C443.282 51.1874 425.373 33.2788 403.282 33.2788C381.191 33.2788 363.282 51.1874 363.282 73.2788C363.282 95.3702 381.191 113.279 403.282 113.279C409.174 113.279 414.778 112.002 419.824 109.708L435.621 112.663C439.811 113.447 443.459 109.735 442.602 105.559L439.476 90.3276C441.918 85.1513 443.282 79.369 443.282 73.2788Z" fill="#303030"/>
<path fill-rule="evenodd" clip-rule="evenodd" d="M375.282 73.2788C375.282 68.8605 378.864 65.2788 383.282 65.2788C387.7 65.2788 391.282 68.8605 391.282 73.2788C391.282 77.6971 387.7 81.2788 383.282 81.2788C378.864 81.2788 375.282 77.6971 375.282 73.2788Z" fill="#FFF6E9"/>
<path fill-rule="evenodd" clip-rule="evenodd" d="M395.282 73.2788C395.282 68.8605 398.864 65.2788 403.282 65.2788C407.7 65.2788 411.282 68.8605 411.282 73.2788C411.282 77.6971 407.7 81.2788 403.282 81.2788C398.864 81.2788 395.282 77.6971 395.282 73.2788Z" fill="#FFF6E9"/>
<path fill-rule="evenodd" clip-rule="evenodd" d="M415.282 73.2788C415.282 68.8605 418.864 65.2788 423.282 65.2788C427.7 65.2788 431.282 68.8605 431.282 73.2788C431.282 77.6971 427.7 81.2788 423.282 81.2788C418.864 81.2788 415.282 77.6971 415.282 73.2788Z" fill="#FFF6E9"/>
</svg>
