<svg width="475" height="300" viewBox="0 0 475 300" fill="none" xmlns="http://www.w3.org/2000/svg">
<rect x="0.333313" y="0.911377" width="474.259" height="299" rx="10" fill="#8CD87C"/>
<path d="M61.2845 56.741C61.2845 52.805 57.9245 51.365 53.6365 50.245C49.8285 49.285 48.0685 48.325 48.0685 46.149C48.0685 44.261 49.6045 42.821 52.9005 42.821C56.1965 42.821 57.8605 44.613 57.8605 47.365H60.4845C60.4845 43.749 58.4685 40.549 52.9005 40.549C47.6525 40.549 45.4445 43.077 45.4445 46.117C45.4445 49.509 47.7165 51.237 52.4525 52.389C56.7405 53.445 58.6285 54.341 58.6285 56.901C58.6285 59.109 56.7085 60.677 53.3805 60.677C49.5405 60.677 47.5565 58.533 47.5565 55.621H44.9325C44.9325 59.589 47.4925 62.917 53.4445 62.917C59.1085 62.917 61.2845 59.909 61.2845 56.741ZM67.7577 60.229C67.6617 60.229 67.5977 60.133 67.5977 60.037V48.709H70.3817V46.629H67.5977V41.029H65.3577C65.3577 41.061 65.3577 43.781 65.3577 45.701C65.3577 46.277 64.9097 46.725 64.3337 46.725H62.7017V48.709H65.1337C65.1337 52.645 65.1337 60.613 65.1337 60.933C65.1337 61.765 65.8057 62.437 66.6377 62.437H71.0857V60.229H67.7577ZM79.3267 48.421C82.1747 48.421 83.8707 50.565 84.1587 53.477H74.4627C74.7507 50.565 76.4787 48.421 79.3267 48.421ZM86.6867 55.301C86.7187 55.077 86.7507 54.821 86.7507 54.565C86.7507 49.669 83.7427 46.181 79.3267 46.181C74.9107 46.181 71.9027 49.669 71.9027 54.565C71.9027 59.461 74.9107 62.949 79.3267 62.949C82.8787 62.949 85.4707 60.677 86.3987 57.285L83.9027 56.837C83.3587 59.109 81.7587 60.709 79.3267 60.709C76.3507 60.709 74.6227 58.373 74.4627 55.301H86.6867ZM101.643 54.565C101.643 58.085 99.8512 60.709 96.6832 60.709C93.5472 60.709 91.9152 58.085 91.9152 54.565C91.9152 51.045 93.5152 48.421 96.6832 48.421C99.8192 48.421 101.643 51.045 101.643 54.565ZM91.7872 59.973C91.7872 59.493 91.7232 59.013 91.5952 58.565L91.4672 58.149L91.5312 58.117L91.8832 59.301C92.2992 60.645 93.5152 62.949 97.1312 62.949C101.323 62.949 104.107 59.461 104.107 54.565C104.107 49.701 101.323 46.181 97.1312 46.181C93.5152 46.181 92.2992 48.485 91.8832 49.893L91.5312 51.013L91.4672 50.981L91.5952 50.597C91.7232 50.117 91.7872 49.637 91.7872 49.157V46.661H89.3552V68.101H91.7872V59.973ZM130.804 60.101H118.068C118.068 60.101 118.068 59.685 118.068 59.397C118.1 57.893 118.772 56.549 120.82 55.461C121.652 55.045 124.596 53.541 125.556 53.061C128.212 51.717 130.58 50.277 130.58 46.661C130.58 43.525 128.148 40.549 123.348 40.549C117.812 40.549 115.508 43.749 115.572 46.981C115.604 48.613 116.244 49.701 116.532 50.309L118.708 49.125C118.452 48.549 118.228 47.877 118.196 47.109C118.132 44.837 119.796 42.789 123.316 42.789C126.068 42.789 127.956 44.453 127.956 46.757C127.956 48.933 126.388 49.989 124.212 51.141C123.508 51.525 120.244 53.157 119.188 53.701C116.404 55.141 115.092 57.253 115.092 59.973V62.437H130.804V60.101ZM133.829 62.661C134.597 62.661 135.205 62.021 135.205 61.285C135.205 60.517 134.597 59.909 133.829 59.909C133.093 59.909 132.485 60.517 132.485 61.285C132.485 62.021 133.093 62.661 133.829 62.661ZM65.0845 80.677H44.0845V86.477H51.2045V107.437H57.9245V86.477H65.0845V80.677ZM85.2954 107.477V95.877C85.2954 90.637 83.0154 87.117 78.4154 87.117C76.6554 87.117 75.4554 87.637 74.6154 88.237C73.5754 89.037 73.2154 90.077 73.0154 90.877L72.8154 91.797H72.7354L72.8554 91.397C72.9754 90.677 73.0554 89.917 73.0554 89.197V80.717H66.9354V107.477H73.0554V97.277C73.0554 94.357 74.0154 92.597 76.1354 92.597C78.3354 92.597 79.1354 94.317 79.1354 97.397C79.1354 98.037 79.1354 107.477 79.1354 107.477H85.2954ZM97.577 92.597C99.257 92.597 100.417 93.717 100.857 95.397H94.257C94.697 93.717 95.857 92.597 97.577 92.597ZM107.257 99.597C107.337 98.957 107.417 98.317 107.417 97.597C107.417 91.077 103.217 87.117 97.577 87.117C91.897 87.117 87.737 91.077 87.737 97.597C87.737 104.157 91.897 108.077 97.577 108.077C101.857 108.077 105.297 105.797 106.697 101.837L100.457 100.717C99.897 101.877 98.897 102.597 97.577 102.597C95.817 102.597 94.617 101.397 94.217 99.597H107.257ZM137.593 101.917C137.593 97.557 133.873 96.397 130.793 95.557C129.233 95.117 127.033 94.797 127.033 93.477C127.033 92.637 127.633 92.037 129.113 92.037C130.633 92.037 131.273 92.717 131.273 93.637L136.913 93.677C136.913 89.637 133.993 87.117 128.833 87.117C123.393 87.117 120.873 89.797 120.873 92.757C120.873 97.077 124.233 98.317 127.313 99.157C129.513 99.757 131.393 100.237 131.393 101.477C131.393 102.557 130.433 103.077 129.073 103.077C127.193 103.077 126.553 101.797 126.553 100.877H120.433C120.433 104.997 123.393 108.037 129.353 108.037C134.793 108.037 137.593 105.477 137.593 101.917ZM158.655 107.477V95.877C158.655 90.637 156.375 87.117 151.775 87.117C150.015 87.117 148.815 87.637 147.975 88.237C146.935 89.037 146.575 90.077 146.375 90.877L146.175 91.797H146.095L146.215 91.397C146.335 90.677 146.415 89.917 146.415 89.197V80.717H140.295V107.477H146.415V97.277C146.415 94.357 147.375 92.597 149.495 92.597C151.695 92.597 152.495 94.317 152.495 97.397C152.495 98.037 152.495 107.477 152.495 107.477H158.655ZM167.216 97.597C167.216 94.517 168.656 92.597 170.936 92.597C173.176 92.597 174.616 94.517 174.616 97.597C174.616 100.677 173.176 102.597 170.936 102.597C168.656 102.597 167.216 100.677 167.216 97.597ZM180.776 97.597C180.776 91.077 176.576 87.117 170.936 87.117C165.256 87.117 161.096 91.077 161.096 97.597C161.096 104.157 165.256 108.077 170.936 108.077C176.576 108.077 180.776 104.157 180.776 97.597ZM189.188 98.837C189.188 95.517 189.868 92.997 191.068 92.997C191.948 92.997 192.068 94.197 192.068 95.157V97.277L198.228 97.237V92.637C198.228 89.757 197.188 87.117 193.948 87.117C192.868 87.117 191.788 87.557 191.068 88.237C190.148 89.117 189.708 90.197 189.468 90.917C189.388 91.237 189.268 91.797 189.228 92.157L189.068 93.157H188.988L189.068 92.637C189.148 92.037 189.188 91.397 189.188 90.797V87.717H183.068V107.477H189.188V98.837ZM208.964 101.997C208.724 101.997 208.524 101.797 208.524 101.557V92.677H211.604V87.717H208.524V80.677H203.124C203.124 80.677 203.124 85.197 203.124 85.797C203.124 86.997 202.164 87.957 200.964 87.957H199.564V92.677H202.364C202.364 93.917 202.364 104.077 202.364 104.197C202.364 105.997 203.804 107.437 205.644 107.437H212.724V101.997H208.964ZM215.215 104.197C215.215 105.997 216.655 107.477 218.455 107.477H224.135V101.997H221.815C221.535 101.997 221.335 101.797 221.335 101.557V80.717H215.215C215.215 80.717 215.215 104.037 215.215 104.197ZM226.505 107.477H232.665C232.665 106.197 232.665 87.757 232.665 87.717H226.505V107.477ZM229.585 86.397C231.385 86.397 232.825 84.917 232.825 83.157C232.825 81.357 231.385 79.917 229.585 79.917C227.825 79.917 226.385 81.357 226.385 83.157C226.385 84.917 227.825 86.397 229.585 86.397ZM252.554 101.917C252.554 97.557 248.834 96.397 245.754 95.557C244.194 95.117 241.994 94.797 241.994 93.477C241.994 92.637 242.594 92.037 244.074 92.037C245.594 92.037 246.234 92.717 246.234 93.637L251.874 93.677C251.874 89.637 248.954 87.117 243.794 87.117C238.354 87.117 235.834 89.797 235.834 92.757C235.834 97.077 239.194 98.317 242.274 99.157C244.474 99.757 246.354 100.237 246.354 101.477C246.354 102.557 245.394 103.077 244.034 103.077C242.154 103.077 241.514 101.797 241.514 100.877H235.394C235.394 104.997 238.354 108.037 244.314 108.037C249.754 108.037 252.554 105.477 252.554 101.917ZM263.496 101.997C263.256 101.997 263.056 101.797 263.056 101.557V92.677H266.136V87.717H263.056V80.677H257.656C257.656 80.677 257.656 85.197 257.656 85.797C257.656 86.997 256.696 87.957 255.496 87.957H254.096V92.677H256.896C256.896 93.917 256.896 104.077 256.896 104.197C256.896 105.997 258.336 107.437 260.176 107.437H267.256V101.997H263.496Z" fill="#FFF6E9"/>
<path d="M97.7005 163.972L94.2445 175.852C94.1245 176.212 94.0765 176.572 94.0765 176.908V177.292H94.0525V176.932C94.0525 176.572 93.9805 176.212 93.8845 175.876L90.3085 163.972H88.6285L85.0525 175.876C84.9325 176.212 84.8845 176.572 84.8845 176.932V177.292H84.8365V176.908C84.8365 176.572 84.7885 176.212 84.6925 175.852L81.2125 163.972H79.1725L83.8765 180.052H85.7965L89.3005 168.364C89.3965 168.004 89.4445 167.668 89.4445 167.308V166.852H89.4925V167.308C89.4925 167.668 89.5405 168.004 89.6365 168.364L93.1405 180.052H95.0605L99.7645 163.972H97.7005ZM104.676 169.516C106.812 169.516 108.084 171.124 108.3 173.308H101.028C101.244 171.124 102.54 169.516 104.676 169.516ZM110.196 174.676C110.22 174.508 110.244 174.316 110.244 174.124C110.244 170.452 107.988 167.836 104.676 167.836C101.364 167.836 99.1078 170.452 99.1078 174.124C99.1078 177.796 101.364 180.412 104.676 180.412C107.34 180.412 109.284 178.708 109.98 176.164L108.108 175.828C107.7 177.532 106.5 178.732 104.676 178.732C102.444 178.732 101.148 176.98 101.028 174.676H110.196ZM112.239 163.612C111.807 163.708 111.471 164.068 111.447 164.524C111.447 164.668 111.471 164.836 111.543 164.98C111.615 165.1 111.567 165.196 111.519 165.268L110.631 166.204L111.519 167.068L113.199 165.268C113.439 165.004 113.487 164.668 113.415 164.356C113.271 163.828 112.767 163.516 112.239 163.612ZM115.103 178.924C115.103 179.548 115.607 180.052 116.231 180.052H119.231V178.372H117.071C116.999 178.372 116.927 178.324 116.927 178.228V163.996H115.103C115.079 164.068 115.079 178.54 115.103 178.924ZM120.751 178.924C120.751 179.548 121.255 180.052 121.879 180.052H124.879V178.372H122.719C122.647 178.372 122.575 178.324 122.575 178.228V163.996H120.751C120.727 164.068 120.727 178.54 120.751 178.924ZM141.071 166.516C141.647 166.516 142.103 166.06 142.103 165.484C142.103 164.932 141.647 164.452 141.071 164.452C140.519 164.452 140.063 164.932 140.063 165.484C140.063 166.06 140.519 166.516 141.071 166.516ZM135.887 168.196C135.887 168.196 135.719 167.044 135.719 166.492C135.719 165.916 136.055 165.532 136.511 165.532H137.519V163.972H135.839C134.591 163.972 134.015 164.86 134.015 165.844C134.015 166.564 134.159 167.332 134.303 167.74C134.351 167.932 134.495 168.1 134.663 168.172C134.735 168.244 134.951 168.34 135.023 168.364V168.388C134.975 168.388 134.831 168.34 134.783 168.316C134.471 168.244 134.135 168.196 133.823 168.196H132.119V169.732H134.183V180.028H136.031V169.732H140.159V180.052H142.007C142.007 177.004 142.007 168.244 142.007 168.196H135.887ZM154.599 173.284C154.599 169.78 152.919 167.836 150.135 167.836C148.527 167.836 147.471 168.556 146.871 169.3C146.583 169.66 146.415 170.092 146.295 170.476L146.103 171.1L146.055 171.076L146.151 170.764C146.247 170.428 146.295 170.068 146.295 169.708V168.196H144.471V180.052H146.295V173.404C146.295 171.076 147.591 169.516 149.583 169.516C151.671 169.516 152.775 171.004 152.775 173.644C152.775 175.18 152.775 180.052 152.775 180.052H154.599V173.284ZM158.237 174.124C158.237 171.46 159.605 169.492 161.981 169.492C164.333 169.492 165.557 171.46 165.557 174.124C165.557 176.764 164.357 178.732 161.981 178.732C159.605 178.732 158.237 176.764 158.237 174.124ZM165.629 163.972V170.068C165.629 170.428 165.677 170.788 165.773 171.124L165.869 171.436H165.845L165.557 170.572C165.245 169.54 164.357 167.836 161.645 167.836C158.501 167.836 156.413 170.452 156.413 174.124C156.413 177.772 158.477 180.388 161.645 180.388C164.357 180.388 165.269 178.66 165.581 177.628L165.845 176.788H165.869L165.773 177.1C165.677 177.436 165.629 177.796 165.629 178.156V180.052H167.477V163.972H165.629ZM179.507 178.372C179.435 178.372 179.387 178.3 179.387 178.228V169.732H181.475V168.172H179.387V163.972H177.707C177.707 163.996 177.707 166.036 177.707 167.476C177.707 167.908 177.371 168.244 176.939 168.244H175.715V169.732H177.539C177.539 172.684 177.539 178.66 177.539 178.9C177.539 179.524 178.043 180.028 178.667 180.028H182.003V178.372H179.507ZM193.224 180.052V173.284C193.224 169.78 191.664 167.836 188.76 167.836C187.44 167.836 186.48 168.364 185.856 168.964C185.352 169.42 185.064 169.996 184.896 170.524L184.728 171.1L184.68 171.076L184.776 170.764C184.872 170.428 184.92 170.068 184.92 169.708V163.996H183.096V180.052H184.92V173.404C184.92 171.076 186.216 169.516 188.208 169.516C190.44 169.516 191.4 171.004 191.4 173.644C191.4 175.18 191.4 180.052 191.4 180.052H193.224ZM200.629 169.516C202.765 169.516 204.037 171.124 204.253 173.308H196.981C197.197 171.124 198.493 169.516 200.629 169.516ZM206.149 174.676C206.173 174.508 206.197 174.316 206.197 174.124C206.197 170.452 203.941 167.836 200.629 167.836C197.317 167.836 195.061 170.452 195.061 174.124C195.061 177.796 197.317 180.412 200.629 180.412C203.293 180.412 205.237 178.708 205.933 176.164L204.061 175.828C203.653 177.532 202.453 178.732 200.629 178.732C198.397 178.732 197.101 176.98 196.981 174.676H206.149ZM223.542 175.3C223.182 177.34 221.91 178.732 219.918 178.732C217.542 178.732 216.174 176.764 216.174 174.124C216.174 171.484 217.542 169.516 219.918 169.516C221.91 169.516 223.182 170.908 223.542 172.948L225.366 172.756C224.886 169.78 222.798 167.836 219.918 167.836C216.606 167.836 214.35 170.452 214.35 174.124C214.35 177.796 216.606 180.412 219.918 180.412C222.798 180.412 224.886 178.468 225.366 175.516L223.542 175.3ZM228.619 174.124C228.619 171.484 229.987 169.516 232.363 169.516C234.715 169.516 236.083 171.484 236.083 174.124C236.083 176.764 234.715 178.732 232.363 178.732C229.987 178.732 228.619 176.764 228.619 174.124ZM237.931 174.124C237.931 170.452 235.675 167.836 232.363 167.836C229.051 167.836 226.795 170.452 226.795 174.124C226.795 177.796 229.051 180.412 232.363 180.412C235.675 180.412 237.931 177.796 237.931 174.124ZM248.625 170.164C247.977 168.412 246.633 167.836 245.145 167.836C243.585 167.836 242.673 168.556 242.121 169.3C241.809 169.684 241.617 170.116 241.497 170.524L241.329 171.1L241.281 171.076L241.377 170.764C241.473 170.428 241.521 170.068 241.521 169.708V168.196H239.697V180.052H241.521V173.404C241.521 171.076 242.625 169.516 244.473 169.516C246.057 169.516 247.257 170.428 247.257 173.404C247.257 174.916 247.257 180.052 247.257 180.052H249.105V173.404C249.105 171.076 250.185 169.516 252.057 169.516C253.641 169.516 254.841 170.62 254.841 173.284C254.841 174.796 254.841 180.052 254.841 180.052H256.689V172.78C256.689 169.3 254.817 167.836 252.537 167.836C250.593 167.836 249.585 169.036 249.153 169.804C248.937 170.188 248.793 170.572 248.745 170.812C248.721 170.86 248.673 171.1 248.673 171.1L248.649 171.076L248.673 170.908C248.745 170.62 248.721 170.38 248.625 170.164ZM268.202 174.124C268.202 176.764 266.858 178.732 264.482 178.732C262.13 178.732 260.906 176.764 260.906 174.124C260.906 171.484 262.106 169.516 264.482 169.516C266.834 169.516 268.202 171.484 268.202 174.124ZM260.81 178.18C260.81 177.82 260.762 177.46 260.666 177.124L260.57 176.812L260.618 176.788L260.882 177.676C261.194 178.684 262.106 180.412 264.818 180.412C267.962 180.412 270.05 177.796 270.05 174.124C270.05 170.476 267.962 167.836 264.818 167.836C262.106 167.836 261.194 169.564 260.882 170.62L260.618 171.46L260.57 171.436L260.666 171.148C260.762 170.788 260.81 170.428 260.81 170.068V168.196H258.986V184.276H260.81V178.18ZM278.894 175.156C278.894 177.148 277.598 178.78 275.222 178.78C273.878 178.78 273.014 178.036 272.894 177.004C272.774 175.924 273.398 174.868 274.934 174.58C275.774 174.436 277.214 174.148 277.766 174.028C278.678 173.86 278.894 173.572 278.894 173.572V175.156ZM281.702 178.492H280.862C280.79 178.492 280.742 178.444 280.742 178.372V172.324C280.766 169.516 279.182 167.836 276.158 167.836C274.574 167.836 273.23 168.364 272.39 169.324C271.598 170.212 271.358 171.34 271.598 172.444L273.398 172.18C273.278 171.604 273.302 170.884 273.758 170.308C274.142 169.852 274.862 169.372 276.134 169.372C277.886 169.372 278.822 170.332 278.822 171.508C278.822 171.988 278.606 172.3 278.198 172.468C277.838 172.612 277.19 172.708 276.35 172.876C275.702 173.02 274.574 173.26 273.806 173.476C271.622 174.076 270.998 175.54 271.046 177.052C271.07 178.78 272.438 180.412 274.91 180.412C276.518 180.412 277.718 179.788 278.486 178.852C278.846 178.396 279.086 177.796 279.206 177.196C279.23 177.148 279.302 176.788 279.302 176.788H279.326L279.302 176.956C279.23 177.316 279.206 177.676 279.182 178.036C279.182 178.18 279.182 178.732 279.182 179.164C279.182 179.668 279.542 180.052 280.094 180.052H281.702V178.492ZM293.653 173.284C293.653 169.78 291.973 167.836 289.189 167.836C287.581 167.836 286.525 168.556 285.925 169.3C285.637 169.66 285.469 170.092 285.349 170.476L285.157 171.1L285.109 171.076L285.205 170.764C285.301 170.428 285.349 170.068 285.349 169.708V168.196H283.525V180.052H285.349V173.404C285.349 171.076 286.645 169.516 288.637 169.516C290.725 169.516 291.829 171.004 291.829 173.644C291.829 175.18 291.829 180.052 291.829 180.052H293.653V173.284ZM295.947 180.052H297.795C297.795 177.028 297.795 168.244 297.795 168.196H295.947V180.052ZM296.859 166.516C297.435 166.516 297.891 166.06 297.891 165.508C297.891 164.932 297.435 164.476 296.859 164.476C296.307 164.476 295.851 164.932 295.851 165.508C295.851 166.06 296.307 166.516 296.859 166.516ZM305.09 169.516C307.226 169.516 308.498 171.124 308.714 173.308H301.442C301.658 171.124 302.954 169.516 305.09 169.516ZM310.61 174.676C310.634 174.508 310.658 174.316 310.658 174.124C310.658 170.452 308.402 167.836 305.09 167.836C301.778 167.836 299.522 170.452 299.522 174.124C299.522 177.796 301.778 180.412 305.09 180.412C307.754 180.412 309.698 178.708 310.394 176.164L308.522 175.828C308.114 177.532 306.914 178.732 305.09 178.732C302.858 178.732 301.562 176.98 301.442 174.676H310.61ZM321.419 176.956C321.419 174.46 319.115 173.764 317.195 173.284C316.163 173.02 314.219 172.588 314.219 171.124C314.219 170.236 314.939 169.372 316.715 169.372C318.683 169.372 319.283 170.452 319.283 171.652H320.987C320.987 169.708 319.883 167.836 316.667 167.836C313.619 167.836 312.371 169.324 312.371 170.956C312.371 173.092 314.003 173.956 316.259 174.508C318.491 175.036 319.571 175.684 319.571 176.86C319.571 178.156 318.443 178.852 316.883 178.852C314.291 178.852 313.931 177.004 313.931 176.26H312.107C312.107 178.252 313.379 180.388 316.955 180.388C320.075 180.388 321.419 178.828 321.419 176.956ZM332.976 178.372C332.904 178.372 332.856 178.3 332.856 178.228V169.732H334.944V168.172H332.856V163.972H331.176C331.176 163.996 331.176 166.036 331.176 167.476C331.176 167.908 330.84 168.244 330.408 168.244H329.184V169.732H331.008C331.008 172.684 331.008 178.66 331.008 178.9C331.008 179.524 331.512 180.028 332.136 180.028H335.472V178.372H332.976ZM346.692 180.052V173.284C346.692 169.78 345.132 167.836 342.228 167.836C340.908 167.836 339.948 168.364 339.324 168.964C338.82 169.42 338.532 169.996 338.364 170.524L338.196 171.1L338.148 171.076L338.244 170.764C338.34 170.428 338.388 170.068 338.388 169.708V163.996H336.564V180.052H338.388V173.404C338.388 171.076 339.684 169.516 341.676 169.516C343.908 169.516 344.868 171.004 344.868 173.644C344.868 175.18 344.868 180.052 344.868 180.052H346.692ZM356.402 175.156C356.402 177.148 355.106 178.78 352.73 178.78C351.386 178.78 350.522 178.036 350.402 177.004C350.282 175.924 350.906 174.868 352.442 174.58C353.282 174.436 354.722 174.148 355.274 174.028C356.186 173.86 356.402 173.572 356.402 173.572V175.156ZM359.21 178.492H358.37C358.298 178.492 358.25 178.444 358.25 178.372V172.324C358.274 169.516 356.69 167.836 353.666 167.836C352.082 167.836 350.738 168.364 349.898 169.324C349.106 170.212 348.866 171.34 349.106 172.444L350.906 172.18C350.786 171.604 350.81 170.884 351.266 170.308C351.65 169.852 352.37 169.372 353.642 169.372C355.394 169.372 356.33 170.332 356.33 171.508C356.33 171.988 356.114 172.3 355.706 172.468C355.346 172.612 354.698 172.708 353.858 172.876C353.21 173.02 352.082 173.26 351.314 173.476C349.13 174.076 348.506 175.54 348.554 177.052C348.578 178.78 349.946 180.412 352.418 180.412C354.026 180.412 355.226 179.788 355.994 178.852C356.354 178.396 356.594 177.796 356.714 177.196C356.738 177.148 356.81 176.788 356.81 176.788H356.834L356.81 176.956C356.738 177.316 356.714 177.676 356.69 178.036C356.69 178.18 356.69 178.732 356.69 179.164C356.69 179.668 357.05 180.052 357.602 180.052H359.21V178.492ZM363.398 178.372C363.326 178.372 363.278 178.3 363.278 178.228V169.732H365.366V168.172H363.278V163.972H361.598C361.598 163.996 361.598 166.036 361.598 167.476C361.598 167.908 361.262 168.244 360.83 168.244H359.606V169.732H361.43C361.43 172.684 361.43 178.66 361.43 178.9C361.43 179.524 361.934 180.028 362.558 180.028H365.894V178.372H363.398ZM87.6205 199.156C87.6205 201.148 86.3245 202.78 83.9485 202.78C82.6045 202.78 81.7405 202.036 81.6205 201.004C81.5005 199.924 82.1245 198.868 83.6605 198.58C84.5005 198.436 85.9405 198.148 86.4925 198.028C87.4045 197.86 87.6205 197.572 87.6205 197.572V199.156ZM90.4285 202.492H89.5885C89.5165 202.492 89.4685 202.444 89.4685 202.372V196.324C89.4925 193.516 87.9085 191.836 84.8845 191.836C83.3005 191.836 81.9565 192.364 81.1165 193.324C80.3245 194.212 80.0845 195.34 80.3245 196.444L82.1245 196.18C82.0045 195.604 82.0285 194.884 82.4845 194.308C82.8685 193.852 83.5885 193.372 84.8605 193.372C86.6125 193.372 87.5485 194.332 87.5485 195.508C87.5485 195.988 87.3325 196.3 86.9245 196.468C86.5645 196.612 85.9165 196.708 85.0765 196.876C84.4285 197.02 83.3005 197.26 82.5325 197.476C80.3485 198.076 79.7245 199.54 79.7725 201.052C79.7965 202.78 81.1645 204.412 83.6365 204.412C85.2445 204.412 86.4445 203.788 87.2125 202.852C87.5725 202.396 87.8125 201.796 87.9325 201.196C87.9565 201.148 88.0285 200.788 88.0285 200.788H88.0525L88.0285 200.956C87.9565 201.316 87.9325 201.676 87.9085 202.036C87.9085 202.18 87.9085 202.732 87.9085 203.164C87.9085 203.668 88.2685 204.052 88.8205 204.052H90.4285V202.492ZM92.2279 202.924C92.2279 203.548 92.7319 204.052 93.3559 204.052H96.3559V202.372H94.1959C94.1239 202.372 94.0519 202.324 94.0519 202.228V187.996H92.2279C92.2039 188.068 92.2039 202.54 92.2279 202.924ZM97.9003 204.052H99.7483C99.7483 201.028 99.7483 192.244 99.7483 192.196H97.9003V204.052ZM98.8123 190.516C99.3883 190.516 99.8443 190.06 99.8443 189.508C99.8443 188.932 99.3883 188.476 98.8123 188.476C98.2603 188.476 97.8043 188.932 97.8043 189.508C97.8043 190.06 98.2603 190.516 98.8123 190.516ZM107.043 202.732C104.667 202.732 103.299 200.764 103.299 198.124C103.299 195.484 104.667 193.516 107.043 193.516C109.395 193.516 110.619 195.484 110.619 198.124C110.619 200.764 109.419 202.732 107.043 202.732ZM112.539 202.252V192.196H110.691V194.068C110.691 194.428 110.739 194.788 110.835 195.148L110.931 195.436L110.907 195.46L110.619 194.572C110.307 193.564 109.419 191.836 106.707 191.836C103.563 191.836 101.475 194.476 101.475 198.124C101.475 201.772 103.539 204.412 106.707 204.412C109.419 204.412 110.331 202.684 110.643 201.652L110.907 200.788L110.931 200.812L110.835 201.124C110.763 201.388 110.715 201.676 110.715 201.964C110.715 202.036 110.691 202.684 110.691 202.756C110.691 203.86 111.291 204.556 111.291 205.372C111.291 206.524 110.355 206.74 109.299 206.716H103.395V208.276H109.947C112.179 208.276 113.187 207.412 113.187 205.66C113.187 204.196 112.539 203.86 112.539 202.252ZM125.185 197.284C125.185 193.78 123.505 191.836 120.721 191.836C119.113 191.836 118.057 192.556 117.457 193.3C117.169 193.66 117.001 194.092 116.881 194.476L116.689 195.1L116.641 195.076L116.737 194.764C116.833 194.428 116.881 194.068 116.881 193.708V192.196H115.057V204.052H116.881V197.404C116.881 195.076 118.177 193.516 120.169 193.516C122.257 193.516 123.361 195.004 123.361 197.644C123.361 199.18 123.361 204.052 123.361 204.052H125.185V197.284ZM137.038 202.372C136.966 202.372 136.918 202.3 136.918 202.228V193.732H139.006V192.172H136.918V187.972H135.238C135.238 187.996 135.238 190.036 135.238 191.476C135.238 191.908 134.902 192.244 134.47 192.244H133.246V193.732H135.07C135.07 196.684 135.07 202.66 135.07 202.9C135.07 203.524 135.574 204.028 136.198 204.028H139.534V202.372H137.038ZM141.971 198.124C141.971 195.484 143.339 193.516 145.715 193.516C148.067 193.516 149.435 195.484 149.435 198.124C149.435 200.764 148.067 202.732 145.715 202.732C143.339 202.732 141.971 200.764 141.971 198.124ZM151.283 198.124C151.283 194.452 149.027 191.836 145.715 191.836C142.403 191.836 140.147 194.452 140.147 198.124C140.147 201.796 142.403 204.412 145.715 204.412C149.027 204.412 151.283 201.796 151.283 198.124ZM168.123 192.172L164.643 200.788C164.571 201.004 164.523 201.22 164.523 201.436V201.844H164.475V201.436C164.475 201.22 164.427 201.004 164.355 200.788L160.875 192.172H158.907L163.227 202.78C163.419 203.236 163.419 203.716 163.227 204.172L161.571 208.252H163.539L170.091 192.172H168.123ZM171.643 198.124C171.643 195.484 173.011 193.516 175.387 193.516C177.739 193.516 179.107 195.484 179.107 198.124C179.107 200.764 177.739 202.732 175.387 202.732C173.011 202.732 171.643 200.764 171.643 198.124ZM180.955 198.124C180.955 194.452 178.699 191.836 175.387 191.836C172.075 191.836 169.819 194.452 169.819 198.124C169.819 201.796 172.075 204.412 175.387 204.412C178.699 204.412 180.955 201.796 180.955 198.124ZM182.787 192.196V198.964C182.787 202.468 184.323 204.388 187.251 204.388C189.555 204.388 190.611 202.972 190.995 202.036L191.283 201.148L191.307 201.172L191.235 201.46C191.139 201.82 191.091 202.156 191.091 202.516V204.028H192.915V192.196H191.091V198.844C191.091 201.172 189.771 202.732 187.803 202.732C185.571 202.732 184.611 201.244 184.611 198.604C184.611 197.068 184.611 192.196 184.611 192.196H182.787ZM197.201 204.052V198.22C197.201 196.228 198.137 193.612 199.097 193.612C199.745 193.612 199.937 194.476 199.937 195.148V196.468H201.785V194.764C201.785 192.988 201.209 191.836 199.817 191.836C199.097 191.836 198.497 192.364 198.065 192.988C197.633 193.588 197.393 194.284 197.321 194.692C197.297 194.764 197.201 195.34 197.177 195.412L197.105 195.868H197.081L197.129 195.556C197.177 195.172 197.201 194.812 197.201 194.428V192.196H195.377V204.052H197.201ZM220.294 197.284C220.294 193.78 218.614 191.836 215.83 191.836C214.222 191.836 213.166 192.556 212.566 193.3C212.278 193.66 212.11 194.092 211.99 194.476L211.798 195.1L211.75 195.076L211.846 194.764C211.942 194.428 211.99 194.068 211.99 193.708V192.196H210.166V204.052H211.99V197.404C211.99 195.076 213.286 193.516 215.278 193.516C217.366 193.516 218.47 195.004 218.47 197.644C218.47 199.18 218.47 204.052 218.47 204.052H220.294V197.284ZM227.418 193.516C229.554 193.516 230.826 195.124 231.042 197.308H223.77C223.986 195.124 225.282 193.516 227.418 193.516ZM232.938 198.676C232.962 198.508 232.986 198.316 232.986 198.124C232.986 194.452 230.73 191.836 227.418 191.836C224.106 191.836 221.85 194.452 221.85 198.124C221.85 201.796 224.106 204.412 227.418 204.412C230.082 204.412 232.026 202.708 232.722 200.164L230.85 199.828C230.442 201.532 229.242 202.732 227.418 202.732C225.186 202.732 223.89 200.98 223.77 198.676H232.938ZM240.027 193.516C242.163 193.516 243.435 195.124 243.651 197.308H236.379C236.595 195.124 237.891 193.516 240.027 193.516ZM245.547 198.676C245.571 198.508 245.595 198.316 245.595 198.124C245.595 194.452 243.339 191.836 240.027 191.836C236.715 191.836 234.459 194.452 234.459 198.124C234.459 201.796 236.715 204.412 240.027 204.412C242.691 204.412 244.635 202.708 245.331 200.164L243.459 199.828C243.051 201.532 241.851 202.732 240.027 202.732C237.795 202.732 236.499 200.98 236.379 198.676H245.547ZM248.893 198.124C248.893 195.46 250.261 193.492 252.637 193.492C254.989 193.492 256.213 195.46 256.213 198.124C256.213 200.764 255.013 202.732 252.637 202.732C250.261 202.732 248.893 200.764 248.893 198.124ZM256.285 187.972V194.068C256.285 194.428 256.333 194.788 256.429 195.124L256.525 195.436H256.501L256.213 194.572C255.901 193.54 255.013 191.836 252.301 191.836C249.157 191.836 247.069 194.452 247.069 198.124C247.069 201.772 249.133 204.388 252.301 204.388C255.013 204.388 255.925 202.66 256.237 201.628L256.501 200.788H256.525L256.429 201.1C256.333 201.436 256.285 201.796 256.285 202.156V204.052H258.133V187.972H256.285ZM269.411 200.956C269.411 198.46 267.107 197.764 265.187 197.284C264.155 197.02 262.211 196.588 262.211 195.124C262.211 194.236 262.931 193.372 264.707 193.372C266.675 193.372 267.275 194.452 267.275 195.652H268.979C268.979 193.708 267.875 191.836 264.659 191.836C261.611 191.836 260.363 193.324 260.363 194.956C260.363 197.092 261.995 197.956 264.251 198.508C266.483 199.036 267.563 199.684 267.563 200.86C267.563 202.156 266.435 202.852 264.875 202.852C262.283 202.852 261.923 201.004 261.923 200.26H260.099C260.099 202.252 261.371 204.388 264.947 204.388C268.067 204.388 269.411 202.828 269.411 200.956ZM285.48 199.156C285.48 201.148 284.184 202.78 281.808 202.78C280.464 202.78 279.6 202.036 279.48 201.004C279.36 199.924 279.984 198.868 281.52 198.58C282.36 198.436 283.8 198.148 284.352 198.028C285.264 197.86 285.48 197.572 285.48 197.572V199.156ZM288.288 202.492H287.448C287.376 202.492 287.328 202.444 287.328 202.372V196.324C287.352 193.516 285.768 191.836 282.744 191.836C281.16 191.836 279.816 192.364 278.976 193.324C278.184 194.212 277.944 195.34 278.184 196.444L279.984 196.18C279.864 195.604 279.888 194.884 280.344 194.308C280.728 193.852 281.448 193.372 282.72 193.372C284.472 193.372 285.408 194.332 285.408 195.508C285.408 195.988 285.192 196.3 284.784 196.468C284.424 196.612 283.776 196.708 282.936 196.876C282.288 197.02 281.16 197.26 280.392 197.476C278.208 198.076 277.584 199.54 277.632 201.052C277.656 202.78 279.024 204.412 281.496 204.412C283.104 204.412 284.304 203.788 285.072 202.852C285.432 202.396 285.672 201.796 285.792 201.196C285.816 201.148 285.888 200.788 285.888 200.788H285.912L285.888 200.956C285.816 201.316 285.792 201.676 285.768 202.036C285.768 202.18 285.768 202.732 285.768 203.164C285.768 203.668 286.128 204.052 286.68 204.052H288.288V202.492ZM300.239 197.284C300.239 193.78 298.559 191.836 295.775 191.836C294.167 191.836 293.111 192.556 292.511 193.3C292.223 193.66 292.055 194.092 291.935 194.476L291.743 195.1L291.695 195.076L291.791 194.764C291.887 194.428 291.935 194.068 291.935 193.708V192.196H290.111V204.052H291.935V197.404C291.935 195.076 293.231 193.516 295.223 193.516C297.311 193.516 298.415 195.004 298.415 197.644C298.415 199.18 298.415 204.052 298.415 204.052H300.239V197.284ZM303.877 198.124C303.877 195.46 305.245 193.492 307.621 193.492C309.973 193.492 311.197 195.46 311.197 198.124C311.197 200.764 309.997 202.732 307.621 202.732C305.245 202.732 303.877 200.764 303.877 198.124ZM311.269 187.972V194.068C311.269 194.428 311.317 194.788 311.413 195.124L311.509 195.436H311.485L311.197 194.572C310.885 193.54 309.997 191.836 307.285 191.836C304.141 191.836 302.053 194.452 302.053 198.124C302.053 201.772 304.117 204.388 307.285 204.388C309.997 204.388 310.909 202.66 311.221 201.628L311.485 200.788H311.509L311.413 201.1C311.317 201.436 311.269 201.796 311.269 202.156V204.052H313.117V187.972H311.269ZM88.3885 216.172L84.9085 224.788C84.8365 225.004 84.7885 225.22 84.7885 225.436V225.844H84.7405V225.436C84.7405 225.22 84.6925 225.004 84.6205 224.788L81.1405 216.172H79.1725L83.4925 226.78C83.6845 227.236 83.6845 227.716 83.4925 228.172L81.8365 232.252H83.8045L90.3565 216.172H88.3885ZM91.9084 222.124C91.9084 219.484 93.2764 217.516 95.6524 217.516C98.0044 217.516 99.3724 219.484 99.3724 222.124C99.3724 224.764 98.0044 226.732 95.6524 226.732C93.2764 226.732 91.9084 224.764 91.9084 222.124ZM101.22 222.124C101.22 218.452 98.9644 215.836 95.6524 215.836C92.3404 215.836 90.0844 218.452 90.0844 222.124C90.0844 225.796 92.3404 228.412 95.6524 228.412C98.9644 228.412 101.22 225.796 101.22 222.124ZM103.053 216.196V222.964C103.053 226.468 104.589 228.388 107.517 228.388C109.821 228.388 110.877 226.972 111.261 226.036L111.549 225.148L111.573 225.172L111.501 225.46C111.405 225.82 111.357 226.156 111.357 226.516V228.028H113.181V216.196H111.357V222.844C111.357 225.172 110.037 226.732 108.069 226.732C105.837 226.732 104.877 225.244 104.877 222.604C104.877 221.068 104.877 216.196 104.877 216.196H103.053ZM117.467 228.052V222.22C117.467 220.228 118.403 217.612 119.363 217.612C120.011 217.612 120.203 218.476 120.203 219.148V220.468H122.051V218.764C122.051 216.988 121.475 215.836 120.083 215.836C119.363 215.836 118.763 216.364 118.331 216.988C117.899 217.588 117.659 218.284 117.587 218.692C117.563 218.764 117.467 219.34 117.443 219.412L117.371 219.868H117.347L117.395 219.556C117.443 219.172 117.467 218.812 117.467 218.428V216.196H115.643V228.052H117.467ZM138.496 216.196L135.04 226.012C134.968 226.228 134.92 226.492 134.92 226.732V227.164H134.872V226.732C134.872 226.492 134.848 226.252 134.776 226.012L131.32 216.196H129.424L133.576 228.052H136.24L140.392 216.196H138.496ZM148.699 223.156C148.699 225.148 147.403 226.78 145.027 226.78C143.683 226.78 142.819 226.036 142.699 225.004C142.579 223.924 143.203 222.868 144.739 222.58C145.579 222.436 147.019 222.148 147.571 222.028C148.483 221.86 148.699 221.572 148.699 221.572V223.156ZM151.507 226.492H150.667C150.595 226.492 150.547 226.444 150.547 226.372V220.324C150.571 217.516 148.987 215.836 145.963 215.836C144.379 215.836 143.035 216.364 142.195 217.324C141.403 218.212 141.163 219.34 141.403 220.444L143.203 220.18C143.083 219.604 143.107 218.884 143.563 218.308C143.947 217.852 144.667 217.372 145.939 217.372C147.691 217.372 148.627 218.332 148.627 219.508C148.627 219.988 148.411 220.3 148.003 220.468C147.643 220.612 146.995 220.708 146.155 220.876C145.507 221.02 144.379 221.26 143.611 221.476C141.427 222.076 140.803 223.54 140.851 225.052C140.875 226.78 142.243 228.412 144.715 228.412C146.323 228.412 147.523 227.788 148.291 226.852C148.651 226.396 148.891 225.796 149.011 225.196C149.035 225.148 149.107 224.788 149.107 224.788H149.131L149.107 224.956C149.035 225.316 149.011 225.676 148.987 226.036C148.987 226.18 148.987 226.732 148.987 227.164C148.987 227.668 149.347 228.052 149.899 228.052H151.507V226.492ZM153.306 226.924C153.306 227.548 153.81 228.052 154.434 228.052H157.434V226.372H155.274C155.202 226.372 155.13 226.324 155.13 226.228V211.996H153.306C153.282 212.068 153.282 226.54 153.306 226.924ZM158.81 216.196V222.964C158.81 226.468 160.346 228.388 163.274 228.388C165.578 228.388 166.634 226.972 167.018 226.036L167.306 225.148L167.33 225.172L167.258 225.46C167.162 225.82 167.114 226.156 167.114 226.516V228.028H168.938V216.196H167.114V222.844C167.114 225.172 165.794 226.732 163.826 226.732C161.594 226.732 160.634 225.244 160.634 222.604C160.634 221.068 160.634 216.196 160.634 216.196H158.81ZM176.488 217.516C178.624 217.516 179.896 219.124 180.112 221.308H172.84C173.056 219.124 174.352 217.516 176.488 217.516ZM182.008 222.676C182.032 222.508 182.056 222.316 182.056 222.124C182.056 218.452 179.8 215.836 176.488 215.836C173.176 215.836 170.92 218.452 170.92 222.124C170.92 225.796 173.176 228.412 176.488 228.412C179.152 228.412 181.096 226.708 181.792 224.164L179.92 223.828C179.512 225.532 178.312 226.732 176.488 226.732C174.256 226.732 172.96 224.98 172.84 222.676H182.008ZM192.818 224.956C192.818 222.46 190.514 221.764 188.594 221.284C187.562 221.02 185.618 220.588 185.618 219.124C185.618 218.236 186.338 217.372 188.114 217.372C190.082 217.372 190.682 218.452 190.682 219.652H192.386C192.386 217.708 191.282 215.836 188.066 215.836C185.018 215.836 183.77 217.324 183.77 218.956C183.77 221.092 185.402 221.956 187.658 222.508C189.89 223.036 190.97 223.684 190.97 224.86C190.97 226.156 189.842 226.852 188.282 226.852C185.69 226.852 185.33 225.004 185.33 224.26H183.506C183.506 226.252 184.778 228.388 188.354 228.388C191.474 228.388 192.818 226.828 192.818 224.956ZM208.742 221.788V220.036H200.582V221.788H208.742ZM224.378 223.156C224.378 225.148 223.082 226.78 220.706 226.78C219.362 226.78 218.498 226.036 218.378 225.004C218.258 223.924 218.882 222.868 220.418 222.58C221.258 222.436 222.698 222.148 223.25 222.028C224.162 221.86 224.378 221.572 224.378 221.572V223.156ZM227.186 226.492H226.346C226.274 226.492 226.226 226.444 226.226 226.372V220.324C226.25 217.516 224.666 215.836 221.642 215.836C220.058 215.836 218.714 216.364 217.874 217.324C217.082 218.212 216.842 219.34 217.082 220.444L218.882 220.18C218.762 219.604 218.786 218.884 219.242 218.308C219.626 217.852 220.346 217.372 221.618 217.372C223.37 217.372 224.306 218.332 224.306 219.508C224.306 219.988 224.09 220.3 223.682 220.468C223.322 220.612 222.674 220.708 221.834 220.876C221.186 221.02 220.058 221.26 219.29 221.476C217.106 222.076 216.482 223.54 216.53 225.052C216.554 226.78 217.922 228.412 220.394 228.412C222.002 228.412 223.202 227.788 223.97 226.852C224.33 226.396 224.57 225.796 224.69 225.196C224.714 225.148 224.786 224.788 224.786 224.788H224.81L224.786 224.956C224.714 225.316 224.69 225.676 224.666 226.036C224.666 226.18 224.666 226.732 224.666 227.164C224.666 227.668 225.026 228.052 225.578 228.052H227.186V226.492ZM239.138 221.284C239.138 217.78 237.458 215.836 234.674 215.836C233.066 215.836 232.01 216.556 231.41 217.3C231.122 217.66 230.954 218.092 230.834 218.476L230.642 219.1L230.594 219.076L230.69 218.764C230.786 218.428 230.834 218.068 230.834 217.708V216.196H229.01V228.052H230.834V221.404C230.834 219.076 232.13 217.516 234.122 217.516C236.21 217.516 237.314 219.004 237.314 221.644C237.314 223.18 237.314 228.052 237.314 228.052H239.138V221.284ZM242.776 222.124C242.776 219.46 244.144 217.492 246.52 217.492C248.872 217.492 250.096 219.46 250.096 222.124C250.096 224.764 248.896 226.732 246.52 226.732C244.144 226.732 242.776 224.764 242.776 222.124ZM250.168 211.972V218.068C250.168 218.428 250.216 218.788 250.312 219.124L250.408 219.436H250.384L250.096 218.572C249.784 217.54 248.896 215.836 246.184 215.836C243.04 215.836 240.952 218.452 240.952 222.124C240.952 225.772 243.016 228.388 246.184 228.388C248.896 228.388 249.808 226.66 250.12 225.628L250.384 224.788H250.408L250.312 225.1C250.216 225.436 250.168 225.796 250.168 226.156V228.052H252.016V211.972H250.168ZM266.254 226.732C263.878 226.732 262.51 224.764 262.51 222.124C262.51 219.484 263.878 217.516 266.254 217.516C268.606 217.516 269.83 219.484 269.83 222.124C269.83 224.764 268.63 226.732 266.254 226.732ZM271.75 226.252V216.196H269.902V218.068C269.902 218.428 269.95 218.788 270.046 219.148L270.142 219.436L270.118 219.46L269.83 218.572C269.518 217.564 268.63 215.836 265.918 215.836C262.774 215.836 260.686 218.476 260.686 222.124C260.686 225.772 262.75 228.412 265.918 228.412C268.63 228.412 269.542 226.684 269.854 225.652L270.118 224.788L270.142 224.812L270.046 225.124C269.974 225.388 269.926 225.676 269.926 225.964C269.926 226.036 269.902 226.684 269.902 226.756C269.902 227.86 270.502 228.556 270.502 229.372C270.502 230.524 269.566 230.74 268.51 230.716H262.606V232.276H269.158C271.39 232.276 272.398 231.412 272.398 229.66C272.398 228.196 271.75 227.86 271.75 226.252ZM279.098 217.516C281.234 217.516 282.506 219.124 282.722 221.308H275.45C275.666 219.124 276.962 217.516 279.098 217.516ZM284.618 222.676C284.642 222.508 284.666 222.316 284.666 222.124C284.666 218.452 282.41 215.836 279.098 215.836C275.786 215.836 273.53 218.452 273.53 222.124C273.53 225.796 275.786 228.412 279.098 228.412C281.762 228.412 283.706 226.708 284.402 224.164L282.53 223.828C282.122 225.532 280.922 226.732 279.098 226.732C276.866 226.732 275.57 224.98 275.45 222.676H284.618ZM288.96 226.372C288.888 226.372 288.84 226.3 288.84 226.228V217.732H290.928V216.172H288.84V211.972H287.16C287.16 211.996 287.16 214.036 287.16 215.476C287.16 215.908 286.824 216.244 286.392 216.244H285.168V217.732H286.992C286.992 220.684 286.992 226.66 286.992 226.9C286.992 227.524 287.496 228.028 288.12 228.028H291.456V226.372H288.96ZM302.648 226.372C302.576 226.372 302.528 226.3 302.528 226.228V217.732H304.616V216.172H302.528V211.972H300.848C300.848 211.996 300.848 214.036 300.848 215.476C300.848 215.908 300.512 216.244 300.08 216.244H298.856V217.732H300.68C300.68 220.684 300.68 226.66 300.68 226.9C300.68 227.524 301.184 228.028 301.808 228.028H305.144V226.372H302.648ZM314.167 223.156C314.167 225.148 312.871 226.78 310.495 226.78C309.151 226.78 308.287 226.036 308.167 225.004C308.047 223.924 308.671 222.868 310.207 222.58C311.047 222.436 312.487 222.148 313.039 222.028C313.951 221.86 314.167 221.572 314.167 221.572V223.156ZM316.975 226.492H316.135C316.063 226.492 316.015 226.444 316.015 226.372V220.324C316.039 217.516 314.455 215.836 311.431 215.836C309.847 215.836 308.503 216.364 307.663 217.324C306.871 218.212 306.631 219.34 306.871 220.444L308.671 220.18C308.551 219.604 308.575 218.884 309.031 218.308C309.415 217.852 310.135 217.372 311.407 217.372C313.159 217.372 314.095 218.332 314.095 219.508C314.095 219.988 313.879 220.3 313.471 220.468C313.111 220.612 312.463 220.708 311.623 220.876C310.975 221.02 309.847 221.26 309.079 221.476C306.895 222.076 306.271 223.54 306.319 225.052C306.343 226.78 307.711 228.412 310.183 228.412C311.791 228.412 312.991 227.788 313.759 226.852C314.119 226.396 314.359 225.796 314.479 225.196C314.503 225.148 314.575 224.788 314.575 224.788H314.599L314.575 224.956C314.503 225.316 314.479 225.676 314.455 226.036C314.455 226.18 314.455 226.732 314.455 227.164C314.455 227.668 314.815 228.052 315.367 228.052H316.975V226.492ZM318.775 226.924C318.775 227.548 319.279 228.052 319.903 228.052H322.903V226.372H320.743C320.671 226.372 320.599 226.324 320.599 226.228V211.996H318.775C318.751 212.068 318.751 226.54 318.775 226.924ZM331.407 220.084L333.927 216.196H331.719C331.719 216.196 326.799 223.828 326.655 224.044C326.463 224.356 326.343 224.716 326.343 225.1L326.319 225.46H326.271V211.996H324.447V228.052H326.247L329.751 222.628L332.655 228.052H334.695L331.335 221.644C331.071 221.14 331.095 220.54 331.407 220.084ZM336.189 228.052H338.037C338.037 225.028 338.037 216.244 338.037 216.196H336.189V228.052ZM337.101 214.516C337.677 214.516 338.133 214.06 338.133 213.508C338.133 212.932 337.677 212.476 337.101 212.476C336.549 212.476 336.093 212.932 336.093 213.508C336.093 214.06 336.549 214.516 337.101 214.516ZM350.63 221.284C350.63 217.78 348.95 215.836 346.166 215.836C344.558 215.836 343.502 216.556 342.902 217.3C342.614 217.66 342.446 218.092 342.326 218.476L342.134 219.1L342.086 219.076L342.182 218.764C342.278 218.428 342.326 218.068 342.326 217.708V216.196H340.502V228.052H342.326V221.404C342.326 219.076 343.622 217.516 345.614 217.516C347.702 217.516 348.806 219.004 348.806 221.644C348.806 223.18 348.806 228.052 348.806 228.052H350.63V221.284ZM357.754 226.732C355.378 226.732 354.01 224.764 354.01 222.124C354.01 219.484 355.378 217.516 357.754 217.516C360.106 217.516 361.33 219.484 361.33 222.124C361.33 224.764 360.13 226.732 357.754 226.732ZM363.25 226.252V216.196H361.402V218.068C361.402 218.428 361.45 218.788 361.546 219.148L361.642 219.436L361.618 219.46L361.33 218.572C361.018 217.564 360.13 215.836 357.418 215.836C354.274 215.836 352.186 218.476 352.186 222.124C352.186 225.772 354.25 228.412 357.418 228.412C360.13 228.412 361.042 226.684 361.354 225.652L361.618 224.788L361.642 224.812L361.546 225.124C361.474 225.388 361.426 225.676 361.426 225.964C361.426 226.036 361.402 226.684 361.402 226.756C361.402 227.86 362.002 228.556 362.002 229.372C362.002 230.524 361.066 230.74 360.01 230.716H354.106V232.276H360.658C362.89 232.276 363.898 231.412 363.898 229.66C363.898 228.196 363.25 227.86 363.25 226.252ZM365.467 228.196C366.043 228.196 366.499 227.716 366.499 227.164C366.499 226.588 366.043 226.132 365.467 226.132C364.915 226.132 364.459 226.588 364.459 227.164C364.459 227.716 364.915 228.196 365.467 228.196Z" fill="#303030"/>
</svg>
