<svg width="475" height="300" viewBox="0 0 475 300" fill="none" xmlns="http://www.w3.org/2000/svg">
<rect x="0.281982" y="0.726074" width="474.259" height="299" rx="10" fill="#8CD87C"/>
<path d="M61.2331 56.5557C61.2331 52.6197 57.8731 51.1797 53.5851 50.0597C49.7771 49.0997 48.0171 48.1397 48.0171 45.9637C48.0171 44.0757 49.5531 42.6357 52.8491 42.6357C56.1451 42.6357 57.8091 44.4277 57.8091 47.1797H60.4331C60.4331 43.5637 58.4171 40.3637 52.8491 40.3637C47.6011 40.3637 45.3931 42.8917 45.3931 45.9317C45.3931 49.3237 47.6651 51.0517 52.4011 52.2037C56.6891 53.2597 58.5771 54.1557 58.5771 56.7157C58.5771 58.9237 56.6571 60.4917 53.3291 60.4917C49.4891 60.4917 47.5051 58.3477 47.5051 55.4357H44.8811C44.8811 59.4037 47.4411 62.7317 53.3931 62.7317C59.0571 62.7317 61.2331 59.7237 61.2331 56.5557ZM67.7064 60.0437C67.6104 60.0437 67.5464 59.9477 67.5464 59.8517V48.5237H70.3304V46.4437H67.5464V40.8437H65.3064C65.3064 40.8757 65.3064 43.5957 65.3064 45.5157C65.3064 46.0917 64.8584 46.5397 64.2824 46.5397H62.6504V48.5237H65.0824C65.0824 52.4597 65.0824 60.4277 65.0824 60.7477C65.0824 61.5797 65.7544 62.2517 66.5864 62.2517H71.0344V60.0437H67.7064ZM79.2754 48.2357C82.1234 48.2357 83.8194 50.3797 84.1074 53.2917H74.4114C74.6994 50.3797 76.4274 48.2357 79.2754 48.2357ZM86.6354 55.1157C86.6674 54.8917 86.6994 54.6357 86.6994 54.3797C86.6994 49.4837 83.6914 45.9957 79.2754 45.9957C74.8594 45.9957 71.8514 49.4837 71.8514 54.3797C71.8514 59.2757 74.8594 62.7637 79.2754 62.7637C82.8274 62.7637 85.4194 60.4917 86.3474 57.0997L83.8514 56.6517C83.3074 58.9237 81.7074 60.5237 79.2754 60.5237C76.2994 60.5237 74.5714 58.1877 74.4114 55.1157H86.6354ZM101.592 54.3797C101.592 57.8997 99.7999 60.5237 96.6319 60.5237C93.4959 60.5237 91.8639 57.8997 91.8639 54.3797C91.8639 50.8597 93.4639 48.2357 96.6319 48.2357C99.7679 48.2357 101.592 50.8597 101.592 54.3797ZM91.7359 59.7877C91.7359 59.3077 91.6719 58.8277 91.5439 58.3797L91.4159 57.9637L91.4799 57.9317L91.8319 59.1157C92.2479 60.4597 93.4639 62.7637 97.0799 62.7637C101.272 62.7637 104.056 59.2757 104.056 54.3797C104.056 49.5157 101.272 45.9957 97.0799 45.9957C93.4639 45.9957 92.2479 48.2997 91.8319 49.7077L91.4799 50.8277L91.4159 50.7957L91.5439 50.4117C91.6719 49.9317 91.7359 49.4517 91.7359 48.9717V46.4757H89.3039V67.9157H91.7359V59.7877ZM115.552 43.1797H127.264L124.608 47.2117C124.096 47.8837 123.488 48.1397 122.72 48.1397H119.2V50.2517H123.008C125.472 50.2517 128.256 51.9157 128.256 55.2757C128.256 58.5717 125.824 60.3317 122.944 60.3317C120.128 60.3317 117.472 58.6037 117.472 55.2437H114.848C114.848 60.1397 118.56 62.7317 122.912 62.7317C127.104 62.7317 130.88 60.2997 130.88 55.4037C130.88 52.5237 129.344 50.7317 127.456 49.5477C127.008 49.2917 126.496 49.0357 125.888 48.9397L125.696 48.9077V48.8437C126.272 48.8757 126.624 48.5557 126.88 48.2357L130.336 43.0837V40.8437H115.552V43.1797ZM133.903 62.4757C134.671 62.4757 135.279 61.8357 135.279 61.0997C135.279 60.3317 134.671 59.7237 133.903 59.7237C133.167 59.7237 132.559 60.3317 132.559 61.0997C132.559 61.8357 133.167 62.4757 133.903 62.4757ZM65.0331 83.4917H44.0331V89.2917H51.1531V110.252H57.8731V89.2917H65.0331V83.4917ZM85.2441 110.292V98.6917C85.2441 93.4517 82.9641 89.9317 78.3641 89.9317C76.6041 89.9317 75.4041 90.4517 74.5641 91.0517C73.5241 91.8517 73.1641 92.8917 72.9641 93.6917L72.7641 94.6117H72.6841L72.8041 94.2117C72.9241 93.4917 73.0041 92.7317 73.0041 92.0117V83.5317H66.8841V110.292H73.0041V100.092C73.0041 97.1717 73.9641 95.4117 76.0841 95.4117C78.2841 95.4117 79.0841 97.1317 79.0841 100.212C79.0841 100.852 79.0841 110.292 79.0841 110.292H85.2441ZM97.5256 95.4117C99.2056 95.4117 100.366 96.5317 100.806 98.2117H94.2056C94.6456 96.5317 95.8056 95.4117 97.5256 95.4117ZM107.206 102.412C107.286 101.772 107.366 101.132 107.366 100.412C107.366 93.8917 103.166 89.9317 97.5256 89.9317C91.8456 89.9317 87.6856 93.8917 87.6856 100.412C87.6856 106.972 91.8456 110.892 97.5256 110.892C101.806 110.892 105.246 108.612 106.646 104.652L100.406 103.532C99.8456 104.692 98.8456 105.412 97.5256 105.412C95.7656 105.412 94.5656 104.212 94.1656 102.412H107.206ZM131.902 102.612C131.902 104.132 130.582 105.652 128.462 105.652C127.262 105.652 126.622 105.092 126.542 104.332C126.502 103.492 127.062 102.812 128.342 102.572C129.342 102.412 130.382 102.172 130.902 102.012C131.702 101.852 131.942 101.652 131.942 101.652L131.902 102.612ZM139.342 105.332H138.422C138.222 105.332 138.022 105.132 138.022 104.932V98.0917C138.102 93.0117 135.262 89.9317 129.782 89.9317C126.982 89.9317 124.702 90.7317 123.142 92.2117C121.462 93.7717 120.942 95.7717 121.182 97.6917L127.222 97.0117C127.142 96.5317 127.222 95.9717 127.542 95.5717C127.942 95.0917 128.742 94.7717 129.662 94.8117C131.062 94.8117 131.862 95.5317 131.862 96.4117C131.862 96.9317 131.582 97.2117 131.182 97.4117C130.742 97.6117 129.302 97.8517 127.822 98.2117C126.502 98.5317 124.702 98.9717 123.702 99.4917C121.262 100.652 120.342 102.612 120.382 105.092C120.382 108.252 122.982 110.892 127.062 110.892C129.902 110.852 131.622 109.612 132.502 108.012C132.742 107.572 132.982 106.772 133.142 106.132C133.182 105.852 133.222 105.532 133.222 105.532L133.302 105.572L133.262 105.852C133.182 106.212 133.142 106.572 133.102 106.932C133.102 107.212 133.062 107.692 133.062 108.092C133.062 109.332 133.902 110.252 135.382 110.292H139.342V105.332ZM155.801 100.412C155.801 103.492 154.361 105.412 152.121 105.412C149.841 105.412 148.481 103.492 148.481 100.412C148.481 97.3317 149.841 95.4117 152.121 95.4117C154.361 95.4117 155.801 97.3317 155.801 100.412ZM148.121 117.332V108.692C148.121 107.932 148.041 107.212 147.921 106.492L147.801 106.092L147.881 106.052L148.121 107.092C148.441 108.492 149.401 110.892 153.521 110.892C158.841 110.892 161.961 106.332 161.961 100.412C161.961 94.4917 158.841 89.9317 153.521 89.9317C149.401 89.9317 148.441 92.3717 148.121 93.7317L147.881 94.7717L147.801 94.7317L147.921 94.3317C148.041 93.6117 148.121 92.8917 148.121 92.1717V90.5317H142.001V117.332H148.121ZM178.145 100.412C178.145 103.492 176.705 105.412 174.465 105.412C172.185 105.412 170.825 103.492 170.825 100.412C170.825 97.3317 172.185 95.4117 174.465 95.4117C176.705 95.4117 178.145 97.3317 178.145 100.412ZM170.465 117.332V108.692C170.465 107.932 170.385 107.212 170.265 106.492L170.145 106.092L170.225 106.052L170.465 107.092C170.785 108.492 171.745 110.892 175.865 110.892C181.185 110.892 184.305 106.332 184.305 100.412C184.305 94.4917 181.185 89.9317 175.865 89.9317C171.745 89.9317 170.785 92.3717 170.465 93.7317L170.225 94.7717L170.145 94.7317L170.265 94.3317C170.385 93.6117 170.465 92.8917 170.465 92.1717V90.5317H164.345V117.332H170.465ZM186.999 107.012C186.999 108.812 188.439 110.292 190.239 110.292H195.919V104.812H193.599C193.319 104.812 193.119 104.612 193.119 104.372V83.5317H186.999C186.999 83.5317 186.999 106.852 186.999 107.012ZM198.289 110.292H204.449C204.449 109.012 204.449 90.5717 204.449 90.5317H198.289V110.292ZM201.369 89.2117C203.169 89.2117 204.609 87.7317 204.609 85.9717C204.609 84.1717 203.169 82.7317 201.369 82.7317C199.609 82.7317 198.169 84.1717 198.169 85.9717C198.169 87.7317 199.609 89.2117 201.369 89.2117ZM220.149 101.372C219.909 103.932 218.549 105.412 216.549 105.412C214.269 105.412 212.829 103.492 212.829 100.412C212.829 97.3317 214.269 95.4117 216.549 95.4117C218.549 95.4117 219.909 96.9317 220.149 99.4517L226.269 98.8917C225.709 93.2517 221.749 89.9317 216.549 89.9317C210.869 89.9317 206.709 93.8917 206.709 100.412C206.709 106.972 210.869 110.892 216.549 110.892C221.749 110.892 225.709 107.612 226.269 101.972L220.149 101.372ZM239.675 102.612C239.675 104.132 238.355 105.652 236.235 105.652C235.035 105.652 234.395 105.092 234.315 104.332C234.275 103.492 234.835 102.812 236.115 102.572C237.115 102.412 238.155 102.172 238.675 102.012C239.475 101.852 239.715 101.652 239.715 101.652L239.675 102.612ZM247.115 105.332H246.195C245.995 105.332 245.795 105.132 245.795 104.932V98.0917C245.875 93.0117 243.035 89.9317 237.555 89.9317C234.755 89.9317 232.475 90.7317 230.915 92.2117C229.235 93.7717 228.715 95.7717 228.955 97.6917L234.995 97.0117C234.915 96.5317 234.995 95.9717 235.315 95.5717C235.715 95.0917 236.515 94.7717 237.435 94.8117C238.835 94.8117 239.635 95.5317 239.635 96.4117C239.635 96.9317 239.355 97.2117 238.955 97.4117C238.515 97.6117 237.075 97.8517 235.595 98.2117C234.275 98.5317 232.475 98.9717 231.475 99.4917C229.035 100.652 228.115 102.612 228.155 105.092C228.155 108.252 230.755 110.892 234.835 110.892C237.675 110.852 239.395 109.612 240.275 108.012C240.515 107.572 240.755 106.772 240.915 106.132C240.955 105.852 240.995 105.532 240.995 105.532L241.075 105.572L241.035 105.852C240.955 106.212 240.915 106.572 240.875 106.932C240.875 107.212 240.835 107.692 240.835 108.092C240.835 109.332 241.675 110.252 243.155 110.292H247.115V105.332ZM257.155 104.812C256.915 104.812 256.715 104.612 256.715 104.372V95.4917H259.795V90.5317H256.715V83.4917H251.315C251.315 83.4917 251.315 88.0117 251.315 88.6117C251.315 89.8117 250.355 90.7717 249.155 90.7717H247.755V95.4917H250.555C250.555 96.7317 250.555 106.892 250.555 107.012C250.555 108.812 251.995 110.252 253.835 110.252H260.915V104.812H257.155ZM263.446 110.292H269.606C269.606 109.012 269.606 90.5717 269.606 90.5317H263.446V110.292ZM266.526 89.2117C268.326 89.2117 269.766 87.7317 269.766 85.9717C269.766 84.1717 268.326 82.7317 266.526 82.7317C264.766 82.7317 263.326 84.1717 263.326 85.9717C263.326 87.7317 264.766 89.2117 266.526 89.2117ZM277.985 100.412C277.985 97.3317 279.425 95.4117 281.705 95.4117C283.945 95.4117 285.385 97.3317 285.385 100.412C285.385 103.492 283.945 105.412 281.705 105.412C279.425 105.412 277.985 103.492 277.985 100.412ZM291.545 100.412C291.545 93.8917 287.345 89.9317 281.705 89.9317C276.025 89.9317 271.865 93.8917 271.865 100.412C271.865 106.972 276.025 110.892 281.705 110.892C287.345 110.892 291.545 106.972 291.545 100.412ZM312.197 98.6917C312.197 93.4517 309.837 89.9317 305.317 89.9317C302.837 89.9317 301.477 90.8517 300.717 91.8517C300.277 92.4517 300.037 93.1317 299.917 93.6917L299.717 94.6117H299.637L299.757 94.2117C299.877 93.4917 299.957 92.7317 299.957 92.0117V90.5317H293.837V110.292H299.957V100.092C299.957 97.1717 300.917 95.4117 303.037 95.4117C305.157 95.4117 306.037 97.1317 306.037 100.212C306.037 100.852 306.037 110.292 306.037 110.292H312.197V98.6917Z" fill="#FFF6E9"/>
<path d="M97.6491 163.787L94.1931 175.667C94.0731 176.027 94.0251 176.387 94.0251 176.723V177.107H94.0011V176.747C94.0011 176.387 93.9291 176.027 93.8331 175.691L90.2571 163.787H88.5771L85.0011 175.691C84.8811 176.027 84.8331 176.387 84.8331 176.747V177.107H84.7851V176.723C84.7851 176.387 84.7371 176.027 84.6411 175.667L81.1611 163.787H79.1211L83.8251 179.867H85.7451L89.2491 168.179C89.3451 167.819 89.3931 167.483 89.3931 167.123V166.667H89.4411V167.123C89.4411 167.483 89.4891 167.819 89.5851 168.179L93.0891 179.867H95.0091L99.7131 163.787H97.6491ZM104.625 169.331C106.761 169.331 108.033 170.939 108.249 173.123H100.977C101.193 170.939 102.489 169.331 104.625 169.331ZM110.145 174.491C110.169 174.323 110.193 174.131 110.193 173.939C110.193 170.267 107.937 167.651 104.625 167.651C101.312 167.651 99.0565 170.267 99.0565 173.939C99.0565 177.611 101.312 180.227 104.625 180.227C107.289 180.227 109.233 178.523 109.929 175.979L108.057 175.643C107.649 177.347 106.449 178.547 104.625 178.547C102.393 178.547 101.097 176.795 100.977 174.491H110.145ZM112.187 163.427C111.755 163.523 111.419 163.883 111.395 164.339C111.395 164.483 111.419 164.651 111.491 164.795C111.563 164.915 111.515 165.011 111.467 165.083L110.579 166.019L111.467 166.883L113.147 165.083C113.387 164.819 113.435 164.483 113.363 164.171C113.219 163.643 112.715 163.331 112.187 163.427ZM123.14 168.011L119.684 177.827C119.612 178.043 119.564 178.307 119.564 178.547V178.979H119.516V178.547C119.516 178.307 119.492 178.067 119.42 177.827L115.964 168.011H114.068L118.22 179.867H120.884L125.036 168.011H123.14ZM130.734 169.331C132.87 169.331 134.142 170.939 134.358 173.123H127.086C127.302 170.939 128.598 169.331 130.734 169.331ZM136.254 174.491C136.278 174.323 136.302 174.131 136.302 173.939C136.302 170.267 134.046 167.651 130.734 167.651C127.422 167.651 125.166 170.267 125.166 173.939C125.166 177.611 127.422 180.227 130.734 180.227C133.398 180.227 135.342 178.523 136.038 175.979L134.166 175.643C133.758 177.347 132.558 178.547 130.734 178.547C128.502 178.547 127.206 176.795 127.086 174.491H136.254ZM147.887 169.667H150.263V167.987H147.743C147.743 167.987 147.575 166.859 147.575 166.307C147.575 165.731 147.911 165.347 148.367 165.347H149.375V163.787H147.695C146.423 163.787 145.871 164.675 145.871 165.659C145.871 166.379 146.015 167.147 146.159 167.555C146.207 167.747 146.351 167.891 146.519 167.987C146.591 168.035 146.807 168.155 146.879 168.155V168.203C146.831 168.203 146.687 168.155 146.639 168.131C146.327 168.059 145.991 167.987 145.679 167.987H143.975V169.667H146.039V179.843H147.887V169.667ZM152.795 173.939C152.795 171.299 154.163 169.331 156.539 169.331C158.891 169.331 160.259 171.299 160.259 173.939C160.259 176.579 158.891 178.547 156.539 178.547C154.163 178.547 152.795 176.579 152.795 173.939ZM162.107 173.939C162.107 170.267 159.851 167.651 156.539 167.651C153.227 167.651 150.971 170.267 150.971 173.939C150.971 177.611 153.227 180.227 156.539 180.227C159.851 180.227 162.107 177.611 162.107 173.939ZM163.939 168.011V174.779C163.939 178.283 165.475 180.203 168.403 180.203C170.707 180.203 171.763 178.787 172.147 177.851L172.435 176.963L172.459 176.987L172.387 177.275C172.291 177.635 172.243 177.971 172.243 178.331V179.843H174.067V168.011H172.243V174.659C172.243 176.987 170.923 178.547 168.955 178.547C166.723 178.547 165.763 177.059 165.763 174.419C165.763 172.883 165.763 168.011 165.763 168.011H163.939ZM186.657 173.099C186.657 169.595 184.977 167.651 182.193 167.651C180.585 167.651 179.529 168.371 178.929 169.115C178.641 169.475 178.473 169.907 178.353 170.291L178.161 170.915L178.113 170.891L178.209 170.579C178.305 170.243 178.353 169.883 178.353 169.523V168.011H176.529V179.867H178.353V173.219C178.353 170.891 179.649 169.331 181.641 169.331C183.729 169.331 184.833 170.819 184.833 173.459C184.833 174.995 184.833 179.867 184.833 179.867H186.657V173.099ZM190.295 173.939C190.295 171.275 191.663 169.307 194.039 169.307C196.391 169.307 197.615 171.275 197.615 173.939C197.615 176.579 196.415 178.547 194.039 178.547C191.663 178.547 190.295 176.579 190.295 173.939ZM197.687 163.787V169.883C197.687 170.243 197.735 170.603 197.831 170.939L197.927 171.251H197.903L197.615 170.387C197.303 169.355 196.415 167.651 193.703 167.651C190.559 167.651 188.471 170.267 188.471 173.939C188.471 177.587 190.535 180.203 193.703 180.203C196.415 180.203 197.327 178.475 197.639 177.443L197.903 176.603H197.927L197.831 176.915C197.735 177.251 197.687 177.611 197.687 177.971V179.867H199.535V163.787H197.687ZM211.565 178.187C211.493 178.187 211.445 178.115 211.445 178.043V169.547H213.533V167.987H211.445V163.787H209.765C209.765 163.811 209.765 165.851 209.765 167.291C209.765 167.723 209.429 168.059 208.997 168.059H207.773V169.547H209.597C209.597 172.499 209.597 178.475 209.597 178.715C209.597 179.339 210.101 179.843 210.725 179.843H214.061V178.187H211.565ZM225.282 179.867V173.099C225.282 169.595 223.722 167.651 220.818 167.651C219.498 167.651 218.538 168.179 217.914 168.779C217.41 169.235 217.122 169.811 216.954 170.339L216.786 170.915L216.738 170.891L216.834 170.579C216.93 170.243 216.978 169.883 216.978 169.523V163.811H215.154V179.867H216.978V173.219C216.978 170.891 218.274 169.331 220.266 169.331C222.498 169.331 223.458 170.819 223.458 173.459C223.458 174.995 223.458 179.867 223.458 179.867H225.282ZM232.687 169.331C234.823 169.331 236.095 170.939 236.311 173.123H229.039C229.255 170.939 230.551 169.331 232.687 169.331ZM238.207 174.491C238.231 174.323 238.255 174.131 238.255 173.939C238.255 170.267 235.999 167.651 232.687 167.651C229.375 167.651 227.119 170.267 227.119 173.939C227.119 177.611 229.375 180.227 232.687 180.227C235.351 180.227 237.295 178.523 237.991 175.979L236.119 175.643C235.711 177.347 234.511 178.547 232.687 178.547C230.455 178.547 229.159 176.795 229.039 174.491H238.207ZM255.6 175.115C255.24 177.155 253.968 178.547 251.976 178.547C249.6 178.547 248.232 176.579 248.232 173.939C248.232 171.299 249.6 169.331 251.976 169.331C253.968 169.331 255.24 170.723 255.6 172.763L257.424 172.571C256.944 169.595 254.856 167.651 251.976 167.651C248.664 167.651 246.408 170.267 246.408 173.939C246.408 177.611 248.664 180.227 251.976 180.227C254.856 180.227 256.944 178.283 257.424 175.331L255.6 175.115ZM260.677 173.939C260.677 171.299 262.045 169.331 264.421 169.331C266.773 169.331 268.141 171.299 268.141 173.939C268.141 176.579 266.773 178.547 264.421 178.547C262.045 178.547 260.677 176.579 260.677 173.939ZM269.989 173.939C269.989 170.267 267.733 167.651 264.421 167.651C261.109 167.651 258.853 170.267 258.853 173.939C258.853 177.611 261.109 180.227 264.421 180.227C267.733 180.227 269.989 177.611 269.989 173.939ZM280.683 169.979C280.035 168.227 278.691 167.651 277.203 167.651C275.643 167.651 274.731 168.371 274.179 169.115C273.867 169.499 273.675 169.931 273.555 170.339L273.387 170.915L273.339 170.891L273.435 170.579C273.531 170.243 273.579 169.883 273.579 169.523V168.011H271.755V179.867H273.579V173.219C273.579 170.891 274.683 169.331 276.531 169.331C278.115 169.331 279.315 170.243 279.315 173.219C279.315 174.731 279.315 179.867 279.315 179.867H281.163V173.219C281.163 170.891 282.243 169.331 284.115 169.331C285.699 169.331 286.899 170.435 286.899 173.099C286.899 174.611 286.899 179.867 286.899 179.867H288.747V172.595C288.747 169.115 286.875 167.651 284.595 167.651C282.651 167.651 281.643 168.851 281.211 169.619C280.995 170.003 280.851 170.387 280.803 170.627C280.779 170.675 280.731 170.915 280.731 170.915L280.707 170.891L280.731 170.723C280.803 170.435 280.779 170.195 280.683 169.979ZM300.26 173.939C300.26 176.579 298.916 178.547 296.54 178.547C294.188 178.547 292.964 176.579 292.964 173.939C292.964 171.299 294.164 169.331 296.54 169.331C298.892 169.331 300.26 171.299 300.26 173.939ZM292.868 177.995C292.868 177.635 292.82 177.275 292.724 176.939L292.628 176.627L292.676 176.603L292.94 177.491C293.252 178.499 294.164 180.227 296.876 180.227C300.02 180.227 302.108 177.611 302.108 173.939C302.108 170.291 300.02 167.651 296.876 167.651C294.164 167.651 293.252 169.379 292.94 170.435L292.676 171.275L292.628 171.251L292.724 170.963C292.82 170.603 292.868 170.243 292.868 169.883V168.011H291.044V184.091H292.868V177.995ZM310.952 174.971C310.952 176.963 309.656 178.595 307.28 178.595C305.936 178.595 305.072 177.851 304.952 176.819C304.832 175.739 305.456 174.683 306.992 174.395C307.832 174.251 309.272 173.963 309.824 173.843C310.736 173.675 310.952 173.387 310.952 173.387V174.971ZM313.76 178.307H312.92C312.848 178.307 312.8 178.259 312.8 178.187V172.139C312.824 169.331 311.24 167.651 308.216 167.651C306.632 167.651 305.288 168.179 304.448 169.139C303.656 170.027 303.416 171.155 303.656 172.259L305.456 171.995C305.336 171.419 305.36 170.699 305.816 170.123C306.2 169.667 306.92 169.187 308.192 169.187C309.944 169.187 310.88 170.147 310.88 171.323C310.88 171.803 310.664 172.115 310.256 172.283C309.896 172.427 309.248 172.523 308.408 172.691C307.76 172.835 306.632 173.075 305.864 173.291C303.68 173.891 303.056 175.355 303.104 176.867C303.128 178.595 304.496 180.227 306.968 180.227C308.576 180.227 309.776 179.603 310.544 178.667C310.904 178.211 311.144 177.611 311.264 177.011C311.288 176.963 311.36 176.603 311.36 176.603H311.384L311.36 176.771C311.288 177.131 311.264 177.491 311.24 177.851C311.24 177.995 311.24 178.547 311.24 178.979C311.24 179.483 311.6 179.867 312.152 179.867H313.76V178.307ZM325.711 173.099C325.711 169.595 324.031 167.651 321.247 167.651C319.639 167.651 318.583 168.371 317.983 169.115C317.695 169.475 317.527 169.907 317.407 170.291L317.215 170.915L317.167 170.891L317.263 170.579C317.359 170.243 317.407 169.883 317.407 169.523V168.011H315.583V179.867H317.407V173.219C317.407 170.891 318.703 169.331 320.695 169.331C322.783 169.331 323.887 170.819 323.887 173.459C323.887 174.995 323.887 179.867 323.887 179.867H325.711V173.099ZM335.251 167.987L331.771 176.603C331.699 176.819 331.651 177.035 331.651 177.251V177.659H331.603V177.251C331.603 177.035 331.555 176.819 331.483 176.603L328.003 167.987H326.035L330.355 178.595C330.547 179.051 330.547 179.531 330.355 179.987L328.699 184.067H330.667L337.219 167.987H335.251ZM337.59 178.763C337.446 178.259 336.942 177.923 336.414 178.043C335.982 178.115 335.646 178.499 335.622 178.931C335.622 179.099 335.646 179.267 335.718 179.411C335.79 179.507 335.742 179.627 335.694 179.699L334.806 180.635L335.694 181.475L337.374 179.675C337.614 179.435 337.662 179.099 337.59 178.763ZM356.11 173.099C356.11 169.595 354.43 167.651 351.646 167.651C350.038 167.651 348.982 168.371 348.382 169.115C348.094 169.475 347.926 169.907 347.806 170.291L347.614 170.915L347.566 170.891L347.662 170.579C347.758 170.243 347.806 169.883 347.806 169.523V168.011H345.982V179.867H347.806V173.219C347.806 170.891 349.102 169.331 351.094 169.331C353.182 169.331 354.286 170.819 354.286 173.459C354.286 174.995 354.286 179.867 354.286 179.867H356.11V173.099ZM359.49 173.939C359.49 171.299 360.858 169.331 363.234 169.331C365.586 169.331 366.954 171.299 366.954 173.939C366.954 176.579 365.586 178.547 363.234 178.547C360.858 178.547 359.49 176.579 359.49 173.939ZM368.802 173.939C368.802 170.267 366.546 167.651 363.234 167.651C359.922 167.651 357.666 170.267 357.666 173.939C357.666 177.611 359.922 180.227 363.234 180.227C366.546 180.227 368.802 177.611 368.802 173.939ZM384.407 168.011L381.623 176.387C381.527 176.651 381.479 176.915 381.479 177.203V177.611H381.431V177.203C381.431 176.915 381.407 176.651 381.311 176.387L378.527 168.011H376.703L373.919 176.387C373.847 176.651 373.799 176.915 373.799 177.203V177.611H373.751V177.203C373.751 176.915 373.703 176.651 373.631 176.387L370.847 168.011H368.951L372.767 179.867H374.591L377.471 171.323C377.543 171.059 377.591 170.771 377.591 170.483V170.147H377.639V170.483C377.639 170.771 377.687 171.059 377.783 171.323L380.639 179.867H382.463L386.303 168.011H384.407ZM83.1291 193.667H85.5051V191.987H82.9851C82.9851 191.987 82.8171 190.859 82.8171 190.307C82.8171 189.731 83.1531 189.347 83.6091 189.347H84.6171V187.787H82.9371C81.6651 187.787 81.1131 188.675 81.1131 189.659C81.1131 190.379 81.2571 191.147 81.4011 191.555C81.4491 191.747 81.5931 191.891 81.7611 191.987C81.8331 192.035 82.0491 192.155 82.1211 192.155V192.203C82.0731 192.203 81.9291 192.155 81.8811 192.131C81.5691 192.059 81.2331 191.987 80.9211 191.987H79.2171V193.667H81.2811V203.843H83.1291V193.667ZM88.0368 197.939C88.0368 195.299 89.4048 193.331 91.7808 193.331C94.1328 193.331 95.5008 195.299 95.5008 197.939C95.5008 200.579 94.1328 202.547 91.7808 202.547C89.4048 202.547 88.0368 200.579 88.0368 197.939ZM97.3488 197.939C97.3488 194.267 95.0928 191.651 91.7808 191.651C88.4688 191.651 86.2128 194.267 86.2128 197.939C86.2128 201.611 88.4688 204.227 91.7808 204.227C95.0928 204.227 97.3488 201.611 97.3488 197.939ZM100.939 203.867V198.035C100.939 196.043 101.875 193.427 102.835 193.427C103.483 193.427 103.675 194.291 103.675 194.963V196.283H105.523V194.579C105.523 192.803 104.947 191.651 103.555 191.651C102.835 191.651 102.235 192.179 101.803 192.803C101.371 193.403 101.131 194.099 101.059 194.507C101.035 194.579 100.939 195.155 100.915 195.227L100.843 195.683H100.819L100.867 195.371C100.915 194.987 100.939 194.627 100.939 194.243V192.011H99.1146V203.867H100.939ZM116.784 202.187C116.712 202.187 116.664 202.115 116.664 202.043V193.547H118.752V191.987H116.664V187.787H114.984C114.984 187.811 114.984 189.851 114.984 191.291C114.984 191.723 114.648 192.059 114.216 192.059H112.992V193.547H114.816C114.816 196.499 114.816 202.475 114.816 202.715C114.816 203.339 115.32 203.843 115.944 203.843H119.28V202.187H116.784ZM130.5 203.867V197.099C130.5 193.595 128.94 191.651 126.036 191.651C124.716 191.651 123.756 192.179 123.132 192.779C122.628 193.235 122.34 193.811 122.172 194.339L122.004 194.915L121.956 194.891L122.052 194.579C122.148 194.243 122.196 193.883 122.196 193.523V187.811H120.372V203.867H122.196V197.219C122.196 194.891 123.492 193.331 125.484 193.331C127.716 193.331 128.676 194.819 128.676 197.459C128.676 198.995 128.676 203.867 128.676 203.867H130.5ZM137.906 193.331C140.042 193.331 141.314 194.939 141.53 197.123H134.258C134.474 194.939 135.77 193.331 137.906 193.331ZM143.426 198.491C143.45 198.323 143.474 198.131 143.474 197.939C143.474 194.267 141.218 191.651 137.906 191.651C134.594 191.651 132.338 194.267 132.338 197.939C132.338 201.611 134.594 204.227 137.906 204.227C140.57 204.227 142.514 202.523 143.21 199.979L141.338 199.643C140.93 201.347 139.73 202.547 137.906 202.547C135.674 202.547 134.378 200.795 134.258 198.491H143.426ZM153.931 203.867V198.035C153.931 196.043 154.867 193.427 155.827 193.427C156.475 193.427 156.667 194.291 156.667 194.963V196.283H158.515V194.579C158.515 192.803 157.939 191.651 156.547 191.651C155.827 191.651 155.227 192.179 154.795 192.803C154.363 193.403 154.123 194.099 154.051 194.507C154.027 194.579 153.931 195.155 153.907 195.227L153.835 195.683H153.811L153.859 195.371C153.907 194.987 153.931 194.627 153.931 194.243V192.011H152.107V203.867H153.931ZM161.56 197.939C161.56 195.299 162.928 193.331 165.304 193.331C167.656 193.331 169.024 195.299 169.024 197.939C169.024 200.579 167.656 202.547 165.304 202.547C162.928 202.547 161.56 200.579 161.56 197.939ZM170.872 197.939C170.872 194.267 168.616 191.651 165.304 191.651C161.992 191.651 159.736 194.267 159.736 197.939C159.736 201.611 161.992 204.227 165.304 204.227C168.616 204.227 170.872 201.611 170.872 197.939ZM172.848 202.739C172.848 203.363 173.352 203.867 173.976 203.867H176.976V202.187H174.816C174.744 202.187 174.672 202.139 174.672 202.043V187.811H172.848C172.824 187.883 172.824 202.355 172.848 202.739ZM183.07 193.331C185.206 193.331 186.478 194.939 186.694 197.123H179.422C179.638 194.939 180.934 193.331 183.07 193.331ZM188.59 198.491C188.614 198.323 188.638 198.131 188.638 197.939C188.638 194.267 186.382 191.651 183.07 191.651C179.758 191.651 177.502 194.267 177.502 197.939C177.502 201.611 179.758 204.227 183.07 204.227C185.734 204.227 187.678 202.523 188.374 199.979L186.502 199.643C186.094 201.347 184.894 202.547 183.07 202.547C180.838 202.547 179.542 200.795 179.422 198.491H188.59ZM189.798 204.011C190.374 204.011 190.83 203.531 190.83 202.979C190.83 202.403 190.374 201.947 189.798 201.947C189.246 201.947 188.79 202.403 188.79 202.979C188.79 203.531 189.246 204.011 189.798 204.011ZM201.257 203.867V187.787H199.289V203.867H201.257ZM206.809 193.667H209.185V191.987H206.665C206.665 191.987 206.497 190.859 206.497 190.307C206.497 189.731 206.833 189.347 207.289 189.347H208.297V187.787H206.617C205.345 187.787 204.793 188.675 204.793 189.659C204.793 190.379 204.937 191.147 205.081 191.555C205.129 191.747 205.273 191.891 205.441 191.987C205.513 192.035 205.729 192.155 205.801 192.155V192.203C205.753 192.203 205.609 192.155 205.561 192.131C205.249 192.059 204.913 191.987 204.601 191.987H202.897V193.667H204.961V203.843H206.809V193.667ZM220.19 202.187C220.118 202.187 220.07 202.115 220.07 202.043V193.547H222.158V191.987H220.07V187.787H218.39C218.39 187.811 218.39 189.851 218.39 191.291C218.39 191.723 218.054 192.059 217.622 192.059H216.398V193.547H218.222C218.222 196.499 218.222 202.475 218.222 202.715C218.222 203.339 218.726 203.843 219.35 203.843H222.686V202.187H220.19ZM233.907 203.867V197.099C233.907 193.595 232.347 191.651 229.443 191.651C228.123 191.651 227.163 192.179 226.539 192.779C226.035 193.235 225.747 193.811 225.579 194.339L225.411 194.915L225.363 194.891L225.459 194.579C225.555 194.243 225.603 193.883 225.603 193.523V187.811H223.779V203.867H225.603V197.219C225.603 194.891 226.899 193.331 228.891 193.331C231.123 193.331 232.083 194.819 232.083 197.459C232.083 198.995 232.083 203.867 232.083 203.867H233.907ZM241.312 193.331C243.448 193.331 244.72 194.939 244.936 197.123H237.664C237.88 194.939 239.176 193.331 241.312 193.331ZM246.832 198.491C246.856 198.323 246.88 198.131 246.88 197.939C246.88 194.267 244.624 191.651 241.312 191.651C238 191.651 235.744 194.267 235.744 197.939C235.744 201.611 238 204.227 241.312 204.227C243.976 204.227 245.92 202.523 246.616 199.979L244.744 199.643C244.336 201.347 243.136 202.547 241.312 202.547C239.08 202.547 237.784 200.795 237.664 198.491H246.832ZM256.009 191.987L252.529 200.603C252.457 200.819 252.409 201.035 252.409 201.251V201.659H252.361V201.251C252.361 201.035 252.313 200.819 252.241 200.603L248.761 191.987H246.793L251.113 202.595C251.305 203.051 251.305 203.531 251.113 203.987L249.457 208.067H251.425L257.977 191.987H256.009ZM260.687 187.427C260.255 187.523 259.919 187.883 259.895 188.339C259.895 188.483 259.919 188.651 259.991 188.795C260.063 188.915 260.015 189.011 259.967 189.083L259.079 190.019L259.967 190.883L261.647 189.083C261.887 188.819 261.935 188.483 261.863 188.171C261.719 187.643 261.215 187.331 260.687 187.427ZM271.64 192.011L268.184 201.827C268.112 202.043 268.064 202.307 268.064 202.547V202.979H268.016V202.547C268.016 202.307 267.992 202.067 267.92 201.827L264.464 192.011H262.568L266.72 203.867H269.384L273.536 192.011H271.64ZM279.234 193.331C281.37 193.331 282.642 194.939 282.858 197.123H275.586C275.802 194.939 277.098 193.331 279.234 193.331ZM284.754 198.491C284.778 198.323 284.802 198.131 284.802 197.939C284.802 194.267 282.546 191.651 279.234 191.651C275.922 191.651 273.666 194.267 273.666 197.939C273.666 201.611 275.922 204.227 279.234 204.227C281.898 204.227 283.842 202.523 284.538 199.979L282.666 199.643C282.258 201.347 281.058 202.547 279.234 202.547C277.002 202.547 275.706 200.795 275.586 198.491H284.754ZM298.523 202.547C296.147 202.547 294.779 200.579 294.779 197.939C294.779 195.299 296.147 193.331 298.523 193.331C300.875 193.331 302.099 195.299 302.099 197.939C302.099 200.579 300.899 202.547 298.523 202.547ZM304.019 202.067V192.011H302.171V193.883C302.171 194.243 302.219 194.603 302.315 194.963L302.411 195.251L302.387 195.275L302.099 194.387C301.787 193.379 300.899 191.651 298.187 191.651C295.043 191.651 292.955 194.291 292.955 197.939C292.955 201.587 295.019 204.227 298.187 204.227C300.899 204.227 301.811 202.499 302.123 201.467L302.387 200.603L302.411 200.627L302.315 200.939C302.243 201.203 302.195 201.491 302.195 201.779C302.195 201.851 302.171 202.499 302.171 202.571C302.171 203.675 302.771 204.371 302.771 205.187C302.771 206.339 301.835 206.555 300.779 206.531H294.875V208.091H301.427C303.659 208.091 304.667 207.227 304.667 205.475C304.667 204.011 304.019 203.675 304.019 202.067ZM307.623 197.939C307.623 195.299 308.991 193.331 311.367 193.331C313.719 193.331 315.087 195.299 315.087 197.939C315.087 200.579 313.719 202.547 311.367 202.547C308.991 202.547 307.623 200.579 307.623 197.939ZM316.935 197.939C316.935 194.267 314.679 191.651 311.367 191.651C308.055 191.651 305.799 194.267 305.799 197.939C305.799 201.611 308.055 204.227 311.367 204.227C314.679 204.227 316.935 201.611 316.935 197.939ZM321.815 202.187C321.743 202.187 321.695 202.115 321.695 202.043V193.547H323.783V191.987H321.695V187.787H320.015C320.015 187.811 320.015 189.851 320.015 191.291C320.015 191.723 319.679 192.059 319.247 192.059H318.023V193.547H319.847C319.847 196.499 319.847 202.475 319.847 202.715C319.847 203.339 320.351 203.843 320.975 203.843H324.311V202.187H321.815ZM88.9851 224.771C88.9851 222.275 86.6811 221.579 84.7611 221.099C83.7291 220.835 81.7851 220.403 81.7851 218.939C81.7851 218.051 82.5051 217.187 84.2811 217.187C86.2491 217.187 86.8491 218.267 86.8491 219.467H88.5531C88.5531 217.523 87.4491 215.651 84.2331 215.651C81.1851 215.651 79.9371 217.139 79.9371 218.771C79.9371 220.907 81.5691 221.771 83.8251 222.323C86.0571 222.851 87.1371 223.499 87.1371 224.675C87.1371 225.971 86.0091 226.667 84.4491 226.667C81.8571 226.667 81.4971 224.819 81.4971 224.075H79.6731C79.6731 226.067 80.9451 228.203 84.5211 228.203C87.6411 228.203 88.9851 226.643 88.9851 224.771ZM92.3258 221.939C92.3258 219.299 93.6938 217.331 96.0698 217.331C98.4218 217.331 99.7898 219.299 99.7898 221.939C99.7898 224.579 98.4218 226.547 96.0698 226.547C93.6938 226.547 92.3258 224.579 92.3258 221.939ZM101.638 221.939C101.638 218.267 99.3818 215.651 96.0698 215.651C92.7578 215.651 90.5018 218.267 90.5018 221.939C90.5018 225.611 92.7578 228.227 96.0698 228.227C99.3818 228.227 101.638 225.611 101.638 221.939ZM112.332 217.979C111.684 216.227 110.34 215.651 108.852 215.651C107.292 215.651 106.38 216.371 105.828 217.115C105.516 217.499 105.324 217.931 105.204 218.339L105.036 218.915L104.988 218.891L105.084 218.579C105.18 218.243 105.228 217.883 105.228 217.523V216.011H103.404V227.867H105.228V221.219C105.228 218.891 106.332 217.331 108.18 217.331C109.764 217.331 110.964 218.243 110.964 221.219C110.964 222.731 110.964 227.867 110.964 227.867H112.812V221.219C112.812 218.891 113.892 217.331 115.764 217.331C117.348 217.331 118.548 218.435 118.548 221.099C118.548 222.611 118.548 227.867 118.548 227.867H120.396V220.595C120.396 217.115 118.524 215.651 116.244 215.651C114.3 215.651 113.292 216.851 112.86 217.619C112.644 218.003 112.5 218.387 112.452 218.627C112.428 218.675 112.38 218.915 112.38 218.915L112.356 218.891L112.38 218.723C112.452 218.435 112.428 218.195 112.332 217.979ZM127.523 217.331C129.659 217.331 130.931 218.939 131.147 221.123H123.875C124.091 218.939 125.387 217.331 127.523 217.331ZM133.043 222.491C133.067 222.323 133.091 222.131 133.091 221.939C133.091 218.267 130.835 215.651 127.523 215.651C124.211 215.651 121.955 218.267 121.955 221.939C121.955 225.611 124.211 228.227 127.523 228.227C130.187 228.227 132.131 226.523 132.827 223.979L130.955 223.643C130.547 225.347 129.347 226.547 127.523 226.547C125.291 226.547 123.995 224.795 123.875 222.491H133.043ZM137.385 226.187C137.313 226.187 137.265 226.115 137.265 226.043V217.547H139.353V215.987H137.265V211.787H135.585C135.585 211.811 135.585 213.851 135.585 215.291C135.585 215.723 135.249 216.059 134.817 216.059H133.593V217.547H135.417C135.417 220.499 135.417 226.475 135.417 226.715C135.417 227.339 135.921 227.843 136.545 227.843H139.881V226.187H137.385ZM151.102 227.867V221.099C151.102 217.595 149.542 215.651 146.638 215.651C145.318 215.651 144.358 216.179 143.734 216.779C143.23 217.235 142.942 217.811 142.774 218.339L142.606 218.915L142.558 218.891L142.654 218.579C142.75 218.243 142.798 217.883 142.798 217.523V211.811H140.974V227.867H142.798V221.219C142.798 218.891 144.094 217.331 146.086 217.331C148.318 217.331 149.278 218.819 149.278 221.459C149.278 222.995 149.278 227.867 149.278 227.867H151.102ZM153.419 227.867H155.267C155.267 224.843 155.267 216.059 155.267 216.011H153.419V227.867ZM154.331 214.331C154.907 214.331 155.363 213.875 155.363 213.323C155.363 212.747 154.907 212.291 154.331 212.291C153.779 212.291 153.323 212.747 153.323 213.323C153.323 213.875 153.779 214.331 154.331 214.331ZM167.86 221.099C167.86 217.595 166.18 215.651 163.396 215.651C161.788 215.651 160.732 216.371 160.132 217.115C159.844 217.475 159.676 217.907 159.556 218.291L159.364 218.915L159.316 218.891L159.412 218.579C159.508 218.243 159.556 217.883 159.556 217.523V216.011H157.732V227.867H159.556V221.219C159.556 218.891 160.852 217.331 162.844 217.331C164.932 217.331 166.036 218.819 166.036 221.459C166.036 222.995 166.036 227.867 166.036 227.867H167.86V221.099ZM174.984 226.547C172.608 226.547 171.24 224.579 171.24 221.939C171.24 219.299 172.608 217.331 174.984 217.331C177.336 217.331 178.56 219.299 178.56 221.939C178.56 224.579 177.36 226.547 174.984 226.547ZM180.48 226.067V216.011H178.632V217.883C178.632 218.243 178.68 218.603 178.776 218.963L178.872 219.251L178.848 219.275L178.56 218.387C178.248 217.379 177.36 215.651 174.648 215.651C171.504 215.651 169.416 218.291 169.416 221.939C169.416 225.587 171.48 228.227 174.648 228.227C177.36 228.227 178.272 226.499 178.584 225.467L178.848 224.603L178.872 224.627L178.776 224.939C178.704 225.203 178.656 225.491 178.656 225.779C178.656 225.851 178.632 226.499 178.632 226.571C178.632 227.675 179.232 228.371 179.232 229.187C179.232 230.339 178.296 230.555 177.24 230.531H171.336V232.091H177.888C180.12 232.091 181.128 231.227 181.128 229.475C181.128 228.011 180.48 227.675 180.48 226.067ZM192.629 217.667H195.005V215.987H192.485C192.485 215.987 192.317 214.859 192.317 214.307C192.317 213.731 192.653 213.347 193.109 213.347H194.117V211.787H192.437C191.165 211.787 190.613 212.675 190.613 213.659C190.613 214.379 190.757 215.147 190.901 215.555C190.949 215.747 191.093 215.891 191.261 215.987C191.333 216.035 191.549 216.155 191.621 216.155V216.203C191.573 216.203 191.429 216.155 191.381 216.131C191.069 216.059 190.733 215.987 190.421 215.987H188.717V217.667H190.781V227.843H192.629V217.667ZM197.537 221.939C197.537 219.299 198.905 217.331 201.281 217.331C203.633 217.331 205.001 219.299 205.001 221.939C205.001 224.579 203.633 226.547 201.281 226.547C198.905 226.547 197.537 224.579 197.537 221.939ZM206.849 221.939C206.849 218.267 204.593 215.651 201.281 215.651C197.969 215.651 195.713 218.267 195.713 221.939C195.713 225.611 197.969 228.227 201.281 228.227C204.593 228.227 206.849 225.611 206.849 221.939ZM210.439 227.867V222.035C210.439 220.043 211.375 217.427 212.335 217.427C212.983 217.427 213.175 218.291 213.175 218.963V220.283H215.023V218.579C215.023 216.803 214.447 215.651 213.055 215.651C212.335 215.651 211.735 216.179 211.303 216.803C210.871 217.403 210.631 218.099 210.559 218.507C210.535 218.579 210.439 219.155 210.415 219.227L210.343 219.683H210.319L210.367 219.371C210.415 218.987 210.439 218.627 210.439 218.243V216.011H208.615V227.867H210.439ZM231.564 215.987L228.084 224.603C228.012 224.819 227.964 225.035 227.964 225.251V225.659H227.916V225.251C227.916 225.035 227.868 224.819 227.796 224.603L224.316 215.987H222.348L226.668 226.595C226.86 227.051 226.86 227.531 226.668 227.987L225.012 232.067H226.98L233.532 215.987H231.564ZM235.084 221.939C235.084 219.299 236.452 217.331 238.828 217.331C241.18 217.331 242.548 219.299 242.548 221.939C242.548 224.579 241.18 226.547 238.828 226.547C236.452 226.547 235.084 224.579 235.084 221.939ZM244.396 221.939C244.396 218.267 242.14 215.651 238.828 215.651C235.516 215.651 233.26 218.267 233.26 221.939C233.26 225.611 235.516 228.227 238.828 228.227C242.14 228.227 244.396 225.611 244.396 221.939ZM246.228 216.011V222.779C246.228 226.283 247.764 228.203 250.692 228.203C252.996 228.203 254.052 226.787 254.436 225.851L254.724 224.963L254.748 224.987L254.676 225.275C254.58 225.635 254.532 225.971 254.532 226.331V227.843H256.356V216.011H254.532V222.659C254.532 224.987 253.212 226.547 251.244 226.547C249.012 226.547 248.052 225.059 248.052 222.419C248.052 220.883 248.052 216.011 248.052 216.011H246.228ZM260.504 226.763C260.36 226.259 259.856 225.923 259.328 226.043C258.896 226.115 258.56 226.499 258.536 226.931C258.536 227.099 258.56 227.267 258.632 227.411C258.704 227.507 258.656 227.627 258.608 227.699L257.72 228.635L258.608 229.475L260.288 227.675C260.528 227.435 260.576 227.099 260.504 226.763ZM283.368 216.011L280.584 224.387C280.488 224.651 280.44 224.915 280.44 225.203V225.611H280.392V225.203C280.392 224.915 280.368 224.651 280.272 224.387L277.488 216.011H275.664L272.88 224.387C272.808 224.651 272.76 224.915 272.76 225.203V225.611H272.712V225.203C272.712 224.915 272.664 224.651 272.592 224.387L269.808 216.011H267.912L271.728 227.867H273.552L276.432 219.323C276.504 219.059 276.552 218.771 276.552 218.483V218.147H276.6V218.483C276.6 218.771 276.648 219.059 276.744 219.323L279.6 227.867H281.424L285.264 216.011H283.368ZM291 217.331C293.136 217.331 294.408 218.939 294.624 221.123H287.352C287.568 218.939 288.864 217.331 291 217.331ZM296.52 222.491C296.544 222.323 296.568 222.131 296.568 221.939C296.568 218.267 294.312 215.651 291 215.651C287.688 215.651 285.432 218.267 285.432 221.939C285.432 225.611 287.688 228.227 291 228.227C293.664 228.227 295.608 226.523 296.304 223.979L294.432 223.643C294.024 225.347 292.824 226.547 291 226.547C288.768 226.547 287.472 224.795 287.352 222.491H296.52ZM298.562 211.427C298.13 211.523 297.794 211.883 297.77 212.339C297.77 212.483 297.794 212.651 297.866 212.795C297.938 212.915 297.89 213.011 297.842 213.083L296.954 214.019L297.842 214.883L299.522 213.083C299.762 212.819 299.81 212.483 299.738 212.171C299.594 211.643 299.09 211.331 298.562 211.427ZM301.427 226.739C301.427 227.363 301.931 227.867 302.555 227.867H305.555V226.187H303.395C303.323 226.187 303.251 226.139 303.251 226.043V211.811H301.427C301.403 211.883 301.403 226.355 301.427 226.739ZM307.075 226.739C307.075 227.363 307.579 227.867 308.203 227.867H311.203V226.187H309.043C308.971 226.187 308.899 226.139 308.899 226.043V211.811H307.075C307.051 211.883 307.051 226.355 307.075 226.739ZM324.515 226.547C322.139 226.547 320.771 224.579 320.771 221.939C320.771 219.299 322.139 217.331 324.515 217.331C326.867 217.331 328.091 219.299 328.091 221.939C328.091 224.579 326.891 226.547 324.515 226.547ZM330.011 226.067V216.011H328.163V217.883C328.163 218.243 328.211 218.603 328.307 218.963L328.403 219.251L328.379 219.275L328.091 218.387C327.779 217.379 326.891 215.651 324.179 215.651C321.035 215.651 318.947 218.291 318.947 221.939C318.947 225.587 321.011 228.227 324.179 228.227C326.891 228.227 327.803 226.499 328.115 225.467L328.379 224.603L328.403 224.627L328.307 224.939C328.235 225.203 328.187 225.491 328.187 225.779C328.187 225.851 328.163 226.499 328.163 226.571C328.163 227.675 328.763 228.371 328.763 229.187C328.763 230.339 327.827 230.555 326.771 230.531H320.867V232.091H327.419C329.651 232.091 330.659 231.227 330.659 229.475C330.659 228.011 330.011 227.675 330.011 226.067ZM337.359 217.331C339.495 217.331 340.767 218.939 340.983 221.123H333.711C333.927 218.939 335.223 217.331 337.359 217.331ZM342.879 222.491C342.903 222.323 342.927 222.131 342.927 221.939C342.927 218.267 340.671 215.651 337.359 215.651C334.047 215.651 331.791 218.267 331.791 221.939C331.791 225.611 334.047 228.227 337.359 228.227C340.023 228.227 341.967 226.523 342.663 223.979L340.791 223.643C340.383 225.347 339.183 226.547 337.359 226.547C335.127 226.547 333.831 224.795 333.711 222.491H342.879ZM347.221 226.187C347.149 226.187 347.101 226.115 347.101 226.043V217.547H349.189V215.987H347.101V211.787H345.421C345.421 211.811 345.421 213.851 345.421 215.291C345.421 215.723 345.085 216.059 344.653 216.059H343.429V217.547H345.253C345.253 220.499 345.253 226.475 345.253 226.715C345.253 227.339 345.757 227.843 346.381 227.843H349.717V226.187H347.221ZM366.189 215.987L362.709 224.603C362.637 224.819 362.589 225.035 362.589 225.251V225.659H362.541V225.251C362.541 225.035 362.493 224.819 362.421 224.603L358.941 215.987H356.973L361.293 226.595C361.485 227.051 361.485 227.531 361.293 227.987L359.637 232.067H361.605L368.157 215.987H366.189ZM369.709 221.939C369.709 219.299 371.077 217.331 373.453 217.331C375.805 217.331 377.173 219.299 377.173 221.939C377.173 224.579 375.805 226.547 373.453 226.547C371.077 226.547 369.709 224.579 369.709 221.939ZM379.021 221.939C379.021 218.267 376.765 215.651 373.453 215.651C370.141 215.651 367.885 218.267 367.885 221.939C367.885 225.611 370.141 228.227 373.453 228.227C376.765 228.227 379.021 225.611 379.021 221.939ZM380.853 216.011V222.779C380.853 226.283 382.389 228.203 385.317 228.203C387.621 228.203 388.677 226.787 389.061 225.851L389.349 224.963L389.373 224.987L389.301 225.275C389.205 225.635 389.157 225.971 389.157 226.331V227.843H390.981V216.011H389.157V222.659C389.157 224.987 387.837 226.547 385.869 226.547C383.637 226.547 382.677 225.059 382.677 222.419C382.677 220.883 382.677 216.011 382.677 216.011H380.853ZM80.1771 251.867H82.0251C82.0251 248.843 82.0251 240.059 82.0251 240.011H80.1771V251.867ZM81.0891 238.331C81.6651 238.331 82.1211 237.875 82.1211 237.323C82.1211 236.747 81.6651 236.291 81.0891 236.291C80.5371 236.291 80.0811 236.747 80.0811 237.323C80.0811 237.875 80.5371 238.331 81.0891 238.331ZM94.6176 245.099C94.6176 241.595 92.9376 239.651 90.1536 239.651C88.5456 239.651 87.4896 240.371 86.8896 241.115C86.6016 241.475 86.4336 241.907 86.3136 242.291L86.1216 242.915L86.0736 242.891L86.1696 242.579C86.2656 242.243 86.3136 241.883 86.3136 241.523V240.011H84.4896V251.867H86.3136V245.219C86.3136 242.891 87.6096 241.331 89.6016 241.331C91.6896 241.331 92.7936 242.819 92.7936 245.459C92.7936 246.995 92.7936 251.867 92.7936 251.867H94.6176V245.099ZM106.543 241.667H108.919V239.987H106.399C106.399 239.987 106.231 238.859 106.231 238.307C106.231 237.731 106.567 237.347 107.023 237.347H108.031V235.787H106.351C105.079 235.787 104.527 236.675 104.527 237.659C104.527 238.379 104.671 239.147 104.815 239.555C104.863 239.747 105.007 239.891 105.175 239.987C105.247 240.035 105.463 240.155 105.535 240.155V240.203C105.487 240.203 105.343 240.155 105.295 240.131C104.983 240.059 104.647 239.987 104.335 239.987H102.631V241.667H104.695V251.843H106.543V241.667ZM112.189 251.867V246.035C112.189 244.043 113.125 241.427 114.085 241.427C114.733 241.427 114.925 242.291 114.925 242.963V244.283H116.773V242.579C116.773 240.803 116.197 239.651 114.805 239.651C114.085 239.651 113.485 240.179 113.053 240.803C112.621 241.403 112.381 242.099 112.309 242.507C112.285 242.579 112.189 243.155 112.165 243.227L112.093 243.683H112.069L112.117 243.371C112.165 242.987 112.189 242.627 112.189 242.243V240.011H110.365V251.867H112.189ZM119.818 245.939C119.818 243.299 121.186 241.331 123.562 241.331C125.914 241.331 127.282 243.299 127.282 245.939C127.282 248.579 125.914 250.547 123.562 250.547C121.186 250.547 119.818 248.579 119.818 245.939ZM129.13 245.939C129.13 242.267 126.874 239.651 123.562 239.651C120.25 239.651 117.994 242.267 117.994 245.939C117.994 249.611 120.25 252.227 123.562 252.227C126.874 252.227 129.13 249.611 129.13 245.939ZM141.024 245.099C141.024 241.595 139.344 239.651 136.56 239.651C134.952 239.651 133.896 240.371 133.296 241.115C133.008 241.475 132.84 241.907 132.72 242.291L132.528 242.915L132.48 242.891L132.576 242.579C132.672 242.243 132.72 241.883 132.72 241.523V240.011H130.896V251.867H132.72V245.219C132.72 242.891 134.016 241.331 136.008 241.331C138.096 241.331 139.2 242.819 139.2 245.459C139.2 246.995 139.2 251.867 139.2 251.867H141.024V245.099ZM145.659 250.187C145.587 250.187 145.539 250.115 145.539 250.043V241.547H147.627V239.987H145.539V235.787H143.859C143.859 235.811 143.859 237.851 143.859 239.291C143.859 239.723 143.523 240.059 143.091 240.059H141.867V241.547H143.691C143.691 244.499 143.691 250.475 143.691 250.715C143.691 251.339 144.195 251.843 144.819 251.843H148.155V250.187H145.659ZM157.81 245.939C157.81 243.299 159.178 241.331 161.554 241.331C163.906 241.331 165.274 243.299 165.274 245.939C165.274 248.579 163.906 250.547 161.554 250.547C159.178 250.547 157.81 248.579 157.81 245.939ZM167.122 245.939C167.122 242.267 164.866 239.651 161.554 239.651C158.242 239.651 155.986 242.267 155.986 245.939C155.986 249.611 158.242 252.227 161.554 252.227C164.866 252.227 167.122 249.611 167.122 245.939ZM172.074 241.667H174.45V239.987H171.93C171.93 239.987 171.762 238.859 171.762 238.307C171.762 237.731 172.098 237.347 172.554 237.347H173.562V235.787H171.882C170.61 235.787 170.058 236.675 170.058 237.659C170.058 238.379 170.202 239.147 170.346 239.555C170.394 239.747 170.538 239.891 170.706 239.987C170.778 240.035 170.994 240.155 171.066 240.155V240.203C171.018 240.203 170.874 240.155 170.826 240.131C170.514 240.059 170.178 239.987 169.866 239.987H168.162V241.667H170.226V251.843H172.074V241.667ZM185.456 250.187C185.384 250.187 185.336 250.115 185.336 250.043V241.547H187.424V239.987H185.336V235.787H183.656C183.656 235.811 183.656 237.851 183.656 239.291C183.656 239.723 183.32 240.059 182.888 240.059H181.664V241.547H183.488C183.488 244.499 183.488 250.475 183.488 250.715C183.488 251.339 183.992 251.843 184.616 251.843H187.952V250.187H185.456ZM199.172 251.867V245.099C199.172 241.595 197.612 239.651 194.708 239.651C193.388 239.651 192.428 240.179 191.804 240.779C191.3 241.235 191.012 241.811 190.844 242.339L190.676 242.915L190.628 242.891L190.724 242.579C190.82 242.243 190.868 241.883 190.868 241.523V235.811H189.044V251.867H190.868V245.219C190.868 242.891 192.164 241.331 194.156 241.331C196.388 241.331 197.348 242.819 197.348 245.459C197.348 246.995 197.348 251.867 197.348 251.867H199.172ZM206.578 241.331C208.714 241.331 209.986 242.939 210.202 245.123H202.93C203.146 242.939 204.442 241.331 206.578 241.331ZM212.098 246.491C212.122 246.323 212.146 246.131 212.146 245.939C212.146 242.267 209.89 239.651 206.578 239.651C203.266 239.651 201.01 242.267 201.01 245.939C201.01 249.611 203.266 252.227 206.578 252.227C209.242 252.227 211.186 250.523 211.882 247.979L210.01 247.643C209.602 249.347 208.402 250.547 206.578 250.547C204.346 250.547 203.05 248.795 202.93 246.491H212.098ZM223.027 241.979C222.379 240.227 221.035 239.651 219.547 239.651C217.987 239.651 217.075 240.371 216.523 241.115C216.211 241.499 216.019 241.931 215.899 242.339L215.731 242.915L215.683 242.891L215.779 242.579C215.875 242.243 215.923 241.883 215.923 241.523V240.011H214.099V251.867H215.923V245.219C215.923 242.891 217.027 241.331 218.875 241.331C220.459 241.331 221.659 242.243 221.659 245.219C221.659 246.731 221.659 251.867 221.659 251.867H223.507V245.219C223.507 242.891 224.587 241.331 226.459 241.331C228.043 241.331 229.243 242.435 229.243 245.099C229.243 246.611 229.243 251.867 229.243 251.867H231.091V244.595C231.091 241.115 229.219 239.651 226.939 239.651C224.995 239.651 223.987 240.851 223.555 241.619C223.339 242.003 223.195 242.387 223.147 242.627C223.123 242.675 223.075 242.915 223.075 242.915L223.051 242.891L223.075 242.723C223.147 242.435 223.123 242.195 223.027 241.979ZM233.04 252.011C233.616 252.011 234.072 251.531 234.072 250.979C234.072 250.403 233.616 249.947 233.04 249.947C232.488 249.947 232.032 250.403 232.032 250.979C232.032 251.531 232.488 252.011 233.04 252.011Z" fill="#303030"/>
<path fill-rule="evenodd" clip-rule="evenodd" d="M382.412 35.4168C377.994 35.4168 374.412 39.0747 374.412 43.587V100.778C374.412 105.291 377.994 108.949 382.412 108.949H398.412V117.119H382.412C373.575 117.119 366.412 109.803 366.412 100.778V43.587C366.412 34.5624 373.575 27.2466 382.412 27.2466H422.412C431.248 27.2466 438.412 34.5624 438.412 43.587V68.0976H430.412V43.587C430.412 39.0747 426.83 35.4168 422.412 35.4168H382.412Z" fill="#303030"/>
<path fill-rule="evenodd" clip-rule="evenodd" d="M429.573 78.7046C432.754 75.4556 437.912 75.4556 441.094 78.7046L444.026 81.6989C447.207 84.9479 447.207 90.2156 444.026 93.4647C444.026 93.4647 444.026 93.4647 444.026 93.4647L423.502 114.425C422.89 115.05 422.096 115.456 421.239 115.581L410.978 117.078C409.731 117.26 408.474 116.832 407.583 115.922C406.693 115.013 406.274 113.729 406.452 112.456L407.918 101.976C408.04 101.101 408.437 100.29 409.049 99.665L429.573 78.7046ZM426.538 93.3592L415.649 104.479L415.126 108.219L418.788 107.685L429.677 96.565L426.538 93.3592ZM435.334 90.7877L438.369 87.6877C438.426 87.6293 438.426 87.5345 438.369 87.4762L435.437 84.4818C435.38 84.4235 435.287 84.4234 435.23 84.4817C435.23 84.4818 435.23 84.4817 435.23 84.4817L432.195 87.582L435.334 90.7877Z" fill="#FFF6E9"/>
<path fill-rule="evenodd" clip-rule="evenodd" d="M418.412 55.8423H386.412V47.6721H418.412V55.8423Z" fill="#FFF6E9"/>
<path fill-rule="evenodd" clip-rule="evenodd" d="M418.412 76.2679H386.412V68.0977H418.412V76.2679Z" fill="#FFF6E9"/>
<path fill-rule="evenodd" clip-rule="evenodd" d="M402.412 96.6934H386.412V88.5232H402.412V96.6934Z" fill="#FFF6E9"/>
</svg>
