<svg width="475" height="300" viewBox="0 0 475 300" fill="none" xmlns="http://www.w3.org/2000/svg">
<rect x="0.740234" y="0.0185547" width="474.259" height="299" rx="10" fill="#8CD87C"/>
<path d="M61.6914 55.8482C61.6914 51.9122 58.3314 50.4722 54.0434 49.3522C50.2354 48.3922 48.4754 47.4322 48.4754 45.2562C48.4754 43.3682 50.0114 41.9282 53.3074 41.9282C56.6034 41.9282 58.2674 43.7202 58.2674 46.4722H60.8914C60.8914 42.8562 58.8754 39.6562 53.3074 39.6562C48.0594 39.6562 45.8514 42.1842 45.8514 45.2242C45.8514 48.6162 48.1234 50.3442 52.8594 51.4962C57.1474 52.5522 59.0354 53.4482 59.0354 56.0082C59.0354 58.2162 57.1154 59.7842 53.7874 59.7842C49.9474 59.7842 47.9634 57.6402 47.9634 54.7282H45.3394C45.3394 58.6962 47.8994 62.0242 53.8514 62.0242C59.5154 62.0242 61.6914 59.0162 61.6914 55.8482ZM68.1646 59.3362C68.0686 59.3362 68.0046 59.2402 68.0046 59.1442V47.8162H70.7886V45.7362H68.0046V40.1362H65.7646C65.7646 40.1682 65.7646 42.8882 65.7646 44.8082C65.7646 45.3842 65.3166 45.8322 64.7406 45.8322H63.1086V47.8162H65.5406C65.5406 51.7522 65.5406 59.7202 65.5406 60.0402C65.5406 60.8722 66.2126 61.5442 67.0446 61.5442H71.4926V59.3362H68.1646ZM79.7336 47.5282C82.5816 47.5282 84.2776 49.6722 84.5656 52.5842H74.8696C75.1576 49.6722 76.8856 47.5282 79.7336 47.5282ZM87.0936 54.4082C87.1256 54.1842 87.1576 53.9282 87.1576 53.6722C87.1576 48.7762 84.1496 45.2882 79.7336 45.2882C75.3176 45.2882 72.3096 48.7762 72.3096 53.6722C72.3096 58.5682 75.3176 62.0562 79.7336 62.0562C83.2856 62.0562 85.8776 59.7842 86.8056 56.3922L84.3096 55.9442C83.7656 58.2162 82.1656 59.8162 79.7336 59.8162C76.7576 59.8162 75.0296 57.4802 74.8696 54.4082H87.0936ZM102.05 53.6722C102.05 57.1922 100.258 59.8162 97.0901 59.8162C93.9541 59.8162 92.3221 57.1922 92.3221 53.6722C92.3221 50.1522 93.9221 47.5282 97.0901 47.5282C100.226 47.5282 102.05 50.1522 102.05 53.6722ZM92.1941 59.0802C92.1941 58.6002 92.1301 58.1202 92.0021 57.6722L91.8741 57.2562L91.9381 57.2242L92.2901 58.4082C92.7061 59.7522 93.9221 62.0562 97.5381 62.0562C101.73 62.0562 104.514 58.5682 104.514 53.6722C104.514 48.8082 101.73 45.2882 97.5381 45.2882C93.9221 45.2882 92.7061 47.5922 92.2901 49.0002L91.9381 50.1202L91.8741 50.0882L92.0021 49.7042C92.1301 49.2242 92.1941 48.7442 92.1941 48.2642V45.7682H89.7621V67.2082H92.1941V59.0802ZM125.803 44.2642C125.707 44.7122 125.643 45.1602 125.643 45.5762V54.4402C125.643 54.9522 125.227 55.3362 124.747 55.3362H118.027L125.163 45.3842C125.387 45.0322 125.643 44.6162 125.739 44.2002C125.771 44.1682 125.803 43.9762 125.803 43.9442L125.867 43.9762L125.803 44.2642ZM128.267 40.1362H124.843C124.843 41.0322 124.587 41.9282 124.075 42.6962L115.019 55.8802V57.7042H125.643V61.5442H128.267V58.6002C128.267 58.0882 128.683 57.7042 129.195 57.7042H131.403V55.3362H128.267V40.1362ZM134.267 61.7682C135.035 61.7682 135.643 61.1282 135.643 60.3922C135.643 59.6242 135.035 59.0162 134.267 59.0162C133.531 59.0162 132.923 59.6242 132.923 60.3922C132.923 61.1282 133.531 61.7682 134.267 61.7682ZM65.4914 82.7842H44.4914V88.5842H51.6114V109.544H58.3314V88.5842H65.4914V82.7842ZM85.7023 109.584V97.9842C85.7023 92.7442 83.4223 89.2242 78.8223 89.2242C77.0623 89.2242 75.8623 89.7442 75.0223 90.3442C73.9823 91.1442 73.6223 92.1842 73.4223 92.9842L73.2223 93.9042H73.1423L73.2623 93.5042C73.3823 92.7842 73.4623 92.0242 73.4623 91.3042V82.8242H67.3423V109.584H73.4623V99.3842C73.4623 96.4642 74.4223 94.7042 76.5423 94.7042C78.7423 94.7042 79.5423 96.4242 79.5423 99.5042C79.5423 100.144 79.5423 109.584 79.5423 109.584H85.7023ZM97.9839 94.7042C99.6639 94.7042 100.824 95.8242 101.264 97.5042H94.6639C95.1039 95.8242 96.2639 94.7042 97.9839 94.7042ZM107.664 101.704C107.744 101.064 107.824 100.424 107.824 99.7042C107.824 93.1842 103.624 89.2242 97.9839 89.2242C92.3039 89.2242 88.1439 93.1842 88.1439 99.7042C88.1439 106.264 92.3039 110.184 97.9839 110.184C102.264 110.184 105.704 107.904 107.104 103.944L100.864 102.824C100.304 103.984 99.3039 104.704 97.9839 104.704C96.2239 104.704 95.0239 103.504 94.6239 101.704H107.664ZM135.4 99.7042C135.4 102.784 133.96 104.704 131.72 104.704C129.44 104.704 128.08 102.784 128.08 99.7042C128.08 96.6242 129.44 94.7042 131.72 94.7042C133.96 94.7042 135.4 96.6242 135.4 99.7042ZM127.72 116.624V107.984C127.72 107.224 127.64 106.504 127.52 105.784L127.4 105.384L127.48 105.344L127.72 106.384C128.04 107.784 129 110.184 133.12 110.184C138.44 110.184 141.56 105.624 141.56 99.7042C141.56 93.7842 138.44 89.2242 133.12 89.2242C129 89.2242 128.04 91.6642 127.72 93.0242L127.48 94.0642L127.4 94.0242L127.52 93.6242C127.64 92.9042 127.72 92.1842 127.72 91.4642V89.8242H121.6V116.624H127.72ZM150.064 100.944C150.064 97.6242 150.744 95.1042 151.944 95.1042C152.824 95.1042 152.944 96.3042 152.944 97.2642V99.3842L159.104 99.3442V94.7442C159.104 91.8642 158.064 89.2242 154.824 89.2242C153.744 89.2242 152.664 89.6642 151.944 90.3442C151.024 91.2242 150.584 92.3042 150.344 93.0242C150.264 93.3442 150.144 93.9042 150.104 94.2642L149.944 95.2642H149.864L149.944 94.7442C150.024 94.1442 150.064 93.5042 150.064 92.9042V89.8242H143.944V109.584H150.064V100.944ZM170.64 94.7042C172.32 94.7042 173.48 95.8242 173.92 97.5042H167.32C167.76 95.8242 168.92 94.7042 170.64 94.7042ZM180.32 101.704C180.4 101.064 180.48 100.424 180.48 99.7042C180.48 93.1842 176.28 89.2242 170.64 89.2242C164.96 89.2242 160.8 93.1842 160.8 99.7042C160.8 106.264 164.96 110.184 170.64 110.184C174.92 110.184 178.36 107.904 179.76 103.944L173.52 102.824C172.96 103.984 171.96 104.704 170.64 104.704C168.88 104.704 167.68 103.504 167.28 101.704H180.32ZM196.924 99.7042C196.924 102.784 195.484 104.704 193.244 104.704C190.964 104.704 189.604 102.784 189.604 99.7042C189.604 96.6242 190.964 94.7042 193.244 94.7042C195.484 94.7042 196.924 96.6242 196.924 99.7042ZM189.244 116.624V107.984C189.244 107.224 189.164 106.504 189.044 105.784L188.924 105.384L189.004 105.344L189.244 106.384C189.564 107.784 190.524 110.184 194.644 110.184C199.964 110.184 203.084 105.624 203.084 99.7042C203.084 93.7842 199.964 89.2242 194.644 89.2242C190.524 89.2242 189.564 91.6642 189.244 93.0242L189.004 94.0642L188.924 94.0242L189.044 93.6242C189.164 92.9042 189.244 92.1842 189.244 91.4642V89.8242H183.124V116.624H189.244ZM215.72 101.904C215.72 103.424 214.4 104.944 212.28 104.944C211.08 104.944 210.44 104.384 210.36 103.624C210.32 102.784 210.88 102.104 212.16 101.864C213.16 101.704 214.2 101.464 214.72 101.304C215.52 101.144 215.76 100.944 215.76 100.944L215.72 101.904ZM223.16 104.624H222.24C222.04 104.624 221.84 104.424 221.84 104.224V97.3842C221.92 92.3042 219.08 89.2242 213.6 89.2242C210.8 89.2242 208.52 90.0242 206.96 91.5042C205.28 93.0642 204.76 95.0642 205 96.9842L211.04 96.3042C210.96 95.8242 211.04 95.2642 211.36 94.8642C211.76 94.3842 212.56 94.0642 213.48 94.1042C214.88 94.1042 215.68 94.8242 215.68 95.7042C215.68 96.2242 215.4 96.5042 215 96.7042C214.56 96.9042 213.12 97.1442 211.64 97.5042C210.32 97.8242 208.52 98.2642 207.52 98.7842C205.08 99.9442 204.16 101.904 204.2 104.384C204.2 107.544 206.8 110.184 210.88 110.184C213.72 110.144 215.44 108.904 216.32 107.304C216.56 106.864 216.8 106.064 216.96 105.424C217 105.144 217.04 104.824 217.04 104.824L217.12 104.864L217.08 105.144C217 105.504 216.96 105.864 216.92 106.224C216.92 106.504 216.88 106.984 216.88 107.384C216.88 108.624 217.72 109.544 219.2 109.584H223.16V104.624ZM231.939 100.944C231.939 97.6242 232.619 95.1042 233.819 95.1042C234.699 95.1042 234.819 96.3042 234.819 97.2642V99.3842L240.979 99.3442V94.7442C240.979 91.8642 239.939 89.2242 236.699 89.2242C235.619 89.2242 234.539 89.6642 233.819 90.3442C232.899 91.2242 232.459 92.3042 232.219 93.0242C232.139 93.3442 232.019 93.9042 231.979 94.2642L231.819 95.2642H231.739L231.819 94.7442C231.899 94.1442 231.939 93.5042 231.939 92.9042V89.8242H225.819V109.584H231.939V100.944ZM254.235 101.904C254.235 103.424 252.915 104.944 250.795 104.944C249.595 104.944 248.955 104.384 248.875 103.624C248.835 102.784 249.395 102.104 250.675 101.864C251.675 101.704 252.715 101.464 253.235 101.304C254.035 101.144 254.275 100.944 254.275 100.944L254.235 101.904ZM261.675 104.624H260.755C260.555 104.624 260.355 104.424 260.355 104.224V97.3842C260.435 92.3042 257.595 89.2242 252.115 89.2242C249.315 89.2242 247.035 90.0242 245.475 91.5042C243.795 93.0642 243.275 95.0642 243.515 96.9842L249.555 96.3042C249.475 95.8242 249.555 95.2642 249.875 94.8642C250.275 94.3842 251.075 94.0642 251.995 94.1042C253.395 94.1042 254.195 94.8242 254.195 95.7042C254.195 96.2242 253.915 96.5042 253.515 96.7042C253.075 96.9042 251.635 97.1442 250.155 97.5042C248.835 97.8242 247.035 98.2642 246.035 98.7842C243.595 99.9442 242.675 101.904 242.715 104.384C242.715 107.544 245.315 110.184 249.395 110.184C252.235 110.144 253.955 108.904 254.835 107.304C255.075 106.864 255.315 106.064 255.475 105.424C255.515 105.144 255.555 104.824 255.555 104.824L255.635 104.864L255.595 105.144C255.515 105.504 255.475 105.864 255.435 106.224C255.435 106.504 255.395 106.984 255.395 107.384C255.395 108.624 256.235 109.544 257.715 109.584H261.675V104.624ZM271.715 104.104C271.475 104.104 271.275 103.904 271.275 103.664V94.7842H274.355V89.8242H271.275V82.7842H265.875C265.875 82.7842 265.875 87.3042 265.875 87.9042C265.875 89.1042 264.915 90.0642 263.715 90.0642H262.315V94.7842H265.115C265.115 96.0242 265.115 106.184 265.115 106.304C265.115 108.104 266.555 109.544 268.395 109.544H275.475V104.104H271.715ZM278.005 109.584H284.165C284.165 108.304 284.165 89.8642 284.165 89.8242H278.005V109.584ZM281.085 88.5042C282.885 88.5042 284.325 87.0242 284.325 85.2642C284.325 83.4642 282.885 82.0242 281.085 82.0242C279.325 82.0242 277.885 83.4642 277.885 85.2642C277.885 87.0242 279.325 88.5042 281.085 88.5042ZM292.545 99.7042C292.545 96.6242 293.985 94.7042 296.265 94.7042C298.505 94.7042 299.945 96.6242 299.945 99.7042C299.945 102.784 298.505 104.704 296.265 104.704C293.985 104.704 292.545 102.784 292.545 99.7042ZM306.105 99.7042C306.105 93.1842 301.905 89.2242 296.265 89.2242C290.585 89.2242 286.425 93.1842 286.425 99.7042C286.425 106.264 290.585 110.184 296.265 110.184C301.905 110.184 306.105 106.264 306.105 99.7042ZM326.757 97.9842C326.757 92.7442 324.397 89.2242 319.877 89.2242C317.397 89.2242 316.037 90.1442 315.277 91.1442C314.837 91.7442 314.597 92.4242 314.477 92.9842L314.277 93.9042H314.197L314.317 93.5042C314.437 92.7842 314.517 92.0242 314.517 91.3042V89.8242H308.397V109.584H314.517V99.3842C314.517 96.4642 315.477 94.7042 317.597 94.7042C319.717 94.7042 320.597 96.4242 320.597 99.5042C320.597 100.144 320.597 109.584 320.597 109.584H326.757V97.9842Z" fill="#FFF6E9"/>
<path d="M98.1074 163.079L94.6514 174.959C94.5314 175.319 94.4834 175.679 94.4834 176.015V176.399H94.4594V176.039C94.4594 175.679 94.3874 175.319 94.2914 174.983L90.7154 163.079H89.0354L85.4594 174.983C85.3394 175.319 85.2914 175.679 85.2914 176.039V176.399H85.2434V176.015C85.2434 175.679 85.1954 175.319 85.0994 174.959L81.6194 163.079H79.5794L84.2834 179.159H86.2034L89.7074 167.471C89.8034 167.111 89.8514 166.775 89.8514 166.415V165.959H89.8994V166.415C89.8994 166.775 89.9474 167.111 90.0434 167.471L93.5474 179.159H95.4674L100.171 163.079H98.1074ZM110.99 179.159V172.391C110.99 168.887 109.43 166.943 106.526 166.943C105.206 166.943 104.246 167.471 103.622 168.071C103.118 168.527 102.83 169.103 102.662 169.631L102.494 170.207L102.446 170.183L102.542 169.871C102.638 169.535 102.686 169.175 102.686 168.815V163.103H100.862V179.159H102.686V172.511C102.686 170.183 103.982 168.623 105.974 168.623C108.206 168.623 109.166 170.111 109.166 172.751C109.166 174.287 109.166 179.159 109.166 179.159H110.99ZM118.395 168.623C120.531 168.623 121.803 170.231 122.019 172.415H114.747C114.963 170.231 116.259 168.623 118.395 168.623ZM123.915 173.783C123.939 173.615 123.963 173.423 123.963 173.231C123.963 169.559 121.707 166.943 118.395 166.943C115.083 166.943 112.827 169.559 112.827 173.231C112.827 176.903 115.083 179.519 118.395 179.519C121.059 179.519 123.003 177.815 123.699 175.271L121.827 174.935C121.419 176.639 120.219 177.839 118.395 177.839C116.163 177.839 114.867 176.087 114.747 173.783H123.915ZM127.741 179.159V173.327C127.741 171.335 128.677 168.719 129.637 168.719C130.285 168.719 130.477 169.583 130.477 170.255V171.575H132.325V169.871C132.325 168.095 131.749 166.943 130.357 166.943C129.637 166.943 129.037 167.471 128.605 168.095C128.173 168.695 127.933 169.391 127.861 169.799C127.837 169.871 127.741 170.447 127.717 170.519L127.645 170.975H127.621L127.669 170.663C127.717 170.279 127.741 169.919 127.741 169.535V167.303H125.917V179.159H127.741ZM139.114 168.623C141.25 168.623 142.522 170.231 142.738 172.415H135.466C135.682 170.231 136.978 168.623 139.114 168.623ZM144.634 173.783C144.658 173.615 144.682 173.423 144.682 173.231C144.682 169.559 142.426 166.943 139.114 166.943C135.802 166.943 133.546 169.559 133.546 173.231C133.546 176.903 135.802 179.519 139.114 179.519C141.778 179.519 143.722 177.815 144.418 175.271L142.546 174.935C142.138 176.639 140.938 177.839 139.114 177.839C136.882 177.839 135.586 176.087 135.466 173.783H144.634ZM153.315 179.159H155.163C155.163 176.135 155.163 167.351 155.163 167.303H153.315V179.159ZM154.227 165.623C154.803 165.623 155.259 165.167 155.259 164.615C155.259 164.039 154.803 163.583 154.227 163.583C153.675 163.583 153.219 164.039 153.219 164.615C153.219 165.167 153.675 165.623 154.227 165.623ZM160.508 177.479C160.436 177.479 160.388 177.407 160.388 177.335V168.839H162.476V167.279H160.388V163.079H158.708C158.708 163.103 158.708 165.143 158.708 166.583C158.708 167.015 158.372 167.351 157.94 167.351H156.716V168.839H158.54C158.54 171.791 158.54 177.767 158.54 178.007C158.54 178.631 159.044 179.135 159.668 179.135H163.004V177.479H160.508ZM176.403 177.839C174.027 177.839 172.659 175.871 172.659 173.231C172.659 170.591 174.027 168.623 176.403 168.623C178.755 168.623 179.979 170.591 179.979 173.231C179.979 175.871 178.779 177.839 176.403 177.839ZM181.899 177.359V167.303H180.051V169.175C180.051 169.535 180.099 169.895 180.195 170.255L180.291 170.543L180.267 170.567L179.979 169.679C179.667 168.671 178.779 166.943 176.067 166.943C172.923 166.943 170.835 169.583 170.835 173.231C170.835 176.879 172.899 179.519 176.067 179.519C178.779 179.519 179.691 177.791 180.003 176.759L180.267 175.895L180.291 175.919L180.195 176.231C180.123 176.495 180.075 176.783 180.075 177.071C180.075 177.143 180.051 177.791 180.051 177.863C180.051 178.967 180.651 179.663 180.651 180.479C180.651 181.631 179.715 181.847 178.659 181.823H172.755V183.383H179.307C181.539 183.383 182.547 182.519 182.547 180.767C182.547 179.303 181.899 178.967 181.899 177.359ZM189.247 168.623C191.383 168.623 192.655 170.231 192.871 172.415H185.599C185.815 170.231 187.111 168.623 189.247 168.623ZM194.767 173.783C194.791 173.615 194.815 173.423 194.815 173.231C194.815 169.559 192.559 166.943 189.247 166.943C185.935 166.943 183.679 169.559 183.679 173.231C183.679 176.903 185.935 179.519 189.247 179.519C191.911 179.519 193.855 177.815 194.551 175.271L192.679 174.935C192.271 176.639 191.071 177.839 189.247 177.839C187.015 177.839 185.719 176.087 185.599 173.783H194.767ZM199.109 177.479C199.037 177.479 198.989 177.407 198.989 177.335V168.839H201.077V167.279H198.989V163.079H197.309C197.309 163.103 197.309 165.143 197.309 166.583C197.309 167.015 196.973 167.351 196.541 167.351H195.317V168.839H197.141C197.141 171.791 197.141 177.767 197.141 178.007C197.141 178.631 197.645 179.135 198.269 179.135H201.605V177.479H199.109ZM212.045 176.063C212.045 173.567 209.741 172.871 207.821 172.391C206.789 172.127 204.845 171.695 204.845 170.231C204.845 169.343 205.565 168.479 207.341 168.479C209.309 168.479 209.909 169.559 209.909 170.759H211.613C211.613 168.815 210.509 166.943 207.293 166.943C204.245 166.943 202.997 168.431 202.997 170.063C202.997 172.199 204.629 173.063 206.885 173.615C209.117 174.143 210.197 174.791 210.197 175.967C210.197 177.263 209.069 177.959 207.509 177.959C204.917 177.959 204.557 176.111 204.557 175.367H202.733C202.733 177.359 204.005 179.495 207.581 179.495C210.701 179.495 212.045 177.935 212.045 176.063ZM225.809 168.623C227.945 168.623 229.217 170.231 229.433 172.415H222.161C222.377 170.231 223.673 168.623 225.809 168.623ZM231.329 173.783C231.353 173.615 231.377 173.423 231.377 173.231C231.377 169.559 229.121 166.943 225.809 166.943C222.497 166.943 220.241 169.559 220.241 173.231C220.241 176.903 222.497 179.519 225.809 179.519C228.473 179.519 230.417 177.815 231.113 175.271L229.241 174.935C228.833 176.639 227.633 177.839 225.809 177.839C223.577 177.839 222.281 176.087 222.161 173.783H231.329ZM242.585 167.303H240.497L237.329 171.815C237.233 171.959 237.209 172.103 237.209 172.271V172.631H237.161V172.271C237.161 172.103 237.113 171.959 237.041 171.815L233.849 167.303H231.785L235.313 172.535C235.553 172.967 235.553 173.471 235.313 173.903L231.785 179.159H233.849L237.041 174.647C237.113 174.479 237.161 174.335 237.161 174.167V173.783H237.209V174.167C237.209 174.335 237.233 174.479 237.329 174.647L240.497 179.159H242.585L239.033 173.903C238.793 173.471 238.793 172.967 239.033 172.535L242.585 167.303ZM251.746 174.407C251.386 176.447 250.114 177.839 248.122 177.839C245.746 177.839 244.378 175.871 244.378 173.231C244.378 170.591 245.746 168.623 248.122 168.623C250.114 168.623 251.386 170.015 251.746 172.055L253.57 171.863C253.09 168.887 251.002 166.943 248.122 166.943C244.81 166.943 242.554 169.559 242.554 173.231C242.554 176.903 244.81 179.519 248.122 179.519C251.002 179.519 253.09 177.575 253.57 174.623L251.746 174.407ZM255.479 179.159H257.327C257.327 176.135 257.327 167.351 257.327 167.303H255.479V179.159ZM256.391 165.623C256.967 165.623 257.423 165.167 257.423 164.615C257.423 164.039 256.967 163.583 256.391 163.583C255.839 163.583 255.383 164.039 255.383 164.615C255.383 165.167 255.839 165.623 256.391 165.623ZM262.672 177.479C262.6 177.479 262.552 177.407 262.552 177.335V168.839H264.64V167.279H262.552V163.079H260.872C260.872 163.103 260.872 165.143 260.872 166.583C260.872 167.015 260.536 167.351 260.104 167.351H258.88V168.839H260.704C260.704 171.791 260.704 177.767 260.704 178.007C260.704 178.631 261.208 179.135 261.832 179.135H265.168V177.479H262.672ZM266.799 179.159H268.647C268.647 176.135 268.647 167.351 268.647 167.303H266.799V179.159ZM267.711 165.623C268.287 165.623 268.743 165.167 268.743 164.615C268.743 164.039 268.287 163.583 267.711 163.583C267.159 163.583 266.703 164.039 266.703 164.615C266.703 165.167 267.159 165.623 267.711 165.623ZM281.24 172.391C281.24 168.887 279.56 166.943 276.776 166.943C275.168 166.943 274.112 167.663 273.512 168.407C273.224 168.767 273.056 169.199 272.936 169.583L272.744 170.207L272.696 170.183L272.792 169.871C272.888 169.535 272.936 169.175 272.936 168.815V167.303H271.112V179.159H272.936V172.511C272.936 170.183 274.232 168.623 276.224 168.623C278.312 168.623 279.416 170.111 279.416 172.751C279.416 174.287 279.416 179.159 279.416 179.159H281.24V172.391ZM288.364 177.839C285.988 177.839 284.62 175.871 284.62 173.231C284.62 170.591 285.988 168.623 288.364 168.623C290.716 168.623 291.94 170.591 291.94 173.231C291.94 175.871 290.74 177.839 288.364 177.839ZM293.86 177.359V167.303H292.012V169.175C292.012 169.535 292.06 169.895 292.156 170.255L292.252 170.543L292.228 170.567L291.94 169.679C291.628 168.671 290.74 166.943 288.028 166.943C284.884 166.943 282.796 169.583 282.796 173.231C282.796 176.879 284.86 179.519 288.028 179.519C290.74 179.519 291.652 177.791 291.964 176.759L292.228 175.895L292.252 175.919L292.156 176.231C292.084 176.495 292.036 176.783 292.036 177.071C292.036 177.143 292.012 177.791 292.012 177.863C292.012 178.967 292.612 179.663 292.612 180.479C292.612 181.631 291.676 181.847 290.62 181.823H284.716V183.383H291.268C293.5 183.383 294.508 182.519 294.508 180.767C294.508 179.303 293.86 178.967 293.86 177.359ZM296.077 179.303C296.653 179.303 297.109 178.823 297.109 178.271C297.109 177.695 296.653 177.239 296.077 177.239C295.525 177.239 295.069 177.695 295.069 178.271C295.069 178.823 295.525 179.303 296.077 179.303ZM322.92 163.079L319.464 174.959C319.344 175.319 319.296 175.679 319.296 176.015V176.399H319.272V176.039C319.272 175.679 319.2 175.319 319.104 174.983L315.528 163.079H313.848L310.272 174.983C310.152 175.319 310.104 175.679 310.104 176.039V176.399H310.056V176.015C310.056 175.679 310.008 175.319 309.912 174.959L306.432 163.079H304.392L309.096 179.159H311.016L314.52 167.471C314.616 167.111 314.664 166.775 314.664 166.415V165.959H314.712V166.415C314.712 166.775 314.76 167.111 314.856 167.471L318.36 179.159H320.28L324.984 163.079H322.92ZM329.895 168.623C332.031 168.623 333.303 170.231 333.519 172.415H326.247C326.463 170.231 327.759 168.623 329.895 168.623ZM335.415 173.783C335.439 173.615 335.463 173.423 335.463 173.231C335.463 169.559 333.207 166.943 329.895 166.943C326.583 166.943 324.327 169.559 324.327 173.231C324.327 176.903 326.583 179.519 329.895 179.519C332.559 179.519 334.503 177.815 335.199 175.271L333.327 174.935C332.919 176.639 331.719 177.839 329.895 177.839C327.663 177.839 326.367 176.087 326.247 173.783H335.415ZM337.458 162.719C337.026 162.815 336.69 163.175 336.666 163.631C336.666 163.775 336.69 163.943 336.762 164.087C336.834 164.207 336.786 164.303 336.738 164.375L335.85 165.311L336.738 166.175L338.418 164.375C338.658 164.111 338.706 163.775 338.634 163.463C338.49 162.935 337.986 162.623 337.458 162.719ZM340.322 178.031C340.322 178.655 340.826 179.159 341.45 179.159H344.45V177.479H342.29C342.218 177.479 342.146 177.431 342.146 177.335V163.103H340.322C340.298 163.175 340.298 177.647 340.322 178.031ZM345.971 178.031C345.971 178.655 346.475 179.159 347.099 179.159H350.099V177.479H347.939C347.867 177.479 347.795 177.431 347.795 177.335V163.103H345.971C345.947 163.175 345.947 177.647 345.971 178.031ZM367.539 173.231C367.539 175.871 366.195 177.839 363.819 177.839C361.467 177.839 360.243 175.871 360.243 173.231C360.243 170.591 361.443 168.623 363.819 168.623C366.171 168.623 367.539 170.591 367.539 173.231ZM360.147 177.287C360.147 176.927 360.099 176.567 360.003 176.231L359.907 175.919L359.955 175.895L360.219 176.783C360.531 177.791 361.443 179.519 364.155 179.519C367.299 179.519 369.387 176.903 369.387 173.231C369.387 169.583 367.299 166.943 364.155 166.943C361.443 166.943 360.531 168.671 360.219 169.727L359.955 170.567L359.907 170.543L360.003 170.255C360.099 169.895 360.147 169.535 360.147 169.175V167.303H358.323V183.383H360.147V177.287ZM372.967 179.159V173.327C372.967 171.335 373.903 168.719 374.863 168.719C375.511 168.719 375.703 169.583 375.703 170.255V171.575H377.551V169.871C377.551 168.095 376.975 166.943 375.583 166.943C374.863 166.943 374.263 167.471 373.831 168.095C373.399 168.695 373.159 169.391 373.087 169.799C373.063 169.871 372.967 170.447 372.943 170.519L372.871 170.975H372.847L372.895 170.663C372.943 170.279 372.967 169.919 372.967 169.535V167.303H371.143V179.159H372.967ZM384.341 168.623C386.477 168.623 387.749 170.231 387.965 172.415H380.693C380.909 170.231 382.205 168.623 384.341 168.623ZM389.861 173.783C389.885 173.615 389.909 173.423 389.909 173.231C389.909 169.559 387.653 166.943 384.341 166.943C381.029 166.943 378.773 169.559 378.773 173.231C378.773 176.903 381.029 179.519 384.341 179.519C387.005 179.519 388.949 177.815 389.645 175.271L387.773 174.935C387.365 176.639 386.165 177.839 384.341 177.839C382.109 177.839 380.813 176.087 380.693 173.783H389.861ZM401.078 173.231C401.078 175.871 399.734 177.839 397.358 177.839C395.006 177.839 393.782 175.871 393.782 173.231C393.782 170.591 394.982 168.623 397.358 168.623C399.71 168.623 401.078 170.591 401.078 173.231ZM393.686 177.287C393.686 176.927 393.638 176.567 393.542 176.231L393.446 175.919L393.494 175.895L393.758 176.783C394.07 177.791 394.982 179.519 397.694 179.519C400.838 179.519 402.926 176.903 402.926 173.231C402.926 169.583 400.838 166.943 397.694 166.943C394.982 166.943 394.07 168.671 393.758 169.727L393.494 170.567L393.446 170.543L393.542 170.255C393.638 169.895 393.686 169.535 393.686 169.175V167.303H391.862V183.383H393.686V177.287ZM88.7954 191.279L85.3154 199.895C85.2434 200.111 85.1954 200.327 85.1954 200.543V200.951H85.1474V200.543C85.1474 200.327 85.0994 200.111 85.0274 199.895L81.5474 191.279H79.5794L83.8994 201.887C84.0914 202.343 84.0914 202.823 83.8994 203.279L82.2434 207.359H84.2114L90.7634 191.279H88.7954ZM92.3153 197.231C92.3153 194.591 93.6833 192.623 96.0593 192.623C98.4113 192.623 99.7793 194.591 99.7793 197.231C99.7793 199.871 98.4113 201.839 96.0593 201.839C93.6833 201.839 92.3153 199.871 92.3153 197.231ZM101.627 197.231C101.627 193.559 99.3713 190.943 96.0593 190.943C92.7473 190.943 90.4913 193.559 90.4913 197.231C90.4913 200.903 92.7473 203.519 96.0593 203.519C99.3713 203.519 101.627 200.903 101.627 197.231ZM103.46 191.303V198.071C103.46 201.575 104.996 203.495 107.924 203.495C110.228 203.495 111.284 202.079 111.668 201.143L111.956 200.255L111.98 200.279L111.908 200.567C111.812 200.927 111.764 201.263 111.764 201.623V203.135H113.588V191.303H111.764V197.951C111.764 200.279 110.444 201.839 108.476 201.839C106.244 201.839 105.284 200.351 105.284 197.711C105.284 196.175 105.284 191.303 105.284 191.303H103.46ZM127.817 192.623C129.953 192.623 131.225 194.231 131.441 196.415H124.169C124.385 194.231 125.681 192.623 127.817 192.623ZM133.337 197.783C133.361 197.615 133.385 197.423 133.385 197.231C133.385 193.559 131.129 190.943 127.817 190.943C124.505 190.943 122.249 193.559 122.249 197.231C122.249 200.903 124.505 203.519 127.817 203.519C130.481 203.519 132.425 201.815 133.121 199.271L131.249 198.935C130.841 200.639 129.641 201.839 127.817 201.839C125.585 201.839 124.289 200.087 124.169 197.783H133.337ZM142.793 191.303L139.337 201.119C139.265 201.335 139.217 201.599 139.217 201.839V202.271H139.169V201.839C139.169 201.599 139.145 201.359 139.073 201.119L135.617 191.303H133.721L137.873 203.159H140.537L144.689 191.303H142.793ZM150.387 192.623C152.523 192.623 153.795 194.231 154.011 196.415H146.739C146.955 194.231 148.251 192.623 150.387 192.623ZM155.907 197.783C155.931 197.615 155.955 197.423 155.955 197.231C155.955 193.559 153.699 190.943 150.387 190.943C147.075 190.943 144.819 193.559 144.819 197.231C144.819 200.903 147.075 203.519 150.387 203.519C153.051 203.519 154.995 201.815 155.691 199.271L153.819 198.935C153.411 200.639 152.211 201.839 150.387 201.839C148.155 201.839 146.859 200.087 146.739 197.783H155.907ZM159.733 203.159V197.327C159.733 195.335 160.669 192.719 161.629 192.719C162.277 192.719 162.469 193.583 162.469 194.255V195.575H164.317V193.871C164.317 192.095 163.741 190.943 162.349 190.943C161.629 190.943 161.029 191.471 160.597 192.095C160.165 192.695 159.925 193.391 159.853 193.799C159.829 193.871 159.733 194.447 159.709 194.519L159.637 194.975H159.613L159.661 194.663C159.709 194.279 159.733 193.919 159.733 193.535V191.303H157.909V203.159H159.733ZM174.178 191.279L170.698 199.895C170.626 200.111 170.578 200.327 170.578 200.543V200.951H170.53V200.543C170.53 200.327 170.482 200.111 170.41 199.895L166.93 191.279H164.962L169.282 201.887C169.474 202.343 169.474 202.823 169.282 203.279L167.626 207.359H169.594L176.146 191.279H174.178ZM193.061 200.063C193.061 197.567 190.757 196.871 188.837 196.391C187.805 196.127 185.861 195.695 185.861 194.231C185.861 193.343 186.581 192.479 188.357 192.479C190.325 192.479 190.925 193.559 190.925 194.759H192.629C192.629 192.815 191.525 190.943 188.309 190.943C185.261 190.943 184.013 192.431 184.013 194.063C184.013 196.199 185.645 197.063 187.901 197.615C190.133 198.143 191.213 198.791 191.213 199.967C191.213 201.263 190.085 201.959 188.525 201.959C185.933 201.959 185.573 200.111 185.573 199.367H183.749C183.749 201.359 185.021 203.495 188.597 203.495C191.717 203.495 193.061 201.935 193.061 200.063ZM197.937 201.479C197.865 201.479 197.817 201.407 197.817 201.335V192.839H199.905V191.279H197.817V187.079H196.137C196.137 187.103 196.137 189.143 196.137 190.583C196.137 191.015 195.801 191.351 195.369 191.351H194.145V192.839H195.969C195.969 195.791 195.969 201.767 195.969 202.007C195.969 202.631 196.473 203.135 197.097 203.135H200.433V201.479H197.937ZM206.614 192.623C208.75 192.623 210.022 194.231 210.238 196.415H202.966C203.182 194.231 204.478 192.623 206.614 192.623ZM212.134 197.783C212.158 197.615 212.182 197.423 212.182 197.231C212.182 193.559 209.926 190.943 206.614 190.943C203.302 190.943 201.046 193.559 201.046 197.231C201.046 200.903 203.302 203.519 206.614 203.519C209.278 203.519 211.222 201.815 211.918 199.271L210.046 198.935C209.638 200.639 208.438 201.839 206.614 201.839C204.382 201.839 203.086 200.087 202.966 197.783H212.134ZM223.351 197.231C223.351 199.871 222.007 201.839 219.631 201.839C217.279 201.839 216.055 199.871 216.055 197.231C216.055 194.591 217.255 192.623 219.631 192.623C221.983 192.623 223.351 194.591 223.351 197.231ZM215.959 201.287C215.959 200.927 215.911 200.567 215.815 200.231L215.719 199.919L215.767 199.895L216.031 200.783C216.343 201.791 217.255 203.519 219.967 203.519C223.111 203.519 225.199 200.903 225.199 197.231C225.199 193.583 223.111 190.943 219.967 190.943C217.255 190.943 216.343 192.671 216.031 193.727L215.767 194.567L215.719 194.543L215.815 194.255C215.911 193.895 215.959 193.535 215.959 193.175V191.303H214.135V207.383H215.959V201.287ZM235.214 197.231C235.214 194.591 236.582 192.623 238.958 192.623C241.31 192.623 242.678 194.591 242.678 197.231C242.678 199.871 241.31 201.839 238.958 201.839C236.582 201.839 235.214 199.871 235.214 197.231ZM244.526 197.231C244.526 193.559 242.27 190.943 238.958 190.943C235.646 190.943 233.39 193.559 233.39 197.231C233.39 200.903 235.646 203.519 238.958 203.519C242.27 203.519 244.526 200.903 244.526 197.231ZM249.478 192.959H251.854V191.279H249.334C249.334 191.279 249.166 190.151 249.166 189.599C249.166 189.023 249.502 188.639 249.958 188.639H250.966V187.079H249.286C248.014 187.079 247.462 187.967 247.462 188.951C247.462 189.671 247.606 190.439 247.75 190.847C247.798 191.039 247.942 191.183 248.11 191.279C248.182 191.327 248.398 191.447 248.47 191.447V191.495C248.422 191.495 248.278 191.447 248.23 191.423C247.918 191.351 247.582 191.279 247.27 191.279H245.566V192.959H247.63V203.135H249.478V192.959ZM262.859 201.479C262.787 201.479 262.739 201.407 262.739 201.335V192.839H264.827V191.279H262.739V187.079H261.059C261.059 187.103 261.059 189.143 261.059 190.583C261.059 191.015 260.723 191.351 260.291 191.351H259.067V192.839H260.891C260.891 195.791 260.891 201.767 260.891 202.007C260.891 202.631 261.395 203.135 262.019 203.135H265.355V201.479H262.859ZM276.576 203.159V196.391C276.576 192.887 275.016 190.943 272.112 190.943C270.792 190.943 269.832 191.471 269.208 192.071C268.704 192.527 268.416 193.103 268.248 193.631L268.08 194.207L268.032 194.183L268.128 193.871C268.224 193.535 268.272 193.175 268.272 192.815V187.103H266.448V203.159H268.272V196.511C268.272 194.183 269.568 192.623 271.56 192.623C273.792 192.623 274.752 194.111 274.752 196.751C274.752 198.287 274.752 203.159 274.752 203.159H276.576ZM283.981 192.623C286.117 192.623 287.389 194.231 287.605 196.415H280.333C280.549 194.231 281.845 192.623 283.981 192.623ZM289.501 197.783C289.525 197.615 289.549 197.423 289.549 197.231C289.549 193.559 287.293 190.943 283.981 190.943C280.669 190.943 278.413 193.559 278.413 197.231C278.413 200.903 280.669 203.519 283.981 203.519C286.645 203.519 288.589 201.815 289.285 199.271L287.413 198.935C287.005 200.639 285.805 201.839 283.981 201.839C281.749 201.839 280.453 200.087 280.333 197.783H289.501ZM298.182 203.159H300.03C300.03 200.135 300.03 191.351 300.03 191.303H298.182V203.159ZM299.094 189.623C299.67 189.623 300.126 189.167 300.126 188.615C300.126 188.039 299.67 187.583 299.094 187.583C298.542 187.583 298.086 188.039 298.086 188.615C298.086 189.167 298.542 189.623 299.094 189.623ZM312.623 196.391C312.623 192.887 310.943 190.943 308.159 190.943C306.551 190.943 305.495 191.663 304.895 192.407C304.607 192.767 304.439 193.199 304.319 193.583L304.127 194.207L304.079 194.183L304.175 193.871C304.271 193.535 304.319 193.175 304.319 192.815V191.303H302.495V203.159H304.319V196.511C304.319 194.183 305.615 192.623 307.607 192.623C309.695 192.623 310.799 194.111 310.799 196.751C310.799 198.287 310.799 203.159 310.799 203.159H312.623V196.391ZM317.258 201.479C317.186 201.479 317.138 201.407 317.138 201.335V192.839H319.226V191.279H317.138V187.079H315.458C315.458 187.103 315.458 189.143 315.458 190.583C315.458 191.015 315.122 191.351 314.69 191.351H313.466V192.839H315.29C315.29 195.791 315.29 201.767 315.29 202.007C315.29 202.631 315.794 203.135 316.418 203.135H319.754V201.479H317.258ZM325.934 192.623C328.07 192.623 329.342 194.231 329.558 196.415H322.286C322.502 194.231 323.798 192.623 325.934 192.623ZM331.454 197.783C331.478 197.615 331.502 197.423 331.502 197.231C331.502 193.559 329.246 190.943 325.934 190.943C322.622 190.943 320.366 193.559 320.366 197.231C320.366 200.903 322.622 203.519 325.934 203.519C328.598 203.519 330.542 201.815 331.238 199.271L329.366 198.935C328.958 200.639 327.758 201.839 325.934 201.839C323.702 201.839 322.406 200.087 322.286 197.783H331.454ZM335.28 203.159V197.327C335.28 195.335 336.216 192.719 337.176 192.719C337.824 192.719 338.016 193.583 338.016 194.255V195.575H339.864V193.871C339.864 192.095 339.288 190.943 337.896 190.943C337.176 190.943 336.576 191.471 336.144 192.095C335.712 192.695 335.472 193.391 335.4 193.799C335.376 193.871 335.28 194.447 335.256 194.519L335.184 194.975H335.16L335.208 194.663C335.256 194.279 335.28 193.919 335.28 193.535V191.303H333.456V203.159H335.28ZM349.629 191.303L346.173 201.119C346.101 201.335 346.053 201.599 346.053 201.839V202.271H346.005V201.839C346.005 201.599 345.981 201.359 345.909 201.119L342.453 191.303H340.557L344.709 203.159H347.373L351.525 191.303H349.629ZM352.979 203.159H354.827C354.827 200.135 354.827 191.351 354.827 191.303H352.979V203.159ZM353.891 189.623C354.467 189.623 354.923 189.167 354.923 188.615C354.923 188.039 354.467 187.583 353.891 187.583C353.339 187.583 352.883 188.039 352.883 188.615C352.883 189.167 353.339 189.623 353.891 189.623ZM362.122 192.623C364.258 192.623 365.53 194.231 365.746 196.415H358.474C358.69 194.231 359.986 192.623 362.122 192.623ZM367.642 197.783C367.666 197.615 367.69 197.423 367.69 197.231C367.69 193.559 365.434 190.943 362.122 190.943C358.81 190.943 356.554 193.559 356.554 197.231C356.554 200.903 358.81 203.519 362.122 203.519C364.786 203.519 366.73 201.815 367.426 199.271L365.554 198.935C365.146 200.639 363.946 201.839 362.122 201.839C359.89 201.839 358.594 200.087 358.474 197.783H367.642ZM383.506 191.303L380.722 199.679C380.626 199.943 380.578 200.207 380.578 200.495V200.903H380.53V200.495C380.53 200.207 380.506 199.943 380.41 199.679L377.626 191.303H375.802L373.018 199.679C372.946 199.943 372.898 200.207 372.898 200.495V200.903H372.85V200.495C372.85 200.207 372.802 199.943 372.73 199.679L369.946 191.303H368.05L371.866 203.159H373.69L376.57 194.615C376.642 194.351 376.69 194.063 376.69 193.775V193.439H376.738V193.775C376.738 194.063 376.786 194.351 376.882 194.615L379.738 203.159H381.562L385.402 191.303H383.506ZM89.8514 221.231C89.8514 223.871 88.5074 225.839 86.1314 225.839C83.7794 225.839 82.5554 223.871 82.5554 221.231C82.5554 218.591 83.7554 216.623 86.1314 216.623C88.4834 216.623 89.8514 218.591 89.8514 221.231ZM82.4594 225.287C82.4594 224.927 82.4114 224.567 82.3154 224.231L82.2194 223.919L82.2674 223.895L82.5314 224.783C82.8434 225.791 83.7554 227.519 86.4674 227.519C89.6114 227.519 91.6994 224.903 91.6994 221.231C91.6994 217.583 89.6114 214.943 86.4674 214.943C83.7554 214.943 82.8434 216.671 82.5314 217.727L82.2674 218.567L82.2194 218.543L82.3154 218.255C82.4114 217.895 82.4594 217.535 82.4594 217.175V215.303H80.6354V231.383H82.4594V225.287ZM95.2797 227.159V221.327C95.2797 219.335 96.2157 216.719 97.1757 216.719C97.8237 216.719 98.0157 217.583 98.0157 218.255V219.575H99.8637V217.871C99.8637 216.095 99.2877 214.943 97.8957 214.943C97.1757 214.943 96.5757 215.471 96.1437 216.095C95.7117 216.695 95.4717 217.391 95.3997 217.799C95.3757 217.871 95.2797 218.447 95.2557 218.519L95.1837 218.975H95.1597L95.2077 218.663C95.2557 218.279 95.2797 217.919 95.2797 217.535V215.303H93.4557V227.159H95.2797ZM102.909 221.231C102.909 218.591 104.277 216.623 106.653 216.623C109.005 216.623 110.373 218.591 110.373 221.231C110.373 223.871 109.005 225.839 106.653 225.839C104.277 225.839 102.909 223.871 102.909 221.231ZM112.221 221.231C112.221 217.559 109.965 214.943 106.653 214.943C103.341 214.943 101.085 217.559 101.085 221.231C101.085 224.903 103.341 227.519 106.653 227.519C109.965 227.519 112.221 224.903 112.221 221.231ZM122.933 222.407C122.573 224.447 121.301 225.839 119.309 225.839C116.933 225.839 115.565 223.871 115.565 221.231C115.565 218.591 116.933 216.623 119.309 216.623C121.301 216.623 122.573 218.015 122.933 220.055L124.757 219.863C124.277 216.887 122.189 214.943 119.309 214.943C115.997 214.943 113.741 217.559 113.741 221.231C113.741 224.903 115.997 227.519 119.309 227.519C122.189 227.519 124.277 225.575 124.757 222.623L122.933 222.407ZM131.755 216.623C133.891 216.623 135.163 218.231 135.379 220.415H128.107C128.323 218.231 129.619 216.623 131.755 216.623ZM137.275 221.783C137.299 221.615 137.323 221.423 137.323 221.231C137.323 217.559 135.067 214.943 131.755 214.943C128.443 214.943 126.187 217.559 126.187 221.231C126.187 224.903 128.443 227.519 131.755 227.519C134.419 227.519 136.363 225.815 137.059 223.271L135.187 222.935C134.779 224.639 133.579 225.839 131.755 225.839C129.523 225.839 128.227 224.087 128.107 221.783H137.275ZM148.084 224.063C148.084 221.567 145.78 220.871 143.86 220.391C142.828 220.127 140.884 219.695 140.884 218.231C140.884 217.343 141.604 216.479 143.38 216.479C145.348 216.479 145.948 217.559 145.948 218.759H147.652C147.652 216.815 146.548 214.943 143.332 214.943C140.284 214.943 139.036 216.431 139.036 218.063C139.036 220.199 140.668 221.063 142.924 221.615C145.156 222.143 146.236 222.791 146.236 223.967C146.236 225.263 145.108 225.959 143.548 225.959C140.956 225.959 140.596 224.111 140.596 223.367H138.772C138.772 225.359 140.044 227.495 143.62 227.495C146.74 227.495 148.084 225.935 148.084 224.063ZM158.889 224.063C158.889 221.567 156.585 220.871 154.665 220.391C153.633 220.127 151.689 219.695 151.689 218.231C151.689 217.343 152.409 216.479 154.185 216.479C156.153 216.479 156.753 217.559 156.753 218.759H158.457C158.457 216.815 157.353 214.943 154.137 214.943C151.089 214.943 149.841 216.431 149.841 218.063C149.841 220.199 151.473 221.063 153.729 221.615C155.961 222.143 157.041 222.791 157.041 223.967C157.041 225.263 155.913 225.959 154.353 225.959C151.761 225.959 151.401 224.111 151.401 223.367H149.577C149.577 225.359 150.849 227.495 154.425 227.495C157.545 227.495 158.889 225.935 158.889 224.063ZM170.445 225.479C170.373 225.479 170.325 225.407 170.325 225.335V216.839H172.413V215.279H170.325V211.079H168.645C168.645 211.103 168.645 213.143 168.645 214.583C168.645 215.015 168.309 215.351 167.877 215.351H166.653V216.839H168.477C168.477 219.791 168.477 225.767 168.477 226.007C168.477 226.631 168.981 227.135 169.605 227.135H172.941V225.479H170.445ZM175.378 221.231C175.378 218.591 176.746 216.623 179.122 216.623C181.474 216.623 182.842 218.591 182.842 221.231C182.842 223.871 181.474 225.839 179.122 225.839C176.746 225.839 175.378 223.871 175.378 221.231ZM184.69 221.231C184.69 217.559 182.434 214.943 179.122 214.943C175.81 214.943 173.554 217.559 173.554 221.231C173.554 224.903 175.81 227.519 179.122 227.519C182.434 227.519 184.69 224.903 184.69 221.231ZM198.458 225.839C196.082 225.839 194.714 223.871 194.714 221.231C194.714 218.591 196.082 216.623 198.458 216.623C200.81 216.623 202.034 218.591 202.034 221.231C202.034 223.871 200.834 225.839 198.458 225.839ZM203.954 225.359V215.303H202.106V217.175C202.106 217.535 202.154 217.895 202.25 218.255L202.346 218.543L202.322 218.567L202.034 217.679C201.722 216.671 200.834 214.943 198.122 214.943C194.978 214.943 192.89 217.583 192.89 221.231C192.89 224.879 194.954 227.519 198.122 227.519C200.834 227.519 201.746 225.791 202.058 224.759L202.322 223.895L202.346 223.919L202.25 224.231C202.178 224.495 202.13 224.783 202.13 225.071C202.13 225.143 202.106 225.791 202.106 225.863C202.106 226.967 202.706 227.663 202.706 228.479C202.706 229.631 201.77 229.847 200.714 229.823H194.81V231.383H201.362C203.594 231.383 204.602 230.519 204.602 228.767C204.602 227.303 203.954 226.967 203.954 225.359ZM206.471 227.159H208.319C208.319 224.135 208.319 215.351 208.319 215.303H206.471V227.159ZM207.383 213.623C207.959 213.623 208.415 213.167 208.415 212.615C208.415 212.039 207.959 211.583 207.383 211.583C206.831 211.583 206.375 212.039 206.375 212.615C206.375 213.167 206.831 213.623 207.383 213.623ZM218.848 215.303L215.392 225.119C215.32 225.335 215.272 225.599 215.272 225.839V226.271H215.224V225.839C215.224 225.599 215.2 225.359 215.128 225.119L211.672 215.303H209.776L213.928 227.159H216.592L220.744 215.303H218.848ZM226.442 216.623C228.578 216.623 229.85 218.231 230.066 220.415H222.794C223.01 218.231 224.306 216.623 226.442 216.623ZM231.962 221.783C231.986 221.615 232.01 221.423 232.01 221.231C232.01 217.559 229.754 214.943 226.442 214.943C223.13 214.943 220.874 217.559 220.874 221.231C220.874 224.903 223.13 227.519 226.442 227.519C229.106 227.519 231.05 225.815 231.746 223.271L229.874 222.935C229.466 224.639 228.266 225.839 226.442 225.839C224.21 225.839 222.914 224.087 222.794 221.783H231.962ZM248.803 215.279L245.323 223.895C245.251 224.111 245.203 224.327 245.203 224.543V224.951H245.155V224.543C245.155 224.327 245.107 224.111 245.035 223.895L241.555 215.279H239.587L243.907 225.887C244.099 226.343 244.099 226.823 243.907 227.279L242.251 231.359H244.219L250.771 215.279H248.803ZM252.323 221.231C252.323 218.591 253.691 216.623 256.067 216.623C258.419 216.623 259.787 218.591 259.787 221.231C259.787 223.871 258.419 225.839 256.067 225.839C253.691 225.839 252.323 223.871 252.323 221.231ZM261.635 221.231C261.635 217.559 259.379 214.943 256.067 214.943C252.755 214.943 250.499 217.559 250.499 221.231C250.499 224.903 252.755 227.519 256.067 227.519C259.379 227.519 261.635 224.903 261.635 221.231ZM263.467 215.303V222.071C263.467 225.575 265.003 227.495 267.931 227.495C270.235 227.495 271.291 226.079 271.675 225.143L271.963 224.255L271.987 224.279L271.915 224.567C271.819 224.927 271.771 225.263 271.771 225.623V227.135H273.595V215.303H271.771V221.951C271.771 224.279 270.451 225.839 268.483 225.839C266.251 225.839 265.291 224.351 265.291 221.711C265.291 220.175 265.291 215.303 265.291 215.303H263.467ZM285.617 225.479C285.545 225.479 285.497 225.407 285.497 225.335V216.839H287.585V215.279H285.497V211.079H283.817C283.817 211.103 283.817 213.143 283.817 214.583C283.817 215.015 283.481 215.351 283.049 215.351H281.825V216.839H283.649C283.649 219.791 283.649 225.767 283.649 226.007C283.649 226.631 284.153 227.135 284.777 227.135H288.113V225.479H285.617ZM299.334 227.159V220.391C299.334 216.887 297.774 214.943 294.87 214.943C293.55 214.943 292.59 215.471 291.966 216.071C291.462 216.527 291.174 217.103 291.006 217.631L290.838 218.207L290.79 218.183L290.886 217.871C290.982 217.535 291.03 217.175 291.03 216.815V211.103H289.206V227.159H291.03V220.511C291.03 218.183 292.326 216.623 294.318 216.623C296.55 216.623 297.51 218.111 297.51 220.751C297.51 222.287 297.51 227.159 297.51 227.159H299.334ZM306.739 216.623C308.875 216.623 310.147 218.231 310.363 220.415H303.091C303.307 218.231 304.603 216.623 306.739 216.623ZM312.259 221.783C312.283 221.615 312.307 221.423 312.307 221.231C312.307 217.559 310.051 214.943 306.739 214.943C303.427 214.943 301.171 217.559 301.171 221.231C301.171 224.903 303.427 227.519 306.739 227.519C309.403 227.519 311.347 225.815 312.043 223.271L310.171 222.935C309.763 224.639 308.563 225.839 306.739 225.839C304.507 225.839 303.211 224.087 303.091 221.783H312.259ZM322.86 221.231C322.86 218.567 324.084 216.599 326.436 216.599C328.812 216.599 330.156 218.567 330.156 221.231C330.156 223.871 328.788 225.839 326.436 225.839C324.06 225.839 322.86 223.871 322.86 221.231ZM322.836 224.735C323.148 225.767 324.06 227.495 326.772 227.495C329.916 227.495 332.004 224.879 332.004 221.231C332.004 217.559 329.916 214.943 326.772 214.943C324.06 214.943 323.148 216.647 322.836 217.679L322.572 218.543H322.524L322.62 218.231C322.716 217.895 322.764 217.535 322.764 217.175V211.079H320.94V227.159H322.764V225.263C322.764 224.903 322.716 224.543 322.62 224.207L322.524 223.895H322.572L322.836 224.735ZM339.083 216.623C341.219 216.623 342.491 218.231 342.707 220.415H335.435C335.651 218.231 336.947 216.623 339.083 216.623ZM344.603 221.783C344.627 221.615 344.651 221.423 344.651 221.231C344.651 217.559 342.395 214.943 339.083 214.943C335.771 214.943 333.515 217.559 333.515 221.231C333.515 224.903 335.771 227.519 339.083 227.519C341.747 227.519 343.691 225.815 344.387 223.271L342.515 222.935C342.107 224.639 340.907 225.839 339.083 225.839C336.851 225.839 335.555 224.087 335.435 221.783H344.603ZM355.412 224.063C355.412 221.567 353.108 220.871 351.188 220.391C350.156 220.127 348.212 219.695 348.212 218.231C348.212 217.343 348.932 216.479 350.708 216.479C352.676 216.479 353.276 217.559 353.276 218.759H354.98C354.98 216.815 353.876 214.943 350.66 214.943C347.612 214.943 346.364 216.431 346.364 218.063C346.364 220.199 347.996 221.063 350.252 221.615C352.484 222.143 353.564 222.791 353.564 223.967C353.564 225.263 352.436 225.959 350.876 225.959C348.284 225.959 347.924 224.111 347.924 223.367H346.1C346.1 225.359 347.372 227.495 350.948 227.495C354.068 227.495 355.412 225.935 355.412 224.063ZM360.289 225.479C360.217 225.479 360.169 225.407 360.169 225.335V216.839H362.257V215.279H360.169V211.079H358.489C358.489 211.103 358.489 213.143 358.489 214.583C358.489 215.015 358.153 215.351 357.721 215.351H356.497V216.839H358.321C358.321 219.791 358.321 225.767 358.321 226.007C358.321 226.631 358.825 227.135 359.449 227.135H362.785V225.479H360.289ZM89.3474 246.407C88.9874 248.447 87.7154 249.839 85.7234 249.839C83.3474 249.839 81.9794 247.871 81.9794 245.231C81.9794 242.591 83.3474 240.623 85.7234 240.623C87.7154 240.623 88.9874 242.015 89.3474 244.055L91.1714 243.863C90.6914 240.887 88.6034 238.943 85.7234 238.943C82.4114 238.943 80.1554 241.559 80.1554 245.231C80.1554 248.903 82.4114 251.519 85.7234 251.519C88.6034 251.519 90.6914 249.575 91.1714 246.623L89.3474 246.407ZM103.209 251.159V244.391C103.209 240.887 101.649 238.943 98.7447 238.943C97.4247 238.943 96.4647 239.471 95.8407 240.071C95.3367 240.527 95.0487 241.103 94.8807 241.631L94.7127 242.207L94.6647 242.183L94.7607 241.871C94.8567 241.535 94.9047 241.175 94.9047 240.815V235.103H93.0807V251.159H94.9047V244.511C94.9047 242.183 96.2007 240.623 98.1927 240.623C100.425 240.623 101.385 242.111 101.385 244.751C101.385 246.287 101.385 251.159 101.385 251.159H103.209ZM112.918 246.263C112.918 248.255 111.622 249.887 109.246 249.887C107.902 249.887 107.038 249.143 106.918 248.111C106.798 247.031 107.422 245.975 108.958 245.687C109.798 245.543 111.238 245.255 111.79 245.135C112.702 244.967 112.918 244.679 112.918 244.679V246.263ZM115.726 249.599H114.886C114.814 249.599 114.766 249.551 114.766 249.479V243.431C114.79 240.623 113.206 238.943 110.182 238.943C108.598 238.943 107.254 239.471 106.414 240.431C105.622 241.319 105.382 242.447 105.622 243.551L107.422 243.287C107.302 242.711 107.326 241.991 107.782 241.415C108.166 240.959 108.886 240.479 110.158 240.479C111.91 240.479 112.846 241.439 112.846 242.615C112.846 243.095 112.63 243.407 112.222 243.575C111.862 243.719 111.214 243.815 110.374 243.983C109.726 244.127 108.598 244.367 107.83 244.583C105.646 245.183 105.022 246.647 105.07 248.159C105.094 249.887 106.462 251.519 108.934 251.519C110.542 251.519 111.742 250.895 112.51 249.959C112.87 249.503 113.11 248.903 113.23 248.303C113.254 248.255 113.326 247.895 113.326 247.895H113.35L113.326 248.063C113.254 248.423 113.23 248.783 113.206 249.143C113.206 249.287 113.206 249.839 113.206 250.271C113.206 250.775 113.566 251.159 114.118 251.159H115.726V249.599ZM127.677 244.391C127.677 240.887 125.997 238.943 123.213 238.943C121.605 238.943 120.549 239.663 119.949 240.407C119.661 240.767 119.493 241.199 119.373 241.583L119.181 242.207L119.133 242.183L119.229 241.871C119.325 241.535 119.373 241.175 119.373 240.815V239.303H117.549V251.159H119.373V244.511C119.373 242.183 120.669 240.623 122.661 240.623C124.749 240.623 125.853 242.111 125.853 244.751C125.853 246.287 125.853 251.159 125.853 251.159H127.677V244.391ZM138.426 246.407C138.066 248.447 136.794 249.839 134.802 249.839C132.426 249.839 131.058 247.871 131.058 245.231C131.058 242.591 132.426 240.623 134.802 240.623C136.794 240.623 138.066 242.015 138.426 244.055L140.25 243.863C139.77 240.887 137.682 238.943 134.802 238.943C131.49 238.943 129.234 241.559 129.234 245.231C129.234 248.903 131.49 251.519 134.802 251.519C137.682 251.519 139.77 249.575 140.25 246.623L138.426 246.407ZM147.247 240.623C149.383 240.623 150.655 242.231 150.871 244.415H143.599C143.815 242.231 145.111 240.623 147.247 240.623ZM152.767 245.783C152.791 245.615 152.815 245.423 152.815 245.231C152.815 241.559 150.559 238.943 147.247 238.943C143.935 238.943 141.679 241.559 141.679 245.231C141.679 248.903 143.935 251.519 147.247 251.519C149.911 251.519 151.855 249.815 152.551 247.271L150.679 246.935C150.271 248.639 149.071 249.839 147.247 249.839C145.015 249.839 143.719 248.087 143.599 245.783H152.767ZM162.792 245.231C162.792 242.591 164.16 240.623 166.536 240.623C168.888 240.623 170.256 242.591 170.256 245.231C170.256 247.871 168.888 249.839 166.536 249.839C164.16 249.839 162.792 247.871 162.792 245.231ZM172.104 245.231C172.104 241.559 169.848 238.943 166.536 238.943C163.224 238.943 160.968 241.559 160.968 245.231C160.968 248.903 163.224 251.519 166.536 251.519C169.848 251.519 172.104 248.903 172.104 245.231ZM177.056 240.959H179.432V239.279H176.912C176.912 239.279 176.744 238.151 176.744 237.599C176.744 237.023 177.08 236.639 177.536 236.639H178.544V235.079H176.864C175.592 235.079 175.04 235.967 175.04 236.951C175.04 237.671 175.184 238.439 175.328 238.847C175.376 239.039 175.52 239.183 175.688 239.279C175.76 239.327 175.976 239.447 176.048 239.447V239.495C176 239.495 175.856 239.447 175.808 239.423C175.496 239.351 175.16 239.279 174.848 239.279H173.144V240.959H175.208V251.135H177.056V240.959ZM196.365 248.063C196.365 245.567 194.061 244.871 192.141 244.391C191.109 244.127 189.165 243.695 189.165 242.231C189.165 241.343 189.885 240.479 191.661 240.479C193.629 240.479 194.229 241.559 194.229 242.759H195.933C195.933 240.815 194.829 238.943 191.613 238.943C188.565 238.943 187.317 240.431 187.317 242.063C187.317 244.199 188.949 245.063 191.205 245.615C193.437 246.143 194.517 246.791 194.517 247.967C194.517 249.263 193.389 249.959 191.829 249.959C189.237 249.959 188.877 248.111 188.877 247.367H187.053C187.053 249.359 188.325 251.495 191.901 251.495C195.021 251.495 196.365 249.935 196.365 248.063ZM198.194 239.303V246.071C198.194 249.575 199.73 251.495 202.658 251.495C204.962 251.495 206.018 250.079 206.402 249.143L206.69 248.255L206.714 248.279L206.642 248.567C206.546 248.927 206.498 249.263 206.498 249.623V251.135H208.322V239.303H206.498V245.951C206.498 248.279 205.178 249.839 203.21 249.839C200.978 249.839 200.018 248.351 200.018 245.711C200.018 244.175 200.018 239.303 200.018 239.303H198.194ZM219.496 246.407C219.136 248.447 217.864 249.839 215.872 249.839C213.496 249.839 212.128 247.871 212.128 245.231C212.128 242.591 213.496 240.623 215.872 240.623C217.864 240.623 219.136 242.015 219.496 244.055L221.32 243.863C220.84 240.887 218.752 238.943 215.872 238.943C212.56 238.943 210.304 241.559 210.304 245.231C210.304 248.903 212.56 251.519 215.872 251.519C218.752 251.519 220.84 249.575 221.32 246.623L219.496 246.407ZM231.941 246.407C231.581 248.447 230.309 249.839 228.317 249.839C225.941 249.839 224.573 247.871 224.573 245.231C224.573 242.591 225.941 240.623 228.317 240.623C230.309 240.623 231.581 242.015 231.941 244.055L233.765 243.863C233.285 240.887 231.197 238.943 228.317 238.943C225.005 238.943 222.749 241.559 222.749 245.231C222.749 248.903 225.005 251.519 228.317 251.519C231.197 251.519 233.285 249.575 233.765 246.623L231.941 246.407ZM240.762 240.623C242.898 240.623 244.17 242.231 244.386 244.415H237.114C237.33 242.231 238.626 240.623 240.762 240.623ZM246.282 245.783C246.306 245.615 246.33 245.423 246.33 245.231C246.33 241.559 244.074 238.943 240.762 238.943C237.45 238.943 235.194 241.559 235.194 245.231C235.194 248.903 237.45 251.519 240.762 251.519C243.426 251.519 245.37 249.815 246.066 247.271L244.194 246.935C243.786 248.639 242.586 249.839 240.762 249.839C238.53 249.839 237.234 248.087 237.114 245.783H246.282ZM257.092 248.063C257.092 245.567 254.788 244.871 252.868 244.391C251.836 244.127 249.892 243.695 249.892 242.231C249.892 241.343 250.612 240.479 252.388 240.479C254.356 240.479 254.956 241.559 254.956 242.759H256.66C256.66 240.815 255.556 238.943 252.34 238.943C249.292 238.943 248.044 240.431 248.044 242.063C248.044 244.199 249.676 245.063 251.932 245.615C254.164 246.143 255.244 246.791 255.244 247.967C255.244 249.263 254.116 249.959 252.556 249.959C249.964 249.959 249.604 248.111 249.604 247.367H247.78C247.78 249.359 249.052 251.495 252.628 251.495C255.748 251.495 257.092 249.935 257.092 248.063ZM267.897 248.063C267.897 245.567 265.593 244.871 263.673 244.391C262.641 244.127 260.697 243.695 260.697 242.231C260.697 241.343 261.417 240.479 263.193 240.479C265.161 240.479 265.761 241.559 265.761 242.759H267.465C267.465 240.815 266.361 238.943 263.145 238.943C260.097 238.943 258.849 240.431 258.849 242.063C258.849 244.199 260.481 245.063 262.737 245.615C264.969 246.143 266.049 246.791 266.049 247.967C266.049 249.263 264.921 249.959 263.361 249.959C260.769 249.959 260.409 248.111 260.409 247.367H258.585C258.585 249.359 259.857 251.495 263.433 251.495C266.553 251.495 267.897 249.935 267.897 248.063ZM270.061 251.303C270.637 251.303 271.093 250.823 271.093 250.271C271.093 249.695 270.637 249.239 270.061 249.239C269.509 249.239 269.053 249.695 269.053 250.271C269.053 250.823 269.509 251.303 270.061 251.303Z" fill="#303030"/>
<path fill-rule="evenodd" clip-rule="evenodd" d="M408.408 36.9447C404.564 36.9447 401.447 39.9343 401.447 43.6221C401.447 47.3099 404.564 50.2995 408.408 50.2995C412.253 50.2995 415.37 47.3099 415.37 43.6221C415.37 39.9343 412.253 36.9447 408.408 36.9447ZM393.447 43.6221C393.447 35.6963 400.145 29.2712 408.408 29.2712C416.671 29.2712 423.37 35.6963 423.37 43.6221C423.37 51.5479 416.671 57.973 408.408 57.973C400.145 57.973 393.447 51.5479 393.447 43.6221Z" fill="#303030"/>
<path fill-rule="evenodd" clip-rule="evenodd" d="M397.571 61.4317C395.022 63.5216 393.408 66.5326 393.408 70.4424C393.408 72.5614 391.617 74.2792 389.408 74.2792C387.199 74.2792 385.408 72.5614 385.408 70.4424C385.408 64.2871 388.047 59.145 392.374 55.5982C396.643 52.0992 402.358 50.2996 408.408 50.2996C414.458 50.2996 420.173 52.0992 424.441 55.5982C428.768 59.145 431.408 64.2871 431.408 70.4424C431.408 72.5614 429.617 74.2792 427.408 74.2792C425.199 74.2792 423.408 72.5614 423.408 70.4424C423.408 66.5326 421.794 63.5216 419.244 61.4317C416.636 59.2939 412.851 57.973 408.408 57.973C403.964 57.973 400.179 59.2939 397.571 61.4317Z" fill="#303030"/>
<path fill-rule="evenodd" clip-rule="evenodd" d="M403.408 86.8223C403.408 76.2275 412.362 67.6387 423.408 67.6387H439.408C441.617 67.6387 443.408 69.3564 443.408 71.4754V104.727C443.408 106.603 441.994 108.203 440.065 108.512L408.065 113.627C406.905 113.813 405.719 113.499 404.822 112.77C403.925 112.041 403.408 110.971 403.408 109.843V86.8223ZM423.408 75.3121C416.78 75.3121 411.408 80.4654 411.408 86.8223V105.314L435.408 101.477V75.3121H423.408Z" fill="#FFF6E9"/>
<path fill-rule="evenodd" clip-rule="evenodd" d="M411.408 86.8223C411.408 76.2275 402.453 67.6387 391.408 67.6387H375.408C373.199 67.6387 371.408 69.3564 371.408 71.4754V104.727C371.408 106.603 372.821 108.203 374.75 108.512L406.75 113.627C407.91 113.813 409.096 113.499 409.993 112.77C410.89 112.041 411.408 110.971 411.408 109.843V86.8223ZM391.408 75.3121C398.035 75.3121 403.408 80.4654 403.408 86.8223V105.314L379.408 101.477V75.3121H391.408Z" fill="#FFF6E9"/>
</svg>
