<svg width="475" height="300" viewBox="0 0 475 300" fill="none" xmlns="http://www.w3.org/2000/svg">
<rect x="0.282227" y="0.403564" width="474.259" height="299" rx="10" fill="#F98D2B"/>
<path d="M61.2334 56.2332C61.2334 52.2972 57.8734 50.8572 53.5854 49.7372C49.7774 48.7772 48.0174 47.8172 48.0174 45.6412C48.0174 43.7532 49.5534 42.3132 52.8494 42.3132C56.1454 42.3132 57.8094 44.1052 57.8094 46.8572H60.4334C60.4334 43.2412 58.4174 40.0412 52.8494 40.0412C47.6014 40.0412 45.3934 42.5692 45.3934 45.6092C45.3934 49.0012 47.6654 50.7292 52.4014 51.8812C56.6894 52.9372 58.5774 53.8332 58.5774 56.3932C58.5774 58.6012 56.6574 60.1692 53.3294 60.1692C49.4894 60.1692 47.5054 58.0252 47.5054 55.1132H44.8814C44.8814 59.0812 47.4414 62.4092 53.3934 62.4092C59.0574 62.4092 61.2334 59.4012 61.2334 56.2332ZM67.7066 59.7212C67.6106 59.7212 67.5466 59.6252 67.5466 59.5292V48.2012H70.3306V46.1212H67.5466V40.5212H65.3066C65.3066 40.5532 65.3066 43.2732 65.3066 45.1932C65.3066 45.7692 64.8586 46.2172 64.2826 46.2172H62.6506V48.2012H65.0826C65.0826 52.1372 65.0826 60.1052 65.0826 60.4252C65.0826 61.2572 65.7546 61.9292 66.5866 61.9292H71.0346V59.7212H67.7066ZM79.2756 47.9132C82.1236 47.9132 83.8196 50.0572 84.1076 52.9692H74.4116C74.6996 50.0572 76.4276 47.9132 79.2756 47.9132ZM86.6356 54.7932C86.6676 54.5692 86.6996 54.3132 86.6996 54.0572C86.6996 49.1612 83.6916 45.6732 79.2756 45.6732C74.8596 45.6732 71.8516 49.1612 71.8516 54.0572C71.8516 58.9532 74.8596 62.4412 79.2756 62.4412C82.8276 62.4412 85.4196 60.1692 86.3476 56.7772L83.8516 56.3292C83.3076 58.6012 81.7076 60.2012 79.2756 60.2012C76.2996 60.2012 74.5716 57.8652 74.4116 54.7932H86.6356ZM101.592 54.0572C101.592 57.5772 99.8001 60.2012 96.6321 60.2012C93.4961 60.2012 91.8641 57.5772 91.8641 54.0572C91.8641 50.5372 93.4641 47.9132 96.6321 47.9132C99.7681 47.9132 101.592 50.5372 101.592 54.0572ZM91.7361 59.4652C91.7361 58.9852 91.6721 58.5052 91.5441 58.0572L91.4161 57.6412L91.4801 57.6092L91.8321 58.7932C92.2481 60.1372 93.4641 62.4412 97.0801 62.4412C101.272 62.4412 104.056 58.9532 104.056 54.0572C104.056 49.1932 101.272 45.6732 97.0801 45.6732C93.4641 45.6732 92.2481 47.9772 91.8321 49.3852L91.4801 50.5052L91.4161 50.4732L91.5441 50.0892C91.6721 49.6092 91.7361 49.1292 91.7361 48.6492V46.1532H89.3041V67.5932H91.7361V59.4652ZM115.009 55.0812C114.977 59.7212 118.753 62.4092 122.913 62.4092C127.137 62.4092 131.041 59.8812 131.041 54.8252C131.041 50.5692 127.745 47.4652 123.489 47.4652C120.321 47.4652 118.817 48.8732 118.081 49.8972L117.889 50.1532L117.825 50.1212L117.889 50.0892C118.273 49.6092 118.337 49.2252 118.401 48.6172L119.233 42.8572H129.377V40.5212H117.025L115.457 51.9772H118.465C118.721 51.4652 120.097 49.9292 123.009 49.9292C125.889 49.9292 128.417 51.9132 128.417 54.9852C128.417 58.5372 125.665 60.0732 122.913 60.0732C120.257 60.0732 117.601 58.3452 117.633 55.0812H115.009ZM133.966 62.1532C134.734 62.1532 135.342 61.5132 135.342 60.7772C135.342 60.0092 134.734 59.4012 133.966 59.4012C133.23 59.4012 132.622 60.0092 132.622 60.7772C132.622 61.5132 133.23 62.1532 133.966 62.1532ZM65.0334 83.1692H44.0334V88.9692H51.1534V109.929H57.8734V88.9692H65.0334V83.1692ZM85.2443 109.969V98.3692C85.2443 93.1292 82.9643 89.6092 78.3643 89.6092C76.6043 89.6092 75.4043 90.1292 74.5643 90.7292C73.5243 91.5292 73.1643 92.5692 72.9643 93.3692L72.7643 94.2892H72.6843L72.8043 93.8892C72.9243 93.1692 73.0043 92.4092 73.0043 91.6892V83.2092H66.8843V109.969H73.0043V99.7692C73.0043 96.8492 73.9643 95.0892 76.0843 95.0892C78.2843 95.0892 79.0843 96.8092 79.0843 99.8892C79.0843 100.529 79.0843 109.969 79.0843 109.969H85.2443ZM97.5259 95.0892C99.2059 95.0892 100.366 96.2092 100.806 97.8892H94.2059C94.6459 96.2092 95.8059 95.0892 97.5259 95.0892ZM107.206 102.089C107.286 101.449 107.366 100.809 107.366 100.089C107.366 93.5692 103.166 89.6092 97.5259 89.6092C91.8459 89.6092 87.6859 93.5692 87.6859 100.089C87.6859 106.649 91.8459 110.569 97.5259 110.569C101.806 110.569 105.246 108.289 106.646 104.329L100.406 103.209C99.8459 104.369 98.8459 105.089 97.5259 105.089C95.7659 105.089 94.5659 103.889 94.1659 102.089H107.206ZM126.462 100.089C126.462 97.0092 127.902 95.0892 130.182 95.0892C132.422 95.0892 133.862 97.0092 133.862 100.089C133.862 103.169 132.422 105.089 130.182 105.089C127.902 105.089 126.462 103.169 126.462 100.089ZM140.022 100.089C140.022 93.5692 135.822 89.6092 130.182 89.6092C124.502 89.6092 120.342 93.5692 120.342 100.089C120.342 106.649 124.502 110.569 130.182 110.569C135.822 110.569 140.022 106.649 140.022 100.089ZM162.305 90.2092C162.305 90.2092 162.225 89.1692 162.225 88.9292C162.225 88.4892 162.545 88.1292 162.945 88.1292H164.545V83.1692H159.705C157.825 83.1692 156.665 84.4492 156.665 86.3292C156.665 87.4492 156.945 88.3692 157.225 89.0492C157.385 89.4092 157.665 89.7292 157.945 89.9292C158.225 90.1692 158.625 90.3292 158.945 90.4492V90.4892C158.705 90.4492 158.465 90.3692 158.225 90.3292C157.705 90.2492 157.185 90.2092 156.665 90.2092H149.825C149.825 90.2092 149.745 89.1692 149.745 88.9292C149.745 88.4892 150.065 88.1292 150.465 88.1292H152.105V83.1692H147.225C145.385 83.1692 144.185 84.4492 144.185 86.3292C144.185 87.4492 144.465 88.3692 144.785 89.0492C144.945 89.4092 145.185 89.7292 145.505 89.9292C145.785 90.1692 146.145 90.3292 146.465 90.4492V90.4892C146.265 90.4492 145.985 90.3692 145.785 90.3292C145.265 90.2492 144.745 90.2092 144.185 90.2092H141.585V95.1692H144.265V109.929H150.425V95.1692H156.745V109.929H162.865V95.1692H166.065V90.2092H162.305ZM177.331 95.0892C179.011 95.0892 180.171 96.2092 180.611 97.8892H174.011C174.451 96.2092 175.611 95.0892 177.331 95.0892ZM187.011 102.089C187.091 101.449 187.171 100.809 187.171 100.089C187.171 93.5692 182.971 89.6092 177.331 89.6092C171.651 89.6092 167.491 93.5692 167.491 100.089C167.491 106.649 171.651 110.569 177.331 110.569C181.611 110.569 185.051 108.289 186.451 104.329L180.211 103.209C179.651 104.369 178.651 105.089 177.331 105.089C175.571 105.089 174.371 103.889 173.971 102.089H187.011ZM195.934 101.329C195.934 98.0092 196.614 95.4892 197.814 95.4892C198.694 95.4892 198.814 96.6892 198.814 97.6492V99.7692L204.974 99.7292V95.1292C204.974 92.2492 203.934 89.6092 200.694 89.6092C199.614 89.6092 198.534 90.0492 197.814 90.7292C196.894 91.6092 196.454 92.6892 196.214 93.4092C196.134 93.7292 196.014 94.2892 195.974 94.6492L195.814 95.6492H195.734L195.814 95.1292C195.894 94.5292 195.934 93.8892 195.934 93.2892V90.2092H189.814V109.969H195.934V101.329Z" fill="#FFF6E9"/>
<path d="M93.1854 163.464H90.9054L86.2254 170.4C86.1054 170.616 86.0334 170.856 86.0334 171.096V171.288H85.9854V171.096C85.9854 170.856 85.9374 170.616 85.7934 170.4L81.1374 163.464H78.8574L84.5214 171.888C84.8574 172.416 85.0254 173.016 85.0254 173.64V179.544H87.0174V173.64C87.0174 173.016 87.1854 172.416 87.5214 171.888L93.1854 163.464ZM92.6542 173.616C92.6542 170.976 94.0222 169.008 96.3982 169.008C98.7502 169.008 100.118 170.976 100.118 173.616C100.118 176.256 98.7502 178.224 96.3982 178.224C94.0222 178.224 92.6542 176.256 92.6542 173.616ZM101.966 173.616C101.966 169.944 99.7102 167.328 96.3982 167.328C93.0862 167.328 90.8302 169.944 90.8302 173.616C90.8302 177.288 93.0862 179.904 96.3982 179.904C99.7102 179.904 101.966 177.288 101.966 173.616ZM103.798 167.688V174.456C103.798 177.96 105.334 179.88 108.262 179.88C110.566 179.88 111.622 178.464 112.006 177.528L112.294 176.64L112.318 176.664L112.246 176.952C112.15 177.312 112.102 177.648 112.102 178.008V179.52H113.926V167.688H112.102V174.336C112.102 176.664 110.782 178.224 108.814 178.224C106.582 178.224 105.622 176.736 105.622 174.096C105.622 172.56 105.622 167.688 105.622 167.688H103.798ZM117.156 163.104C116.724 163.2 116.388 163.56 116.364 164.016C116.364 164.16 116.388 164.328 116.46 164.472C116.532 164.592 116.484 164.688 116.436 164.76L115.548 165.696L116.436 166.56L118.116 164.76C118.356 164.496 118.404 164.16 118.332 163.848C118.188 163.32 117.684 163.008 117.156 163.104ZM120.908 179.544V173.712C120.908 171.72 121.844 169.104 122.804 169.104C123.452 169.104 123.644 169.968 123.644 170.64V171.96H125.492V170.256C125.492 168.48 124.916 167.328 123.524 167.328C122.804 167.328 122.204 167.856 121.772 168.48C121.34 169.08 121.1 169.776 121.028 170.184C121.004 170.256 120.908 170.832 120.884 170.904L120.812 171.36H120.788L120.836 171.048C120.884 170.664 120.908 170.304 120.908 169.92V167.688H119.084V179.544H120.908ZM132.281 169.008C134.417 169.008 135.689 170.616 135.905 172.8H128.633C128.849 170.616 130.145 169.008 132.281 169.008ZM137.801 174.168C137.825 174 137.849 173.808 137.849 173.616C137.849 169.944 135.593 167.328 132.281 167.328C128.969 167.328 126.713 169.944 126.713 173.616C126.713 177.288 128.969 179.904 132.281 179.904C134.945 179.904 136.889 178.2 137.585 175.656L135.713 175.32C135.305 177.024 134.105 178.224 132.281 178.224C130.049 178.224 128.753 176.472 128.633 174.168H137.801ZM146.482 179.544H148.33C148.33 176.52 148.33 167.736 148.33 167.688H146.482V179.544ZM147.394 166.008C147.97 166.008 148.426 165.552 148.426 165C148.426 164.424 147.97 163.968 147.394 163.968C146.842 163.968 146.386 164.424 146.386 165C146.386 165.552 146.842 166.008 147.394 166.008ZM160.923 172.776C160.923 169.272 159.243 167.328 156.459 167.328C154.851 167.328 153.795 168.048 153.195 168.792C152.907 169.152 152.739 169.584 152.619 169.968L152.427 170.592L152.379 170.568L152.475 170.256C152.571 169.92 152.619 169.56 152.619 169.2V167.688H150.795V179.544H152.619V172.896C152.619 170.568 153.915 169.008 155.907 169.008C157.995 169.008 159.099 170.496 159.099 173.136C159.099 174.672 159.099 179.544 159.099 179.544H160.923V172.776ZM163.936 177C163.384 177 162.928 177.456 162.928 178.008C162.928 178.584 163.384 179.04 163.936 179.04C164.512 179.04 164.968 178.584 164.968 178.008C164.968 177.456 164.512 177 163.936 177ZM164.992 163.464H162.904C162.904 163.464 162.904 164.4 162.904 164.952C162.904 165.312 162.904 165.696 162.904 166.056C162.904 166.848 163.024 168.12 163.096 169.392V169.416C163.168 170.568 163.264 171.744 163.288 172.656C163.288 173.112 163.288 173.52 163.288 173.88C163.288 174.48 163.288 175.128 163.288 175.128H164.608C164.608 175.128 164.608 174.48 164.608 173.88C164.608 173.52 164.608 173.112 164.608 172.656C164.632 171.744 164.704 170.568 164.8 169.416C164.896 168.12 164.968 166.848 164.992 166.056C164.992 165.696 164.992 165.312 164.992 164.952C164.992 164.4 164.992 163.464 164.992 163.464ZM191.376 163.464L187.92 175.344C187.8 175.704 187.752 176.064 187.752 176.4V176.784H187.728V176.424C187.728 176.064 187.656 175.704 187.56 175.368L183.984 163.464H182.304L178.728 175.368C178.608 175.704 178.56 176.064 178.56 176.424V176.784H178.512V176.4C178.512 176.064 178.464 175.704 178.368 175.344L174.888 163.464H172.848L177.552 179.544H179.472L182.976 167.856C183.072 167.496 183.12 167.16 183.12 166.8V166.344H183.168V166.8C183.168 167.16 183.216 167.496 183.312 167.856L186.816 179.544H188.736L193.44 163.464H191.376ZM204.258 179.544V172.776C204.258 169.272 202.698 167.328 199.794 167.328C198.474 167.328 197.514 167.856 196.89 168.456C196.386 168.912 196.098 169.488 195.93 170.016L195.762 170.592L195.714 170.568L195.81 170.256C195.906 169.92 195.954 169.56 195.954 169.2V163.488H194.13V179.544H195.954V172.896C195.954 170.568 197.25 169.008 199.242 169.008C201.474 169.008 202.434 170.496 202.434 173.136C202.434 174.672 202.434 179.544 202.434 179.544H204.258ZM213.968 174.648C213.968 176.64 212.672 178.272 210.296 178.272C208.952 178.272 208.088 177.528 207.968 176.496C207.848 175.416 208.472 174.36 210.008 174.072C210.848 173.928 212.288 173.64 212.84 173.52C213.752 173.352 213.968 173.064 213.968 173.064V174.648ZM216.776 177.984H215.936C215.864 177.984 215.816 177.936 215.816 177.864V171.816C215.84 169.008 214.256 167.328 211.232 167.328C209.648 167.328 208.304 167.856 207.464 168.816C206.672 169.704 206.432 170.832 206.672 171.936L208.472 171.672C208.352 171.096 208.376 170.376 208.832 169.8C209.216 169.344 209.936 168.864 211.208 168.864C212.96 168.864 213.896 169.824 213.896 171C213.896 171.48 213.68 171.792 213.272 171.96C212.912 172.104 212.264 172.2 211.424 172.368C210.776 172.512 209.648 172.752 208.88 172.968C206.696 173.568 206.072 175.032 206.12 176.544C206.144 178.272 207.512 179.904 209.984 179.904C211.592 179.904 212.792 179.28 213.56 178.344C213.92 177.888 214.16 177.288 214.28 176.688C214.304 176.64 214.376 176.28 214.376 176.28H214.4L214.376 176.448C214.304 176.808 214.28 177.168 214.256 177.528C214.256 177.672 214.256 178.224 214.256 178.656C214.256 179.16 214.616 179.544 215.168 179.544H216.776V177.984ZM220.964 177.864C220.892 177.864 220.844 177.792 220.844 177.72V169.224H222.932V167.664H220.844V163.464H219.164C219.164 163.488 219.164 165.528 219.164 166.968C219.164 167.4 218.828 167.736 218.396 167.736H217.172V169.224H218.996C218.996 172.176 218.996 178.152 218.996 178.392C218.996 179.016 219.5 179.52 220.124 179.52H223.46V177.864H220.964ZM225.859 163.104C225.427 163.2 225.091 163.56 225.067 164.016C225.067 164.16 225.091 164.328 225.163 164.472C225.235 164.592 225.187 164.688 225.139 164.76L224.251 165.696L225.139 166.56L226.819 164.76C227.059 164.496 227.107 164.16 227.035 163.848C226.891 163.32 226.387 163.008 225.859 163.104ZM235.517 176.448C235.517 173.952 233.213 173.256 231.293 172.776C230.261 172.512 228.317 172.08 228.317 170.616C228.317 169.728 229.037 168.864 230.813 168.864C232.781 168.864 233.381 169.944 233.381 171.144H235.085C235.085 169.2 233.981 167.328 230.765 167.328C227.717 167.328 226.469 168.816 226.469 170.448C226.469 172.584 228.101 173.448 230.357 174C232.589 174.528 233.669 175.176 233.669 176.352C233.669 177.648 232.541 178.344 230.981 178.344C228.389 178.344 228.029 176.496 228.029 175.752H226.205C226.205 177.744 227.477 179.88 231.053 179.88C234.173 179.88 235.517 178.32 235.517 176.448ZM253.121 169.656C252.473 167.904 251.129 167.328 249.641 167.328C248.081 167.328 247.169 168.048 246.617 168.792C246.305 169.176 246.113 169.608 245.993 170.016L245.825 170.592L245.777 170.568L245.873 170.256C245.969 169.92 246.017 169.56 246.017 169.2V167.688H244.193V179.544H246.017V172.896C246.017 170.568 247.121 169.008 248.969 169.008C250.553 169.008 251.753 169.92 251.753 172.896C251.753 174.408 251.753 179.544 251.753 179.544H253.601V172.896C253.601 170.568 254.681 169.008 256.553 169.008C258.137 169.008 259.337 170.112 259.337 172.776C259.337 174.288 259.337 179.544 259.337 179.544H261.185V172.272C261.185 168.792 259.313 167.328 257.033 167.328C255.089 167.328 254.081 168.528 253.649 169.296C253.433 169.68 253.289 170.064 253.241 170.304C253.217 170.352 253.169 170.592 253.169 170.592L253.145 170.568L253.169 170.4C253.241 170.112 253.217 169.872 253.121 169.656ZM264.568 173.616C264.568 170.976 265.936 169.008 268.312 169.008C270.664 169.008 272.032 170.976 272.032 173.616C272.032 176.256 270.664 178.224 268.312 178.224C265.936 178.224 264.568 176.256 264.568 173.616ZM273.88 173.616C273.88 169.944 271.624 167.328 268.312 167.328C265 167.328 262.744 169.944 262.744 173.616C262.744 177.288 265 179.904 268.312 179.904C271.624 179.904 273.88 177.288 273.88 173.616ZM277.47 179.544V173.712C277.47 171.72 278.406 169.104 279.366 169.104C280.014 169.104 280.206 169.968 280.206 170.64V171.96H282.054V170.256C282.054 168.48 281.478 167.328 280.086 167.328C279.366 167.328 278.766 167.856 278.334 168.48C277.902 169.08 277.662 169.776 277.59 170.184C277.566 170.256 277.47 170.832 277.446 170.904L277.374 171.36H277.35L277.398 171.048C277.446 170.664 277.47 170.304 277.47 169.92V167.688H275.646V179.544H277.47ZM288.843 169.008C290.979 169.008 292.251 170.616 292.467 172.8H285.195C285.411 170.616 286.707 169.008 288.843 169.008ZM294.363 174.168C294.387 174 294.411 173.808 294.411 173.616C294.411 169.944 292.155 167.328 288.843 167.328C285.531 167.328 283.275 169.944 283.275 173.616C283.275 177.288 285.531 179.904 288.843 179.904C291.507 179.904 293.451 178.2 294.147 175.656L292.275 175.32C291.867 177.024 290.667 178.224 288.843 178.224C286.611 178.224 285.315 176.472 285.195 174.168H294.363ZM297.348 178.44C297.204 177.936 296.7 177.6 296.172 177.72C295.74 177.792 295.404 178.176 295.38 178.608C295.38 178.776 295.404 178.944 295.476 179.088C295.548 179.184 295.5 179.304 295.452 179.376L294.564 180.312L295.452 181.152L297.132 179.352C297.372 179.112 297.42 178.776 297.348 178.44ZM320.212 167.688L317.428 176.064C317.332 176.328 317.284 176.592 317.284 176.88V177.288H317.236V176.88C317.236 176.592 317.212 176.328 317.116 176.064L314.332 167.688H312.508L309.724 176.064C309.652 176.328 309.604 176.592 309.604 176.88V177.288H309.556V176.88C309.556 176.592 309.508 176.328 309.436 176.064L306.652 167.688H304.756L308.572 179.544H310.396L313.276 171C313.348 170.736 313.396 170.448 313.396 170.16V169.824H313.444V170.16C313.444 170.448 313.492 170.736 313.588 171L316.444 179.544H318.268L322.108 167.688H320.212ZM327.843 169.008C329.979 169.008 331.251 170.616 331.467 172.8H324.195C324.411 170.616 325.707 169.008 327.843 169.008ZM333.363 174.168C333.387 174 333.411 173.808 333.411 173.616C333.411 169.944 331.155 167.328 327.843 167.328C324.531 167.328 322.275 169.944 322.275 173.616C322.275 177.288 324.531 179.904 327.843 179.904C330.507 179.904 332.451 178.2 333.147 175.656L331.275 175.32C330.867 177.024 329.667 178.224 327.843 178.224C325.611 178.224 324.315 176.472 324.195 174.168H333.363ZM349.005 171.576L351.525 167.688H349.317C349.317 167.688 344.397 175.32 344.253 175.536C344.061 175.848 343.941 176.208 343.941 176.592L343.917 176.952H343.869V163.488H342.045V179.544H343.845L347.349 174.12L350.253 179.544H352.293L348.933 173.136C348.669 172.632 348.693 172.032 349.005 171.576ZM363.446 172.776C363.446 169.272 361.766 167.328 358.982 167.328C357.374 167.328 356.318 168.048 355.718 168.792C355.43 169.152 355.262 169.584 355.142 169.968L354.95 170.592L354.902 170.568L354.998 170.256C355.094 169.92 355.142 169.56 355.142 169.2V167.688H353.318V179.544H355.142V172.896C355.142 170.568 356.438 169.008 358.43 169.008C360.518 169.008 361.622 170.496 361.622 173.136C361.622 174.672 361.622 179.544 361.622 179.544H363.446V172.776ZM366.826 173.616C366.826 170.976 368.194 169.008 370.57 169.008C372.922 169.008 374.29 170.976 374.29 173.616C374.29 176.256 372.922 178.224 370.57 178.224C368.194 178.224 366.826 176.256 366.826 173.616ZM376.138 173.616C376.138 169.944 373.882 167.328 370.57 167.328C367.258 167.328 365.002 169.944 365.002 173.616C365.002 177.288 367.258 179.904 370.57 179.904C373.882 179.904 376.138 177.288 376.138 173.616ZM391.743 167.688L388.959 176.064C388.863 176.328 388.815 176.592 388.815 176.88V177.288H388.767V176.88C388.767 176.592 388.743 176.328 388.647 176.064L385.863 167.688H384.039L381.255 176.064C381.183 176.328 381.135 176.592 381.135 176.88V177.288H381.087V176.88C381.087 176.592 381.039 176.328 380.967 176.064L378.183 167.688H376.287L380.103 179.544H381.927L384.807 171C384.879 170.736 384.927 170.448 384.927 170.16V169.824H384.975V170.16C384.975 170.448 385.023 170.736 385.119 171L387.975 179.544H389.799L393.639 167.688H391.743ZM88.3374 191.664L84.8574 200.28C84.7854 200.496 84.7374 200.712 84.7374 200.928V201.336H84.6894V200.928C84.6894 200.712 84.6414 200.496 84.5694 200.28L81.0894 191.664H79.1214L83.4414 202.272C83.6334 202.728 83.6334 203.208 83.4414 203.664L81.7854 207.744H83.7534L90.3054 191.664H88.3374ZM91.8573 197.616C91.8573 194.976 93.2253 193.008 95.6013 193.008C97.9533 193.008 99.3213 194.976 99.3213 197.616C99.3213 200.256 97.9533 202.224 95.6013 202.224C93.2253 202.224 91.8573 200.256 91.8573 197.616ZM101.169 197.616C101.169 193.944 98.9133 191.328 95.6013 191.328C92.2893 191.328 90.0333 193.944 90.0333 197.616C90.0333 201.288 92.2893 203.904 95.6013 203.904C98.9133 203.904 101.169 201.288 101.169 197.616ZM103.002 191.688V198.456C103.002 201.96 104.538 203.88 107.466 203.88C109.77 203.88 110.826 202.464 111.21 201.528L111.498 200.64L111.522 200.664L111.45 200.952C111.354 201.312 111.306 201.648 111.306 202.008V203.52H113.13V191.688H111.306V198.336C111.306 200.664 109.986 202.224 108.018 202.224C105.786 202.224 104.826 200.736 104.826 198.096C104.826 196.56 104.826 191.688 104.826 191.688H103.002ZM116.359 187.104C115.927 187.2 115.591 187.56 115.567 188.016C115.567 188.16 115.591 188.328 115.663 188.472C115.735 188.592 115.687 188.688 115.639 188.76L114.751 189.696L115.639 190.56L117.319 188.76C117.559 188.496 117.607 188.16 117.535 187.848C117.391 187.32 116.887 187.008 116.359 187.104ZM119.224 202.416C119.224 203.04 119.728 203.544 120.352 203.544H123.352V201.864H121.192C121.12 201.864 121.048 201.816 121.048 201.72V187.488H119.224C119.2 187.56 119.2 202.032 119.224 202.416ZM124.872 202.416C124.872 203.04 125.376 203.544 126 203.544H129V201.864H126.84C126.768 201.864 126.696 201.816 126.696 201.72V187.488H124.872C124.848 187.56 124.848 202.032 124.872 202.416ZM139.144 197.616C139.144 194.952 140.368 192.984 142.72 192.984C145.096 192.984 146.44 194.952 146.44 197.616C146.44 200.256 145.072 202.224 142.72 202.224C140.344 202.224 139.144 200.256 139.144 197.616ZM139.12 201.12C139.432 202.152 140.344 203.88 143.056 203.88C146.2 203.88 148.288 201.264 148.288 197.616C148.288 193.944 146.2 191.328 143.056 191.328C140.344 191.328 139.432 193.032 139.12 194.064L138.856 194.928H138.808L138.904 194.616C139 194.28 139.048 193.92 139.048 193.56V187.464H137.224V203.544H139.048V201.648C139.048 201.288 139 200.928 138.904 200.592L138.808 200.28H138.856L139.12 201.12ZM155.367 193.008C157.503 193.008 158.775 194.616 158.991 196.8H151.719C151.935 194.616 153.231 193.008 155.367 193.008ZM160.887 198.168C160.911 198 160.935 197.808 160.935 197.616C160.935 193.944 158.679 191.328 155.367 191.328C152.055 191.328 149.799 193.944 149.799 197.616C149.799 201.288 152.055 203.904 155.367 203.904C158.031 203.904 159.975 202.2 160.671 199.656L158.799 199.32C158.391 201.024 157.191 202.224 155.367 202.224C153.135 202.224 151.839 200.472 151.719 198.168H160.887ZM178.376 200.448C178.376 197.952 176.072 197.256 174.152 196.776C173.12 196.512 171.176 196.08 171.176 194.616C171.176 193.728 171.896 192.864 173.672 192.864C175.64 192.864 176.24 193.944 176.24 195.144H177.944C177.944 193.2 176.84 191.328 173.624 191.328C170.576 191.328 169.328 192.816 169.328 194.448C169.328 196.584 170.96 197.448 173.216 198C175.448 198.528 176.528 199.176 176.528 200.352C176.528 201.648 175.4 202.344 173.84 202.344C171.248 202.344 170.888 200.496 170.888 199.752H169.064C169.064 201.744 170.336 203.88 173.912 203.88C177.032 203.88 178.376 202.32 178.376 200.448ZM180.205 191.688V198.456C180.205 201.96 181.741 203.88 184.669 203.88C186.973 203.88 188.029 202.464 188.413 201.528L188.701 200.64L188.725 200.664L188.653 200.952C188.557 201.312 188.509 201.648 188.509 202.008V203.52H190.333V191.688H188.509V198.336C188.509 200.664 187.189 202.224 185.221 202.224C182.989 202.224 182.029 200.736 182.029 198.096C182.029 196.56 182.029 191.688 182.029 191.688H180.205ZM201.507 198.792C201.147 200.832 199.875 202.224 197.883 202.224C195.507 202.224 194.139 200.256 194.139 197.616C194.139 194.976 195.507 193.008 197.883 193.008C199.875 193.008 201.147 194.4 201.507 196.44L203.331 196.248C202.851 193.272 200.763 191.328 197.883 191.328C194.571 191.328 192.315 193.944 192.315 197.616C192.315 201.288 194.571 203.904 197.883 203.904C200.763 203.904 202.851 201.96 203.331 199.008L201.507 198.792ZM213.952 198.792C213.592 200.832 212.32 202.224 210.328 202.224C207.952 202.224 206.584 200.256 206.584 197.616C206.584 194.976 207.952 193.008 210.328 193.008C212.32 193.008 213.592 194.4 213.952 196.44L215.776 196.248C215.296 193.272 213.208 191.328 210.328 191.328C207.016 191.328 204.76 193.944 204.76 197.616C204.76 201.288 207.016 203.904 210.328 203.904C213.208 203.904 215.296 201.96 215.776 199.008L213.952 198.792ZM222.773 193.008C224.909 193.008 226.181 194.616 226.397 196.8H219.125C219.341 194.616 220.637 193.008 222.773 193.008ZM228.293 198.168C228.317 198 228.341 197.808 228.341 197.616C228.341 193.944 226.085 191.328 222.773 191.328C219.461 191.328 217.205 193.944 217.205 197.616C217.205 201.288 219.461 203.904 222.773 203.904C225.437 203.904 227.381 202.2 228.077 199.656L226.205 199.32C225.797 201.024 224.597 202.224 222.773 202.224C220.541 202.224 219.245 200.472 219.125 198.168H228.293ZM239.103 200.448C239.103 197.952 236.799 197.256 234.879 196.776C233.847 196.512 231.903 196.08 231.903 194.616C231.903 193.728 232.623 192.864 234.399 192.864C236.367 192.864 236.967 193.944 236.967 195.144H238.671C238.671 193.2 237.567 191.328 234.351 191.328C231.303 191.328 230.055 192.816 230.055 194.448C230.055 196.584 231.687 197.448 233.943 198C236.175 198.528 237.255 199.176 237.255 200.352C237.255 201.648 236.127 202.344 234.567 202.344C231.975 202.344 231.615 200.496 231.615 199.752H229.791C229.791 201.744 231.063 203.88 234.639 203.88C237.759 203.88 239.103 202.32 239.103 200.448ZM249.907 200.448C249.907 197.952 247.603 197.256 245.683 196.776C244.651 196.512 242.707 196.08 242.707 194.616C242.707 193.728 243.427 192.864 245.203 192.864C247.171 192.864 247.771 193.944 247.771 195.144H249.475C249.475 193.2 248.371 191.328 245.155 191.328C242.107 191.328 240.859 192.816 240.859 194.448C240.859 196.584 242.491 197.448 244.747 198C246.979 198.528 248.059 199.176 248.059 200.352C248.059 201.648 246.931 202.344 245.371 202.344C242.779 202.344 242.419 200.496 242.419 199.752H240.595C240.595 201.744 241.867 203.88 245.443 203.88C248.563 203.88 249.907 202.32 249.907 200.448ZM254.856 193.344H257.232V191.664H254.712C254.712 191.664 254.544 190.536 254.544 189.984C254.544 189.408 254.88 189.024 255.336 189.024H256.344V187.464H254.664C253.392 187.464 252.84 188.352 252.84 189.336C252.84 190.056 252.984 190.824 253.128 191.232C253.176 191.424 253.32 191.568 253.488 191.664C253.56 191.712 253.776 191.832 253.848 191.832V191.88C253.8 191.88 253.656 191.832 253.608 191.808C253.296 191.736 252.96 191.664 252.648 191.664H250.944V193.344H253.008V203.52H254.856V193.344ZM258.509 191.688V198.456C258.509 201.96 260.045 203.88 262.973 203.88C265.277 203.88 266.333 202.464 266.717 201.528L267.005 200.64L267.029 200.664L266.957 200.952C266.861 201.312 266.813 201.648 266.813 202.008V203.52H268.637V191.688H266.813V198.336C266.813 200.664 265.493 202.224 263.525 202.224C261.293 202.224 260.333 200.736 260.333 198.096C260.333 196.56 260.333 191.688 260.333 191.688H258.509ZM271.075 202.416C271.075 203.04 271.579 203.544 272.203 203.544H275.203V201.864H273.043C272.971 201.864 272.899 201.816 272.899 201.72V187.488H271.075C271.051 187.56 271.051 202.032 271.075 202.416ZM276.869 203.688C277.445 203.688 277.901 203.208 277.901 202.656C277.901 202.08 277.445 201.624 276.869 201.624C276.317 201.624 275.861 202.08 275.861 202.656C275.861 203.208 276.317 203.688 276.869 203.688ZM303.712 187.464L300.256 199.344C300.136 199.704 300.088 200.064 300.088 200.4V200.784H300.064V200.424C300.064 200.064 299.992 199.704 299.896 199.368L296.32 187.464H294.64L291.064 199.368C290.944 199.704 290.896 200.064 290.896 200.424V200.784H290.848V200.4C290.848 200.064 290.8 199.704 290.704 199.344L287.224 187.464H285.184L289.888 203.544H291.808L295.312 191.856C295.408 191.496 295.456 191.16 295.456 190.8V190.344H295.504V190.8C295.504 191.16 295.552 191.496 295.648 191.856L299.152 203.544H301.072L305.776 187.464H303.712ZM310.687 193.008C312.823 193.008 314.095 194.616 314.311 196.8H307.039C307.255 194.616 308.551 193.008 310.687 193.008ZM316.207 198.168C316.231 198 316.255 197.808 316.255 197.616C316.255 193.944 313.999 191.328 310.687 191.328C307.375 191.328 305.119 193.944 305.119 197.616C305.119 201.288 307.375 203.904 310.687 203.904C313.351 203.904 315.295 202.2 315.991 199.656L314.119 199.32C313.711 201.024 312.511 202.224 310.687 202.224C308.455 202.224 307.159 200.472 307.039 198.168H316.207ZM333.816 193.656C333.168 191.904 331.824 191.328 330.336 191.328C328.776 191.328 327.864 192.048 327.312 192.792C327 193.176 326.808 193.608 326.688 194.016L326.52 194.592L326.472 194.568L326.568 194.256C326.664 193.92 326.712 193.56 326.712 193.2V191.688H324.888V203.544H326.712V196.896C326.712 194.568 327.816 193.008 329.664 193.008C331.248 193.008 332.448 193.92 332.448 196.896C332.448 198.408 332.448 203.544 332.448 203.544H334.296V196.896C334.296 194.568 335.376 193.008 337.248 193.008C338.832 193.008 340.032 194.112 340.032 196.776C340.032 198.288 340.032 203.544 340.032 203.544H341.88V196.272C341.88 192.792 340.008 191.328 337.728 191.328C335.784 191.328 334.776 192.528 334.344 193.296C334.128 193.68 333.984 194.064 333.936 194.304C333.912 194.352 333.864 194.592 333.864 194.592L333.84 194.568L333.864 194.4C333.936 194.112 333.912 193.872 333.816 193.656ZM344.177 203.544H346.025C346.025 200.52 346.025 191.736 346.025 191.688H344.177V203.544ZM345.089 190.008C345.665 190.008 346.121 189.552 346.121 189C346.121 188.424 345.665 187.968 345.089 187.968C344.537 187.968 344.081 188.424 344.081 189C344.081 189.552 344.537 190.008 345.089 190.008ZM353.32 202.224C350.944 202.224 349.576 200.256 349.576 197.616C349.576 194.976 350.944 193.008 353.32 193.008C355.672 193.008 356.896 194.976 356.896 197.616C356.896 200.256 355.696 202.224 353.32 202.224ZM358.816 201.744V191.688H356.968V193.56C356.968 193.92 357.016 194.28 357.112 194.64L357.208 194.928L357.184 194.952L356.896 194.064C356.584 193.056 355.696 191.328 352.984 191.328C349.84 191.328 347.752 193.968 347.752 197.616C347.752 201.264 349.816 203.904 352.984 203.904C355.696 203.904 356.608 202.176 356.92 201.144L357.184 200.28L357.208 200.304L357.112 200.616C357.04 200.88 356.992 201.168 356.992 201.456C356.992 201.528 356.968 202.176 356.968 202.248C356.968 203.352 357.568 204.048 357.568 204.864C357.568 206.016 356.632 206.232 355.576 206.208H349.672V207.768H356.224C358.456 207.768 359.464 206.904 359.464 205.152C359.464 203.688 358.816 203.352 358.816 201.744ZM371.462 203.544V196.776C371.462 193.272 369.902 191.328 366.998 191.328C365.678 191.328 364.718 191.856 364.094 192.456C363.59 192.912 363.302 193.488 363.134 194.016L362.966 194.592L362.918 194.568L363.014 194.256C363.11 193.92 363.158 193.56 363.158 193.2V187.488H361.334V203.544H363.158V196.896C363.158 194.568 364.454 193.008 366.446 193.008C368.678 193.008 369.638 194.496 369.638 197.136C369.638 198.672 369.638 203.544 369.638 203.544H371.462ZM375.862 201.864C375.79 201.864 375.742 201.792 375.742 201.72V193.224H377.83V191.664H375.742V187.464H374.062C374.062 187.488 374.062 189.528 374.062 190.968C374.062 191.4 373.726 191.736 373.294 191.736H372.07V193.224H373.894C373.894 196.176 373.894 202.152 373.894 202.392C373.894 203.016 374.398 203.52 375.022 203.52H378.358V201.864H375.862ZM85.2654 217.008C87.4014 217.008 88.6734 218.616 88.8894 220.8H81.6174C81.8334 218.616 83.1294 217.008 85.2654 217.008ZM90.7854 222.168C90.8094 222 90.8334 221.808 90.8334 221.616C90.8334 217.944 88.5774 215.328 85.2654 215.328C81.9534 215.328 79.6974 217.944 79.6974 221.616C79.6974 225.288 81.9534 227.904 85.2654 227.904C87.9294 227.904 89.8734 226.2 90.5694 223.656L88.6974 223.32C88.2894 225.024 87.0894 226.224 85.2654 226.224C83.0334 226.224 81.7374 224.472 81.6174 222.168H90.7854ZM100.241 215.688L96.7854 225.504C96.7134 225.72 96.6654 225.984 96.6654 226.224V226.656H96.6174V226.224C96.6174 225.984 96.5934 225.744 96.5214 225.504L93.0654 215.688H91.1694L95.3214 227.544H97.9854L102.137 215.688H100.241ZM107.836 217.008C109.972 217.008 111.244 218.616 111.46 220.8H104.188C104.404 218.616 105.7 217.008 107.836 217.008ZM113.356 222.168C113.38 222 113.404 221.808 113.404 221.616C113.404 217.944 111.148 215.328 107.836 215.328C104.524 215.328 102.268 217.944 102.268 221.616C102.268 225.288 104.524 227.904 107.836 227.904C110.5 227.904 112.444 226.2 113.14 223.656L111.268 223.32C110.86 225.024 109.66 226.224 107.836 226.224C105.604 226.224 104.308 224.472 104.188 222.168H113.356ZM125.485 220.776C125.485 217.272 123.805 215.328 121.021 215.328C119.413 215.328 118.357 216.048 117.757 216.792C117.469 217.152 117.301 217.584 117.181 217.968L116.989 218.592L116.941 218.568L117.037 218.256C117.133 217.92 117.181 217.56 117.181 217.2V215.688H115.357V227.544H117.181V220.896C117.181 218.568 118.477 217.008 120.469 217.008C122.557 217.008 123.661 218.496 123.661 221.136C123.661 222.672 123.661 227.544 123.661 227.544H125.485V220.776ZM137.339 225.864C137.267 225.864 137.219 225.792 137.219 225.72V217.224H139.307V215.664H137.219V211.464H135.539C135.539 211.488 135.539 213.528 135.539 214.968C135.539 215.4 135.203 215.736 134.771 215.736H133.547V217.224H135.371C135.371 220.176 135.371 226.152 135.371 226.392C135.371 227.016 135.875 227.52 136.499 227.52H139.835V225.864H137.339ZM141.298 215.688V222.456C141.298 225.96 142.834 227.88 145.762 227.88C148.066 227.88 149.122 226.464 149.506 225.528L149.794 224.64L149.818 224.664L149.746 224.952C149.65 225.312 149.602 225.648 149.602 226.008V227.52H151.426V215.688H149.602V222.336C149.602 224.664 148.282 226.224 146.314 226.224C144.082 226.224 143.122 224.736 143.122 222.096C143.122 220.56 143.122 215.688 143.122 215.688H141.298ZM155.712 227.544V221.712C155.712 219.72 156.648 217.104 157.608 217.104C158.256 217.104 158.448 217.968 158.448 218.64V219.96H160.296V218.256C160.296 216.48 159.72 215.328 158.328 215.328C157.608 215.328 157.008 215.856 156.576 216.48C156.144 217.08 155.904 217.776 155.832 218.184C155.808 218.256 155.712 218.832 155.688 218.904L155.616 219.36H155.592L155.64 219.048C155.688 218.664 155.712 218.304 155.712 217.92V215.688H153.888V227.544H155.712ZM171.657 220.776C171.657 217.272 169.977 215.328 167.193 215.328C165.585 215.328 164.529 216.048 163.929 216.792C163.641 217.152 163.473 217.584 163.353 217.968L163.161 218.592L163.113 218.568L163.209 218.256C163.305 217.92 163.353 217.56 163.353 217.2V215.688H161.529V227.544H163.353V220.896C163.353 218.568 164.649 217.008 166.641 217.008C168.729 217.008 169.833 218.496 169.833 221.136C169.833 222.672 169.833 227.544 169.833 227.544H171.657V220.776ZM188.79 215.664L185.31 224.28C185.238 224.496 185.19 224.712 185.19 224.928V225.336H185.142V224.928C185.142 224.712 185.094 224.496 185.022 224.28L181.542 215.664H179.574L183.894 226.272C184.086 226.728 184.086 227.208 183.894 227.664L182.238 231.744H184.206L190.758 215.664H188.79ZM192.31 221.616C192.31 218.976 193.678 217.008 196.054 217.008C198.406 217.008 199.774 218.976 199.774 221.616C199.774 224.256 198.406 226.224 196.054 226.224C193.678 226.224 192.31 224.256 192.31 221.616ZM201.622 221.616C201.622 217.944 199.366 215.328 196.054 215.328C192.742 215.328 190.486 217.944 190.486 221.616C190.486 225.288 192.742 227.904 196.054 227.904C199.366 227.904 201.622 225.288 201.622 221.616ZM203.455 215.688V222.456C203.455 225.96 204.991 227.88 207.919 227.88C210.223 227.88 211.279 226.464 211.663 225.528L211.951 224.64L211.975 224.664L211.903 224.952C211.807 225.312 211.759 225.648 211.759 226.008V227.52H213.583V215.688H211.759V222.336C211.759 224.664 210.439 226.224 208.471 226.224C206.239 226.224 205.279 224.736 205.279 222.096C205.279 220.56 205.279 215.688 205.279 215.688H203.455ZM222.724 227.544H224.572C224.572 224.52 224.572 215.736 224.572 215.688H222.724V227.544ZM223.636 214.008C224.212 214.008 224.668 213.552 224.668 213C224.668 212.424 224.212 211.968 223.636 211.968C223.084 211.968 222.628 212.424 222.628 213C222.628 213.552 223.084 214.008 223.636 214.008ZM237.165 220.776C237.165 217.272 235.485 215.328 232.701 215.328C231.093 215.328 230.037 216.048 229.437 216.792C229.149 217.152 228.981 217.584 228.861 217.968L228.669 218.592L228.621 218.568L228.717 218.256C228.813 217.92 228.861 217.56 228.861 217.2V215.688H227.037V227.544H228.861V220.896C228.861 218.568 230.157 217.008 232.149 217.008C234.237 217.008 235.341 218.496 235.341 221.136C235.341 222.672 235.341 227.544 235.341 227.544H237.165V220.776ZM241.8 225.864C241.728 225.864 241.68 225.792 241.68 225.72V217.224H243.768V215.664H241.68V211.464H240C240 211.488 240 213.528 240 214.968C240 215.4 239.664 215.736 239.232 215.736H238.008V217.224H239.832C239.832 220.176 239.832 226.152 239.832 226.392C239.832 227.016 240.336 227.52 240.96 227.52H244.296V225.864H241.8ZM246.732 221.616C246.732 218.976 248.1 217.008 250.476 217.008C252.828 217.008 254.196 218.976 254.196 221.616C254.196 224.256 252.828 226.224 250.476 226.224C248.1 226.224 246.732 224.256 246.732 221.616ZM256.044 221.616C256.044 217.944 253.788 215.328 250.476 215.328C247.164 215.328 244.908 217.944 244.908 221.616C244.908 225.288 247.164 227.904 250.476 227.904C253.788 227.904 256.044 225.288 256.044 221.616ZM272.116 222.648C272.116 224.64 270.82 226.272 268.444 226.272C267.1 226.272 266.236 225.528 266.116 224.496C265.996 223.416 266.62 222.36 268.156 222.072C268.996 221.928 270.436 221.64 270.988 221.52C271.9 221.352 272.116 221.064 272.116 221.064V222.648ZM274.924 225.984H274.084C274.012 225.984 273.964 225.936 273.964 225.864V219.816C273.988 217.008 272.404 215.328 269.38 215.328C267.796 215.328 266.452 215.856 265.612 216.816C264.82 217.704 264.58 218.832 264.82 219.936L266.62 219.672C266.5 219.096 266.524 218.376 266.98 217.8C267.364 217.344 268.084 216.864 269.356 216.864C271.108 216.864 272.044 217.824 272.044 219C272.044 219.48 271.828 219.792 271.42 219.96C271.06 220.104 270.412 220.2 269.572 220.368C268.924 220.512 267.796 220.752 267.028 220.968C264.844 221.568 264.22 223.032 264.268 224.544C264.292 226.272 265.66 227.904 268.132 227.904C269.74 227.904 270.94 227.28 271.708 226.344C272.068 225.888 272.308 225.288 272.428 224.688C272.452 224.64 272.524 224.28 272.524 224.28H272.548L272.524 224.448C272.452 224.808 272.428 225.168 272.404 225.528C272.404 225.672 272.404 226.224 272.404 226.656C272.404 227.16 272.764 227.544 273.316 227.544H274.924V225.984ZM292.139 222.792C291.779 224.832 290.507 226.224 288.515 226.224C286.139 226.224 284.771 224.256 284.771 221.616C284.771 218.976 286.139 217.008 288.515 217.008C290.507 217.008 291.779 218.4 292.139 220.44L293.963 220.248C293.483 217.272 291.395 215.328 288.515 215.328C285.203 215.328 282.947 217.944 282.947 221.616C282.947 225.288 285.203 227.904 288.515 227.904C291.395 227.904 293.483 225.96 293.963 223.008L292.139 222.792ZM303.265 222.648C303.265 224.64 301.969 226.272 299.593 226.272C298.249 226.272 297.385 225.528 297.265 224.496C297.145 223.416 297.769 222.36 299.305 222.072C300.145 221.928 301.585 221.64 302.137 221.52C303.049 221.352 303.265 221.064 303.265 221.064V222.648ZM306.073 225.984H305.233C305.161 225.984 305.113 225.936 305.113 225.864V219.816C305.137 217.008 303.553 215.328 300.529 215.328C298.945 215.328 297.601 215.856 296.761 216.816C295.969 217.704 295.729 218.832 295.969 219.936L297.769 219.672C297.649 219.096 297.673 218.376 298.129 217.8C298.513 217.344 299.233 216.864 300.505 216.864C302.257 216.864 303.193 217.824 303.193 219C303.193 219.48 302.977 219.792 302.569 219.96C302.209 220.104 301.561 220.2 300.721 220.368C300.073 220.512 298.945 220.752 298.177 220.968C295.993 221.568 295.369 223.032 295.417 224.544C295.441 226.272 296.809 227.904 299.281 227.904C300.889 227.904 302.089 227.28 302.857 226.344C303.217 225.888 303.457 225.288 303.577 224.688C303.601 224.64 303.673 224.28 303.673 224.28H303.697L303.673 224.448C303.601 224.808 303.577 225.168 303.553 225.528C303.553 225.672 303.553 226.224 303.553 226.656C303.553 227.16 303.913 227.544 304.465 227.544H306.073V225.984ZM316.704 224.448C316.704 221.952 314.4 221.256 312.48 220.776C311.448 220.512 309.504 220.08 309.504 218.616C309.504 217.728 310.224 216.864 312 216.864C313.968 216.864 314.568 217.944 314.568 219.144H316.272C316.272 217.2 315.168 215.328 311.952 215.328C308.904 215.328 307.656 216.816 307.656 218.448C307.656 220.584 309.288 221.448 311.544 222C313.776 222.528 314.856 223.176 314.856 224.352C314.856 225.648 313.728 226.344 312.168 226.344C309.576 226.344 309.216 224.496 309.216 223.752H307.392C307.392 225.744 308.664 227.88 312.24 227.88C315.36 227.88 316.704 226.32 316.704 224.448ZM323.789 217.008C325.925 217.008 327.197 218.616 327.413 220.8H320.141C320.357 218.616 321.653 217.008 323.789 217.008ZM329.309 222.168C329.333 222 329.357 221.808 329.357 221.616C329.357 217.944 327.101 215.328 323.789 215.328C320.477 215.328 318.221 217.944 318.221 221.616C318.221 225.288 320.477 227.904 323.789 227.904C326.453 227.904 328.397 226.2 329.093 223.656L327.221 223.32C326.813 225.024 325.613 226.224 323.789 226.224C321.557 226.224 320.261 224.472 320.141 222.168H329.309ZM346.798 224.448C346.798 221.952 344.494 221.256 342.574 220.776C341.542 220.512 339.598 220.08 339.598 218.616C339.598 217.728 340.318 216.864 342.094 216.864C344.062 216.864 344.662 217.944 344.662 219.144H346.366C346.366 217.2 345.262 215.328 342.046 215.328C338.998 215.328 337.75 216.816 337.75 218.448C337.75 220.584 339.382 221.448 341.638 222C343.87 222.528 344.95 223.176 344.95 224.352C344.95 225.648 343.822 226.344 342.262 226.344C339.67 226.344 339.31 224.496 339.31 223.752H337.486C337.486 225.744 338.758 227.88 342.334 227.88C345.454 227.88 346.798 226.32 346.798 224.448ZM351.675 225.864C351.603 225.864 351.555 225.792 351.555 225.72V217.224H353.643V215.664H351.555V211.464H349.875C349.875 211.488 349.875 213.528 349.875 214.968C349.875 215.4 349.539 215.736 349.107 215.736H347.883V217.224H349.707C349.707 220.176 349.707 226.152 349.707 226.392C349.707 227.016 350.211 227.52 350.835 227.52H354.171V225.864H351.675ZM355.634 215.688V222.456C355.634 225.96 357.17 227.88 360.098 227.88C362.402 227.88 363.458 226.464 363.842 225.528L364.13 224.64L364.154 224.664L364.082 224.952C363.986 225.312 363.938 225.648 363.938 226.008V227.52H365.762V215.688H363.938V222.336C363.938 224.664 362.618 226.224 360.65 226.224C358.418 226.224 357.458 224.736 357.458 222.096C357.458 220.56 357.458 215.688 357.458 215.688H355.634ZM369.568 221.616C369.568 218.952 370.936 216.984 373.312 216.984C375.664 216.984 376.888 218.952 376.888 221.616C376.888 224.256 375.688 226.224 373.312 226.224C370.936 226.224 369.568 224.256 369.568 221.616ZM376.96 211.464V217.56C376.96 217.92 377.008 218.28 377.104 218.616L377.2 218.928H377.176L376.888 218.064C376.576 217.032 375.688 215.328 372.976 215.328C369.832 215.328 367.744 217.944 367.744 221.616C367.744 225.264 369.808 227.88 372.976 227.88C375.688 227.88 376.6 226.152 376.912 225.12L377.176 224.28H377.2L377.104 224.592C377.008 224.928 376.96 225.288 376.96 225.648V227.544H378.808V211.464H376.96ZM389.439 215.664L385.959 224.28C385.887 224.496 385.839 224.712 385.839 224.928V225.336H385.791V224.928C385.791 224.712 385.743 224.496 385.671 224.28L382.191 215.664H380.223L384.543 226.272C384.735 226.728 384.735 227.208 384.543 227.664L382.887 231.744H384.855L391.407 215.664H389.439ZM390.002 227.688C390.578 227.688 391.034 227.208 391.034 226.656C391.034 226.08 390.578 225.624 390.002 225.624C389.45 225.624 388.994 226.08 388.994 226.656C388.994 227.208 389.45 227.688 390.002 227.688ZM92.3454 245.832C91.6974 248.448 89.7294 250.128 87.1614 250.128C83.9214 250.128 81.6894 247.44 81.6894 243.504C81.6894 239.544 83.9214 236.856 87.1614 236.856C89.7054 236.856 91.6734 238.512 92.3214 241.104L94.3614 240.816C93.4974 237.312 90.6414 235.104 87.1614 235.104C82.8654 235.104 79.6494 238.488 79.6494 243.504C79.6494 248.52 82.8654 251.88 87.1614 251.88C90.6654 251.88 93.4974 249.648 94.3614 246.12L92.3454 245.832ZM97.5292 245.616C97.5292 242.976 98.8972 241.008 101.273 241.008C103.625 241.008 104.993 242.976 104.993 245.616C104.993 248.256 103.625 250.224 101.273 250.224C98.8972 250.224 97.5292 248.256 97.5292 245.616ZM106.841 245.616C106.841 241.944 104.585 239.328 101.273 239.328C97.9612 239.328 95.7052 241.944 95.7052 245.616C95.7052 249.288 97.9612 251.904 101.273 251.904C104.585 251.904 106.841 249.288 106.841 245.616ZM118.735 244.776C118.735 241.272 117.055 239.328 114.271 239.328C112.663 239.328 111.607 240.048 111.007 240.792C110.719 241.152 110.551 241.584 110.431 241.968L110.239 242.592L110.191 242.568L110.287 242.256C110.383 241.92 110.431 241.56 110.431 241.2V239.688H108.607V251.544H110.431V244.896C110.431 242.568 111.727 241.008 113.719 241.008C115.807 241.008 116.911 242.496 116.911 245.136C116.911 246.672 116.911 251.544 116.911 251.544H118.735V244.776ZM125.859 250.224C123.483 250.224 122.115 248.256 122.115 245.616C122.115 242.976 123.483 241.008 125.859 241.008C128.211 241.008 129.435 242.976 129.435 245.616C129.435 248.256 128.235 250.224 125.859 250.224ZM131.355 249.744V239.688H129.507V241.56C129.507 241.92 129.555 242.28 129.651 242.64L129.747 242.928L129.723 242.952L129.435 242.064C129.123 241.056 128.235 239.328 125.523 239.328C122.379 239.328 120.291 241.968 120.291 245.616C120.291 249.264 122.355 251.904 125.523 251.904C128.235 251.904 129.147 250.176 129.459 249.144L129.723 248.28L129.747 248.304L129.651 248.616C129.579 248.88 129.531 249.168 129.531 249.456C129.531 249.528 129.507 250.176 129.507 250.248C129.507 251.352 130.107 252.048 130.107 252.864C130.107 254.016 129.171 254.232 128.115 254.208H122.211V255.768H128.763C130.995 255.768 132.003 254.904 132.003 253.152C132.003 251.688 131.355 251.352 131.355 249.744ZM135.697 251.544V245.712C135.697 243.72 136.633 241.104 137.593 241.104C138.241 241.104 138.433 241.968 138.433 242.64V243.96H140.281V242.256C140.281 240.48 139.705 239.328 138.313 239.328C137.593 239.328 136.993 239.856 136.561 240.48C136.129 241.08 135.889 241.776 135.817 242.184C135.793 242.256 135.697 242.832 135.673 242.904L135.601 243.36H135.577L135.625 243.048C135.673 242.664 135.697 242.304 135.697 241.92V239.688H133.873V251.544H135.697ZM149.374 246.648C149.374 248.64 148.078 250.272 145.702 250.272C144.358 250.272 143.494 249.528 143.374 248.496C143.254 247.416 143.878 246.36 145.414 246.072C146.254 245.928 147.694 245.64 148.246 245.52C149.158 245.352 149.374 245.064 149.374 245.064V246.648ZM152.182 249.984H151.342C151.27 249.984 151.222 249.936 151.222 249.864V243.816C151.246 241.008 149.662 239.328 146.638 239.328C145.054 239.328 143.71 239.856 142.87 240.816C142.078 241.704 141.838 242.832 142.078 243.936L143.878 243.672C143.758 243.096 143.782 242.376 144.238 241.8C144.622 241.344 145.342 240.864 146.614 240.864C148.366 240.864 149.302 241.824 149.302 243C149.302 243.48 149.086 243.792 148.678 243.96C148.318 244.104 147.67 244.2 146.83 244.368C146.182 244.512 145.054 244.752 144.286 244.968C142.102 245.568 141.478 247.032 141.526 248.544C141.55 250.272 142.918 251.904 145.39 251.904C146.998 251.904 148.198 251.28 148.966 250.344C149.326 249.888 149.566 249.288 149.686 248.688C149.71 248.64 149.782 248.28 149.782 248.28H149.806L149.782 248.448C149.71 248.808 149.686 249.168 149.662 249.528C149.662 249.672 149.662 250.224 149.662 250.656C149.662 251.16 150.022 251.544 150.574 251.544H152.182V249.984ZM156.37 249.864C156.298 249.864 156.25 249.792 156.25 249.72V241.224H158.338V239.664H156.25V235.464H154.57C154.57 235.488 154.57 237.528 154.57 238.968C154.57 239.4 154.234 239.736 153.802 239.736H152.578V241.224H154.402C154.402 244.176 154.402 250.152 154.402 250.392C154.402 251.016 154.906 251.52 155.53 251.52H158.866V249.864H156.37ZM160.33 239.688V246.456C160.33 249.96 161.866 251.88 164.794 251.88C167.098 251.88 168.154 250.464 168.538 249.528L168.826 248.64L168.85 248.664L168.778 248.952C168.682 249.312 168.634 249.648 168.634 250.008V251.52H170.458V239.688H168.634V246.336C168.634 248.664 167.314 250.224 165.346 250.224C163.114 250.224 162.154 248.736 162.154 246.096C162.154 244.56 162.154 239.688 162.154 239.688H160.33ZM172.896 250.416C172.896 251.04 173.4 251.544 174.024 251.544H177.024V249.864H174.864C174.792 249.864 174.72 249.816 174.72 249.72V235.488H172.896C172.872 235.56 172.872 250.032 172.896 250.416ZM185.96 246.648C185.96 248.64 184.664 250.272 182.288 250.272C180.944 250.272 180.08 249.528 179.96 248.496C179.84 247.416 180.464 246.36 182 246.072C182.84 245.928 184.28 245.64 184.832 245.52C185.744 245.352 185.96 245.064 185.96 245.064V246.648ZM188.768 249.984H187.928C187.856 249.984 187.808 249.936 187.808 249.864V243.816C187.832 241.008 186.248 239.328 183.224 239.328C181.64 239.328 180.296 239.856 179.456 240.816C178.664 241.704 178.424 242.832 178.664 243.936L180.464 243.672C180.344 243.096 180.368 242.376 180.824 241.8C181.208 241.344 181.928 240.864 183.2 240.864C184.952 240.864 185.888 241.824 185.888 243C185.888 243.48 185.672 243.792 185.264 243.96C184.904 244.104 184.256 244.2 183.416 244.368C182.768 244.512 181.64 244.752 180.872 244.968C178.688 245.568 178.064 247.032 178.112 248.544C178.136 250.272 179.504 251.904 181.976 251.904C183.584 251.904 184.784 251.28 185.552 250.344C185.912 249.888 186.152 249.288 186.272 248.688C186.296 248.64 186.368 248.28 186.368 248.28H186.392L186.368 248.448C186.296 248.808 186.272 249.168 186.248 249.528C186.248 249.672 186.248 250.224 186.248 250.656C186.248 251.16 186.608 251.544 187.16 251.544H188.768V249.984ZM192.956 249.864C192.884 249.864 192.836 249.792 192.836 249.72V241.224H194.924V239.664H192.836V235.464H191.156C191.156 235.488 191.156 237.528 191.156 238.968C191.156 239.4 190.82 239.736 190.388 239.736H189.164V241.224H190.988C190.988 244.176 190.988 250.152 190.988 250.392C190.988 251.016 191.492 251.52 192.116 251.52H195.452V249.864H192.956ZM197.084 251.544H198.932C198.932 248.52 198.932 239.736 198.932 239.688H197.084V251.544ZM197.996 238.008C198.572 238.008 199.028 237.552 199.028 237C199.028 236.424 198.572 235.968 197.996 235.968C197.444 235.968 196.988 236.424 196.988 237C196.988 237.552 197.444 238.008 197.996 238.008ZM202.482 245.616C202.482 242.976 203.85 241.008 206.226 241.008C208.578 241.008 209.946 242.976 209.946 245.616C209.946 248.256 208.578 250.224 206.226 250.224C203.85 250.224 202.482 248.256 202.482 245.616ZM211.794 245.616C211.794 241.944 209.538 239.328 206.226 239.328C202.914 239.328 200.658 241.944 200.658 245.616C200.658 249.288 202.914 251.904 206.226 251.904C209.538 251.904 211.794 249.288 211.794 245.616ZM223.688 244.776C223.688 241.272 222.008 239.328 219.224 239.328C217.616 239.328 216.56 240.048 215.96 240.792C215.672 241.152 215.504 241.584 215.384 241.968L215.192 242.592L215.144 242.568L215.24 242.256C215.336 241.92 215.384 241.56 215.384 241.2V239.688H213.56V251.544H215.384V244.896C215.384 242.568 216.68 241.008 218.672 241.008C220.76 241.008 221.864 242.496 221.864 245.136C221.864 246.672 221.864 251.544 221.864 251.544H223.688V244.776ZM234.79 248.448C234.79 245.952 232.486 245.256 230.566 244.776C229.534 244.512 227.59 244.08 227.59 242.616C227.59 241.728 228.31 240.864 230.086 240.864C232.054 240.864 232.654 241.944 232.654 243.144H234.358C234.358 241.2 233.254 239.328 230.038 239.328C226.99 239.328 225.742 240.816 225.742 242.448C225.742 244.584 227.374 245.448 229.63 246C231.862 246.528 232.942 247.176 232.942 248.352C232.942 249.648 231.814 250.344 230.254 250.344C227.662 250.344 227.302 248.496 227.302 247.752H225.478C225.478 249.744 226.75 251.88 230.326 251.88C233.446 251.88 234.79 250.32 234.79 248.448ZM237.366 249C236.814 249 236.358 249.456 236.358 250.008C236.358 250.584 236.814 251.04 237.366 251.04C237.942 251.04 238.398 250.584 238.398 250.008C238.398 249.456 237.942 249 237.366 249ZM238.422 235.464H236.334C236.334 235.464 236.334 236.4 236.334 236.952C236.334 237.312 236.334 237.696 236.334 238.056C236.334 238.848 236.454 240.12 236.526 241.392V241.416C236.598 242.568 236.694 243.744 236.718 244.656C236.718 245.112 236.718 245.52 236.718 245.88C236.718 246.48 236.718 247.128 236.718 247.128H238.038C238.038 247.128 238.038 246.48 238.038 245.88C238.038 245.52 238.038 245.112 238.038 244.656C238.062 243.744 238.134 242.568 238.23 241.416C238.326 240.12 238.398 238.848 238.422 238.056C238.422 237.696 238.422 237.312 238.422 236.952C238.422 236.4 238.422 235.464 238.422 235.464Z" fill="#303030"/>
<path fill-rule="evenodd" clip-rule="evenodd" d="M396.584 44.9936C397.334 44.2434 398.352 43.822 399.413 43.822H411.413C412.474 43.822 413.491 44.2434 414.241 44.9936L421.07 51.822H439.413C441.622 51.822 443.413 53.6129 443.413 55.822V83.822C443.413 86.0312 441.622 87.822 439.413 87.822H419.413V79.822H435.413V59.822H419.413C418.352 59.822 417.334 59.4006 416.584 58.6504L409.756 51.822H401.07L392.241 60.6505C391.594 61.2975 391.594 62.3465 392.241 62.9936C392.888 63.6406 393.937 63.6406 394.584 62.9936L402.584 54.9936L408.241 60.6504L400.241 68.6504C396.47 72.4217 390.356 72.4217 386.584 68.6504C382.813 64.8792 382.813 58.7648 386.584 54.9936L396.584 44.9936Z" fill="#303030"/>
<path fill-rule="evenodd" clip-rule="evenodd" d="M376.584 44.9936C377.334 44.2434 378.351 43.822 379.412 43.822H399.412V51.822H381.069L374.241 58.6504C373.49 59.4006 372.473 59.822 371.412 59.822H363.412V79.822H375.412C376.473 79.822 377.49 80.2435 378.241 80.9936L389.069 91.822H413.755L417.755 87.822L396.584 66.6504L402.241 60.9936L426.241 84.9936C427.803 86.5557 427.803 89.0884 426.241 90.6504L418.241 98.6504C417.49 99.4006 416.473 99.822 415.412 99.822H387.412C386.351 99.822 385.334 99.4006 384.584 98.6504L373.755 87.822H359.412C357.203 87.822 355.412 86.0312 355.412 83.822V55.822C355.412 53.6129 357.203 51.822 359.412 51.822H369.755L376.584 44.9936Z" fill="#FFF6E9"/>
<path d="M396.584 44.9936C397.334 44.2434 398.351 43.822 399.412 43.822H411.412C412.473 43.822 413.491 44.2434 414.241 44.9936L421.069 51.822H439.412C441.621 51.822 443.412 53.6129 443.412 55.822V83.822C443.412 86.0312 441.621 87.822 439.412 87.822L435.412 79.822V59.822H419.412C418.351 59.822 417.334 59.4006 416.584 58.6504L409.755 51.822H401.069L392.241 60.6505C391.594 61.2975 391.594 62.3465 392.241 62.9936C392.888 63.6406 393.937 63.6406 394.584 62.9936L402.584 54.9936L408.241 60.6504L400.241 68.6504C396.469 72.4217 390.355 72.4217 386.584 68.6504C382.813 64.8792 382.813 58.7648 386.584 54.9936L396.584 44.9936Z" fill="#303030"/>
</svg>
