<svg width="119" height="1945" viewBox="0 0 119 1945" fill="none" xmlns="http://www.w3.org/2000/svg">
<path d="M59.8828 1897.98L59.8828 1710.25" stroke="#8CD87C" stroke-width="30"/>
<path d="M3.70316 1869.18C1.91683 1866.09 1.91683 1862.28 3.70315 1859.18L27.4629 1818.03C29.2492 1814.93 32.5505 1813.03 36.1232 1813.03L83.6427 1813.03C87.2153 1813.03 90.5166 1814.93 92.3029 1818.03L116.063 1859.18C117.849 1862.28 117.849 1866.09 116.063 1869.18L92.3029 1910.33C90.5166 1913.43 87.2154 1915.33 83.6427 1915.33L36.1232 1915.33C32.5505 1915.33 29.2492 1913.43 27.4629 1910.33L3.70316 1869.18Z" fill="#FFF6E9"/>
<path d="M59.8832 1882.41C68.9844 1882.41 76.3623 1889.79 76.3623 1898.89L76.3623 1927.6C76.3623 1936.71 68.9844 1944.08 59.8832 1944.08V1944.08C50.7821 1944.08 43.4041 1936.71 43.4041 1927.6L43.4041 1898.89C43.4041 1889.79 50.7821 1882.41 59.8832 1882.41V1882.41Z" fill="#8CD87C"/>
<path d="M3.70317 84.6053C1.91684 81.5113 1.91684 77.6994 3.70317 74.6053L27.4629 33.4522C29.2493 30.3582 32.5505 28.4522 36.1232 28.4522L83.6427 28.4522C87.2154 28.4522 90.5166 30.3582 92.303 33.4522L116.063 74.6054C117.849 77.6994 117.849 81.5114 116.063 84.6054L92.303 125.758C90.5166 128.852 87.2154 130.758 83.6427 130.758L36.1232 130.758C32.5505 130.758 29.2492 128.852 27.4629 125.758L3.70317 84.6053Z" fill="#FFF6E9"/>
<path d="M58.3628 91V303V519V683V1349V1645V1717" stroke="#FFF6E9" stroke-width="30"/>
<path d="M59.7594 62.6252C50.6582 62.6252 43.2803 55.2473 43.2803 46.1461L43.2803 17.4332C43.2803 8.33208 50.6582 0.954148 59.7594 0.954149V0.954149C68.8605 0.954151 76.2385 8.33209 76.2385 17.4332L76.2385 46.1462C76.2385 55.2473 68.8605 62.6252 59.7594 62.6252V62.6252Z" fill="#8CD87C"/>
</svg>
