<svg width="573" height="341" viewBox="0 0 573 341" fill="none" xmlns="http://www.w3.org/2000/svg">
<path d="M84.6957 4.21046V56.6905H35.0857V4.21046H0.645743V141.355H35.0857V86.4155H84.6957V141.355H119.136V4.21046H84.6957ZM165.025 90.9255C165.025 75.1405 172.405 65.3005 184.09 65.3005C195.57 65.3005 202.95 75.1405 202.95 90.9255C202.95 106.71 195.57 116.55 184.09 116.55C172.405 116.55 165.025 106.71 165.025 90.9255ZM234.52 90.9255C234.52 57.5105 212.995 37.2155 184.09 37.2155C154.98 37.2155 133.66 57.5105 133.66 90.9255C133.66 124.545 154.98 144.635 184.09 144.635C212.995 144.635 234.52 124.545 234.52 90.9255ZM357.916 40.2905L343.976 90.9255C342.951 94.2055 342.541 97.6905 342.541 101.175V105.07H341.926V101.175C341.926 97.6905 341.516 94.2055 340.491 90.9255L325.116 40.2905H298.466L282.886 90.9255C282.066 94.2055 281.451 97.6905 281.451 101.175V105.07H281.041V101.175C281.041 97.6905 280.631 94.2055 279.606 90.9255L265.666 40.2905H233.276L263.001 141.56H297.236L309.946 100.97C310.971 97.4855 311.586 93.7955 311.586 90.1055V86.6205H311.996V90.1055C311.996 93.7955 312.611 97.4855 313.636 100.97L326.346 141.56H360.376L390.306 40.2905H357.916ZM457.467 141.56H489.037C489.037 135 489.037 40.4955 489.037 40.2905H457.467V141.56ZM473.252 33.5255C482.477 33.5255 489.857 25.9405 489.857 16.9205C489.857 7.69547 482.477 0.315464 473.252 0.315464C464.232 0.315464 456.852 7.69547 456.852 16.9205C456.852 25.9405 464.232 33.5255 473.252 33.5255ZM549.15 113.475C547.92 113.475 546.895 112.45 546.895 111.22V65.7105H562.68V40.2905H546.895V4.21046H519.22C519.22 4.21046 519.22 27.3755 519.22 30.4505C519.22 36.6005 514.3 41.5205 508.15 41.5205H500.975V65.7105H515.325C515.325 72.0655 515.325 124.135 515.325 124.75C515.325 133.975 522.705 141.355 532.135 141.355H568.42V113.475H549.15ZM145.509 187.29L131.569 237.925C130.544 241.205 130.134 244.69 130.134 248.175V252.07H129.519V248.175C129.519 244.69 129.109 241.205 128.084 237.925L112.709 187.29H86.0587L70.4787 237.925C69.6587 241.205 69.0437 244.69 69.0437 248.175V252.07H68.6337V248.175C68.6337 244.69 68.2237 241.205 67.1987 237.925L53.2587 187.29H20.8687L50.5937 288.56H84.8287L97.5387 247.97C98.5637 244.485 99.1787 240.795 99.1787 237.105V233.62H99.5887V237.105C99.5887 240.795 100.204 244.485 101.229 247.97L113.939 288.56H147.969L177.899 187.29H145.509ZM208.268 237.925C208.268 222.14 215.648 212.3 227.333 212.3C238.813 212.3 246.193 222.14 246.193 237.925C246.193 253.71 238.813 263.55 227.333 263.55C215.648 263.55 208.268 253.71 208.268 237.925ZM277.763 237.925C277.763 204.51 256.238 184.215 227.333 184.215C198.223 184.215 176.903 204.51 176.903 237.925C176.903 271.545 198.223 291.635 227.333 291.635C256.238 291.635 277.763 271.545 277.763 237.925ZM320.873 244.28C320.873 227.265 324.358 214.35 330.508 214.35C335.018 214.35 335.633 220.5 335.633 225.42V236.285L367.203 236.08V212.505C367.203 197.745 361.873 184.215 345.268 184.215C339.733 184.215 334.198 186.47 330.508 189.955C325.793 194.465 323.538 200 322.308 203.69C321.898 205.33 321.283 208.2 321.078 210.045L320.258 215.17H319.848L320.258 212.505C320.668 209.43 320.873 206.15 320.873 203.075V187.29H289.508V288.56H320.873V244.28ZM456.462 217.835L475.937 187.29H438.627C438.627 187.29 418.332 218.86 415.257 223.78C413.412 226.65 411.977 230.75 411.977 234.85L411.772 240.385H411.362V151.415H379.997V288.56H411.362L430.427 258.63L445.187 288.56H480.037L455.232 237.72C452.157 231.365 452.772 223.78 456.462 217.835ZM567.748 260.065C567.748 237.72 548.683 231.775 532.898 227.47C524.903 225.215 513.628 223.575 513.628 216.81C513.628 212.505 516.703 209.43 524.288 209.43C532.078 209.43 535.358 212.915 535.358 217.63L564.263 217.835C564.263 197.13 549.298 184.215 522.853 184.215C494.973 184.215 482.058 197.95 482.058 213.12C482.058 235.26 499.278 241.615 515.063 245.92C526.338 248.995 535.973 251.455 535.973 257.81C535.973 263.345 531.053 266.01 524.083 266.01C514.448 266.01 511.168 259.45 511.168 254.735H479.803C479.803 275.85 494.973 291.43 525.518 291.43C553.398 291.43 567.748 278.31 567.748 260.065Z" fill="#FFF6E9"/>
<line x1="28.5187" y1="325.264" x2="572.778" y2="325.264" stroke="#F98D2B" stroke-width="30"/>
</svg>
