<svg width="47" height="49" viewBox="0 0 47 49" fill="none" xmlns="http://www.w3.org/2000/svg">
<path fill-rule="evenodd" clip-rule="evenodd" d="M4.06563 21.6771C4.36874 20.9142 5.08282 20.4167 5.87489 20.4167H17.6249C18.417 20.4167 19.131 20.9142 19.4342 21.6771C19.7373 22.44 19.5697 23.3182 19.0096 23.9021L13.1346 30.0271C12.3699 30.8244 11.1299 30.8244 10.3651 30.0271L4.49014 23.9021C3.93006 23.3182 3.76252 22.44 4.06563 21.6771ZM10.6027 24.5001L11.7499 25.6961L12.8971 24.5001H10.6027Z" fill="#C096D6"/>
<path fill-rule="evenodd" clip-rule="evenodd" d="M26.2078 28.7387C26.9395 29.0547 27.4167 29.7992 27.4167 30.625V42.875C27.4167 43.7008 26.9395 44.4452 26.2078 44.7612C25.476 45.0772 24.6337 44.9026 24.0736 44.3187L18.1986 38.1937C17.4338 37.3963 17.4338 36.1036 18.1986 35.3063L24.0736 29.1813C24.6337 28.5974 25.476 28.4227 26.2078 28.7387ZM22.3528 36.75L23.5 37.946V35.554L22.3528 36.75Z" fill="#C096D6"/>
<path fill-rule="evenodd" clip-rule="evenodd" d="M2.53186 43.4731L10.3652 35.3064L13.1347 38.1937L5.30136 46.3604L2.53186 43.4731Z" fill="#C096D6"/>
<path fill-rule="evenodd" clip-rule="evenodd" d="M10.3652 43.473L14.2819 39.3896L17.0514 42.277L13.1347 46.3603L10.3652 43.473Z" fill="#C096D6"/>
<path fill-rule="evenodd" clip-rule="evenodd" d="M2.53186 35.3062L6.44853 31.2229L9.21803 34.1103L5.30136 38.1936L2.53186 35.3062Z" fill="#C096D6"/>
<path fill-rule="evenodd" clip-rule="evenodd" d="M29.9485 6.72299C30.7133 5.92567 31.9533 5.92567 32.718 6.72299L40.5514 14.8897C41.3162 15.687 41.3162 16.9797 40.5514 17.777L20.968 38.1937C20.2033 38.991 18.9633 38.991 18.1985 38.1937L10.3652 30.027C9.60043 29.2297 9.60043 27.937 10.3652 27.1397L29.9485 6.72299ZM14.5195 28.5833L19.5833 33.8626L36.3971 16.3333L31.3333 11.054L14.5195 28.5833Z" fill="#8CD87C"/>
<path fill-rule="evenodd" clip-rule="evenodd" d="M44.468 2.63967C44.9925 3.1865 45.1757 3.99534 44.9411 4.72898L41.0244 16.979C40.8098 17.6503 40.2771 18.1578 39.6165 18.3204C38.956 18.483 38.2618 18.2774 37.7818 17.777L29.9485 9.61036C29.4686 9.11001 29.2714 8.38627 29.4273 7.6976C29.5832 7.00894 30.0701 6.45355 30.714 6.22979L42.464 2.14645C43.1677 1.90191 43.9435 2.09285 44.468 2.63967ZM34.9586 9.05892L38.3108 12.5538L39.9869 7.31151L34.9586 9.05892Z" fill="#C096D6"/>
</svg>
